<svg xmlns="http://www.w3.org/2000/svg" width="26" height="27" viewBox="0 0 26 27">
  <g id="Group_9574" data-name="Group 9574" transform="translate(-299 -122)">
    <path id="id-card_2_" data-name="id-card (2)" d="M22.25,1H1.75A2.752,2.752,0,0,0-1,3.75v21.5A2.752,2.752,0,0,0,1.75,28h20.5A2.752,2.752,0,0,0,25,25.25V3.75A2.752,2.752,0,0,0,22.25,1ZM7.5,5A2.5,2.5,0,1,1,5,7.5,2.5,2.5,0,0,1,7.5,5ZM12,14.25a.75.75,0,0,1-.75.75H3.75A.75.75,0,0,1,3,14.25v-.5A2.752,2.752,0,0,1,5.75,11h3.5A2.752,2.752,0,0,1,12,13.75Zm8.25.75h-5.5a.75.75,0,0,1,0-1.5h5.5a.75.75,0,0,1,0,1.5Zm0-4h-5.5a.75.75,0,0,1,0-1.5h5.5a.75.75,0,0,1,0,1.5Zm0-4h-5.5a.75.75,0,0,1,0-1.5h5.5a.75.75,0,0,1,0,1.5Z" transform="translate(300 121)" fill="#1daeee"/>
    <text id="Active" transform="translate(303 145.16)" fill="#fff" font-size="7" font-family="Roboto-Regular, Roboto"><tspan x="0" y="0">Active</tspan></text>
  </g>
</svg>
