<svg xmlns="http://www.w3.org/2000/svg" width="11.723" height="12.026" viewBox="0 0 11.723 12.026"><defs><style>.a{fill:#fff;}.b{fill:#ffc03f;}.c{fill:#213643;}</style></defs><g transform="translate(-2.048 -2.048)"><g transform="translate(2.048 2.048)"><g transform="translate(0.26 1.285)"><path class="a" d="M26.095,138.449v6.906a1.03,1.03,0,0,1-1.026,1.033h-9.15a1.03,1.03,0,0,1-1.026-1.033v-6.906Zm-1.7,2.627a.885.885,0,1,0,0,.015S24.394,141.081,24.394,141.076Zm0,2.6a.853.853,0,0,0-.836-.871h-.03a.853.853,0,0,0-.865.841c0,.01,0,.02,0,.03a.883.883,0,0,0,.865.871.868.868,0,0,0,.865-.871Zm-3.035-2.6a.885.885,0,1,0,0,.015S21.359,141.081,21.359,141.076Zm0,2.6a.853.853,0,0,0-.836-.871h-.03a.853.853,0,0,0-.865.841c0,.01,0,.02,0,.03a.883.883,0,0,0,.865.871A.868.868,0,0,0,21.359,143.673Zm-3.035-2.6a.865.865,0,1,0-.865.871.868.868,0,0,0,.865-.871Zm0,2.6a.865.865,0,1,0-1.73,0,.883.883,0,0,0,.865.871.868.868,0,0,0,.865-.871Z" transform="translate(-14.892 -135.907)"/><path class="b" d="M23.22,46.5h1.848a1.019,1.019,0,0,1,1.026,1.011V49.04h-11.2V47.509A1.019,1.019,0,0,1,15.917,46.5Z" transform="translate(-14.891 -46.498)"/><g transform="translate(1.76 4.38)"><circle class="a" cx="0.852" cy="0.852" r="0.852" transform="translate(5.978)"/><circle class="a" cx="0.852" cy="0.852" r="0.852" transform="translate(5.978 2.542)"/><circle class="a" cx="0.852" cy="0.852" r="0.852" transform="translate(2.989)"/><circle class="a" cx="0.852" cy="0.852" r="0.852" transform="translate(2.989 2.542)"/><circle class="a" cx="0.852" cy="0.852" r="0.852"/><circle class="a" cx="0.852" cy="0.852" r="0.852" transform="translate(0 2.542)"/></g></g><path class="c" d="M15.908,1.04H14.413V.293a.293.293,0,0,0-.586,0V1.04H8.845V.293a.293.293,0,0,0-.586,0V1.04H6.764A1.26,1.26,0,0,0,5.475,2.27q0,.03,0,.059v8.393a1.275,1.275,0,0,0,1.245,1.3h9.188a1.275,1.275,0,0,0,1.29-1.259q0-.022,0-.044V2.329a1.26,1.26,0,0,0-1.23-1.289Zm.7,9.682a.689.689,0,0,1-.659.717H6.764a.689.689,0,0,1-.7-.673q0-.022,0-.045V4.116h10.55Zm0-7.192H6.061v-1.2a.674.674,0,0,1,.643-.7H8.259v.732a.293.293,0,0,0,.586,0V1.626h4.982v.732a.293.293,0,0,0,.586,0V1.626h1.495a.674.674,0,0,1,.7.643q0,.03,0,.06v1.2Z" transform="translate(-5.474)"/><path class="c" d="M66.188,191.932a1.141,1.141,0,1,1,1.141-1.141,1.141,1.141,0,0,1-1.141,1.141Zm0-1.7a.563.563,0,0,0-.563.563h0a.563.563,0,1,0,.563-.563Z" transform="translate(-63.4 -184.315)"/><path class="c" d="M174.335,191.932a1.141,1.141,0,1,1,1.141-1.141,1.141,1.141,0,0,1-1.141,1.141Zm0-1.7a.563.563,0,0,0-.563.563h0a.563.563,0,1,0,.563-.563Z" transform="translate(-168.473 -184.315)"/><path class="c" d="M282.482,191.932a1.141,1.141,0,1,1,1.141-1.141,1.141,1.141,0,0,1-1.141,1.141Zm0-1.7a.563.563,0,0,0-.563.563h0a.563.563,0,1,0,.563-.563Z" transform="translate(-273.546 -184.315)"/><path class="c" d="M66.191,283.882a1.141,1.141,0,1,1,1.141-1.141s0,.01,0,.014a1.126,1.126,0,0,1-1.126,1.126Zm0-1.69a.563.563,0,1,0,.563.563.549.549,0,0,0-.534-.563Z" transform="translate(-63.403 -273.678)"/><path class="c" d="M174.338,283.882a1.141,1.141,0,1,1,1.141-1.141s0,.01,0,.014a1.126,1.126,0,0,1-1.126,1.126Zm0-1.69a.563.563,0,1,0,.563.563.549.549,0,0,0-.534-.563Z" transform="translate(-168.476 -273.678)"/><path class="c" d="M282.485,283.882a1.141,1.141,0,1,1,1.141-1.141s0,.01,0,.014a1.126,1.126,0,0,1-1.126,1.126Zm0-1.69a.563.563,0,1,0,.563.563.549.549,0,0,0-.534-.563Z" transform="translate(-273.549 -273.678)"/></g></g></svg>