<svg xmlns="http://www.w3.org/2000/svg" width="16" height="16" viewBox="0 0 16 16"><defs><style>.a{fill:#fff;}.b{fill:#ffc03f;}.c{fill:#f2f2f2;}</style></defs><path class="a" d="M13,16H3a3,3,0,0,1-3-3V3A3,3,0,0,1,3,0H13a3,3,0,0,1,3,3V13A3,3,0,0,1,13,16Z"/><g transform="translate(1.978 4.705)"><path class="a" d="M11.216,15H2v1.5a.564.564,0,0,1,0,1.129v1.129A.564.564,0,0,1,2,19.89v1.5h9.216Z" transform="translate(-1.812 -14.812)"/><path class="b" d="M51,21.395h2.069v-1.5a.564.564,0,0,1,0-1.129V17.633a.564.564,0,0,1,0-1.129V15H51Z" transform="translate(-40.904 -14.812)"/><path class="c" d="M9,19h4.514v4.89H9Z" transform="translate(-6.162 -18.06)"/><path class="b" d="M15,37v.376a.376.376,0,1,0,.752,0V37" transform="translate(-11.048 -32.674)"/><path class="b" d="M23,37v.376a.376.376,0,1,0,.752,0V37" transform="translate(-17.448 -32.674)"/><path class="b" d="M16.009,33v.376a.376.376,0,0,1-.376.376H13.376A.376.376,0,0,1,13,33.376V33Z" transform="translate(-9.393 -29.426)"/><path class="b" d="M16.009,24.881H13v-1.5A.376.376,0,0,1,13.376,23h2.257a.376.376,0,0,1,.376.376Z" transform="translate(-9.393 -21.307)"/><path d="M13.154,15.881a.194.194,0,0,0,.2-.188v-1.5a.194.194,0,0,0-.2-.188H1.2a.194.194,0,0,0-.2.188v1.5a.194.194,0,0,0,.2.188.377.377,0,1,1,0,.752.194.194,0,0,0-.2.188V17.95a.194.194,0,0,0,.2.188.377.377,0,1,1,0,.752.194.194,0,0,0-.2.188v1.5a.194.194,0,0,0,.2.188H13.154a.194.194,0,0,0,.2-.188v-1.5a.194.194,0,0,0-.2-.188.377.377,0,1,1,0-.752.194.194,0,0,0,.2-.188V16.821a.194.194,0,0,0-.2-.188.377.377,0,1,1,0-.752Zm-.2,1.1v.8a.743.743,0,0,0,0,1.457V20.4H11.161v-.564h-.4V20.4H1.4V19.243a.743.743,0,0,0,0-1.457v-.8a.743.743,0,0,0,0-1.457V14.376h9.364v.564h.4v-.564h1.793v1.152a.743.743,0,0,0,0,1.457Z" transform="translate(-1 -14)"/><path d="M12.7,18H8.188A.188.188,0,0,0,8,18.188v4.89a.188.188,0,0,0,.188.188H12.7a.188.188,0,0,0,.188-.188v-4.89A.188.188,0,0,0,12.7,18Zm-.188,4.89H8.376V18.376h4.138Z" transform="translate(-5.355 -17.248)"/><path d="M12.376,24.975V25.2a.564.564,0,1,0,1.129,0v-.188h.376V25.2a.564.564,0,1,0,1.129,0v-.223a.564.564,0,0,0,.376-.53V22.564A.564.564,0,0,0,14.821,22H12.564a.564.564,0,0,0-.564.564v1.881A.564.564,0,0,0,12.376,24.975Zm.752.223a.188.188,0,0,1-.376,0v-.188h.376Zm1.317.188a.188.188,0,0,1-.188-.188v-.188h.376V25.2A.188.188,0,0,1,14.445,25.386Zm.376-.752H12.564a.188.188,0,0,1-.188-.188v-.188h2.633v.188A.188.188,0,0,1,14.821,24.633ZM13.5,23.881h-.376v-.188a.188.188,0,0,1,.376,0Zm-.94-1.5h2.257a.188.188,0,0,1,.188.188v1.317H13.881v-.188a.564.564,0,1,0-1.129,0v.188h-.376V22.564A.188.188,0,0,1,12.564,22.376Z" transform="translate(-8.584 -20.495)"/><path d="M50,21h.376v.752H50Z" transform="translate(-39.009 -19.683)"/><path d="M50,27h.376v.752H50Z" transform="translate(-39.009 -24.555)"/><path d="M50,33h.376v.752H50Z" transform="translate(-39.009 -29.426)"/><path d="M50,39h.376v.752H50Z" transform="translate(-39.009 -34.298)"/></g></svg>