<svg xmlns="http://www.w3.org/2000/svg" width="11.391" height="9.493" viewBox="0 0 11.391 9.493"><defs><style>.a{fill:#2fdf84;}.b{fill:#ffc03f;}.c{fill:#f3f3f1;}.d{fill:#fff;}</style></defs><g transform="translate(-2 -3)"><g transform="translate(-4 -5)"><path class="a" d="M6.75,15.5l5.34,1.78,5.34-1.78Z" transform="translate(-0.394 -3.94)"/><path class="b" d="M16.48,19.107H7.7a.949.949,0,0,1-.949-.949V12.7A.949.949,0,0,1,7.7,11.75H16.48a.949.949,0,0,1,.949.949v5.458A.949.949,0,0,1,16.48,19.107Z" transform="translate(-0.394 -1.97)"/><path class="c" d="M14.75,10.174V9.225a.475.475,0,0,1,.475-.475h2.136a.475.475,0,0,1,.475.475v.949Z" transform="translate(-4.597 -0.394)"/><path class="d" d="M4494.484,6054.688l5.313,1.609,5.25-1.844-.125-1.609-10.531.141Z" transform="translate(-4488 -6043)"/><path d="M11.965,17.262a.351.351,0,0,1-.112-.019l-5.34-1.78.225-.675,5.227,1.742,5.227-1.742.225.675-5.34,1.78A.356.356,0,0,1,11.965,17.262Z" transform="translate(-0.27 -3.566)"/><path d="M16.086,19.069H7.305A1.306,1.306,0,0,1,6,17.764V12.305A1.306,1.306,0,0,1,7.305,11h8.781a1.306,1.306,0,0,1,1.305,1.305v2.729h-.712V12.305a.594.594,0,0,0-.593-.593H7.305a.594.594,0,0,0-.593.593v5.458a.594.594,0,0,0,.593.593h8.781a.594.594,0,0,0,.593-.593v-3.4h.712v3.4A1.306,1.306,0,0,1,16.086,19.069Z" transform="translate(0 -1.576)"/><path d="M17.8,9.78h-.712V8.831a.119.119,0,0,0-.119-.119H14.831a.119.119,0,0,0-.119.119V9.78H14V8.831A.832.832,0,0,1,14.831,8h2.136a.832.832,0,0,1,.831.831Z" transform="translate(-4.203)"/></g></g></svg>