<svg xmlns="http://www.w3.org/2000/svg" width="21.923" height="25.447" viewBox="0 0 21.923 25.447"><defs><style>.a{fill:#fff;}.b{fill:#2c2f33;}.c{fill:#ffc03f;}</style></defs><g transform="translate(-14.75 -13.5)"><g transform="translate(14.75 13.5)"><path class="a" d="M25.342,29.567,23.613,26.8a6.474,6.474,0,0,0,3.452,0Z" transform="translate(-14.386 -11.825)"/><path class="a" d="M25.094,15.621h1.989a4.489,4.489,0,0,1,4.491,4.474v.41l-.932-1.342a.5.5,0,0,0-.693-.125.412.412,0,0,0-.071.06,5.561,5.561,0,0,1-7.584,0,.5.5,0,0,0-.7-.008.46.46,0,0,0-.064.075l-.889,1.3V20.1A4.473,4.473,0,0,1,25.094,15.621Z" transform="translate(-15.129 -14.621)"/><path class="a" d="M20.638,22.459V21.31l1.38-2.022a6.661,6.661,0,0,0,8.134,0l1.423,2.054v1.128a5.468,5.468,0,0,1-10.936,0Z" transform="translate(-15.129 -13.704)"/><path class="a" d="M17.021,31.753c0-2.054,2.49-3.815,4.664-3.97l1.86,4.179a.5.5,0,0,0,.655.252h0l.02-.009.355-.179.4,1.256-.647,2.762H17.02Z" transform="translate(-16.034 -11.58)"/><path class="a" d="M34.562,36.04H27.236l-.628-2.755.433-1.249.325.162a.5.5,0,0,0,.666-.222h0l.01-.02L29.9,27.782c2.175.161,4.664,1.927,4.664,3.97Z" transform="translate(-13.637 -11.581)"/><path class="b" d="M38.148,34.995c0-2.737-3.112-4.876-5.784-4.977L31,28.795a6.486,6.486,0,0,0,2.665-5.22V20.288a5.477,5.477,0,0,0-5.476-5.467H26.2a5.449,5.449,0,0,0-5.449,5.45h0v3.3a6.488,6.488,0,0,0,2.63,5.209l-1.37,1.232c-2.661.1-5.782,2.236-5.782,4.979v4.781a.5.5,0,0,0,.5.5h20.93a.5.5,0,0,0,.5-.5h0Zm-12.064,2h2.2l.521,2.286H25.55ZM28.326,36H26.054l-.381-1.188,1.515-.757,1.545.77Zm-1.141-3.436L25.457,29.8a6.474,6.474,0,0,0,3.452,0Zm.711.737,2.386-3.822,1.286,1.157-1.644,3.68ZM26.2,15.82h1.987a4.489,4.489,0,0,1,4.491,4.472V20.7l-.932-1.344a.5.5,0,0,0-.692-.124.412.412,0,0,0-.071.06,5.562,5.562,0,0,1-7.585,0,.5.5,0,0,0-.7-.009.529.529,0,0,0-.064.076l-.889,1.295V20.29A4.473,4.473,0,0,1,26.2,15.821ZM21.74,23.573V22.425L23.12,20.4a6.661,6.661,0,0,0,8.134,0l1.423,2.054v1.127a5.468,5.468,0,0,1-10.936,0h0Zm2.35,5.9L26.476,33.3,24.44,34.314,22.8,30.635Zm-6.871,5.514c0-2.054,2.49-3.816,4.664-3.97l1.86,4.179a.5.5,0,0,0,.655.253h0l.02-.01.355-.177.4,1.255-.655,2.764H17.211Zm19.938,4.286H29.83L29.2,36.522l.433-1.249.325.162a.5.5,0,0,0,.666-.222h0l.01-.02,1.855-4.175c2.175.163,4.664,1.929,4.664,3.971Z" transform="translate(-16.231 -14.821)"/><path class="b" d="M30.662,32.561H28.675a.5.5,0,0,0,0,.994h1.989a.5.5,0,0,0,0-.994Z" transform="translate(-13.244 -10.386)"/><path class="b" d="M31.832,32.561a.5.5,0,1,1-.5.5h0a.5.5,0,0,1,.5-.5Z" transform="translate(-12.455 -10.386)"/><path class="a" d="M24.222,32.561h2.2l.521,2.286H23.684Z" transform="translate(-14.368 -10.386)"/><path class="a" d="M26.438,32.154H24.165l-.381-1.187,1.515-.757,1.545.771Z" transform="translate(-14.343 -10.974)"/><path class="c" d="M25.564,30.369l2.386-3.822L29.237,27.7l-1.644,3.68Z" transform="translate(-13.898 -11.889)"/><path class="c" d="M22.776,26.547l2.386,3.819-2.036,1.018L21.484,27.7Z" transform="translate(-14.918 -11.889)"/></g></g></svg>