<svg xmlns="http://www.w3.org/2000/svg" width="14.942" height="14.942" viewBox="0 0 14.942 14.942"><defs><style>.a{fill:#fff;}</style></defs><path class="a" d="M13.191,1.167h-.7V0H11.323V1.167h-7.7V0H2.451V1.167h-.7A1.753,1.753,0,0,0,0,2.918V13.191a1.753,1.753,0,0,0,1.751,1.751h11.44a1.753,1.753,0,0,0,1.751-1.751V2.918A1.753,1.753,0,0,0,13.191,1.167Zm.584,12.023a.584.584,0,0,1-.584.584H1.751a.584.584,0,0,1-.584-.584v-7.7H13.774Zm0-8.872H1.167v-1.4a.584.584,0,0,1,.584-.584h.7V3.5H3.619V2.335h7.7V3.5H12.49V2.335h.7a.584.584,0,0,1,.584.584Z"/><g transform="translate(2.204 6.612)"><g transform="translate(0 0)"><rect class="a" width="1.078" height="1.078" transform="translate(0.319 -0.089)"/></g></g><g transform="translate(4.408 6.612)"><g transform="translate(0 0)"><rect class="a" width="1.078" height="1.078" transform="translate(0.271 -0.089)"/></g></g><g transform="translate(7.053 6.612)"><g transform="translate(0 0)"><rect class="a" height="1" transform="translate(0.47 -0.089)"/></g></g><g transform="translate(9.257 6.612)"><g transform="translate(0 0)"><rect class="a" width="1.078" height="1.078" transform="translate(-0.265 -0.089)"/><rect class="a" width="1.078" height="1.078" transform="translate(-2.422 -0.089)"/></g></g><g transform="translate(10.461 6.612)"><g transform="translate(0.687 -0.089)"><rect class="a" width="1.078" height="1.078" transform="translate(0 0)"/></g></g><g transform="translate(2.204 8.257)"><g transform="translate(0 0)"><rect class="a" width="1.078" height="1.078" transform="translate(0.319 0.613)"/></g></g><g transform="translate(4.408 8.257)"><g transform="translate(0 0)"><rect class="a" width="1.078" height="1.078" transform="translate(0.271 0.613)"/></g></g><g transform="translate(7.053 9.257)"><g transform="translate(0 0)"><rect class="a" height="1" transform="translate(0.47 0.266)"/></g></g><g transform="translate(8.257 8.257)"><g transform="translate(0 0)"><rect class="a" width="1.078" height="1.078" transform="translate(0.735 0.613)"/></g></g><g transform="translate(6.257 8.257)"><g transform="translate(0 0)"><rect class="a" width="1.078" height="1.078" transform="translate(0.578 0.613)"/></g></g><g transform="translate(2.204 10.461)"><g transform="translate(0 0)"><rect class="a" width="1.078" height="1.078" transform="translate(0.319 0.756)"/></g></g><g transform="translate(4.408 10.461)"><g transform="translate(0 0)"><rect class="a" width="1.078" height="1.078" transform="translate(0.271 0.756)"/></g></g><g transform="translate(7.053 11.461)"><g transform="translate(0 0)"><rect class="a" height="1" transform="translate(0.47 0.062)"/></g></g><g transform="translate(9.257 10.461)"><g transform="translate(0 0)"><rect class="a" width="1.078" height="1.078" transform="translate(-0.265 0.756)"/></g></g><g transform="translate(6.257 10.461)"><g transform="translate(0 0)"><rect class="a" width="1.078" height="1.078" transform="translate(0.578 0.756)"/></g></g><g transform="translate(11.461 9.257)"><g transform="translate(0 -1)"><rect class="a" width="1.078" height="1.078" transform="translate(-0.313 0.613)"/></g></g></svg>