<svg xmlns="http://www.w3.org/2000/svg" width="22" height="22" viewBox="0 0 22 22"><defs><style>.a{fill:#fff;}.b{fill:#2ed575;}</style></defs><g transform="translate(2 3)"><g transform="translate(-2 -3)"><rect class="a" width="22" height="22" rx="4"/></g><g transform="translate(-58.004 0)"><g transform="translate(61.004 0)"><path class="b" d="M72.143,1.783A8.358,8.358,0,0,1,67.493.375l-.449-.3a.444.444,0,0,0-.494,0l-.449.3A8.358,8.358,0,0,1,61.45,1.783.445.445,0,0,0,61,2.228V7.345a8.255,8.255,0,0,0,5.652,7.841.443.443,0,0,0,.282,0,8.255,8.255,0,0,0,5.652-7.841V2.228a.445.445,0,0,0-.446-.446ZM71.7,7.345a7.364,7.364,0,0,1-4.9,6.947,7.364,7.364,0,0,1-4.9-6.947V2.663a9.245,9.245,0,0,0,4.7-1.547l.2-.134.2.134a9.245,9.245,0,0,0,4.7,1.547Zm-5.923.42a.446.446,0,0,0-.63.63l.891.891a.445.445,0,0,0,.63,0L68.448,7.5a.446.446,0,1,0-.63-.63L66.351,8.341Zm-2.989-.131a4.01,4.01,0,1,0,4.01-4.01A4.015,4.015,0,0,0,62.786,7.635Zm7.129,0A3.119,3.119,0,1,1,66.8,4.516,3.123,3.123,0,0,1,69.916,7.635Z" transform="translate(-61.004 0)"/></g></g></g></svg>