<svg xmlns="http://www.w3.org/2000/svg" xmlns:xlink="http://www.w3.org/1999/xlink" width="80" height="80" viewBox="0 0 80 80"><defs><style>.a{fill:#fff;}.b{fill:#6b63df;}.c{fill:#b28bf0;}.d,.f{fill:#8158dd;}.e{fill:url(#c);}.f{stroke:#8158dd;}.g{fill:url(#d);}.h{filter:url(#a);}</style><filter id="a" x="0" y="0" width="80" height="80" filterUnits="userSpaceOnUse"><feOffset dy="8" input="SourceAlpha"/><feGaussianBlur stdDeviation="5" result="b"/><feFlood flood-opacity="0.188"/><feComposite operator="in" in2="b"/><feComposite in="SourceGraphic"/></filter><linearGradient id="c" x1="0.496" y1="0.06" x2="0.512" y2="0.895" gradientUnits="objectBoundingBox"><stop offset="0" stop-color="#d9b4ff"/><stop offset="1" stop-color="#7d54dc"/></linearGradient><linearGradient id="d" x1="0.146" y1="0.146" x2="0.852" y2="0.852" gradientUnits="objectBoundingBox"><stop offset="0" stop-color="#13e360"/><stop offset="1" stop-color="#067d32"/></linearGradient></defs><g transform="translate(-4 -261)"><g class="h" transform="matrix(1, 0, 0, 1, 4, 261)"><rect class="a" width="50" height="50" rx="16" transform="translate(15 7)"/></g><g transform="translate(-12.315 -6.349)"><g transform="translate(40.315 282.349)"><g transform="translate(0.183 4.239)"><g transform="translate(0)"><path class="b" d="M562.5,1226.388a.86.86,0,0,1-.844.877h-2.8a.86.86,0,0,1-.845-.875v0l-3.495-14.965a.863.863,0,0,1,.845-.877h2.8a.862.862,0,0,1,.845.877Z" transform="translate(-548.657 -1206.244)"/><path class="c" d="M543.672,1230.9v-9.515h6.067v.782h.76v.146c.288-.483.609-1.024.856-1.424.294-.746.259-1.087.4-1.087l.529,1.087c.081.161,1.033.469,1.123.674a.891.891,0,0,1,.082.441h2.582a1.646,1.646,0,0,1,.238.017h2.6a1.056,1.056,0,0,1,.89,1.166,1.235,1.235,0,0,1-.512,1.056h.114a1.059,1.059,0,0,1,.889,1.169,1.139,1.139,0,0,1-.7,1.139,1.324,1.324,0,0,1,.466,1.532.919.919,0,0,1-.819.705h-.1a1.432,1.432,0,0,1,.1,1.645.822.822,0,0,1-.676.407h-6.27a.693.693,0,0,1-.192-.027,2.089,2.089,0,0,1-1.6-.946v.536l-.087-.662a4.069,4.069,0,0,1-.615-2.209v-2.245c0-.063,0-.126,0-.188l-.062-.471v6.271Z" transform="translate(-543.672 -1205.385)"/><g transform="translate(1.096 22.46)"><circle class="a" cx="0.781" cy="0.781" r="0.781" transform="translate(2.169)"/><circle class="a" cx="0.781" cy="0.781" r="0.781"/></g><g transform="translate(22.115)"><path class="a" d="M572.23,1206.177v-.138l-.678.138Z" transform="translate(-571.552 -1206.038)"/></g></g><rect class="d" width="1.418" height="8.236" transform="translate(5.62 16.779)"/></g><g transform="translate(0 0)"><g transform="translate(0 4.275) rotate(-11)"><path class="e" d="M0,13.924l20.319,4.193L20.422,0,.054,4.434Z" transform="translate(0.774 0.983)"/><path class="d" d="M1.651,10.815a.978.978,0,0,1-.83,1.059h0A.951.951,0,0,1,0,10.826L.055,1.06A.979.979,0,0,1,.885,0h0A.95.95,0,0,1,1.7,1.05Z" transform="translate(0 4.163)"/><path class="d" d="M1.605,19.175A.953.953,0,0,1,.8,20.206h0A.927.927,0,0,1,0,19.183L.1,1.032A.951.951,0,0,1,.906,0h0a.925.925,0,0,1,.8,1.022Z" transform="translate(20.698 0)"/></g><g transform="translate(25.15 3.314) rotate(-8)"><path class="f" d="M.295.59A.3.3,0,0,1,0,.294H0A.3.3,0,0,1,.295,0H3.656a.293.293,0,0,1,.295.293h0a.3.3,0,0,1-.295.3Z" transform="translate(0.439 4.594)"/><path class="f" d="M.086.5a.3.3,0,0,1,0-.417h0A.3.3,0,0,1,.5.085L2.88,2.462a.3.3,0,0,1,0,.418h0a.3.3,0,0,1-.417,0Z" transform="translate(0 6.814)"/><path class="f" d="M.086,2.464a.3.3,0,0,0,0,.415l0,0h0a.3.3,0,0,0,.417,0h0L2.88.5a.3.3,0,0,0,0-.417h0a.3.3,0,0,0-.418,0Z" transform="translate(0 0)"/></g></g></g><g transform="translate(56.315 298.347)"><path class="g" d="M8,0A8,8,0,1,1,0,8,8,8,0,0,1,8,0Z"/><g transform="translate(2.687 3.314)"><path class="a" d="M9.319-1.332H1.486A1.487,1.487,0,0,0,0,.153V4.947a1.487,1.487,0,0,0,1.48,1.485V8.608L4.607,6.433H9.319A1.487,1.487,0,0,0,10.8,4.947V.153A1.487,1.487,0,0,0,9.319-1.332Zm.852,6.279a.853.853,0,0,1-.852.852H4.408L2.114,7.4V5.8H1.486a.853.853,0,0,1-.852-.852V.153A.853.853,0,0,1,1.486-.7H9.319a.853.853,0,0,1,.852.852Zm0,0" transform="translate(-0.001 1.332)"/><path class="a" d="M171.293,131.172h5.021v.633h-5.021Zm0,0" transform="translate(-168.401 -128.935)"/><path class="a" d="M171.293,211.172h5.021v.633h-5.021Zm0,0" transform="translate(-168.401 -207.585)"/><path class="a" d="M171.293,291.172h5.021v.633h-5.021Zm0,0" transform="translate(-168.401 -286.234)"/></g></g></g></g></svg>