<svg xmlns="http://www.w3.org/2000/svg" width="13.529" height="20.744" viewBox="0 0 13.529 20.744"><defs><style>.a{fill:#1586c7;}</style></defs><g transform="translate(-64)"><g transform="translate(64)"><path class="a" d="M76.176,0H65.353A1.355,1.355,0,0,0,64,1.353v18.94a.451.451,0,0,0,.713.367l6.051-4.322,6.051,4.322a.451.451,0,0,0,.713-.367V1.353A1.355,1.355,0,0,0,76.176,0Zm.451,3.608H64.9V1.353A.452.452,0,0,1,65.353.9H76.176a.451.451,0,0,1,.451.451Z" transform="translate(-64)"/></g></g></svg>