<svg xmlns="http://www.w3.org/2000/svg" width="22" height="16.5" viewBox="0 0 22 16.5"><defs><style>.a{fill:#2c2f33;}.b{fill:#ffc03f;}</style></defs><g transform="translate(-466.663 -390.811)"><g transform="translate(466.663 390.811)"><path class="a" d="M484.079,397.251v-4.607a1.835,1.835,0,0,0-1.833-1.833H468.5a1.835,1.835,0,0,0-1.833,1.833v9.167a1.835,1.835,0,0,0,1.833,1.833h10.278a5.039,5.039,0,0,0,7.368,2.992.458.458,0,1,0-.459-.793,4.126,4.126,0,1,1,2.062-3.574v.458a.917.917,0,0,1-1.833,0v-1.833a.456.456,0,0,0-.774-.329,2.291,2.291,0,1,0,.193,3.214,1.831,1.831,0,0,0,3.332-1.051v-.458A5.047,5.047,0,0,0,484.079,397.251ZM468.5,391.728h13.75c.019,0,.035.01.053.01l-6.552,5.378a.773.773,0,0,1-.723.023l-6.582-5.4C468.462,391.738,468.477,391.728,468.5,391.728Zm14.666,5.523a5.047,5.047,0,0,0-4.583,5.019c0,.154.01.307.023.458H468.5a.917.917,0,0,1-.916-.916v-9.167a.906.906,0,0,1,.078-.364l6.827,5.6a1.611,1.611,0,0,0,1.743.019.422.422,0,0,0,.074-.05l6.784-5.568a.906.906,0,0,1,.078.364v4.607Z" transform="translate(-466.663 -390.811)"/></g><circle class="b" cx="1.375" cy="1.375" r="1.375" transform="translate(482.246 400.895)"/><path class="b" d="M468.76,391.864h13.75c.019,0,.035.01.053.01l-6.552,5.378a.773.773,0,0,1-.723.023l-6.582-5.4C468.725,391.874,468.741,391.864,468.76,391.864Z" transform="translate(-0.264 -0.136)"/></g></svg>