<svg xmlns="http://www.w3.org/2000/svg" width="17" height="13.6" viewBox="0 0 17 13.6"><defs><style>.a{fill:#fff;}</style></defs><g transform="translate(-347 -39)"><path class="a" d="M.65,0h15.7A.737.737,0,0,1,17,.8a.737.737,0,0,1-.65.8H.65A.737.737,0,0,1,0,.8.737.737,0,0,1,.65,0Z" transform="translate(347 39)"/><rect class="a" width="15" height="1.6" rx="0.8" transform="translate(347 45)"/><path class="a" d="M.494,0H9.381c.273,0,.494.358.494.8s-.221.8-.494.8H.494C.221,1.6,0,1.242,0,.8S.221,0,.494,0Z" transform="translate(347.063 51)"/></g></svg>