<svg xmlns="http://www.w3.org/2000/svg" xmlns:xlink="http://www.w3.org/1999/xlink" width="80" height="80" viewBox="0 0 80 80"><defs><style>.a,.e{fill:#fff;}.b{fill:url(#c);}.c{fill:#ffc4d8;}.d{stroke:rgba(0,0,0,0);stroke-miterlimit:10;fill:url(#d);}.e{stroke:#fff;stroke-width:0.6px;}.f{fill:url(#g);}.g{filter:url(#a);}</style><filter id="a" x="0" y="0" width="80" height="80" filterUnits="userSpaceOnUse"><feOffset dy="8" input="SourceAlpha"/><feGaussianBlur stdDeviation="5" result="b"/><feFlood flood-opacity="0.188"/><feComposite operator="in" in2="b"/><feComposite in="SourceGraphic"/></filter><linearGradient id="c" x1="0.5" y1="1" x2="0.772" y2="-0.422" gradientUnits="objectBoundingBox"><stop offset="0" stop-color="#f5576c"/><stop offset="1" stop-color="#f093fb"/></linearGradient><linearGradient id="d" y1="1.151" x2="0.677" y2="-0.328" xlink:href="#c"/><linearGradient id="g" x1="0.146" y1="0.146" x2="0.852" y2="0.852" gradientUnits="objectBoundingBox"><stop offset="0" stop-color="#45e6ff"/><stop offset="0.457" stop-color="#07c6ff"/><stop offset="1" stop-color="#04acd8"/></linearGradient></defs><g transform="translate(-4 -381)"><g class="g" transform="matrix(1, 0, 0, 1, 4, 381)"><rect class="a" width="50" height="50" rx="16" transform="translate(15 7)"/></g><g transform="translate(-262.001 -11)"><g transform="translate(290 408)"><rect class="b" width="24.588" height="31.13" rx="5"/><path class="c" d="M1.665,0H18.727a1.647,1.647,0,0,1,1.665,1.629V24.856a1.647,1.647,0,0,1-1.665,1.629H1.665A1.647,1.647,0,0,1,0,24.856V1.629A1.647,1.647,0,0,1,1.665,0Z" transform="translate(1.997 2.322)"/><g transform="translate(3.828 4.529)"><path class="a" d="M.656,0H5.922a.659.659,0,0,1,.656.662v4.5a.659.659,0,0,1-.656.662H.656A.659.659,0,0,1,0,5.162V.662A.659.659,0,0,1,.656,0Z" transform="translate(0)"/><g transform="translate(1.606 0.37)"><path class="d" d="M0,5.078V4.141a1.625,1.625,0,0,1,3.249,0v.936ZM.535,1.1a1.1,1.1,0,1,1,1.1,1.1A1.1,1.1,0,0,1,.535,1.1Z" transform="translate(0 0)"/></g><path class="e" d="M1169.767,1197.7a.282.282,0,0,1-.167-.055l-1.735-1.26-.094-.1h0a.29.29,0,0,1,.05-.373.29.29,0,0,1,.371-.015l1.525,1.111,2.163-2.7a.289.289,0,1,1,.452.36l-2.336,2.915a.281.281,0,0,1-.207.111Z" transform="translate(-1158.172 -1193.234)"/></g><g transform="translate(3.828 12.941)"><path class="a" d="M.656,0H5.922a.659.659,0,0,1,.656.662v4.5a.659.659,0,0,1-.656.662H.656A.659.659,0,0,1,0,5.162V.662A.659.659,0,0,1,.656,0Z" transform="translate(0)"/><g transform="translate(1.606 0.37)"><path class="d" d="M0,5.078V4.141a1.625,1.625,0,0,1,3.249,0v.936ZM.535,1.1a1.1,1.1,0,1,1,1.1,1.1A1.1,1.1,0,0,1,.535,1.1Z" transform="translate(0 0)"/></g><path class="e" d="M1169.767,1197.7a.282.282,0,0,1-.167-.055l-1.735-1.26-.094-.1h0a.29.29,0,0,1,.05-.373.29.29,0,0,1,.371-.015l1.525,1.111,2.163-2.7a.289.289,0,1,1,.452.36l-2.336,2.915a.281.281,0,0,1-.207.111Z" transform="translate(-1158.172 -1193.234)"/></g><g transform="translate(3.828 21.353)"><path class="a" d="M.656,0H5.922a.659.659,0,0,1,.656.662v4.5a.659.659,0,0,1-.656.662H.656A.659.659,0,0,1,0,5.162V.662A.659.659,0,0,1,.656,0Z" transform="translate(0)"/><g transform="translate(1.606 0.37)"><path class="d" d="M0,5.078V4.141a1.625,1.625,0,0,1,3.249,0v.936ZM.535,1.1a1.1,1.1,0,1,1,1.1,1.1A1.1,1.1,0,0,1,.535,1.1Z" transform="translate(0 0)"/></g><path class="e" d="M1169.767,1197.7a.282.282,0,0,1-.167-.055l-1.735-1.26-.094-.1h0a.29.29,0,0,1,.05-.373.29.29,0,0,1,.371-.015l1.525,1.111,2.163-2.7a.289.289,0,1,1,.452.36l-2.336,2.915a.281.281,0,0,1-.207.111Z" transform="translate(-1158.172 -1193.234)"/></g></g><g transform="translate(306.529 424.176)"><circle class="f" cx="8" cy="8" r="8" transform="translate(-0.353 -0.176)"/><g transform="translate(1.646 1.824)"><path class="a" d="M1175.6,1241.916a6,6,0,1,1,6-6A6.017,6.017,0,0,1,1175.6,1241.916Zm0-11.121a5.12,5.12,0,1,0,5.121,5.121,5.134,5.134,0,0,0-5.121-5.121Z" transform="translate(-1169.596 -1229.916)"/><path class="a" d="M1191.633,1233.709a.641.641,0,0,1,0-1.282h2.216v-3.169a.641.641,0,1,1,1.282,0v3.809a.643.643,0,0,1-.641.641Z" transform="translate(-1187.61 -1225.617)"/></g></g></g></g></svg>