<svg xmlns="http://www.w3.org/2000/svg" xmlns:xlink="http://www.w3.org/1999/xlink" width="80" height="80" viewBox="0 0 80 80"><defs><style>.a{fill:url(#a);}.b{fill:#fff;}.c{clip-path:url(#d);}.d,.i{fill:url(#e);}.e{fill:url(#f);}.f{fill:#1586c7;}.g{fill:none;}.h{fill:url(#h);}.i,.j{stroke:rgba(0,0,0,0);stroke-miterlimit:10;}.j{fill:url(#k);}.k{fill:#00a2bc;}.l{fill:url(#l);}.m{filter:url(#b);}</style><linearGradient id="a" x1="0.406" y1="-0.043" x2="0.62" y2="1.446" gradientUnits="objectBoundingBox"><stop offset="0" stop-color="#fe8c09"/><stop offset="1" stop-color="#fc3907"/></linearGradient><filter id="b" x="0" y="0" width="80" height="80" filterUnits="userSpaceOnUse"><feOffset dy="8" input="SourceAlpha"/><feGaussianBlur stdDeviation="5" result="c"/><feFlood flood-opacity="0.188"/><feComposite operator="in" in2="c"/><feComposite in="SourceGraphic"/></filter><clipPath id="d"><circle class="a" cx="17.5" cy="17.5" r="17.5" transform="translate(0.25 0.25)"/></clipPath><linearGradient id="e" x1="0.5" x2="0.5" y2="1" gradientUnits="objectBoundingBox"><stop offset="0" stop-color="#009cb6"/><stop offset="1" stop-color="#01c7e6"/></linearGradient><linearGradient id="f" x1="0.5" x2="0.5" y2="1" gradientUnits="objectBoundingBox"><stop offset="0" stop-color="#fec133"/><stop offset="1" stop-color="#fe941a"/></linearGradient><linearGradient id="h" x1="0.5" x2="0.5" y2="1" gradientUnits="objectBoundingBox"><stop offset="0" stop-color="#01c7e6"/><stop offset="1" stop-color="#009cb6"/></linearGradient><linearGradient id="k" x1="0.5" x2="0.5" y2="1" gradientUnits="objectBoundingBox"><stop offset="0" stop-color="#1d9ee9"/><stop offset="1" stop-color="#009cb6"/></linearGradient><linearGradient id="l" x1="0.146" y1="0.146" x2="0.852" y2="0.852" gradientUnits="objectBoundingBox"><stop offset="0" stop-color="#fee133"/><stop offset="1" stop-color="#fea71a"/></linearGradient></defs><g transform="translate(-245 -501)"><g class="m" transform="matrix(1, 0, 0, 1, 245, 501)"><rect class="b" width="50" height="50" rx="16" transform="translate(15 7)"/></g><g transform="translate(222.119 209.948)"><g transform="translate(28.13 216.796)"><path class="b" d="M16.387,0a16.387,16.387,0,0,0,0,32.775q.741,0,1.475-.066c.455-.041.906-.1,1.354-.181l.172-.03a16.387,16.387,0,0,0-3-32.5Z" transform="translate(16.955 87)"/><g transform="translate(16.5 87.006)"><g transform="translate(0)"><g class="c"><g transform="translate(2.329 2.181)"><path class="b" d="M685.039,413.971v.416a8.007,8.007,0,0,0,2.5-1.974,1.714,1.714,0,0,0-.759-.182A1.741,1.741,0,0,0,685.039,413.971Z" transform="translate(-666.993 -376.367)"/><path class="b" d="M675.093,412.232a1.713,1.713,0,0,0-.759.182,7.992,7.992,0,0,0,2.5,1.974v-.416A1.74,1.74,0,0,0,675.093,412.232Z" transform="translate(-665.591 -376.367)"/><path class="d" d="M686.049,399.913a10.267,10.267,0,0,1-3.867.759h-4.506a10.265,10.265,0,0,1-3.867-.759,8.689,8.689,0,0,0-.313,10.192,2.58,2.58,0,0,1,1.291-.355,2.611,2.611,0,0,1,2.608,2.608v.792a7.43,7.43,0,0,0,5.068,0v-.791a2.611,2.611,0,0,1,2.608-2.608,2.58,2.58,0,0,1,1.291.355,8.689,8.689,0,0,0-.313-10.192Zm-6.925,6.331a.328.328,0,0,1-.656,0v-2.55a.328.328,0,0,1,.656,0Zm1.132.348a.328.328,0,1,1-.656,0v-3.248a.328.328,0,0,1,.656,0Zm1.132-.348a.328.328,0,1,1-.655,0v-2.55a.328.328,0,1,1,.655,0Z" transform="translate(-665.285 -374.754)"/><path class="b" d="M679.771,403.887a.328.328,0,0,0-.328.328v2.55a.328.328,0,0,0,.656,0v-2.55A.327.327,0,0,0,679.771,403.887Z" transform="translate(-666.26 -375.275)"/><path class="b" d="M681.074,403.485a.328.328,0,0,0-.328.328v3.248a.328.328,0,1,0,.656,0v-3.248A.328.328,0,0,0,681.074,403.485Z" transform="translate(-666.43 -375.222)"/><path class="b" d="M682.377,403.887a.327.327,0,0,0-.328.328v2.55a.328.328,0,1,0,.655,0v-2.55A.327.327,0,0,0,682.377,403.887Z" transform="translate(-666.601 -375.275)"/><path class="e" d="M667.317,386.685a3.013,3.013,0,0,0,0,5.706,14.816,14.816,0,0,1,0-5.706Z" transform="translate(-663.68 -373.949)"/><path class="e" d="M695.386,386.685a14.838,14.838,0,0,1,0,5.706,3.014,3.014,0,0,0,0-5.706Z" transform="translate(-669.736 -373.949)"/><rect class="f" width="0.91" height="4.551" transform="translate(14.511 2.367)"/><path class="g" d="M691.087,383.689a10.34,10.34,0,0,0-9.916-7.464h-1.819v-.9a2.2,2.2,0,1,0-.869,0v.9h-1.818a10.34,10.34,0,0,0-9.916,7.464,2.895,2.895,0,0,0,0,5.728A10.362,10.362,0,0,0,672,395.753a9.533,9.533,0,0,0-.183,11.115q.254.365.542.7a8.87,8.87,0,0,0,3.066,2.339,8.648,8.648,0,0,0,.807.319,8.4,8.4,0,0,0,6.187-.32,8.858,8.858,0,0,0,3.066-2.338q.287-.338.541-.7a9.532,9.532,0,0,0-.182-11.115,10.362,10.362,0,0,0,5.247-6.336,2.895,2.895,0,0,0,0-5.728Zm.226,4.79a10.024,10.024,0,0,0,0-3.853,2.035,2.035,0,0,1,0,3.853Zm-7.253,17.481a2.611,2.611,0,0,0-2.608,2.608v.791a7.43,7.43,0,0,1-5.067,0v-.792a2.611,2.611,0,0,0-2.608-2.608,2.581,2.581,0,0,0-1.291.355,8.689,8.689,0,0,1,.313-10.192,10.266,10.266,0,0,0,3.867.759h4.506a10.267,10.267,0,0,0,3.867-.759,8.689,8.689,0,0,1,.313,10.192A2.58,2.58,0,0,0,684.059,405.96Zm.759,1.051a8.008,8.008,0,0,1-2.5,1.974v-.416a1.741,1.741,0,0,1,1.739-1.739A1.714,1.714,0,0,1,684.818,407.01Zm-11.8,0a1.713,1.713,0,0,1,.759-.182,1.74,1.74,0,0,1,1.739,1.739v.416A7.993,7.993,0,0,1,673.017,407.01Zm11.852-11.753c-.147.063-.3.113-.45.168a9.394,9.394,0,0,1-3.248.588h-4.506a9.4,9.4,0,0,1-3.249-.588c-.15-.055-.3-.1-.45-.168s-.268-.129-.4-.193a9.5,9.5,0,0,1-4.9-5.6,9.362,9.362,0,0,1-.4-1.826,8.776,8.776,0,0,1,0-2.164,9.363,9.363,0,0,1,.4-1.826,9.474,9.474,0,0,1,9-6.551h4.506a9.451,9.451,0,0,1,4.1,17.971C685.137,395.128,685.007,395.2,684.869,395.257Zm-19.726-8.7a2.039,2.039,0,0,1,1.379-1.926,10,10,0,0,0,0,3.853A2.041,2.041,0,0,1,665.143,386.552Zm13.774-14.72a1.331,1.331,0,0,1,.435,2.591,1.309,1.309,0,0,1-.435.079h0a1.315,1.315,0,0,1-.435-.079,1.331,1.331,0,0,1,.435-2.591Z" transform="translate(-664.274 -370.964)"/><path class="h" d="M690.609,390.384a9.459,9.459,0,0,0-9-12.367h-4.506a9.474,9.474,0,0,0-9,6.551,9.764,9.764,0,0,0-.462,2.908,9.459,9.459,0,0,0,5.361,8.512c.133.064.263.135.4.193s.3.113.45.168a9.4,9.4,0,0,0,3.248.588h4.506a9.4,9.4,0,0,0,3.249-.588c.15-.055.3-.1.45-.168s.268-.129.4-.193A9.494,9.494,0,0,0,690.609,390.384Zm-9.123,2.74H677.23a5.648,5.648,0,0,1,0-11.3h4.257a5.648,5.648,0,1,1,0,11.3Z" transform="translate(-664.715 -371.887)"/><path class="b" d="M686.991,388.181a4.785,4.785,0,0,0-4.78-4.779h-4.257a4.779,4.779,0,1,0,0,9.558h4.257A4.785,4.785,0,0,0,686.991,388.181Z" transform="translate(-665.439 -372.593)"/><path class="g" d="M682.08,382.4h-4.257a5.648,5.648,0,1,0,0,11.3h4.257a5.648,5.648,0,1,0,0-11.3Zm-9.036,5.648a4.785,4.785,0,0,1,4.779-4.779h4.257a4.779,4.779,0,1,1,0,9.558h-4.257A4.785,4.785,0,0,1,673.044,388.05Z" transform="translate(-665.308 -372.462)"/><path class="e" d="M680.789,375.425a1.756,1.756,0,0,0,.581.106h0a1.75,1.75,0,0,0,.581-.106,1.782,1.782,0,1,0-1.161,0Z" transform="translate(-666.399 -370.543)"/><path class="i" d="M.2,7.515A8.077,8.077,0,0,1,.131,4.272C.563,1.632,1.876-.194,3.184.017a1.464,1.464,0,0,1,1,.605c.39.582.429,1.559.122,3.076l0,.019A7.516,7.516,0,0,1,3.564,5.5c-.144.278-.3.578-.466.935a4.829,4.829,0,0,0-.34,1.356c-.1.665-.222,1.494-1.025,1.494C.985,9.17.464,8.543.2,7.515Zm1.607.91c-.008-.073.054-.486.094-.759A5.567,5.567,0,0,1,2.31,6.073c.17-.369.333-.683.483-.972a6.722,6.722,0,0,0,.663-1.584c.31-1.537.175-2.16.006-2.41.167.251.3.872-.006,2.41A6.734,6.734,0,0,1,2.793,5.1c-.15.289-.313.6-.484.972A5.588,5.588,0,0,0,1.9,7.666c-.04.273-.1.685-.1.759ZM1.038,7.3A5.906,5.906,0,0,1,.869,5.817,5.906,5.906,0,0,0,1.038,7.3ZM2.969.867h0Z" transform="translate(2.077 25.335)"/><path class="j" d="M1.751,7.792a4.748,4.748,0,0,0-.338-1.351C1.248,6.08,1.09,5.78.946,5.5A7.511,7.511,0,0,1,.207,3.714L.2,3.7C-.1,2.18-.064,1.2.326.621a1.449,1.449,0,0,1,.988-.6C2.629-.2,3.945,1.629,4.379,4.271a8.084,8.084,0,0,1-.066,3.241C4.046,8.541,3.525,9.168,2.847,9.28h-.01C1.972,9.281,1.849,8.455,1.751,7.792Zm1.721-.5ZM1.053,3.516A6.724,6.724,0,0,0,1.717,5.1c.15.289.313.6.485.976l.023.051L2.2,6.075C2.03,5.7,1.868,5.389,1.717,5.1a6.724,6.724,0,0,1-.663-1.583C.744,1.979.88,1.357,1.048,1.1.879,1.357.744,1.979,1.053,3.516Zm2.588,2.3a8.787,8.787,0,0,0-.119-1.4A8.848,8.848,0,0,1,3.641,5.816Zm-.119-1.4-.011-.063ZM1.048,1.1A.57.57,0,0,1,1.467.873.567.567,0,0,0,1.048,1.1ZM1.467.873l.015,0Zm.017,0,.044,0h0Z" transform="translate(22.7 25.337)"/><g transform="translate(10.429 14.122)"><path class="k" d="M601.482,387.039c0-.008,0-.017,0-.025a.339.339,0,0,0-.041-.085c-.007-.012-.011-.024-.02-.035a.376.376,0,0,0-.059-.054.288.288,0,0,0-.036-.034l-.011,0c-.005,0-.008-.007-.013-.01a.291.291,0,0,0-.068-.02.274.274,0,0,0-.052-.016.32.32,0,0,0-.074,0,.31.31,0,0,0-.061.006.413.413,0,0,0-.052.023.341.341,0,0,0-.071.035c-.006,0-.009.011-.014.015a.357.357,0,0,0-.079.085,1.836,1.836,0,0,1-.276.363c-.022.024-.047.046-.07.068a1.845,1.845,0,0,1-.3.23c-.026.016-.05.034-.077.049-.057.03-.116.053-.175.078s-.111.048-.17.066-.1.022-.149.033a1.773,1.773,0,0,1-.2.036,1.7,1.7,0,0,1-.172,0c-.06,0-.119,0-.178,0s-.13-.021-.195-.034-.107-.02-.159-.036-.1-.039-.156-.06a1.825,1.825,0,0,1-.187-.083c-.025-.013-.048-.031-.072-.046a1.829,1.829,0,0,1-.309-.233c-.022-.021-.046-.042-.067-.065a1.813,1.813,0,0,1-.278-.367c-.006-.009-.015-.015-.021-.023a.357.357,0,0,0-.468-.111l-.134.076h.041a.355.355,0,0,0-.055.124.218.218,0,0,0-.013.03.315.315,0,0,0-.009.092.362.362,0,0,0,.03.152s0,.009,0,.014a2.534,2.534,0,0,0,.594.685,2.64,2.64,0,0,0,.365.277l.01.007a2.524,2.524,0,0,0,1.25.328h.011a2.532,2.532,0,0,0,1.25-.329l.012-.009a2.417,2.417,0,0,0,.2-.151,2.531,2.531,0,0,0,.761-.81.348.348,0,0,0,.033-.12l0-.011A.367.367,0,0,0,601.482,387.039Z" transform="translate(-594.698 -383.62)"/><path class="k" d="M489.29,465.394h0a1.136,1.136,0,0,0,0-2.271h0a1.136,1.136,0,1,0,0,2.271Z" transform="translate(-488.154 -463.123)"/><path class="k" d="M499.845,465.394a1.136,1.136,0,0,0,0-2.271h0a1.136,1.136,0,1,0,0,2.271Z" transform="translate(-491.996 -463.123)"/></g></g></g></g></g></g><g transform="translate(63.793 323.003)"><g transform="translate(0.087 0.049)"><circle class="l" cx="8" cy="8" r="8"/></g><g transform="translate(3.569 1.852)"><path class="b" d="M8.536,260.186a.37.37,0,0,0-.739,0,3.278,3.278,0,1,1-6.557,0,.37.37,0,0,0-.739,0,4.023,4.023,0,0,0,3.648,4v.995H2.777a.37.37,0,0,0,0,.739H6.26a.37.37,0,0,0,0-.739H4.888v-.995a4.023,4.023,0,0,0,3.648-4Zm0,0" transform="translate(0 -253.527)"/><path class="b" d="M71.081,9.026a2.369,2.369,0,0,0,2.366-2.366V2.367a2.366,2.366,0,0,0-4.733,0V6.659A2.369,2.369,0,0,0,71.081,9.026ZM69.453,2.367a1.627,1.627,0,0,1,3.255,0V6.659a1.627,1.627,0,0,1-3.255,0Zm0,0" transform="translate(-66.562 0)"/></g></g></g></g></svg>