<svg xmlns="http://www.w3.org/2000/svg" xmlns:xlink="http://www.w3.org/1999/xlink" width="80" height="80" viewBox="0 0 80 80"><defs><style>.a{fill:#fff;}.b{fill:url(#c);}.c{fill:url(#d);}.d{fill:url(#f);}.e{filter:url(#a);}</style><filter id="a" x="0" y="0" width="80" height="80" filterUnits="userSpaceOnUse"><feOffset dy="8" input="SourceAlpha"/><feGaussianBlur stdDeviation="5" result="b"/><feFlood flood-opacity="0.188"/><feComposite operator="in" in2="b"/><feComposite in="SourceGraphic"/></filter><linearGradient id="c" x1="0.953" y1="0.674" x2="0.268" y2="-0.219" gradientUnits="objectBoundingBox"><stop offset="0" stop-color="#f5576c"/><stop offset="1" stop-color="#f093fb"/></linearGradient><linearGradient id="d" x1="0.198" y1="-0.143" x2="0.723" y2="0.692" xlink:href="#c"/><linearGradient id="f" x1="0.146" y1="0.146" x2="0.852" y2="0.852" gradientUnits="objectBoundingBox"><stop offset="0" stop-color="#45e6ff"/><stop offset="0.457" stop-color="#07c6ff"/><stop offset="1" stop-color="#04acd8"/></linearGradient></defs><g transform="translate(-27 -391)"><g class="e" transform="matrix(1, 0, 0, 1, 27, 391)"><rect class="a" width="50" height="50" rx="16" transform="translate(15 7)"/></g><g transform="translate(48.323 410.095)"><g transform="translate(0 0)"><g transform="translate(0 0)"><path class="b" d="M1.351,15.265h.9V14.124a.52.52,0,0,1,.52-.52H3.08a.943.943,0,0,1,.705-.99l2.972-.764L5.8,9.343a1.408,1.408,0,0,1,.813-1.817L8.8,6.678a2.417,2.417,0,0,1,1.314-.123l4.927.9a.944.944,0,0,1,.557.326l1.945,2.348V.062A.622.622,0,0,1,18-.535L22.18-1.757H11.33V5.835l-1.244-.162V-2.379A.622.622,0,0,1,10.708-3C10.8-3,26.533-3,26.582-3a.623.623,0,0,1,.571.619c0,.153,0,25.735-.005,25.8a.623.623,0,0,1-.442.519l-8.361,2.44a.622.622,0,0,1-.8-.6V12.907a.937.937,0,0,1-.382-.275l-2.8-3.377-3.119-.57,2.1,5.506S13.276,14,14.677,18.8l1.631,3.1v2.936h0a1.1,1.1,0,0,1-1.233-.557l-2.4-4.553a1.1,1.1,0,0,1-.082-.2l-1.325-4.536-.3.114L8.665,18.724,10.324,23.4a1.1,1.1,0,0,1-2.073.736L6.413,18.954A1.1,1.1,0,0,1,6.522,18l1.614-2.534-.7-1.835-1.486.382.014,1.258h.9a.517.517,0,0,1,.311.1L5.8,17.534A1.947,1.947,0,0,0,5.6,19.241l.229.645H1.351a.52.52,0,0,1-.52-.52v-3.58A.52.52,0,0,1,1.351,15.265ZM19.32,16.348a.622.622,0,1,0,1.244,0v-3.59a.622.622,0,0,0-1.244,0ZM3.292,15.265h1.63v-.621H3.292Z" transform="translate(-0.831 0.001)"/></g></g><g transform="translate(9.255 16.802)"><path class="c" d="M257.824,325.767l.422,1.446v4.476H260.2l.654,1.244h-2.7a1.952,1.952,0,0,0-.1-.857L257,329.123v-2.066Z" transform="translate(-257.003 -325.767)"/></g><g transform="translate(3.52 2.474)"><path class="c" d="M363.43,48.1a2.084,2.084,0,1,1-1.2,2.69A2.084,2.084,0,0,1,363.43,48.1Z" transform="translate(-362.089 -47.965)"/></g></g><g transform="translate(66 422.999)"><circle class="d" cx="8" cy="8" r="8" transform="translate(0 0.001)"/><path class="a" d="M145.894,64.5h-.7a3.868,3.868,0,0,0-3.161-3.161v-.7a.643.643,0,0,0-1.286,0v.7a3.868,3.868,0,0,0-3.161,3.161h-.7a.643.643,0,0,0,0,1.286h.7a3.868,3.868,0,0,0,3.161,3.161v.7a.643.643,0,0,0,1.286,0v-.7a3.868,3.868,0,0,0,3.161-3.161h.7a.643.643,0,0,0,0-1.286Zm-4.5,3.215a2.572,2.572,0,1,1,2.572-2.572A2.575,2.575,0,0,1,141.393,67.717Z" transform="translate(-133.248 -56.999)"/></g></g></svg>