<svg xmlns="http://www.w3.org/2000/svg" xmlns:xlink="http://www.w3.org/1999/xlink" width="86" height="86" viewBox="0 0 86 86"><defs><style>.a{fill:#fff;}.b{fill:#393fc9;}.c{fill:url(#c);}.d{fill:#7086ff;}.e{fill:#4b64eb;}.f{fill:#4d57fa;}.g{fill:#879aff;}.h{fill:#525dfb;}.i{fill:#b8c2ff;}.j{fill:url(#d);}.k{filter:url(#a);}</style><filter id="a" x="0" y="0" width="86" height="86" filterUnits="userSpaceOnUse"><feOffset dy="8" input="SourceAlpha"/><feGaussianBlur stdDeviation="5" result="b"/><feFlood flood-opacity="0.188"/><feComposite operator="in" in2="b"/><feComposite in="SourceGraphic"/></filter><linearGradient id="c" x1="0.5" x2="0.5" y2="1" gradientUnits="objectBoundingBox"><stop offset="0" stop-color="#8296ff"/><stop offset="1" stop-color="#3a40f9"/></linearGradient><linearGradient id="d" x1="0.146" y1="0.146" x2="0.852" y2="0.852" gradientUnits="objectBoundingBox"><stop offset="0" stop-color="#ffd02c"/><stop offset="0.97" stop-color="#f89131"/></linearGradient></defs><g transform="translate(-4.643 -261.643)"><g class="k" transform="matrix(1, 0, 0, 1, 4.64, 261.64)"><rect class="a" width="56" height="56" rx="14" transform="translate(15 7)"/></g><g transform="translate(33.651 279.463)"><g transform="translate(-54.443 -122.511)"><g transform="translate(49.435 124.691)"><path class="b" d="M77.775,151.552,73.52,147.3l.452-.681a8.986,8.986,0,1,0-14.991,0l.451.681-4.255,4.255-.69-.921a14.972,14.972,0,0,1-2.686-5.97H49.435V138.67H51.8a14.966,14.966,0,0,1,2.185-5.26l-1.629-1.629,4.236-4.236,1.629,1.629a14.967,14.967,0,0,1,5.26-2.185v-2.3h5.991v2.3a14.967,14.967,0,0,1,5.26,2.185l1.629-1.629,4.236,4.236-1.629,1.629a14.966,14.966,0,0,1,2.185,5.26h2.365v5.991H81.151a14.972,14.972,0,0,1-2.686,5.97Z" transform="translate(-49.435 -123.691)"/><path class="c" d="M77.775,151.552,73.52,147.3l.452-.681a8.986,8.986,0,1,0-14.991,0l.451.681-4.255,4.255-.69-.921a14.972,14.972,0,0,1-2.686-5.97H49.435V138.67H51.8a14.966,14.966,0,0,1,2.185-5.26l-1.629-1.629,4.236-4.236,1.629,1.629a14.967,14.967,0,0,1,5.26-2.185v-2.3h5.991v2.3a14.967,14.967,0,0,1,5.26,2.185l1.629-1.629,4.236,4.236-1.629,1.629a14.966,14.966,0,0,1,2.185,5.26h2.365v5.991H81.151a14.972,14.972,0,0,1-2.686,5.97Z" transform="translate(-49.435 -124.691)"/><g transform="translate(7.571 6.094)"><rect class="d" width="8.8" height="16.972" transform="translate(5.029 5.524)"/><path class="e" d="M136.533,115.5v4.714h8.8V105.719Z" transform="translate(-131.504 -97.715)"/><rect class="b" width="6.286" height="1.257" transform="translate(6.286 4.267)"/><rect class="f" width="6.286" height="0.629" transform="translate(6.286 4.896)"/><g transform="translate(6.286 7.096)"><rect class="a" width="1.257" height="1.257" transform="translate(0 0)"/><rect class="a" width="1.257" height="1.257" transform="translate(2.514 0)"/><rect class="a" width="1.257" height="1.257" transform="translate(5.029 0)"/><rect class="a" width="1.257" height="1.257" transform="translate(0 2.514)"/><rect class="a" width="1.257" height="1.257" transform="translate(2.514 2.514)"/><rect class="a" width="1.257" height="1.257" transform="translate(5.029 2.514)"/><rect class="a" width="1.257" height="1.257" transform="translate(0 5.029)"/><rect class="a" width="1.257" height="1.257" transform="translate(2.514 5.029)"/><rect class="a" width="1.257" height="1.257" transform="translate(5.029 5.029)"/><rect class="a" width="1.257" height="1.257" transform="translate(0 7.543)"/><rect class="a" width="1.257" height="1.257" transform="translate(2.514 7.543)"/><rect class="a" width="1.257" height="1.257" transform="translate(5.029 7.543)"/><rect class="a" width="1.257" height="1.257" transform="translate(0 10.057)"/><rect class="a" width="1.257" height="1.257" transform="translate(2.514 10.057)"/><rect class="a" width="1.257" height="1.257" transform="translate(5.029 10.057)"/><rect class="a" width="3.771" height="2.514" transform="translate(1.257 12.886)"/></g><rect class="e" width="0.629" height="2.514" transform="translate(9.114 19.982)"/><path class="g" d="M11.293,321.613a1.268,1.268,0,0,0,.024-.71,1.246,1.246,0,0,0-.916-.9,1.258,1.258,0,0,0-1.516,1.551,1.816,1.816,0,0,1-.148,1.4,1.571,1.571,0,1,0,2.748.046A1.768,1.768,0,0,1,11.293,321.613Z" transform="translate(-8.213 -304.067)"/><path class="h" d="M0,0H.629V5.657H0Z" transform="translate(1.571 17.153)"/><rect class="i" width="18.857" height="0.629" transform="translate(0 22.182)"/></g></g></g><g transform="translate(15.422 15.815)"><circle class="j" cx="8.408" cy="8.408" r="8.408" transform="translate(0 0)"/><g transform="translate(3.471 3.471)"><path class="a" d="M9.874,2.6a.869.869,0,0,0-.868-.868H8.717V.887A.888.888,0,0,0,7.83,0H2.044a.888.888,0,0,0-.887.887v.849H.868A.869.869,0,0,0,0,2.6V4.055H1.157V8.519h.386v.488a.869.869,0,0,0,.868.868H2.8a.869.869,0,0,0,.868-.868V8.519H6.2v.488a.869.869,0,0,0,.868.868h.391a.869.869,0,0,0,.868-.868V8.519h.386V4.055H9.874ZM2.044.579H7.83a.309.309,0,0,1,.309.309v.27h-6.4V.887A.309.309,0,0,1,2.044.579ZM.579,3.477V2.6a.29.29,0,0,1,.289-.289h.289V3.477Zm7.56,3.885V7.94H6.3V6.783H3.576V7.94H1.736V7.362H2.9V6.783H1.736V5.674a21.924,21.924,0,0,0,3.2.236,21.924,21.924,0,0,0,3.2-.236V6.783H6.973v.579ZM5.72,7.94H4.154V7.362H5.72ZM3.091,9.006A.29.29,0,0,1,2.8,9.3H2.411a.29.29,0,0,1-.289-.289V8.519h.97Zm4.662,0a.29.29,0,0,1-.289.289H7.072a.29.29,0,0,1-.289-.289V8.519h.97Zm.386-3.917a21.321,21.321,0,0,1-6.4,0V1.736h6.4V5.089ZM9.3,3.477H8.717V2.314h.289A.29.29,0,0,1,9.3,2.6Z"/></g></g></g></g></svg>