<svg xmlns="http://www.w3.org/2000/svg" xmlns:xlink="http://www.w3.org/1999/xlink" width="80" height="80" viewBox="0 0 80 80"><defs><style>.a,.f{fill:#fff;}.b{fill:#90be47;}.c{fill:#b7df77;}.d{fill:#efebff;}.e{fill:#77a135;}.f{font-size:3px;font-family:OpenSans-Bold, Open Sans;font-weight:700;}.g{fill:url(#c);}.h{filter:url(#a);}</style><filter id="a" x="0" y="0" width="80" height="80" filterUnits="userSpaceOnUse"><feOffset dy="8" input="SourceAlpha"/><feGaussianBlur stdDeviation="5" result="b"/><feFlood flood-opacity="0.188"/><feComposite operator="in" in2="b"/><feComposite in="SourceGraphic"/></filter><linearGradient id="c" x1="0.156" y1="0.135" x2="0.852" y2="0.852" gradientUnits="objectBoundingBox"><stop offset="0" stop-color="#ff9797"/><stop offset="1" stop-color="#eb1f2a"/><stop offset="1" stop-color="#ea1a1a"/></linearGradient></defs><g transform="translate(-246 -501)"><g class="h" transform="matrix(1, 0, 0, 1, 246, 501)"><rect class="a" width="50" height="50" rx="16" transform="translate(15 7)"/></g><g transform="translate(220.913 211.448)"><g transform="translate(37.693 300.409)"><g transform="translate(13.883 5.143)"><g transform="translate(0)"><g transform="translate(0.361 0.36)"><path class="b" d="M120.688,67.858H104.4a.678.678,0,0,1-.678-.678V42.248a.678.678,0,0,1,.678-.678h16.287a.678.678,0,0,1,.678.678V67.18A.678.678,0,0,1,120.688,67.858Z" transform="translate(-103.723 -41.57)"/><path class="c" d="M109.824,44.026l2.457-2.457H104.4a.678.678,0,0,0-.678.678v1.978h5.622A.677.677,0,0,0,109.824,44.026Z" transform="translate(-103.723 -41.569)"/><g transform="translate(9.088 1.448)"><path class="c" d="M236.113,62.336h-6a.339.339,0,1,1,0-.678h6a.339.339,0,0,1,0,.678Z" transform="translate(-229.771 -61.658)"/></g></g><path class="a" d="M161.173,94.508V119.44a.678.678,0,0,1-.678.678H144.208a.678.678,0,0,1-.678-.678V94.508a.678.678,0,0,1,.678-.678H160.5A.678.678,0,0,1,161.173,94.508Z" transform="translate(-140.299 -89.701)"/><g transform="translate(17.771 12.854)"><path class="d" d="M348.3,215.65v3.727l-.008-.008-1.013,1.012a.36.36,0,0,1-.6-.152l-1.467-4.918a.361.361,0,0,1,.448-.448Z" transform="translate(-345.193 -214.847)"/></g><path class="b" d="M161.176,103.287V94.508a.678.678,0,0,0-.678-.678H144.211a.678.678,0,0,0-.678.678v8.779Z" transform="translate(-140.302 -89.701)"/><path class="c" d="M149.634,96.286l2.457-2.457h-7.88a.678.678,0,0,0-.678.678v1.978h5.622A.678.678,0,0,0,149.634,96.286Z" transform="translate(-140.302 -89.701)"/><g transform="translate(17.771 11.372)"><path class="c" d="M350.573,195.78l-4.918-1.467a.36.36,0,0,0-.448.448l1.467,4.918a.361.361,0,0,0,.6.152l1.012-1.012,2.277,2.277a.36.36,0,0,0,.51,0l.916-.916a.36.36,0,0,0,0-.51l-2.277-2.277,1.013-1.013A.361.361,0,0,0,350.573,195.78Z" transform="translate(-345.191 -194.298)"/></g><path class="e" d="M151.46,88.83H139.572a1.04,1.04,0,0,0-1.039,1.039v17.818a.36.36,0,1,0,.721,0V89.869a.318.318,0,0,1,.318-.318H151.46a.361.361,0,1,0,0-.721Z" transform="translate(-135.663 -85.062)"/><path class="e" d="M123.547,53.059l-2.022-2.022.758-.758a.721.721,0,0,0-.3-1.2h0l-2.021-.6v-7.1a1.04,1.04,0,0,0-1.039-1.039h-1.832V37.609a1.04,1.04,0,0,0-1.039-1.039H99.762a1.04,1.04,0,0,0-1.039,1.039V62.54a1.04,1.04,0,0,0,1.039,1.039h1.832v2.729a1.04,1.04,0,0,0,1.039,1.039h16.287a1.04,1.04,0,0,0,1.039-1.039V53.342L121.611,55a.722.722,0,0,0,1.02,0l.916-.916A.722.722,0,0,0,123.547,53.059Zm-4.628,13.567H102.632a.318.318,0,0,1-.318-.318V61.4a.36.36,0,1,0-.721,0v1.457H99.762a.318.318,0,0,1-.318-.318V37.609a.318.318,0,0,1,.318-.318h16.287a.318.318,0,0,1,.318.318V40.7a.36.36,0,0,0,.361.361h2.192a.318.318,0,0,1,.318.318v6.885l-2.176-.649a.721.721,0,0,0-.9.9l1.467,4.918a.721.721,0,0,0,1.2.3l.406-.406V66.308a.318.318,0,0,1-.318.318Zm3.2-12.14-2.277-2.277a.36.36,0,0,0-.51,0l-1.013,1.012L116.855,48.3l4.918,1.467-1.013,1.013a.36.36,0,0,0,0,.51l2.277,2.277Z" transform="translate(-98.723 -36.57)"/><g transform="translate(12.319 5.577)"><path class="c" d="M275.922,114.6h-6a.339.339,0,1,1,0-.678h6a.339.339,0,1,1,0,.678Z" transform="translate(-269.58 -113.918)"/></g><g transform="translate(5.364 15.005)"><g transform="translate(4.759 1.301)"><path class="e" d="M242.189,263.446h-2.705a.361.361,0,1,1,0-.721h2.705a.361.361,0,0,1,0,.721Z" transform="translate(-239.123 -262.725)"/><g transform="translate(0 1.262)"><path class="e" d="M247.38,280.949h-7.9a.361.361,0,0,1,0-.721h7.9a.361.361,0,0,1,0,.721Z" transform="translate(-239.123 -280.228)"/></g></g><g transform="translate(0 3.825)"><g transform="translate(4.759)"><path class="e" d="M247.38,298.452h-7.9a.361.361,0,1,1,0-.721h7.9a.361.361,0,0,1,0,.721Z" transform="translate(-239.123 -297.731)"/></g><g transform="translate(0 1.262)"><path class="e" d="M186.139,315.954H173.483a.36.36,0,1,1,0-.721h12.655a.36.36,0,1,1,0,.721Z" transform="translate(-173.123 -315.233)"/></g></g><g transform="translate(4.87)"><circle class="e" cx="0.361" cy="0.361" r="0.361"/><circle class="e" cx="0.361" cy="0.361" r="0.361" transform="translate(1.172)"/></g></g><g transform="translate(5.364 21.99)"><path class="e" d="M186.139,342.28H173.483a.36.36,0,1,1,0-.721h12.655a.36.36,0,1,1,0,.721Z" transform="translate(-173.123 -341.559)"/><g transform="translate(0 1.262)"><path class="e" d="M186.139,359.782H173.483a.361.361,0,0,1,0-.721h12.655a.361.361,0,0,1,0,.721Z" transform="translate(-173.123 -359.061)"/><g transform="translate(0 1.262)"><path class="e" d="M186.139,377.285H173.483a.36.36,0,1,1,0-.721h12.655a.36.36,0,1,1,0,.721Z" transform="translate(-173.123 -376.564)"/></g></g></g><g transform="translate(5.364 26.281)"><path class="e" d="M186.139,401.789H173.483a.361.361,0,0,1,0-.721h12.655a.361.361,0,0,1,0,.721Z" transform="translate(-173.123 -401.068)"/><g transform="translate(0 1.262)"><path class="e" d="M186.139,419.292H173.483a.36.36,0,1,1,0-.721h12.655a.36.36,0,1,1,0,.721Z" transform="translate(-173.123 -418.571)"/></g></g><text class="f" transform="translate(5.511 11)"><tspan x="0" y="0">LEARN</tspan></text></g><g transform="translate(5.793 15.233)"><path class="e" d="M182.463,252.083a.361.361,0,0,1-.331-.218l-1.183-2.748-1.183,2.748a.361.361,0,1,1-.662-.285l1.514-3.517a.361.361,0,0,1,.662,0l1.514,3.517a.361.361,0,0,1-.331.5Z" transform="translate(-179.074 -247.845)"/><path class="e" d="M187.851,281.787h-1.718a.361.361,0,0,1,0-.721h1.718a.361.361,0,0,1,0,.721Z" transform="translate(-185.29 -278.671)"/></g></g></g><g transform="translate(65.499 321.756)"><g transform="translate(-0.412 -0.206)"><circle class="g" cx="8" cy="8" r="8"/></g><g transform="translate(1.588 2.795)"><path class="a" d="M10.238,7.084V2.709l.43-.161a.319.319,0,0,0,0-.6L5.55.019a.318.318,0,0,0-.225,0L.206,1.952a.319.319,0,0,0,0,.6l1.726.645V5.516a.319.319,0,0,0,.2.3,8.857,8.857,0,0,0,3.3.636,8.857,8.857,0,0,0,3.3-.636.319.319,0,0,0,.2-.3V3.193L9.6,2.947V7.084a.955.955,0,0,0-.393,1.538.952.952,0,0,0-.244.637v1.3a.319.319,0,0,0,.319.319h1.274a.319.319,0,0,0,.319-.319V9.26a.952.952,0,0,0-.244-.637.955.955,0,0,0-.393-1.538ZM5.438.658,9.65,2.249,5.438,3.822,1.225,2.249ZM8.305,5.3a8.221,8.221,0,0,1-5.735,0V3.431L5.326,4.46a.319.319,0,0,0,.223,0L8.305,3.431ZM9.919,7.667a.319.319,0,1,1-.319.319A.319.319,0,0,1,9.919,7.667Zm.319,2.57H9.6V9.26a.319.319,0,1,1,.637,0Zm0,0" transform="translate(0 0)"/><path class="a" d="M241.637,91.319a.319.319,0,1,1-.319-.319A.319.319,0,0,1,241.637,91.319Zm0,0" transform="translate(-235.881 -89.068)"/></g></g></g></g></svg>