<svg xmlns="http://www.w3.org/2000/svg" width="20.4" height="20.4" viewBox="0 0 20.4 20.4"><defs><style>.a{fill:#fff;stroke:#fff;stroke-width:0.4px;}</style></defs><g transform="translate(0.2 0.2)"><g transform="translate(6)"><path class="a" d="M149.826,3.782a2.333,2.333,0,1,0-3.652,0A4.01,4.01,0,0,0,144,7.333v1a.333.333,0,0,0,.333.333h7.333A.333.333,0,0,0,152,8.333v-1A4.01,4.01,0,0,0,149.826,3.782ZM148,.667a1.662,1.662,0,0,1,.985,3q-.059.044-.121.081c-.04.025-.082.046-.124.068a1.646,1.646,0,0,1-.165.073c-.025.009-.051.016-.076.024a1.706,1.706,0,0,1-1,0c-.025-.008-.051-.014-.076-.024a1.614,1.614,0,0,1-.165-.073c-.042-.021-.084-.043-.124-.068s-.082-.052-.121-.081a1.662,1.662,0,0,1,.984-3ZM151.333,8h-6.667V7.333A3.343,3.343,0,0,1,146.7,4.269a2.313,2.313,0,0,0,.3.169h0a2.305,2.305,0,0,0,2,0h0a2.312,2.312,0,0,0,.3-.169,3.344,3.344,0,0,1,2.031,3.065Z" transform="translate(-144)"/></g><g transform="translate(0 11.333)"><path class="a" d="M5.826,275.782a2.333,2.333,0,1,0-3.652,0A4.01,4.01,0,0,0,0,279.333v1a.333.333,0,0,0,.333.333H7.667A.333.333,0,0,0,8,280.333v-1A4.01,4.01,0,0,0,5.826,275.782ZM4,272.667a1.662,1.662,0,0,1,.985,3q-.059.044-.121.081c-.04.025-.082.046-.124.068a1.645,1.645,0,0,1-.165.073c-.025.009-.051.016-.076.024a1.706,1.706,0,0,1-1,0c-.025-.008-.051-.014-.076-.024a1.612,1.612,0,0,1-.165-.073c-.042-.021-.084-.043-.124-.068s-.082-.052-.121-.081a1.662,1.662,0,0,1,.984-3ZM7.333,280H.667v-.667A3.343,3.343,0,0,1,2.7,276.269a2.308,2.308,0,0,0,.3.169H3a2.306,2.306,0,0,0,2,0H5a2.315,2.315,0,0,0,.3-.169,3.344,3.344,0,0,1,2.031,3.065Z" transform="translate(0 -272)"/></g><g transform="translate(12 11.333)"><path class="a" d="M293.826,275.782a2.333,2.333,0,1,0-3.652,0A4.01,4.01,0,0,0,288,279.333v1a.333.333,0,0,0,.333.333h7.333a.333.333,0,0,0,.333-.333v-1A4.01,4.01,0,0,0,293.826,275.782ZM292,272.667a1.662,1.662,0,0,1,.985,3q-.059.044-.121.081c-.04.025-.082.046-.124.068a1.649,1.649,0,0,1-.165.073c-.025.009-.051.016-.076.024a1.706,1.706,0,0,1-1,0c-.025-.008-.051-.014-.076-.024a1.61,1.61,0,0,1-.165-.073c-.042-.021-.084-.043-.124-.068s-.082-.052-.121-.081a1.662,1.662,0,0,1,.984-3ZM295.333,280h-6.667v-.667a3.343,3.343,0,0,1,2.031-3.065,2.308,2.308,0,0,0,.3.169h0a2.306,2.306,0,0,0,2,0h0a2.313,2.313,0,0,0,.3-.169,3.344,3.344,0,0,1,2.031,3.065Z" transform="translate(-288 -272)"/></g><g transform="translate(8.125 9.333)"><path class="a" d="M197.208,225.84V224h-.667v1.84L195,227.073l.417.521,1.458-1.167,1.458,1.167.417-.521Z" transform="translate(-195 -223)"/></g></g></svg>