<svg xmlns="http://www.w3.org/2000/svg" width="69.646" height="69.646" viewBox="0 0 69.646 69.646"><defs><style>.a{fill:#e2e5fc;}.b{fill:#fff;}.c{fill:#9a78fb;stroke:#9a78fb;stroke-width:0.5px;}</style></defs><circle class="a" cx="34.823" cy="34.823" r="34.823"/><g transform="translate(14 14.017)"><g transform="translate(12.589 12.58)"><path class="b" d="M13,22.381a9.381,9.381,0,1,1,9.381,9.381A9.381,9.381,0,0,1,13,22.381ZM22.381,29a6.622,6.622,0,1,0-6.622-6.622A6.622,6.622,0,0,0,22.381,29Z" transform="translate(-4.171 -13)"/><path class="b" d="M40.828,47.991l7.81-7.81a.552.552,0,0,1,.85.085,10.533,10.533,0,0,0,2.967,2.967.552.552,0,0,1,.085.85l-7.81,7.81a2.759,2.759,0,1,1-3.9-3.9Z" transform="translate(-40.019 -25.109)"/></g><path class="c" d="M17.551,15.4a7.726,7.726,0,1,0-7.718,0A12.7,12.7,0,0,0,1,27.48a.552.552,0,0,0,.552.552H25.833a.552.552,0,0,0,.552-.552A12.7,12.7,0,0,0,17.551,15.4ZM7.07,8.718a6.622,6.622,0,1,1,6.622,6.622A6.622,6.622,0,0,1,7.07,8.718Zm4.4,7.395a7.671,7.671,0,0,0,4.451,0,11.533,11.533,0,0,1,6.409,3.642H5.058a11.533,11.533,0,0,1,6.409-3.642ZM2.116,26.928a11.553,11.553,0,0,1,2.073-6.07H23.195a11.553,11.553,0,0,1,2.073,6.07Z" transform="translate(0 0)"/></g></svg>