<svg xmlns="http://www.w3.org/2000/svg" width="14.07" height="14.063" viewBox="0 0 14.07 14.063"><defs><style>.a{fill:#1586c7;}</style></defs><path class="a" d="M11.1,4.065a4.065,4.065,0,1,0-6.365,3.35A7.042,7.042,0,0,0,0,14.062H1.1A5.939,5.939,0,0,1,7.031,8.13,4.07,4.07,0,0,0,11.1,4.065ZM7.031,7.031A2.966,2.966,0,1,1,10,4.065,2.97,2.97,0,0,1,7.031,7.031Zm7.039,3.076-2.586,2.586-.777-.777,1.287-1.287h-.953a2.392,2.392,0,0,0-2.389,2.387v1.046h-1.1V13.016a3.493,3.493,0,0,1,3.488-3.485h.9L10.707,8.3l.777-.777Zm0,0" transform="translate(0)"/></svg>