<svg xmlns="http://www.w3.org/2000/svg" width="15.312" height="13.51" viewBox="0 0 15.312 13.51"><defs><style>.a{fill:#1586c7;}</style></defs><path class="a" d="M14.863,32.828H10.807v-.891A1.813,1.813,0,0,0,9,30.125H6.316A1.813,1.813,0,0,0,4.5,31.936v.891H.449A.449.449,0,0,0,0,33.276v8.149a2.212,2.212,0,0,0,2.209,2.209H13.1a2.212,2.212,0,0,0,2.209-2.209V33.276A.449.449,0,0,0,14.863,32.828ZM8.674,38.682a1.018,1.018,0,1,1-2.036,0V37.664H8.674Zm.449-1.915H6.189a.449.449,0,0,0-.449.449v.815c-2.609-.566-4.564-2.258-4.816-4.305H14.387c-.252,2.047-2.207,3.739-4.816,4.305v-.815a.449.449,0,0,0-.449-.449ZM5.4,31.936a.915.915,0,0,1,.914-.914H9a.915.915,0,0,1,.914.914v.891H5.4v-.891Zm9.013,9.489A1.314,1.314,0,0,1,13.1,42.738H2.209A1.314,1.314,0,0,1,.9,41.426V36.038A6.3,6.3,0,0,0,2.29,37.457a8.451,8.451,0,0,0,3.47,1.493,1.915,1.915,0,0,0,3.792,0,8.451,8.451,0,0,0,3.47-1.493,6.3,6.3,0,0,0,1.393-1.419Z" transform="translate(0 -30.125)"/></svg>