<svg xmlns="http://www.w3.org/2000/svg" xmlns:xlink="http://www.w3.org/1999/xlink" width="80" height="80" viewBox="0 0 80 80"><defs><style>.a{fill:none;}.b{fill:#fff;}.c{fill:url(#c);}.d{fill:#d4f9ff;}.e{fill:url(#d);}.f{clip-path:url(#e);}.g{fill:#06c3fb;}.h{fill:#f4fbff;}.i{fill:url(#r);}.j{filter:url(#a);}</style><filter id="a" x="0" y="0" width="80" height="80" filterUnits="userSpaceOnUse"><feOffset dy="8" input="SourceAlpha"/><feGaussianBlur stdDeviation="5" result="b"/><feFlood flood-opacity="0.188"/><feComposite operator="in" in2="b"/><feComposite in="SourceGraphic"/></filter><linearGradient id="c" x1="0.5" x2="0.5" y2="1" gradientUnits="objectBoundingBox"><stop offset="0" stop-color="#45e6ff"/><stop offset="0.457" stop-color="#07c6ff"/><stop offset="1" stop-color="#04acd8"/></linearGradient><linearGradient id="d" x1="0.5" x2="0.5" y2="1" gradientUnits="objectBoundingBox"><stop offset="0" stop-color="#038fb4"/><stop offset="1" stop-color="#004e63"/></linearGradient><clipPath id="e"><rect class="a" width="17.063" height="19.512"/></clipPath><linearGradient id="r" x1="0.146" y1="0.146" x2="0.852" y2="0.852" gradientUnits="objectBoundingBox"><stop offset="0" stop-color="#ff6054"/><stop offset="1" stop-color="#db22c8"/></linearGradient></defs><g transform="translate(-140 -381)"><g class="j" transform="matrix(1, 0, 0, 1, 140, 381)"><rect class="b" width="50" height="50" rx="16" transform="translate(15 7)"/></g><g transform="translate(164.473 395.75)"><g transform="translate(-149.473 -515.75)"><g transform="translate(-7.437 -30.25)"><g transform="translate(100.865 547.25)"><g transform="translate(56.571)"><g transform="translate(0)"><rect class="c" width="23" height="28" rx="2" transform="translate(0 2)"/><rect class="d" width="19" height="24" rx="1" transform="translate(2 4)"/><path class="e" d="M5.738,4.444H0v-2a.77.77,0,0,1,.77-.769H2.047a.321.321,0,0,0,.32-.32V.784A.784.784,0,0,1,3.151,0H6.22A.784.784,0,0,1,7,.784v.574a.321.321,0,0,0,.32.32H8.6a.77.77,0,0,1,.77.769v2Z" transform="translate(6.545)"/><g class="f" transform="translate(3 6.885)"><g transform="translate(0.286 -0.29)"><g transform="translate(-0.099 0.29)"><g transform="translate(0 0)"><path class="b" d="M119.946,121.522H117.38a.468.468,0,0,1-.5-.422v-2.669a.468.468,0,0,1,.5-.422h2.566a.468.468,0,0,1,.5.422V121.1A.468.468,0,0,1,119.946,121.522Z" transform="translate(-116.877 -118.01)"/><path class="c" d="M119.252,198.45a1.878,1.878,0,0,0-1.767,1.241.5.5,0,0,0,.483.365h2.566a.5.5,0,0,0,.483-.365A1.878,1.878,0,0,0,119.252,198.45Z" transform="translate(-117.466 -196.545)"/><circle class="c" cx="0.801" cy="0.801" r="0.801" transform="translate(0.985 0.115)"/></g></g><g transform="translate(4.874 0.873)"><g transform="translate(0 1.578)"><path class="g" d="M263.431,212.339H259.67a.431.431,0,0,1,0-.86h3.761a.431.431,0,0,1,0,.86Z" transform="translate(-259.269 -211.479)"/></g><g transform="translate(0 0)"><path class="g" d="M265.255,175.459h-5.41c-.318,0-.576-.193-.576-.43s.258-.43.576-.43h5.41c.318,0,.576.193.576.43S265.573,175.459,265.255,175.459Z" transform="translate(-259.269 -174.599)"/></g></g><g transform="translate(12.738 0.779)"><path class="c" d="M.537,2.494l0,0A1.4,1.4,0,0,1,1.162.019l.021,0A1.362,1.362,0,0,1,1.394,0,1.395,1.395,0,1,1,.537,2.494Z" transform="translate(0)"/><g transform="translate(0.609 0.813)"><path class="h" d="M342.505,395.05a.24.24,0,0,1-.147-.05l-.431-.333a.126.126,0,1,1,.154-.2l.422.326.753-.87a.126.126,0,0,1,.191.165l-.76.878A.24.24,0,0,1,342.505,395.05Z" transform="translate(-341.879 -393.88)"/></g></g></g><g transform="translate(0.286 4.71)"><g transform="translate(-0.099 0.29)"><g transform="translate(0 0)"><path class="b" d="M119.946,121.522H117.38a.468.468,0,0,1-.5-.422v-2.669a.468.468,0,0,1,.5-.422h2.566a.468.468,0,0,1,.5.422V121.1A.468.468,0,0,1,119.946,121.522Z" transform="translate(-116.877 -118.01)"/><path class="c" d="M119.252,198.45a1.878,1.878,0,0,0-1.767,1.241.5.5,0,0,0,.483.365h2.566a.5.5,0,0,0,.483-.365A1.878,1.878,0,0,0,119.252,198.45Z" transform="translate(-117.466 -196.545)"/><circle class="c" cx="0.801" cy="0.801" r="0.801" transform="translate(0.985 0.115)"/></g></g><g transform="translate(4.874 0.873)"><g transform="translate(0 1.578)"><path class="g" d="M263.431,212.339H259.67a.431.431,0,0,1,0-.86h3.761a.431.431,0,0,1,0,.86Z" transform="translate(-259.269 -211.479)"/></g><g transform="translate(0 0)"><path class="g" d="M265.255,175.459h-5.41c-.318,0-.576-.193-.576-.43s.258-.43.576-.43h5.41c.318,0,.576.193.576.43S265.573,175.459,265.255,175.459Z" transform="translate(-259.269 -174.599)"/></g></g><g transform="translate(12.738 0.779)"><path class="c" d="M.537,2.494l0,0A1.4,1.4,0,0,1,1.162.019l.021,0A1.362,1.362,0,0,1,1.394,0,1.395,1.395,0,1,1,.537,2.494Z" transform="translate(0)"/><g transform="translate(0.609 0.813)"><path class="h" d="M342.505,395.05a.24.24,0,0,1-.147-.05l-.431-.333a.126.126,0,1,1,.154-.2l.422.326.753-.87a.126.126,0,0,1,.191.165l-.76.878A.24.24,0,0,1,342.505,395.05Z" transform="translate(-341.879 -393.88)"/></g></g></g><g transform="translate(0.286 9.71)"><g transform="translate(-0.099 0.29)"><g transform="translate(0 0)"><path class="b" d="M119.946,121.522H117.38a.468.468,0,0,1-.5-.422v-2.669a.468.468,0,0,1,.5-.422h2.566a.468.468,0,0,1,.5.422V121.1A.468.468,0,0,1,119.946,121.522Z" transform="translate(-116.877 -118.01)"/><path class="c" d="M119.252,198.45a1.878,1.878,0,0,0-1.767,1.241.5.5,0,0,0,.483.365h2.566a.5.5,0,0,0,.483-.365A1.878,1.878,0,0,0,119.252,198.45Z" transform="translate(-117.466 -196.545)"/><circle class="c" cx="0.801" cy="0.801" r="0.801" transform="translate(0.985 0.115)"/></g></g><g transform="translate(4.874 0.873)"><g transform="translate(0 1.578)"><path class="g" d="M263.431,212.339H259.67a.431.431,0,0,1,0-.86h3.761a.431.431,0,0,1,0,.86Z" transform="translate(-259.269 -211.479)"/></g><g transform="translate(0 0)"><path class="g" d="M265.255,175.459h-5.41c-.318,0-.576-.193-.576-.43s.258-.43.576-.43h5.41c.318,0,.576.193.576.43S265.573,175.459,265.255,175.459Z" transform="translate(-259.269 -174.599)"/></g></g><g transform="translate(12.738 0.779)"><path class="c" d="M.537,2.494l0,0A1.4,1.4,0,0,1,1.162.019l.021,0A1.362,1.362,0,0,1,1.394,0,1.395,1.395,0,1,1,.537,2.494Z" transform="translate(0)"/><g transform="translate(0.609 0.813)"><path class="h" d="M342.505,395.05a.24.24,0,0,1-.147-.05l-.431-.333a.126.126,0,1,1,.154-.2l.422.326.753-.87a.126.126,0,0,1,.191.165l-.76.878A.24.24,0,0,1,342.505,395.05Z" transform="translate(-341.879 -393.88)"/></g></g></g><g transform="translate(0.286 14.71)"><g transform="translate(-0.099 0.29)"><g transform="translate(0 0)"><path class="b" d="M119.946,121.522H117.38a.468.468,0,0,1-.5-.422v-2.669a.468.468,0,0,1,.5-.422h2.566a.468.468,0,0,1,.5.422V121.1A.468.468,0,0,1,119.946,121.522Z" transform="translate(-116.877 -118.01)"/><path class="c" d="M119.252,198.45a1.878,1.878,0,0,0-1.767,1.241.5.5,0,0,0,.483.365h2.566a.5.5,0,0,0,.483-.365A1.878,1.878,0,0,0,119.252,198.45Z" transform="translate(-117.466 -196.545)"/><circle class="c" cx="0.801" cy="0.801" r="0.801" transform="translate(0.985 0.115)"/></g></g><g transform="translate(4.874 0.873)"><g transform="translate(0 1.578)"><path class="g" d="M263.431,212.339H259.67a.431.431,0,0,1,0-.86h3.761a.431.431,0,0,1,0,.86Z" transform="translate(-259.269 -211.479)"/></g><g transform="translate(0 0)"><path class="g" d="M265.255,175.459h-5.41c-.318,0-.576-.193-.576-.43s.258-.43.576-.43h5.41c.318,0,.576.193.576.43S265.573,175.459,265.255,175.459Z" transform="translate(-259.269 -174.599)"/></g></g><g transform="translate(12.738 0.779)"><path class="c" d="M.537,2.494l0,0A1.4,1.4,0,0,1,1.162.019l.021,0A1.362,1.362,0,0,1,1.394,0,1.395,1.395,0,1,1,.537,2.494Z" transform="translate(0)"/><g transform="translate(0.609 0.813)"><path class="h" d="M342.505,395.05a.24.24,0,0,1-.147-.05l-.431-.333a.126.126,0,1,1,.154-.2l.422.326.753-.87a.126.126,0,0,1,.191.165l-.76.878A.24.24,0,0,1,342.505,395.05Z" transform="translate(-341.879 -393.88)"/></g></g></g></g></g></g></g></g></g><g transform="translate(14.527 17.25)"><circle class="i" cx="8" cy="8" r="8" transform="translate(2)"/><path class="b" d="M8.328,7.578,6.372,5.622a3.5,3.5,0,0,0,.7-2.088A3.535,3.535,0,1,0,3.535,7.069a3.5,3.5,0,0,0,2.088-.7L7.578,8.328a.53.53,0,0,0,.749-.749ZM1.06,3.535A2.474,2.474,0,1,1,5.292,5.273s-.008,0-.011.008l-.007.011A2.472,2.472,0,0,1,1.06,3.535Z" transform="translate(5.999 4)"/></g></g></g></svg>