<svg xmlns="http://www.w3.org/2000/svg" xmlns:xlink="http://www.w3.org/1999/xlink" width="80" height="80" viewBox="0 0 80 80"><defs><style>.a{fill:#fff;}.b{fill:#ddeafb;}.b,.c,.d,.e,.g,.h{fill-rule:evenodd;}.c{fill:#7ec7ff;}.d{fill:#0576cc;}.e{fill:#0882df;}.f{fill:#e9f6ff;}.g{fill:#045592;}.h{fill:#0169b8;}.i,.l{fill:none;}.i{stroke:#fff;stroke-width:0.5px;}.j{fill:url(#c);}.k{stroke:none;}.m{filter:url(#a);}</style><filter id="a" x="0" y="0" width="80" height="80" filterUnits="userSpaceOnUse"><feOffset dy="8" input="SourceAlpha"/><feGaussianBlur stdDeviation="5" result="b"/><feFlood flood-opacity="0.188"/><feComposite operator="in" in2="b"/><feComposite in="SourceGraphic"/></filter><linearGradient id="c" x1="0.146" y1="0.146" x2="0.852" y2="0.852" gradientUnits="objectBoundingBox"><stop offset="0" stop-color="#ffd02c"/><stop offset="0.97" stop-color="#f89131"/></linearGradient></defs><g transform="translate(-4 -501)"><g class="m" transform="matrix(1, 0, 0, 1, 4, 501)"><rect class="a" width="50" height="50" rx="16" transform="translate(15 7)"/></g><g transform="translate(5.131 517)"><g transform="translate(29.369)"><path class="b" d="M127.825,0H115.705a2.916,2.916,0,0,0-3.01,2.792V26.376a2.916,2.916,0,0,0,3.01,2.79h12.119a2.916,2.916,0,0,0,3.012-2.79V2.792A2.917,2.917,0,0,0,127.825,0Z" transform="translate(-112.695 0)"/><path class="c" d="M333.91,0H335.3a2.768,2.768,0,0,1,2.727,2.792V26.376a2.768,2.768,0,0,1-2.727,2.79H333.91a2.767,2.767,0,0,0,2.727-2.79V2.792A2.767,2.767,0,0,0,333.91,0Z" transform="translate(-319.91)"/><path class="c" d="M338.028,0h-1.392a2.768,2.768,0,0,0-2.727,2.792V26.376a2.768,2.768,0,0,0,2.727,2.79h1.392a2.767,2.767,0,0,1-2.727-2.79V2.792A2.767,2.767,0,0,1,338.028,0Z" transform="translate(-333.91 0)"/><path class="d" d="M112.695,431.523v1.753a2.888,2.888,0,0,0,3.01,2.727h12.119a2.889,2.889,0,0,0,3.012-2.727v-1.753Z" transform="translate(-112.695 -406.836)"/><path class="d" d="M173.3,0V1.671a1.134,1.134,0,0,0,1.21,1.03h8.972a1.136,1.136,0,0,0,1.212-1.03V0Z" transform="translate(-169.8 0)"/></g><path class="a" d="M222.821,465.1a.417.417,0,1,0,0-.835h-3.807a.417.417,0,0,0,0,.835Z" transform="translate(-182.478 -437.755)"/><path class="e" d="M36.865,88.3H26.909a1.041,1.041,0,0,0-1.04,1.038v5.177a1.043,1.043,0,0,0,1.04,1.04H28.4L30.552,97.7A.249.249,0,0,0,31,97.521l0-1.964h5.871a1.044,1.044,0,0,0,1.04-1.04V89.339a1.042,1.042,0,0,0-1.04-1.038Z" transform="translate(13.584 -83.213)"/><path class="e" d="M280.873,217.364h-9.958a1.042,1.042,0,0,0-1.04,1.038v5.177a1.044,1.044,0,0,0,1.04,1.04H276.3v1.964a.248.248,0,0,0,.442.183l2.149-2.148h1.982a1.044,1.044,0,0,0,1.04-1.04V218.4a1.042,1.042,0,0,0-1.04-1.038Z" transform="translate(-244.006 -204.84)"/><path class="f" d="M75,126.836A.417.417,0,1,0,75,126h-6.5a.417.417,0,0,0,0,.835Zm0,2.222a.417.417,0,1,0,0-.835h-6.5a.417.417,0,0,0,0,.835Z" transform="translate(-26.275 -119.501)"/><path class="f" d="M308.505,255.9a.417.417,0,1,1,0-.835h6.947a.417.417,0,1,1,0,.835Zm0,2.222a.417.417,0,1,1,0-.835h3.25a.417.417,0,1,1,0,.835Z" transform="translate(-280.091 -241.065)"/><path class="g" d="M335.3,431.523v1.753A2.734,2.734,0,0,0,338.028,436h-1.392a2.735,2.735,0,0,1-2.727-2.727v-1.753Z" transform="translate(-304.541 -406.836)"/><path class="h" d="M281.913,223.58a1.044,1.044,0,0,1-1.04,1.04h-1.982l-2.149,2.148a.248.248,0,0,1-.442-.183V224.62h-5.385a1.044,1.044,0,0,1-1.04-1.04V218.4a1.042,1.042,0,0,1,1.04-1.038h.352v4.824a1.044,1.044,0,0,0,1.04,1.04h9.606Z" transform="translate(-244.006 -204.841)"/><path class="h" d="M37.905,94.516a1.044,1.044,0,0,1-1.04,1.04H30.994l0,1.964a.249.249,0,0,1-.443.183L28.4,95.556H26.909a1.043,1.043,0,0,1-1.04-1.04V89.339a1.041,1.041,0,0,1,1.04-1.038h.352v4.824a1.042,1.042,0,0,0,1.038,1.04h9.606Z" transform="translate(13.584 -83.213)"/><g class="i" transform="translate(37.869 0.5)"><circle class="k" cx="0.75" cy="0.75" r="0.75"/><circle class="l" cx="0.75" cy="0.75" r="0.5"/></g></g><g transform="translate(-20.743 429.575)"><g transform="translate(64.742 103.424)"><circle class="j" cx="8" cy="8" r="8" transform="translate(0.001 0)"/><g transform="translate(2.945 3)"><path class="a" d="M5.8,4.044A1.982,1.982,0,0,0,7.782,1.98,1.982,1.982,0,0,0,5.8,0H2.036A1.982,1.982,0,0,0,.056,2.064,1.983,1.983,0,0,0,1.728,4.02V5.335a.308.308,0,0,0,.537.2L3.6,4.044ZM3.23,3.531l-.887,1V3.736a.308.308,0,0,0-.308-.308A1.366,1.366,0,0,1,.671,2.064,1.37,1.37,0,0,1,2.036.615H5.8A1.366,1.366,0,0,1,7.167,1.98,1.37,1.37,0,0,1,5.8,3.428H3.46A.308.308,0,0,0,3.23,3.531Z" transform="translate(0)"/><circle class="a" cx="0.381" cy="0.381" r="0.381" transform="translate(1.663 1.641)"/><circle class="a" cx="0.381" cy="0.381" r="0.381" transform="translate(3.423 2.228) rotate(-67.486)"/><circle class="a" cx="0.381" cy="0.381" r="0.381" transform="translate(5.414 1.641)"/><path class="a" d="M140.942,236.828h-3.767a2.022,2.022,0,0,0,0,4.044h2.2l1.333,1.5a.308.308,0,0,0,.537-.2v-1.315a2.026,2.026,0,0,0-.308-4.02Zm1.364,2.064a1.366,1.366,0,0,1-1.364,1.364.308.308,0,0,0-.308.308v.791l-.887-1a.308.308,0,0,0-.23-.1h-2.342a1.407,1.407,0,0,1,0-2.813h3.767A1.369,1.369,0,0,1,142.306,238.892Z" transform="translate(-132.368 -231.971)"/><circle class="a" cx="0.381" cy="0.381" r="0.381" transform="translate(8.071 7.086) rotate(-67.486)"/><circle class="a" cx="0.381" cy="0.381" r="0.381" transform="translate(6.309 6.497)"/><circle class="a" cx="0.381" cy="0.381" r="0.381" transform="matrix(0.987, -0.16, 0.16, 0.987, 4.376, 6.564)"/></g></g></g></g></svg>