<svg xmlns="http://www.w3.org/2000/svg" xmlns:xlink="http://www.w3.org/1999/xlink" width="335.361" height="300.444" viewBox="0 0 335.361 300.444"><defs><style>.a,.p{fill:#407bff;}.b{fill:#515b60;opacity:0.08;}.c{fill:#fafafa;}.d{fill:#f5f5f5;}.e{fill:#ebebeb;}.f{fill:#f0f0f0;}.g{fill:#e0e0e0;}.h{fill:#e6e6e6;}.i{fill:none;}.j{fill:#263238;}.ad,.af,.k,.l,.m,.t,.v,.x{fill:#fff;}.ab,.ag,.k,.z{opacity:0.2;}.l,.n{opacity:0.5;}.m,.p,.q,.s{opacity:0.3;}.o{clip-path:url(#a);}.r{clip-path:url(#b);}.aa,.t{opacity:0.6;}.u{opacity:0.1;}.ac,.ae,.v{opacity:0.4;}.ad,.w{opacity:0.8;}.y{fill:#ffbd7b;}.ab{isolation:isolate;}.af{opacity:0.7;}.ah{fill:#6695ff;}.ai{fill:#a0bdff;}.aj{fill:#455a64;}</style><clipPath id="a"><rect class="a" width="21.076" height="10.646" transform="translate(21.076 10.646) rotate(180)"/></clipPath><clipPath id="b"><rect width="21.076" height="10.646" transform="translate(21.076 10.646) rotate(180)"/></clipPath></defs><g transform="translate(-11.884 -92.071)"><rect class="b" width="324" height="14" rx="7" transform="translate(17.884 378.515)"/><g transform="translate(18.272 85)"><g transform="translate(9)"><g transform="translate(14.572 7.071)"><rect class="c" width="61.479" height="208.551" transform="translate(3.221 7.81)"/><g transform="translate(30.51 7.81)"><path class="d" d="M118.221,73.1h-3.592L93.186,281.652h3.592Z" transform="translate(-93.186 -73.101)"/></g><rect class="e" width="62.508" height="2.829" transform="translate(2.828 5.166)"/><rect class="e" width="62.508" height="3.649" transform="translate(2.828 216.177)"/><path class="f" d="M123.744,287.911H55.978V63.576h67.766Zm-62.6-5.166h57.434v-214H61.144Z" transform="translate(-55.978 -63.576)"/><g transform="translate(74.394)"><rect class="c" width="61.479" height="208.551" transform="translate(3.222 7.81)"/><g transform="translate(6.605 7.81)"><path class="d" d="M195.8,73.1H176.2L154.758,281.652h19.6Z" transform="translate(-154.758 -73.101)"/></g><rect class="e" width="62.508" height="2.829" transform="translate(2.829 5.166)"/><rect class="e" width="62.508" height="3.649" transform="translate(2.829 216.177)"/><path class="f" d="M214.47,287.911H146.7V63.576H214.47Zm-62.6-5.166H209.3v-214H151.869Z" transform="translate(-146.703 -63.576)"/></g><g transform="translate(148.789)"><rect class="c" width="61.479" height="208.551" transform="translate(3.222 7.81)"/><g transform="translate(12.042 7.81)"><path class="d" d="M277.149,73.1h-3.592L252.114,281.652h3.592Z" transform="translate(-252.114 -73.101)"/></g><rect class="e" width="62.508" height="2.829" transform="translate(2.829 5.166)"/><rect class="e" width="62.508" height="3.649" transform="translate(2.829 216.177)"/><path class="f" d="M305.2,287.911H237.429V63.576H305.2Zm-62.6-5.166H300.03v-214H242.595Z" transform="translate(-237.429 -63.576)"/></g></g><g transform="translate(250.456 44.355)"><g transform="translate(0 2.781)"><rect class="g" width="57.975" height="67.198" transform="matrix(0.005, -1, 1, 0.005, 1.959, 68.821)"/><rect class="h" width="67.198" height="10.847" transform="matrix(-1, -0.005, 0.005, -1, 69.46, 11.199)"/><path class="d" d="M343.642,186.8l67.2.352,2.263-56.34-67.2-.352Z" transform="translate(-343.642 -119.617)"/><path class="e" d="M364.625,145.265l33.264.174.4-9.915-33.264-.175Z" transform="translate(-347.419 -120.497)"/><path class="g" d="M411.393,161.359l8.884.047.357-8.883-8.884-.047Z" transform="translate(-355.837 -123.58)"/><path class="g" d="M396.023,161.279l8.884.047.357-8.883-8.884-.047Z" transform="translate(-353.07 -123.565)"/><g transform="translate(55.074 40.879)"><path class="g" d="M410.806,175.971l8.884.047.357-8.883-8.884-.047Z" transform="translate(-410.806 -167.088)"/></g><g transform="translate(54.593 52.86)"><path class="e" d="M410.219,190.582l8.884.047.357-8.883-8.884-.047Z" transform="translate(-410.219 -181.699)"/></g><path class="g" d="M395.436,175.89l8.884.047.357-8.883-8.884-.046Z" transform="translate(-352.965 -126.195)"/><path class="g" d="M380.066,175.81l8.884.047.357-8.883-8.884-.047Z" transform="translate(-350.198 -126.181)"/><path class="g" d="M364.7,175.729l8.884.047.357-8.883-8.884-.047Z" transform="translate(-347.432 -126.166)"/><path class="g" d="M349.326,175.648l8.884.047.357-8.883-8.884-.047Z" transform="translate(-344.665 -126.152)"/><path class="e" d="M394.849,190.5l8.884.047.357-8.883-8.884-.047Z" transform="translate(-352.859 -128.825)"/><path class="e" d="M379.479,190.421l8.884.047.357-8.883-8.884-.047Z" transform="translate(-350.092 -128.811)"/><path class="g" d="M364.109,190.34l8.884.047.357-8.883-8.884-.047Z" transform="translate(-347.326 -128.796)"/><path class="i" d="M380.653,161.2l8.884.047.357-8.883-8.884-.047Z" transform="translate(-350.304 -123.551)"/><path class="e" d="M380.653,161.2l8.884.047.357-8.883-8.884-.047Z" transform="translate(-350.304 -123.551)"/><path class="i" d="M365.283,161.118l8.884.047.357-8.883-8.884-.047Z" transform="translate(-347.537 -123.536)"/><path class="e" d="M365.283,161.118l8.884.047.357-8.883-8.884-.047Z" transform="translate(-347.537 -123.536)"/><path class="i" d="M349.913,161.037l8.884.047.357-8.883-8.884-.047Z" transform="translate(-344.771 -123.522)"/><path class="e" d="M349.913,161.037l8.884.047.357-8.883-8.884-.047Z" transform="translate(-344.771 -123.522)"/><path class="g" d="M348.74,190.26l8.884.047.357-8.883-8.884-.047Z" transform="translate(-344.559 -128.782)"/></g><path class="h" d="M386.339,113.845a3.881,3.881,0,1,0,3.88,3.88A3.881,3.881,0,0,0,386.339,113.845Zm0,6.826a2.946,2.946,0,1,1,2.946-2.946A2.946,2.946,0,0,1,386.339,120.671Z" transform="translate(-350.629 -113.845)"/></g></g><g transform="translate(119.92 120.778)"><g transform="translate(90.144 33.482)"><path class="j" d="M316.36,321.5h47.816s-10.761,2.43-18.429,3.507v4.368H334.789v-4.368C327.121,323.929,316.36,321.5,316.36,321.5Z" transform="translate(-298.719 -234.147)"/><g transform="translate(57.602 56.829)"><path class="j" d="M374.321,303.58h-9.227a59.585,59.585,0,0,0,0-19.3h9.227A59.653,59.653,0,0,1,374.321,303.58Z" transform="translate(-365.094 -284.276)"/></g><g transform="translate(34.449 95.227)"><rect class="j" width="14.198" height="32.294"/><rect class="k" width="14.198" height="32.294"/></g><g transform="translate(35.131)"><path class="a" d="M384.785,274.013H345.01a7.261,7.261,0,0,1-7.225-8.62,349.5,349.5,0,0,0,3.053-42.975,7.2,7.2,0,0,1,7.318-7.446h33.484a9,9,0,0,1,8.733,7.446,349.586,349.586,0,0,1,3.239,42.975A8.935,8.935,0,0,1,384.785,274.013Z" transform="translate(-337.69 -214.972)"/><path class="a" d="M386.557,265.393a349.287,349.287,0,0,0-3.239-42.975,9,9,0,0,0-8.733-7.446H348.156a7.2,7.2,0,0,0-7.318,7.446,349.5,349.5,0,0,1-3.053,42.975,7.261,7.261,0,0,0,7.225,8.62h32.721A8.934,8.934,0,0,0,386.557,265.393Z" transform="translate(-337.69 -214.972)"/><path class="l" d="M386.557,265.393a349.287,349.287,0,0,0-3.239-42.975,9,9,0,0,0-8.733-7.446H348.156a7.2,7.2,0,0,0-7.318,7.446,349.5,349.5,0,0,1-3.053,42.975,7.261,7.261,0,0,0,7.225,8.62h32.721A8.934,8.934,0,0,0,386.557,265.393Z" transform="translate(-337.69 -214.972)"/></g><path class="j" d="M364.176,374.559a1.187,1.187,0,0,1-1.439,1.16c-4.351-.949-17.384-3.695-22.469-3.695s-18.118,2.746-22.469,3.695a1.187,1.187,0,0,1-1.439-1.16h0a3.112,3.112,0,0,1,2.459-3.045c5.094-1.094,16.715-3.474,21.449-3.474s16.355,2.38,21.449,3.474a3.112,3.112,0,0,1,2.459,3.045Z" transform="translate(-298.719 -242.525)"/><g transform="translate(13.552 129.632)"><path class="a" d="M315.462,373.06a4.089,4.089,0,1,0,4.089,4.089A4.089,4.089,0,0,0,315.462,373.06Zm0,6.3a2.214,2.214,0,1,1,2.215-2.214A2.215,2.215,0,0,1,315.462,379.363Z" transform="translate(-311.374 -373.06)"/><path class="a" d="M344.618,373.06a4.089,4.089,0,1,0,4.088,4.089A4.089,4.089,0,0,0,344.618,373.06Zm0,6.3a2.214,2.214,0,1,1,2.215-2.214A2.214,2.214,0,0,1,344.618,379.363Z" transform="translate(-316.622 -373.06)"/><path class="a" d="M373.168,373.06a4.089,4.089,0,1,0,4.089,4.089A4.089,4.089,0,0,0,373.168,373.06Zm0,6.3a2.214,2.214,0,1,1,2.215-2.214A2.215,2.215,0,0,1,373.168,379.363Z" transform="translate(-321.761 -373.06)"/></g><path class="a" d="M348.5,306.7a326.33,326.33,0,0,1-47.76-1.685,5.166,5.166,0,0,0-5.9,5.229v.781a6.789,6.789,0,0,0,5.9,6.6,326.325,326.325,0,0,0,47.76,1.685Z" transform="translate(-294.847 -231.173)"/><g transform="translate(0 73.773)"><path class="l" d="M348.5,306.7a326.33,326.33,0,0,1-47.76-1.685,5.166,5.166,0,0,0-5.9,5.229v.781a6.789,6.789,0,0,0,5.9,6.6,326.325,326.325,0,0,0,47.76,1.685Z" transform="translate(-294.847 -304.946)"/><path class="a" d="M382.151,317.581c-9.12.854-18.111,1.455-27.263,1.824a5.478,5.478,0,0,1-5.617-5.507v-1.4a5.749,5.749,0,0,1,5.617-5.7c9.152-.368,18.143-.969,27.263-1.824a4.893,4.893,0,0,1,5.588,4.954v1.4A6.439,6.439,0,0,1,382.151,317.581Z" transform="translate(-304.643 -304.939)"/></g></g><g transform="translate(0 66.837)"><g transform="translate(182.366 6.457)"><path class="a" d="M419.22,374.624h-2.654l-.716-98.9h3.37Z" transform="translate(-415.85 -275.719)"/><path class="l" d="M419.22,374.624h-2.654l-.716-98.9h3.37Z" transform="translate(-415.85 -275.719)"/><g transform="translate(3.37)"><path class="a" d="M422.614,374.624H419.96v-98.9h3.37Z" transform="translate(-419.96 -275.719)"/><path class="m" d="M422.614,374.624H419.96v-98.9h3.37Z" transform="translate(-419.96 -275.719)"/></g></g><g transform="translate(27.031 6.457)"><path class="a" d="M229.786,374.624h-2.654l-.716-98.9h3.37Z" transform="translate(-226.416 -275.719)"/><path class="l" d="M229.786,374.624h-2.654l-.716-98.9h3.37Z" transform="translate(-226.416 -275.719)"/><g transform="translate(3.37)"><path class="a" d="M233.18,374.624h-2.654v-98.9h3.37Z" transform="translate(-230.526 -275.719)"/><path class="m" d="M233.18,374.624h-2.654v-98.9h3.37Z" transform="translate(-230.526 -275.719)"/></g></g><rect class="j" width="156.397" height="6.457"/><rect class="k" width="156.397" height="6.457"/><g transform="translate(153.681)"><rect class="j" width="40.766" height="6.457"/><rect class="n" width="40.766" height="6.457"/></g><rect class="a" width="155.335" height="10.646" transform="translate(9.325 6.457)"/><g transform="translate(164.66 6.457)"><rect class="a" width="21.076" height="10.646" transform="translate(21.076 10.646) rotate(180)"/><g class="o"><rect class="p" width="21.076" height="10.646" transform="translate(21.076 10.646) rotate(180)"/></g><g class="q"><rect width="21.076" height="10.646" transform="translate(21.076 10.646) rotate(180)"/><g class="r"><rect class="s" width="21.076" height="10.646" transform="translate(21.076 10.646) rotate(180)"/></g></g></g><g transform="translate(5.954 6.457)"><path class="a" d="M204.084,381.184H201.43l-.716-105.465h3.37Z" transform="translate(-200.713 -275.719)"/><path class="l" d="M204.084,381.184H201.43l-.716-105.465h3.37Z" transform="translate(-200.713 -275.719)"/><g transform="translate(3.37)"><path class="a" d="M207.477,381.184h-2.654V275.719h3.37Z" transform="translate(-204.823 -275.719)"/><path class="m" d="M207.477,381.184h-2.654V275.719h3.37Z" transform="translate(-204.823 -275.719)"/></g></g><g transform="translate(161.289 6.457)"><path class="a" d="M393.517,381.184h-2.654l-.716-105.465h3.37Z" transform="translate(-390.147 -275.719)"/><path class="l" d="M393.517,381.184h-2.654l-.716-105.465h3.37Z" transform="translate(-390.147 -275.719)"/><g transform="translate(3.37)"><path class="a" d="M396.911,381.184h-2.654V275.719h3.37Z" transform="translate(-394.257 -275.719)"/><path class="m" d="M396.911,381.184h-2.654V275.719h3.37Z" transform="translate(-394.257 -275.719)"/></g></g></g><g transform="translate(33.698)"><g transform="translate(69.894)"><path class="j" d="M324.493,186.335h-4.709l3.478,49.748h4.709a1.3,1.3,0,0,0,1.314-1.413l-3.281-46.921A1.54,1.54,0,0,0,324.493,186.335Z" transform="translate(-319.784 -186.335)"/><path class="m" d="M324.493,186.335h-4.709l3.478,49.748h4.709a1.3,1.3,0,0,0,1.314-1.413l-3.281-46.921A1.54,1.54,0,0,0,324.493,186.335Z" transform="translate(-319.784 -186.335)"/></g><path class="j" d="M309.926,236.083H239.343a1.539,1.539,0,0,1-1.512-1.413l-3.281-46.921a1.3,1.3,0,0,1,1.314-1.414h70.584a1.54,1.54,0,0,1,1.512,1.414l3.281,46.921A1.3,1.3,0,0,1,309.926,236.083Z" transform="translate(-234.547 -186.335)"/><path class="t" d="M309.926,236.083H239.343a1.539,1.539,0,0,1-1.512-1.413l-3.281-46.921a1.3,1.3,0,0,1,1.314-1.414h70.584a1.54,1.54,0,0,1,1.512,1.414l3.281,46.921A1.3,1.3,0,0,1,309.926,236.083Z" transform="translate(-234.547 -186.335)"/><path class="u" d="M273.948,232.344c-10.439.242-33.552,12.02-33.552,12.02h70.583S285.1,232.085,273.948,232.344Z" transform="translate(-235.6 -194.616)"/><g transform="translate(29.909 38.738)"><path class="j" d="M288.619,235.336a1.847,1.847,0,0,0-1.846-1.759H274.134a1.847,1.847,0,0,0-1.846,1.759l-1.267,26.34h18.865Z" transform="translate(-271.021 -233.577)"/><path class="v" d="M288.619,235.336a1.847,1.847,0,0,0-1.846-1.759H274.134a1.847,1.847,0,0,0-1.846,1.759l-1.267,26.34h18.865Z" transform="translate(-271.021 -233.577)"/><path class="j" d="M293.5,235.336a1.848,1.848,0,0,0-1.846-1.759h-1.423a1.847,1.847,0,0,1,1.846,1.759l1.267,26.34h1.423Z" transform="translate(-274.479 -233.577)"/></g></g><g transform="translate(87.253 66.098)"><g transform="translate(1.654)"><path class="j" d="M304.292,269.863h-2.03a.387.387,0,0,1-.387-.387v-2.147a.387.387,0,0,1,.387-.387h1.457a.388.388,0,0,1,.375.288l.572,2.146A.387.387,0,0,1,304.292,269.863Z" transform="translate(-301.875 -266.942)"/><path class="j" d="M307.712,269.863h-2.03a.387.387,0,0,1-.388-.387v-2.147a.388.388,0,0,1,.388-.387h1.457a.387.387,0,0,1,.374.288l.572,2.146A.387.387,0,0,1,307.712,269.863Z" transform="translate(-302.491 -266.942)"/><path class="j" d="M311.132,269.863H309.1a.387.387,0,0,1-.388-.387v-2.147a.388.388,0,0,1,.388-.387h1.457a.387.387,0,0,1,.374.288l.572,2.146A.387.387,0,0,1,311.132,269.863Z" transform="translate(-303.106 -266.942)"/><path class="j" d="M314.552,269.863h-2.029a.387.387,0,0,1-.387-.387v-2.147a.387.387,0,0,1,.387-.387h1.457a.388.388,0,0,1,.375.288l.572,2.146A.388.388,0,0,1,314.552,269.863Z" transform="translate(-303.722 -266.942)"/><path class="j" d="M317.973,269.863h-2.029a.387.387,0,0,1-.387-.387v-2.147a.387.387,0,0,1,.387-.387H317.4a.388.388,0,0,1,.375.288l.572,2.146A.387.387,0,0,1,317.973,269.863Z" transform="translate(-304.338 -266.942)"/><path class="j" d="M321.393,269.863h-2.029a.387.387,0,0,1-.388-.387v-2.147a.388.388,0,0,1,.388-.387h1.457a.387.387,0,0,1,.374.288l.572,2.146A.387.387,0,0,1,321.393,269.863Z" transform="translate(-304.953 -266.942)"/><path class="j" d="M324.813,269.863h-2.03a.387.387,0,0,1-.388-.387v-2.147a.388.388,0,0,1,.388-.387h1.457a.387.387,0,0,1,.374.288l.572,2.146A.387.387,0,0,1,324.813,269.863Z" transform="translate(-305.569 -266.942)"/><path class="j" d="M328.233,269.863H326.2a.387.387,0,0,1-.387-.387v-2.147a.387.387,0,0,1,.387-.387h1.457a.388.388,0,0,1,.375.288l.572,2.146A.388.388,0,0,1,328.233,269.863Z" transform="translate(-306.185 -266.942)"/><path class="j" d="M331.653,269.863h-2.029a.387.387,0,0,1-.387-.387v-2.147a.387.387,0,0,1,.387-.387h1.457a.388.388,0,0,1,.375.288l.572,2.146A.387.387,0,0,1,331.653,269.863Z" transform="translate(-306.8 -266.942)"/><path class="j" d="M335.074,269.863h-2.029a.387.387,0,0,1-.388-.387v-2.147a.388.388,0,0,1,.388-.387H334.5a.387.387,0,0,1,.375.288l.572,2.146A.387.387,0,0,1,335.074,269.863Z" transform="translate(-307.416 -266.942)"/><path class="j" d="M338.494,269.863h-2.03a.387.387,0,0,1-.388-.387v-2.147a.388.388,0,0,1,.388-.387h1.457a.387.387,0,0,1,.374.288l.572,2.146A.387.387,0,0,1,338.494,269.863Z" transform="translate(-308.031 -266.942)"/><path class="j" d="M341.914,269.863h-2.03a.387.387,0,0,1-.388-.387v-2.147a.388.388,0,0,1,.388-.387h1.457a.388.388,0,0,1,.375.288l.572,2.146A.387.387,0,0,1,341.914,269.863Z" transform="translate(-308.647 -266.942)"/><path class="j" d="M345.334,269.863h-2.029a.387.387,0,0,1-.387-.387v-2.147a.387.387,0,0,1,.387-.387h1.457a.388.388,0,0,1,.375.288l.572,2.146A.387.387,0,0,1,345.334,269.863Z" transform="translate(-309.263 -266.942)"/><path class="j" d="M348.754,269.863h-2.029a.387.387,0,0,1-.387-.387v-2.147a.387.387,0,0,1,.387-.387h1.457a.388.388,0,0,1,.375.288l.572,2.146A.387.387,0,0,1,348.754,269.863Z" transform="translate(-309.878 -266.942)"/><path class="j" d="M352.175,269.863h-2.03a.387.387,0,0,1-.388-.387v-2.147a.388.388,0,0,1,.388-.387H351.6a.387.387,0,0,1,.374.288l.572,2.146A.387.387,0,0,1,352.175,269.863Z" transform="translate(-310.494 -266.942)"/><g class="w"><path class="x" d="M304.292,269.863h-2.03a.387.387,0,0,1-.387-.387v-2.147a.387.387,0,0,1,.387-.387h1.457a.388.388,0,0,1,.375.288l.572,2.146A.387.387,0,0,1,304.292,269.863Z" transform="translate(-301.875 -266.942)"/><path class="x" d="M307.712,269.863h-2.03a.387.387,0,0,1-.388-.387v-2.147a.388.388,0,0,1,.388-.387h1.457a.387.387,0,0,1,.374.288l.572,2.146A.387.387,0,0,1,307.712,269.863Z" transform="translate(-302.491 -266.942)"/><path class="x" d="M311.132,269.863H309.1a.387.387,0,0,1-.388-.387v-2.147a.388.388,0,0,1,.388-.387h1.457a.387.387,0,0,1,.374.288l.572,2.146A.387.387,0,0,1,311.132,269.863Z" transform="translate(-303.106 -266.942)"/><path class="x" d="M314.552,269.863h-2.029a.387.387,0,0,1-.387-.387v-2.147a.387.387,0,0,1,.387-.387h1.457a.388.388,0,0,1,.375.288l.572,2.146A.388.388,0,0,1,314.552,269.863Z" transform="translate(-303.722 -266.942)"/><path class="x" d="M317.973,269.863h-2.029a.387.387,0,0,1-.387-.387v-2.147a.387.387,0,0,1,.387-.387H317.4a.388.388,0,0,1,.375.288l.572,2.146A.387.387,0,0,1,317.973,269.863Z" transform="translate(-304.338 -266.942)"/><path class="x" d="M321.393,269.863h-2.029a.387.387,0,0,1-.388-.387v-2.147a.388.388,0,0,1,.388-.387h1.457a.387.387,0,0,1,.374.288l.572,2.146A.387.387,0,0,1,321.393,269.863Z" transform="translate(-304.953 -266.942)"/><path class="x" d="M324.813,269.863h-2.03a.387.387,0,0,1-.388-.387v-2.147a.388.388,0,0,1,.388-.387h1.457a.387.387,0,0,1,.374.288l.572,2.146A.387.387,0,0,1,324.813,269.863Z" transform="translate(-305.569 -266.942)"/><path class="x" d="M328.233,269.863H326.2a.387.387,0,0,1-.387-.387v-2.147a.387.387,0,0,1,.387-.387h1.457a.388.388,0,0,1,.375.288l.572,2.146A.388.388,0,0,1,328.233,269.863Z" transform="translate(-306.185 -266.942)"/><path class="x" d="M331.653,269.863h-2.029a.387.387,0,0,1-.387-.387v-2.147a.387.387,0,0,1,.387-.387h1.457a.388.388,0,0,1,.375.288l.572,2.146A.387.387,0,0,1,331.653,269.863Z" transform="translate(-306.8 -266.942)"/><path class="x" d="M335.074,269.863h-2.029a.387.387,0,0,1-.388-.387v-2.147a.388.388,0,0,1,.388-.387H334.5a.387.387,0,0,1,.375.288l.572,2.146A.387.387,0,0,1,335.074,269.863Z" transform="translate(-307.416 -266.942)"/><path class="x" d="M338.494,269.863h-2.03a.387.387,0,0,1-.388-.387v-2.147a.388.388,0,0,1,.388-.387h1.457a.387.387,0,0,1,.374.288l.572,2.146A.387.387,0,0,1,338.494,269.863Z" transform="translate(-308.031 -266.942)"/><path class="x" d="M341.914,269.863h-2.03a.387.387,0,0,1-.388-.387v-2.147a.388.388,0,0,1,.388-.387h1.457a.388.388,0,0,1,.375.288l.572,2.146A.387.387,0,0,1,341.914,269.863Z" transform="translate(-308.647 -266.942)"/><path class="x" d="M345.334,269.863h-2.029a.387.387,0,0,1-.387-.387v-2.147a.387.387,0,0,1,.387-.387h1.457a.388.388,0,0,1,.375.288l.572,2.146A.387.387,0,0,1,345.334,269.863Z" transform="translate(-309.263 -266.942)"/><path class="x" d="M348.754,269.863h-2.029a.387.387,0,0,1-.387-.387v-2.147a.387.387,0,0,1,.387-.387h1.457a.388.388,0,0,1,.375.288l.572,2.146A.387.387,0,0,1,348.754,269.863Z" transform="translate(-309.878 -266.942)"/><path class="x" d="M352.175,269.863h-2.03a.387.387,0,0,1-.388-.387v-2.147a.388.388,0,0,1,.388-.387H351.6a.387.387,0,0,1,.374.288l.572,2.146A.387.387,0,0,1,352.175,269.863Z" transform="translate(-310.494 -266.942)"/></g></g><g transform="translate(0 1.461)"><rect class="j" width="45.377" height="3.379"/><rect class="l" width="45.377" height="3.379"/></g></g></g><g transform="translate(47.064 36.343)"><g transform="translate(69.719 230.948)"><path class="y" d="M182.119,379.645l5.506,16.812-6.136,2.692-7.717-14.729Z" transform="translate(-173.771 -379.645)"/><path class="z" d="M178.357,393.317l7.427-2.657-2.648-7.235-7.8,4.117Z" transform="translate(-174.052 -380.326)"/></g><g transform="translate(67.587 244.799)"><path class="a" d="M177.387,404.1c-.9.517-1.92.867-2.432.6a.856.856,0,0,1-.4-.834,1.118,1.118,0,0,1,.313-.745c1-1.041,4.318-.913,4.467-.907a.213.213,0,0,1,.189.148.222.222,0,0,1-.053.234A13.651,13.651,0,0,1,177.387,404.1Zm-1.938-.9a1.235,1.235,0,0,0-.3.232.587.587,0,0,0-.2.454c-.008.308.093.4.173.434.6.334,2.421-.7,3.665-1.656A8.287,8.287,0,0,0,175.449,403.2Z" transform="translate(-171.781 -397.557)"/><path class="a" d="M179.62,402.109a.1.1,0,0,1-.075.034c-1.088.074-3.692-.64-3.987-1.592-.089-.216-.075-.548.355-.86a1.334,1.334,0,0,1,1.083-.226c1.323.278,2.656,2.261,2.72,2.354a.227.227,0,0,1,.016.214A.171.171,0,0,1,179.62,402.109Zm-3.419-2.142-.1.045c-.285.2-.237.341-.225.394.225.544,2.035,1.218,3.232,1.283a4.924,4.924,0,0,0-2.215-1.828.936.936,0,0,0-.694.1Z" transform="translate(-171.953 -397.057)"/><path class="j" d="M179.809,399.877c4.428-.966,5.966-2.735,5.966-2.735l.827-.605a7.813,7.813,0,0,1,2.157,2.162,45.982,45.982,0,0,0,4.322,4.663h0c.6.592-.058,1.237-1.046,1.7-.084.039-3.226,2.259-7.025,4.456-4.489,2.589-3.837,2.468-9.1,5.621-3.18,1.9-5.637-2.2-4.418-3.164,5.545-4.324,6.41-7.034,7.43-10.631C179.167,400.636,179.116,400.028,179.809,399.877Z" transform="translate(-171.172 -396.536)"/></g><g transform="translate(62.415 36.88)"><path class="j" d="M167.191,145.841c.471-.984-.466.121-.485-.4.008.226.568.845.677,1.141.613,1.663,1.19,3.306,1.653,5.022,1.528,5.669,2.584,11.474,3.608,17.251,2.285,12.894,4.134,25.868,5.85,38.848.4,3.017.793,6.035,1.163,9.055.2,1.6,2.735,1.619,2.536,0q-1.812-14.786-4.03-29.521c-1.186-7.952-2.443-15.9-3.941-23.8-1.042-5.5-1.993-11.222-3.963-16.481-.786-2.1-3.408-6.261-5.259-2.393-.7,1.465,1.485,2.753,2.19,1.28Z" transform="translate(-164.864 -142.975)"/></g><g transform="translate(0 242.258)"><path class="y" d="M114.1,393.879l-2.284,13.242-7.462-.882,1.015-12.8Z" transform="translate(-91.558 -393.437)"/><g transform="translate(0 8.757)"><path class="a" d="M99.472,408.155a3.34,3.34,0,0,1-2.212-.872.7.7,0,0,1,.112-.8.967.967,0,0,1,.633-.36c1.341-.2,3.862,1.683,3.974,1.766a.185.185,0,0,1,.066.2.194.194,0,0,1-.167.133A13.7,13.7,0,0,1,99.472,408.155Zm-1.05-1.663a1.215,1.215,0,0,0-.358,0,.512.512,0,0,0-.393.213c-.165.212-.13.329-.085.4.3.55,2.257.8,3.725.8A8.574,8.574,0,0,0,98.422,406.492Z" transform="translate(-90.266 -404.475)"/><path class="a" d="M102.352,407.861a.109.109,0,0,1-.076-.016c-.878-.526-2.54-2.44-2.267-3.294.045-.208.235-.445.748-.434a1.374,1.374,0,0,1,.986.44c.891.935.841,3.057.84,3.155a.184.184,0,0,1-.1.157A.179.179,0,0,1,102.352,407.861Zm-1.515-3.38-.1-.022c-.335-.012-.372.118-.392.163-.112.522.951,1.989,1.845,2.677a4.365,4.365,0,0,0-.741-2.509.97.97,0,0,0-.608-.309Z" transform="translate(-90.77 -404.116)"/><path class="j" d="M101.286,407.474l8.483,1.038a.689.689,0,0,1,.6.616l.689,7.089a1.143,1.143,0,0,1-1.262,1.256c-3.051-.427-5.75-.928-9.558-1.389-4.494-.549-3.419.129-8.711-.443-3.187-.348-3.328-4.037-1.956-4.049,6.271-.021,7.141-1.808,9.794-3.727A2.755,2.755,0,0,1,101.286,407.474Z" transform="translate(-88.748 -404.714)"/></g><path class="z" d="M112.722,403l.933-5.408-8.434-.586-.418,5.266Z" transform="translate(-91.638 -394.08)"/></g><path class="a" d="M134.19,144.336s-10.557-.753-13.886,7.278c-6.835,16.489-7.227,34.531-7.227,34.531l10.557,1.377Z" transform="translate(-93.128 -106.337)"/><path class="z" d="M125.1,155.217s-2.749,8-4.7,28.3h4.7l2.18-22.485Z" transform="translate(-94.446 -108.299)"/><path class="j" d="M123.881,217.576C100.506,288.5,103.948,320.111,103.9,320.743l-.749,44.119L115,365.9s8.25-39.468,7.472-59.132c-.1-2.525,13.024-37.594,17.325-55.39,0,0,8.352-19.3,4.392-32.662C144.185,218.719,125.652,212.2,123.881,217.576Z" transform="translate(-91.342 -119.142)"/><path class="n" d="M138.392,244.806a160.618,160.618,0,0,0-1.237,40.61c1.85-7.364,7.043-18.781,8.626-28.751Z" transform="translate(-97.329 -124.425)"/><path class="j" d="M137.177,230.455s3.222,40.168,8.022,73.661c2.385,16.639,21.556,56.2,21.556,56.2s1.187-.329,7.14-1.775c6.535-1.587,3.535-.9,3.535-.9s-1.333-6.312-6.843-32.077c-1.542-7.213-6.188-15.2-6.652-22.019-1.063-15.632-2.355-70.128-3.2-74.087S140.132,223.932,137.177,230.455Z" transform="translate(-97.466 -121.045)"/><g transform="translate(10.214 242.855)"><path class="j" d="M101.656,394.166l-.452,5.143,14.241,1.215,1-5.094Z" transform="translate(-101.205 -394.166)"/><path class="k" d="M101.656,394.166l-.452,5.143,14.241,1.215,1-5.094Z" transform="translate(-101.205 -394.166)"/></g><g transform="translate(67.503 232.933)"><path class="j" d="M171.069,386.9l1.657,4.889,13.379-4.631-1.064-5.09Z" transform="translate(-171.069 -382.066)"/><path class="k" d="M171.069,386.9l1.657,4.889,13.379-4.631-1.064-5.09Z" transform="translate(-171.069 -382.066)"/></g><path class="a" d="M157.819,207.3l5.782-49.539a11.7,11.7,0,0,0-11.4-13.112l-16.288-.305a11.7,11.7,0,0,0-11.919,11.372l-1.355,49.6S132.733,212.19,157.819,207.3Z" transform="translate(-94.848 -106.341)"/><path class="a" d="M162.481,213.993l1.046-56.237a11.7,11.7,0,0,0-11.4-13.112l-16.288-.305a11.7,11.7,0,0,0-11.919,11.372L122.227,212S137.4,218.889,162.481,213.993Z" transform="translate(-94.775 -106.341)"/><path class="z" d="M170.995,160.395a11.907,11.907,0,0,0,.081-1.4h-4.39l-2.971,2s3.4,11.878,6.942,17.542Z" transform="translate(-102.243 -108.979)"/><g transform="translate(44.236 52.085)"><path class="a" d="M145.152,162.282a.763.763,0,1,1-.763-.763A.764.764,0,0,1,145.152,162.282Z" transform="translate(-142.862 -161.519)"/><path class="a" d="M144.221,176.041a.763.763,0,1,1-.763-.763A.763.763,0,0,1,144.221,176.041Z" transform="translate(-142.695 -163.996)"/><g class="aa"><path class="x" d="M145.152,162.282a.763.763,0,1,1-.763-.763A.764.764,0,0,1,145.152,162.282Z" transform="translate(-142.862 -161.519)"/><path class="x" d="M144.221,176.041a.763.763,0,1,1-.763-.763A.763.763,0,0,1,144.221,176.041Z" transform="translate(-142.695 -163.996)"/></g></g><g transform="translate(33.951)"><g transform="translate(4.839 4.207)"><path class="j" d="M139.853,103.13s-5.478,1.862-3.279,6.5S139.853,103.13,139.853,103.13Z" transform="translate(-136.053 -103.13)"/><path class="n" d="M139.853,103.13s-5.478,1.862-3.279,6.5S139.853,103.13,139.853,103.13Z" transform="translate(-136.053 -103.13)"/></g><path class="y" d="M138.987,141.64c-.134,1.214-.011,2.74,1.313,3.233a22.417,22.417,0,0,0,6.5.746,19.683,19.683,0,0,0,4.989-3.062,2.834,2.834,0,0,0,.3-1c-3.107-2.865-2.364-9.28-1.583-13.656l-8.252,7.273C143.123,138.431,143.3,140.386,138.987,141.64Z" transform="translate(-131.735 -103.383)"/><path class="ab" d="M147.9,131.477l-4.849,4.343a13.6,13.6,0,0,1,.458,2.4c1.87-.3,4.773-1.931,5.14-3.966A5.871,5.871,0,0,0,147.9,131.477Z" transform="translate(-132.474 -104.026)"/><path class="y" d="M154.811,116.282c-1.81,7.077-2.429,10.1-6.748,13.076-6.5,4.484-14.793.7-15.135-6.763-.3-6.727,2.726-17.2,10.279-18.662a9.958,9.958,0,0,1,11.6,12.35Z" transform="translate(-130.648 -99.031)"/><g transform="translate(5.76 37.48)"><path class="a" d="M138.851,143.737a.528.528,0,0,1,.706.476c.03,1.262.654,3.7,5.015,3.7,4.575,0,6.293-2.677,6.831-3.872a.526.526,0,0,1,.758-.229l1.18.722s-.369,4.872-4.007,6.82c-3,1.606-5.48-2.448-5.48-2.448s-2.762,4.526-5.157,1.848-1.243-6.528-1.243-6.528Z" transform="translate(-137.177 -143.707)"/><path class="t" d="M138.851,143.737a.528.528,0,0,1,.706.476c.03,1.262.654,3.7,5.015,3.7,4.575,0,6.293-2.677,6.831-3.872a.526.526,0,0,1,.758-.229l1.18.722s-.369,4.872-4.007,6.82c-3,1.606-5.48-2.448-5.48-2.448s-2.762,4.526-5.157,1.848-1.243-6.528-1.243-6.528Z" transform="translate(-137.177 -143.707)"/></g><path class="j" d="M152.934,120.531s-1.883-2.245-.864-6.843-8.925-1.769-10.837-6.893c0,0,2.333,1.3,4.264.688,0,0-9.541-1.682-5.793-9.483,0,0,2.4,2.6,7.968,2.6s10.922,5.047,9.929,9.368C157.6,109.969,159.971,116.6,152.934,120.531Z" transform="translate(-131.714 -98)"/><path class="y" d="M159.513,125.395a5.257,5.257,0,0,1-3.172,2.428c-1.782.451-2.637-1.152-2.11-2.823.486-1.5,1.993-3.543,3.766-3.287a2.358,2.358,0,0,1,1.515,3.682Z" transform="translate(-134.459 -102.264)"/></g><path class="a" d="M169.8,198.836s-.841,2.256,4.7,5.315c0,0,14.177-8.394,13.532-22.17s-10.684-37-29.362-37.269c0,0-1.172,7.113,7.119,17.527,5.768,7.245,10.89,13.308,11.349,20.65S169.8,198.836,169.8,198.836Z" transform="translate(-101.325 -106.408)"/><g transform="translate(60.452 104.247)"><g transform="translate(0 0)"><rect class="a" width="18.956" height="32.266" rx="3.952"/></g><g transform="translate(0)"><path class="a" d="M168.952,228.372a3.241,3.241,0,0,0-6.481,0v25.785a3.241,3.241,0,0,0,6.481,0Z" transform="translate(-162.471 -225.131)"/><path class="z" d="M168.952,228.372a3.241,3.241,0,0,0-6.481,0v25.785a3.241,3.241,0,0,0,6.481,0Z" transform="translate(-162.471 -225.131)"/></g><g transform="translate(3.241)"><path class="a" d="M178.9,225.131H166.423a3.24,3.24,0,0,1,3.241,3.241v8.186a3.368,3.368,0,0,0,3.368,3.368h5.739a3.368,3.368,0,0,0,3.368-3.368v-8.186A3.24,3.24,0,0,0,178.9,225.131Z" transform="translate(-166.423 -225.131)"/><path class="ac" d="M178.9,225.131H166.423a3.24,3.24,0,0,1,3.241,3.241v8.186a3.368,3.368,0,0,0,3.368,3.368h5.739a3.368,3.368,0,0,0,3.368-3.368v-8.186A3.24,3.24,0,0,0,178.9,225.131Z" transform="translate(-166.423 -225.131)"/></g><g transform="translate(9.531 14.313)"><path class="j" d="M174.412,243.166c-.109,0-.212-.022-.318-.032v7.852c0,1.05.592,1.9,1.322,1.9s1.323-.851,1.323-1.9v-7.82Z" transform="translate(-174.094 -242.685)"/><path class="j" d="M181.276,243.067h-.933v7.82c0,1.05.592,1.9,1.322,1.9s1.323-.851,1.323-1.9v-8.3A3.343,3.343,0,0,1,181.276,243.067Z" transform="translate(-175.219 -242.586)"/></g><g transform="translate(9.479 8.876)"><path class="j" d="M176.25,235.956h-.9c-.731,0-1.322.852-1.322,1.9s.591,1.9,1.322,1.9h.9c.731,0,1.323-.852,1.323-1.9S176.98,235.956,176.25,235.956Z" transform="translate(-174.03 -235.956)"/><path class="a" d="M177.77,237.858c0,1.05-.592,1.9-1.323,1.9s-1.322-.852-1.322-1.9.592-1.9,1.322-1.9S177.77,236.808,177.77,237.858Z" transform="translate(-174.227 -235.956)"/></g><g transform="translate(15.079 8.876)"><path class="j" d="M183.081,235.956h-.9c-.73,0-1.322.852-1.322,1.9s.592,1.9,1.322,1.9h.9c.73,0,1.322-.852,1.322-1.9S183.81,235.956,183.081,235.956Z" transform="translate(-180.86 -235.956)"/><path class="a" d="M184.6,237.858c0,1.05-.592,1.9-1.322,1.9s-1.323-.852-1.323-1.9.592-1.9,1.323-1.9S184.6,236.808,184.6,237.858Z" transform="translate(-181.057 -235.956)"/></g></g><g transform="translate(60.257 37.931)"><path class="j" d="M166.925,217.971q-1.228-15.884-1.788-31.818c-.291-7.958-.482-15.932-.279-23.894.134-5.281-.1-11.521,1.987-16.49.632-1.5-1.82-2.159-2.445-.675-1.979,4.7-1.863,10.581-2.032,15.581-.276,8.185-.088,16.388.2,24.57q.578,16.375,1.821,32.726c.125,1.617,2.663,1.63,2.536,0Z" transform="translate(-162.232 -144.258)"/><g class="q"><path class="x" d="M166.925,217.971q-1.228-15.884-1.788-31.818c-.291-7.958-.482-15.932-.279-23.894.134-5.281-.1-11.521,1.987-16.49.632-1.5-1.82-2.159-2.445-.675-1.979,4.7-1.863,10.581-2.032,15.581-.276,8.185-.088,16.388.2,24.57q.578,16.375,1.821,32.726c.125,1.617,2.663,1.63,2.536,0Z" transform="translate(-162.232 -144.258)"/></g></g><g transform="translate(12.647 29.91)"><g transform="translate(13.253 25.835)"><g transform="translate(1.382 0.922)"><path class="j" d="M137.953,182.3l-.39-.021.426-8.008a6.8,6.8,0,1,0-13.578-.722l-.426,8.009-.39-.02a1.432,1.432,0,0,0-1.506,1.354l-.071,1.337,17.217.915.071-1.337A1.432,1.432,0,0,0,137.953,182.3Z" transform="translate(-122.019 -167.106)"/><path class="m" d="M137.953,182.3l-.39-.021.426-8.008a6.8,6.8,0,1,0-13.578-.722l-.426,8.009-.39-.02a1.432,1.432,0,0,0-1.506,1.354l-.071,1.337,17.217.915.071-1.337A1.432,1.432,0,0,0,137.953,182.3Z" transform="translate(-122.019 -167.106)"/></g><g transform="translate(0 0.849)"><path class="a" d="M136.268,182.206l-.39-.02.426-8.009a6.8,6.8,0,1,0-13.577-.722l-.426,8.008-.39-.021a1.432,1.432,0,0,0-1.506,1.354l-.071,1.337,17.217.915.071-1.337A1.432,1.432,0,0,0,136.268,182.206Z" transform="translate(-120.334 -167.017)"/><path class="s" d="M136.268,182.206l-.39-.02.426-8.009a6.8,6.8,0,1,0-13.577-.722l-.426,8.008-.39-.021a1.432,1.432,0,0,0-1.506,1.354l-.071,1.337,17.217.915.071-1.337A1.432,1.432,0,0,0,136.268,182.206Z" transform="translate(-120.334 -167.017)"/></g><circle class="a" cx="5.415" cy="5.415" r="5.415" transform="translate(1.534 7.24) rotate(-41.956)"/><circle class="ad" cx="5.415" cy="5.415" r="5.415" transform="translate(1.534 7.24) rotate(-41.956)"/><path class="a" d="M134.659,174.044l-2.765-.147q.1-1.844.2-3.686a.437.437,0,0,0-.872-.047l-.22,4.122a.444.444,0,0,0,.413.46l3.2.171A.438.438,0,0,0,134.659,174.044Z" transform="translate(-122.253 -166.663)"/></g><g transform="translate(27.123 21.698)"><g transform="translate(0.974 18.677)"><path class="j" d="M2.2,0h9.264a2.2,2.2,0,0,1,2.2,2.2v0A1.444,1.444,0,0,1,12.23,3.649H1.444A1.444,1.444,0,0,1,0,2.2v0A2.2,2.2,0,0,1,2.2,0Z"/><path class="t" d="M2.2,0h9.264a2.2,2.2,0,0,1,2.2,2.2v0A1.444,1.444,0,0,1,12.23,3.649H1.444A1.444,1.444,0,0,1,0,2.2v0A2.2,2.2,0,0,1,2.2,0Z"/></g><g transform="translate(10.03 4.584)"><ellipse class="j" cx="2.28" cy="1.694" rx="2.28" ry="1.694"/><ellipse class="l" cx="2.28" cy="1.694" rx="2.28" ry="1.694"/></g><g transform="translate(5.417 14.529)"><rect class="j" width="1.746" height="4.489"/><rect class="t" width="1.746" height="4.489"/></g><g transform="translate(8.348 14.529)"><rect class="j" width="1.746" height="4.489"/><rect class="t" width="1.746" height="4.489"/></g><g transform="translate(0 10.454)"><path class="j" d="M143.067,174.049a.522.522,0,0,0-.716-.317c-.859.4-2.526,1.1-3.231.959-.472-.093-.744-.775-1.711.446a.675.675,0,0,0-.16.394,1.139,1.139,0,0,0,1.139,1.165c.534,0,.753-.492,1.1-.865.49-.525,2.253-.927,3.181-1.108a.521.521,0,0,0,.4-.675Z" transform="translate(-137.249 -173.684)"/><path class="j" d="M154.856,175.137c-.968-1.22-1.241-.539-1.711-.445-.705.139-2.372-.564-3.232-.959a.522.522,0,0,0-.715.317h0a.522.522,0,0,0,.4.675c.928.181,2.691.583,3.182,1.108.349.373.568.865,1.1.865a1.139,1.139,0,0,0,1.139-1.165A.682.682,0,0,0,154.856,175.137Z" transform="translate(-139.395 -173.684)"/></g><g class="ae" transform="translate(0 10.454)"><path class="x" d="M143.067,174.049a.522.522,0,0,0-.716-.317c-.859.4-2.526,1.1-3.231.959-.472-.093-.744-.775-1.711.446a.675.675,0,0,0-.16.394,1.139,1.139,0,0,0,1.139,1.165c.534,0,.753-.492,1.1-.865.49-.525,2.253-.927,3.181-1.108a.521.521,0,0,0,.4-.675Z" transform="translate(-137.249 -173.684)"/><path class="x" d="M154.856,175.137c-.968-1.22-1.241-.539-1.711-.445-.705.139-2.372-.564-3.232-.959a.522.522,0,0,0-.715.317h0a.522.522,0,0,0,.4.675c.928.181,2.691.583,3.182,1.108.349.373.568.865,1.1.865a1.139,1.139,0,0,0,1.139-1.165A.682.682,0,0,0,154.856,175.137Z" transform="translate(-139.395 -173.684)"/></g><g transform="translate(4.139 9.703)"><path class="j" d="M149.214,175.34a3.473,3.473,0,1,1-6.918,0c0-2.091,1.549-2.571,3.459-2.571S149.214,173.249,149.214,175.34Z" transform="translate(-142.296 -172.769)"/><path class="af" d="M149.214,175.34a3.473,3.473,0,1,1-6.918,0c0-2.091,1.549-2.571,3.459-2.571S149.214,173.249,149.214,175.34Z" transform="translate(-142.296 -172.769)"/></g><g transform="translate(4.619 17.727)"><path class="j" d="M145.425,183.825c0,.7-2.543.7-2.543,0a1.271,1.271,0,0,1,2.543,0Z" transform="translate(-142.882 -182.554)"/><path class="af" d="M145.425,183.825c0,.7-2.543.7-2.543,0a1.271,1.271,0,0,1,2.543,0Z" transform="translate(-142.882 -182.554)"/></g><g transform="translate(8.348 17.727)"><path class="j" d="M149.972,183.825c0,.7-2.543.7-2.543,0a1.271,1.271,0,0,1,2.543,0Z" transform="translate(-147.429 -182.554)"/><path class="af" d="M149.972,183.825c0,.7-2.543.7-2.543,0a1.271,1.271,0,0,1,2.543,0Z" transform="translate(-147.429 -182.554)"/></g><g transform="translate(0.606 4.584)"><ellipse class="j" cx="2.28" cy="1.694" rx="2.28" ry="1.694"/><ellipse class="l" cx="2.28" cy="1.694" rx="2.28" ry="1.694"/></g><g transform="translate(1.822)"><path class="j" d="M151.022,166.054c0,3.949-2.586,5.119-5.776,5.119s-5.775-1.17-5.775-5.119,2.585-5.118,5.775-5.118S151.022,162.105,151.022,166.054Z" transform="translate(-139.471 -160.936)"/><path class="t" d="M151.022,166.054c0,3.949-2.586,5.119-5.776,5.119s-5.775-1.17-5.775-5.119,2.585-5.118,5.775-5.118S151.022,162.105,151.022,166.054Z" transform="translate(-139.471 -160.936)"/></g><g transform="translate(4.799 6.074)"><ellipse class="j" cx="0.474" cy="0.674" rx="0.474" ry="0.674"/><ellipse class="j" cx="0.474" cy="0.674" rx="0.474" ry="0.674" transform="translate(5.075)"/></g></g><g transform="translate(1.036 18.349)"><g transform="translate(5.817 5.011)"><path class="a" d="M116.156,175.349c-.339-4.145-1.288-8.615-3.6-12.12-.114-.172.14-.372.255-.2,2.339,3.55,3.32,8.079,3.662,12.275.017.206-.3.25-.32.043Z" transform="translate(-112.53 -162.964)"/><g class="ag"><path d="M116.156,175.349c-.339-4.145-1.288-8.615-3.6-12.12-.114-.172.14-.372.255-.2,2.339,3.55,3.32,8.079,3.662,12.275.017.206-.3.25-.32.043Z" transform="translate(-112.53 -162.964)"/></g></g><g transform="translate(9.86 3.99)"><path class="a" d="M117.535,174.2s-1.114-12.5,5.218-12.477c6.686.03-3.262,5.574-4.6,12.394Z" transform="translate(-117.46 -161.719)"/><path class="t" d="M117.535,174.2s-1.114-12.5,5.218-12.477c6.686.03-3.262,5.574-4.6,12.394Z" transform="translate(-117.46 -161.719)"/><path class="a" d="M118.562,169.845a.124.124,0,0,1,0-.124c.013-.024.037-.039.052-.062.118-.37.25-.735.39-1.1a2.173,2.173,0,0,1-.705-1.355c-.011-.2.3-.244.31-.042a1.8,1.8,0,0,0,.522,1.077q.314-.77.694-1.509a2.793,2.793,0,0,1-.79-1.756c-.006-.2.3-.243.31-.042a2.477,2.477,0,0,0,.633,1.495q.39-.727.842-1.413a4.353,4.353,0,0,1-.672-1.787.156.156,0,0,1,.31-.042,4.094,4.094,0,0,0,.551,1.526,17.425,17.425,0,0,1,2.2-2.626c.144-.14.335.107.193.247a16.523,16.523,0,0,0-1.264,1.4,9.51,9.51,0,0,1,2.161-.654c.2-.042.238.269.042.31a6.787,6.787,0,0,0-2.653.979c-.012.009-.025,0-.037.009-.165.222-.331.441-.485.672a.148.148,0,0,1-.089.145c-.066.1-.127.207-.192.31a4.205,4.205,0,0,1,2.007-.155.157.157,0,0,1-.043.31,3.568,3.568,0,0,0-2.244.3h0c-.146.249-.285.5-.419.758a.135.135,0,0,1-.057.116c-.074.142-.145.285-.214.429a2.55,2.55,0,0,1,1.45.013c.193.049.153.36-.042.31-.487-.126-1.254-.262-1.645.18-.006.007-.013,0-.019.009-.215.481-.406.973-.579,1.47a3.234,3.234,0,0,1,.942-.329c.2-.04.239.271.042.31a1.889,1.889,0,0,0-1.153.558,17.83,17.83,0,0,0-.824,4.447c-.009.2-.32.157-.31-.043A17.963,17.963,0,0,1,118.562,169.845Z" transform="translate(-117.516 -161.778)"/><path class="z" d="M118.562,169.845a.124.124,0,0,1,0-.124c.013-.024.037-.039.052-.062.118-.37.25-.735.39-1.1a2.173,2.173,0,0,1-.705-1.355c-.011-.2.3-.244.31-.042a1.8,1.8,0,0,0,.522,1.077q.314-.77.694-1.509a2.793,2.793,0,0,1-.79-1.756c-.006-.2.3-.243.31-.042a2.477,2.477,0,0,0,.633,1.495q.39-.727.842-1.413a4.353,4.353,0,0,1-.672-1.787.156.156,0,0,1,.31-.042,4.094,4.094,0,0,0,.551,1.526,17.425,17.425,0,0,1,2.2-2.626c.144-.14.335.107.193.247a16.523,16.523,0,0,0-1.264,1.4,9.51,9.51,0,0,1,2.161-.654c.2-.042.238.269.042.31a6.787,6.787,0,0,0-2.653.979c-.012.009-.025,0-.037.009-.165.222-.331.441-.485.672a.148.148,0,0,1-.089.145c-.066.1-.127.207-.192.31a4.205,4.205,0,0,1,2.007-.155.157.157,0,0,1-.043.31,3.568,3.568,0,0,0-2.244.3h0c-.146.249-.285.5-.419.758a.135.135,0,0,1-.057.116c-.074.142-.145.285-.214.429a2.55,2.55,0,0,1,1.45.013c.193.049.153.36-.042.31-.487-.126-1.254-.262-1.645.18-.006.007-.013,0-.019.009-.215.481-.406.973-.579,1.47a3.234,3.234,0,0,1,.942-.329c.2-.04.239.271.042.31a1.889,1.889,0,0,0-1.153.558,17.83,17.83,0,0,0-.824,4.447c-.009.2-.32.157-.31-.043A17.963,17.963,0,0,1,118.562,169.845Z" transform="translate(-117.516 -161.778)"/></g><g transform="translate(0 7.192)"><path class="a" d="M114.408,175.048s-1.934-10.762-7.246-9.286c-5.61,1.559,4.02,3.935,6.711,9.357Z" transform="translate(-105.436 -165.623)"/><path class="v" d="M114.408,175.048s-1.934-10.762-7.246-9.286c-5.61,1.559,4.02,3.935,6.711,9.357Z" transform="translate(-105.436 -165.623)"/><path class="a" d="M112.726,171.67a.107.107,0,0,0-.031-.1c-.016-.017-.039-.025-.057-.04-.184-.284-.379-.56-.58-.833a1.9,1.9,0,0,0,.281-1.3c-.036-.17-.307-.135-.27.037a1.566,1.566,0,0,1-.191,1.025q-.439-.576-.929-1.109a2.43,2.43,0,0,0,.262-1.656c-.04-.169-.311-.134-.27.036a2.152,2.152,0,0,1-.189,1.4c-.329-.347-.674-.677-1.031-.993a3.792,3.792,0,0,0,.154-1.656.136.136,0,0,0-.27.036,3.556,3.556,0,0,1-.113,1.408,15.106,15.106,0,0,0-2.448-1.7c-.153-.085-.257.167-.1.251a14.35,14.35,0,0,1,1.383.886,8.243,8.243,0,0,0-1.966-.054c-.175.011-.138.28.037.27a5.925,5.925,0,0,1,2.453.214c.012,0,.021,0,.033,0,.189.149.379.3.561.453a.13.13,0,0,0,.109.1c.08.071.154.144.232.216a3.657,3.657,0,0,0-1.721.33.136.136,0,0,0,.107.251,3.1,3.1,0,0,1,1.953-.262h0c.18.176.354.356.526.54a.118.118,0,0,0,.075.084q.141.154.278.311a2.223,2.223,0,0,0-1.215.344c-.15.086-.046.338.107.251.38-.218.993-.508,1.423-.226.007,0,.012,0,.018,0,.291.355.564.724.823,1.1a2.806,2.806,0,0,0-.867-.06c-.175.012-.138.282.036.27a1.646,1.646,0,0,1,1.1.2,15.526,15.526,0,0,1,1.713,3.547c.054.166.3.059.25-.107A15.586,15.586,0,0,0,112.726,171.67Z" transform="translate(-105.581 -165.728)"/><path class="z" d="M112.726,171.67a.107.107,0,0,0-.031-.1c-.016-.017-.039-.025-.057-.04-.184-.284-.379-.56-.58-.833a1.9,1.9,0,0,0,.281-1.3c-.036-.17-.307-.135-.27.037a1.566,1.566,0,0,1-.191,1.025q-.439-.576-.929-1.109a2.43,2.43,0,0,0,.262-1.656c-.04-.169-.311-.134-.27.036a2.152,2.152,0,0,1-.189,1.4c-.329-.347-.674-.677-1.031-.993a3.792,3.792,0,0,0,.154-1.656.136.136,0,0,0-.27.036,3.556,3.556,0,0,1-.113,1.408,15.106,15.106,0,0,0-2.448-1.7c-.153-.085-.257.167-.1.251a14.35,14.35,0,0,1,1.383.886,8.243,8.243,0,0,0-1.966-.054c-.175.011-.138.28.037.27a5.925,5.925,0,0,1,2.453.214c.012,0,.021,0,.033,0,.189.149.379.3.561.453a.13.13,0,0,0,.109.1c.08.071.154.144.232.216a3.657,3.657,0,0,0-1.721.33.136.136,0,0,0,.107.251,3.1,3.1,0,0,1,1.953-.262h0c.18.176.354.356.526.54a.118.118,0,0,0,.075.084q.141.154.278.311a2.223,2.223,0,0,0-1.215.344c-.15.086-.046.338.107.251.38-.218.993-.508,1.423-.226.007,0,.012,0,.018,0,.291.355.564.724.823,1.1a2.806,2.806,0,0,0-.867-.06c-.175.012-.138.282.036.27a1.646,1.646,0,0,1,1.1.2,15.526,15.526,0,0,1,1.713,3.547c.054.166.3.059.25-.107A15.586,15.586,0,0,0,112.726,171.67Z" transform="translate(-105.581 -165.728)"/></g><g transform="translate(4.125 15.535)"><path class="j" d="M114.344,187.9l5.849-.785a1.738,1.738,0,0,0,1.506-1.788l-.318-8.465a1.106,1.106,0,0,0-1.251-1.055l-8.7,1.168a1.1,1.1,0,0,0-.93,1.346l1.923,8.249A1.74,1.74,0,0,0,114.344,187.9Z" transform="translate(-110.466 -175.798)"/><path class="l" d="M114.344,187.9l5.849-.785a1.738,1.738,0,0,0,1.506-1.788l-.318-8.465a1.106,1.106,0,0,0-1.251-1.055l-8.7,1.168a1.1,1.1,0,0,0-.93,1.346l1.923,8.249A1.74,1.74,0,0,0,114.344,187.9Z" transform="translate(-110.466 -175.798)"/></g><g transform="translate(0.934)"><path class="a" d="M111.611,162.409c.412-.494,2.692-.694,1.55-2.375s-2.061-2.712-1.853-3.182a1.673,1.673,0,0,0-1,2.111s-1.1-.7-1.859-.362a3.637,3.637,0,0,0,.219,1.634s-1.422-.775-2.1.049a8.466,8.466,0,0,1,2.444,2.471C109.731,164.094,110.9,163.265,111.611,162.409Z" transform="translate(-106.575 -156.853)"/><path class="ac" d="M111.611,162.409c.412-.494,2.692-.694,1.55-2.375s-2.061-2.712-1.853-3.182a1.673,1.673,0,0,0-1,2.111s-1.1-.7-1.859-.362a3.637,3.637,0,0,0,.219,1.634s-1.422-.775-2.1.049a8.466,8.466,0,0,1,2.444,2.471C109.731,164.094,110.9,163.265,111.611,162.409Z" transform="translate(-106.575 -156.853)"/></g></g><g transform="translate(0 43.588)"><g transform="translate(5.581)"><rect class="a" width="29.214" height="29.214"/><rect class="t" width="29.214" height="29.214"/></g><g transform="translate(34.796)"><rect class="a" width="17.945" height="29.214"/><rect class="m" width="17.945" height="29.214"/></g><path class="a" d="M133.386,195.845H104.172l5.581-8.213h29.214Z" transform="translate(-104.172 -187.632)"/><path class="ad" d="M133.386,195.845H104.172l5.581-8.213h29.214Z" transform="translate(-104.172 -187.632)"/><g transform="translate(34.796)"><path class="a" d="M151.893,195.845h17.945l-5.287-8.213H146.606Z" transform="translate(-146.606 -187.632)"/><path class="af" d="M151.893,195.845h17.945l-5.287-8.213H146.606Z" transform="translate(-146.606 -187.632)"/></g></g><path class="y" d="M108.866,209.213l.524-.213a2.945,2.945,0,0,1,3.761,1.451l.121.252a2.945,2.945,0,0,1,.232,1.865l-.964,4.733a2.942,2.942,0,0,1-1.808,2.152h0a1.811,1.811,0,0,1-2.467-1.548l-.522-6.877A1.81,1.81,0,0,1,108.866,209.213Z" transform="translate(-104.814 -147.851)"/><path class="y" d="M170.918,211.12l-3,3-.894-.472a1.285,1.285,0,0,0-1.765.606,12.345,12.345,0,0,1-6.182,6.006,1.277,1.277,0,0,0,.011,2.322,7.882,7.882,0,0,0,2.173.6c2.757.344,4.134,1.721,6.2,0s3.327-5.506,3.327-5.506l3.715-2.709Z" transform="translate(-113.921 -148.272)"/><g transform="translate(54.906 60.606)"><path class="a" d="M171.131,210.533a9.959,9.959,0,0,0,5.763,5.77l2.332-1.265s-4.464-2.859-6.539-6.653Z" transform="translate(-171.131 -208.385)"/><path class="t" d="M171.131,210.533a9.959,9.959,0,0,0,5.763,5.77l2.332-1.265s-4.464-2.859-6.539-6.653Z" transform="translate(-171.131 -208.385)"/></g><g transform="translate(34.749 0)"><g transform="translate(8.556 0.234)"><path class="j" d="M163.7,136.344l-5.136,5.136-1.495-3.656a1.2,1.2,0,0,1,.262-1.3l1.417-1.417a1.2,1.2,0,0,1,1.3-.262Z" transform="translate(-156.984 -134.761)"/><path class="k" d="M163.7,136.344l-5.136,5.136-1.495-3.656a1.2,1.2,0,0,1,.262-1.3l1.417-1.417a1.2,1.2,0,0,1,1.3-.262Z" transform="translate(-156.984 -134.761)"/></g><g transform="translate(7.282 10.751)"><path class="j" d="M1.2,0h0A1.2,1.2,0,0,1,2.4,1.2V31.533a0,0,0,0,1,0,0H0a0,0,0,0,1,0,0V1.2A1.2,1.2,0,0,1,1.2,0Z"/><path class="t" d="M1.2,0h0A1.2,1.2,0,0,1,2.4,1.2V31.533a0,0,0,0,1,0,0H0a0,0,0,0,1,0,0V1.2A1.2,1.2,0,0,1,1.2,0Z"/></g><g transform="translate(0 41.091)"><path class="j" d="M146.549,187.087h16.962a2.5,2.5,0,0,0-2.5-2.5H149.05A2.5,2.5,0,0,0,146.549,187.087Z" transform="translate(-146.549 -184.587)"/><path class="k" d="M146.549,187.087h16.962a2.5,2.5,0,0,0-2.5-2.5H149.05A2.5,2.5,0,0,0,146.549,187.087Z" transform="translate(-146.549 -184.587)"/></g><g transform="translate(6.57 7.14)"><path class="j" d="M1.453,0H5.889a0,0,0,0,1,0,0V2.906a0,0,0,0,1,0,0H1.453A1.453,1.453,0,0,1,0,1.453v0A1.453,1.453,0,0,1,1.453,0Z" transform="translate(0 4.164) rotate(-45)"/><path class="k" d="M1.453,0H5.889a0,0,0,0,1,0,0V2.906a0,0,0,0,1,0,0H1.453A1.453,1.453,0,0,1,0,1.453v0A1.453,1.453,0,0,1,1.453,0Z" transform="translate(0 4.164) rotate(-45)"/></g><g transform="translate(8.037 10.576)"><path class="j" d="M157.668,148.031a.659.659,0,1,1-.659-.658A.659.659,0,0,1,157.668,148.031Z" transform="translate(-156.35 -147.373)"/><path class="ad" d="M157.668,148.031a.659.659,0,1,1-.659-.658A.659.659,0,0,1,157.668,148.031Z" transform="translate(-156.35 -147.373)"/></g><g transform="translate(8.323)"><path class="j" d="M1.306,0H6.724A1.306,1.306,0,0,1,8.03,1.306V9.775a0,0,0,0,1,0,0H0a0,0,0,0,1,0,0V1.306A1.306,1.306,0,0,1,1.306,0Z" transform="translate(0 5.678) rotate(-45)"/><path class="t" d="M1.306,0H6.724A1.306,1.306,0,0,1,8.03,1.306V9.775a0,0,0,0,1,0,0H0a0,0,0,0,1,0,0V1.306A1.306,1.306,0,0,1,1.306,0Z" transform="translate(0 5.678) rotate(-45)"/></g><g transform="translate(13.352 5.029)"><path class="a" d="M177.932,145.5l-10.211,10.211a1.632,1.632,0,0,1-2.727-.715l-2.13-7.627a.868.868,0,0,1,.222-.847l5.657-5.657a.868.868,0,0,1,.847-.222l7.627,2.13A1.633,1.633,0,0,1,177.932,145.5Z" transform="translate(-162.832 -140.609)"/><path class="t" d="M177.932,145.5l-10.211,10.211a1.632,1.632,0,0,1-2.727-.715l-2.13-7.627a.868.868,0,0,1,.222-.847l5.657-5.657a.868.868,0,0,1,.847-.222l7.627,2.13A1.633,1.633,0,0,1,177.932,145.5Z" transform="translate(-162.832 -140.609)"/><path class="a" d="M169.6,146.656a.507.507,0,0,0-.718.717l2.69,2.69a.507.507,0,0,0,.717-.717Z" transform="translate(-163.894 -141.671)"/><path class="a" d="M166.732,149.519a.422.422,0,0,0-.66-.057.617.617,0,0,0-.057.774c.1.14,2.162,2.977,2.263,3.116a.422.422,0,0,0,.661.057.618.618,0,0,0,.057-.774Z" transform="translate(-163.385 -142.179)"/><path class="a" d="M171.743,144.509a.422.422,0,0,1-.057-.66.616.616,0,0,1,.774-.057l3.116,2.263a.422.422,0,0,1,.057.661.618.618,0,0,1-.774.057Z" transform="translate(-164.402 -141.162)"/></g></g></g></g><g transform="translate(-6.388 236.515)"><g transform="translate(0 0)"><g transform="translate(0 28.872)"><path class="ah" d="M403.54,397.543a4.4,4.4,0,0,0-2.281-2.913,5.334,5.334,0,0,0-3.874.227A13.92,13.92,0,0,1,393.591,396a3.089,3.089,0,0,1-3.214-1.812,3.459,3.459,0,0,1,1.243-3.322,7.843,7.843,0,0,1,12.849,3.085" transform="translate(-390.277 -388.681)"/></g><g transform="translate(4.155 0)"><g transform="translate(0 27.844)"><path class="ai" d="M381.837,401.291c1.942-1.844,1.845-5.056.876-7.552a11.445,11.445,0,0,0-5.444-5.678,17.24,17.24,0,0,0-15.025-.487,7.132,7.132,0,0,1,5.766,3.386c1.064,1.767,1.3,3.912,2.18,5.778a9.1,9.1,0,0,0,11.647,4.553" transform="translate(-362.245 -386.084)"/></g><g transform="translate(10.188)"><path class="ai" d="M366.687,347.766c2.149-2.537,2.436-6.611,2.119-9.921s-1.084-6.643-.562-9.927c.309-1.946,1.064-3.8,1.319-5.758s-.106-4.163-1.62-5.424c-1.74-1.449-4.48-1.108-6.29.254a11.789,11.789,0,0,0-3.625,5.63,24,24,0,0,0-.919,14.652c1.383,4.779,4.629,9.052,9.39,10.495" transform="translate(-356.349 -315.797)"/></g><g transform="translate(7.798 29.522)"><path class="j" d="M374.935,413.588a1.812,1.812,0,0,0,.008-.292c0-.192,0-.475-.016-.839-.027-.728-.1-1.781-.261-3.073a40.973,40.973,0,0,0-.826-4.5,20.763,20.763,0,0,0-2.054-5.211,21.747,21.747,0,0,0-3.356-4.486,21.369,21.369,0,0,0-3.519-2.926c-.537-.372-1.057-.653-1.5-.914-.459-.24-.859-.438-1.187-.6l-.773-.325a1.735,1.735,0,0,0-.274-.1,1.833,1.833,0,0,0,.26.135l.758.355c.322.167.716.373,1.168.621.441.268.953.556,1.482.932a22.106,22.106,0,0,1,6.79,7.395,26.939,26.939,0,0,1,2.91,9.641c.179,1.287.268,2.335.316,3.061q.031.525.049.835A1.735,1.735,0,0,0,374.935,413.588Z" transform="translate(-361.175 -390.321)"/></g><g transform="translate(23.629 19.198)"><g transform="translate(6.171 2.761)"><path class="ah" d="M315.519,371.227c3.978,2.4,3.965,4.584,3.3,6.646a4.167,4.167,0,0,1-5.129,2.722,6.281,6.281,0,0,1-2.681-2.43,11.247,11.247,0,0,0-2.365-2.786,3.031,3.031,0,0,0-3.427-.281" transform="translate(-305.219 -371.227)"/></g><g transform="translate(0)"><path class="ai" d="M326.321,369.65c-1.04-1.437-3.609-1.853-5.231-1.136a10.465,10.465,0,0,0-3.874,3.558,15.844,15.844,0,0,1-3.572,3.906,4.605,4.605,0,0,1-5,.351,4.3,4.3,0,0,1-1.7-2.941,9.789,9.789,0,0,1,.233-3.468,7.472,7.472,0,0,1,2.259-4.47c1.488-1.181,3.552-1.237,5.451-1.175a20.422,20.422,0,0,1,6.434.99,8.933,8.933,0,0,1,5,4.386" transform="translate(-306.872 -364.258)"/></g><g transform="translate(1.223 0.441)"><path class="j" d="M326.993,395.336a.316.316,0,0,0,.011-.087c0-.068.008-.153.013-.257.008-.24.02-.57.034-.987.025-.872.061-2.109.1-3.63s.111-3.357.221-5.381.263-4.247.57-6.562a21.153,21.153,0,0,1,.659-3.333,17.3,17.3,0,0,1,1.219-2.916,16.8,16.8,0,0,1,1.537-2.414,15.729,15.729,0,0,1,1.679-1.844,12.34,12.34,0,0,1,2.977-2.029c.194-.089.363-.176.516-.238l.389-.151.238-.1a.044.044,0,1,0-.006-.017l-.244.08-.4.135c-.156.057-.328.14-.526.224a11.928,11.928,0,0,0-3.033,2,15.518,15.518,0,0,0-1.711,1.846,16.715,16.715,0,0,0-1.566,2.427,17.246,17.246,0,0,0-1.24,2.941,21.052,21.052,0,0,0-.669,3.361c-.308,2.325-.453,4.552-.558,6.578s-.151,3.852-.183,5.386-.044,2.775-.048,3.633c0,.418,0,.748,0,.988,0,.1,0,.189,0,.257A.351.351,0,0,0,326.993,395.336Z" transform="translate(-326.982 -365.37)"/></g></g><g transform="translate(17.638 7.514)"><g transform="translate(0)"><path class="j" d="M360.5,378.652a11.452,11.452,0,0,0,.435-1.708,17.936,17.936,0,0,0,.182-4.8,31.9,31.9,0,0,0-1.516-6.962c-.816-2.559-1.924-5.3-2.871-8.237a37.9,37.9,0,0,1-1.142-4.358,38.823,38.823,0,0,1-.564-4.158,60.843,60.843,0,0,1-.127-7.111c.069-2.025.176-3.663.244-4.8l.077-1.3c.006-.141.012-.254.016-.34a.552.552,0,0,0,0-.116.563.563,0,0,0-.017.114l-.033.338c-.026.309-.063.745-.111,1.3-.088,1.131-.215,2.768-.3,4.8a58.729,58.729,0,0,0,.089,7.129,38.484,38.484,0,0,0,.557,4.178A37.525,37.525,0,0,0,356.559,357c.95,2.951,2.062,5.684,2.885,8.233a32.4,32.4,0,0,1,1.546,6.923,18.516,18.516,0,0,1-.125,4.775c-.1.557-.187.988-.265,1.276l-.08.33A.55.55,0,0,0,360.5,378.652Z" transform="translate(-354.703 -334.765)"/></g></g><g transform="translate(13.572 49.604)"><path class="aj" d="M333.136,444.608h18.675l.426-3.595h-19.1Z" transform="translate(-333.136 -441.013)"/></g><g transform="translate(15.576 52.789)"><path class="aj" d="M353.938,449.054,351.6,459.838H341.455l-2.185-10.783Z" transform="translate(-339.271 -449.054)"/></g><g transform="translate(13.572 53.08)"><path class="aj" d="M335.058,449.907c0,.05,4.106.078,9.17.063s9.17-.065,9.17-.115-4.105-.078-9.171-.063S335.058,449.858,335.058,449.907Z" transform="translate(-335.058 -449.789)"/></g><g transform="translate(16.777 57.008)"><path class="j" d="M342,461.218a7.7,7.7,0,0,1,1.645-.942,5.821,5.821,0,0,1,2-.4,7.034,7.034,0,0,1,2.459.451c.851.288,1.646.623,2.42.807a5.764,5.764,0,0,0,2.092.063,4.309,4.309,0,0,0,1.345-.426,2.654,2.654,0,0,0,.324-.206c.07-.053.1-.083.1-.088s-.16.092-.456.232a4.713,4.713,0,0,1-1.331.363,5.872,5.872,0,0,1-2.038-.1c-.748-.187-1.542-.526-2.4-.816a6.981,6.981,0,0,0-2.52-.447,5.725,5.725,0,0,0-2.043.449,5.31,5.31,0,0,0-1.217.71,3.129,3.129,0,0,0-.29.25C342.025,461.179,341.994,461.213,342,461.218Z" transform="translate(-341.997 -459.705)"/></g><g transform="translate(16.919 57.746)"><g transform="translate(0)"><path class="x" d="M342.718,463.062a8.153,8.153,0,0,1,1.58-.93,5.363,5.363,0,0,1,1.928-.4,6.944,6.944,0,0,1,2.378.428c.823.275,1.595.594,2.332.793a5.985,5.985,0,0,0,2.01.225,3.408,3.408,0,0,0,1.318-.352,2.4,2.4,0,0,0,.314-.2c.068-.051.1-.08.1-.086s-.155.09-.442.222a3.635,3.635,0,0,1-1.3.29,6.135,6.135,0,0,1-1.959-.258c-.722-.2-1.488-.525-2.32-.8a6.9,6.9,0,0,0-2.439-.423,5.283,5.283,0,0,0-1.974.446,5.223,5.223,0,0,0-1.166.705,3.388,3.388,0,0,0-.278.244C342.743,463.025,342.714,463.057,342.718,463.062Z" transform="translate(-342.717 -461.567)"/></g></g><g transform="translate(16.592 56.141)"><g transform="translate(0)"><path class="x" d="M341.49,459.182a8.851,8.851,0,0,1,1.689-1,6.215,6.215,0,0,1,2.05-.493,6.625,6.625,0,0,1,2.537.447,22.92,22.92,0,0,0,2.506.818,6.387,6.387,0,0,0,2.16,0,4.856,4.856,0,0,0,1.388-.439,2.575,2.575,0,0,0,.337-.209c.072-.054.109-.085.105-.089s-.164.1-.472.236a5.348,5.348,0,0,1-1.377.377,6.515,6.515,0,0,1-2.11-.04,25.384,25.384,0,0,1-2.48-.826,6.617,6.617,0,0,0-2.6-.443,6.289,6.289,0,0,0-3.337,1.291,3.42,3.42,0,0,0-.3.258C341.518,459.142,341.486,459.177,341.49,459.182Z" transform="translate(-341.489 -457.517)"/></g></g></g><g transform="translate(17.562 53.125)"><path class="j" d="M334.4,449.991c0,.049,4.2.089,9.382.089s9.383-.04,9.383-.089-4.2-.089-9.383-.089S334.4,449.942,334.4,449.991Z" transform="translate(-334.402 -449.902)"/></g></g></g></g></g></svg>