<svg xmlns="http://www.w3.org/2000/svg" width="19.656" height="19.657" viewBox="0 0 19.656 19.657"><defs><style>.a{fill:#fff;}</style></defs><g transform="translate(0 -23.098)"><path class="a" d="M15.029,31.454s0-.008,0-.012a.552.552,0,0,0-.011-.061h0A.546.546,0,0,0,15,31.325l-.006-.015q-.008-.02-.017-.039l-.008-.017,0-.009c-.007-.012-.014-.023-.021-.034l0-.006a.475.475,0,0,0-.036-.046l-.007-.008a.471.471,0,0,0-.034-.034l-.009-.008a.449.449,0,0,0-.049-.036L8.252,26.868l3.772-2.683,6.324,4.06-2.663,1.894a.542.542,0,0,0-.139.693.416.416,0,0,0,.613.157l3.292-2.341a.522.522,0,0,0,.208-.436.515.515,0,0,0-.225-.425l-7.2-4.623a.4.4,0,0,0-.457.012L7.152,26.463l0,0L4.84,28.108l0,0L.21,31.4A.521.521,0,0,0,0,31.836a.515.515,0,0,0,.225.425l7.2,4.623a.4.4,0,0,0,.457-.012l3.292-2.341a.542.542,0,0,0,.139-.693.416.416,0,0,0-.613-.157L7.637,35.863,1.313,31.8,5.085,29.12l6.745,4.33v5.735a.516.516,0,0,0,.23.44.4.4,0,0,0,.452-.015l2.313-1.645a.52.52,0,0,0,.208-.425V31.513s0-.006,0-.009S15.031,31.471,15.029,31.454Zm-2.31,6.821V33.158a.517.517,0,0,0-.225-.437L5.939,28.513,7.4,27.475l6.324,4.06-.554.394a.542.542,0,0,0-.139.693.435.435,0,0,0,.377.235.406.406,0,0,0,.236-.077l.5-.356v4.84Z" transform="translate(-0.002 0)"/><path class="a" d="M351.475,155.213l-3.292,2.182a.483.483,0,0,0-.139.646.439.439,0,0,0,.377.219.426.426,0,0,0,.236-.072l3.292-2.182a.483.483,0,0,0,.139-.646A.432.432,0,0,0,351.475,155.213Z" transform="translate(-332.5 -125.41)"/><path class="a" d="M10.7,229.058l-3.067,2.033L.664,226.92a.433.433,0,0,0-.606.176.482.482,0,0,0,.167.638l7.2,4.31a.426.426,0,0,0,.457-.011l3.292-2.183a.483.483,0,0,0,.139-.646A.432.432,0,0,0,10.7,229.058Z" transform="translate(0 -193.413)"/><path class="a" d="M351.475,195.213l-3.292,2.182a.483.483,0,0,0-.139.646.439.439,0,0,0,.377.219.427.427,0,0,0,.236-.072l3.292-2.182a.483.483,0,0,0,.139-.646A.432.432,0,0,0,351.475,195.213Z" transform="translate(-332.5 -163.4)"/><path class="a" d="M10.7,269.058l-3.067,2.033L.664,266.92a.433.433,0,0,0-.606.176.482.482,0,0,0,.167.638l7.2,4.31a.425.425,0,0,0,.457-.011l3.292-2.183a.483.483,0,0,0,.139-.646A.432.432,0,0,0,10.7,269.058Z" transform="translate(0 -231.223)"/><path class="a" d="M351.475,235.214l-3.292,2.182a.483.483,0,0,0-.139.646.439.439,0,0,0,.377.219.426.426,0,0,0,.236-.072l3.292-2.182a.483.483,0,0,0,.139-.646A.432.432,0,0,0,351.475,235.214Z" transform="translate(-332.5 -201.392)"/><path class="a" d="M10.7,309.058l-3.067,2.033L.664,306.92a.433.433,0,0,0-.606.176.482.482,0,0,0,.167.638l7.2,4.31a.425.425,0,0,0,.457-.011l3.292-2.182a.483.483,0,0,0,.139-.646A.432.432,0,0,0,10.7,309.058Z" transform="translate(0 -269.351)"/></g></svg>