<svg xmlns="http://www.w3.org/2000/svg" width="19" height="19" viewBox="0 0 19 19"><defs><style>.a{fill:#f95454;}.b{fill:#054a73;}</style></defs><circle class="a" cx="2.5" cy="2.5" r="2.5" transform="translate(7 7)"/><path class="b" d="M16.218,2.782A9.5,9.5,0,0,0,2.782,16.218,9.5,9.5,0,0,0,16.218,2.782ZM9.5,1.113a8.351,8.351,0,0,1,5.521,2.079L12.43,5.783a4.726,4.726,0,0,0-5.86,0L3.979,3.192A8.351,8.351,0,0,1,9.5,1.113ZM13.122,9.5A3.622,3.622,0,1,1,9.5,5.878,3.626,3.626,0,0,1,13.122,9.5ZM1.113,9.5A8.351,8.351,0,0,1,3.192,3.979L5.783,6.57a4.726,4.726,0,0,0,0,5.86L3.192,15.021A8.352,8.352,0,0,1,1.113,9.5ZM9.5,17.887a8.352,8.352,0,0,1-5.521-2.079L6.57,13.217a4.726,4.726,0,0,0,5.86,0l2.591,2.591A8.351,8.351,0,0,1,9.5,17.887Zm6.308-2.866L13.217,12.43a4.726,4.726,0,0,0,0-5.86l2.591-2.591a8.37,8.37,0,0,1,0,11.041Z"/></svg>