<svg xmlns="http://www.w3.org/2000/svg" width="11.412" height="10.868" viewBox="0 0 11.412 10.868"><defs><style>.a{fill:#fff;}</style></defs><g transform="translate(-0.5 -2)"><path class="a" d="M35.662,29H31.315a.816.816,0,0,0-.815.815v4.347a.816.816,0,0,0,.815.815h4.347a.816.816,0,0,0,.815-.815V29.815A.816.816,0,0,0,35.662,29Zm-.895,2.456-1.449,1.449a.272.272,0,0,1-.384,0l-.725-.725a.272.272,0,1,1,.384-.384l.532.533,1.257-1.257a.272.272,0,0,1,.384.384Z" transform="translate(-24.566 -22.109)"/><path class="a" d="M10.032,47.543H6.772a.272.272,0,0,1,0-.543h3.26a.272.272,0,0,1,0,.543Z" transform="translate(-4.913 -36.849)"/><path class="a" d="M10.032,29H6.772a.272.272,0,0,0,0,.543h3.26a.272.272,0,1,0,0-.543Z" transform="translate(-4.913 -22.109)"/><path class="a" d="M10.032,38H6.772a.272.272,0,1,0,0,.543h3.26a.272.272,0,1,0,0-.543Z" transform="translate(-4.913 -29.479)"/><path class="a" d="M11.662,20H6.772a.272.272,0,0,0,0,.543h4.891a.272.272,0,1,0,0-.543Z" transform="translate(-4.913 -14.74)"/><path class="a" d="M6.772,11.543h2.9a.272.272,0,0,0,0-.543h-2.9a.272.272,0,0,0,0,.543Z" transform="translate(-4.913 -7.37)"/><path class="a" d="M8.209,4.253,6.036,2.079A.275.275,0,0,0,5.844,2H1.315A.816.816,0,0,0,.5,2.815V11.51a.816.816,0,0,0,.815.815H5.391v-.543H1.315a.272.272,0,0,1-.272-.272V2.815a.272.272,0,0,1,.272-.272H5.572v1.9a.272.272,0,0,0,.272.272h1.9v1.63h.543v-1.9A.276.276,0,0,0,8.209,4.253ZM6.115,4.174V2.928L7.361,4.174Z" transform="translate(0 0)"/></g></svg>