<svg xmlns="http://www.w3.org/2000/svg" width="22" height="22" viewBox="0 0 22 22"><defs><style>.a,.d{fill:none;}.a{stroke:#054a73;}.b{fill:#054a73;}.c{stroke:none;}</style></defs><g transform="translate(0 -0.128)"><g class="a" transform="translate(0 0.128)"><rect class="c" width="22" height="22" rx="4"/><rect class="d" x="0.5" y="0.5" width="21" height="21" rx="3.5"/></g><g transform="translate(3.319 6.085)"><g transform="translate(0 0)"><g transform="translate(0)"><path class="b" d="M15.018,97.358c-.135-.185-3.352-4.523-7.461-4.523S.231,97.173.1,97.357a.5.5,0,0,0,0,.588c.135.185,3.352,4.523,7.461,4.523s7.326-4.338,7.461-4.522A.5.5,0,0,0,15.018,97.358Zm-7.461,4.114c-3.027,0-5.648-2.879-6.424-3.82.775-.942,3.391-3.82,6.424-3.82s5.648,2.879,6.424,3.82C13.206,98.594,10.59,101.472,7.557,101.472Z" transform="translate(0 -92.835)"/></g></g><g transform="translate(4.567 1.827)"><path class="b" d="M157.712,154.725a2.99,2.99,0,1,0,2.99,2.99A2.993,2.993,0,0,0,157.712,154.725Zm0,4.983a1.993,1.993,0,1,1,1.993-1.993A2,2,0,0,1,157.712,159.708Z" transform="translate(-154.722 -154.725)"/></g></g></g></svg>