<svg xmlns="http://www.w3.org/2000/svg" width="17" height="17" viewBox="0 0 17 17"><defs><style>.a{fill:#1586c7;}</style></defs><path class="a" d="M8.5,0A8.5,8.5,0,1,0,17,8.5,8.51,8.51,0,0,0,8.5,0Zm0,15.938A7.438,7.438,0,1,1,15.938,8.5,7.446,7.446,0,0,1,8.5,15.938Z"/><path class="a" d="M258.342,413.348H259.4v1.063h-1.062Z" transform="translate(-250.373 -400.598)"/><path class="a" d="M175.415,103.337a3.191,3.191,0,0,0-3.187,3.188v1.063h1.063v-1.063a2.125,2.125,0,0,1,4.25,0,2.3,2.3,0,0,1-1.109,1.958l-1.29.774a.531.531,0,0,0-.258.455v2.125h1.063v-1.824l1.032-.619a3.365,3.365,0,0,0,1.624-2.869A3.191,3.191,0,0,0,175.415,103.337Z" transform="translate(-166.915 -100.149)"/></svg>