<svg xmlns="http://www.w3.org/2000/svg" width="12.168" height="14.982" viewBox="0 0 12.168 14.982"><defs><style>.a{fill:#1586c7;}</style></defs><g transform="translate(0 0)"><g transform="translate(3.663 5.428)"><path class="a" d="M222.749,154.7a.351.351,0,0,0-.351.351v6.631a.351.351,0,1,0,.7,0v-6.631A.351.351,0,0,0,222.749,154.7Zm0,0" transform="translate(-218.258 -154.703)"/><path class="a" d="M104.749,154.7a.351.351,0,0,0-.351.351v6.631a.351.351,0,0,0,.7,0v-6.631A.351.351,0,0,0,104.749,154.7Zm0,0" transform="translate(-104.398 -154.703)"/><path class="a" d="M163.749,154.7a.351.351,0,0,0-.351.351v6.631a.351.351,0,0,0,.7,0v-6.631A.351.351,0,0,0,163.749,154.7Zm0,0" transform="translate(-161.328 -154.703)"/></g><path class="a" d="M.993,4.459V13.1a1.936,1.936,0,0,0,.515,1.335,1.728,1.728,0,0,0,1.254.542H9.4a1.727,1.727,0,0,0,1.254-.542,1.936,1.936,0,0,0,.515-1.335V4.459a1.34,1.34,0,0,0-.344-2.636h-1.8V1.384A1.378,1.378,0,0,0,7.638,0H4.523A1.378,1.378,0,0,0,3.133,1.384v.439h-1.8A1.34,1.34,0,0,0,.993,4.459ZM9.4,14.278H2.761A1.111,1.111,0,0,1,1.695,13.1V4.49h8.771V13.1A1.111,1.111,0,0,1,9.4,14.278ZM3.835,1.384A.676.676,0,0,1,4.523.7H7.638a.676.676,0,0,1,.688.684v.439H3.835Zm-2.5,1.14h9.487a.632.632,0,1,1,0,1.263H1.337a.632.632,0,1,1,0-1.263Zm0,0" transform="translate(0.003 0.001)"/></g></svg>