<svg xmlns="http://www.w3.org/2000/svg" width="34.19" height="30.121" viewBox="0 0 34.19 30.121"><defs><style>.a{fill:#fff;}.b{fill:#88f1ec;}.c{fill:none;stroke:#000;stroke-linecap:round;stroke-width:1.2px;}</style></defs><g transform="translate(-559.41 -320)"><g transform="translate(559.946 320)"><path d="M29.52,6.543a6.519,6.519,0,0,0-11.127-4.6L1.5,18.826a.845.845,0,0,0-.239.484L.009,28.582a.842.842,0,0,0,.239.711.859.859,0,0,0,.6.252.684.684,0,0,0,.113-.006l9.225-1.249a.834.834,0,0,0,.1-.014.849.849,0,0,0,.626-.43l16.7-16.692A6.475,6.475,0,0,0,29.52,6.543ZM18.72,4.014l2.837,2.837L6.141,22.267,3.3,19.43ZM2.713,21.235,8.3,26.827,1.839,27.7Zm7.409,5.007L7.349,23.468,22.765,8.052l2.774,2.774ZM19.934,2.825a4.821,4.821,0,0,1,6.787,6.787Z" transform="translate(0 -0.028)"/><rect class="a" width="21.802" height="4.012" transform="translate(3.304 19.402) rotate(-45)"/><path class="b" d="M30.105,337.2l5.592,5.591-6.466.874Z" transform="translate(-27.392 -315.996)"/><rect class="a" width="21.802" height="3.923" transform="translate(7.348 23.44) rotate(-45)"/><path class="b" d="M316.931,28.1a4.821,4.821,0,0,1,6.787,6.787Z" transform="translate(-296.997 -25.306)"/></g><line class="c" x2="32.99" transform="translate(560.01 349.52)"/></g></svg>