<svg xmlns="http://www.w3.org/2000/svg" xmlns:xlink="http://www.w3.org/1999/xlink" width="70" height="70" viewBox="0 0 70 70"><defs><style>.a{fill:#fff;}.b{fill:#20b470;}.c{filter:url(#a);}</style><filter id="a" x="0" y="0" width="70" height="70" filterUnits="userSpaceOnUse"><feOffset dy="8" input="SourceAlpha"/><feGaussianBlur stdDeviation="5" result="b"/><feFlood flood-opacity="0.188"/><feComposite operator="in" in2="b"/><feComposite in="SourceGraphic"/></filter></defs><g transform="translate(-16 -86)"><g transform="translate(-62 1)"><g class="c" transform="matrix(1, 0, 0, 1, 78, 85)"><rect class="a" width="40" height="40" rx="12" transform="translate(15 7)"/></g></g><g transform="translate(-352.35 -288.706)"><path class="a" d="M411,408.956V391.832H396.57v17.124Zm-4.726-3.644-2.174,1.729a.325.325,0,0,1-.052.034l-.066.021a.632.632,0,0,1-.191.036.571.571,0,0,1-.227-.048l-.06-.035a.357.357,0,0,1-.066-.036l-2.134-1.707a.576.576,0,0,1-.09-.808.576.576,0,0,1,.386-.213.589.589,0,0,1,.423.123l1.189.951v-4.328a.575.575,0,1,1,1.15,0v4.329l1.349-1.078.015.036a.593.593,0,0,1,.252-.028.577.577,0,0,1,.3,1.022Zm-8.375-5.956a2.887,2.887,0,0,1,2.543-.923,4.3,4.3,0,0,1,7.978.1,2.49,2.49,0,0,1,1.822,2.443,2.54,2.54,0,0,1-2.172,2.281,2.974,2.974,0,0,1-.516.047h-1.876a.5.5,0,0,1-.094,0,.58.58,0,0,1-.522-.631.57.57,0,0,1,.63-.519h1.846a1.584,1.584,0,0,0,.29-.024,1.28,1.28,0,0,0-.014-2.552.6.6,0,0,1-.52-.464,2.857,2.857,0,0,0-2.937-2.177h-.061a2.816,2.816,0,0,0-2.781,2.293.577.577,0,0,1-.323.426.671.671,0,0,1-.548.019,1.578,1.578,0,0,0-.594-.116h-.065a1.5,1.5,0,0,0-1.245.653,1.172,1.172,0,0,0,0,1.3,1.473,1.473,0,0,0,1.289.65H401.9a.475.475,0,0,1,.092,0,.578.578,0,0,1-.051,1.153l-.056,0h-1.9a2.751,2.751,0,0,1-2.37-1.359A2.268,2.268,0,0,1,397.9,399.356Z"/><path class="a" d="M403.784,412.781a.7.7,0,1,0-.7-.7A.7.7,0,0,0,403.784,412.781Z"/><path class="a" d="M396.57,412.932a1.183,1.183,0,0,0,1.181,1.126h12.016A1.191,1.191,0,0,0,411,412.926v-2.819H396.57Zm7.214-2.7a1.851,1.851,0,1,1-1.85,1.851A1.853,1.853,0,0,1,403.784,410.231Z"/><path class="a" d="M409.818,388.856H397.8a1.192,1.192,0,0,0-1.226,1.131v.694H411v-.7A1.18,1.18,0,0,0,409.818,388.856Zm-5.876,1.5h-.424a.575.575,0,1,1,0-1.15h.424a.575.575,0,1,1,0,1.15Z"/><path class="b" d="M412.216,389.976a2.377,2.377,0,0,0-2.368-2.27H397.72a2.38,2.38,0,0,0-2.37,2.276v22.956a2.376,2.376,0,0,0,2.363,2.27h12.047c.029,0,.058,0,.088,0a2.379,2.379,0,0,0,2.368-2.276ZM411,412.926a1.191,1.191,0,0,1-1.231,1.131H397.751a1.183,1.183,0,0,1-1.181-1.126v-2.825H411Zm0-21.094v17.124H396.57V391.832Zm0-1.85v.7H396.57v-.694a1.192,1.192,0,0,1,1.226-1.131h12.023A1.18,1.18,0,0,1,411,389.982Z"/><path class="b" d="M403.784,413.933a1.851,1.851,0,1,0-1.85-1.851A1.853,1.853,0,0,0,403.784,413.933Zm-.7-1.851a.7.7,0,1,1,.7.7A.7.7,0,0,1,403.085,412.082Z"/><path class="b" d="M399.982,403.308h1.9l.056,0a.578.578,0,0,0,.051-1.153.475.475,0,0,0-.092,0h-1.869a1.473,1.473,0,0,1-1.289-.65,1.172,1.172,0,0,1,0-1.3,1.5,1.5,0,0,1,1.245-.653h.065a1.578,1.578,0,0,1,.594.116.671.671,0,0,0,.548-.019.577.577,0,0,0,.323-.426,2.816,2.816,0,0,1,2.781-2.293h.061a2.857,2.857,0,0,1,2.937,2.177.6.6,0,0,0,.52.464,1.28,1.28,0,0,1,.014,2.552,1.584,1.584,0,0,1-.29.024h-1.846a.57.57,0,0,0-.63.519.58.58,0,0,0,.522.631.5.5,0,0,0,.094,0h1.876a2.974,2.974,0,0,0,.516-.047,2.54,2.54,0,0,0,2.172-2.281,2.49,2.49,0,0,0-1.822-2.443,4.3,4.3,0,0,0-7.978-.1,2.887,2.887,0,0,0-2.543.923,2.268,2.268,0,0,0-.284,2.593A2.751,2.751,0,0,0,399.982,403.308Z"/><path class="b" d="M405.975,404.29a.593.593,0,0,0-.252.028l-.015-.036-1.349,1.078v-4.329a.575.575,0,1,0-1.15,0v4.328l-1.189-.951a.589.589,0,0,0-.423-.123.576.576,0,0,0-.386.213.576.576,0,0,0,.09.808l2.134,1.707a.357.357,0,0,0,.066.036l.06.035a.571.571,0,0,0,.227.048.632.632,0,0,0,.191-.036l.066-.021a.325.325,0,0,0,.052-.034l2.174-1.729a.577.577,0,0,0-.3-1.022Z"/><path class="b" d="M403.942,389.207h-.424a.575.575,0,1,0,0,1.15h.424a.575.575,0,1,0,0-1.15Z"/></g></g></svg>