<svg xmlns="http://www.w3.org/2000/svg" xmlns:xlink="http://www.w3.org/1999/xlink" width="58" height="58" viewBox="0 0 58 58"><defs><style>.a{fill:url(#a);}.b{fill:#fff;}.c{filter:url(#b);}</style><linearGradient id="a" x2="1" y2="1" gradientUnits="objectBoundingBox"><stop offset="0" stop-color="#ffbebe"/><stop offset="1" stop-color="#947bfe"/></linearGradient><filter id="b" x="0" y="0" width="58" height="58" filterUnits="userSpaceOnUse"><feOffset dy="3" input="SourceAlpha"/><feGaussianBlur stdDeviation="3" result="c"/><feFlood flood-color="#a284f5" flood-opacity="0.49"/><feComposite operator="in" in2="c"/><feComposite in="SourceGraphic"/></filter></defs><g transform="translate(-84 -86)"><g class="c" transform="matrix(1, 0, 0, 1, 84, 86)"><rect class="a" width="40" height="40" rx="12" transform="translate(9 6)"/></g><g transform="translate(67 -82.176)"><g transform="translate(34 185.176)"><g transform="translate(0 0)"><path class="b" d="M31.817,28.7l.171-.161h-.331Z" transform="translate(-11.173 -17.146)"/><path class="b" d="M29.142,26.562a.582.582,0,0,0-.413-.17H23.222a.591.591,0,0,0-.415.17l-1.181,1.181a.59.59,0,0,0-.168.413v7.867a.586.586,0,0,0,.584.584h7.867a.586.586,0,0,0,.586-.584V28.156a.593.593,0,0,0-.171-.415Zm-1.743,1h.705l-.949.948-.353-.353Zm-1.424,1.421.353.353-.355.356-.356-.356Zm-1.692,6.455H22.629V28.4l.2-.2,2.137,2.135ZM24.8,28.51l-.948-.948h.7l.6.594Zm.667,6.927.547-4.105.822,4.105Zm3.861,0h-1.3L27,30.315,29.123,28.2l.2.2Z" transform="translate(-13.984 -17.738)"/><path class="b" d="M28.474,19.608h-3.54a2.587,2.587,0,0,0-2.553,2.551v2.36a3.339,3.339,0,0,0,6.678,0V20.192A.585.585,0,0,0,28.474,19.608Zm-3.54,1.17h2.942a1.384,1.384,0,0,1-1.369,1.19H23.565A1.385,1.385,0,0,1,24.935,20.778Zm2.954,3.741a2.172,2.172,0,0,1-2.165,2.172h0a2.169,2.169,0,0,1-2.17-2.172V23.138h2.956a2.539,2.539,0,0,0,1.382-.409Z" transform="translate(-13.729 -19.608)"/><path class="b" d="M35.672,28.976l-1.18-1.18a.585.585,0,0,0-.407-.171H30.926a.588.588,0,0,0-.409.171l-.158.158h-.042l.022.02-1,1a.582.582,0,0,0-.17.413v6.293a.586.586,0,0,0,.584.584h5.507a.586.586,0,0,0,.584-.584v-6.29A.588.588,0,0,0,35.672,28.976Zm-3.749,6.129H30.339V29.632l.594-.6.9.9.088-.088Zm.58-6.152-.161-.161h.332Zm2.174,6.152H33.093V29.878l.064.068.941-.887.578.578Z" transform="translate(-11.859 -17.398)"/><path class="b" d="M31.951,22.383a2.168,2.168,0,0,0-2.158,2.151V26.5a2.549,2.549,0,1,0,5.1.009V24.54a2.165,2.165,0,0,0-2.16-2.158Zm-.228,1.2a1,1,0,0,1-.736.744A1,1,0,0,1,31.723,23.58Zm1.968.748a.994.994,0,0,1-.751-.751A.992.992,0,0,1,33.691,24.327Zm-.274.787a1.762,1.762,0,0,1,.293.283v1.213a1.377,1.377,0,0,1-2.75-.1V25.4a1.719,1.719,0,0,1,.351-.3,1.811,1.811,0,0,0,.508-.25,1.662,1.662,0,0,1,.262-.089,1.726,1.726,0,0,1,.714.046A1.789,1.789,0,0,0,33.417,25.114Z" transform="translate(-11.687 -18.843)"/><path class="b" d="M20.925,27.8a.583.583,0,0,0-.413-.171H17.364a.583.583,0,0,0-.413.171l-.157.157H16.75l.022.022-1,1a.586.586,0,0,0-.173.415v6.293a.586.586,0,0,0,.586.584h5.507a.586.586,0,0,0,.586-.584V29.39a.588.588,0,0,0-.171-.413Zm-2.573,7.3H16.77V29.629l.6-.6.9.9.084-.085Zm.583-6.147-.161-.161h.333ZM21.11,35.1H19.523V29.872l.066.07.943-.887.578.578Z" transform="translate(-15.599 -17.398)"/><path class="b" d="M18.77,29.059a2.557,2.557,0,0,0,2.549-2.547V24.54a2.164,2.164,0,0,0-2.158-2.158h-.773a2.172,2.172,0,0,0-2.16,2.149L16.221,26.5a2.55,2.55,0,0,0,2.549,2.556Zm.39-5.507a.992.992,0,0,1,.792.4h-.4a.994.994,0,0,1-.793-.4Zm-1.767,1.559a1.347,1.347,0,0,0,.765-.385q.029-.029.057-.061a2.133,2.133,0,0,0,1.333.464h.594v1.385a1.381,1.381,0,0,1-1.32,1.374h-.052a1.378,1.378,0,0,1-1.378-1.376Z" transform="translate(-15.428 -18.843)"/></g></g></g></g></svg>