<svg xmlns="http://www.w3.org/2000/svg" xmlns:xlink="http://www.w3.org/1999/xlink" width="58" height="58" viewBox="0 0 58 58"><defs><style>.a{fill:url(#a);}.b{fill:none;}.c{fill:#fff;}.d{filter:url(#b);}</style><linearGradient id="a" x2="1" y2="1" gradientUnits="objectBoundingBox"><stop offset="0" stop-color="#ff5b67"/><stop offset="1" stop-color="#9a0015"/></linearGradient><filter id="b" x="0" y="0" width="58" height="58" filterUnits="userSpaceOnUse"><feOffset dy="3" input="SourceAlpha"/><feGaussianBlur stdDeviation="3" result="c"/><feFlood flood-color="#f95454" flood-opacity="0.29"/><feComposite operator="in" in2="c"/><feComposite in="SourceGraphic"/></filter></defs><g transform="translate(-84 -86)"><g class="d" transform="matrix(1, 0, 0, 1, 84, 86)"><rect class="a" width="40" height="40" rx="12" transform="translate(9 6)"/></g><g transform="translate(302.522 -243.251)"><path class="b" d="M-180.24,348.822h-5.375v-5.375h-12.639a.418.418,0,0,0-.058.265v16.02h18.071Zm-3.57,5.445a1.316,1.316,0,0,1-1.1.581h-.008a3.132,3.132,0,0,1-1.942-1.009,21.5,21.5,0,0,0-3.79,1.215,12.819,12.819,0,0,1-1.058,1.873c-.491.69-.926,1.01-1.371,1.01a.872.872,0,0,1-.523-.176,1.213,1.213,0,0,1-.56-1.138c.091-.794.98-1.569,2.719-2.372a30.042,30.042,0,0,0,1.655-4.692c-.63-1.394-.814-2.421-.543-3.051a.994.994,0,0,1,.59-.626,2.4,2.4,0,0,1,.5-.087c.285,0,.494.272.648.471l.044.056c.166.21.47.594-.127,3.124a14.146,14.146,0,0,0,2.178,3.245,8.8,8.8,0,0,1,1.447-.147h0c.761,0,1.232.19,1.438.582A1.062,1.062,0,0,1-183.81,354.267Z"/><path class="b" d="M-185.392,353.616c.147.121.206.158.313.158a.534.534,0,0,0,.429-.149l0,0a2.3,2.3,0,0,0-.345-.02C-185.125,353.6-185.259,353.607-185.392,353.616Z"/><path class="b" d="M-189.4,347.023a.921.921,0,0,0,0,.864A1.224,1.224,0,0,0-189.4,347.023Z"/><path class="b" d="M-190.049,353.676a22.663,22.663,0,0,1,2.373-.732,15.593,15.593,0,0,1-1.4-2.016C-189.359,351.857-189.685,352.778-190.049,353.676Z"/><path class="b" d="M-193.113,356.737c0,.02.009.057.064.112a3.178,3.178,0,0,0,.74-.926C-192.9,356.323-193.1,356.613-193.113,356.737Z"/><path class="b" d="M-184.418,344.363v3.267h3.268Z"/><path class="b" d="M-193.144,364.25a.494.494,0,0,0,.189-.116.6.6,0,0,0,.14-.23l.012-.038a1.237,1.237,0,0,0,.048-.373,1.034,1.034,0,0,0-.027-.225.57.57,0,0,0-.1-.22.613.613,0,0,0-.213-.175.824.824,0,0,0-.382-.074h-.407v1.489h.523A.626.626,0,0,0-193.144,364.25Z"/><path class="b" d="M-198.311,367.3a.055.055,0,0,0,.03.045.151.151,0,0,0,.026.005l17.962.008c.045-.017.058-.037.058-.059v-6.37h-18.076Zm11.846-5.36h3.123v.858h-2.077v1.124h1.89v.8h-1.888v2.035h-1.048Zm-4.712,0h1.51a2.622,2.622,0,0,1,1.055.191,2.226,2.226,0,0,1,.77.516h0a2.118,2.118,0,0,1,.459.732,2.412,2.412,0,0,1,.15.84,3.482,3.482,0,0,1-.125.993,2.532,2.532,0,0,1-.32.7,1.688,1.688,0,0,1-.454.461,2.138,2.138,0,0,1-.477.247,1.942,1.942,0,0,1-.424.108,2.37,2.37,0,0,1-.28.024h-1.864Zm-3.743,0h1.45a1.95,1.95,0,0,1,.617.1,1.656,1.656,0,0,1,.554.3h0a1.572,1.572,0,0,1,.4.494,1.387,1.387,0,0,1,.155.656,1.735,1.735,0,0,1-.128.676,1.464,1.464,0,0,1-.362.523,1.608,1.608,0,0,1-.553.326,1.844,1.844,0,0,1-.7.108h-.394v1.631h-1.036Z"/><path class="b" d="M-188.617,365.515h0a2.261,2.261,0,0,0,.31-1.3,2.2,2.2,0,0,0-.063-.531,1.042,1.042,0,0,0-.227-.437,1.215,1.215,0,0,0-.465-.321,2.1,2.1,0,0,0-.8-.128h-.284v3.12h.579A1.064,1.064,0,0,0-188.617,365.515Z"/><path class="c" d="M-179.04,348.685a1.187,1.187,0,0,0-.283-.92l-5.223-5.223a.992.992,0,0,0-.7-.291h-13.018a1.3,1.3,0,0,0-.909.426,1.3,1.3,0,0,0-.343.944.706.706,0,0,0,.009.092l0,23.81a1.185,1.185,0,0,0,.953.985.355.355,0,0,0,.054.014,1.193,1.193,0,0,0,.241.029h17.969a.985.985,0,0,0,.212-.022.213.213,0,0,0,.1-.022,1.181,1.181,0,0,0,.946-1Zm-5.378-4.322,3.268,3.267h-3.268Zm-13.893-.65a.418.418,0,0,1,.058-.265h12.639v5.375h5.375v10.911h-18.071Zm18.076,23.587c0,.022-.013.042-.058.059l-17.962-.008a.151.151,0,0,1-.026-.005.055.055,0,0,1-.03-.045V360.93h18.076Z"/><path class="c" d="M-193.884,365.127h.394a1.844,1.844,0,0,0,.7-.108,1.608,1.608,0,0,0,.553-.326,1.464,1.464,0,0,0,.362-.523,1.735,1.735,0,0,0,.128-.676,1.387,1.387,0,0,0-.155-.656,1.572,1.572,0,0,0-.4-.494h0a1.656,1.656,0,0,0-.554-.3,1.95,1.95,0,0,0-.617-.1h-1.45v4.817h1.036Zm0-2.328h.407a.824.824,0,0,1,.382.074.613.613,0,0,1,.213.175.57.57,0,0,1,.1.22,1.034,1.034,0,0,1,.027.225,1.237,1.237,0,0,1-.048.373l-.012.038a.6.6,0,0,1-.14.23.494.494,0,0,1-.189.116.626.626,0,0,1-.216.038h-.523Z"/><path class="c" d="M-189.313,366.758a2.37,2.37,0,0,0,.28-.024,1.942,1.942,0,0,0,.424-.108,2.138,2.138,0,0,0,.477-.247,1.688,1.688,0,0,0,.454-.461,2.532,2.532,0,0,0,.32-.7,3.482,3.482,0,0,0,.125-.993,2.412,2.412,0,0,0-.15-.84,2.118,2.118,0,0,0-.459-.732h0a2.226,2.226,0,0,0-.77-.516,2.622,2.622,0,0,0-1.055-.191h-1.51v4.817h1.864Zm-.831-3.959h.284a2.1,2.1,0,0,1,.8.128,1.215,1.215,0,0,1,.465.321,1.042,1.042,0,0,1,.227.437,2.2,2.2,0,0,1,.063.531,2.261,2.261,0,0,1-.31,1.3h0a1.064,1.064,0,0,1-.948.4h-.579Z"/><path class="c" d="M-185.417,364.723h1.888v-.8h-1.89V362.8h2.077v-.858h-3.123v4.817h1.048Z"/><path class="c" d="M-185.049,352.544h0a8.8,8.8,0,0,0-1.447.147,14.146,14.146,0,0,1-2.178-3.245c.6-2.53.293-2.914.127-3.124l-.044-.056c-.154-.2-.363-.471-.648-.471a2.4,2.4,0,0,0-.5.087.994.994,0,0,0-.59.626c-.271.63-.087,1.657.543,3.051a30.042,30.042,0,0,1-1.655,4.692c-1.739.8-2.628,1.578-2.719,2.372a1.213,1.213,0,0,0,.56,1.138.872.872,0,0,0,.523.176c.445,0,.88-.32,1.371-1.01a12.819,12.819,0,0,0,1.058-1.873,21.5,21.5,0,0,1,3.79-1.215,3.132,3.132,0,0,0,1.942,1.009h.008a1.316,1.316,0,0,0,1.1-.581,1.062,1.062,0,0,0,.2-1.141C-183.817,352.734-184.288,352.544-185.049,352.544Zm-8,4.3c-.055-.055-.067-.092-.064-.112.014-.124.208-.414.8-.814A3.178,3.178,0,0,1-193.049,356.849Zm3.653-9.826a1.224,1.224,0,0,1,0,.864A.921.921,0,0,1-189.4,347.023Zm-.653,6.653c.364-.9.69-1.819.972-2.748a15.593,15.593,0,0,0,1.4,2.016A22.663,22.663,0,0,0-190.049,353.676Zm5.4-.051a.534.534,0,0,1-.429.149c-.107,0-.166-.037-.313-.158.133-.009.267-.013.4-.013a2.3,2.3,0,0,1,.345.02Z"/></g></g></svg>