<svg xmlns="http://www.w3.org/2000/svg" xmlns:xlink="http://www.w3.org/1999/xlink" width="58" height="58" viewBox="0 0 58 58"><defs><style>.a{fill:url(#a);}.b{fill:#fff;}.c{filter:url(#b);}</style><linearGradient id="a" x1="1" y1="1" x2="0" gradientUnits="objectBoundingBox"><stop offset="0" stop-color="#f6a122"/><stop offset="1" stop-color="#ffe95e"/></linearGradient><filter id="b" x="0" y="0" width="58" height="58" filterUnits="userSpaceOnUse"><feOffset dy="3" input="SourceAlpha"/><feGaussianBlur stdDeviation="3" result="c"/><feFlood flood-color="#f9de73" flood-opacity="0.651"/><feComposite operator="in" in2="c"/><feComposite in="SourceGraphic"/></filter></defs><g transform="translate(-84 -86)"><g class="c" transform="matrix(1, 0, 0, 1, 84, 86)"><rect class="a" width="40" height="40" rx="12" transform="translate(9 6)"/></g><g transform="translate(103.583 100.703)"><path class="b" d="M97.278,85.132,95.632,81.8l-1.646,3.336-3.681.535,2.663,2.6-.629,3.666L95.632,90.2l3.292,1.731L98.3,88.263l2.664-2.6Zm-.1,4.4-1.55-.815-1.55.815.3-1.726-1.254-1.223,1.733-.252.775-1.571.775,1.571,1.733.252-1.254,1.223Zm0,0" transform="translate(-86.363 -78.226)"/><path class="b" d="M15.823,2.711a9.277,9.277,0,0,0-13.108,0,9.251,9.251,0,0,0,0,13.094l6.554,6.546,6.554-6.546a9.251,9.251,0,0,0,0-13.094ZM14.9,14.878,9.269,20.5l-5.627-5.62A7.952,7.952,0,0,1,14.9,3.64a7.939,7.939,0,0,1,0,11.238Zm0,0" transform="translate(0)"/></g></g></svg>