<svg xmlns="http://www.w3.org/2000/svg" width="36.299" height="36.208" viewBox="0 0 36.299 36.208"><defs><style>.a{fill:#3eaae3;}.b{fill:#ffd800;}.c{fill:#828889;}.d{fill:#9adbf7;}.e{fill:#262625;}</style></defs><g transform="translate(-336.741 -331.669)"><g transform="translate(337.36 338.295)"><path class="a" d="M379.819,350.9" transform="translate(-344.947 -341.682)"/><path class="a" d="M371.906,348.059a22.014,22.014,0,0,0-16.914-8.333c-6.954,0-13.2,3.5-17.5,9.052,4.3,5.552,10.546,9.052,17.5,9.052a22.149,22.149,0,0,0,17.372-8.895" transform="translate(-337.492 -339.714)"/><path class="b" d="M365.85,348.775A9.052,9.052,0,1,0,351.367,356v1.822h10.862V356A9.029,9.029,0,0,0,365.85,348.775Z" transform="translate(-339.298 -339.711)"/><path class="c" d="M351.15,364.63h12.07a1.383,1.383,0,0,1,1.207,1.509h0a1.383,1.383,0,0,1-1.207,1.508H351.15a1.383,1.383,0,0,1-1.206-1.508h0A1.383,1.383,0,0,1,351.15,364.63Z" transform="translate(-339.685 -344.1)"/><path class="c" d="M352.141,367.56H363v.6a5.431,5.431,0,0,1-10.862,0v-.6Z" transform="translate(-340.072 -344.616)"/><circle class="a" cx="4.224" cy="4.224" r="4.224" transform="translate(13.276 4.84)"/><circle class="d" cx="1.81" cy="1.81" r="1.81" transform="translate(18.103 4.84)"/><path class="c" d="M351.15,361.891h12.07a1.207,1.207,0,0,1,1.207,1.207h0a1.207,1.207,0,0,1-1.207,1.207H351.15a1.206,1.206,0,0,1-1.206-1.207h0A1.206,1.206,0,0,1,351.15,361.891Z" transform="translate(-339.685 -343.617)"/></g><g transform="translate(336.741 331.669)"><path class="e" d="M362.936,335.646a.616.616,0,0,0,.174.025.6.6,0,0,0,.578-.43l.7-2.335a.6.6,0,1,0-1.157-.346l-.7,2.335a.6.6,0,0,0,.4.751Z" transform="translate(-341.279 -331.75)"/><path class="e" d="M367.789,336.868a.6.6,0,0,0,.818-.241l1.168-2.152a.6.6,0,1,0-1.061-.577l-1.168,2.151a.6.6,0,0,0,.243.819Z" transform="translate(-342.153 -332.006)"/><path class="e" d="M373.212,339.3a.6.6,0,0,0,.461-.214l1.587-1.884a.6.6,0,1,0-.913-.789l-.01.012-1.587,1.884a.6.6,0,0,0,.461.992Z" transform="translate(-343.058 -332.467)"/><path class="e" d="M377.679,343.005a.607.607,0,0,0,.388-.141l1.871-1.569a.6.6,0,0,0-.776-.924l-1.87,1.569A.6.6,0,0,0,377.68,343Z" transform="translate(-343.845 -333.178)"/><path class="e" d="M343.2,339.084a.6.6,0,1,0,.933-.766l-.01-.012-1.586-1.884a.6.6,0,0,0-.923.778Z" transform="translate(-337.574 -332.469)"/><path class="e" d="M348.351,336.624a.6.6,0,1,0,1.061-.576l-1.168-2.152a.6.6,0,0,0-1.061.576h0Z" transform="translate(-338.567 -332.006)"/><path class="e" d="M338.776,342.916a.6.6,0,1,0,.767-.931l-.03-.024-1.785-1.378a.6.6,0,0,0-.768.931l.03.023Z" transform="translate(-336.741 -333.215)"/><path class="e" d="M353.372,335.241a.6.6,0,0,0,.578.43.624.624,0,0,0,.174-.025.6.6,0,0,0,.4-.751h0l-.7-2.335a.6.6,0,1,0-1.156.346Z" transform="translate(-339.542 -331.75)"/><path class="e" d="M358.6,335.29a.6.6,0,0,0,.6-.6v-2.414a.6.6,0,0,0-1.207,0v2.414A.6.6,0,0,0,358.6,335.29Z" transform="translate(-340.485 -331.669)"/><path class="e" d="M346.661,356.323a23.157,23.157,0,0,1-8.529-6.676,24.336,24.336,0,0,1,3.938-3.908.6.6,0,0,0-.746-.95,25.739,25.739,0,0,0-4.438,4.488.6.6,0,0,0,0,.738,24.459,24.459,0,0,0,9.283,7.409.6.6,0,1,0,.492-1.1Z" transform="translate(-336.744 -333.957)"/><path class="e" d="M374.159,349.018a.6.6,0,0,0,0-.738,22.854,22.854,0,0,0-17.978-9.286,21.65,21.65,0,0,0-11.658,3.463.6.6,0,1,0,.649,1.017h0a21.008,21.008,0,0,1,4.914-2.3,9.634,9.634,0,0,0,.06,15v.924a1.81,1.81,0,1,0,0,3.62h12.07a.6.6,0,0,1,0,1.207h-12.07a.6.6,0,0,0,0,1.207,6.035,6.035,0,1,0,12.07,0,3.052,3.052,0,0,0,0-6.034v-.924a9.571,9.571,0,0,0,3.621-7.524,9.747,9.747,0,0,0-.226-2.061.6.6,0,0,0-1.182.245l0,.012a8.4,8.4,0,0,1-3.181,8.552.6.6,0,0,0-.241.483V357.1H358.6v-4.273a4.808,4.808,0,0,0,2.106-5.862.6.6,0,0,0-1.081-.1,1.194,1.194,0,0,1-1.025.582,1.2,1.2,0,0,1-.625-2.233.6.6,0,0,0-.1-1.08,4.823,4.823,0,0,0-4.1,8.7V357.1h-2.414v-1.22a.6.6,0,0,0-.241-.483,8.443,8.443,0,1,1,12.553-10.668.6.6,0,1,0,1.069-.561h0a9.7,9.7,0,0,0-2.437-2.991,22.638,22.638,0,0,1,10.616,7.474,23.16,23.16,0,0,1-8.528,6.676.6.6,0,0,0,.491,1.1,24.455,24.455,0,0,0,9.283-7.409ZM356.181,367.96a4.834,4.834,0,0,1-4.828-4.828h9.656A4.834,4.834,0,0,1,356.181,367.96Zm6.638-9.052a.6.6,0,0,1-.6.6h-12.07a.6.6,0,0,1,0-1.207h12.07A.6.6,0,0,1,362.819,358.908Zm-8.188-6.991a3.621,3.621,0,0,1,1.551-6.888c.105,0,.211,0,.316.014a2.414,2.414,0,0,0,3.291,3.291c.01.1.015.21.015.316a3.639,3.639,0,0,1-2.07,3.267.6.6,0,0,0-.344.543V357.1h-2.414v-4.637a.6.6,0,0,0-.344-.545Z" transform="translate(-338.062 -332.959)"/><path class="e" d="M373.673,360.634a.6.6,0,1,0-.923.78l1.587,1.884a.6.6,0,1,0,.923-.779h0Z" transform="translate(-343.058 -336.733)"/><path class="e" d="M378.064,356.921a.6.6,0,1,0-.807.9.252.252,0,0,0,.032.027l1.87,1.569a.6.6,0,0,0,.776-.924Z" transform="translate(-343.841 -336.089)"/><path class="e" d="M343.2,360.633l-1.586,1.883a.6.6,0,1,0,.923.779l1.586-1.882a.6.6,0,0,0-.913-.79l-.01.012Z" transform="translate(-337.573 -336.732)"/><path class="e" d="M338.776,356.905l-1.785,1.378a.6.6,0,0,0,.708.978l.03-.024,1.785-1.378a.6.6,0,0,0-.708-.978Z" transform="translate(-336.741 -336.089)"/></g></g></svg>