<svg xmlns="http://www.w3.org/2000/svg" width="15.403" height="15.403" viewBox="0 0 15.403 15.403"><defs><style>.a{fill:#333;}</style></defs><g transform="translate(-6 -6)"><g transform="translate(13.06 13.06)"><path class="a" d="M21.172,25.344a4.172,4.172,0,1,1,4.172-4.172A4.177,4.177,0,0,1,21.172,25.344Zm0-7.381a3.209,3.209,0,1,0,3.209,3.209A3.213,3.213,0,0,0,21.172,17.963Z" transform="translate(-17 -17)"/></g><g transform="translate(16.75 16.75)"><path class="a" d="M22.75,22.75h.963V25H22.75Z" transform="translate(-22.75 -22.75)"/></g><g transform="translate(16.75 14.985)"><circle class="a" cx="0.481" cy="0.481" r="0.481"/></g><g transform="translate(6 7.925)"><path class="a" d="M11.9,20.553H7.765A1.767,1.767,0,0,1,6,18.788V10.765A1.767,1.767,0,0,1,7.765,9H8.972v.963H7.765a.8.8,0,0,0-.8.8v8.023a.8.8,0,0,0,.8.8H11.9Z" transform="translate(-6 -9)"/></g><g transform="translate(13.946 7.925)"><path class="a" d="M21.345,12.748h-.963V10.765a.8.8,0,0,0-.8-.8h-1.2V9h1.2a1.767,1.767,0,0,1,1.765,1.765Z" transform="translate(-18.38 -9)"/></g><g transform="translate(8.567 6)"><path class="a" d="M14.653,10.172h-3.53A1.124,1.124,0,0,1,10,9.049V7.765a.482.482,0,0,1,.481-.481h.709a1.765,1.765,0,0,1,3.4,0h.709a.482.482,0,0,1,.481.481V9.049A1.124,1.124,0,0,1,14.653,10.172Zm-3.69-1.925v.8a.161.161,0,0,0,.16.16h3.53a.161.161,0,0,0,.16-.16v-.8h-.642a.482.482,0,0,1-.481-.481.8.8,0,0,0-1.6,0,.482.482,0,0,1-.481.481Z" transform="translate(-10 -6)"/></g><g transform="translate(8.407 11.134)"><path class="a" d="M9.75,14h6.1v.963H9.75Z" transform="translate(-9.75 -14)"/></g><g transform="translate(8.407 13.06)"><path class="a" d="M9.75,17h4.6v.963H9.75Z" transform="translate(-9.75 -17)"/></g><g transform="translate(8.407 14.985)"><path class="a" d="M9.75,20h3.491v.963H9.75Z" transform="translate(-9.75 -20)"/></g></g></svg>