<svg id="Layer_1" data-name="Layer 1" xmlns="http://www.w3.org/2000/svg" viewBox="0 0 294.95 269.72"><defs><style>.cls-1{fill:#383838;}</style></defs><title>alerts</title><path class="cls-1" d="M147.48,103.1c-5.22,0-8.71,3.48-8.71,8.7v62.65c0,5.22,3.48,8.7,8.71,8.7s8.7-3.48,8.7-8.7V111.8C156.18,106.58,152.7,103.1,147.48,103.1Z" transform="translate(0 -12.62)"/><path class="cls-1" d="M152.7,212.73a8.42,8.42,0,0,0-12.19,0c-1.74,1.74-1.74,5.22-1.74,7,0,3.48,0,5.22,1.74,7s5.22,1.74,7,1.74,5.22,0,3.48-1.74c1.74-1.74,3.48-5.22,3.48-7C154.44,216.21,154.44,214.47,152.7,212.73Z" transform="translate(0 -12.62)"/><path class="cls-1" d="M288.42,214.47,185.76,35.24c-7-13.92-22.62-22.62-38.29-22.62s-29.58,8.7-38.28,22.62L6.52,214.47a42.47,42.47,0,0,0,0,45.24c7,13.92,22.63,22.62,38.29,22.62H250.14c17.4,0,31.32-8.7,38.28-22.62a42.43,42.43,0,0,0,0-45.24ZM274.5,252.75c-3.48,8.7-12.18,13.92-22.62,13.92H44.81c-8.7,0-17.4-5.22-22.62-13.92a26.7,26.7,0,0,1,0-27.84L124.85,45.68C128.33,37,137,31.76,147.47,31.76a27.77,27.77,0,0,1,24.37,13.92L274.5,224.91A26.66,26.66,0,0,1,274.5,252.75Z" transform="translate(0 -12.62)"/></svg>