<svg xmlns="http://www.w3.org/2000/svg" width="49.998" height="45.719" viewBox="0 0 49.998 45.719">
  <g id="Group_241" data-name="Group 241" transform="translate(0 0.003)">
    <path id="Path_411" data-name="Path 411" d="M25,15.335a1.394,1.394,0,0,0-1.477,1.474v10.62a1.476,1.476,0,0,0,2.951,0V16.809A1.392,1.392,0,0,0,25,15.335Z" fill="#f49025"/>
    <path id="Path_412" data-name="Path 412" d="M25.885,33.918a1.428,1.428,0,0,0-2.018-.049c-.017.016-.033.032-.049.049a1.782,1.782,0,0,0-.3,1.186c0,.59,0,.885.3,1.187A1.744,1.744,0,0,0,25,36.586c.3,0,.885,0,.59-.295a2.231,2.231,0,0,0,.59-1.187C26.179,34.508,26.179,34.213,25.885,33.918Z" fill="#f49025"/>
    <path id="Path_413" data-name="Path 413" d="M48.89,34.213,31.488,3.832A7.336,7.336,0,0,0,25,0a7.685,7.685,0,0,0-6.489,3.835L1.106,34.213a7.2,7.2,0,0,0,0,7.668A7.338,7.338,0,0,0,7.6,45.716H42.4a7,7,0,0,0,6.489-3.835,7.189,7.189,0,0,0,0-7.668ZM46.531,40.7A3.953,3.953,0,0,1,42.7,43.061H7.6A4.6,4.6,0,0,1,3.762,40.7a4.527,4.527,0,0,1,0-4.72L21.164,5.6A3.951,3.951,0,0,1,25,3.242,4.707,4.707,0,0,1,29.129,5.6l17.4,30.381A4.523,4.523,0,0,1,46.531,40.7Z" fill="#f49025"/>
  </g>
</svg>
