<svg xmlns="http://www.w3.org/2000/svg" width="30.397" height="32.697" viewBox="0 0 30.397 32.697"><defs><style>.a{fill:#fff;}.b{fill:#ffc03f;}.c{fill:#2c2f33;}</style></defs><g transform="translate(-12.188)"><path class="a" d="M141.245,21h19.1a.587.587,0,0,1,.586.586v2.107H140.659V21.586A.587.587,0,0,1,141.245,21Z" transform="translate(-119.743 -19.604)"/><path class="b" d="M7.268,0A7.268,7.268,0,1,1,0,7.268,7.268,7.268,0,0,1,7.268,0Z" transform="translate(12.188 10.836) rotate(-22.72)"/><path class="a" d="M140.656,107.729v-7.356a8.651,8.651,0,0,0,7.514-2.92h4.278a.7.7,0,0,0,0-1.4h-3.284a8.6,8.6,0,0,0,1.107-3.54h2.177a.7.7,0,1,0,0-1.4H150.28a8.6,8.6,0,0,0-1.056-3.54h3.224a.7.7,0,1,0,0-1.4h-4.188a8.65,8.65,0,0,0-7.6-3.026V82.5h20.273v21.038h-2.794a1.985,1.985,0,0,0-1.982,1.982v2.794H141.242A.587.587,0,0,1,140.656,107.729Z" transform="translate(-119.74 -77.015)"/><path class="a" d="M394.705,422.266V420.46a.587.587,0,0,1,.586-.586H397.1Z" transform="translate(-356.895 -391.953)"/><g transform="translate(13.237)"><path class="c" d="M52.537,0h-19.1a1.985,1.985,0,0,0-1.982,1.982V6.419a8.665,8.665,0,0,0,0,16.663v7.633A1.985,1.985,0,0,0,33.436,32.7H49.045a.7.7,0,0,0,.494-.2l4.776-4.776a.7.7,0,0,0,.2-.494V1.982A1.985,1.985,0,0,0,52.537,0Zm-19.1,1.4h19.1a.587.587,0,0,1,.586.586V4.09H32.85V1.982A.587.587,0,0,1,33.436,1.4ZM26.566,14.75a7.268,7.268,0,1,1,7.268,7.268A7.276,7.276,0,0,1,26.566,14.75ZM32.85,30.714V23.358a8.65,8.65,0,0,0,7.514-2.92h4.278a.7.7,0,0,0,0-1.4H41.358a8.6,8.6,0,0,0,1.107-3.54h2.177a.7.7,0,0,0,0-1.4H42.474a8.6,8.6,0,0,0-1.056-3.54h3.224a.7.7,0,0,0,0-1.4H40.454a8.65,8.65,0,0,0-7.6-3.026V5.486H53.123V26.524H50.329a1.985,1.985,0,0,0-1.982,1.982V31.3H33.436A.587.587,0,0,1,32.85,30.714Zm16.894-.4V28.507a.587.587,0,0,1,.586-.586h1.806Z" transform="translate(-25.17)"/><path class="c" d="M349.444,139.265h2.319a.7.7,0,1,0,0-1.4h-2.319a.7.7,0,0,0,0,1.4Z" transform="translate(-327.229 -128.701)"/><path class="c" d="M349.444,213.506h2.319a.7.7,0,1,0,0-1.4h-2.319a.7.7,0,0,0,0,1.4Z" transform="translate(-327.229 -198.005)"/><path class="c" d="M349.444,287.748h2.319a.7.7,0,1,0,0-1.4h-2.319a.7.7,0,0,0,0,1.4Z" transform="translate(-327.229 -267.31)"/><path class="c" d="M292.621,361.989a.7.7,0,0,0,0-1.4h-6.532a.7.7,0,0,0,0,1.4Z" transform="translate(-268.087 -336.614)"/></g><g transform="translate(16.206 10.043)"><path class="c" d="M356.888,320.965l-.852-.852a1.215,1.215,0,0,0-1.718,0l-4.468,4.468-1.235-1.235a1.215,1.215,0,0,0-1.718,0l-.852.852a1.215,1.215,0,0,0,0,1.718l2.945,2.945a1.2,1.2,0,0,0,.859.356h0a1.2,1.2,0,0,0,.859-.356l6.179-6.179a1.128,1.128,0,0,0,.241-1.628A.209.209,0,0,0,356.888,320.965Zm-7.037,6.78-2.688-2.688.595-.595,1.6,1.6a.7.7,0,0,0,.987,0h0l4.833-4.833.594.595Z" transform="translate(-345.691 -319.758)"/><path class="a" d="M350.211,328.1l-2.688-2.688.595-.595,1.6,1.6a.7.7,0,0,0,.987,0h0l4.833-4.833.595.595Z" transform="translate(-346.051 -320.118)"/></g></g></svg>