<svg xmlns="http://www.w3.org/2000/svg" xmlns:xlink="http://www.w3.org/1999/xlink" width="32" height="32" viewBox="0 0 32 32"><defs><style>.a{fill:#fff8d2;}.b{fill:url(#a);}.c{fill:url(#d);}.d{filter:url(#e);}.e{filter:url(#b);}</style><linearGradient id="a" x1="0.084" y1="0.183" x2="0.881" y2="0.864" gradientUnits="objectBoundingBox"><stop offset="0" stop-color="#ffdb1b"/><stop offset="1" stop-color="#ffae24"/></linearGradient><filter id="b" x="3.5" y="7.5" width="25.897" height="19.86" filterUnits="userSpaceOnUse"><feOffset dy="1" input="SourceAlpha"/><feGaussianBlur stdDeviation="0.5" result="c"/><feFlood flood-color="#ffdd47"/><feComposite operator="in" in2="c"/><feComposite in="SourceGraphic"/></filter><linearGradient id="d" x1="0.5" y1="1" x2="0.5" gradientUnits="objectBoundingBox"><stop offset="0" stop-color="#ffefbb"/><stop offset="1" stop-color="#fff"/></linearGradient><filter id="e" x="9.007" y="10.156" width="15.304" height="14.532" filterUnits="userSpaceOnUse"><feOffset dy="1" input="SourceAlpha"/><feGaussianBlur stdDeviation="0.5" result="f"/><feFlood flood-opacity="0.102"/><feComposite operator="in" in2="f"/><feComposite in="SourceGraphic"/></filter></defs><rect class="a" width="32" height="32" rx="6"/><g transform="translate(5 8)"><g class="e" transform="matrix(1, 0, 0, 1, -5, -8)"><path class="b" d="M8.425,0h6.048a8.43,8.43,0,0,1,0,16.86H8.425A8.43,8.43,0,0,1,8.425,0Z" transform="translate(5 8)"/></g><g class="d" transform="matrix(1, 0, 0, 1, -5, -8)"><path class="c" d="M109.553,117.092l1.033,3.087,2.067-2.058ZM116.219,114H106.086A1.085,1.085,0,0,0,105,115.081v7.207a1.085,1.085,0,0,0,1.086,1.081h10.133a1.085,1.085,0,0,0,1.086-1.081v-7.207A1.085,1.085,0,0,0,116.219,114Zm-2.639,7.1a.363.363,0,0,1-.512,0l-1.192-1.187-1.192,1.187a.362.362,0,0,1-.6-.141l-1.448-4.324a.361.361,0,0,1,.458-.456l4.343,1.441a.36.36,0,0,1,.141.6l-1.192,1.187,1.192,1.187A.359.359,0,0,1,113.579,121.1Zm-.256,3.709a.362.362,0,0,1-.362-.36v-.36h-3.619v.36a.362.362,0,0,1-.362.36.36.36,0,1,0,0,.721h4.343a.36.36,0,1,0,0-.721Z" transform="translate(-94.49 -103.34)"/></g></g></svg>