<svg xmlns="http://www.w3.org/2000/svg" xmlns:xlink="http://www.w3.org/1999/xlink" width="58" height="58" viewBox="0 0 58 58"><defs><style>.a{fill:url(#a);}.b{fill:#fff;stroke:#fff;stroke-width:0.1px;}.c{filter:url(#b);}</style><linearGradient id="a" x1="0.092" y1="0.058" x2="0.842" y2="0.925" gradientUnits="objectBoundingBox"><stop offset="0" stop-color="#f7a7d7"/><stop offset="1" stop-color="#e4658a"/></linearGradient><filter id="b" x="0" y="0" width="58" height="58" filterUnits="userSpaceOnUse"><feOffset dy="3" input="SourceAlpha"/><feGaussianBlur stdDeviation="3" result="c"/><feFlood flood-color="#e4668c" flood-opacity="0.522"/><feComposite operator="in" in2="c"/><feComposite in="SourceGraphic"/></filter></defs><g transform="translate(-84 -86)"><g class="c" transform="matrix(1, 0, 0, 1, 84, 86)"><rect class="a" width="40" height="40" rx="12" transform="translate(9 6)"/></g><g transform="translate(101.4 73.729)"><g transform="translate(0 27.937)"><g transform="translate(0 0)"><path class="b" d="M21.8,27.937H1.4a1.4,1.4,0,0,0-1.4,1.4V43.422a1.4,1.4,0,0,0,1.4,1.4h6.99v1.019A1.7,1.7,0,0,1,6.7,47.536H5.156a.535.535,0,0,0,0,1.07H18.044a.535.535,0,1,0,0-1.07H16.5a1.7,1.7,0,0,1-1.694-1.694V44.822H21.8a1.4,1.4,0,0,0,1.4-1.4V29.338A1.4,1.4,0,0,0,21.8,27.937ZM8.878,47.536a2.749,2.749,0,0,0,.583-1.694V44.822h4.28v1.019a2.749,2.749,0,0,0,.583,1.694ZM22.13,43.422a.331.331,0,0,1-.331.331H1.4a.331.331,0,0,1-.331-.331V40.611H22.13Zm0-3.881H1.07v-10.2a.331.331,0,0,1,.331-.331H21.8a.331.331,0,0,1,.331.331v10.2Z" transform="translate(0 -27.937)"/></g></g><g transform="translate(11.023 41.605)"><circle class="b" cx="0.577" cy="0.577" r="0.577"/></g><g transform="translate(7.824 31.465)"><g transform="translate(0 0)"><path class="b" d="M177.367,105.954a.535.535,0,0,0-.756,0l-3.78,3.78a.535.535,0,0,0,.756.756l3.78-3.78A.535.535,0,0,0,177.367,105.954Z" transform="translate(-172.674 -105.797)"/></g></g><g transform="translate(12.339 33.655)"><path class="b" d="M274.718,154.293a.535.535,0,0,0-.756,0l-1.506,1.506a.535.535,0,1,0,.756.756l1.506-1.506A.535.535,0,0,0,274.718,154.293Z" transform="translate(-272.299 -154.136)"/></g></g></g></svg>