<svg xmlns="http://www.w3.org/2000/svg" width="22.939" height="22.94" viewBox="0 0 22.939 22.94"><defs><style>.a{fill:#fff;}.b{fill:#ffc03f;}</style></defs><path class="a" d="M10,454h7.348v2.151H10Z" transform="translate(-9.552 -433.659)"/><path class="a" d="M174,406h7.348v4.3H174Z" transform="translate(-166.204 -387.81)"/><path class="a" d="M338,358h7.348v6.452H338Z" transform="translate(-322.856 -341.96)"/><path class="b" d="M316,10h4.66v4.525H316Z" transform="translate(-301.842 -9.552)"/><path class="b" d="M260.66,60.5H256l.9,2.263-.9,2.263h4.66V60.5Z" transform="translate(-244.53 -57.789)"/><path class="a" d="M15.863,131.572h.061a1.424,1.424,0,0,0,1.424-1.424v-3.255a2.151,2.151,0,0,0-2.151-2.151H12.151A2.151,2.151,0,0,0,10,126.894v3.255a1.424,1.424,0,0,0,1.424,1.424Z" transform="translate(-9.552 -119.154)"/><path class="a" d="M50.067,245v8.423a.941.941,0,0,0,.941.941h0a.941.941,0,0,0,.941-.941.941.941,0,0,0,1.881,0V245Z" transform="translate(-47.824 -234.023)"/><path class="a" d="M59.738,52.155a1.513,1.513,0,0,1-1.513-1.513v-.378a1.513,1.513,0,0,1,3.026,0v.378A1.513,1.513,0,0,1,59.738,52.155Z" transform="translate(-55.616 -46.566)"/><path class="b" d="M92.075,245h4.794v3.629H92.075Z" transform="translate(-87.95 -234.023)"/><path d="M22.491,15.592H19.266V.448A.448.448,0,0,0,18.818,0h-4.66a.448.448,0,0,0-.448.448V2.263H11.47a.448.448,0,0,0-.417.613l.831,2.1-.831,2.1a.448.448,0,0,0,.417.613h4.66a.448.448,0,0,0,.448-.448V5.421h1.792v10.17H15.144a.448.448,0,0,0-.448.448v1.7h-1.2a.448.448,0,0,0,0,.9h1.2v3.405H8.244V18.638H9.459a.448.448,0,1,0,0-.9H7.8a.448.448,0,0,0-.448.448v1.7H6.364a1.382,1.382,0,0,0,.091-.493V15.054H8.919a.448.448,0,0,0,.448-.448V10.977a.448.448,0,0,0-.448-.448H8.244V7.74a2.6,2.6,0,0,0-2.478-2.6,1.949,1.949,0,0,0,.318-1.068V3.7a1.961,1.961,0,0,0-3.923,0v.378a1.949,1.949,0,0,0,.318,1.068A2.6,2.6,0,0,0,0,7.74v3.255a1.874,1.874,0,0,0,1.8,1.87V19.4a1.382,1.382,0,0,0,.091.493H.448A.448.448,0,0,0,0,20.341v2.151a.448.448,0,0,0,.448.448H22.491a.448.448,0,0,0,.448-.448V16.04A.448.448,0,0,0,22.491,15.592Zm-6.81-8.8H12.129l.653-1.65a.448.448,0,0,0,0-.33l-.653-1.65H13.71V4.973a.448.448,0,0,0,.448.448h1.523ZM14.606,4.525V.9H18.37V4.525ZM5.559,19.4a.493.493,0,1,1-.985,0V15.054h.985Zm2.913-5.242h-3.9V11.425h3.9ZM3.057,3.7a1.065,1.065,0,1,1,2.13,0v.378a1.065,1.065,0,1,1-2.13,0ZM.9,10.994V7.74a1.7,1.7,0,0,1,1.7-1.7H5.645a1.7,1.7,0,0,1,1.7,1.7v2.789H6.455V8.109a.448.448,0,0,0-.9,0v2.419H2.691V8.109a.448.448,0,1,0-.9,0v3.857A.977.977,0,0,1,.9,10.994Zm1.8,8.406V11.425h.986V19.4a.493.493,0,0,1-.986,0ZM.9,20.789H7.348v1.255H.9Zm21.147,1.255H15.592V16.488h6.452Z" transform="translate(0)"/><path d="M246.765,396.765a.448.448,0,1,0-.317.131A.451.451,0,0,0,246.765,396.765Z" transform="translate(-234.978 -378.258)"/></svg>