<svg xmlns="http://www.w3.org/2000/svg" width="11.003" height="14" viewBox="0 0 11.003 14"><defs><style>.a{fill:#333;}</style></defs><g transform="translate(-31.827)"><path class="a" d="M42.829,3.677c0-.006,0-.013,0-.019V3.652c0-.007,0-.015-.005-.022v0c0-.007,0-.014-.008-.021v0L42.8,3.585l0,0-.01-.017,0,0-.011-.014,0-.006-.014-.016,0,0L39.31.076h0L39.291.059l0,0L39.271.044l0,0L39.249.031h0l-.02-.01h0L39.2.011h0L39.178.005h0l-.022,0H32.085a.258.258,0,0,0-.258.258V13.742a.258.258,0,0,0,.258.258H42.572a.258.258,0,0,0,.258-.258V3.7h0C42.83,3.694,42.83,3.685,42.829,3.677Zm-.881-.232H39.386V.882Zm.365,10.039h-9.97V.517h6.525V3.7a.258.258,0,0,0,.258.258h3.186Z"/><path class="a" d="M90.292,33.32a1.074,1.074,0,1,0-1.074-1.074A1.075,1.075,0,0,0,90.292,33.32Zm0-1.632a.558.558,0,1,1-.558.558A.558.558,0,0,1,90.292,31.688Z" transform="translate(-54.689 -29.704)"/><path class="a" d="M81.31,82.858a.258.258,0,0,0,.258-.258v-.453a.532.532,0,0,1,.531-.531h.828a.532.532,0,0,1,.532.531V82.6a.258.258,0,0,0,.517,0v-.453A1.049,1.049,0,0,0,82.928,81.1H82.1a1.049,1.049,0,0,0-1.048,1.048V82.6A.258.258,0,0,0,81.31,82.858Z" transform="translate(-46.908 -77.281)"/><path class="a" d="M81.054,151.97a.258.258,0,0,0,.258.258h5.852a.258.258,0,1,0,0-.517H81.312A.258.258,0,0,0,81.054,151.97Z" transform="translate(-46.91 -144.57)"/><path class="a" d="M87.164,232.915H81.312a.258.258,0,0,0,0,.517h5.852a.258.258,0,0,0,0-.517Z" transform="translate(-46.91 -221.95)"/><path class="a" d="M87.164,192.313H81.312a.258.258,0,0,0,0,.517h5.852a.258.258,0,0,0,0-.517Z" transform="translate(-46.91 -183.259)"/></g></svg>