<svg xmlns="http://www.w3.org/2000/svg" xmlns:xlink="http://www.w3.org/1999/xlink" width="54.411" height="54.411" viewBox="0 0 54.411 54.411"><defs><style>.a{fill:#dbffee;}.b{fill:url(#a);}.c{fill:url(#b);}.d{fill:url(#e);}.e{fill:#7eeed3;}.f{fill:#078463;}.g{filter:url(#c);}</style><linearGradient id="a" x1="0.132" y1="0.172" x2="0.877" y2="0.885" gradientUnits="objectBoundingBox"><stop offset="0" stop-color="#46fea8"/><stop offset="1" stop-color="#12d661"/></linearGradient><linearGradient id="b" x1="0.113" y1="0.145" x2="0.793" y2="0.961" gradientUnits="objectBoundingBox"><stop offset="0" stop-color="#d2ffe9"/><stop offset="1" stop-color="#91ffc4"/></linearGradient><filter id="c" x="13.833" y="15.039" width="26.334" height="26.334" filterUnits="userSpaceOnUse"><feOffset dy="1" input="SourceAlpha"/><feGaussianBlur stdDeviation="1" result="d"/><feFlood flood-opacity="0.161"/><feComposite operator="in" in2="d"/><feComposite in="SourceGraphic"/></filter><linearGradient id="e" x1="0.5" x2="0.5" y2="1" gradientUnits="objectBoundingBox"><stop offset="0" stop-color="#fff"/><stop offset="1" stop-color="#e8fffa"/></linearGradient></defs><g transform="translate(-9 -89)"><rect class="a" width="54.411" height="54.411" rx="16" transform="translate(9 89)"/><rect class="b" width="38" height="29" rx="14.5" transform="translate(17 102)"/><g transform="translate(25.833 106.039)"><g class="g" transform="matrix(1, 0, 0, 1, -16.83, -17.04)"><path class="c" d="M10.167,20.334A10.167,10.167,0,1,1,20.334,10.167,10.178,10.178,0,0,1,10.167,20.334Zm0,0" transform="translate(16.83 17.04)"/></g><path class="d" d="M91.791,98.582a6.791,6.791,0,1,1,6.791-6.791A6.8,6.8,0,0,1,91.791,98.582Zm0,0" transform="translate(-81.624 -81.624)"/><path class="e" d="M178.217,181.434a3.217,3.217,0,1,1,3.217-3.217A3.22,3.22,0,0,1,178.217,181.434Zm0,0" transform="translate(-168.05 -168.05)"/><path class="f" d="M241.6,136.263a.6.6,0,0,1-.421-1.017l4.381-4.381a.6.6,0,0,1,.842.842l-4.381,4.381A.593.593,0,0,1,241.6,136.263Zm0,0" transform="translate(-231.429 -125.501)"/><path class="f" d="M349.48,14.609l-.05,0-2.331-.2a.6.6,0,0,1-.544-.544l-.2-2.331a.6.6,0,0,1,.172-.471l2.527-2.527a.6.6,0,0,1,1.015.371l.154,1.829,1.83.154a.6.6,0,0,1,.371,1.015L349.9,14.435a.6.6,0,0,1-.421.175Zm0,0" transform="translate(-332.602 -8.031)"/></g></g></svg>