<svg id="Layer_2" data-name="Layer 2" xmlns="http://www.w3.org/2000/svg" viewBox="0 0 30 30.86"><defs><style>.cls-1{fill:#f06f71;}</style></defs><title>dislike_fill</title><path class="cls-1" d="M5.9,14.45A3.84,3.84,0,0,0,5,17a4,4,0,0,0,.84,2.22,3.45,3.45,0,0,0,.82,4c1,.94,2.77,1.36,5.18,1.24A19.52,19.52,0,0,0,15,24h0c.32-.05.66-.13,1-.2a11.55,11.55,0,0,1-.81,3.75c-.9,2.75-.85,4.85.17,6.26a4.12,4.12,0,0,0,3.29,1.59,1.62,1.62,0,0,0,1.24-.57,4.32,4.32,0,0,0,.54-3.08c.85-2.28,3.24-7.88,5.26-9.44a.87.87,0,0,0,.11-.09,6.8,6.8,0,0,0,1.26-1.9,2.62,2.62,0,0,0,1.28.33h3.94A2.69,2.69,0,0,0,35,18V7.51a2.69,2.69,0,0,0-2.68-2.69H28.38a2.67,2.67,0,0,0-1.55.49l-1.52-.18a66.2,66.2,0,0,0-8.6-.47q-1.16-.09-2.16-.09a14.5,14.5,0,0,0-3,.27,5.61,5.61,0,0,0-4,2.49A4,4,0,0,0,7.1,9.8a4.11,4.11,0,0,0-1.46,3.35A4.25,4.25,0,0,0,5.9,14.45Z" transform="translate(-5 -4.57)"/></svg>