<svg xmlns="http://www.w3.org/2000/svg" width="18.41" height="19.687" viewBox="0 0 18.41 19.687"><defs><style>.a{fill:#fff;}</style></defs><g transform="translate(-0.005 -0.008)"><path class="a" d="M15.156,12.646v.961a.435.435,0,0,0,.869,0v-.961a2.734,2.734,0,0,0-1.628-2.5l-2.99-1.281V7.784a3.226,3.226,0,0,0,1.035-2.366V3.044A3.213,3.213,0,0,0,10.387.036.437.437,0,0,0,9.9.156L9.478.638a1.175,1.175,0,0,1-.87.387H7.765A1.789,1.789,0,0,0,5.981,2.808v2.61A3.222,3.222,0,0,0,7.017,7.784v1.1L4.069,10.162A2.715,2.715,0,0,0,2.4,12.677v.93a.434.434,0,1,0,.868,0v-.93A1.855,1.855,0,0,1,4.41,10.961l1.373-.6a3.783,3.783,0,0,0,4.873,1.9,3.707,3.707,0,0,0,.4-.195c.078-.044.155-.092.231-.142a.434.434,0,0,0-.151-.787.422.422,0,0,0-.328.064c-.058.039-.119.074-.178.108A2.908,2.908,0,0,1,6.672,10.2c-.033-.059-.064-.119-.093-.179l.594-.259a2.194,2.194,0,0,0,4.075-.011l.6.254a2.828,2.828,0,0,1-.265.455.436.436,0,0,0-.076.324.436.436,0,0,0,.5.359.432.432,0,0,0,.283-.175l.029-.039v0a3.883,3.883,0,0,0,.33-.579l1.4.6A1.861,1.861,0,0,1,15.156,12.646ZM6.85,4.718A1.519,1.519,0,0,0,7.632,4.2a.434.434,0,0,0-.364-.714.442.442,0,0,0-.314.174.723.723,0,0,1-.1.1V2.806a.919.919,0,0,1,.916-.916H8.61a2.054,2.054,0,0,0,1.512-.675l.216-.244a2.357,2.357,0,0,1,1.23,2.074v.474a3.03,3.03,0,0,1-.966.156h-.01a3.045,3.045,0,0,1-2.127-.86.434.434,0,0,0-.6.627,3.95,3.95,0,0,0,3.7.989v.995a2.361,2.361,0,0,1-4.721.038Zm3.685,3.645v.582a1.327,1.327,0,0,1-1.253,1.323H9.211A1.327,1.327,0,0,1,7.886,8.943V8.362A3.2,3.2,0,0,0,10.535,8.363Z"/><path class="a" d="M11.585,15.94l-1.309-.189-.585-1.186a.535.535,0,0,0-.715-.241.54.54,0,0,0-.241.241l-.586,1.186-1.308.188a.536.536,0,0,0-.3.912l.944.921-.224,1.305a.535.535,0,0,0,.444.611.593.593,0,0,0,.084.006.539.539,0,0,0,.247-.06l1.17-.615,1.171.615a.533.533,0,0,0,.72-.226.529.529,0,0,0,.053-.333l-.222-1.3.944-.921a.536.536,0,0,0,.008-.756A.545.545,0,0,0,11.585,15.94ZM10.05,17.747l.138.809-.726-.382a.533.533,0,0,0-.5,0l-.726.382.139-.809a.535.535,0,0,0-.153-.473L7.641,16.7l.812-.118a.528.528,0,0,0,.4-.292l.366-.736.365.735a.529.529,0,0,0,.4.293l.809.118-.6.573A.534.534,0,0,0,10.05,17.747Z"/><path class="a" d="M5.206,15.94,3.9,15.751l-.584-1.186A.534.534,0,0,0,3,14.3a.528.528,0,0,0-.407.027.54.54,0,0,0-.241.241l-.585,1.186-1.309.188a.536.536,0,0,0-.3.912l.944.921L.886,19.077a.534.534,0,0,0,.775.557l1.17-.615L4,19.634a.539.539,0,0,0,.247.06.5.5,0,0,0,.162-.025.529.529,0,0,0,.312-.261.536.536,0,0,0,.054-.333l-.224-1.3.944-.921a.534.534,0,0,0,.009-.755A.546.546,0,0,0,5.206,15.94ZM3.823,17.274a.534.534,0,0,0-.153.473l.139.809-.726-.382a.533.533,0,0,0-.5,0l-.726.382L2,17.747a.535.535,0,0,0-.153-.473L1.262,16.7l.812-.118a.53.53,0,0,0,.4-.292l.366-.736.366.736a.532.532,0,0,0,.4.292l.809.118-.594.571Z"/><path class="a" d="M18.39,16.3a.538.538,0,0,0-.432-.364l-1.308-.188-.585-1.186a.534.534,0,0,0-.715-.241.538.538,0,0,0-.242.241l-.585,1.186-1.307.188a.535.535,0,0,0-.3.912l.943.921-.224,1.305a.534.534,0,0,0,.445.611.579.579,0,0,0,.083.006.526.526,0,0,0,.246-.06l1.171-.615,1.171.615a.533.533,0,0,0,.72-.226.529.529,0,0,0,.053-.333l-.223-1.3.94-.918A.533.533,0,0,0,18.39,16.3Zm-1.966,1.444.138.809-.726-.382a.529.529,0,0,0-.5,0l-.726.382.139-.809a.538.538,0,0,0-.152-.473l-.584-.572.81-.118a.53.53,0,0,0,.4-.292l.366-.736.366.737a.532.532,0,0,0,.4.291l.809.118-.6.573A.534.534,0,0,0,16.424,17.747Z"/></g></svg>