<svg xmlns="http://www.w3.org/2000/svg" width="26.297" height="19.833" viewBox="0 0 26.297 19.833"><defs><style>.a{fill:#fff;}</style></defs><path class="a" d="M1.024,238.105h23.3c.566,0,1.024-.624,1.024-1.394s-.459-1.394-1.024-1.394H1.024c-.566,0-1.024.624-1.024,1.394S.458,238.105,1.024,238.105Z" transform="translate(0 -226.795)"/><path class="a" d="M1.393,128.663a1.389,1.389,0,0,0,.985-.408l8.523-8.523a1.394,1.394,0,0,0,0-1.971l-8.523-8.523a1.394,1.394,0,1,0-1.971,1.971l7.537,7.537L.408,126.284a1.394,1.394,0,0,0,.985,2.379Z" transform="translate(14.988 -108.83)"/></svg>