<svg xmlns="http://www.w3.org/2000/svg" width="23.587" height="23.589" viewBox="0 0 23.587 23.589"><defs><style>.a{fill:#fff;}</style></defs><g transform="translate(-93.661 -92.661)"><g transform="translate(93.661 92.661)"><path class="a" d="M37.09,18.044H35.473V16.712a.571.571,0,1,0-1.142,0v1.332H29.243V16.712a.571.571,0,1,0-1.142,0v1.332H23.061V16.712a.571.571,0,1,0-1.142,0v1.332H20.348a3.428,3.428,0,0,0-3.424,3.424V36.3a3.43,3.43,0,0,0,3.424,3.424H37.087A3.437,3.437,0,0,0,40.5,36.567v-.028a.459.459,0,0,0,.007-.086V21.468A3.426,3.426,0,0,0,37.09,18.044ZM39.369,36.3a2.285,2.285,0,0,1-2.282,2.282H20.348A2.285,2.285,0,0,1,18.066,36.3V21.468a2.285,2.285,0,0,1,2.282-2.282h1.568v1.332a.571.571,0,0,0,1.142,0V19.186H28.1v1.332a.571.571,0,0,0,1.142,0V19.186h5.088v1.332a.571.571,0,0,0,1.142,0V19.186h1.616a2.285,2.285,0,0,1,2.282,2.282Z" transform="translate(-16.924 -16.14)"/><path class="a" d="M21.064,28.48a1.179,1.179,0,1,0,1.179,1.179A1.179,1.179,0,0,0,21.064,28.48Z" transform="translate(-15.777 -11.358)"/><path class="a" d="M21.064,25.025A1.179,1.179,0,1,0,22.244,26.2,1.179,1.179,0,0,0,21.064,25.025Z" transform="translate(-15.777 -12.697)"/><path class="a" d="M21.064,21.57a1.179,1.179,0,1,0,1.179,1.179A1.179,1.179,0,0,0,21.064,21.57Z" transform="translate(-15.777 -14.036)"/><path class="a" d="M27.48,23.929A1.179,1.179,0,1,0,26.3,22.749,1.179,1.179,0,0,0,27.48,23.929Z" transform="translate(-13.291 -14.036)"/><path class="a" d="M24.519,25.025A1.179,1.179,0,1,0,25.7,26.2,1.179,1.179,0,0,0,24.519,25.025Z" transform="translate(-14.438 -12.697)"/><path class="a" d="M24.519,21.57A1.179,1.179,0,1,0,25.7,22.749,1.179,1.179,0,0,0,24.519,21.57Z" transform="translate(-14.438 -14.036)"/><path class="a" d="M30.765,21.57a1.179,1.179,0,1,0,1.179,1.179A1.179,1.179,0,0,0,30.765,21.57Z" transform="translate(-12.018 -14.036)"/><path class="a" d="M24.519,28.48A1.179,1.179,0,1,0,25.7,29.659,1.179,1.179,0,0,0,24.519,28.48Z" transform="translate(-14.438 -11.358)"/><path class="a" d="M31.175,25.27H28.167a2.049,2.049,0,0,0-2.048,2.048v3.008a2.051,2.051,0,0,0,2.048,2.048h3.008a2.049,2.049,0,0,0,2.048-2.048V27.318A2.047,2.047,0,0,0,31.175,25.27Zm.512,5.509-.481.059H27.654l0-4.031h4.031Z" transform="translate(-13.361 -12.602)"/></g></g></svg>