<svg xmlns="http://www.w3.org/2000/svg" xmlns:xlink="http://www.w3.org/1999/xlink" width="357" height="148" viewBox="0 0 357 148"><defs><style>.a{fill:url(#a);}.b{fill:#27e2c6;}.c{fill:url(#b);}.d{clip-path:url(#c);}.e{clip-path:url(#d);}.f{opacity:0.39;}.f,.j{fill:url(#e);}.g,.h,.i,.l{fill:none;}.g,.h,.i{stroke:#fff;}.g,.h{stroke-width:50px;}.g{opacity:0.04;}.h{opacity:0.16;}.i{stroke-width:60px;opacity:0.08;}.j{opacity:0.41;}.k{stroke:none;}</style><linearGradient id="a" x1="-0.019" y1="0.396" x2="1.549" y2="0.932" gradientUnits="objectBoundingBox"><stop offset="0" stop-color="#488cfc"/><stop offset="1" stop-color="#8264ff"/></linearGradient><linearGradient id="b" x1="-0.019" y1="0.396" x2="1.549" y2="0.932" gradientUnits="objectBoundingBox"><stop offset="0" stop-color="#01c2b3"/><stop offset="1" stop-color="#498cfc"/></linearGradient><clipPath id="c"><rect class="a" width="357" height="148" rx="5" transform="translate(0 0.333)"/></clipPath><clipPath id="d"><rect class="b" width="434" height="156" rx="10" transform="translate(0 0.333)"/></clipPath><linearGradient id="e" x1="0.452" y1="-0.974" x2="0.494" y2="1.012" gradientUnits="objectBoundingBox"><stop offset="0" stop-color="#fff"/><stop offset="1" stop-color="#fff" stop-opacity="0"/></linearGradient></defs><g transform="translate(-9 -80)"><rect class="c" width="357" height="148" rx="5" transform="translate(9 80)"/><g class="d" transform="translate(9 79.667)"><g class="e" transform="translate(-33)"><path class="f" d="M190.655,12.138,406.48,315.432,17.254,284.956Z" transform="matrix(0.559, -0.829, 0.829, 0.559, 50.421, 85.581)"/><g class="g" transform="translate(305 -55.667)"><ellipse class="k" cx="93.5" cy="80" rx="93.5" ry="80"/><ellipse class="l" cx="93.5" cy="80" rx="68.5" ry="55"/></g><g class="h" transform="translate(-71 91.333)"><ellipse class="k" cx="92" cy="79" rx="92" ry="79"/><ellipse class="l" cx="92" cy="79" rx="67" ry="54"/></g><g class="i" transform="translate(-142 30.333)"><ellipse class="k" cx="163" cy="139.5" rx="163" ry="139.5"/><ellipse class="l" cx="163" cy="139.5" rx="133" ry="109.5"/></g><path class="j" d="M191.126,12.3,407.773,315.059l-390.3-30.888Z" transform="matrix(0.574, -0.819, 0.819, 0.574, -66.631, 140.266)"/></g></g></g></svg>