<svg xmlns="http://www.w3.org/2000/svg" xmlns:xlink="http://www.w3.org/1999/xlink" width="150.89" height="187.543" viewBox="0 0 150.89 187.543"><defs><style>.a,.ak,.al,.av,.ax,.b,.ba,.bb,.bc,.bd,.bg,.bh,.bn,.bp,.br{fill:none;}.b{stroke:#c3cbdd;}.ak,.al,.av,.b,.bb,.bg,.bh,.bp,.br{stroke-miterlimit:10;}.bs,.c{fill:#fff;}.d{fill:#9e9dc6;}.e{fill:#ded9ff;}.f{fill:#fdffff;}.g{fill:#f4f0e1;}.h{fill:#bfe3f7;}.i{clip-path:url(#a);}.j{fill:#e9e8fc;}.k{fill:url(#b);}.l{fill:url(#c);}.m{fill:url(#d);}.n{fill:url(#e);}.o{fill:url(#f);}.p{fill:url(#g);}.q{fill:url(#h);}.r{fill:url(#i);}.s{fill:#c4bbf0;}.t{fill:#eaeaea;}.u{fill:url(#l);}.v{fill:url(#m);}.w{fill:url(#n);}.x{fill:url(#p);}.y{fill:url(#q);}.z{fill:#291b6f;}.aa{fill:#f9f8f4;}.ab{fill:#eae8e4;}.ac{fill:url(#s);}.ad{fill:url(#t);}.ae{fill:url(#u);}.af{fill:url(#v);}.ag{fill:url(#w);}.ah{fill:url(#x);}.ai{fill:url(#y);}.aj{fill:url(#aa);}.ak,.al{stroke:#291b6f;}.ak{stroke-width:0.894px;}.al{stroke-width:1.079px;}.am{fill:#d4edf9;}.an{fill:url(#ae);}.ao{fill:url(#af);}.ap{fill:url(#ag);}.aq{fill:url(#aj);}.ar{fill:url(#ak);}.as{fill:url(#al);}.at{fill:#f3fcff;}.au{fill:#061a43;}.av,.bh,.bn,.br{stroke:#061a43;}.aw{fill:#070707;}.ax{stroke:#070707;stroke-width:2.685px;}.ax,.ba,.bc,.bd,.bn{stroke-linecap:round;stroke-linejoin:round;}.ay{fill:#9b4b48;}.az{fill:#b2655f;}.ba,.bc{stroke:#000;}.ba,.bn{stroke-width:0.533px;}.bb,.bg{stroke:#fff;}.bb{stroke-width:0.822px;}.bc{stroke-width:0.518px;}.bd{stroke:#e8ebf4;stroke-width:0.796px;}.be{fill:#f52c00;}.bf{fill:#1e0001;}.bg{stroke-width:1.191px;}.bh{stroke-width:1.061px;}.bi{fill:#96a8cc;}.bj{fill:#fbb791;}.bk{fill:#1977cc;}.bl,.bt{fill:#3794fb;}.bm{fill:#f8a188;}.bo{fill:#ea8871;}.bp{stroke:#f52c00;stroke-width:0.799px;}.bq{fill:#afbbd8;}.br{stroke-width:0.927px;}.bs{font-size:4px;letter-spacing:0.075em;}.bs,.bt{font-family:SegoeUI, Segoe UI;}.bt{font-size:7px;letter-spacing:0.1em;}</style><clipPath id="a"><rect class="a" width="55.644" height="36.732"/></clipPath><linearGradient id="b" x1="-1.453" y1="2.867" x2="-1.453" y2="3.374" gradientUnits="objectBoundingBox"><stop offset="0" stop-color="#f2a486"/><stop offset="1" stop-color="#db7d61"/></linearGradient><linearGradient id="c" x1="-28.194" y1="-1.601" x2="-28.194" y2="-1.094" xlink:href="#b"/><linearGradient id="d" x1="0.57" y1="0.427" x2="0.446" y2="0.905" gradientUnits="objectBoundingBox"><stop offset="0" stop-color="#4e8bf7"/><stop offset="1" stop-color="#2053ba"/></linearGradient><linearGradient id="e" x1="0.5" y1="0.721" x2="0.5" y2="0.497" xlink:href="#b"/><linearGradient id="f" x1="0.501" y1="0.64" x2="0.513" y2="1.658" xlink:href="#b"/><linearGradient id="g" x1="0.5" y1="0.171" x2="0.5" y2="0.668" gradientUnits="objectBoundingBox"><stop offset="0" stop-color="#3e3b7e"/><stop offset="1" stop-color="#212159"/></linearGradient><linearGradient id="h" x1="0.697" y1="0.189" x2="0.461" y2="0.649" xlink:href="#b"/><linearGradient id="i" x1="-0.05" y1="0.668" x2="-0.327" y2="1.218" xlink:href="#d"/><linearGradient id="l" x1="-2.528" y1="7.05" x2="-2.528" y2="7.557" xlink:href="#b"/><linearGradient id="m" x1="-69.078" y1="-5.699" x2="-69.078" y2="-5.191" xlink:href="#b"/><linearGradient id="n" x1="0.603" y1="0.479" x2="0.476" y2="0.931" gradientUnits="objectBoundingBox"><stop offset="0" stop-color="#f4ba6c"/><stop offset="1" stop-color="#d8903a"/></linearGradient><linearGradient id="p" x1="0.502" y1="0.64" x2="0.512" y2="1.657" xlink:href="#b"/><linearGradient id="q" x1="0.493" y1="0.462" x2="0.512" y2="0.857" xlink:href="#g"/><linearGradient id="s" x1="0.5" y1="0.721" x2="0.5" y2="0.497" xlink:href="#g"/><linearGradient id="t" x1="-6.118" y1="2.968" x2="-6.118" y2="3.475" xlink:href="#b"/><linearGradient id="u" x1="-37.743" y1="-2.289" x2="-37.743" y2="-1.782" xlink:href="#b"/><linearGradient id="v" x1="0.512" y1="-0.242" x2="0.504" y2="0.543" xlink:href="#b"/><linearGradient id="w" x1="0.513" y1="-0.303" x2="0.503" y2="0.537" xlink:href="#b"/><linearGradient id="x" x1="0.501" y1="0.12" x2="0.498" y2="0.682" xlink:href="#b"/><linearGradient id="y" x1="0.5" y1="0.272" x2="0.5" y2="1.162" gradientUnits="objectBoundingBox"><stop offset="0" stop-color="#fff"/><stop offset="0.999" stop-color="#ccc"/></linearGradient><linearGradient id="aa" x1="0.503" y1="0.639" x2="0.513" y2="1.661" xlink:href="#b"/><linearGradient id="ae" x1="-5.923" y1="6.753" x2="-5.923" y2="7.26" xlink:href="#b"/><linearGradient id="af" x1="-73.023" y1="-6.11" x2="-73.023" y2="-5.603" xlink:href="#b"/><linearGradient id="ag" x1="0.5" y1="0.314" x2="0.5" y2="0.884" gradientUnits="objectBoundingBox"><stop offset="0" stop-color="#a4a4dd"/><stop offset="1" stop-color="#7575bf"/></linearGradient><linearGradient id="aj" x1="0.501" y1="0.171" x2="0.499" y2="0.668" xlink:href="#g"/><linearGradient id="ak" x1="0.501" y1="0.171" x2="0.499" y2="0.667" xlink:href="#g"/><linearGradient id="al" x1="0.5" y1="0.172" x2="0.5" y2="0.669" xlink:href="#g"/></defs><g transform="translate(-26.686 100.189)"><g transform="translate(27.337 -16.329)"><rect class="b" width="35.007" height="38.279" transform="translate(111.254 17.102)"/><g transform="translate(113.712 21.911)"><line class="b" x2="8.653"/><line class="b" x2="8.653" transform="translate(0 1.664)"/><line class="b" x2="8.653" transform="translate(0 3.327)"/><line class="b" x2="8.653" transform="translate(0 4.991)"/><rect class="c" width="7.582" height="3.327" transform="translate(21.803)"/><rect class="b" width="3.778" height="3.778" transform="translate(12.709 1.664)"/><rect class="b" width="3.778" height="3.778" transform="translate(8.737 10.181)"/><rect class="c" width="3.778" height="3.778" transform="translate(16.201 7.492)"/></g><g transform="translate(0 0)"><circle class="b" cx="6.536" cy="6.536" r="6.536" transform="translate(0 4.917) rotate(-22.095)"/><path class="b" d="M83.883,85.27v2.706h3.384" transform="translate(-75.369 -79.462)"/></g></g><g transform="translate(43.007 -70.863)"><rect class="d" width="117.219" height="78.787"/><g transform="translate(2.756 2.726)"><rect class="e" width="55.644" height="36.732" transform="translate(0.206)"/><rect class="f" width="55.644" height="36.732" transform="translate(55.853)"/><rect class="g" width="55.644" height="36.732" transform="translate(0.206 36.731)"/><rect class="h" width="55.644" height="36.732" transform="translate(55.853 36.731)"/><g transform="translate(0.206)"><g class="i"><g transform="translate(8.228 2.77)"><rect class="j" width="19.153" height="37.044"/><rect class="j" width="19.153" height="10.73" transform="translate(21.123)"/><rect class="j" width="10.03" height="10.73" transform="translate(32.857 13.557)"/></g><g transform="translate(3.97 4.066)"><g transform="translate(10.501)"><path class="k" d="M365.278,165.143c.3,1.056-.037,2.08-.758,2.286s-1.55-.482-1.852-1.538.037-2.08.758-2.286S364.976,164.087,365.278,165.143Z" transform="translate(-356.352 -152.549)"/><path class="l" d="M394.478,164.874c-.3,1.056.037,2.08.758,2.286s1.55-.482,1.853-1.538-.037-2.08-.758-2.286S394.78,163.818,394.478,164.874Z" transform="translate(-373.229 -152.407)"/><g transform="translate(0 16.936)"><path class="m" d="M380.663,202.525H349.338v-6.752a7.763,7.763,0,0,1,7.763-7.763h13.386c4.287,0,6.3,2.753,7.763,7.763Z" transform="translate(-349.338 -182.453)"/><path class="n" d="M373.474,176.4l-2.015,7.661s4.084,5.254,9.211.085l-1.964-7.973Z" transform="translate(-361.075 -176.173)"/></g><path class="o" d="M380.563,152.951c-.223.995.356,1.988.014,2.94-1.378,3.832-3.761,7.009-7.415,7.009-3.612,0-6.112-2.791-7.448-6.684-.351-1.022.237-2.121.048-3.265-.9-5.42,2.839-9.949,7.4-9.949S381.763,147.589,380.563,152.951Z" transform="translate(-357.966 -141.638)"/><path class="p" d="M365.691,152.352s.027-5.525,1.661-7.212,2.55.122,5.186.122,4.366-1.523,5.421-.152a9.9,9.9,0,0,1,1.61,6.748l.915-.839s2.077-10.26-7.045-10.893-9.354,8.849-8.721,11.011Z" transform="translate(-357.386 -140.096)"/><path class="c" d="M15.792,4.046c-.133,4.73-3.2,9.03-7.477,9.03S.275,8.555.938,4.046C3.325,2.322,12.439,2.681,15.792,4.046Z" transform="translate(6.895 8.283)"/></g><g transform="translate(0 10.951)"><path class="q" d="M336.779,175.412c-.334-1.724,1.229-2.6,1.154-4.218s.339-3.014.151-3.353-1.055-.753-1.507.6-.6,2.6-.867,2.072-1.035-4.782-1.5-6.754c-.14-.6-1.631-.4-1.443.575s1.033,4.61.732,4.309-1.243-3.374-1.935-4.742c-.384-.758-1.7-.283-1.471.546s2.076,5.042,1.737,5.155-1.55-3.569-2.364-4.529c-.479-.564-1.369.143-1.105.9s2.193,4.437,1.854,4.361-1.694-2.328-2.309-2.912c-.338-.321-1.316.006-.789,1.06s2.218,3.773,2.9,4.822c1.049,1.612,3.556,10.852,3.556,10.852l4.964-1.349Z" transform="translate(-326.968 -163.424)"/><path class="r" d="M346.764,208.011l-8.446,1.735-2.1-17.233,6.293-1.292Z" transform="translate(-331.875 -178.172)"/></g></g><path class="s" d="M487.319,154.188a7.8,7.8,0,0,0-2.3-.576,6.887,6.887,0,0,0-2.051.558,2.742,2.742,0,0,1-2.08.054,1.915,1.915,0,0,1-.979-1.486,3.34,3.34,0,0,1,.345-1.789c1.028-2.233,3.431-3.549,5.823-4.234a11.5,11.5,0,0,1,5.611-.355,6.383,6.383,0,0,1,4.407,3.223c.906,1.862.582,4.049.239,6.085-.041.242-.177.554-.422.507-.181-.035-.251-.25-.286-.429a20.718,20.718,0,0,0-.823-3.995,10.5,10.5,0,0,1-3.345,2.325A6.9,6.9,0,0,1,487.319,154.188Z" transform="translate(-404.134 -139.245)"/></g></g><g transform="translate(55.863)"><g class="i"><g transform="translate(4.684 3.1)"><rect class="t" width="24.706" height="3.556"/><rect class="t" width="24.706" height="3.556" transform="translate(0 6.929)"/><rect class="t" width="24.706" height="3.556" transform="translate(0 13.857)"/><rect class="t" width="24.706" height="3.556" transform="translate(0 20.786)"/><rect class="t" width="24.706" height="3.556" transform="translate(0 27.715)"/></g><path class="t" d="M526.847,175.755c-.091-.456-4.1-12.216-1.823-13.037s4.923.912,1.094-4.194-8.023-12.4-3.556-9.39,4.377,1.276,4.285-3.556,1.641-9.846,3.647-7.2-1.641,14.951.729,13.766,4.832-2.462,2.917,1.55-3.829,4.741-2.279,6.291,2.462,2.917.638,7.658A23.4,23.4,0,0,1,526.847,175.755Z" transform="translate(-481.41 -134.73)"/><g transform="translate(11.728 5.41)"><path class="p" d="M470.136,145.729a5.478,5.478,0,0,0-2.127,4.608c.17,1.173.91,2.386.385,3.463-.467.959-1.788,1.4-2.169,2.387a3.2,3.2,0,0,0,.588,2.561,2.715,2.715,0,0,1,.383,2.565c-.681,1.188-2.589.982-3.824,1.682a3.056,3.056,0,0,0-.875,4.135,7.782,7.782,0,0,0,3.764,2.923,31.334,31.334,0,0,0,16.579,2.167,15.491,15.491,0,0,0,4.826-1.251,6.485,6.485,0,0,0,3.35-3.348,3.921,3.921,0,0,0-.986-4.33c-.484-.415-1.078-.7-1.577-1.1a1.892,1.892,0,0,1-.846-1.58c.094-.823,1.042-1.519.8-2.314-.17-.547-.823-.81-1.233-1.232a2.427,2.427,0,0,1-.472-2.236c.17-.773.547-1.491.78-2.25a6.334,6.334,0,0,0-.709-5.2,7.014,7.014,0,0,0-2.685-2.438,19.835,19.835,0,0,0-2.985-1.483,11.88,11.88,0,0,0-7.359.178A10.636,10.636,0,0,0,470.136,145.729Z" transform="translate(-462.06 -142.959)"/><g transform="translate(0.6 3.051)"><path class="u" d="M480.007,168.919c.285,1-.035,1.959-.714,2.154s-1.461-.454-1.746-1.45.035-1.96.714-2.154S479.722,167.924,480.007,168.919Z" transform="translate(-470.822 -158.996)"/><path class="v" d="M507.525,168.666c-.285,1,.035,1.96.714,2.154s1.461-.455,1.746-1.45-.035-1.959-.714-2.154S507.81,167.67,507.525,168.666Z" transform="translate(-486.727 -158.862)"/><g transform="translate(0 12.435)"><path class="w" d="M492.311,203.515H463.4S461.8,192.974,474.829,189h7.308C493.371,190.588,492.311,203.515,492.311,203.515Z" transform="translate(-463.337 -182.873)"/><path class="n" d="M489.109,176.179,487.526,184s3.612,9.871,7.239.086l-1.544-8.138Z" transform="translate(-476.171 -175.947)"/></g><path class="x" d="M494.665,157.858a25.143,25.143,0,0,1-.7,2.988c-1.378,3.236-3.927,5.289-6.7,5.413-2.2.1-5.588-1.914-6.924-5.2a19.978,19.978,0,0,1-.477-3.2c2.356-4.286,2.839-8.4,7.4-8.4S495.864,153.331,494.665,157.858Z" transform="translate(-472.106 -149.458)"/><path class="c" d="M16.486,5.358c-.133,4.73-3.549,9.031-7.827,9.031S.929,9.867,1.592,5.358C4.5,7.368,11.265,8.014,16.486,5.358Z" transform="translate(6.082 3.045)"/></g><path class="y" d="M484.615,154.188a7.8,7.8,0,0,0-2.3-.576,6.892,6.892,0,0,0-2.052.558,2.74,2.74,0,0,1-2.079.054,1.916,1.916,0,0,1-.979-1.486,3.342,3.342,0,0,1,.345-1.789c1.028-2.233,3.43-3.549,5.823-4.234a11.5,11.5,0,0,1,5.61-.355,6.382,6.382,0,0,1,4.407,3.223c.906,1.862.583,4.049.24,6.085-.041.242-.177.554-.422.507-.181-.035-.251-.25-.286-.429a20.737,20.737,0,0,0-.823-3.995,10.5,10.5,0,0,1-3.345,2.325A6.9,6.9,0,0,1,484.615,154.188Z" transform="translate(-470.084 -144.655)"/></g></g></g><g transform="translate(41.597 31.775)"><path class="z" d="M409.574,200.568a1.444,1.444,0,1,1-1.444-1.444A1.444,1.444,0,0,1,409.574,200.568Z" transform="translate(-406.686 -199.124)"/><path class="z" d="M418.869,200.568a1.444,1.444,0,1,1-1.444-1.444A1.445,1.445,0,0,1,418.869,200.568Z" transform="translate(-411.617 -199.124)"/><path class="z" d="M428.163,200.568a1.444,1.444,0,1,1-1.444-1.444A1.445,1.445,0,0,1,428.163,200.568Z" transform="translate(-416.549 -199.124)"/></g><g transform="translate(98.071 31.775)"><path class="z" d="M529.879,200.568a1.444,1.444,0,1,1-1.444-1.444A1.444,1.444,0,0,1,529.879,200.568Z" transform="translate(-526.991 -199.124)"/><path class="z" d="M539.174,200.568a1.444,1.444,0,1,1-1.445-1.444A1.445,1.445,0,0,1,539.174,200.568Z" transform="translate(-531.922 -199.124)"/><path class="z" d="M548.468,200.568a1.444,1.444,0,1,1-1.445-1.444A1.444,1.444,0,0,1,548.468,200.568Z" transform="translate(-536.854 -199.124)"/></g><g transform="translate(0 36.731)"><g class="i"><path class="aa" d="M400.178,263.173h-29.61v1.786h3.572v11.374h1.6V264.959h19.74v11.374h1.6V264.959h3.1Z" transform="translate(-345.926 -238.062)"/><rect class="aa" width="13.948" height="32.762" transform="translate(4.132 4.874)"/><path class="ab" d="M350.784,252.334a1.589,1.589,0,1,1-1.589-1.59A1.589,1.589,0,0,1,350.784,252.334Z" transform="translate(-333.742 -231.468)"/><g transform="translate(15.738 4.011)"><path class="ac" d="M363.674,225.056c-1.144,4.394-2.7,9.285-2.482,13.824a2.1,2.1,0,0,0,.489,1.5,2,2,0,0,0,.788.375,30.412,30.412,0,0,0,15.932.411A3.549,3.549,0,0,0,380.577,240a3.618,3.618,0,0,0,.469-2.046,27.812,27.812,0,0,0-1.088-8.131,12.541,12.541,0,0,0-2.863-5.439,8.729,8.729,0,0,0-6.153-2.49,10.808,10.808,0,0,0-6.335,2.167" transform="translate(-356.678 -220.17)"/><path class="ad" d="M365.229,243.589c.252.88-.03,1.732-.631,1.9s-1.291-.4-1.543-1.282.031-1.732.631-1.9S364.977,242.709,365.229,243.589Z" transform="translate(-357.629 -230.987)"/><path class="ae" d="M394.977,243.589c-.252.88.031,1.732.631,1.9s1.291-.4,1.543-1.282-.031-1.732-.631-1.9S395.229,242.709,394.977,243.589Z" transform="translate(-374.566 -230.987)"/><g transform="translate(0 16.99)"><g transform="translate(0 6.073)"><path class="af" d="M355.589,274.414a6.511,6.511,0,0,0-3.963,6.788h6.314c-.141-2.507-.508-5.561-.735-7.5C356.65,273.969,356.1,274.214,355.589,274.414Z" transform="translate(-351.6 -270.724)"/><path class="ag" d="M401.049,274.966c-.178-.069-.36-.144-.545-.223a43.382,43.382,0,0,0-.222,7.011h4.729A6.511,6.511,0,0,0,401.049,274.966Z" transform="translate(-377.405 -271.276)"/><path class="ah" d="M381.034,270.824a56.752,56.752,0,0,1-6.426-3.467h-5.715s-2.754,1.732-5.354,2.979c.227,1.938.594,4.992.735,7.5h16.538A43.378,43.378,0,0,1,381.034,270.824Z" transform="translate(-357.935 -267.357)"/><path class="ai" d="M381.034,270.824a56.752,56.752,0,0,1-6.426-3.467h-5.715s-2.754,1.732-5.354,2.979c.227,1.938.594,4.992.735,7.5h16.538A43.378,43.378,0,0,1,381.034,270.824Z" transform="translate(-357.935 -267.357)"/></g><path class="n" d="M374.33,254.646l-1.68,7.661s3.406,5.254,7.682.084l-1.638-7.973Z" transform="translate(-362.768 -254.419)"/></g><path class="aj" d="M0,0H14.478a0,0,0,0,1,0,0V8.7a7.239,7.239,0,0,1-7.239,7.239h0A7.239,7.239,0,0,1,0,8.7V0A0,0,0,0,1,0,0Z" transform="translate(6.716 4.451)"/><path class="p" d="M374.9,221.413a3.746,3.746,0,0,1-1.482,2.084,44.661,44.661,0,0,1-7.587,5.03,2.01,2.01,0,0,0-.863,1.127,7.637,7.637,0,0,1-.61-5.6,8.425,8.425,0,0,1,3.469-4.328,9.971,9.971,0,0,1,5.373-1.5,3.882,3.882,0,0,1,1.763.336,1.72,1.72,0,0,1,.989,1.412,1.771,1.771,0,0,1-.477,1.168,5.228,5.228,0,0,1-.991.822" transform="translate(-358.21 -218.226)"/><path class="p" d="M392.48,229.262a4.348,4.348,0,0,0-.273-2.9,6.26,6.26,0,0,0-1.84-2.291,4.734,4.734,0,0,0-3.686-1.168,2.2,2.2,0,0,0-.98.413,1.329,1.329,0,0,0-.517.907,1.95,1.95,0,0,0,.42,1.192c.569.857,1.292,1.6,1.941,2.4a17.072,17.072,0,0,1,2.012,3.119,2.429,2.429,0,0,0,.434.681C390.947,232.545,392.278,230,392.48,229.262Z" transform="translate(-369.417 -220.681)"/><path class="c" d="M15.587,4.571C15.458,9.038,12.3,12.8,8.127,12.8a7.4,7.4,0,0,1-7.2-8.224C3.255,2.943,10.8,3.069,15.587,4.571Z" transform="translate(5.789 8.696)"/><g transform="translate(7.718 10.055)"><ellipse class="ak" cx="2.71" cy="2.874" rx="2.71" ry="2.874"/><ellipse class="ak" cx="2.71" cy="2.874" rx="2.71" ry="2.874" transform="translate(7.149)"/><line class="al" x2="1.674" transform="translate(5.413 3.019)"/></g></g><path class="s" d="M486.881,232.434a7.789,7.789,0,0,0-2.3-.576,6.889,6.889,0,0,0-2.052.558,2.743,2.743,0,0,1-2.079.054,1.915,1.915,0,0,1-.979-1.486,3.34,3.34,0,0,1,.346-1.789c1.028-2.232,3.431-3.549,5.823-4.233a11.5,11.5,0,0,1,5.611-.355,6.383,6.383,0,0,1,4.406,3.223c.905,1.862.583,4.049.24,6.085-.041.242-.177.554-.422.507-.182-.035-.251-.25-.286-.429a20.757,20.757,0,0,0-.823-3.995,10.513,10.513,0,0,1-3.345,2.326A6.9,6.9,0,0,1,486.881,232.434Z" transform="translate(-403.696 -217.491)"/></g></g><g transform="translate(55.863 36.731)"><g class="i"><path class="am" d="M470.278,261.835H445.813v1.636h1.948v10.674h2.1V263.471h20.413Z" transform="translate(-441.711 -237.352)"/><g transform="translate(37.857 3.546)"><rect class="am" width="15.069" height="1.559" transform="translate(0.06 3.016)"/><rect class="am" width="15.069" height="1.559" transform="translate(0.06 7.432)"/><rect class="am" width="15.069" height="1.559" transform="translate(0.06 11.849)"/><rect class="am" width="15.069" height="1.559" transform="translate(0.06 16.266)"/><rect class="am" width="15.069" height="1.559" transform="translate(0.06 20.682)"/><rect class="am" width="33.413" height="1.532" transform="translate(0 33.413) rotate(-90)"/><rect class="am" width="33.413" height="1.532" transform="translate(14.029 33.413) rotate(-90)"/><rect class="am" width="15.069" height="1.559" transform="translate(0.06 25.099)"/></g><g transform="translate(12.654 4.138)"><path class="an" d="M482.782,239.5c.287,1-.035,1.973-.719,2.169s-1.471-.458-1.758-1.46.035-1.973.719-2.169S482.5,238.5,482.782,239.5Z" transform="translate(-472.611 -228.849)"/><path class="ao" d="M510.489,239.248c-.287,1,.035,1.973.719,2.169s1.471-.458,1.758-1.459-.035-1.973-.719-2.169S510.776,238.246,510.489,239.248Z" transform="translate(-488.626 -228.713)"/><g transform="translate(0 14.775)"><path class="ap" d="M494.762,271.472a7.933,7.933,0,0,0-5.32-6.008c-2.8-.886-8.093-.9-9.32-.8-1.228-.1-6.536-.065-9.259,1.024-3.321,1.327-4.8,3.4-5.382,5.789s-1.447,5.511-1.447,5.511h32.175S495.34,273.866,494.762,271.472Z" transform="translate(-464.033 -257.742)"/><path class="n" d="M490.559,250.185l-1.911,7.269s3.875,4.985,8.74.08l-1.864-7.565Z" transform="translate(-477.093 -249.969)"/></g><path class="o" d="M497.286,227.935c-.211.944.338,1.886.013,2.789-1.307,3.636-3.568,6.651-7.035,6.651-3.428,0-5.8-2.648-7.067-6.341-.333-.97.225-2.013.045-3.1-.852-5.143,2.694-9.44,7.022-9.44A7.6,7.6,0,0,1,497.286,227.935Z" transform="translate(-474.143 -218.495)"/><path class="c" d="M16.686,2.25c.352,6.455-3.233,9.565-7.511,9.565S1.2,7,2.9,2.6C9.645,4.421,10.584,4.714,16.686,2.25Z" transform="translate(6.652 7.024)"/></g><path class="aq" d="M485.331,219.563a6.882,6.882,0,0,0-3.311,8.022,1.61,1.61,0,0,0,.5.86.655.655,0,0,0,.9-.067,1.029,1.029,0,0,0,.1-.652,6.943,6.943,0,0,1,.23-2.318,5.483,5.483,0,0,1,2.164-2.976,6.418,6.418,0,0,0,.823-.586,1.211,1.211,0,0,0,.426-.884,1.5,1.5,0,0,0-.653-1.028,1.628,1.628,0,0,0-1.648-.433" transform="translate(-460.77 -214.839)"/><path class="ar" d="M505.627,220.982a2.044,2.044,0,0,0-.395,1.893,2.758,2.758,0,0,0,1.22,1.55,5.067,5.067,0,0,1,1.319.868,2.059,2.059,0,0,1,.42,1.139c.039.409.006.821.008,1.232a.928.928,0,0,0,.1.492.737.737,0,0,0,.9.183,1.668,1.668,0,0,0,.839-.867,3.575,3.575,0,0,0,.27-1.2,7.456,7.456,0,0,0-.521-3.49,5.924,5.924,0,0,0-2.235-2.7,2.256,2.256,0,0,0-1.121-.409,1.063,1.063,0,0,0-1,.547" transform="translate(-473.195 -214.981)"/><path class="as" d="M489.579,221.079a6.327,6.327,0,0,1-1.7.169,2.707,2.707,0,0,1-1.578-.586.918.918,0,0,1-.381-.89c.1-.334.459-.5.783-.63a3.831,3.831,0,0,1-1.522-.169,2.341,2.341,0,0,1-1.209-.91,1.031,1.031,0,0,1-.181-.8.544.544,0,0,1,.642-.4c.094.031.185.1.281.075a.228.228,0,0,0,.156-.23.667.667,0,0,0-.092-.284,2.062,2.062,0,0,1-.255-.732.7.7,0,0,1,.3-.675,1.122,1.122,0,0,1,.784-.01,20.114,20.114,0,0,0,4.35.186,9.122,9.122,0,0,1,4.255.751,2.9,2.9,0,0,1,1.43,1.4,1.681,1.681,0,0,1-.085,1.451c-.181.288-.48.353-.776.478-1.075.458-2.116.946-3.234,1.3A20.251,20.251,0,0,1,489.579,221.079Z" transform="translate(-461.849 -212.465)"/><g transform="translate(7.348 7.313)"><circle class="am" cx="4.027" cy="4.027" r="4.027"/><path class="at" d="M461.559,233.743a.581.581,0,1,1-.581-.581A.581.581,0,0,1,461.559,233.743Z" transform="translate(-456.798 -229.452)"/><path class="at" d="M461.238,230.163c-.019-.16-.055-3.505-.055-3.505s.231-.144.214.052.25,3.451.2,3.416" transform="translate(-457.215 -225.974)"/><path class="at" d="M458.774,234.545c-.1.008-2.125-.233-2.125-.233s-.052-.278.064-.243,2.122,0,2.093.062" transform="translate(-454.803 -229.932)"/></g></g></g><g transform="translate(41.597 68.506)"><path class="z" d="M409.574,278.814a1.444,1.444,0,1,1-1.444-1.444A1.444,1.444,0,0,1,409.574,278.814Z" transform="translate(-406.686 -277.37)"/><path class="z" d="M418.869,278.814a1.444,1.444,0,1,1-1.444-1.444A1.444,1.444,0,0,1,418.869,278.814Z" transform="translate(-411.617 -277.37)"/><circle class="z" cx="1.444" cy="1.444" r="1.444" transform="translate(8.726)"/></g><g transform="translate(98.071 68.506)"><circle class="z" cx="1.444" cy="1.444" r="1.444"/><path class="z" d="M539.174,278.814a1.444,1.444,0,1,1-1.445-1.444A1.444,1.444,0,0,1,539.174,278.814Z" transform="translate(-531.922 -277.37)"/><circle class="z" cx="1.444" cy="1.444" r="1.444" transform="translate(8.726)"/></g></g></g><g transform="translate(75.222 -100.189)"><g transform="translate(0 0)"><path class="au" d="M231.7,64.926a1.23,1.23,0,1,1-1.23-1.23A1.23,1.23,0,0,1,231.7,64.926Z" transform="translate(-225.76 -51.252)"/><line class="av" y2="10.824" transform="translate(4.712)"/><path class="c" d="M211.543,53.708h9.425a4.735,4.735,0,0,0-9.425,0Z" transform="translate(-211.543 -39.795)"/><g transform="translate(23.043)"><path class="au" d="M348.83,64.926a1.23,1.23,0,1,1-1.23-1.23A1.23,1.23,0,0,1,348.83,64.926Z" transform="translate(-342.887 -51.252)"/><line class="av" y2="10.824" transform="translate(4.712)"/><path class="c" d="M328.67,53.708h9.425a4.735,4.735,0,0,0-9.425,0Z" transform="translate(-328.67 -39.795)"/></g><g transform="translate(45.89)"><path class="au" d="M464.957,64.926a1.23,1.23,0,1,1-1.23-1.23A1.23,1.23,0,0,1,464.957,64.926Z" transform="translate(-459.014 -51.252)"/><g transform="translate(0)"><line class="av" y2="10.824" transform="translate(4.712)"/><path class="c" d="M444.8,53.708h9.424a4.735,4.735,0,0,0-9.424,0Z" transform="translate(-444.798 -39.795)"/></g></g></g></g><g transform="translate(30.171 20.089)"><g transform="translate(7.569)"><g transform="translate(0.486)"><g transform="translate(21.855 19.526)"><path class="aw" d="M186.334,291.229H170.248a1.18,1.18,0,0,0-1.18,1.179h16.9Z" transform="translate(-169.068 -279.98)"/><line class="ax" x1="6.869" y2="12.141" transform="translate(16.864)"/></g><g transform="translate(3.455)"><path class="ay" d="M118.868,176.567a1.229,1.229,0,1,0,1.041-1.393A1.23,1.23,0,0,0,118.868,176.567Z" transform="translate(-111.301 -169.457)"/><path class="az" d="M95.987,180.777l-.533,5.23-3.914-.973,1.763-7.817Z" transform="translate(-89.886 -171.069)"/><path d="M102.09,190.385s-2.773-1.171-2.441-3.838l2.663,1.681Z" transform="translate(-96.222 -178.383)"/><path class="az" d="M99.334,154.512a3.147,3.147,0,0,1,1.75,2.774,11.575,11.575,0,0,1-.516,4.423,3.214,3.214,0,0,1-4.283,1.62s-2.328-.609-2.481-4.159C93.616,154.821,96.94,153.359,99.334,154.512Z" transform="translate(-91.655 -152.971)"/><g transform="translate(2.383 3.671)"><path d="M123.538,176.168a.281.281,0,1,0,.25-.31A.281.281,0,0,0,123.538,176.168Z" transform="translate(-117.354 -173.672)"/><path d="M112.623,174.732a.281.281,0,1,0,.25-.31A.281.281,0,0,0,112.623,174.732Z" transform="translate(-108.797 -172.547)"/><path class="ba" d="M119.972,177.976l.135.824a.156.156,0,0,1-.136.18l-.3.034" transform="translate(-114.323 -175.334)"/><path d="M108.354,165.757s.892-.113.9.364c0,0,0,.323-.779.4s-1.083.032-1.155-.27S107.936,165.767,108.354,165.757Z" transform="translate(-104.638 -165.745)"/><path d="M123.825,166.854s-.786-.291-.925.159c0,0-.089.309.6.542.5.17.7.09.763-.116C124.341,167.194,124.124,166.935,123.825,166.854Z" transform="translate(-116.852 -166.542)"/><g transform="translate(0 2.478)"><path class="c" d="M103.189,181.27a13.029,13.029,0,0,0-5.1,2.266,3.83,3.83,0,0,0,3.675,1.332,3.483,3.483,0,0,0,2.45-2.7Z" transform="translate(-97.407 -180.395)"/><line class="bb" x2="1.97" y2="1.829" transform="translate(1.008)"/><line class="bb" x2="0.767" y2="1.32" transform="translate(0 1.777)"/></g></g><path d="M87.175,156.138a6.786,6.786,0,0,0,.939-3.847s2.985-.82,4.781.327c0,0-.214-2.529-4.311-2.527-5.609,0-6.156,5.747-1.87,7.3Z" transform="translate(-83.883 -149.802)"/><path d="M99.408,149.165s4.33-.842,5.493-.124-2.358,1.5-2.358,1.5Z" transform="translate(-96.055 -148.751)"/><path d="M111.267,155.037s1.7-.653,1.2-1.307c-.786-1.038-5.154-.3-5.154-.3Z" transform="translate(-102.255 -152.221)"/><g transform="translate(0.499 5.109)"><path class="az" d="M86.207,174.06a1.45,1.45,0,1,0,1.228-1.642A1.45,1.45,0,0,0,86.207,174.06Z" transform="translate(-86.192 -172.403)"/><path class="bc" d="M90.206,176.7a1.062,1.062,0,0,1,1.2,1.057" transform="translate(-89.339 -175.77)"/></g></g><g transform="translate(0 12.377)"><g transform="translate(8.437 8.361)"><path class="az" d="M106.948,254.052l12.238-3.525.808,2.987-8.486,4.17Z" transform="translate(-106.948 -249.281)"/><path class="az" d="M162.349,246.019s2.578-2.235,3.943-.709c.882.986.488,2.635-.339,3.7a1.98,1.98,0,0,1-2.579.4L162,248.546Z" transform="translate(-150.111 -244.773)"/><path class="az" d="M175.547,244.768s2.049-.307,3.57,2.627a.41.41,0,0,1-.227.571h0a.464.464,0,0,1-.537-.151,4.036,4.036,0,0,0-2.547-1.427Z" transform="translate(-160.73 -244.758)"/><path class="c" d="M122.81,249.705l1.1,4.764-6.069,2.571-3.415-4.1.469-.966Z" transform="translate(-112.814 -248.637)"/></g><path class="c" d="M73.483,209.889a11.746,11.746,0,0,0-5.547,9.278A38.545,38.545,0,0,0,69.08,230.68l9.95.577s-.207-7.138.025-11.485c.215-4.019-2.145-8.151-2.145-8.151Z" transform="translate(-67.887 -209.06)"/><g transform="translate(4.14)"><path class="c" d="M87.055,207.9l.969-1.847,3.914,2.562-2.215,1.3Z" transform="translate(-87.055 -206.051)"/><path class="bd" d="M91.938,215.317l-1,1.91L87.055,214.6" transform="translate(-87.055 -212.755)"/></g><g transform="translate(8.482 2.562)"><path class="be" d="M112.357,223.31s1.4,2.553,1.838,9.369l.586,6.249-1.08,2.226-1.291-1.974s1.153-8.641-.28-15.479Z" transform="translate(-111.055 -222.144)"/><path class="be" d="M107.157,218.94l1.571,1.1a2.093,2.093,0,0,0-1.03-2.126Z" transform="translate(-107.157 -217.912)"/></g><g transform="translate(2.561 3.686)"><path class="az" d="M159.054,280.858l-3.716-1.3v3.11l1.856.59,1.593.019h6.833C164.058,279.261,159.054,280.858,159.054,280.858Z" transform="translate(-139.009 -267.37)"/><path class="c" d="M90.5,232.276l-4.3-6.787c-.834-1.367-3.613-2.961-5-2.156a2.463,2.463,0,0,0-1.033,3.638l6.253,9.01a2.954,2.954,0,0,0,1.869,1.141l9.677,1.906.9-3.956Z" transform="translate(-79.743 -223.116)"/><path class="bd" d="M81.742,240.962l5.67,8.647a2.541,2.541,0,0,0,1.362,1.145" transform="translate(-81.31 -237.107)"/><path class="bd" d="M109.662,234.1l4.3,6.787,7.046,2.236" transform="translate(-103.199 -231.728)"/></g></g><g transform="translate(0.89 33.934)"><g transform="translate(2.848 4.139)"><g transform="translate(0 11.957)"><g transform="translate(0 4.888)"><path class="bf" d="M93.262,403l3.351,2.82,3.047,7.628-9.433-8.132Z" transform="translate(-89.138 -402.999)"/><g transform="translate(0 2.316)"><path class="c" d="M88.038,416.37a.769.769,0,0,0-1.072.105l-1.778-1.53,1.088-1.226,9.433,8.132-1.088,1.226-6.514-5.618,0,0A.771.771,0,0,0,88.038,416.37Z" transform="translate(-85.188 -413.719)"/></g><line class="bg" x1="1.35" y1="0.624" transform="translate(7.521 5.237)"/><line class="bg" x1="1.35" y1="0.624" transform="translate(6.912 3.783)"/></g><path class="c" d="M112.345,383.244l-3.415-2.874-4.652,4.888,3.415,2.874Z" transform="translate(-100.154 -380.37)"/></g><path d="M122.753,325.015l-11.391,13.051,5.718,4.13,12.387-12.545Z" transform="translate(-105.708 -325.015)"/></g><path class="au" d="M72.309,305.915s16.845-.111,25.211-.039a4.25,4.25,0,0,1,4.214,4.252h0a4.252,4.252,0,0,1-4.252,4.252H78.166c-1.547,0-3.674-.137-4.83-1.165C71.885,311.927,71.753,309.335,72.309,305.915Z" transform="translate(-72.005 -305.852)"/><g transform="translate(16.698 4.802)"><g transform="translate(0 16.341)"><g transform="translate(0 6.174)"><path class="bf" d="M150.34,432.323h4.379l7.243,3.874-12.453-.149Z" transform="translate(-149.465 -432.323)"/><g transform="translate(0 3.726)"><path class="c" d="M152.406,450.466a.769.769,0,0,0-.752.771l-2.345-.025.043-1.639,12.453.149-.043,1.639-8.6-.1v0A.771.771,0,0,0,152.406,450.466Z" transform="translate(-149.308 -449.572)"/></g><line class="bg" x1="1.435" y2="0.392" transform="translate(6.846 1.427)"/><line class="bg" x1="1.435" y2="0.392" transform="translate(5.444 0.707)"/></g><path class="c" d="M159.283,403.738h-4.464l-1.462,6.174h4.464Z" transform="translate(-152.483 -403.738)"/></g><g transform="translate(0.315)"><path class="au" d="M155.568,328.084l-4.8,19.31h7.1l5.486-18.769Z" transform="translate(-150.768 -328.084)"/></g></g></g></g><g transform="translate(0 42.269)"><g transform="translate(1.146 1.769)"><line class="bh" x1="5.766" y2="22.696"/><line class="bh" x2="5.766" y2="22.696" transform="translate(11.565)"/></g><rect class="bi" width="19.753" height="2.865" rx="1.433"/></g></g><g transform="translate(87.25 2.902)"><g transform="translate(33.381 39.587)"><g transform="translate(1.146 1.769)"><line class="bh" x1="5.766" y2="22.475"/><line class="bh" x2="5.766" y2="22.475" transform="translate(11.565)"/></g><path class="bi" d="M607.387,348.326H590.5a1.432,1.432,0,0,1-1.433-1.432h0a1.433,1.433,0,0,1,1.433-1.433h16.888a1.433,1.433,0,0,1,1.432,1.433h0A1.432,1.432,0,0,1,607.387,348.326Z" transform="translate(-589.066 -345.461)"/></g><g transform="translate(0 16.251)"><path d="M535.886,292.532H525.329v-1.191h10.557a.6.6,0,0,1,.6.6h0A.6.6,0,0,1,535.886,292.532Z" transform="translate(-505.716 -279.695)"/><path class="au" d="M455.53,250.261H440.373a1.794,1.794,0,0,1-1.729-1.313l-4.095-10.74a.618.618,0,0,1,.6-.784h15.336a.737.737,0,0,1,.713.55Z" transform="translate(-434.527 -237.423)"/><path class="c" d="M474.51,263.479a1.323,1.323,0,1,1-1.323-1.323A1.323,1.323,0,0,1,474.51,263.479Z" transform="translate(-463.798 -256.814)"/></g><g transform="translate(8.191)"><g transform="translate(0 31.823)"><g transform="translate(0 5.431)"><g transform="translate(0 13.545)"><path class="bj" d="M514.351,399.285l-4.634,6.839-2.6-1.034,4.083-7.722Z" transform="translate(-499.629 -397.367)"/><g transform="translate(0 6.672)"><path class="be" d="M475.8,428.884l-2.651-.612a.566.566,0,0,0-.673.314c-.077.2-.029.483.4.827.951.765,5.7,3.454,5.7,3.454l-.326.42,2.142,1.328s1.787-2.016,1.426-2.795Z" transform="translate(-472.449 -428.255)"/><path class="bj" d="M492.711,431.483l-4.793-.316s-.294,1.072,1.615,1.687,4.4,1.25,4.4,1.25l.714-1.481Z" transform="translate(-484.564 -430.538)"/></g></g><path class="bk" d="M523.939,334.66l-8.1,15.374,4.86,2.971,9.144-13.648Z" transform="translate(-506.47 -334.66)"/></g><g transform="translate(13.908)"><path class="bl" d="M553.08,309.516l-13.955,2.873a2.91,2.91,0,0,0-1.977,4.145h0c.525,1.049,1.628,2.147,2.8,2.068l21.6-1.345a5.637,5.637,0,0,0,2.105-7.538Z" transform="translate(-536.838 -309.516)"/><g transform="translate(0.443 4.429)"><g transform="translate(8.491 13.35)"><path class="bj" d="M582.038,391.825l3.16,6.07-2.146,1.8-4.854-7.263Z" transform="translate(-578.199 -391.825)"/><g transform="translate(0.558 6.07)"><path class="be" d="M582.74,430l-1.8,2.041a.566.566,0,0,0-.043.742c.143.164.411.255.917.042,1.125-.474,5.749-3.375,5.749-3.375l.214.486,2.186-1.254s-.924-2.531-1.781-2.583Z" transform="translate(-580.78 -424.762)"/><path class="bj" d="M592.412,421.091l-2.556,4.067s.8.768,2.252-.619,3.193-3.282,3.193-3.282l-.964-1.333Z" transform="translate(-587.896 -419.925)"/></g></g><path class="bl" d="M538.891,332.847l9.58,14.509,5.5-2.683-7.612-14.652Z" transform="translate(-538.891 -330.021)"/></g></g></g><g transform="translate(14.013 2.643)"><path class="c" d="M574.723,229.534l-11.17,2.382a2.293,2.293,0,0,0-1.661,3.068h0a2.292,2.292,0,0,0,2.6,1.419l11.185-2.313a2.328,2.328,0,0,0,1.784-2.854h0A2.328,2.328,0,0,0,574.723,229.534Z" transform="translate(-556.464 -217.59)"/><path class="bm" d="M559.645,204.072l-1.975-7.053-1.916.054.722,7.354Z" transform="translate(-551.773 -192.138)"/><path class="bm" d="M543.3,178.87v-.442a3.79,3.79,0,0,0-.406-1.708l-.47-.933a.4.4,0,0,0-.6-.143h0a.513.513,0,0,0-.193.542l.276,1.074-2.668-2.736a.31.31,0,0,0-.466.012l-.081.1a.311.311,0,0,0,0,.394l1.729,1.905-2.288-1.914a.311.311,0,0,0-.464.041l-.055.074a.311.311,0,0,0,.036.41l1.928,1.806-1.765-1.049a.311.311,0,0,0-.459.155l-.014.038a.311.311,0,0,0,.1.354l1.755,1.221-1.047-.42a.311.311,0,0,0-.465.246h0a.311.311,0,0,0,.13.276l4.463,3.02.65-1.034A2.42,2.42,0,0,0,543.3,178.87Z" transform="translate(-537.324 -174.424)"/><path class="bn" d="M557.58,187.555a2.043,2.043,0,0,0-.156,1.729" transform="translate(-552.991 -184.719)"/><g transform="translate(4.703 11.934)"><path class="c" d="M559.692,234.647l-.6-4.62,3.169-.355,1.591,5.525Z" transform="translate(-559.095 -229.672)"/><line class="bd" x2="0.859" y2="2.676" transform="translate(3.655 1.32)"/></g><g transform="translate(15.215 11.666)"><path class="c" d="M620.67,231.557a1.7,1.7,0,0,0-1.076-1.9l-3.277-1.221-3.336.211h-1.447a1.794,1.794,0,0,0-1.516.834l-1.575,2.237a3.87,3.87,0,0,0-.587,2.4l1,7.4-.008,0s.03,2.216-.1,4.433c0,0,5.933,1.229,10.568.2a25.9,25.9,0,0,1-.477-5.711Z" transform="translate(-607.824 -228.434)"/><path class="bm" d="M631.787,228.434l-4.213,3.006.877-2.8Z" transform="translate(-623.294 -228.434)"/><path class="bd" d="M607.792,243.42a3.393,3.393,0,0,1,1.346-3.114" transform="translate(-607.761 -237.742)"/></g><g transform="translate(5.228 12.791)"><g transform="translate(15.976)"><path class="c" d="M638.245,235.42l-2.69,11.1a2.293,2.293,0,0,0,2.046,2.826h0a2.293,2.293,0,0,0,2.407-1.732l2.758-11.083a2.328,2.328,0,0,0-1.8-2.844h0A2.328,2.328,0,0,0,638.245,235.42Z" transform="translate(-635.49 -233.64)"/><line class="bd" y1="7.823" x2="1.666" transform="translate(0.298 4.098)"/></g><g transform="translate(0 11.563)"><path class="bm" d="M594.232,289.351l-7.222.068-.42,1.788,7.274,1.2Z" transform="translate(-581.176 -288.881)"/><path class="bm" d="M568.006,287.873a5.577,5.577,0,0,0-6.125.515.809.809,0,0,0-.349.679h0c.033.375.347.433.723.433h4.687Z" transform="translate(-561.529 -287.173)"/><g transform="translate(12.687 0.141)"><path class="c" d="M625.665,292.615l-5.4-.619.382-3.166,6.113.03Z" transform="translate(-620.265 -288.613)"/><line class="bd" y1="0.113" x2="5.041" transform="translate(0.368 0.217)"/><path class="bd" d="M620.265,291.207l5.089.649a2.534,2.534,0,0,0,2.788-1.936l.563-2.1" transform="translate(-620.265 -287.824)"/></g></g></g></g><g transform="translate(29.566)"><circle class="au" cx="2.69" cy="2.69" r="2.69" transform="translate(8.825)"/><circle class="be" cx="2.325" cy="2.325" r="2.325" transform="translate(6.281 1.977)"/><ellipse class="au" cx="4.534" cy="4.327" rx="4.534" ry="4.327" transform="translate(1.527 1.286)"/><path class="bo" d="M615.412,191.773a1.173,1.173,0,1,1-.783-1.463A1.173,1.173,0,0,1,615.412,191.773Z" transform="translate(-612.298 -184.196)"/><path class="bm" d="M630.086,198.631l.388,5.291,3.283-.943-.99-7.013Z" transform="translate(-625.602 -188.67)"/><path class="au" d="M630.259,204.968s2.7-1.754,2.617-3.819l-2.79,1.709Z" transform="translate(-625.602 -192.733)"/><path class="bm" d="M616.318,172.8a1.713,1.713,0,0,0-.56.98c-.224,1.122-.665,3.1-.268,4.291a3.133,3.133,0,0,0,3.808,2.261A3.613,3.613,0,0,0,622.236,177C623.034,172.085,618.852,170.66,616.318,172.8Z" transform="translate(-614.034 -169.751)"/><g transform="translate(0 4.276)"><path class="au" d="M617.379,190.655a.269.269,0,1,1-.191-.328A.268.268,0,0,1,617.379,190.655Z" transform="translate(-615.226 -188.518)"/><path class="au" d="M627.882,190.866a.269.269,0,1,1-.191-.328A.269.269,0,0,1,627.882,190.866Z" transform="translate(-623.461 -188.683)"/><path class="bn" d="M621.013,194.861l-.187.51a.122.122,0,0,0,.088.145l.289.054" transform="translate(-618.34 -192.08)"/><path class="au" d="M627.552,182.013s-.832-.147-.876.235c0,0-.023.26.7.372s1.018.094,1.108-.144S627.946,182.048,627.552,182.013Z" transform="translate(-622.929 -181.985)"/><path class="au" d="M615.6,182.141s.725-.158.829.208c0,0,.065.25-.572.371-.464.088-.637.008-.684-.16C615.114,182.361,615.323,182.178,615.6,182.141Z" transform="translate(-613.901 -182.081)"/><g transform="translate(0 0.593)"><path class="bp" d="M624.075,186.2a1.425,1.425,0,1,0,1.408-1.473A1.44,1.44,0,0,0,624.075,186.2Z" transform="translate(-620.889 -184.731)"/><path class="bp" d="M609.329,186.542a1.232,1.232,0,1,0,1.2-1.412A1.319,1.319,0,0,0,609.329,186.542Z" transform="translate(-609.328 -185.043)"/><path class="bp" d="M621.377,190.964a.512.512,0,0,0-.743,0" transform="translate(-618.192 -189.492)"/><line class="bp" x2="1.273" y2="0.484" transform="translate(6.035 1.44)"/></g><g transform="translate(1.456 2.517)"><path class="c" d="M617.063,196.668a10.679,10.679,0,0,1,4.688,2.065s-.719,1.626-3.156,1.234a3.21,3.21,0,0,1-2.525-2.425Z" transform="translate(-616.07 -196.013)"/><line class="bb" x1="2.055" y2="1.608" transform="translate(3.797)"/><line class="bb" x1="0.799" y2="0.891" transform="translate(5.506 1.899)"/></g></g><path class="au" d="M637.035,176.22c-.193.081-3.744-2.056-1.943-4.381,0,0,2.7.634,2.545,4.379Z" transform="translate(-629.129 -169.755)"/><path class="au" d="M642.483,186.46l.232,2.455.847-2.247Z" transform="translate(-635.321 -181.217)"/><g transform="translate(7.161 6.106)"><path class="bm" d="M645.269,192.3a1.424,1.424,0,1,1-.949-1.775A1.424,1.424,0,0,1,645.269,192.3Z" transform="translate(-642.483 -190.459)"/><path class="bn" d="M647.253,195a1.043,1.043,0,0,0-1.322.849" transform="translate(-645.186 -193.99)"/></g><path class="au" d="M619.821,168.046s-3.9-.455-4.84,2.414H622A2.762,2.762,0,0,0,619.821,168.046Z" transform="translate(-613.76 -166.76)"/></g></g></g><g transform="translate(0 31.955)"><g transform="translate(22.172)"><rect class="bq" width="98.662" height="3.591"/><g transform="translate(3.467 1.796)"><rect class="bq" width="5.317" height="33.01"/><rect class="bi" width="5.317" height="1.284" transform="translate(0 1.796)"/></g><g transform="translate(90.01 1.796)"><rect class="bq" width="5.317" height="33.01"/><rect class="bi" width="5.317" height="1.284" transform="translate(0 1.796)"/></g></g><line class="b" x2="147.405" transform="translate(0 34.81)"/></g></g><g transform="translate(68.855 12.696)"><g transform="translate(0.363 10.686)"><g transform="translate(0 2.552)"><line class="br" x2="8.807" transform="translate(0.234 1.48)"/><path class="au" d="M212.892,178.58l-1.525-1.288,1.525-1.48Z" transform="translate(-211.367 -175.812)"/></g><g transform="translate(52.278 2.552)"><line class="br" x1="8.807" transform="translate(0 1.288)"/><path class="au" d="M488.189,175.812l1.525,1.288-1.525,1.48Z" transform="translate(-480.672 -175.812)"/></g><rect class="bl" width="39.596" height="8.04" transform="translate(10.786)"/><text class="bs" transform="translate(19.009 5.434)"><tspan x="0" y="0">1-2 meter</tspan></text></g><text class="bt" transform="translate(0.372 8.119)"><tspan x="0" y="0">social </tspan><tspan class="au" y="0">distancing</tspan></text></g></g></svg>