<svg id="Capa_1" data-name="Capa 1" xmlns="http://www.w3.org/2000/svg" viewBox="0 0 22 22"><defs><style>.cls-1{fill:#a8474f;}</style></defs><title>info</title><path class="cls-1" d="M9.42,6.15c.05.1.1.2.15.28s.13.15.18.23a3,3,0,0,0,.25.23,1,1,0,0,0,.31.15,1.06,1.06,0,0,0,.33.1,1.35,1.35,0,0,0,.33,0,1.31,1.31,0,0,0,.34,0,.85.85,0,0,0,.28-.1h0a1.39,1.39,0,0,0,.31-.18,2.05,2.05,0,0,0,.23-.2l0,0a1.24,1.24,0,0,0,.17-.23.55.55,0,0,0,.13-.25s0,0,0-.05a2.19,2.19,0,0,0,.1-.34,1.83,1.83,0,0,0,0-.33,1.83,1.83,0,0,0,0-.33,3,3,0,0,0-.1-.33,1.38,1.38,0,0,0-.31-.46l0,0a2,2,0,0,0-.26-.21l-.28-.15a1.18,1.18,0,0,0-.3-.1,1.38,1.38,0,0,0-.34,0,1.23,1.23,0,0,0-.33,0,1.18,1.18,0,0,0-.3.1h0L10,4.05a3,3,0,0,0-.26.21,1.43,1.43,0,0,0-.2.23,1.77,1.77,0,0,0-.15.28,1.82,1.82,0,0,0-.11.3,2.06,2.06,0,0,0,0,.34,1.83,1.83,0,0,0,0,.33A2.52,2.52,0,0,0,9.42,6.15Z"/><path class="cls-1" d="M13,15.5h-.59V9.24a.66.66,0,0,0-.66-.67H9a.66.66,0,0,0-.66.67v1.38a.66.66,0,0,0,.66.66h.54v4.24H9a.66.66,0,0,0-.66.67v1.38a.66.66,0,0,0,.66.66H13a.66.66,0,0,0,.66-.66V16.19A.68.68,0,0,0,13,15.5Z"/><path class="cls-1" d="M11,0A11,11,0,1,0,22,11,11,11,0,0,0,11,0Zm0,20.55A9.55,9.55,0,1,1,20.55,11,9.56,9.56,0,0,1,11,20.55Z"/></svg>