<svg xmlns="http://www.w3.org/2000/svg" width="14" height="19.911" viewBox="0 0 14 19.911">
  <g id="Group_245" data-name="Group 245" transform="translate(-76)">
    <g id="Group_242" data-name="Group 242" transform="translate(76)">
      <g id="Group_241" data-name="Group 241" transform="translate(0)">
        <path id="Path_412" data-name="Path 412" d="M83,0a7,7,0,0,0-5.955,10.681L82.6,19.635a.583.583,0,0,0,.5.276h0a.583.583,0,0,0,.5-.284l5.415-9.041A7,7,0,0,0,83,0Zm5.011,9.987-4.923,8.22-5.052-8.141a5.837,5.837,0,1,1,9.975-.079Z" transform="translate(-76)" fill="#605f5f"/>
      </g>
    </g>
    <g id="Group_244" data-name="Group 244" transform="translate(79.5 3.5)">
      <g id="Group_243" data-name="Group 243" transform="translate(0)">
        <path id="Path_413" data-name="Path 413" d="M169.5,90a3.5,3.5,0,1,0,3.5,3.5A3.5,3.5,0,0,0,169.5,90Zm0,5.841a2.341,2.341,0,1,1,2.337-2.341A2.343,2.343,0,0,1,169.5,95.841Z" transform="translate(-166 -90)" fill="#605f5f"/>
      </g>
    </g>
  </g>
</svg>
