<svg xmlns="http://www.w3.org/2000/svg" xmlns:xlink="http://www.w3.org/1999/xlink" width="81.646" height="81.646" viewBox="0 0 81.646 81.646"><defs><style>.a{fill:#fff;}.b{fill:#56ace0;}.c{fill:#194f82;}.d{fill:#ffc10d;}.e{filter:url(#a);}</style><filter id="a" x="0" y="0" width="81.646" height="81.646" filterUnits="userSpaceOnUse"><feOffset dy="5" input="SourceAlpha"/><feGaussianBlur stdDeviation="2" result="b"/><feFlood flood-opacity="0.031"/><feComposite operator="in" in2="b"/><feComposite in="SourceGraphic"/></filter></defs><g transform="translate(-129 -541)"><g class="e" transform="matrix(1, 0, 0, 1, 129, 541)"><circle class="a" cx="34.823" cy="34.823" r="34.823" transform="translate(6 1)"/></g><g transform="translate(152 558.928)"><path class="a" d="M37.131,48.517,36.674,44.1a.938.938,0,0,1,.212-.709l5.63-6.917V22.84a.854.854,0,0,0-.852-.852h-18.9a.854.854,0,0,0-.852.852V48.014h3.858a.965.965,0,0,1,.966.966v3.858H41.67a.854.854,0,0,0,.852-.852V48.94l-4.327.452A1,1,0,0,1,37.131,48.517Z" transform="translate(-19.977 -19.977)"/><path class="b" d="M56.622,63.126a.938.938,0,0,0-.212.709l.457,4.419a.967.967,0,0,0,1.058.863l2.406-.251v.817a.96.96,0,0,1-.966.96H46.476V68.7a.965.965,0,0,0-.966-.966H43.572V53.162h.566a.963.963,0,1,0,0-1.926h-.566V49.521h2.567a.963.963,0,0,0,0-1.926H43.578V44.611a.965.965,0,0,1,.966-.966H59.371a.965.965,0,0,1,.966.966V58.564Z" transform="translate(-39.719 -39.719)"/><path class="a" d="M121.319,77.344a1.658,1.658,0,1,0-1.658-1.658A1.659,1.659,0,0,0,121.319,77.344Z" transform="translate(-109.08 -67.417)"/><path class="c" d="M101.4,59.357a3.59,3.59,0,1,0-3.59-3.59A3.592,3.592,0,0,0,101.4,59.357Zm0-5.253a1.658,1.658,0,1,1-1.658,1.658A1.659,1.659,0,0,1,101.4,54.1Z" transform="translate(-89.161 -47.498)"/><path class="d" d="M92.266,163.047a4.585,4.585,0,0,0-4.476,3.613h8.951A4.589,4.589,0,0,0,92.266,163.047Z" transform="translate(-80.027 -148.564)"/><g transform="translate(5.013 12.551)"><path class="c" d="M77.85,147.552a6.506,6.506,0,0,0-13.01.149.965.965,0,0,0,.966.966H76.9a.965.965,0,0,0,.966-.966C77.856,147.65,77.856,147.6,77.85,147.552Zm-10.981-.812a4.579,4.579,0,0,1,8.951,0Z" transform="translate(-64.12 -141.196)"/><path class="c" d="M65.366,261.884H57.661a.966.966,0,0,1,0-1.932h7.705a.966.966,0,0,1,0,1.932Z" transform="translate(-56.695 -249.451)"/><path class="c" d="M101.02,313.86H96.773a.966.966,0,1,1,0-1.932h4.247a.966.966,0,1,1,0,1.932Z" transform="translate(-92.349 -296.832)"/></g><path class="a" d="M38.768,339.577v-1.532H37.236Z" transform="translate(-33.944 -308.088)"/><g transform="translate(18.783 10.917)"><path class="d" d="M330.929,123.2a2.165,2.165,0,0,0-2.978.234l3.361,2.732A2.174,2.174,0,0,0,330.929,123.2Z" transform="translate(-317.736 -122.71)"/><path class="d" d="M218.828,158l3.384,2.755,8.414-10.346-3.378-2.744Z" transform="translate(-218.262 -145.455)"/><path class="d" d="M212.617,289.318l1.892-.189-2.081-1.7Z" transform="translate(-212.428 -272.862)"/></g><path class="c" d="M33.194,9.9a4.115,4.115,0,0,0-5.779.594l-2.944,3.624V2.862A2.793,2.793,0,0,0,21.681.073H2.789A2.793,2.793,0,0,0,0,2.862V28.236A2.758,2.758,0,0,0,.812,30.2l3.756,3.756a2.758,2.758,0,0,0,1.966.812H21.676a2.793,2.793,0,0,0,2.789-2.789V27.122l9.317-11.449A4.086,4.086,0,0,0,33.194,9.9ZM22.539,31.992a.854.854,0,0,1-.852.852H6.756V28.985a.965.965,0,0,0-.966-.966H1.926V2.862a.854.854,0,0,1,.852-.852h18.9a.854.854,0,0,1,.852.852V16.5L16.9,23.412a.938.938,0,0,0-.212.709l.457,4.419A.967.967,0,0,0,18.2,29.4l4.327-.452V32h.011v-.006Zm-17.714-.5L3.287,29.951H4.824ZM31.976,11.4a2.174,2.174,0,0,1,.383,2.967L29,11.637A2.159,2.159,0,0,1,31.976,11.4Zm-.829,4.464-8.42,10.346-3.384-2.749,8.42-10.346ZM18.972,27.373l-.2-1.892,2.086,1.692Z"/></g></g></svg>