<svg xmlns="http://www.w3.org/2000/svg" width="33.34" height="31.206" viewBox="0 0 33.34 31.206">
  <g id="Group_1298" data-name="Group 1298" transform="translate(-2851.042 -1406.409)">
    <path id="Path_10790" data-name="Path 10790" d="M2855.981,1437.614a4.912,4.912,0,0,1-4.939-4.926v-19.3a4.9,4.9,0,0,1,4.889-4.84h4.681v-1.46a.686.686,0,0,1,0-.14.6.6,0,0,1,.6-.536l.136,0a.638.638,0,0,1,.494.207.592.592,0,0,1,.144.436v1.489h11.491v-1.46a.67.67,0,1,1,1.34,0v1.46h4.73a4.89,4.89,0,0,1,4.839,4.935v19.205a4.922,4.922,0,0,1-4.889,4.93Zm-3.6-4.929a3.678,3.678,0,0,0,3.591,3.6h23.469a3.678,3.678,0,0,0,3.6-3.591v-14.28h-30.661Zm3.591-22.8a3.676,3.676,0,0,0-3.59,3.59v3.61h30.661v-3.6a3.68,3.68,0,0,0-3.591-3.6h-4.67v1.461a.67.67,0,0,1-1.144.473.659.659,0,0,1-.2-.472v-1.462h-11.461v1.577a.6.6,0,0,1-.595.556l-.223,0a.6.6,0,0,1-.554-.644l0-1.491h-4.64Z" fill="#2c2f33"/>
    <path id="Path_10791" data-name="Path 10791" d="M2858.116,1432.284a1.551,1.551,0,0,1-1.192-.531,1.923,1.923,0,0,1-.563-1.266,1.514,1.514,0,0,1,.507-1.174l.085-.084a1.722,1.722,0,1,1,2.373,2.5,1.57,1.57,0,0,1-1.191.56Z" fill="#2c2f33"/>
    <path id="Path_10792" data-name="Path 10792" d="M2858.042,1425.886a1.544,1.544,0,0,1-1.144-.509,1.574,1.574,0,0,1-.537-1.22,1.537,1.537,0,0,1,.507-1.2l.1-.095a1.66,1.66,0,0,1,2.347.072,1.91,1.91,0,0,1,.531,1.234,1.88,1.88,0,0,1-.529,1.2,1.55,1.55,0,0,1-1.151.518Z" fill="#2c2f33"/>
    <path id="Path_10793" data-name="Path 10793" d="M2864.469,1432.285a1.537,1.537,0,0,1-1.164-.532l-.087-.087a1.673,1.673,0,0,1,.059-2.361l.076-.076a1.722,1.722,0,0,1,2.374,2.5,1.574,1.574,0,0,1-1.192.56Z" fill="#2c2f33"/>
    <path id="Path_10794" data-name="Path 10794" d="M2864.442,1425.886a1.543,1.543,0,0,1-1.143-.509,1.915,1.915,0,0,1-.538-1.249,1.886,1.886,0,0,1,.529-1.2l.074-.075a1.66,1.66,0,0,1,2.347.072,1.667,1.667,0,0,1,0,2.438,1.549,1.549,0,0,1-1.15.518Z" fill="#2c2f33"/>
    <path id="Path_10795" data-name="Path 10795" d="M2870.868,1432.285a1.539,1.539,0,0,1-1.164-.532l-.089-.09a1.722,1.722,0,0,1,1.248-2.908,1.7,1.7,0,0,1,1.248.535,1.537,1.537,0,0,1,.532,1.234,1.794,1.794,0,0,1-1.743,1.761Z" fill="#2c2f33"/>
    <path id="Path_10796" data-name="Path 10796" d="M2870.842,1425.886a1.544,1.544,0,0,1-1.144-.509,1.669,1.669,0,0,1-.009-2.445l.075-.075a1.659,1.659,0,0,1,2.346.072,1.9,1.9,0,0,1,.533,1.234,1.787,1.787,0,0,1-1.743,1.722Z" fill="#2c2f33"/>
    <path id="Path_10797" data-name="Path 10797" d="M2877.316,1432.284a1.551,1.551,0,0,1-1.168-.507,1.9,1.9,0,0,1-.537-1.248,1.522,1.522,0,0,1,.467-1.224l.075-.076a1.722,1.722,0,1,1,2.373,2.5,1.57,1.57,0,0,1-1.191.56Z" fill="#2c2f33"/>
    <path id="Path_10798" data-name="Path 10798" d="M2877.291,1425.885a1.543,1.543,0,0,1-1.143-.508,1.737,1.737,0,0,1-.057-2.446l.073-.074a1.66,1.66,0,0,1,2.347.072,1.905,1.905,0,0,1,.531,1.234,1.785,1.785,0,0,1-1.741,1.722Z" fill="#2c2f33"/>
  </g>
</svg>
