<svg xmlns="http://www.w3.org/2000/svg" width="19.419" height="12.314" viewBox="0 0 19.419 12.314">
  <g id="Group_4184" data-name="Group 4184" transform="translate(-311.547 -312.745)">
    <path id="Path_11063" data-name="Path 11063" d="M296.541,372.609c1.437,3.562,5.311,5.937,9.686,5.937s8.311-2.375,9.686-5.937a.683.683,0,0,0,0-.5c-1.375-3.5-5.249-5.877-9.624-5.877s-8.311,2.377-9.748,5.939Zm9.749-5.125c3.75,0,7.125,1.938,8.436,4.874-1.313,2.938-4.687,4.874-8.436,4.874s-7.124-1.938-8.436-4.874c1.312-2.936,4.624-4.874,8.436-4.874Z" transform="translate(15.006 -53.487)" fill="#0ea2c8"/>
    <path id="Path_11065" data-name="Path 11065" d="M307.242,376.5a3.687,3.687,0,1,0-3.688-3.687h0A3.734,3.734,0,0,0,307.242,376.5Zm0-6.187a2.437,2.437,0,1,1-2.437,2.44h0a2.526,2.526,0,0,1,2.437-2.437Z" transform="translate(14.054 -53.88)" fill="#0ea2c8"/>
  </g>
</svg>
