<svg xmlns="http://www.w3.org/2000/svg" width="19.47" height="21.331" viewBox="0 0 19.47 21.331">
  <g id="Group_4185" data-name="Group 4185" transform="translate(-311.53 -327.249)">
    <path id="Path_11059" data-name="Path 11059" d="M296.568,394.635c1.437,3.562,5.311,5.937,9.686,5.937s8.308-2.375,9.69-5.937a.683.683,0,0,0,0-.5c-1.441-3.562-5.316-5.937-9.689-5.937s-8.312,2.375-9.687,5.937a.691.691,0,0,0,0,.5Zm9.686-5.125c3.75,0,7.124,1.938,8.436,4.874-1.313,2.938-4.687,4.874-8.436,4.874s-7.124-1.938-8.436-4.874c1.313-2.937,4.687-4.873,8.437-4.873Z" transform="translate(15.009 -56.47)" fill="#0ea2c8"/>
    <path id="Path_11061" data-name="Path 11061" d="M307.2,398.465a3.687,3.687,0,1,0,0-7.374,3.735,3.735,0,0,0-3.687,3.687h0a3.654,3.654,0,0,0,3.621,3.688Zm0-6.125a2.437,2.437,0,1,1-2.437,2.437,2.437,2.437,0,0,1,2.437-2.437Z" transform="translate(14.059 -56.863)" fill="#0ea2c8"/>
    <g id="Layer_4" data-name="Layer 4" transform="translate(315.734 328.135)">
      <line id="Line_32" data-name="Line 32" y1="19.56" x2="11.061" fill="none" stroke="#0ea2c8" stroke-linecap="round" stroke-miterlimit="10" stroke-width="1.3"/>
    </g>
  </g>
</svg>
