<svg xmlns="http://www.w3.org/2000/svg" xmlns:xlink="http://www.w3.org/1999/xlink" width="40" height="40" viewBox="0 0 40 40"><defs><style>.a{fill:url(#a);}.b{fill:#fff;}</style><linearGradient id="a" x1="0.5" x2="0.5" y2="1" gradientUnits="objectBoundingBox"><stop offset="0" stop-color="#79e893"/><stop offset="1" stop-color="#00c4c1"/></linearGradient></defs><circle class="a" cx="20" cy="20" r="20"/><g transform="translate(10.956 9.721)"><path class="b" d="M60.032,44.986h.135A3.882,3.882,0,0,0,63.132,43.7c1.619-1.826,1.35-4.955,1.321-5.254a4.291,4.291,0,0,0-2.04-3.815,4.676,4.676,0,0,0-2.263-.593h-.072a4.685,4.685,0,0,0-2.263.576,4.293,4.293,0,0,0-2.065,3.832c-.03.3-.3,3.428,1.321,5.254a3.866,3.866,0,0,0,2.961,1.283Zm-3.159-6.432c0-.012,0-.025,0-.034.139-3.016,2.28-3.34,3.2-3.34h.05c1.136.025,3.067.488,3.2,3.34a.08.08,0,0,0,0,.034c0,.029.3,2.89-1.039,4.4a2.757,2.757,0,0,1-2.166.9h-.042a2.749,2.749,0,0,1-2.162-.9c-1.334-1.5-1.047-4.371-1.043-4.4Zm0,0" transform="translate(-51.467 -34.041)"/><path class="b" d="M55.287,84.714V84.7c0-.034,0-.067,0-.105-.025-.833-.08-2.781-1.905-3.4l-.042-.013a12.138,12.138,0,0,1-3.491-1.59.568.568,0,0,0-.652.93,13.109,13.109,0,0,0,3.841,1.754c.98.349,1.089,1.4,1.119,2.356a.823.823,0,0,0,0,.105,7.659,7.659,0,0,1-.088,1.3,15.481,15.481,0,0,1-7.416,1.725,15.572,15.572,0,0,1-7.42-1.729,7.222,7.222,0,0,1-.088-1.3c0-.034,0-.067,0-.105.03-.959.139-2.006,1.119-2.356a13.207,13.207,0,0,0,3.84-1.754.568.568,0,0,0-.652-.93,12,12,0,0,1-3.491,1.59l-.042.012c-1.825.627-1.88,2.574-1.905,3.4a.87.87,0,0,1,0,.105v.013a6.446,6.446,0,0,0,.215,1.905.538.538,0,0,0,.219.265,15.908,15.908,0,0,0,8.211,2.011,15.955,15.955,0,0,0,8.211-2.011.564.564,0,0,0,.219-.265,6.777,6.777,0,0,0,.2-1.9Zm0,0" transform="translate(-38.01 -68.578)"/></g></svg>