<svg xmlns="http://www.w3.org/2000/svg" width="13.963" height="13.962" viewBox="0 0 13.963 13.962"><defs><style>.a{fill:#fff;}</style></defs><g transform="translate(-0.002 -0.02)"><g transform="translate(0.002 0.76)"><g transform="translate(0)"><path class="a" d="M12.927,36.755,11.2,34.967l0,0a1.226,1.226,0,0,0-1.735,0l-.789.789a.929.929,0,0,1-1.315,0h0L4.612,33.072a.929.929,0,0,1,0-1.315l.789-.789a1.228,1.228,0,0,0,0-1.735L3.665,27.5a1.229,1.229,0,0,0-1.735,0l-.578.578-.053.053a4.422,4.422,0,0,0,0,6.258l4.742,4.677a4.422,4.422,0,0,0,6.252.006l.632-.583A1.229,1.229,0,0,0,12.927,36.755ZM2.508,28.076a.409.409,0,0,1,.578,0l1.735,1.735a.409.409,0,0,1,0,.578l-.289.289L2.219,28.365ZM6.619,38.485,1.877,33.808a3.6,3.6,0,0,1-.226-4.853L3.957,31.26a1.75,1.75,0,0,0,.077,2.39L6.778,36.33a1.746,1.746,0,0,0,2.389.076l2.306,2.306A3.6,3.6,0,0,1,6.619,38.485Zm5.732-.581-.275.253L9.748,35.83l.289-.289a.409.409,0,0,1,.576,0l1.732,1.792A.41.41,0,0,1,12.351,37.9Z" transform="translate(-0.002 -27.139)"/></g></g><g transform="translate(6.602 0.02)"><g transform="translate(0 0)"><path class="a" d="M242.43.02a.409.409,0,1,0,0,.818,6.142,6.142,0,0,1,6.135,6.135.409.409,0,1,0,.818,0A6.95,6.95,0,0,0,242.43.02Z" transform="translate(-242.021 -0.02)"/></g></g><g transform="translate(6.602 1.656)"><path class="a" d="M242.43,60.015a.409.409,0,1,0,0,.818,4.5,4.5,0,0,1,4.5,4.5.409.409,0,1,0,.818,0A5.323,5.323,0,0,0,242.43,60.015Z" transform="translate(-242.021 -60.015)"/></g><g transform="translate(6.602 3.292)"><path class="a" d="M242.43,120.011a.409.409,0,1,0,0,.818,2.866,2.866,0,0,1,2.863,2.863.409.409,0,0,0,.818,0A3.685,3.685,0,0,0,242.43,120.011Z" transform="translate(-242.021 -120.011)"/></g><g transform="translate(6.602 4.928)"><path class="a" d="M242.43,180.006a.409.409,0,0,0,0,.818,1.228,1.228,0,0,1,1.227,1.227.409.409,0,0,0,.818,0A2.048,2.048,0,0,0,242.43,180.006Z" transform="translate(-242.021 -180.006)"/></g></g></svg>