<svg id="Layer_2" data-name="Layer 2" xmlns="http://www.w3.org/2000/svg" viewBox="0 0 38.22 38.22"><defs><style>.cls-1{fill:#a8474f;}</style></defs><title>Password</title><path class="cls-1" d="M11.08,39.28a1.79,1.79,0,0,1-1.27-.53L6,34.89,4,36.83a1.74,1.74,0,0,1-1.26.52,1.8,1.8,0,0,1-1.27-3.06L17.78,18a11.41,11.41,0,1,1,10,5.89A11.31,11.31,0,0,1,20,20.83l-5.11,5.11,3.87,3.86a1.8,1.8,0,0,1-2.54,2.54l-3.86-3.87-.67.68,2.58,2.58a1.79,1.79,0,1,1-2.54,2.53L9.15,31.68l-.67.67,3.86,3.87a1.79,1.79,0,0,1,0,2.53A1.76,1.76,0,0,1,11.08,39.28ZM27.75,4.64a7.83,7.83,0,1,0,7.83,7.83A7.84,7.84,0,0,0,27.75,4.64Z" transform="translate(-0.95 -1.06)"/></svg>