<svg xmlns="http://www.w3.org/2000/svg" width="9.2" height="15.276" viewBox="0 0 9.2 15.276"><defs><style>.a{fill:#fff;}</style></defs><path class="a" d="M106.55,14.087V1.186A1.187,1.187,0,0,0,105.364,0H98.536A1.187,1.187,0,0,0,97.35,1.186v12.9a1.187,1.187,0,0,0,1.186,1.186h6.828A1.192,1.192,0,0,0,106.55,14.087ZM98.115,2.749h7.668v8.682H98.115ZM98.536.765h6.828a.422.422,0,0,1,.421.421v.8H98.115v-.8A.422.422,0,0,1,98.536.765Zm-.421,13.323V12.193h7.668v1.894a.422.422,0,0,1-.421.421H98.536A.422.422,0,0,1,98.115,14.087Z" transform="translate(-97.35)"/><path class="a" d="M209.485,416.6h-1.551a.384.384,0,1,0,0,.768h1.551a.384.384,0,1,0,0-.768Z" transform="translate(-204.111 -403.599)"/></svg>