<svg xmlns="http://www.w3.org/2000/svg" xmlns:xlink="http://www.w3.org/1999/xlink" width="357" height="148" viewBox="0 0 357 148"><defs><style>.a{fill:url(#a);}.b{fill:#27e2c6;}.c{clip-path:url(#b);}.d{opacity:0.5;clip-path:url(#c);}.e{opacity:0.39;}.e,.i{fill:url(#d);}.f,.g,.h,.k{fill:none;}.f,.g,.h{stroke:#fff;}.f,.g{stroke-width:50px;}.f{opacity:0.04;}.g{opacity:0.16;}.h{stroke-width:60px;opacity:0.08;}.i{opacity:0.41;}.j{stroke:none;}</style><linearGradient id="a" x1="-0.019" y1="0.396" x2="1.549" y2="0.932" gradientUnits="objectBoundingBox"><stop offset="0" stop-color="#488cfc"/><stop offset="1" stop-color="#8264ff"/></linearGradient><clipPath id="b"><rect class="a" width="357" height="148" rx="5" transform="translate(0 0.333)"/></clipPath><clipPath id="c"><rect class="b" width="434" height="156" rx="10" transform="translate(0 0.333)"/></clipPath><linearGradient id="d" x1="0.452" y1="-0.974" x2="0.494" y2="1.012" gradientUnits="objectBoundingBox"><stop offset="0" stop-color="#fff"/><stop offset="1" stop-color="#fff" stop-opacity="0"/></linearGradient></defs><g class="c" transform="translate(0 -0.333)"><g class="d" transform="translate(-33)"><path class="e" d="M190.655,12.138,406.48,315.432,17.254,284.956Z" transform="matrix(0.559, -0.829, 0.829, 0.559, 50.421, 85.581)"/><g class="f" transform="translate(305 -55.667)"><ellipse class="j" cx="93.5" cy="80" rx="93.5" ry="80"/><ellipse class="k" cx="93.5" cy="80" rx="68.5" ry="55"/></g><g class="g" transform="translate(-71 91.333)"><ellipse class="j" cx="92" cy="79" rx="92" ry="79"/><ellipse class="k" cx="92" cy="79" rx="67" ry="54"/></g><g class="h" transform="translate(-142 30.333)"><ellipse class="j" cx="163" cy="139.5" rx="163" ry="139.5"/><ellipse class="k" cx="163" cy="139.5" rx="133" ry="109.5"/></g><path class="i" d="M191.126,12.3,407.773,315.059l-390.3-30.888Z" transform="matrix(0.574, -0.819, 0.819, 0.574, -66.631, 140.266)"/></g></g></svg>