<svg xmlns="http://www.w3.org/2000/svg" width="37.639" height="37.639" viewBox="0 0 37.639 37.639"><defs><style>.a{fill:#fff;}.b{fill:#f1ebff;}.c{fill:#e0d1ff;}.d{fill:#7656be;}.e{fill:#7b59bf;}</style></defs><g transform="translate(-20 -86)"><g transform="translate(20 86)"><circle class="a" cx="18.819" cy="18.819" r="18.819" transform="translate(0 0)"/><g transform="translate(1.001 0.999)"><g transform="translate(9.708 6.708)"><path class="b" d="M23.448,28H11.639A1.889,1.889,0,0,1,9.75,26.116V8.639A1.889,1.889,0,0,1,11.639,6.75H23.448a1.889,1.889,0,0,1,1.889,1.889V26.116A1.889,1.889,0,0,1,23.448,28Z" transform="translate(-9.75 -6.75)"/></g><g transform="translate(9.708 6.708)"><path class="c" d="M11.875,26.116V8.639A1.889,1.889,0,0,1,13.765,6.75H11.639A1.889,1.889,0,0,0,9.75,8.639V26.116A1.889,1.889,0,0,0,11.639,28h2.125A1.889,1.889,0,0,1,11.875,26.116Z" transform="translate(-9.75 -6.75)"/></g><g transform="translate(9 6)"><path class="d" d="M23.406,28.672H11.6a2.6,2.6,0,0,1-2.6-2.6V8.6A2.6,2.6,0,0,1,11.6,6H23.406A2.6,2.6,0,0,1,26,8.6V26.074A2.6,2.6,0,0,1,23.406,28.672ZM11.6,7.417A1.182,1.182,0,0,0,10.417,8.6V26.074A1.182,1.182,0,0,0,11.6,27.255H23.406a1.182,1.182,0,0,0,1.181-1.181V8.6a1.182,1.182,0,0,0-1.181-1.181Z" transform="translate(-9 -6)"/></g><g transform="translate(12.779 23.004)"><path class="e" d="M13,24h9.447v1.417H13Z" transform="translate(-13 -24)"/></g><g transform="translate(12.779 18.281)"><path class="e" d="M13,19h9.447v1.417H13Z" transform="translate(-13 -19)"/></g><g transform="translate(12.779 9.779)"><path class="e" d="M16.779,15.668H14.653A1.655,1.655,0,0,1,13,14.015V11.653A1.655,1.655,0,0,1,14.653,10h2.125v1.417H14.653a.236.236,0,0,0-.236.236v2.362a.236.236,0,0,0,.236.236h2.125Z" transform="translate(-13 -10)"/></g><g transform="translate(18.282 9.615)"><path class="e" d="M20.88,15.658a.709.709,0,0,1-.683-.519l-1.371-4.934,1.365-.379L20.88,12.3l.689-2.476,1.365.379L21.563,15.14A.709.709,0,0,1,20.88,15.658Z" transform="translate(-18.826 -9.827)"/></g></g></g></g></svg>