<svg xmlns="http://www.w3.org/2000/svg" width="6.503" height="9.571" viewBox="0 0 6.503 9.571"><defs><style>.a{fill:#09A727;stroke:#09A727;stroke-width:0.2px;}</style></defs><g transform="translate(-56.265 0.1)"><g transform="translate(56.365)"><path class="a" d="M62.4,2.449H61.013A2.725,2.725,0,0,0,59.922.544H62.4A.272.272,0,0,0,62.4,0H56.637a.272.272,0,0,0,0,.544h1.649a2.2,2.2,0,0,1,2.18,1.905H56.637a.272.272,0,0,0,0,.544h3.829a2.2,2.2,0,0,1-2.18,1.932H56.64a.276.276,0,0,0-.272.28.281.281,0,0,0,.084.2L60.57,9.3a.271.271,0,0,0,.384-.011.278.278,0,0,0-.011-.389L57.32,5.47h.963a2.749,2.749,0,0,0,2.73-2.477H62.4a.272.272,0,0,0,0-.544Z" transform="translate(-56.365)"/></g></g></svg>