<?xml version="1.0" encoding="utf-8"?>
<!-- Generator: Adobe Illustrator 23.0.3, SVG Export Plug-In . SVG Version: 6.00 Build 0)  -->
<svg version="1.1" xmlns="http://www.w3.org/2000/svg" xmlns:xlink="http://www.w3.org/1999/xlink" x="0px" y="0px"
	 viewBox="0 0 38.6 24.8" style="enable-background:new 0 0 38.6 24.8;" xml:space="preserve">
<style type="text/css">
	.st0{fill:#A8474F;}
</style>
<g id="Layer_3">
	<title>hide</title>
	<path class="st0" d="M0.6,12.8c2.7,6.8,10.3,11.4,18.7,11.4s16-4.6,18.7-11.4c0.1-0.3,0.1-0.6,0-0.9C35.3,5.1,27.8,0.5,19.3,0.5
		S3.3,5.1,0.6,11.9C0.5,12.2,0.5,12.6,0.6,12.8z M19.3,3c7.3,0,13.7,3.8,16.3,9.4c-2.5,5.7-9,9.4-16.3,9.4S5.6,18.1,3.1,12.4
		C5.6,6.7,12,3,19.3,3z"/>
	<path class="st0" d="M19.4,19.5c3.9,0,7.1-3.2,7.2-7.1c0-3.9-3.2-7.2-7.1-7.2s-7.2,3.2-7.2,7.1c0,0,0,0,0,0
		C12.2,16.3,15.4,19.5,19.4,19.5z M19.4,7.7c2.6,0,4.7,2.1,4.7,4.7s-2.1,4.7-4.7,4.7s-4.7-2.1-4.7-4.7C14.7,9.8,16.8,7.7,19.4,7.7z"
		/>
</g>
<g id="Layer_2">
</g>
</svg>
