<svg xmlns="http://www.w3.org/2000/svg" width="98" height="98" viewBox="0 0 98 98"><defs><style>.a,.b{fill:#621384;}.a{opacity:0.07;}.b{opacity:0.14;}.c{fill:#fff;}.d{fill:#ffc03f;}.e{fill:#2c2f33;stroke:#2c2f33;}.e,.f{stroke-width:0.4px;}.f{fill:#2c2e32;stroke:#2c2e32;}</style></defs><g transform="translate(-17 -162)"><circle class="a" cx="49" cy="49" r="49" transform="translate(17 162)"/><circle class="b" cx="38" cy="38" r="38" transform="translate(28 173)"/><circle class="c" cx="30" cy="30" r="30" transform="translate(36 181)"/><g transform="translate(34 134.5)"><path class="d" d="M33.355,235.323v7.951H22.907A.9.9,0,0,1,22,242.38v-8.527a5.631,5.631,0,0,1,5.655-5.593h1.894l.489,1.413a.637.637,0,0,0,.151.264l-1.084,5.49a.389.389,0,0,0,.084.326l1.584,1.876a.389.389,0,0,0,.295.138h0a.389.389,0,0,0,.294-.134l1.623-1.876a.389.389,0,0,0,.089-.322l-.989-5.631a.639.639,0,0,0,.054-.131l.489-1.413h3.515a4.042,4.042,0,0,1,3.654,2.3H38.167A4.794,4.794,0,0,0,33.355,235.323Z" transform="translate(-11.223 -155.025)"/><path class="c" d="M227.5,290.152a.9.9,0,0,1-.907.893H210.224a.9.9,0,0,1-.907-.893V279.7a4.016,4.016,0,0,1,4.035-3.989h3.515l.489,1.413a.636.636,0,0,0,.151.264l-1.085,5.49a.388.388,0,0,0,.084.326l1.584,1.876a.389.389,0,0,0,.295.138h0a.388.388,0,0,0,.294-.134l1.623-1.876a.389.389,0,0,0,.089-.322l-.989-5.631a.644.644,0,0,0,.054-.131l.489-1.413h3.515A4.016,4.016,0,0,1,227.5,279.7Z" transform="translate(-186.408 -199.4)"/><path class="d" d="M423.85,242.38a.9.9,0,0,1-.907.893h-10.68v-7.95a4.794,4.794,0,0,0-4.812-4.766h-1.4a4.036,4.036,0,0,1,.867-1.18h-.006a4.04,4.04,0,0,1,2.8-1.116h3.515l.489,1.413a.642.642,0,0,0,.054.131l-.989,5.631a.389.389,0,0,0,.089.322l1.623,1.876a.389.389,0,0,0,.294.134h0a.389.389,0,0,0,.295-.138l1.584-1.876a.388.388,0,0,0,.084-.326l-1.084-5.49a.636.636,0,0,0,.151-.264l.489-1.413h1.894a5.631,5.631,0,0,1,5.655,5.593Z" transform="translate(-370.398 -155.025)"/><g transform="translate(10 62.5)"><g transform="translate(0 9.959)"><path class="e" d="M402.589,337.277h2.433a.389.389,0,0,0,0-.777h-2.433a.389.389,0,0,0,0,.777Z" transform="translate(-376.798 -328.713)"/><path class="f" d="M47.8,216.267H39.308a4.814,4.814,0,0,0-4,2.127l-.044.065,0,0h0a4.8,4.8,0,0,0-.455.879H29.42a4.815,4.815,0,0,0-4.5-3.073H16.433A6.409,6.409,0,0,0,10,222.637v8.526a1.679,1.679,0,0,0,1.684,1.671H22.132v1.726a1.679,1.679,0,0,0,1.684,1.671H40.182a1.679,1.679,0,0,0,1.684-1.671v-1.726h10.68a1.679,1.679,0,0,0,1.684-1.671v-8.526A6.409,6.409,0,0,0,47.8,216.267Zm-2.716.777-.381,1.1h-.675l-.38-1.1Zm.468,7.134-1.17,1.386-1.2-1.392.923-5.251h.414Zm-12.832-4.061-.381,1.1h-.675l-.38-1.1Zm1.471,10.127-2.2,1.393-2.17-1.386,2.039-8.258h.413Zm-13.6-13.2-.38,1.1h-.675l-.381-1.1Zm.471,7.127-1.2,1.392-1.17-1.386,1.039-5.258h.414Zm1.076-.065v7.951H11.684a.9.9,0,0,1-.907-.893v-8.527a5.631,5.631,0,0,1,5.655-5.593h1.894l.489,1.413a.637.637,0,0,0,.151.264l-1.084,5.49a.388.388,0,0,0,.084.326l1.584,1.876a.389.389,0,0,0,.295.138h0a.389.389,0,0,0,.294-.134l1.623-1.876a.389.389,0,0,0,.089-.322l-.989-5.631a.639.639,0,0,0,.054-.131l.489-1.413h3.515a4.042,4.042,0,0,1,3.654,2.3H26.944A4.794,4.794,0,0,0,22.132,224.106ZM41.088,234.56a.9.9,0,0,1-.907.893H23.816a.9.9,0,0,1-.907-.893V224.106a4.016,4.016,0,0,1,4.035-3.989h3.515l.489,1.413a.636.636,0,0,0,.151.264l-2.085,8.49a.389.389,0,0,0,.084.326l2.584,1.876.278.137h.019a.389.389,0,0,0,.294-.134l2.623-1.876a.389.389,0,0,0,.089-.322L33,221.66a.644.644,0,0,0,.054-.131l.489-1.413h3.515a4.016,4.016,0,0,1,4.035,3.989Zm12.364-3.4a.9.9,0,0,1-.907.893H41.866v-7.95a4.794,4.794,0,0,0-4.812-4.766h-1.4a4.036,4.036,0,0,1,.867-1.18h-.006a4.04,4.04,0,0,1,2.8-1.116h3.515l.489,1.413a.639.639,0,0,0,.054.131l-.989,5.631a.389.389,0,0,0,.089.322l1.623,1.876a.389.389,0,0,0,.294.134h0a.389.389,0,0,0,.295-.138l1.584-1.876a.389.389,0,0,0,.084-.326l-1.084-5.49a.636.636,0,0,0,.151-.264l.489-1.413H47.8a5.631,5.631,0,0,1,5.655,5.593Z" transform="translate(-10 -216.267)"/><path class="c" d="M530.906,228.262l-.38,1.1h-.675l-.38-1.1Z" transform="translate(-495.825 -227.485)"/><path class="c" d="M524.571,262.485l-1.17,1.386-1.2-1.392.923-5.251h.414Z" transform="translate(-489.022 -254.574)"/><path class="d" d="M340.01,275.709l-.38,1.1h-.675l-.38-1.1Z" transform="translate(-317.293 -271.859)"/><path class="d" d="M334.487,312.847l-1.97,1.266-2.03-1.266,1.9-8.175h.413Z" transform="translate(-310.534 -298.946)"/><path class="c" d="M152.692,228.262l-.38,1.1h-.675l-.38-1.1Z" transform="translate(-142.107 -227.485)"/><path class="c" d="M146.406,262.478l-1.2,1.392-1.17-1.386,1.039-5.258h.414Z" transform="translate(-135.35 -254.574)"/></g><path class="e" d="M98.429,71.76a4.63,4.63,0,1,0-4.674-4.63A4.658,4.658,0,0,0,98.429,71.76Zm0-8.483a3.853,3.853,0,1,1-3.9,3.853A3.879,3.879,0,0,1,98.429,63.277Z" transform="translate(-88.33 -63.5)"/><path class="e" d="M282.163,118.559a4.63,4.63,0,1,0-4.674-4.63A4.658,4.658,0,0,0,282.163,118.559Zm0-8.483a3.853,3.853,0,1,1-3.9,3.853,3.88,3.88,0,0,1,3.9-3.853Z" transform="translate(-260.164 -107.269)"/><path class="d" d="M109.652,74.5a3.853,3.853,0,1,1-3.9,3.853A3.879,3.879,0,0,1,109.652,74.5Z" transform="translate(-99.553 -74.723)"/><path class="c" d="M293.386,121.3a3.853,3.853,0,1,1-3.9,3.853,3.88,3.88,0,0,1,3.9-3.853Z" transform="translate(-271.387 -118.487)"/><path class="d" d="M480.7,74.5a3.853,3.853,0,1,1-3.9,3.853A3.879,3.879,0,0,1,480.7,74.5Z" transform="translate(-446.567 -74.723)"/><path class="e" d="M469.475,71.76a4.63,4.63,0,1,0-4.674-4.63A4.658,4.658,0,0,0,469.475,71.76Zm0-8.483a3.853,3.853,0,1,1-3.9,3.853A3.879,3.879,0,0,1,469.475,63.277Z" transform="translate(-435.345 -63.5)"/></g></g></g></svg>