<svg xmlns="http://www.w3.org/2000/svg" width="16.501" height="15.252" viewBox="0 0 16.501 15.252"><defs><style>.a{fill:#1586c7;}</style></defs><g transform="translate(0 -18.4)"><g transform="translate(0 18.4)"><path class="a" d="M13.42,22.384A4.78,4.78,0,0,0,4.564,20.8a2.738,2.738,0,0,0-.5-.048,2.62,2.62,0,0,0-2.616,2.616,2.86,2.86,0,0,0,.054.543A3.64,3.64,0,0,0,0,26.842a3.892,3.892,0,0,0,.987,2.575A3.524,3.524,0,0,0,3.43,30.646H6.376a.458.458,0,0,0,0-.916h-2.9A2.889,2.889,0,0,1,.916,26.839,2.72,2.72,0,0,1,2.263,24.5a.462.462,0,0,0,.2-.556,1.662,1.662,0,0,1-.1-.584,1.7,1.7,0,0,1,1.7-1.7,1.671,1.671,0,0,1,.58.1.46.46,0,0,0,.573-.234A3.863,3.863,0,0,1,12.555,22.8a.458.458,0,0,0,.38.407,3.3,3.3,0,0,1-.312,6.522h-2.5a.458.458,0,0,0,0,.916h2.552A4.06,4.06,0,0,0,15.395,29.3a4.223,4.223,0,0,0-1.975-6.915Z" transform="translate(0 -18.4)"/><path class="a" d="M163.857,188.61a.457.457,0,0,0,0-.648l-2.426-2.426a.463.463,0,0,0-.322-.136.449.449,0,0,0-.322.136l-2.426,2.426a.46.46,0,0,0,.322.784.447.447,0,0,0,.322-.136l1.646-1.646v7.563a.458.458,0,1,0,.916,0v-7.563l1.646,1.646A.453.453,0,0,0,163.857,188.61Z" transform="translate(-152.856 -179.733)"/></g></g></svg>