<svg xmlns="http://www.w3.org/2000/svg" xmlns:xlink="http://www.w3.org/1999/xlink" width="58" height="58" viewBox="0 0 58 58"><defs><style>.a{fill:url(#a);}.b{fill:#fff;stroke:#fff;stroke-width:0.3px;}.c{filter:url(#b);}</style><linearGradient id="a" x2="1" y2="1" gradientUnits="objectBoundingBox"><stop offset="0" stop-color="#8dc1ff"/><stop offset="1" stop-color="#afa1ff"/></linearGradient><filter id="b" x="0" y="0" width="58" height="58" filterUnits="userSpaceOnUse"><feOffset dy="3" input="SourceAlpha"/><feGaussianBlur stdDeviation="3" result="c"/><feFlood flood-color="#96b7ff" flood-opacity="0.471"/><feComposite operator="in" in2="c"/><feComposite in="SourceGraphic"/></filter></defs><g transform="translate(-84 -86)"><g class="c" transform="matrix(1, 0, 0, 1, 84, 86)"><rect class="a" width="40" height="40" rx="12" transform="translate(9 6)"/></g><g transform="translate(15.553 98.828)"><g transform="translate(88.847 0)"><path class="b" d="M104.234,2.894h-.223V1.411A1.41,1.41,0,0,0,102.285.037L89.756,2.911h0a1.1,1.1,0,0,0-.906,1.082V12.4a.387.387,0,0,0,.773,0V3.994a.327.327,0,0,1,.327-.327h9.387a.387.387,0,0,0,0-.773H93.29l9.167-2.1a.637.637,0,0,1,.78.621V2.894H98.882a.387.387,0,1,0,0,.773h5.352a1.042,1.042,0,0,1,1.041,1.041v17.98a.387.387,0,0,0,.773,0V4.708a1.816,1.816,0,0,0-1.814-1.814Z" transform="translate(-88.848 0)"/><path class="b" d="M105.66,235.025a.387.387,0,0,0-.387.387v2.294a1.042,1.042,0,0,1-1.041,1.041H89.947a.327.327,0,0,1-.327-.327V225.127a.387.387,0,1,0-.773,0v13.293a1.1,1.1,0,0,0,1.1,1.1h14.286a1.816,1.816,0,0,0,1.814-1.814v-2.294a.386.386,0,0,0-.387-.387Z" transform="translate(-88.847 -213.177)"/><path class="b" d="M165.219,153.418a4.908,4.908,0,1,0-4.908-4.908A4.914,4.914,0,0,0,165.219,153.418Zm0-.773c-.386,0-.9-.8-1.161-2.166h2.322C166.114,151.84,165.6,152.645,165.219,152.645Zm1.312-.215a4.438,4.438,0,0,0,.271-.585,7.56,7.56,0,0,0,.366-1.367h1.688A4.156,4.156,0,0,1,166.531,152.43Zm2.823-3.92a4.119,4.119,0,0,1-.177,1.2h-1.9c.039-.386.059-.787.059-1.2,0-.369-.017-.732-.049-1.083h1.925A4.125,4.125,0,0,1,169.354,148.51Zm-.442-1.856h-1.726a7.7,7.7,0,0,0-.385-1.479,4.42,4.42,0,0,0-.271-.585A4.155,4.155,0,0,1,168.912,146.654Zm-3.693-2.278c.4,0,.923.849,1.182,2.278h-2.364C164.3,145.224,164.822,144.375,165.219,144.375Zm1.289,3.052c.033.339.051.7.051,1.083a11.09,11.09,0,0,1-.063,1.2h-2.554a11.09,11.09,0,0,1-.063-1.2c0-.383.019-.745.051-1.083Zm-2.6-2.837a4.435,4.435,0,0,0-.27.585,7.7,7.7,0,0,0-.385,1.479h-1.726A4.155,4.155,0,0,1,163.907,144.59Zm-2.823,3.92a4.125,4.125,0,0,1,.145-1.083h1.925c-.032.351-.049.714-.049,1.083,0,.408.02.809.059,1.2h-1.9A4.121,4.121,0,0,1,161.084,148.51Zm2.187,1.968a7.557,7.557,0,0,0,.366,1.367,4.426,4.426,0,0,0,.27.585,4.156,4.156,0,0,1-2.324-1.952Z" transform="translate(-156.634 -136.214)"/><path class="b" d="M160.7,366.753h9.073a.387.387,0,0,0,0-.773H160.7a.387.387,0,0,0,0,.773Z" transform="translate(-156.634 -347.15)"/><path class="b" d="M193.986,409.605a.387.387,0,0,0,0,.773h5.648a.387.387,0,0,0,0-.773Z" transform="translate(-188.21 -388.531)"/></g></g></g></svg>