<svg xmlns="http://www.w3.org/2000/svg" width="20.719" height="19.736" viewBox="0 0 20.719 19.736"><defs><style>.a{fill:#fff;stroke:#fff;stroke-width:0.6px;}</style></defs><g transform="translate(-347.581 -36.776)"><path class="a" d="M152.1,13.944a.389.389,0,0,0-.551,0l-3.863,3.862V.389a.389.389,0,0,0-.779,0V17.807l-3.863-3.863a.389.389,0,0,0-.551.551l4.527,4.527a.389.389,0,0,0,.551,0l4.527-4.527A.389.389,0,0,0,152.1,13.944Z" transform="translate(215.79 37.076)"/><path class="a" d="M1.325.779H12.394a.38.38,0,0,0,.369-.389A.38.38,0,0,0,12.394,0H1.325A.38.38,0,0,0,.956.389.38.38,0,0,0,1.325.779Z" transform="translate(346.925 37.076)"/><path class="a" d="M1.325,71.007H12.394a.39.39,0,0,0,0-.779H1.325a.39.39,0,0,0,0,.779Z" transform="translate(346.925 -28.594)"/><path class="a" d="M1.325,141.235H12.394a.39.39,0,0,0,0-.779H1.325a.39.39,0,0,0,0,.779Z" transform="translate(346.925 -94.264)"/><path class="a" d="M8.465,210.685H1.321a.39.39,0,0,0,0,.779H8.465a.39.39,0,0,0,0-.779Z" transform="translate(346.925 -159.935)"/><path class="a" d="M8.465,280.912H1.321a.39.39,0,0,0,0,.779H8.465a.39.39,0,0,0,0-.779Z" transform="translate(346.925 -225.604)"/></g></svg>