<svg xmlns="http://www.w3.org/2000/svg" xmlns:xlink="http://www.w3.org/1999/xlink" width="42.667" height="42.667" viewBox="0 0 42.667 42.667"><defs><style>.a{fill:#fff;}.b{fill:#213643;}.c{fill:#ffc03f;}.d{filter:url(#a);}</style><filter id="a" x="0" y="0" width="42.667" height="42.667" filterUnits="userSpaceOnUse"><feOffset dy="3" input="SourceAlpha"/><feGaussianBlur stdDeviation="3" result="b"/><feFlood flood-opacity="0.102"/><feComposite operator="in" in2="b"/><feComposite in="SourceGraphic"/></filter></defs><g transform="translate(9 6)"><g class="d" transform="matrix(1, 0, 0, 1, -9, -6)"><path class="a" d="M20.042,24.667H4.625A4.625,4.625,0,0,1,0,20.042V4.625A4.625,4.625,0,0,1,4.625,0H20.042a4.625,4.625,0,0,1,4.625,4.625V20.042A4.625,4.625,0,0,1,20.042,24.667Z" transform="translate(9 6)"/></g><g transform="translate(-293.601 -383.916)"><path class="b" d="M303.707,394.525l.027.027a13.147,13.147,0,0,0,1.885,1.576c.257-.176.665-.469,1.106-.842a6.8,6.8,0,0,0,1.91-2.3,2.08,2.08,0,0,0,.185-.822,1.6,1.6,0,0,0-1.394-1.734l0,0a1.452,1.452,0,0,0-1.3,1.13.527.527,0,0,1-1.01,0,1.451,1.451,0,0,0-1.3-1.13,1.251,1.251,0,0,0-.879.388,1.89,1.89,0,0,0-.519,1.338,2.139,2.139,0,0,0,.193.826A5.491,5.491,0,0,0,303.707,394.525Z"/><path class="b" d="M308.126,395.434a13.89,13.89,0,0,1-2.232,1.775.528.528,0,0,1-.557,0,14.023,14.023,0,0,1-2.219-1.773h-3.236a6.9,6.9,0,0,0,.57,2.307,4.2,4.2,0,0,0,1.758,1.934.528.528,0,0,1,.264.457v3.724h5.444l.007-1.5-1-.238a2.285,2.285,0,0,1-1.508-1.192c-.325-.64-.738-1.479-.742-1.487a.527.527,0,1,1,.946-.466c0,.008.414.841.736,1.476a1.228,1.228,0,0,0,.812.643l1.377.329,1.71.222h.023a.261.261,0,0,0,.222-.062.272.272,0,0,0,.1-.221v-.043l.167-2.945a.529.529,0,0,1,.308-.68.556.556,0,0,1,.185-.034h1.512l-1.279-2.226Z"/><path class="b" d="M313.734,397.224l-1.478-2.58a.528.528,0,0,0-.458-.265h-2.759a5.08,5.08,0,0,0,.565-.977,3.124,3.124,0,0,0,.27-1.242,3.01,3.01,0,0,0-.691-1.935,2.3,2.3,0,0,0-1.758-.848,2.329,2.329,0,0,0-1.809.91,2.326,2.326,0,0,0-1.809-.91,2.293,2.293,0,0,0-1.627.7,2.949,2.949,0,0,0-.821,2.089,3.181,3.181,0,0,0,.28,1.238,5.21,5.21,0,0,0,.567.975h-2.9a.527.527,0,0,0-.508.545c.09,2.576.973,4.426,2.622,5.505v3.96a.527.527,0,0,0,.527.527h6.5a.526.526,0,0,0,.527-.525l.009-1.841,1.135.147a1.265,1.265,0,0,0,.23.017,1.329,1.329,0,0,0,1.313-1.346l.15-2.645h1.061a1,1,0,0,0,.866-1.5Zm-10.8-6.4a1.251,1.251,0,0,1,.879-.388,1.451,1.451,0,0,1,1.3,1.13.527.527,0,0,0,1.01,0,1.452,1.452,0,0,1,1.3-1.13l0,0a1.6,1.6,0,0,1,1.394,1.734,2.08,2.08,0,0,1-.185.822,6.8,6.8,0,0,1-1.91,2.3c-.441.373-.849.666-1.106.842a13.147,13.147,0,0,1-1.885-1.576l-.027-.027a5.491,5.491,0,0,1-1.1-1.541,2.139,2.139,0,0,1-.193-.826A1.89,1.89,0,0,1,302.933,390.82Zm8.328,6.84a.556.556,0,0,0-.185.034.529.529,0,0,0-.308.68l-.167,2.945v.043a.272.272,0,0,1-.1.221.261.261,0,0,1-.222.062h-.023l-1.71-.222-1.377-.329a1.228,1.228,0,0,1-.812-.643c-.322-.635-.736-1.468-.736-1.476a.527.527,0,1,0-.946.466c0,.008.417.847.742,1.487a2.285,2.285,0,0,0,1.508,1.192l1,.238-.007,1.5h-5.444v-3.724a.528.528,0,0,0-.264-.457,4.2,4.2,0,0,1-1.758-1.934,6.9,6.9,0,0,1-.57-2.307h3.236a14.023,14.023,0,0,0,2.219,1.773.528.528,0,0,0,.557,0,13.89,13.89,0,0,0,2.232-1.775h3.368l1.279,2.226Z"/><path class="b" d="M305.589,388.35h0a.526.526,0,0,0,.526-.528v-.379a.527.527,0,0,0-1.055,0v.38A.527.527,0,0,0,305.589,388.35Z"/><path class="b" d="M310.442,389.759l.336-.337a.528.528,0,0,0-.747-.745l-.336.337a.527.527,0,1,0,.747.745Z"/><path class="b" d="M300.679,389.759a.524.524,0,0,0,.373.155h0a.526.526,0,0,0,.373-.9l-.336-.337a.528.528,0,0,0-.747.745Z"/><path class="b" d="M311.644,393.324h.4a.527.527,0,1,0,0-1.055h-.4a.527.527,0,0,0,0,1.055Z"/><path class="b" d="M299.537,393.324a.527.527,0,1,0,0-1.055h-.409a.527.527,0,0,0,0,1.055Z"/><path class="c" d="M302.933,390.82a1.251,1.251,0,0,1,.879-.388,1.451,1.451,0,0,1,1.3,1.13.527.527,0,0,0,1.01,0,1.452,1.452,0,0,1,1.3-1.13l0,0a1.6,1.6,0,0,1,1.394,1.734,2.08,2.08,0,0,1-.185.822,6.8,6.8,0,0,1-1.91,2.3c-.441.373-.849.666-1.106.842a13.147,13.147,0,0,1-1.885-1.576l-.027-.027a5.491,5.491,0,0,1-1.1-1.541,2.139,2.139,0,0,1-.193-.826A1.89,1.89,0,0,1,302.933,390.82Z"/><path class="a" d="M311.261,397.66a.556.556,0,0,0-.185.034.529.529,0,0,0-.308.68l-.167,2.945v.043a.272.272,0,0,1-.1.221.261.261,0,0,1-.222.062h-.023l-1.71-.222-1.377-.329a1.228,1.228,0,0,1-.812-.643c-.322-.635-.736-1.468-.736-1.476a.527.527,0,1,0-.946.466c0,.008.417.847.742,1.487a2.285,2.285,0,0,0,1.508,1.192l1,.238-.007,1.5h-5.444v-3.724a.528.528,0,0,0-.264-.457,4.2,4.2,0,0,1-1.758-1.934,6.9,6.9,0,0,1-.57-2.307h3.236a14.023,14.023,0,0,0,2.219,1.773.528.528,0,0,0,.557,0,13.89,13.89,0,0,0,2.232-1.775h3.368l1.279,2.226Z"/></g></g></svg>