<svg xmlns="http://www.w3.org/2000/svg" width="42" height="42" viewBox="0 0 42 42"><defs><style>.a,.b{fill:#fff;}.a{opacity:0.41;}.c{fill:#ffc03f;}.d{fill:#f5f4f9;}.e,.f{fill:#2c2f33;}.f{stroke:#2c2f33;stroke-width:0.4px;}</style></defs><g transform="translate(-17 -121)"><rect class="a" width="42" height="42" rx="21" transform="translate(17 121)"/><rect class="b" width="34" height="34" rx="17" transform="translate(21 125)"/><g transform="translate(27.094 132.833)"><path class="c" d="M76.195,81.862V80.048a.372.372,0,0,0-.27-.357l-1.877-.534a7.48,7.48,0,0,0-.869-2.1l.949-1.705a.372.372,0,0,0-.062-.444l-1.282-1.282a.372.372,0,0,0-.444-.062l-1.705.949a7.479,7.479,0,0,0-2.1-.869l-.535-1.877a.372.372,0,0,0-.357-.27H65.834a.372.372,0,0,0-.357.27l-.535,1.877a7.48,7.48,0,0,0-2.1.869l-1.705-.949a.372.372,0,0,0-.444.062l-1.282,1.282a.372.372,0,0,0-.062.444L60.3,77.06a7.48,7.48,0,0,0-.869,2.1l-1.877.534a.372.372,0,0,0-.27.357v1.814a.372.372,0,0,0,.27.357l1.877.534a7.48,7.48,0,0,0,.869,2.1l-.949,1.705a.372.372,0,0,0,.062.443L60.7,88.281a.372.372,0,0,0,.444.062l1.705-.949a7.48,7.48,0,0,0,2.1.869l.535,1.877a.372.372,0,0,0,.357.27h1.814a.372.372,0,0,0,.357-.27l.535-1.877a7.48,7.48,0,0,0,2.1-.869l1.705.949a.372.372,0,0,0,.444-.062L74.067,87a.372.372,0,0,0,.062-.443L73.18,84.85a7.48,7.48,0,0,0,.869-2.1l1.877-.535a.372.372,0,0,0,.27-.357Z" transform="translate(-55.844 -71.259)"/><circle class="c" cx="4.557" cy="4.557" r="4.557" transform="translate(6.339 5.139)"/><circle class="d" cx="3.752" cy="3.752" r="3.752" transform="translate(7.145 5.944)"/><path class="e" d="M136.2,267.657a5.921,5.921,0,0,1-5.915-5.915.242.242,0,1,1,.485,0,5.436,5.436,0,0,0,5.43,5.43.242.242,0,0,1,0,.485Z" transform="translate(-125.305 -252.046)"/><path class="e" d="M253.2,150.657a.242.242,0,0,1-.242-.242,5.436,5.436,0,0,0-5.43-5.43.242.242,0,0,1,0-.485,5.921,5.921,0,0,1,5.915,5.915A.242.242,0,0,1,253.2,150.657Z" transform="translate(-236.633 -140.718)"/><g transform="translate(0.242 0.275)"><path class="e" d="M213.03,251.783a.339.339,0,0,1-.24-.1l-.818-.818a.34.34,0,0,1,0-.481l.818-.818a.34.34,0,0,1,.481.481l-.578.578.578.578a.34.34,0,0,1-.24.58Z" transform="translate(-203.965 -241.203)"/><path class="e" d="M271.007,251.782a.34.34,0,0,1-.24-.58l.578-.578-.578-.578a.34.34,0,1,1,.481-.481l.818.818a.34.34,0,0,1,0,.481l-.818.818A.338.338,0,0,1,271.007,251.782Z" transform="translate(-258.763 -241.202)"/><path class="e" d="M240.83,251.78a.34.34,0,0,1-.3-.507l.924-1.637a.34.34,0,1,1,.592.334l-.924,1.637A.34.34,0,0,1,240.83,251.78Z" transform="translate(-230.638 -241.2)"/><path class="d" d="M38.944,77.856h-5.93a.486.486,0,0,1-.486-.486V72.654a.486.486,0,0,1,.486-.486h5.93a.486.486,0,0,1,.486.486V77.37A.486.486,0,0,1,38.944,77.856Z" transform="translate(-32.528 -72.168)"/></g><path class="d" d="M132.369,72.168h-1.656v5.688h1.656a.486.486,0,0,0,.486-.486V72.654A.486.486,0,0,0,132.369,72.168Z" transform="translate(-125.71 -71.893)"/><path class="d" d="M39.43,73.756v-1.1a.486.486,0,0,0-.486-.486h-5.93a.486.486,0,0,0-.486.486v1.1Z" transform="translate(-32.286 -71.893)"/><path class="e" d="M58.5,156.553h-2.41a.243.243,0,1,1,0-.486H58.5a.243.243,0,1,1,0,.486Z" transform="translate(-54.472 -151.725)"/><path class="e" d="M57.186,135.749h-1.1a.243.243,0,1,1,0-.486h1.1a.243.243,0,1,1,0,.486Z" transform="translate(-54.472 -131.929)"/><path class="d" d="M314.973,326.633h-7.385a.486.486,0,0,1-.486-.486v-4.716a.486.486,0,0,1,.486-.486h7.385a.486.486,0,0,1,.486.486v4.716A.486.486,0,0,1,314.973,326.633Z" transform="translate(-293.548 -308.609)"/><path class="d" d="M315.459,322.533v-1.1a.486.486,0,0,0-.486-.486h-7.385a.486.486,0,0,0-.486.486v1.1Z" transform="translate(-293.548 -308.609)"/><path class="f" d="M48.953,78.594h-3.14c.043-.133.083-.268.119-.4l1.743-.5a.617.617,0,0,0,.446-.591V75.291a.617.617,0,0,0-.446-.591l-1.743-.5a7.714,7.714,0,0,0-.789-1.905l.881-1.583a.617.617,0,0,0-.1-.733L44.64,68.7a.617.617,0,0,0-.733-.1l-1.583.881a7.714,7.714,0,0,0-1.905-.789l-.5-1.743a.617.617,0,0,0-.591-.446H37.518a.617.617,0,0,0-.591.446l-.5,1.743a7.726,7.726,0,0,0-1.516.578V67.262a.729.729,0,0,0-.728-.728h-5.93a.729.729,0,0,0-.728.728v1.1a.242.242,0,0,0,.242.242h6.66v3.372a.244.244,0,0,1-.244.244h-5.93a.244.244,0,0,1-.244-.244V69.7a.242.242,0,1,0-.485,0v2.279a.729.729,0,0,0,.728.728h3.23a7.727,7.727,0,0,0-.569,1.5l-1.743.5a.617.617,0,0,0-.446.591V77.1a.617.617,0,0,0,.446.591l1.743.5a7.715,7.715,0,0,0,.789,1.905l-.881,1.583a.616.616,0,0,0,.1.733l1.282,1.282a.616.616,0,0,0,.733.1l1.583-.881a7.716,7.716,0,0,0,1.905.789l.5,1.743a.617.617,0,0,0,.591.446h1.814a.617.617,0,0,0,.591-.446l.5-1.743c.141-.037.282-.08.421-.125v.459a.729.729,0,0,0,.728.728h7.385a.729.729,0,0,0,.728-.728V79.323a.729.729,0,0,0-.728-.728ZM28.013,68.121v-.859a.244.244,0,0,1,.244-.244h5.93a.244.244,0,0,1,.244.244v.859ZM40.166,83.269a.242.242,0,0,0-.175.169l-.534,1.877a.13.13,0,0,1-.124.094H37.518a.13.13,0,0,1-.124-.094l-.534-1.877a.242.242,0,0,0-.175-.169,7.233,7.233,0,0,1-2.028-.84.242.242,0,0,0-.244,0l-1.705.949a.13.13,0,0,1-.154-.022L31.27,82.07a.13.13,0,0,1-.022-.154L32.2,80.21a.242.242,0,0,0,0-.244,7.233,7.233,0,0,1-.84-2.028.242.242,0,0,0-.169-.175l-1.877-.534a.13.13,0,0,1-.094-.124V75.291a.13.13,0,0,1,.094-.124l1.877-.534a.242.242,0,0,0,.169-.175,7.243,7.243,0,0,1,.681-1.75h2.153a.729.729,0,0,0,.728-.728V69.816a7.241,7.241,0,0,1,1.769-.691.242.242,0,0,0,.175-.169l.534-1.877a.13.13,0,0,1,.124-.094h1.814a.13.13,0,0,1,.124.094l.534,1.877a.242.242,0,0,0,.175.169,7.235,7.235,0,0,1,2.028.84.242.242,0,0,0,.244,0l1.705-.949a.13.13,0,0,1,.154.022l1.282,1.282a.13.13,0,0,1,.022.154l-.949,1.705a.242.242,0,0,0,0,.244,7.233,7.233,0,0,1,.84,2.028.242.242,0,0,0,.169.175l1.877.534a.13.13,0,0,1,.094.124V77.1a.13.13,0,0,1-.094.124l-1.877.534a.242.242,0,0,0-.169.175c-.054.221-.12.441-.195.656h-.99a.242.242,0,1,0,0,.485h4.641a.244.244,0,0,1,.244.244v.859H41.325v-.859a.244.244,0,0,1,.244-.244h1.409a.242.242,0,0,0,0-.485H41.568a.729.729,0,0,0-.728.728v3.745C40.619,83.146,40.393,83.214,40.166,83.269Zm8.787,1.013H41.568a.244.244,0,0,1-.244-.244V80.667H49.2v3.372A.244.244,0,0,1,48.953,84.283Z" transform="translate(-27.528 -66.501)"/><path class="e" d="M331.827,381.482H331.8a.242.242,0,0,1-.208-.166l-.333-1.019a.242.242,0,1,1,.461-.15l.158.484.089-.163a.242.242,0,0,1,.426,0l.089.163.158-.484a.242.242,0,0,1,.461.15l-.333,1.019a.242.242,0,0,1-.443.041l-.145-.265-.144.265A.243.243,0,0,1,331.827,381.482Z" transform="translate(-316.527 -364.78)"/><path class="e" d="M374.629,381.482h-.022a.242.242,0,0,1-.208-.166l-.333-1.019a.242.242,0,0,1,.461-.15l.158.484.089-.163a.242.242,0,0,1,.426,0l.089.163.158-.484a.242.242,0,1,1,.461.15l-.333,1.019a.242.242,0,0,1-.443.041l-.144-.265-.144.265A.243.243,0,0,1,374.629,381.482Z" transform="translate(-357.253 -364.78)"/><path class="e" d="M418.145,381.482a.242.242,0,0,1-.213-.126l-.145-.265-.144.265a.242.242,0,0,1-.443-.041l-.333-1.019a.242.242,0,1,1,.461-.15l.158.484.089-.163a.242.242,0,0,1,.426,0l.089.163.158-.484a.242.242,0,0,1,.461.15l-.333,1.019a.242.242,0,0,1-.208.166Z" transform="translate(-397.98 -364.78)"/></g></g></svg>