<svg xmlns="http://www.w3.org/2000/svg" xmlns:xlink="http://www.w3.org/1999/xlink" width="294" height="182" viewBox="0 0 294 182"><defs><style>.a{fill:url(#a);}.b{fill:url(#b);}.c{fill:url(#c);}.d{opacity:0.5;clip-path:url(#d);}.e{opacity:0.2;clip-path:url(#e);}.f{fill:#fff;}</style><linearGradient id="a" y1="0.022" x2="0.986" y2="1" gradientUnits="objectBoundingBox"><stop offset="0" stop-color="#38efc3"/><stop offset="1" stop-color="#5c2dcb"/></linearGradient><linearGradient id="b" x2="1" y2="1" gradientUnits="objectBoundingBox"><stop offset="0" stop-color="#eb4886"/><stop offset="1" stop-color="#ba54a4"/></linearGradient><linearGradient id="c" x2="1" y2="1" gradientUnits="objectBoundingBox"><stop offset="0" stop-color="#1cc9ff"/><stop offset="1" stop-color="#0068be"/></linearGradient><clipPath id="d"><rect class="a" width="294" height="182" rx="6" transform="translate(7 115)"/></clipPath><clipPath id="e"><rect class="b" width="224.39" height="139.597" rx="6" transform="translate(9 78)"/></clipPath></defs><g transform="translate(-7 -115)"><rect class="c" width="294" height="182" rx="6" transform="translate(7 115)"/><g class="d"><g class="e" transform="translate(18.929 125.485) rotate(-37)"><g transform="translate(99.286 78.45)"><path class="f" d="M-9.871.24l.031-.031L-9.871.178-9.9.209Z" transform="translate(26.76 1.926)"/><circle class="f" cx="0.171" cy="0.171" r="0.171" transform="translate(22.337 1.963)"/><path class="f" d="M-8.873.815A.32.32,0,0,0-8.545.487.32.32,0,0,0-8.873.159.33.33,0,0,0-9.2.487.33.33,0,0,0-8.873.815Z" transform="translate(36.997 1.648)"/><circle class="f" cx="0.467" cy="0.467" r="0.467" transform="translate(33.279 1.667)"/><circle class="f" cx="0.623" cy="0.623" r="0.623" transform="translate(38.743 1.511)"/><path class="f" d="M-7.384,1.661A.766.766,0,0,0-6.619.9.766.766,0,0,0-7.384.131.766.766,0,0,0-8.149.9.766.766,0,0,0-7.384,1.661Z" transform="translate(52.366 1.239)"/><circle class="f" cx="0.904" cy="0.904" r="0.904" transform="translate(49.701 1.231)"/><path class="f" d="M-6.416,2.174a1.029,1.029,0,0,0,1.03-1.03A1.029,1.029,0,0,0-6.416.114a1.039,1.039,0,0,0-1.03,1.03A1.039,1.039,0,0,0-6.416,2.174Z" transform="translate(62.636 0.991)"/><circle class="f" cx="1.169" cy="1.169" r="1.169" transform="translate(60.674 0.966)"/><circle class="f" cx="1.278" cy="1.278" r="1.278" transform="translate(66.184 0.857)"/><path class="f" d="M-4.985,2.9a1.4,1.4,0,0,0,1.4-1.4,1.4,1.4,0,0,0-1.4-1.4,1.409,1.409,0,0,0-1.4,1.4A1.409,1.409,0,0,0-4.985,2.9Z" transform="translate(78.063 0.64)"/><circle class="f" cx="1.511" cy="1.511" r="1.511" transform="translate(77.189 0.623)"/><circle class="f" cx="1.605" cy="1.605" r="1.605" transform="translate(82.715 0.53)"/><circle class="f" cx="1.698" cy="1.698" r="1.698" transform="translate(88.241 0.436)"/><circle class="f" cx="1.776" cy="1.776" r="1.776" transform="translate(93.782 0.358)"/><path class="f" d="M-2.762,3.776A1.852,1.852,0,0,0-.9,1.918,1.852,1.852,0,0,0-2.762.061,1.862,1.862,0,0,0-4.619,1.918,1.862,1.862,0,0,0-2.762,3.776Z" transform="translate(103.936 0.216)"/><path class="f" d="M-2.343,3.9a1.919,1.919,0,0,0,1.92-1.92A1.919,1.919,0,0,0-2.343.057a1.919,1.919,0,0,0-1.92,1.92A1.919,1.919,0,0,0-2.343,3.9Z" transform="translate(109.137 0.158)"/><circle class="f" cx="1.979" cy="1.979" r="1.979" transform="translate(110.437 0.156)"/><path class="f" d="M-1.521,4.108A2.025,2.025,0,0,0,.508,2.079,2.025,2.025,0,0,0-1.521.05,2.035,2.035,0,0,0-3.55,2.079,2.035,2.035,0,0,0-1.521,4.108Z" transform="translate(119.553 0.056)"/><circle class="f" cx="2.072" cy="2.072" r="2.072" transform="translate(121.582 0.062)"/><path class="f" d="M-.728,4.259A2.108,2.108,0,0,0,1.379,2.152,2.108,2.108,0,0,0-.728.045,2.118,2.118,0,0,0-2.835,2.152,2.118,2.118,0,0,0-.728,4.259Z" transform="translate(129.998 -0.018)"/><path class="f" d="M-.353,4.29A2.125,2.125,0,0,0,1.77,2.167,2.125,2.125,0,0,0-.353.044,2.125,2.125,0,0,0-2.476,2.167,2.125,2.125,0,0,0-.353,4.29Z" transform="translate(135.243 -0.032)"/><circle class="f" cx="2.135" cy="2.135" r="2.135" transform="translate(138.377 0)"/><circle class="f" cx="0.031" cy="0.031" r="0.031" transform="translate(14.048 7.723)"/><circle class="f" cx="0.171" cy="0.171" r="0.171" transform="translate(19.527 7.583)"/><path class="f" d="M-9.053,1.175A.32.32,0,0,0-8.725.847.32.32,0,0,0-9.053.519a.33.33,0,0,0-.328.328A.33.33,0,0,0-9.053,1.175Z" transform="translate(34.368 6.907)"/><path class="f" d="M-8.547,1.477A.486.486,0,0,0-8.063.993.486.486,0,0,0-8.547.509a.486.486,0,0,0-.484.484A.486.486,0,0,0-8.547,1.477Z" transform="translate(39.481 6.761)"/><circle class="f" cx="0.639" cy="0.639" r="0.639" transform="translate(35.918 7.115)"/><path class="f" d="M-7.55,2.051a.773.773,0,0,0,.78-.78A.773.773,0,0,0-7.55.49a.783.783,0,0,0-.78.78A.783.783,0,0,0-7.55,2.051Z" transform="translate(49.722 6.483)"/><circle class="f" cx="0.919" cy="0.919" r="0.919" transform="translate(46.875 6.835)"/><circle class="f" cx="1.06" cy="1.06" r="1.06" transform="translate(52.355 6.694)"/><path class="f" d="M-6.075,2.867a1.2,1.2,0,0,0,1.2-1.2,1.2,1.2,0,0,0-1.2-1.2,1.213,1.213,0,0,0-1.2,1.2A1.213,1.213,0,0,0-6.075,2.867Z" transform="translate(65.105 6.089)"/><path class="f" d="M-5.6,3.109A1.326,1.326,0,0,0-4.271,1.782,1.326,1.326,0,0,0-5.6.455,1.326,1.326,0,0,0-6.925,1.782,1.326,1.326,0,0,0-5.6,3.109Z" transform="translate(70.247 5.972)"/><circle class="f" cx="1.434" cy="1.434" r="1.434" transform="translate(68.838 6.32)"/><path class="f" d="M-4.659,3.562A1.565,1.565,0,0,0-3.1,2,1.565,1.565,0,0,0-4.659.44,1.565,1.565,0,0,0-6.22,2,1.565,1.565,0,0,0-4.659,3.562Z" transform="translate(80.547 5.753)"/><path class="f" d="M-4.211,3.743A1.655,1.655,0,0,0-2.557,2.089,1.655,1.655,0,0,0-4.211.434,1.666,1.666,0,0,0-5.866,2.089,1.666,1.666,0,0,0-4.211,3.743Z" transform="translate(85.718 5.665)"/><path class="f" d="M-3.764,3.924A1.745,1.745,0,0,0-2.016,2.176,1.745,1.745,0,0,0-3.764.428,1.745,1.745,0,0,0-5.512,2.176,1.745,1.745,0,0,0-3.764,3.924Z" transform="translate(90.89 5.578)"/><path class="f" d="M-3.316,4.106A1.845,1.845,0,0,0-1.474,2.264,1.845,1.845,0,0,0-3.316.422,1.845,1.845,0,0,0-5.158,2.264,1.845,1.845,0,0,0-3.316,4.106Z" transform="translate(96.062 5.49)"/><path class="f" d="M-2.883,4.257a1.919,1.919,0,0,0,1.92-1.92A1.919,1.919,0,0,0-2.883.417,1.919,1.919,0,0,0-4.8,2.337,1.919,1.919,0,0,0-2.883,4.257Z" transform="translate(101.248 5.417)"/><circle class="f" cx="1.994" cy="1.994" r="1.994" transform="translate(101.993 5.759)"/><circle class="f" cx="2.057" cy="2.057" r="2.057" transform="translate(107.55 5.697)"/><path class="f" d="M-1.628,4.619A2.108,2.108,0,0,0,.479,2.512,2.108,2.108,0,0,0-1.628.405,2.118,2.118,0,0,0-3.735,2.512,2.118,2.118,0,0,0-1.628,4.619Z" transform="translate(116.85 5.242)"/><circle class="f" cx="2.15" cy="2.15" r="2.15" transform="translate(118.695 5.604)"/><circle class="f" cx="2.181" cy="2.181" r="2.181" transform="translate(124.283 5.572)"/><path class="f" d="M-.446,4.831A2.215,2.215,0,0,0,1.771,2.614,2.215,2.215,0,0,0-.446.4,2.225,2.225,0,0,0-2.662,2.614,2.225,2.225,0,0,0-.446,4.831Z" transform="translate(132.526 5.139)"/><circle class="f" cx="2.228" cy="2.228" r="2.228" transform="translate(135.474 5.526)"/><circle class="f" cx="2.244" cy="2.244" r="2.244" transform="translate(141.078 5.51)"/><circle class="f" cx="0.031" cy="0.031" r="0.031" transform="translate(11.238 13.342)"/><circle class="f" cx="0.171" cy="0.171" r="0.171" transform="translate(16.718 13.202)"/><path class="f" d="M-9.233,1.535a.32.32,0,0,0,.328-.328A.32.32,0,0,0-9.233.879a.33.33,0,0,0-.328.328A.33.33,0,0,0-9.233,1.535Z" transform="translate(31.738 12.166)"/><path class="f" d="M-8.727,1.837a.486.486,0,0,0,.484-.484A.486.486,0,0,0-8.727.869a.486.486,0,0,0-.484.484A.486.486,0,0,0-8.727,1.837Z" transform="translate(36.851 12.02)"/><circle class="f" cx="0.639" cy="0.639" r="0.639" transform="translate(33.108 12.734)"/><circle class="f" cx="0.795" cy="0.795" r="0.795" transform="translate(38.571 12.578)"/><path class="f" d="M-7.223,2.713a.939.939,0,0,0,.937-.937A.939.939,0,0,0-7.223.84a.939.939,0,0,0-.937.937A.939.939,0,0,0-7.223,2.713Z" transform="translate(52.205 11.597)"/><circle class="f" cx="1.075" cy="1.075" r="1.075" transform="translate(49.529 12.298)"/><path class="f" d="M-6.24,3.257A1.219,1.219,0,0,0-5.023,2.039,1.219,1.219,0,0,0-6.24.822,1.219,1.219,0,0,0-7.458,2.039,1.219,1.219,0,0,0-6.24,3.257Z" transform="translate(62.461 11.334)"/><circle class="f" cx="1.34" cy="1.34" r="1.34" transform="translate(60.503 12.033)"/><circle class="f" cx="1.465" cy="1.465" r="1.465" transform="translate(65.997 11.908)"/><path class="f" d="M-4.81,3.982A1.6,1.6,0,0,0-3.218,2.39,1.6,1.6,0,0,0-4.81.8,1.6,1.6,0,0,0-6.4,2.39,1.6,1.6,0,0,0-4.81,3.982Z" transform="translate(77.888 10.983)"/><circle class="f" cx="1.698" cy="1.698" r="1.698" transform="translate(77.002 11.675)"/><circle class="f" cx="1.792" cy="1.792" r="1.792" transform="translate(82.528 11.581)"/><circle class="f" cx="1.885" cy="1.885" r="1.885" transform="translate(88.054 11.488)"/><circle class="f" cx="1.979" cy="1.979" r="1.979" transform="translate(93.579 11.394)"/><circle class="f" cx="2.057" cy="2.057" r="2.057" transform="translate(99.121 11.316)"/><path class="f" d="M-2.153,5.01A2.125,2.125,0,0,0-.03,2.887,2.125,2.125,0,0,0-2.153.764,2.125,2.125,0,0,0-4.276,2.887,2.125,2.125,0,0,0-2.153,5.01Z" transform="translate(108.947 10.486)"/><circle class="f" cx="2.181" cy="2.181" r="2.181" transform="translate(110.234 11.192)"/><circle class="f" cx="2.228" cy="2.228" r="2.228" transform="translate(115.807 11.145)"/><circle class="f" cx="2.259" cy="2.259" r="2.259" transform="translate(121.395 11.114)"/><path class="f" d="M-.552,5.342A2.3,2.3,0,0,0,1.742,3.048,2.3,2.3,0,0,0-.552.753,2.3,2.3,0,0,0-2.847,3.048,2.3,2.3,0,0,0-.552,5.342Z" transform="translate(129.823 10.326)"/><circle class="f" cx="2.322" cy="2.322" r="2.322" transform="translate(132.571 11.051)"/><circle class="f" cx="2.322" cy="2.322" r="2.322" transform="translate(138.19 11.051)"/><circle class="f" cx="0.016" cy="0.016" r="0.016" transform="translate(8.444 18.977)"/><circle class="f" cx="0.156" cy="0.156" r="0.156" transform="translate(13.923 18.836)"/><path class="f" d="M-9.428,1.864a.313.313,0,0,0,.312-.312.313.313,0,0,0-.312-.312.313.313,0,0,0-.312.312A.313.313,0,0,0-9.428,1.864Z" transform="translate(29.123 17.44)"/><path class="f" d="M-8.907,2.2a.486.486,0,0,0,.484-.484.486.486,0,0,0-.484-.484.486.486,0,0,0-.484.484A.486.486,0,0,0-8.907,2.2Z" transform="translate(34.222 17.28)"/><circle class="f" cx="0.639" cy="0.639" r="0.639" transform="translate(30.298 18.354)"/><circle class="f" cx="0.795" cy="0.795" r="0.795" transform="translate(35.762 18.198)"/><path class="f" d="M-7.4,3.073a.939.939,0,0,0,.937-.937A.939.939,0,0,0-7.4,1.2a.939.939,0,0,0-.937.937A.939.939,0,0,0-7.4,3.073Z" transform="translate(49.576 16.856)"/><circle class="f" cx="1.091" cy="1.091" r="1.091" transform="translate(46.704 17.902)"/><path class="f" d="M-6.406,3.647A1.226,1.226,0,0,0-5.173,2.414,1.226,1.226,0,0,0-6.406,1.181,1.236,1.236,0,0,0-7.639,2.414,1.236,1.236,0,0,0-6.406,3.647Z" transform="translate(59.817 16.578)"/><circle class="f" cx="1.356" cy="1.356" r="1.356" transform="translate(57.678 17.637)"/><path class="f" d="M-5.438,4.161a1.5,1.5,0,0,0,1.5-1.5,1.5,1.5,0,0,0-1.5-1.5,1.5,1.5,0,0,0-1.5,1.5A1.5,1.5,0,0,0-5.438,4.161Z" transform="translate(70.087 16.33)"/><circle class="f" cx="1.605" cy="1.605" r="1.605" transform="translate(68.667 17.387)"/><circle class="f" cx="1.73" cy="1.73" r="1.73" transform="translate(74.161 17.263)"/><circle class="f" cx="1.823" cy="1.823" r="1.823" transform="translate(79.687 17.169)"/><path class="f" d="M-3.588,5.007A1.935,1.935,0,0,0-1.653,3.072,1.935,1.935,0,0,0-3.588,1.136,1.945,1.945,0,0,0-5.524,3.072,1.945,1.945,0,0,0-3.588,5.007Z" transform="translate(90.715 15.921)"/><path class="f" d="M-3.141,5.188A2.025,2.025,0,0,0-1.112,3.159,2.025,2.025,0,0,0-3.141,1.13,2.035,2.035,0,0,0-5.17,3.159,2.035,2.035,0,0,0-3.141,5.188Z" transform="translate(95.886 15.833)"/><path class="f" d="M-2.708,5.339A2.108,2.108,0,0,0-.6,3.232,2.108,2.108,0,0,0-2.708,1.125,2.118,2.118,0,0,0-4.815,3.232,2.118,2.118,0,0,0-2.708,5.339Z" transform="translate(101.072 15.76)"/><circle class="f" cx="2.166" cy="2.166" r="2.166" transform="translate(101.821 16.826)"/><circle class="f" cx="2.228" cy="2.228" r="2.228" transform="translate(107.378 16.764)"/><path class="f" d="M-1.452,5.7A2.3,2.3,0,0,0,.842,3.408,2.3,2.3,0,0,0-1.452,1.113,2.3,2.3,0,0,0-3.747,3.408,2.3,2.3,0,0,0-1.452,5.7Z" transform="translate(116.675 15.585)"/><circle class="f" cx="2.322" cy="2.322" r="2.322" transform="translate(118.523 16.671)"/><circle class="f" cx="2.353" cy="2.353" r="2.353" transform="translate(124.111 16.64)"/><path class="f" d="M-.285,5.883A2.388,2.388,0,0,0,2.1,3.5,2.388,2.388,0,0,0-.285,1.107,2.4,2.4,0,0,0-2.673,3.5,2.4,2.4,0,0,0-.285,5.883Z" transform="translate(132.365 15.497)"/><path class="f" d="M.09,5.914a2.4,2.4,0,1,0,0-4.808,2.4,2.4,0,0,0,0,4.808Z" transform="translate(137.609 15.483)"/><circle class="f" cx="2.415" cy="2.415" r="2.415" transform="translate(140.907 16.577)"/><circle class="f" cx="0.125" cy="0.125" r="0.125" transform="translate(11.145 24.487)"/><path class="f" d="M-9.622,2.194a.3.3,0,0,0,.3-.3.3.3,0,0,0-.3-.3.307.307,0,0,0-.3.3A.307.307,0,0,0-9.622,2.194Z" transform="translate(26.508 22.714)"/><circle class="f" cx="0.467" cy="0.467" r="0.467" transform="translate(22.041 24.144)"/><circle class="f" cx="0.623" cy="0.623" r="0.623" transform="translate(27.504 23.988)"/><path class="f" d="M-8.09,3.131a.773.773,0,0,0,.78-.78.773.773,0,0,0-.78-.78.783.783,0,0,0-.78.78A.783.783,0,0,0-8.09,3.131Z" transform="translate(41.833 22.261)"/><path class="f" d="M-7.583,3.433A.939.939,0,0,0-6.647,2.5a.939.939,0,0,0-.937-.937A.939.939,0,0,0-8.52,2.5.939.939,0,0,0-7.583,3.433Z" transform="translate(46.946 22.115)"/><circle class="f" cx="1.091" cy="1.091" r="1.091" transform="translate(43.894 23.521)"/><path class="f" d="M-6.586,4.007A1.226,1.226,0,0,0-5.353,2.774,1.226,1.226,0,0,0-6.586,1.541,1.236,1.236,0,0,0-7.819,2.774,1.236,1.236,0,0,0-6.586,4.007Z" transform="translate(57.187 21.838)"/><circle class="f" cx="1.371" cy="1.371" r="1.371" transform="translate(54.852 23.24)"/><path class="f" d="M-5.618,4.521a1.5,1.5,0,0,0,1.5-1.5,1.5,1.5,0,0,0-1.5-1.5,1.5,1.5,0,0,0-1.5,1.5A1.5,1.5,0,0,0-5.618,4.521Z" transform="translate(67.457 21.589)"/><circle class="f" cx="1.621" cy="1.621" r="1.621" transform="translate(65.842 22.991)"/><path class="f" d="M-4.664,5A1.745,1.745,0,0,0-2.916,3.256,1.745,1.745,0,0,0-4.664,1.508,1.745,1.745,0,0,0-6.412,3.256,1.745,1.745,0,0,0-4.664,5Z" transform="translate(77.742 21.355)"/><path class="f" d="M-4.2,5.216A1.852,1.852,0,0,0-2.344,3.358,1.852,1.852,0,0,0-4.2,1.5,1.862,1.862,0,0,0-6.059,3.358,1.862,1.862,0,0,0-4.2,5.216Z" transform="translate(82.899 21.253)"/><circle class="f" cx="1.963" cy="1.963" r="1.963" transform="translate(82.357 22.648)"/><circle class="f" cx="2.057" cy="2.057" r="2.057" transform="translate(87.882 22.555)"/><circle class="f" cx="2.135" cy="2.135" r="2.135" transform="translate(93.424 22.477)"/><path class="f" d="M-2.426,5.911A2.225,2.225,0,0,0-.209,3.694,2.225,2.225,0,0,0-2.426,1.478,2.225,2.225,0,0,0-4.642,3.694,2.225,2.225,0,0,0-2.426,5.911Z" transform="translate(103.6 20.917)"/><path class="f" d="M-2.007,6.032A2.282,2.282,0,0,0,.272,3.753,2.282,2.282,0,0,0-2.007,1.474,2.292,2.292,0,0,0-4.286,3.753,2.292,2.292,0,0,0-2.007,6.032Z" transform="translate(108.801 20.859)"/><circle class="f" cx="2.337" cy="2.337" r="2.337" transform="translate(110.079 22.274)"/><path class="f" d="M-1.185,6.243A2.388,2.388,0,0,0,1.2,3.855,2.388,2.388,0,0,0-1.185,1.467,2.4,2.4,0,0,0-3.573,3.855,2.4,2.4,0,0,0-1.185,6.243Z" transform="translate(119.217 20.756)"/><circle class="f" cx="2.415" cy="2.415" r="2.415" transform="translate(121.239 22.196)"/><circle class="f" cx="2.446" cy="2.446" r="2.446" transform="translate(126.827 22.165)"/><path class="f" d="M-.032,6.394A2.471,2.471,0,0,0,2.434,3.928,2.471,2.471,0,0,0-.032,1.462,2.471,2.471,0,0,0-2.5,3.928,2.471,2.471,0,0,0-.032,6.394Z" transform="translate(134.921 20.683)"/><path class="f" d="M.343,6.425A2.482,2.482,0,1,0-2.139,3.943,2.478,2.478,0,0,0,.343,6.425Z" transform="translate(140.166 20.669)"/><circle class="f" cx="0.094" cy="0.094" r="0.094" transform="translate(8.366 30.137)"/><circle class="f" cx="0.265" cy="0.265" r="0.265" transform="translate(13.814 29.966)"/><circle class="f" cx="0.436" cy="0.436" r="0.436" transform="translate(19.262 29.795)"/><path class="f" d="M-8.8,3.128a.593.593,0,0,0,.593-.593A.593.593,0,0,0-8.8,1.942a.593.593,0,0,0-.593.593A.593.593,0,0,0-8.8,3.128Z" transform="translate(34.119 27.696)"/><path class="f" d="M-8.284,3.461A.766.766,0,0,0-7.519,2.7a.766.766,0,0,0-.765-.765.766.766,0,0,0-.765.765A.766.766,0,0,0-8.284,3.461Z" transform="translate(39.218 27.535)"/><circle class="f" cx="0.919" cy="0.919" r="0.919" transform="translate(35.637 29.311)"/><circle class="f" cx="1.075" cy="1.075" r="1.075" transform="translate(41.1 29.156)"/><path class="f" d="M-6.781,4.337A1.219,1.219,0,0,0-5.563,3.12,1.219,1.219,0,0,0-6.781,1.9,1.219,1.219,0,0,0-8,3.12,1.219,1.219,0,0,0-6.781,4.337Z" transform="translate(54.572 27.111)"/><circle class="f" cx="1.356" cy="1.356" r="1.356" transform="translate(52.058 28.875)"/><path class="f" d="M-5.8,4.881a1.5,1.5,0,0,0,1.5-1.5,1.5,1.5,0,0,0-1.5-1.5,1.5,1.5,0,0,0-1.5,1.5A1.5,1.5,0,0,0-5.8,4.881Z" transform="translate(64.828 26.848)"/><circle class="f" cx="1.636" cy="1.636" r="1.636" transform="translate(63.016 28.595)"/><path class="f" d="M-4.844,5.364A1.745,1.745,0,0,0-3.1,3.616,1.745,1.745,0,0,0-4.844,1.868,1.745,1.745,0,0,0-6.592,3.616,1.745,1.745,0,0,0-4.844,5.364Z" transform="translate(75.112 26.615)"/><circle class="f" cx="1.87" cy="1.87" r="1.87" transform="translate(74.021 28.361)"/><circle class="f" cx="1.979" cy="1.979" r="1.979" transform="translate(79.531 28.252)"/><circle class="f" cx="2.072" cy="2.072" r="2.072" transform="translate(85.057 28.158)"/><circle class="f" cx="2.166" cy="2.166" r="2.166" transform="translate(90.583 28.065)"/><circle class="f" cx="2.244" cy="2.244" r="2.244" transform="translate(96.124 27.987)"/><path class="f" d="M-2.158,6.452a2.3,2.3,0,0,0,2.31-2.31,2.3,2.3,0,0,0-2.31-2.31,2.315,2.315,0,0,0-2.31,2.31A2.315,2.315,0,0,0-2.158,6.452Z" transform="translate(106.142 26.089)"/><path class="f" d="M-1.739,6.573A2.372,2.372,0,0,0,.633,4.2,2.372,2.372,0,0,0-1.739,1.828,2.372,2.372,0,0,0-4.112,4.2,2.372,2.372,0,0,0-1.739,6.573Z" transform="translate(111.343 26.03)"/><circle class="f" cx="2.415" cy="2.415" r="2.415" transform="translate(112.81 27.816)"/><path class="f" d="M-.932,6.754A2.471,2.471,0,0,0,1.534,4.288,2.471,2.471,0,0,0-.932,1.822,2.471,2.471,0,0,0-3.4,4.288,2.471,2.471,0,0,0-.932,6.754Z" transform="translate(121.773 25.943)"/><path class="f" d="M-.543,6.815a2.5,2.5,0,0,0,2.5-2.5,2.5,2.5,0,0,0-2.5-2.5,2.5,2.5,0,0,0-2.5,2.5A2.5,2.5,0,0,0-.543,6.815Z" transform="translate(127.003 25.913)"/><circle class="f" cx="2.524" cy="2.524" r="2.524" transform="translate(129.559 27.707)"/><path class="f" d="M.236,6.936a2.56,2.56,0,1,0,0-5.12,2.56,2.56,0,0,0,0,5.12Z" transform="translate(137.463 25.855)"/><path class="f" d="M.581,6.936a2.56,2.56,0,0,0,0-5.12,2.56,2.56,0,0,0,0,5.12Z" transform="translate(142.737 25.855)"/><circle class="f" cx="0.062" cy="0.062" r="0.062" transform="translate(5.588 35.788)"/><circle class="f" cx="0.234" cy="0.234" r="0.234" transform="translate(11.036 35.616)"/><path class="f" d="M-9.52,3.126a.4.4,0,0,0,.406-.406.4.4,0,0,0-.406-.406.413.413,0,0,0-.406.406A.413.413,0,0,0-9.52,3.126Z" transform="translate(26.406 33.13)"/><circle class="f" cx="0.561" cy="0.561" r="0.561" transform="translate(21.947 35.289)"/><circle class="f" cx="0.732" cy="0.732" r="0.732" transform="translate(27.395 35.118)"/><circle class="f" cx="0.888" cy="0.888" r="0.888" transform="translate(32.859 34.962)"/><path class="f" d="M-7.481,4.365A1.046,1.046,0,0,0-6.435,3.319,1.046,1.046,0,0,0-7.481,2.273,1.046,1.046,0,0,0-8.527,3.319,1.046,1.046,0,0,0-7.481,4.365Z" transform="translate(46.844 32.531)"/><path class="f" d="M-6.975,4.667a1.2,1.2,0,0,0,1.2-1.2,1.2,1.2,0,0,0-1.2-1.2,1.213,1.213,0,0,0-1.2,1.2A1.213,1.213,0,0,0-6.975,4.667Z" transform="translate(51.957 32.385)"/><circle class="f" cx="1.34" cy="1.34" r="1.34" transform="translate(49.264 34.51)"/><path class="f" d="M-5.978,5.241a1.5,1.5,0,0,0,1.5-1.5,1.5,1.5,0,0,0-1.5-1.5,1.5,1.5,0,0,0-1.5,1.5A1.5,1.5,0,0,0-5.978,5.241Z" transform="translate(62.198 32.108)"/><circle class="f" cx="1.621" cy="1.621" r="1.621" transform="translate(60.222 34.23)"/><path class="f" d="M-5.024,5.724A1.745,1.745,0,0,0-3.276,3.976,1.745,1.745,0,0,0-5.024,2.228,1.745,1.745,0,0,0-6.772,3.976,1.745,1.745,0,0,0-5.024,5.724Z" transform="translate(72.483 31.874)"/><circle class="f" cx="1.87" cy="1.87" r="1.87" transform="translate(71.212 33.98)"/><circle class="f" cx="1.979" cy="1.979" r="1.979" transform="translate(76.722 33.871)"/><circle class="f" cx="2.088" cy="2.088" r="2.088" transform="translate(82.232 33.762)"/><circle class="f" cx="2.182" cy="2.182" r="2.182" transform="translate(87.758 33.669)"/><circle class="f" cx="2.259" cy="2.259" r="2.259" transform="translate(93.299 33.591)"/><circle class="f" cx="2.337" cy="2.337" r="2.337" transform="translate(98.84 33.513)"/><path class="f" d="M-1.89,6.994a2.4,2.4,0,0,0,2.4-2.4,2.4,2.4,0,0,0-2.4-2.4,2.4,2.4,0,0,0-2.4,2.4A2.4,2.4,0,0,0-1.89,6.994Z" transform="translate(108.684 31.26)"/><circle class="f" cx="2.446" cy="2.446" r="2.446" transform="translate(109.97 33.404)"/><path class="f" d="M-1.083,7.175a2.5,2.5,0,0,0,2.5-2.5,2.5,2.5,0,0,0-2.5-2.5,2.5,2.5,0,0,0-2.5,2.5A2.5,2.5,0,0,0-1.083,7.175Z" transform="translate(119.115 31.173)"/><circle class="f" cx="2.54" cy="2.54" r="2.54" transform="translate(121.115 33.31)"/><circle class="f" cx="2.587" cy="2.587" r="2.587" transform="translate(126.687 33.264)"/><circle class="f" cx="2.633" cy="2.633" r="2.633" transform="translate(132.26 33.217)"/><path class="f" d="M.489,7.477A2.654,2.654,0,1,0-2.149,4.824,2.651,2.651,0,0,0,.489,7.477Z" transform="translate(140.02 31.027)"/><circle class="f" cx="0.031" cy="0.031" r="0.031" transform="translate(2.81 41.438)"/><circle class="f" cx="0.187" cy="0.187" r="0.187" transform="translate(8.273 41.282)"/><path class="f" d="M-9.744,3.4a.353.353,0,0,0,.359-.359.353.353,0,0,0-.359-.359.363.363,0,0,0-.359.359A.363.363,0,0,0-9.744,3.4Z" transform="translate(23.82 38.433)"/><circle class="f" cx="0.53" cy="0.53" r="0.53" transform="translate(19.169 40.94)"/><path class="f" d="M-8.717,4.03a.693.693,0,0,0,.687-.687.693.693,0,0,0-.687-.687.693.693,0,0,0-.687.687A.693.693,0,0,0-8.717,4.03Z" transform="translate(34.032 38.127)"/><path class="f" d="M-8.2,4.362A.856.856,0,0,0-7.338,3.5.856.856,0,0,0-8.2,2.645a.866.866,0,0,0-.858.858A.866.866,0,0,0-8.2,4.362Z" transform="translate(39.13 37.966)"/><circle class="f" cx="1.013" cy="1.013" r="1.013" transform="translate(35.544 40.456)"/><circle class="f" cx="1.169" cy="1.169" r="1.169" transform="translate(41.007 40.301)"/><path class="f" d="M-6.678,5.269A1.326,1.326,0,0,0-5.351,3.942,1.326,1.326,0,0,0-6.678,2.615,1.326,1.326,0,0,0-8.005,3.942,1.326,1.326,0,0,0-6.678,5.269Z" transform="translate(54.47 37.528)"/><circle class="f" cx="1.465" cy="1.465" r="1.465" transform="translate(51.949 40.005)"/><circle class="f" cx="1.605" cy="1.605" r="1.605" transform="translate(57.428 39.864)"/><circle class="f" cx="1.73" cy="1.73" r="1.73" transform="translate(62.923 39.74)"/><path class="f" d="M-4.742,6.3A1.852,1.852,0,0,0-2.884,4.438,1.852,1.852,0,0,0-4.742,2.581,1.862,1.862,0,0,0-6.6,4.438,1.862,1.862,0,0,0-4.742,6.3Z" transform="translate(75.01 37.031)"/><circle class="f" cx="1.979" cy="1.979" r="1.979" transform="translate(73.912 39.49)"/><circle class="f" cx="2.088" cy="2.088" r="2.088" transform="translate(79.422 39.381)"/><circle class="f" cx="2.182" cy="2.182" r="2.182" transform="translate(84.948 39.288)"/><circle class="f" cx="2.259" cy="2.259" r="2.259" transform="translate(90.489 39.21)"/><circle class="f" cx="2.337" cy="2.337" r="2.337" transform="translate(96.031 39.132)"/><circle class="f" cx="2.415" cy="2.415" r="2.415" transform="translate(101.572 39.054)"/><path class="f" d="M-1.652,7.474A2.471,2.471,0,0,0,.814,5.008,2.471,2.471,0,0,0-1.652,2.542,2.471,2.471,0,0,0-4.118,5.008,2.471,2.471,0,0,0-1.652,7.474Z" transform="translate(111.255 36.461)"/><circle class="f" cx="2.524" cy="2.524" r="2.524" transform="translate(112.701 38.945)"/><circle class="f" cx="2.587" cy="2.587" r="2.587" transform="translate(118.258 38.883)"/><path class="f" d="M-.411,7.837A2.651,2.651,0,0,0,2.242,5.184,2.651,2.651,0,0,0-.411,2.53,2.638,2.638,0,0,0-3.049,5.184,2.638,2.638,0,0,0-.411,7.837Z" transform="translate(126.872 36.286)"/><circle class="f" cx="2.696" cy="2.696" r="2.696" transform="translate(129.388 38.774)"/><path class="f" d="M.4,8.018a2.747,2.747,0,1,0,0-5.494,2.747,2.747,0,0,0,0,5.494Z" transform="translate(137.303 36.198)"/><circle class="f" cx="2.774" cy="2.774" r="2.774" transform="translate(140.548 38.696)"/><circle class="f" cx="0.125" cy="0.125" r="0.125" transform="translate(5.526 46.964)"/><circle class="f" cx="0.296" cy="0.296" r="0.296" transform="translate(10.973 46.792)"/><circle class="f" cx="0.467" cy="0.467" r="0.467" transform="translate(16.422 46.621)"/><circle class="f" cx="0.639" cy="0.639" r="0.639" transform="translate(21.869 46.45)"/><circle class="f" cx="0.81" cy="0.81" r="0.81" transform="translate(27.317 46.278)"/><circle class="f" cx="0.966" cy="0.966" r="0.966" transform="translate(32.781 46.123)"/><path class="f" d="M-7.394,5.266A1.146,1.146,0,0,0-6.254,4.126,1.146,1.146,0,0,0-7.394,2.987,1.146,1.146,0,0,0-8.533,4.126,1.146,1.146,0,0,0-7.394,5.266Z" transform="translate(46.756 42.962)"/><circle class="f" cx="1.278" cy="1.278" r="1.278" transform="translate(43.707 45.811)"/><circle class="f" cx="1.434" cy="1.434" r="1.434" transform="translate(49.171 45.655)"/><path class="f" d="M-5.9,6.112A1.572,1.572,0,0,0-4.328,4.536,1.572,1.572,0,0,0-5.9,2.959,1.582,1.582,0,0,0-7.481,4.536,1.582,1.582,0,0,0-5.9,6.112Z" transform="translate(62.125 42.553)"/><circle class="f" cx="1.714" cy="1.714" r="1.714" transform="translate(60.129 45.375)"/><path class="f" d="M-4.936,6.626A1.845,1.845,0,0,0-3.094,4.784,1.845,1.845,0,0,0-4.936,2.942,1.845,1.845,0,0,0-6.778,4.784,1.845,1.845,0,0,0-4.936,6.626Z" transform="translate(72.395 42.305)"/><circle class="f" cx="1.963" cy="1.963" r="1.963" transform="translate(71.118 45.125)"/><circle class="f" cx="2.072" cy="2.072" r="2.072" transform="translate(76.628 45.016)"/><circle class="f" cx="2.166" cy="2.166" r="2.166" transform="translate(82.154 44.923)"/><circle class="f" cx="2.259" cy="2.259" r="2.259" transform="translate(87.68 44.829)"/><circle class="f" cx="2.337" cy="2.337" r="2.337" transform="translate(93.221 44.751)"/><circle class="f" cx="2.415" cy="2.415" r="2.415" transform="translate(98.762 44.673)"/><path class="f" d="M-1.817,7.865A2.478,2.478,0,0,0,.665,5.383,2.478,2.478,0,0,0-1.817,2.9,2.488,2.488,0,0,0-4.3,5.383,2.488,2.488,0,0,0-1.817,7.865Z" transform="translate(108.611 41.706)"/><circle class="f" cx="2.54" cy="2.54" r="2.54" transform="translate(109.876 44.549)"/><circle class="f" cx="2.618" cy="2.618" r="2.618" transform="translate(115.417 44.471)"/><circle class="f" cx="2.696" cy="2.696" r="2.696" transform="translate(120.959 44.393)"/><circle class="f" cx="2.774" cy="2.774" r="2.774" transform="translate(126.5 44.315)"/><path class="f" d="M.319,8.59a2.856,2.856,0,0,0,0-5.713,2.856,2.856,0,0,0,0,5.713Z" transform="translate(134.571 41.355)"/><circle class="f" cx="2.898" cy="2.898" r="2.898" transform="translate(137.614 44.19)"/><circle class="f" cx="0.062" cy="0.062" r="0.062" transform="translate(2.778 52.645)"/><circle class="f" cx="0.25" cy="0.25" r="0.25" transform="translate(8.211 52.458)"/><path class="f" d="M-9.686,4.236a.42.42,0,0,0,.421-.421.42.42,0,0,0-.421-.421.42.42,0,0,0-.421.421A.42.42,0,0,0-9.686,4.236Z" transform="translate(23.762 48.893)"/><path class="f" d="M-9.179,4.538A.576.576,0,0,0-8.6,3.961a.576.576,0,0,0-.578-.578.586.586,0,0,0-.578.578A.586.586,0,0,0-9.179,4.538Z" transform="translate(28.875 48.747)"/><path class="f" d="M-8.659,4.87a.749.749,0,0,0,.749-.749.749.749,0,0,0-.749-.749.76.76,0,0,0-.749.749A.76.76,0,0,0-8.659,4.87Z" transform="translate(33.973 48.587)"/><circle class="f" cx="0.919" cy="0.919" r="0.919" transform="translate(30.018 51.788)"/><circle class="f" cx="1.075" cy="1.075" r="1.075" transform="translate(35.481 51.633)"/><path class="f" d="M-7.126,5.807A1.226,1.226,0,0,0-5.893,4.574,1.226,1.226,0,0,0-7.126,3.341,1.236,1.236,0,0,0-8.359,4.574,1.236,1.236,0,0,0-7.126,5.807Z" transform="translate(49.298 48.134)"/><path class="f" d="M-6.62,6.109A1.392,1.392,0,0,0-5.231,4.72,1.392,1.392,0,0,0-6.62,3.331,1.392,1.392,0,0,0-8.009,4.72,1.392,1.392,0,0,0-6.62,6.109Z" transform="translate(54.411 47.988)"/><circle class="f" cx="1.543" cy="1.543" r="1.543" transform="translate(51.871 51.165)"/><path class="f" d="M-5.637,6.653a1.672,1.672,0,0,0,1.67-1.67,1.672,1.672,0,0,0-1.67-1.67,1.672,1.672,0,0,0-1.67,1.67A1.672,1.672,0,0,0-5.637,6.653Z" transform="translate(64.667 47.725)"/><circle class="f" cx="1.808" cy="1.808" r="1.808" transform="translate(62.845 50.9)"/><path class="f" d="M-4.668,7.167A1.935,1.935,0,0,0-2.733,5.232,1.935,1.935,0,0,0-4.668,3.3,1.945,1.945,0,0,0-6.6,5.232,1.945,1.945,0,0,0-4.668,7.167Z" transform="translate(74.937 47.476)"/><path class="f" d="M-4.206,7.379A2.052,2.052,0,0,0-2.161,5.334,2.052,2.052,0,0,0-4.206,3.289,2.052,2.052,0,0,0-6.251,5.334,2.052,2.052,0,0,0-4.206,7.379Z" transform="translate(80.094 47.374)"/><circle class="f" cx="2.15" cy="2.15" r="2.15" transform="translate(79.36 50.557)"/><circle class="f" cx="2.244" cy="2.244" r="2.244" transform="translate(84.886 50.464)"/><circle class="f" cx="2.337" cy="2.337" r="2.337" transform="translate(90.411 50.37)"/><circle class="f" cx="2.415" cy="2.415" r="2.415" transform="translate(95.953 50.293)"/><path class="f" d="M-2,8.225A2.478,2.478,0,0,0,.485,5.743,2.478,2.478,0,0,0-2,3.261,2.488,2.488,0,0,0-4.479,5.743,2.488,2.488,0,0,0-2,8.225Z" transform="translate(105.981 46.965)"/><path class="f" d="M-1.579,8.376a2.561,2.561,0,0,0,2.56-2.56,2.561,2.561,0,0,0-2.56-2.56,2.558,2.558,0,0,0-2.544,2.56A2.558,2.558,0,0,0-1.579,8.376Z" transform="translate(111.182 46.892)"/><circle class="f" cx="2.633" cy="2.633" r="2.633" transform="translate(112.592 50.074)"/><path class="f" d="M-.7,8.708A2.735,2.735,0,0,0,2.034,5.977,2.735,2.735,0,0,0-.7,3.245,2.731,2.731,0,0,0-3.414,5.977,2.731,2.731,0,0,0-.7,8.708Z" transform="translate(121.54 46.731)"/><path class="f" d="M-.25,8.889A2.825,2.825,0,0,0,2.575,6.064,2.824,2.824,0,0,0-.25,3.239,2.811,2.811,0,0,0-3.06,6.064,2.811,2.811,0,0,0-.25,8.889Z" transform="translate(126.711 46.644)"/><circle class="f" cx="2.945" cy="2.945" r="2.945" transform="translate(129.138 49.763)"/><circle class="f" cx="3.054" cy="3.054" r="3.054" transform="translate(134.648 49.654)"/><path class="f" d="M1.107,9.464a3.122,3.122,0,0,0,0-6.244,3.122,3.122,0,0,0,0,6.244Z" transform="translate(142.211 46.366)"/><circle class="f" cx="0.016" cy="0.016" r="0.016" transform="translate(0.016 58.311)"/><circle class="f" cx="0.172" cy="0.172" r="0.172" transform="translate(5.479 58.155)"/><path class="f" d="M-9.939,4.445A.346.346,0,0,0-9.6,4.1a.346.346,0,0,0-.343-.343.346.346,0,0,0-.343.343A.346.346,0,0,0-9.939,4.445Z" transform="translate(21.205 54.226)"/><path class="f" d="M-9.418,4.777A.52.52,0,0,0-8.9,4.262a.52.52,0,0,0-.515-.515.52.52,0,0,0-.515.515A.52.52,0,0,0-9.418,4.777Z" transform="translate(26.304 54.065)"/><path class="f" d="M-8.9,5.11a.693.693,0,0,0,.687-.687A.693.693,0,0,0-8.9,3.736a.693.693,0,0,0-.687.687A.693.693,0,0,0-8.9,5.11Z" transform="translate(31.402 53.904)"/><path class="f" d="M-8.377,5.442a.856.856,0,0,0,.858-.858.856.856,0,0,0-.858-.858.866.866,0,0,0-.858.858A.866.866,0,0,0-8.377,5.442Z" transform="translate(36.501 53.744)"/><circle class="f" cx="1.013" cy="1.013" r="1.013" transform="translate(32.734 57.314)"/><circle class="f" cx="1.184" cy="1.184" r="1.184" transform="translate(38.182 57.143)"/><circle class="f" cx="1.34" cy="1.34" r="1.34" transform="translate(43.645 56.987)"/><path class="f" d="M-6.352,6.651A1.482,1.482,0,0,0-4.869,5.168,1.482,1.482,0,0,0-6.352,3.685,1.492,1.492,0,0,0-7.835,5.168,1.492,1.492,0,0,0-6.352,6.651Z" transform="translate(56.953 53.159)"/><circle class="f" cx="1.621" cy="1.621" r="1.621" transform="translate(54.603 56.706)"/><path class="f" d="M-5.369,7.195A1.762,1.762,0,0,0-3.605,5.431,1.762,1.762,0,0,0-5.369,3.667,1.772,1.772,0,0,0-7.133,5.431,1.772,1.772,0,0,0-5.369,7.195Z" transform="translate(67.209 52.896)"/><circle class="f" cx="1.885" cy="1.885" r="1.885" transform="translate(65.577 56.442)"/><path class="f" d="M-4.415,7.678A2.018,2.018,0,0,0-2.4,5.665,2.018,2.018,0,0,0-4.415,3.651,2.018,2.018,0,0,0-6.429,5.665,2.018,2.018,0,0,0-4.415,7.678Z" transform="translate(77.494 52.662)"/><path class="f" d="M-3.953,7.89A2.125,2.125,0,0,0-1.83,5.767,2.125,2.125,0,0,0-3.953,3.644,2.125,2.125,0,0,0-6.076,5.767,2.125,2.125,0,0,0-3.953,7.89Z" transform="translate(82.651 52.56)"/><circle class="f" cx="2.228" cy="2.228" r="2.228" transform="translate(82.092 56.099)"/><circle class="f" cx="2.322" cy="2.322" r="2.322" transform="translate(87.617 56.005)"/><path class="f" d="M-2.61,8.434a2.4,2.4,0,0,0,2.4-2.4,2.4,2.4,0,0,0-2.4-2.4,2.4,2.4,0,0,0-2.4,2.4A2.4,2.4,0,0,0-2.61,8.434Z" transform="translate(98.165 52.297)"/><path class="f" d="M-2.192,8.554A2.471,2.471,0,0,0,.274,6.088,2.471,2.471,0,0,0-2.192,3.622,2.471,2.471,0,0,0-4.658,6.088,2.471,2.471,0,0,0-2.192,8.554Z" transform="translate(103.366 52.239)"/><circle class="f" cx="2.54" cy="2.54" r="2.54" transform="translate(104.257 55.787)"/><circle class="f" cx="2.618" cy="2.618" r="2.618" transform="translate(109.798 55.709)"/><path class="f" d="M-.878,9.068A2.735,2.735,0,0,0,1.854,6.337,2.735,2.735,0,0,0-.878,3.605,2.731,2.731,0,0,0-3.594,6.337,2.731,2.731,0,0,0-.878,9.068Z" transform="translate(118.91 51.99)"/><path class="f" d="M-.4,9.31A2.858,2.858,0,0,0,2.455,6.453,2.858,2.858,0,0,0-.4,3.6,2.845,2.845,0,0,0-3.242,6.453,2.845,2.845,0,0,0-.4,9.31Z" transform="translate(124.052 51.874)"/><path class="f" d="M.1,9.612a3.013,3.013,0,1,0,0-6.025,3.013,3.013,0,0,0,0,6.025Z" transform="translate(129.165 51.727)"/><circle class="f" cx="3.163" cy="3.163" r="3.163" transform="translate(131.73 55.164)"/><circle class="f" cx="3.319" cy="3.319" r="3.319" transform="translate(137.193 55.008)"/><circle class="f" cx="0.094" cy="0.094" r="0.094" transform="translate(2.747 63.853)"/><circle class="f" cx="0.265" cy="0.265" r="0.265" transform="translate(8.195 63.681)"/><path class="f" d="M-9.671,4.986a.436.436,0,0,0,.437-.437.436.436,0,0,0-.437-.437.447.447,0,0,0-.437.437A.447.447,0,0,0-9.671,4.986Z" transform="translate(23.747 59.397)"/><circle class="f" cx="0.608" cy="0.608" r="0.608" transform="translate(19.091 63.339)"/><path class="f" d="M-8.63,5.651a.773.773,0,0,0,.78-.78.773.773,0,0,0-.78-.78.783.783,0,0,0-.78.78A.783.783,0,0,0-8.63,5.651Z" transform="translate(33.944 59.076)"/><path class="f" d="M-8.109,5.983a.946.946,0,0,0,.952-.952.946.946,0,0,0-.952-.952.956.956,0,0,0-.952.952A.956.956,0,0,0-8.109,5.983Z" transform="translate(39.043 58.915)"/><path class="f" d="M-7.6,6.285A1.113,1.113,0,0,0-6.495,5.177,1.113,1.113,0,0,0-7.6,4.069,1.113,1.113,0,0,0-8.711,5.177,1.113,1.113,0,0,0-7.6,6.285Z" transform="translate(44.156 58.769)"/><circle class="f" cx="1.278" cy="1.278" r="1.278" transform="translate(40.898 62.668)"/><circle class="f" cx="1.418" cy="1.418" r="1.418" transform="translate(46.377 62.528)"/><path class="f" d="M-6.084,7.192A1.572,1.572,0,0,0-4.508,5.616,1.572,1.572,0,0,0-6.084,4.039,1.582,1.582,0,0,0-7.661,5.616,1.582,1.582,0,0,0-6.084,7.192Z" transform="translate(59.495 58.331)"/><circle class="f" cx="1.714" cy="1.714" r="1.714" transform="translate(57.319 62.232)"/><path class="f" d="M-5.116,7.706A1.845,1.845,0,0,0-3.274,5.864,1.845,1.845,0,0,0-5.116,4.022,1.845,1.845,0,0,0-6.958,5.864,1.845,1.845,0,0,0-5.116,7.706Z" transform="translate(69.765 58.082)"/><circle class="f" cx="1.963" cy="1.963" r="1.963" transform="translate(68.308 61.983)"/><circle class="f" cx="2.088" cy="2.088" r="2.088" transform="translate(73.803 61.858)"/><circle class="f" cx="2.182" cy="2.182" r="2.182" transform="translate(79.329 61.765)"/><path class="f" d="M-3.252,8.582A2.3,2.3,0,0,0-.958,6.288,2.3,2.3,0,0,0-3.252,3.993,2.3,2.3,0,0,0-5.547,6.288,2.3,2.3,0,0,0-3.252,8.582Z" transform="translate(90.379 57.659)"/><path class="f" d="M-2.819,8.733A2.372,2.372,0,0,0-.447,6.361,2.372,2.372,0,0,0-2.819,3.988,2.372,2.372,0,0,0-5.192,6.361,2.372,2.372,0,0,0-2.819,8.733Z" transform="translate(95.565 57.586)"/><circle class="f" cx="2.446" cy="2.446" r="2.446" transform="translate(95.922 61.5)"/><circle class="f" cx="2.524" cy="2.524" r="2.524" transform="translate(101.463 61.422)"/><circle class="f" cx="2.602" cy="2.602" r="2.602" transform="translate(107.004 61.344)"/><circle class="f" cx="2.711" cy="2.711" r="2.711" transform="translate(112.514 61.235)"/><path class="f" d="M-.6,9.64A2.841,2.841,0,0,0,2.245,6.8,2.841,2.841,0,0,0-.6,3.958,2.838,2.838,0,0,0-3.421,6.8,2.838,2.838,0,0,0-.6,9.64Z" transform="translate(121.437 57.147)"/><circle class="f" cx="2.992" cy="2.992" r="2.992" transform="translate(123.472 60.954)"/><path class="f" d="M.46,10.335a3.2,3.2,0,0,0,0-6.4,3.2,3.2,0,0,0,0,6.4Z" transform="translate(131.62 56.811)"/><circle class="f" cx="3.428" cy="3.428" r="3.428" transform="translate(134.275 60.518)"/><circle class="f" cx="3.615" cy="3.615" r="3.615" transform="translate(139.707 60.331)"/><circle class="f" cx="0.031" cy="0.031" r="0.031" transform="translate(0 69.534)"/><circle class="f" cx="0.187" cy="0.187" r="0.187" transform="translate(5.463 69.378)"/><path class="f" d="M-9.924,5.2a.353.353,0,0,0,.359-.359.353.353,0,0,0-.359-.359.353.353,0,0,0-.359.359A.353.353,0,0,0-9.924,5.2Z" transform="translate(21.191 64.729)"/><circle class="f" cx="0.53" cy="0.53" r="0.53" transform="translate(16.359 69.036)"/><circle class="f" cx="0.701" cy="0.701" r="0.701" transform="translate(21.807 68.864)"/><path class="f" d="M-8.362,6.192a.873.873,0,0,0,.874-.874.873.873,0,0,0-.874-.874.873.873,0,0,0-.874.874A.873.873,0,0,0-8.362,6.192Z" transform="translate(36.486 64.247)"/><path class="f" d="M-7.856,6.494a1.029,1.029,0,0,0,1.03-1.03,1.029,1.029,0,0,0-1.03-1.03,1.039,1.039,0,0,0-1.03,1.03A1.039,1.039,0,0,0-7.856,6.494Z" transform="translate(41.599 64.101)"/><path class="f" d="M-7.335,6.827a1.2,1.2,0,0,0,1.2-1.2,1.2,1.2,0,0,0-1.2-1.2,1.213,1.213,0,0,0-1.2,1.2A1.213,1.213,0,0,0-7.335,6.827Z" transform="translate(46.698 63.941)"/><circle class="f" cx="1.356" cy="1.356" r="1.356" transform="translate(43.63 68.21)"/><path class="f" d="M-6.338,7.4a1.5,1.5,0,0,0,1.5-1.5,1.5,1.5,0,0,0-1.5-1.5,1.5,1.5,0,0,0-1.5,1.5A1.5,1.5,0,0,0-6.338,7.4Z" transform="translate(56.939 63.663)"/><path class="f" d="M-5.831,7.7A1.655,1.655,0,0,0-4.177,6.049,1.655,1.655,0,0,0-5.831,4.394,1.666,1.666,0,0,0-7.486,6.049,1.666,1.666,0,0,0-5.831,7.7Z" transform="translate(62.052 63.517)"/><circle class="f" cx="1.776" cy="1.776" r="1.776" transform="translate(60.067 67.789)"/><path class="f" d="M-4.863,8.217A1.919,1.919,0,0,0-2.943,6.3a1.919,1.919,0,0,0-1.92-1.92A1.919,1.919,0,0,0-6.783,6.3,1.919,1.919,0,0,0-4.863,8.217Z" transform="translate(72.322 63.269)"/><path class="f" d="M-4.4,8.428A2.025,2.025,0,0,0-2.372,6.4,2.025,2.025,0,0,0-4.4,4.37,2.035,2.035,0,0,0-6.43,6.4,2.035,2.035,0,0,0-4.4,8.428Z" transform="translate(77.479 63.166)"/><circle class="f" cx="2.15" cy="2.15" r="2.15" transform="translate(76.55 67.415)"/><circle class="f" cx="2.244" cy="2.244" r="2.244" transform="translate(82.076 67.322)"/><circle class="f" cx="2.337" cy="2.337" r="2.337" transform="translate(87.602 67.228)"/><circle class="f" cx="2.415" cy="2.415" r="2.415" transform="translate(93.143 67.15)"/><path class="f" d="M-2.177,9.3A2.478,2.478,0,0,0,.3,6.823,2.478,2.478,0,0,0-2.177,4.341,2.488,2.488,0,0,0-4.659,6.823,2.488,2.488,0,0,0-2.177,9.3Z" transform="translate(103.351 62.743)"/><path class="f" d="M-1.73,9.486A2.578,2.578,0,0,0,.846,6.91,2.578,2.578,0,0,0-1.73,4.335,2.578,2.578,0,0,0-4.3,6.91,2.578,2.578,0,0,0-1.73,9.486Z" transform="translate(108.523 62.655)"/><path class="f" d="M-1.3,9.667A2.678,2.678,0,0,0,1.373,7,2.678,2.678,0,0,0-1.3,4.329,2.665,2.665,0,0,0-3.95,7,2.665,2.665,0,0,0-1.3,9.667Z" transform="translate(113.709 62.567)"/><circle class="f" cx="2.774" cy="2.774" r="2.774" transform="translate(115.262 66.792)"/><path class="f" d="M-.328,10.181A2.931,2.931,0,0,0,2.606,7.246,2.931,2.931,0,0,0-.328,4.312,2.928,2.928,0,0,0-3.247,7.246,2.928,2.928,0,0,0-.328,10.181Z" transform="translate(123.979 62.319)"/><circle class="f" cx="3.132" cy="3.132" r="3.132" transform="translate(126.142 66.434)"/><path class="f" d="M.816,11.057A3.387,3.387,0,1,0-2.556,7.67,3.384,3.384,0,0,0,.816,11.057Z" transform="translate(134.074 61.895)"/><path class="f" d="M1.424,11.571A3.653,3.653,0,1,0-2.213,7.919,3.657,3.657,0,0,0,1.424,11.571Z" transform="translate(139.085 61.647)"/><circle class="f" cx="0.094" cy="0.094" r="0.094" transform="translate(2.747 75.091)"/><circle class="f" cx="0.265" cy="0.265" r="0.265" transform="translate(8.195 74.92)"/><path class="f" d="M-9.671,5.706a.436.436,0,0,0,.437-.437.436.436,0,0,0-.437-.437.447.447,0,0,0-.437.437A.447.447,0,0,0-9.671,5.706Z" transform="translate(23.747 69.916)"/><circle class="f" cx="0.608" cy="0.608" r="0.608" transform="translate(19.091 74.577)"/><path class="f" d="M-8.63,6.371a.773.773,0,0,0,.78-.78.773.773,0,0,0-.78-.78.783.783,0,0,0-.78.78A.783.783,0,0,0-8.63,6.371Z" transform="translate(33.944 69.594)"/><path class="f" d="M-8.109,6.7a.946.946,0,0,0,.952-.952A.946.946,0,0,0-8.109,4.8a.956.956,0,0,0-.952.952A.956.956,0,0,0-8.109,6.7Z" transform="translate(39.043 69.434)"/><path class="f" d="M-7.588,7.036A1.119,1.119,0,0,0-6.464,5.912,1.119,1.119,0,0,0-7.588,4.788,1.129,1.129,0,0,0-8.712,5.912,1.129,1.129,0,0,0-7.588,7.036Z" transform="translate(44.141 69.273)"/><circle class="f" cx="1.278" cy="1.278" r="1.278" transform="translate(40.898 73.907)"/><circle class="f" cx="1.418" cy="1.418" r="1.418" transform="translate(46.377 73.767)"/><path class="f" d="M-6.084,7.912A1.572,1.572,0,0,0-4.508,6.336,1.572,1.572,0,0,0-6.084,4.759,1.582,1.582,0,0,0-7.661,6.336,1.582,1.582,0,0,0-6.084,7.912Z" transform="translate(59.495 68.849)"/><circle class="f" cx="1.714" cy="1.714" r="1.714" transform="translate(57.319 73.471)"/><path class="f" d="M-5.116,8.426A1.845,1.845,0,0,0-3.274,6.584,1.845,1.845,0,0,0-5.116,4.742,1.845,1.845,0,0,0-6.958,6.584,1.845,1.845,0,0,0-5.116,8.426Z" transform="translate(69.765 68.601)"/><circle class="f" cx="1.963" cy="1.963" r="1.963" transform="translate(68.308 73.221)"/><circle class="f" cx="2.088" cy="2.088" r="2.088" transform="translate(73.803 73.097)"/><path class="f" d="M-3.7,9.121a2.2,2.2,0,0,0,2.2-2.2,2.2,2.2,0,0,0-2.2-2.2,2.2,2.2,0,0,0-2.2,2.2A2.2,2.2,0,0,0-3.7,9.121Z" transform="translate(85.207 68.265)"/><path class="f" d="M-3.252,9.3A2.3,2.3,0,0,0-.958,7.008,2.3,2.3,0,0,0-3.252,4.713,2.3,2.3,0,0,0-5.547,7.008,2.3,2.3,0,0,0-3.252,9.3Z" transform="translate(90.379 68.177)"/><path class="f" d="M-2.819,9.453A2.372,2.372,0,0,0-.447,7.081,2.372,2.372,0,0,0-2.819,4.708,2.372,2.372,0,0,0-5.192,7.081,2.372,2.372,0,0,0-2.819,9.453Z" transform="translate(95.565 68.104)"/><circle class="f" cx="2.446" cy="2.446" r="2.446" transform="translate(95.922 72.738)"/><circle class="f" cx="2.524" cy="2.524" r="2.524" transform="translate(101.463 72.66)"/><circle class="f" cx="2.602" cy="2.602" r="2.602" transform="translate(107.004 72.583)"/><circle class="f" cx="2.711" cy="2.711" r="2.711" transform="translate(112.514 72.473)"/><path class="f" d="M-.6,10.36A2.841,2.841,0,0,0,2.245,7.519,2.841,2.841,0,0,0-.6,4.678,2.838,2.838,0,0,0-3.421,7.519,2.838,2.838,0,0,0-.6,10.36Z" transform="translate(121.437 67.666)"/><path class="f" d="M-.075,10.692A3.014,3.014,0,0,0,2.937,7.68,3.014,3.014,0,0,0-.075,4.667a3.011,3.011,0,0,0-3,3.013A3.011,3.011,0,0,0-.075,10.692Z" transform="translate(126.536 67.505)"/><path class="f" d="M.475,11.085a3.215,3.215,0,1,0-3.2-3.215A3.211,3.211,0,0,0,.475,11.085Z" transform="translate(131.605 67.315)"/><circle class="f" cx="3.428" cy="3.428" r="3.428" transform="translate(134.275 71.757)"/><path class="f" d="M1.589,11.9a3.637,3.637,0,0,0,0-7.274,3.637,3.637,0,0,0,0,7.274Z" transform="translate(141.729 66.921)"/><circle class="f" cx="0.016" cy="0.016" r="0.016" transform="translate(0.016 80.788)"/><circle class="f" cx="0.172" cy="0.172" r="0.172" transform="translate(5.479 80.632)"/><path class="f" d="M-9.939,5.885A.346.346,0,0,0-9.6,5.541.346.346,0,0,0-9.939,5.2a.346.346,0,0,0-.343.343A.346.346,0,0,0-9.939,5.885Z" transform="translate(21.205 75.263)"/><path class="f" d="M-9.418,6.217A.52.52,0,0,0-8.9,5.7a.52.52,0,0,0-.515-.515.52.52,0,0,0-.515.515A.52.52,0,0,0-9.418,6.217Z" transform="translate(26.304 75.102)"/><path class="f" d="M-8.9,6.55a.693.693,0,0,0,.687-.687A.693.693,0,0,0-8.9,5.176a.693.693,0,0,0-.687.687A.693.693,0,0,0-8.9,6.55Z" transform="translate(31.402 74.941)"/><path class="f" d="M-8.377,6.882a.856.856,0,0,0,.858-.859.856.856,0,0,0-.858-.858.866.866,0,0,0-.858.858A.866.866,0,0,0-8.377,6.882Z" transform="translate(36.501 74.78)"/><circle class="f" cx="1.013" cy="1.013" r="1.013" transform="translate(32.734 79.791)"/><circle class="f" cx="1.184" cy="1.184" r="1.184" transform="translate(38.182 79.62)"/><circle class="f" cx="1.34" cy="1.34" r="1.34" transform="translate(43.645 79.464)"/><path class="f" d="M-6.352,8.091A1.482,1.482,0,0,0-4.869,6.608,1.482,1.482,0,0,0-6.352,5.125,1.492,1.492,0,0,0-7.835,6.608,1.492,1.492,0,0,0-6.352,8.091Z" transform="translate(56.953 74.196)"/><circle class="f" cx="1.636" cy="1.636" r="1.636" transform="translate(54.588 79.168)"/><path class="f" d="M-5.369,8.635A1.762,1.762,0,0,0-3.605,6.871,1.762,1.762,0,0,0-5.369,5.107,1.772,1.772,0,0,0-7.133,6.871,1.772,1.772,0,0,0-5.369,8.635Z" transform="translate(67.209 73.933)"/><circle class="f" cx="1.885" cy="1.885" r="1.885" transform="translate(65.577 78.919)"/><path class="f" d="M-4.415,9.118A2.018,2.018,0,0,0-2.4,7.1,2.018,2.018,0,0,0-4.415,5.091,2.018,2.018,0,0,0-6.429,7.1,2.018,2.018,0,0,0-4.415,9.118Z" transform="translate(77.494 73.699)"/><path class="f" d="M-3.953,9.33A2.125,2.125,0,0,0-1.83,7.207,2.125,2.125,0,0,0-3.953,5.084,2.125,2.125,0,0,0-6.076,7.207,2.125,2.125,0,0,0-3.953,9.33Z" transform="translate(82.651 73.597)"/><circle class="f" cx="2.228" cy="2.228" r="2.228" transform="translate(82.092 78.576)"/><circle class="f" cx="2.322" cy="2.322" r="2.322" transform="translate(87.617 78.482)"/><path class="f" d="M-2.61,9.874a2.4,2.4,0,0,0,2.4-2.4,2.4,2.4,0,0,0-2.4-2.4,2.4,2.4,0,0,0-2.4,2.4A2.4,2.4,0,0,0-2.61,9.874Z" transform="translate(98.165 73.334)"/><path class="f" d="M-2.192,9.994A2.471,2.471,0,0,0,.274,7.528,2.471,2.471,0,0,0-2.192,5.062,2.471,2.471,0,0,0-4.658,7.528,2.471,2.471,0,0,0-2.192,9.994Z" transform="translate(103.366 73.276)"/><circle class="f" cx="2.54" cy="2.54" r="2.54" transform="translate(104.257 78.264)"/><circle class="f" cx="2.633" cy="2.633" r="2.633" transform="translate(109.783 78.171)"/><path class="f" d="M-.878,10.508A2.735,2.735,0,0,0,1.854,7.777,2.735,2.735,0,0,0-.878,5.045,2.731,2.731,0,0,0-3.594,7.777,2.731,2.731,0,0,0-.878,10.508Z" transform="translate(118.91 73.027)"/><path class="f" d="M-.4,10.75A2.858,2.858,0,0,0,2.455,7.893,2.858,2.858,0,0,0-.4,5.037,2.845,2.845,0,0,0-3.242,7.893,2.845,2.845,0,0,0-.4,10.75Z" transform="translate(124.052 72.91)"/><path class="f" d="M.1,11.052a3.013,3.013,0,1,0,0-6.025,3.013,3.013,0,0,0,0,6.025Z" transform="translate(129.165 72.764)"/><path class="f" d="M.626,11.384a3.184,3.184,0,0,0,0-6.368,3.184,3.184,0,0,0,0,6.368Z" transform="translate(134.264 72.604)"/><circle class="f" cx="3.335" cy="3.335" r="3.335" transform="translate(137.178 77.469)"/><circle class="f" cx="0.062" cy="0.062" r="0.062" transform="translate(2.778 86.361)"/><circle class="f" cx="0.25" cy="0.25" r="0.25" transform="translate(8.211 86.174)"/><path class="f" d="M-9.686,6.4a.42.42,0,0,0,.421-.421.42.42,0,0,0-.421-.421.42.42,0,0,0-.421.421A.42.42,0,0,0-9.686,6.4Z" transform="translate(23.762 80.449)"/><path class="f" d="M-9.179,6.7A.576.576,0,0,0-8.6,6.121a.576.576,0,0,0-.578-.578.586.586,0,0,0-.578.578A.586.586,0,0,0-9.179,6.7Z" transform="translate(28.875 80.303)"/><path class="f" d="M-8.659,7.03a.749.749,0,0,0,.749-.749.749.749,0,0,0-.749-.749.76.76,0,0,0-.749.749A.76.76,0,0,0-8.659,7.03Z" transform="translate(33.973 80.142)"/><circle class="f" cx="0.919" cy="0.919" r="0.919" transform="translate(30.018 85.504)"/><circle class="f" cx="1.075" cy="1.075" r="1.075" transform="translate(35.481 85.348)"/><circle class="f" cx="1.247" cy="1.247" r="1.247" transform="translate(40.929 85.177)"/><path class="f" d="M-6.62,8.269A1.392,1.392,0,0,0-5.231,6.88,1.392,1.392,0,0,0-6.62,5.491,1.392,1.392,0,0,0-8.009,6.88,1.392,1.392,0,0,0-6.62,8.269Z" transform="translate(54.411 79.543)"/><circle class="f" cx="1.543" cy="1.543" r="1.543" transform="translate(51.871 84.881)"/><path class="f" d="M-5.622,8.844A1.679,1.679,0,0,0-3.936,7.158,1.679,1.679,0,0,0-5.622,5.472,1.689,1.689,0,0,0-7.308,7.158,1.689,1.689,0,0,0-5.622,8.844Z" transform="translate(64.652 79.265)"/><circle class="f" cx="1.808" cy="1.808" r="1.808" transform="translate(62.845 84.616)"/><path class="f" d="M-4.668,9.327A1.935,1.935,0,0,0-2.733,7.392,1.935,1.935,0,0,0-4.668,5.456,1.945,1.945,0,0,0-6.6,7.392,1.945,1.945,0,0,0-4.668,9.327Z" transform="translate(74.937 79.032)"/><path class="f" d="M-4.206,9.539A2.052,2.052,0,0,0-2.161,7.494,2.052,2.052,0,0,0-4.206,5.449,2.052,2.052,0,0,0-6.251,7.494,2.052,2.052,0,0,0-4.206,9.539Z" transform="translate(80.094 78.929)"/><circle class="f" cx="2.15" cy="2.15" r="2.15" transform="translate(79.36 84.273)"/><circle class="f" cx="2.259" cy="2.259" r="2.259" transform="translate(84.87 84.164)"/><circle class="f" cx="2.337" cy="2.337" r="2.337" transform="translate(90.411 84.086)"/><circle class="f" cx="2.415" cy="2.415" r="2.415" transform="translate(95.953 84.008)"/><path class="f" d="M-2,10.385A2.478,2.478,0,0,0,.485,7.9,2.478,2.478,0,0,0-2,5.421,2.488,2.488,0,0,0-4.479,7.9,2.488,2.488,0,0,0-2,10.385Z" transform="translate(105.981 78.52)"/><path class="f" d="M-1.579,10.536a2.561,2.561,0,0,0,2.56-2.56,2.561,2.561,0,0,0-2.56-2.56,2.558,2.558,0,0,0-2.544,2.56A2.558,2.558,0,0,0-1.579,10.536Z" transform="translate(111.182 78.447)"/><circle class="f" cx="2.633" cy="2.633" r="2.633" transform="translate(112.592 83.79)"/><path class="f" d="M-.7,10.868A2.735,2.735,0,0,0,2.034,8.137,2.735,2.735,0,0,0-.7,5.405,2.731,2.731,0,0,0-3.414,8.137,2.731,2.731,0,0,0-.7,10.868Z" transform="translate(121.54 78.287)"/><path class="f" d="M-.236,11.08A2.841,2.841,0,0,0,2.605,8.239,2.841,2.841,0,0,0-.236,5.4,2.838,2.838,0,0,0-3.061,8.239,2.838,2.838,0,0,0-.236,11.08Z" transform="translate(126.697 78.184)"/><circle class="f" cx="2.961" cy="2.961" r="2.961" transform="translate(129.123 83.463)"/><circle class="f" cx="3.07" cy="3.07" r="3.07" transform="translate(134.633 83.354)"/><circle class="f" cx="3.132" cy="3.132" r="3.132" transform="translate(140.19 83.291)"/><circle class="f" cx="0.125" cy="0.125" r="0.125" transform="translate(5.526 91.918)"/><circle class="f" cx="0.296" cy="0.296" r="0.296" transform="translate(10.973 91.746)"/><circle class="f" cx="0.467" cy="0.467" r="0.467" transform="translate(16.422 91.575)"/><circle class="f" cx="0.639" cy="0.639" r="0.639" transform="translate(21.869 91.404)"/><circle class="f" cx="0.81" cy="0.81" r="0.81" transform="translate(27.317 91.232)"/><circle class="f" cx="0.966" cy="0.966" r="0.966" transform="translate(32.781 91.076)"/><path class="f" d="M-7.394,8.146A1.146,1.146,0,0,0-6.254,7.006,1.146,1.146,0,0,0-7.394,5.867,1.146,1.146,0,0,0-8.533,7.006,1.146,1.146,0,0,0-7.394,8.146Z" transform="translate(46.756 85.036)"/><path class="f" d="M-6.887,8.448a1.292,1.292,0,0,0,1.3-1.3,1.292,1.292,0,0,0-1.3-1.3,1.292,1.292,0,0,0-1.3,1.3A1.292,1.292,0,0,0-6.887,8.448Z" transform="translate(51.869 84.89)"/><circle class="f" cx="1.434" cy="1.434" r="1.434" transform="translate(49.171 90.609)"/><path class="f" d="M-5.9,8.992A1.572,1.572,0,0,0-4.328,7.416,1.572,1.572,0,0,0-5.9,5.839,1.582,1.582,0,0,0-7.481,7.416,1.582,1.582,0,0,0-5.9,8.992Z" transform="translate(62.125 84.627)"/><circle class="f" cx="1.714" cy="1.714" r="1.714" transform="translate(60.129 90.328)"/><path class="f" d="M-4.936,9.506A1.845,1.845,0,0,0-3.094,7.664,1.845,1.845,0,0,0-4.936,5.822,1.845,1.845,0,0,0-6.778,7.664,1.845,1.845,0,0,0-4.936,9.506Z" transform="translate(72.395 84.379)"/><circle class="f" cx="1.963" cy="1.963" r="1.963" transform="translate(71.118 90.079)"/><circle class="f" cx="2.072" cy="2.072" r="2.072" transform="translate(76.628 89.97)"/><circle class="f" cx="2.182" cy="2.182" r="2.182" transform="translate(82.138 89.861)"/><path class="f" d="M-3.087,10.352A2.282,2.282,0,0,0-.808,8.073,2.282,2.282,0,0,0-3.087,5.794,2.292,2.292,0,0,0-5.366,8.073,2.292,2.292,0,0,0-3.087,10.352Z" transform="translate(93.023 83.97)"/><circle class="f" cx="2.353" cy="2.353" r="2.353" transform="translate(93.205 89.69)"/><circle class="f" cx="2.415" cy="2.415" r="2.415" transform="translate(98.762 89.627)"/><path class="f" d="M-1.817,10.745A2.478,2.478,0,0,0,.665,8.263,2.478,2.478,0,0,0-1.817,5.781,2.488,2.488,0,0,0-4.3,8.263,2.488,2.488,0,0,0-1.817,10.745Z" transform="translate(108.611 83.78)"/><path class="f" d="M-1.384,10.9a2.561,2.561,0,0,0,2.56-2.56,2.561,2.561,0,0,0-2.56-2.56,2.571,2.571,0,0,0-2.56,2.56A2.571,2.571,0,0,0-1.384,10.9Z" transform="translate(113.797 83.707)"/><circle class="f" cx="2.618" cy="2.618" r="2.618" transform="translate(115.417 89.425)"/><circle class="f" cx="2.711" cy="2.711" r="2.711" transform="translate(120.943 89.331)"/><circle class="f" cx="2.789" cy="2.789" r="2.789" transform="translate(126.485 89.253)"/><circle class="f" cx="2.867" cy="2.867" r="2.867" transform="translate(132.026 89.175)"/><path class="f" d="M.737,11.591a2.919,2.919,0,1,0,0-5.838,2.919,2.919,0,0,0,0,5.838Z" transform="translate(139.772 83.371)"/><circle class="f" cx="0.031" cy="0.031" r="0.031" transform="translate(2.81 97.63)"/><circle class="f" cx="0.187" cy="0.187" r="0.187" transform="translate(8.273 97.474)"/><path class="f" d="M-9.744,7a.353.353,0,0,0,.359-.359.353.353,0,0,0-.359-.359.363.363,0,0,0-.359.359A.363.363,0,0,0-9.744,7Z" transform="translate(23.82 91.026)"/><circle class="f" cx="0.53" cy="0.53" r="0.53" transform="translate(19.169 97.132)"/><path class="f" d="M-8.717,7.63a.693.693,0,0,0,.687-.687.693.693,0,0,0-.687-.687.693.693,0,0,0-.687.687A.693.693,0,0,0-8.717,7.63Z" transform="translate(34.032 90.719)"/><path class="f" d="M-8.2,7.962A.856.856,0,0,0-7.338,7.1.856.856,0,0,0-8.2,6.245a.866.866,0,0,0-.858.858A.866.866,0,0,0-8.2,7.962Z" transform="translate(39.13 90.558)"/><circle class="f" cx="1.013" cy="1.013" r="1.013" transform="translate(35.544 96.649)"/><circle class="f" cx="1.169" cy="1.169" r="1.169" transform="translate(41.007 96.493)"/><path class="f" d="M-6.678,8.869A1.326,1.326,0,0,0-5.351,7.542,1.326,1.326,0,0,0-6.678,6.215,1.326,1.326,0,0,0-8.005,7.542,1.326,1.326,0,0,0-6.678,8.869Z" transform="translate(54.47 90.12)"/><circle class="f" cx="1.465" cy="1.465" r="1.465" transform="translate(51.949 96.197)"/><circle class="f" cx="1.605" cy="1.605" r="1.605" transform="translate(57.428 96.057)"/><circle class="f" cx="1.73" cy="1.73" r="1.73" transform="translate(62.923 95.932)"/><path class="f" d="M-4.742,9.9A1.852,1.852,0,0,0-2.884,8.038,1.852,1.852,0,0,0-4.742,6.181,1.862,1.862,0,0,0-6.6,8.038,1.862,1.862,0,0,0-4.742,9.9Z" transform="translate(75.01 89.623)"/><circle class="f" cx="1.979" cy="1.979" r="1.979" transform="translate(73.912 95.683)"/><circle class="f" cx="2.088" cy="2.088" r="2.088" transform="translate(79.422 95.574)"/><circle class="f" cx="2.182" cy="2.182" r="2.182" transform="translate(84.948 95.48)"/><path class="f" d="M-2.907,10.712A2.282,2.282,0,0,0-.628,8.433,2.282,2.282,0,0,0-2.907,6.154,2.292,2.292,0,0,0-5.186,8.433,2.292,2.292,0,0,0-2.907,10.712Z" transform="translate(95.653 89.229)"/><circle class="f" cx="2.353" cy="2.353" r="2.353" transform="translate(96.015 95.309)"/><circle class="f" cx="2.415" cy="2.415" r="2.415" transform="translate(101.572 95.246)"/><path class="f" d="M-1.637,11.1A2.478,2.478,0,0,0,.845,8.623,2.478,2.478,0,0,0-1.637,6.141,2.488,2.488,0,0,0-4.119,8.623,2.488,2.488,0,0,0-1.637,11.1Z" transform="translate(111.24 89.039)"/><circle class="f" cx="2.54" cy="2.54" r="2.54" transform="translate(112.686 95.122)"/><circle class="f" cx="2.602" cy="2.602" r="2.602" transform="translate(118.243 95.059)"/><path class="f" d="M-.411,11.437A2.651,2.651,0,0,0,2.242,8.784,2.651,2.651,0,0,0-.411,6.13,2.638,2.638,0,0,0-3.049,8.784,2.638,2.638,0,0,0-.411,11.437Z" transform="translate(126.872 88.878)"/><circle class="f" cx="2.711" cy="2.711" r="2.711" transform="translate(129.372 94.95)"/><path class="f" d="M.411,11.649A2.763,2.763,0,1,0-2.336,8.886,2.758,2.758,0,0,0,.411,11.649Z" transform="translate(137.288 88.776)"/><circle class="f" cx="2.789" cy="2.789" r="2.789" transform="translate(140.533 94.872)"/><circle class="f" cx="0.062" cy="0.062" r="0.062" transform="translate(5.588 103.219)"/><circle class="f" cx="0.234" cy="0.234" r="0.234" transform="translate(11.036 103.047)"/><path class="f" d="M-9.52,7.446a.4.4,0,0,0,.406-.406.4.4,0,0,0-.406-.406.413.413,0,0,0-.406.406A.413.413,0,0,0-9.52,7.446Z" transform="translate(26.406 96.241)"/><circle class="f" cx="0.561" cy="0.561" r="0.561" transform="translate(21.947 102.72)"/><circle class="f" cx="0.732" cy="0.732" r="0.732" transform="translate(27.395 102.548)"/><circle class="f" cx="0.888" cy="0.888" r="0.888" transform="translate(32.859 102.393)"/><path class="f" d="M-7.481,8.685A1.046,1.046,0,0,0-6.435,7.639,1.046,1.046,0,0,0-7.481,6.593,1.046,1.046,0,0,0-8.527,7.639,1.046,1.046,0,0,0-7.481,8.685Z" transform="translate(46.844 95.642)"/><path class="f" d="M-6.975,8.987a1.2,1.2,0,0,0,1.2-1.2,1.2,1.2,0,0,0-1.2-1.2,1.213,1.213,0,0,0-1.2,1.2A1.213,1.213,0,0,0-6.975,8.987Z" transform="translate(51.957 95.496)"/><circle class="f" cx="1.356" cy="1.356" r="1.356" transform="translate(49.249 101.925)"/><path class="f" d="M-5.978,9.561a1.5,1.5,0,0,0,1.5-1.5,1.5,1.5,0,0,0-1.5-1.5,1.5,1.5,0,0,0-1.5,1.5A1.5,1.5,0,0,0-5.978,9.561Z" transform="translate(62.198 95.218)"/><circle class="f" cx="1.621" cy="1.621" r="1.621" transform="translate(60.222 101.66)"/><path class="f" d="M-5.009,10.075A1.762,1.762,0,0,0-3.245,8.311,1.762,1.762,0,0,0-5.009,6.547,1.772,1.772,0,0,0-6.773,8.311,1.772,1.772,0,0,0-5.009,10.075Z" transform="translate(72.468 94.97)"/><circle class="f" cx="1.87" cy="1.87" r="1.87" transform="translate(71.212 101.411)"/><circle class="f" cx="1.979" cy="1.979" r="1.979" transform="translate(76.722 101.302)"/><circle class="f" cx="2.088" cy="2.088" r="2.088" transform="translate(82.232 101.193)"/><circle class="f" cx="2.182" cy="2.182" r="2.182" transform="translate(87.758 101.099)"/><circle class="f" cx="2.259" cy="2.259" r="2.259" transform="translate(93.299 101.021)"/><circle class="f" cx="2.337" cy="2.337" r="2.337" transform="translate(98.84 100.944)"/><path class="f" d="M-1.89,11.314a2.4,2.4,0,0,0,2.4-2.4,2.4,2.4,0,0,0-2.4-2.4,2.4,2.4,0,0,0-2.4,2.4A2.4,2.4,0,0,0-1.89,11.314Z" transform="translate(108.684 94.371)"/><circle class="f" cx="2.446" cy="2.446" r="2.446" transform="translate(109.97 100.834)"/><circle class="f" cx="2.509" cy="2.509" r="2.509" transform="translate(115.527 100.772)"/><path class="f" d="M-.664,11.616A2.561,2.561,0,0,0,1.9,9.056,2.561,2.561,0,0,0-.664,6.5a2.571,2.571,0,0,0-2.56,2.56A2.571,2.571,0,0,0-.664,11.616Z" transform="translate(124.315 94.225)"/><circle class="f" cx="2.602" cy="2.602" r="2.602" transform="translate(126.672 100.679)"/><circle class="f" cx="2.633" cy="2.633" r="2.633" transform="translate(132.26 100.647)"/><path class="f" d="M.5,11.827a2.669,2.669,0,1,0,0-5.338,2.669,2.669,0,0,0,0,5.338Z" transform="translate(140.005 94.123)"/><circle class="f" cx="0.094" cy="0.094" r="0.094" transform="translate(8.366 108.807)"/><circle class="f" cx="0.281" cy="0.281" r="0.281" transform="translate(13.799 108.619)"/><circle class="f" cx="0.436" cy="0.436" r="0.436" transform="translate(19.262 108.464)"/><circle class="f" cx="0.608" cy="0.608" r="0.608" transform="translate(24.71 108.292)"/><path class="f" d="M-8.284,8.5a.766.766,0,0,0,.765-.765.766.766,0,0,0-.765-.765.766.766,0,0,0-.765.765A.766.766,0,0,0-8.284,8.5Z" transform="translate(39.218 101.164)"/><circle class="f" cx="0.919" cy="0.919" r="0.919" transform="translate(35.637 107.981)"/><circle class="f" cx="1.075" cy="1.075" r="1.075" transform="translate(41.1 107.825)"/><path class="f" d="M-6.766,9.407A1.226,1.226,0,0,0-5.533,8.174,1.226,1.226,0,0,0-6.766,6.941,1.236,1.236,0,0,0-8,8.174,1.236,1.236,0,0,0-6.766,9.407Z" transform="translate(54.557 100.726)"/><circle class="f" cx="1.371" cy="1.371" r="1.371" transform="translate(52.043 107.529)"/><circle class="f" cx="1.511" cy="1.511" r="1.511" transform="translate(57.522 107.389)"/><circle class="f" cx="1.636" cy="1.636" r="1.636" transform="translate(63.016 107.264)"/><path class="f" d="M-4.829,10.435A1.762,1.762,0,0,0-3.065,8.671,1.762,1.762,0,0,0-4.829,6.907,1.772,1.772,0,0,0-6.593,8.671,1.772,1.772,0,0,0-4.829,10.435Z" transform="translate(75.098 100.229)"/><circle class="f" cx="1.87" cy="1.87" r="1.87" transform="translate(74.021 107.03)"/><circle class="f" cx="1.979" cy="1.979" r="1.979" transform="translate(79.531 106.921)"/><circle class="f" cx="2.072" cy="2.072" r="2.072" transform="translate(85.057 106.828)"/><circle class="f" cx="2.166" cy="2.166" r="2.166" transform="translate(90.583 106.734)"/><circle class="f" cx="2.244" cy="2.244" r="2.244" transform="translate(96.124 106.656)"/><circle class="f" cx="2.322" cy="2.322" r="2.322" transform="translate(101.665 106.578)"/><path class="f" d="M-1.739,11.613A2.372,2.372,0,0,0,.633,9.241,2.372,2.372,0,0,0-1.739,6.868,2.372,2.372,0,0,0-4.112,9.241,2.372,2.372,0,0,0-1.739,11.613Z" transform="translate(111.343 99.66)"/><circle class="f" cx="2.431" cy="2.431" r="2.431" transform="translate(112.795 106.469)"/><path class="f" d="M-.932,11.794A2.471,2.471,0,0,0,1.534,9.328,2.471,2.471,0,0,0-.932,6.862,2.471,2.471,0,0,0-3.4,9.328,2.471,2.471,0,0,0-.932,11.794Z" transform="translate(121.773 99.572)"/><circle class="f" cx="2.509" cy="2.509" r="2.509" transform="translate(123.955 106.391)"/><circle class="f" cx="2.54" cy="2.54" r="2.54" transform="translate(129.543 106.36)"/><path class="f" d="M.236,11.976a2.56,2.56,0,1,0,0-5.12,2.56,2.56,0,0,0,0,5.12Z" transform="translate(137.463 99.484)"/><path class="f" d="M.61,12.006A2.575,2.575,0,1,0-1.965,9.43,2.578,2.578,0,0,0,.61,12.006Z" transform="translate(142.708 99.47)"/><circle class="f" cx="0.016" cy="0.016" r="0.016" transform="translate(5.635 114.504)"/><circle class="f" cx="0.14" cy="0.14" r="0.14" transform="translate(11.129 114.379)"/><path class="f" d="M-9.622,7.954a.3.3,0,0,0,.3-.3.3.3,0,0,0-.3-.3.307.307,0,0,0-.3.3A.307.307,0,0,0-9.622,7.954Z" transform="translate(26.508 106.862)"/><circle class="f" cx="0.467" cy="0.467" r="0.467" transform="translate(22.041 114.052)"/><circle class="f" cx="0.623" cy="0.623" r="0.623" transform="translate(27.504 113.896)"/><path class="f" d="M-8.09,8.891a.773.773,0,0,0,.78-.78.773.773,0,0,0-.78-.78.783.783,0,0,0-.78.78A.783.783,0,0,0-8.09,8.891Z" transform="translate(41.833 106.409)"/><path class="f" d="M-7.583,9.193a.939.939,0,0,0,.937-.937.939.939,0,0,0-.937-.937.939.939,0,0,0-.937.937A.939.939,0,0,0-7.583,9.193Z" transform="translate(46.946 106.263)"/><circle class="f" cx="1.091" cy="1.091" r="1.091" transform="translate(43.894 113.429)"/><path class="f" d="M-6.586,9.767A1.226,1.226,0,0,0-5.353,8.534,1.226,1.226,0,0,0-6.586,7.3,1.236,1.236,0,0,0-7.819,8.534,1.236,1.236,0,0,0-6.586,9.767Z" transform="translate(57.187 105.985)"/><circle class="f" cx="1.371" cy="1.371" r="1.371" transform="translate(54.852 113.148)"/><circle class="f" cx="1.511" cy="1.511" r="1.511" transform="translate(60.332 113.008)"/><circle class="f" cx="1.636" cy="1.636" r="1.636" transform="translate(65.826 112.883)"/><path class="f" d="M-4.664,10.764A1.745,1.745,0,0,0-2.916,9.016,1.745,1.745,0,0,0-4.664,7.268,1.745,1.745,0,0,0-6.412,9.016,1.745,1.745,0,0,0-4.664,10.764Z" transform="translate(77.742 105.503)"/><path class="f" d="M-4.2,10.976A1.852,1.852,0,0,0-2.344,9.118,1.852,1.852,0,0,0-4.2,7.261,1.862,1.862,0,0,0-6.059,9.118,1.862,1.862,0,0,0-4.2,10.976Z" transform="translate(82.899 105.401)"/><circle class="f" cx="1.963" cy="1.963" r="1.963" transform="translate(82.357 112.556)"/><circle class="f" cx="2.057" cy="2.057" r="2.057" transform="translate(87.882 112.463)"/><circle class="f" cx="2.15" cy="2.15" r="2.15" transform="translate(93.408 112.369)"/><path class="f" d="M-2.426,11.671A2.225,2.225,0,0,0-.209,9.454,2.225,2.225,0,0,0-2.426,7.238,2.225,2.225,0,0,0-4.642,9.454,2.225,2.225,0,0,0-2.426,11.671Z" transform="translate(103.6 105.065)"/><path class="f" d="M-1.992,11.822A2.3,2.3,0,0,0,.3,9.528,2.3,2.3,0,0,0-1.992,7.233,2.3,2.3,0,0,0-4.287,9.528,2.3,2.3,0,0,0-1.992,11.822Z" transform="translate(108.786 104.992)"/><circle class="f" cx="2.337" cy="2.337" r="2.337" transform="translate(110.079 112.182)"/><path class="f" d="M-1.185,12A2.388,2.388,0,0,0,1.2,9.615,2.388,2.388,0,0,0-1.185,7.227,2.4,2.4,0,0,0-3.573,9.615,2.4,2.4,0,0,0-1.185,12Z" transform="translate(119.217 104.904)"/><circle class="f" cx="2.431" cy="2.431" r="2.431" transform="translate(121.224 112.089)"/><circle class="f" cx="2.446" cy="2.446" r="2.446" transform="translate(126.827 112.073)"/><path class="f" d="M-.017,12.185A2.478,2.478,0,0,0,2.465,9.7,2.478,2.478,0,0,0-.017,7.221,2.488,2.488,0,0,0-2.5,9.7,2.488,2.488,0,0,0-.017,12.185Z" transform="translate(134.907 104.817)"/><path class="f" d="M.343,12.185A2.482,2.482,0,1,0-2.139,9.7,2.478,2.478,0,0,0,.343,12.185Z" transform="translate(140.166 104.817)"/><circle class="f" cx="0.016" cy="0.016" r="0.016" transform="translate(8.444 120.123)"/><circle class="f" cx="0.156" cy="0.156" r="0.156" transform="translate(13.923 119.983)"/><path class="f" d="M-9.413,8.375a.32.32,0,0,0,.328-.328.32.32,0,0,0-.328-.328.33.33,0,0,0-.328.328A.33.33,0,0,0-9.413,8.375Z" transform="translate(29.109 112.092)"/><path class="f" d="M-8.907,8.677a.486.486,0,0,0,.484-.484.486.486,0,0,0-.484-.484.486.486,0,0,0-.484.484A.486.486,0,0,0-8.907,8.677Z" transform="translate(34.222 111.946)"/><circle class="f" cx="0.639" cy="0.639" r="0.639" transform="translate(30.298 119.5)"/><circle class="f" cx="0.795" cy="0.795" r="0.795" transform="translate(35.762 119.344)"/><path class="f" d="M-7.389,9.583a.946.946,0,0,0,.952-.952.946.946,0,0,0-.952-.952.956.956,0,0,0-.952.952A.956.956,0,0,0-7.389,9.583Z" transform="translate(49.561 111.507)"/><circle class="f" cx="1.091" cy="1.091" r="1.091" transform="translate(46.704 119.048)"/><path class="f" d="M-6.406,10.127A1.226,1.226,0,0,0-5.173,8.894,1.226,1.226,0,0,0-6.406,7.661,1.236,1.236,0,0,0-7.639,8.894,1.236,1.236,0,0,0-6.406,10.127Z" transform="translate(59.817 111.244)"/><circle class="f" cx="1.371" cy="1.371" r="1.371" transform="translate(57.662 118.767)"/><path class="f" d="M-5.438,10.641a1.5,1.5,0,0,0,1.5-1.5,1.5,1.5,0,0,0-1.5-1.5,1.5,1.5,0,0,0-1.5,1.5A1.5,1.5,0,0,0-5.438,10.641Z" transform="translate(70.087 110.996)"/><circle class="f" cx="1.621" cy="1.621" r="1.621" transform="translate(68.651 118.518)"/><circle class="f" cx="1.73" cy="1.73" r="1.73" transform="translate(74.161 118.409)"/><path class="f" d="M-4.036,11.306A1.845,1.845,0,0,0-2.194,9.464,1.845,1.845,0,0,0-4.036,7.622,1.845,1.845,0,0,0-5.878,9.464,1.845,1.845,0,0,0-4.036,11.306Z" transform="translate(85.543 110.675)"/><path class="f" d="M-3.588,11.487A1.935,1.935,0,0,0-1.653,9.552,1.935,1.935,0,0,0-3.588,7.616,1.945,1.945,0,0,0-5.524,9.552,1.945,1.945,0,0,0-3.588,11.487Z" transform="translate(90.715 110.587)"/><path class="f" d="M-3.141,11.668A2.025,2.025,0,0,0-1.112,9.639,2.025,2.025,0,0,0-3.141,7.61,2.035,2.035,0,0,0-5.17,9.639,2.035,2.035,0,0,0-3.141,11.668Z" transform="translate(95.886 110.499)"/><path class="f" d="M-2.708,11.819A2.108,2.108,0,0,0-.6,9.712,2.108,2.108,0,0,0-2.708,7.605,2.118,2.118,0,0,0-4.815,9.712,2.118,2.118,0,0,0-2.708,11.819Z" transform="translate(101.072 110.426)"/><circle class="f" cx="2.182" cy="2.182" r="2.182" transform="translate(101.806 117.957)"/><circle class="f" cx="2.244" cy="2.244" r="2.244" transform="translate(107.363 117.895)"/><path class="f" d="M-1.452,12.182A2.3,2.3,0,0,0,.842,9.888,2.3,2.3,0,0,0-1.452,7.593,2.3,2.3,0,0,0-3.747,9.888,2.3,2.3,0,0,0-1.452,12.182Z" transform="translate(116.675 110.251)"/><circle class="f" cx="2.337" cy="2.337" r="2.337" transform="translate(118.508 117.801)"/><path class="f" d="M-.659,12.333A2.372,2.372,0,0,0,1.713,9.961,2.372,2.372,0,0,0-.659,7.588,2.372,2.372,0,0,0-3.032,9.961,2.372,2.372,0,0,0-.659,12.333Z" transform="translate(127.12 110.178)"/><path class="f" d="M-.27,12.394a2.4,2.4,0,0,0,2.4-2.4,2.4,2.4,0,0,0-2.4-2.4,2.4,2.4,0,0,0-2.4,2.4A2.4,2.4,0,0,0-.27,12.394Z" transform="translate(132.35 110.149)"/><circle class="f" cx="2.415" cy="2.415" r="2.415" transform="translate(135.287 117.723)"/><circle class="f" cx="2.415" cy="2.415" r="2.415" transform="translate(140.907 117.723)"/><circle class="f" cx="0.031" cy="0.031" r="0.031" transform="translate(11.238 125.727)"/><circle class="f" cx="0.171" cy="0.171" r="0.171" transform="translate(16.718 125.586)"/><path class="f" d="M-9.233,8.735a.32.32,0,0,0,.328-.328.32.32,0,0,0-.328-.328.33.33,0,0,0-.328.328A.33.33,0,0,0-9.233,8.735Z" transform="translate(31.738 117.351)"/><path class="f" d="M-8.727,9.037a.486.486,0,0,0,.484-.484.486.486,0,0,0-.484-.484.486.486,0,0,0-.484.484A.486.486,0,0,0-8.727,9.037Z" transform="translate(36.851 117.205)"/><circle class="f" cx="0.639" cy="0.639" r="0.639" transform="translate(33.108 125.119)"/><circle class="f" cx="0.795" cy="0.795" r="0.795" transform="translate(38.571 124.963)"/><path class="f" d="M-7.209,9.943a.946.946,0,0,0,.952-.952.946.946,0,0,0-.952-.952.956.956,0,0,0-.952.952A.956.956,0,0,0-7.209,9.943Z" transform="translate(52.191 116.767)"/><circle class="f" cx="1.091" cy="1.091" r="1.091" transform="translate(49.514 124.667)"/><path class="f" d="M-6.24,10.457A1.219,1.219,0,0,0-5.023,9.24,1.219,1.219,0,0,0-6.24,8.022,1.219,1.219,0,0,0-7.458,9.24,1.219,1.219,0,0,0-6.24,10.457Z" transform="translate(62.461 116.518)"/><circle class="f" cx="1.356" cy="1.356" r="1.356" transform="translate(60.487 124.402)"/><path class="f" d="M-5.272,10.971A1.482,1.482,0,0,0-3.789,9.488,1.482,1.482,0,0,0-5.272,8.005,1.492,1.492,0,0,0-6.755,9.488,1.492,1.492,0,0,0-5.272,10.971Z" transform="translate(72.731 116.27)"/><path class="f" d="M-4.81,11.182A1.6,1.6,0,0,0-3.218,9.59,1.6,1.6,0,0,0-4.81,8,1.6,1.6,0,0,0-6.4,9.59,1.6,1.6,0,0,0-4.81,11.182Z" transform="translate(77.888 116.168)"/><circle class="f" cx="1.698" cy="1.698" r="1.698" transform="translate(77.002 124.059)"/><circle class="f" cx="1.808" cy="1.808" r="1.808" transform="translate(82.512 123.95)"/><circle class="f" cx="1.901" cy="1.901" r="1.901" transform="translate(88.038 123.857)"/><circle class="f" cx="1.979" cy="1.979" r="1.979" transform="translate(93.579 123.779)"/><circle class="f" cx="2.057" cy="2.057" r="2.057" transform="translate(99.121 123.701)"/><path class="f" d="M-2.153,12.21A2.125,2.125,0,0,0-.03,10.087,2.125,2.125,0,0,0-2.153,7.964a2.125,2.125,0,0,0-2.123,2.123A2.125,2.125,0,0,0-2.153,12.21Z" transform="translate(108.947 115.671)"/><circle class="f" cx="2.182" cy="2.182" r="2.182" transform="translate(110.234 123.576)"/><circle class="f" cx="2.228" cy="2.228" r="2.228" transform="translate(115.807 123.53)"/><path class="f" d="M-.927,12.512a2.282,2.282,0,0,0,2.279-2.279A2.282,2.282,0,0,0-.927,7.954a2.292,2.292,0,0,0-2.279,2.279A2.292,2.292,0,0,0-.927,12.512Z" transform="translate(124.578 115.525)"/><path class="f" d="M-.538,12.572a2.3,2.3,0,0,0,2.31-2.31,2.3,2.3,0,0,0-2.31-2.31,2.315,2.315,0,0,0-2.31,2.31A2.315,2.315,0,0,0-.538,12.572Z" transform="translate(129.808 115.496)"/><circle class="f" cx="2.322" cy="2.322" r="2.322" transform="translate(132.571 123.436)"/><circle class="f" cx="2.337" cy="2.337" r="2.337" transform="translate(138.175 123.421)"/><circle class="f" cx="0.031" cy="0.031" r="0.031" transform="translate(14.048 131.346)"/><circle class="f" cx="0.187" cy="0.187" r="0.187" transform="translate(19.512 131.19)"/><circle class="f" cx="0.343" cy="0.343" r="0.343" transform="translate(24.975 131.034)"/><path class="f" d="M-8.533,9.427a.493.493,0,0,0,.5-.5.493.493,0,0,0-.5-.5.5.5,0,0,0-.5.5A.5.5,0,0,0-8.533,9.427Z" transform="translate(39.466 122.45)"/><circle class="f" cx="0.639" cy="0.639" r="0.639" transform="translate(35.917 130.738)"/><circle class="f" cx="0.795" cy="0.795" r="0.795" transform="translate(41.381 130.582)"/><path class="f" d="M-7.043,10.273a.939.939,0,0,0,.937-.937A.939.939,0,0,0-7.043,8.4a.939.939,0,0,0-.937.937A.939.939,0,0,0-7.043,10.273Z" transform="translate(54.835 122.04)"/><circle class="f" cx="1.075" cy="1.075" r="1.075" transform="translate(52.339 130.302)"/><path class="f" d="M-6.075,10.787a1.2,1.2,0,0,0,1.2-1.2,1.2,1.2,0,0,0-1.2-1.2,1.213,1.213,0,0,0-1.2,1.2A1.213,1.213,0,0,0-6.075,10.787Z" transform="translate(65.105 121.792)"/><path class="f" d="M-5.6,11.029A1.326,1.326,0,0,0-4.271,9.7,1.326,1.326,0,0,0-5.6,8.375,1.326,1.326,0,0,0-6.925,9.7,1.326,1.326,0,0,0-5.6,11.029Z" transform="translate(70.247 121.675)"/><circle class="f" cx="1.449" cy="1.449" r="1.449" transform="translate(68.823 129.928)"/><path class="f" d="M-4.659,11.482A1.565,1.565,0,0,0-3.1,9.921,1.565,1.565,0,0,0-4.659,8.36,1.565,1.565,0,0,0-6.22,9.921,1.565,1.565,0,0,0-4.659,11.482Z" transform="translate(80.547 121.456)"/><path class="f" d="M-4.2,11.693a1.672,1.672,0,0,0,1.67-1.67A1.672,1.672,0,0,0-4.2,8.353a1.672,1.672,0,0,0-1.67,1.67A1.672,1.672,0,0,0-4.2,11.693Z" transform="translate(85.704 121.354)"/><path class="f" d="M-3.749,11.875a1.762,1.762,0,0,0,1.764-1.764A1.762,1.762,0,0,0-3.749,8.347a1.772,1.772,0,0,0-1.764,1.764A1.772,1.772,0,0,0-3.749,11.875Z" transform="translate(90.875 121.266)"/><path class="f" d="M-3.3,12.056A1.852,1.852,0,0,0-1.444,10.2,1.852,1.852,0,0,0-3.3,8.341,1.862,1.862,0,0,0-5.159,10.2,1.862,1.862,0,0,0-3.3,12.056Z" transform="translate(96.047 121.179)"/><path class="f" d="M-2.868,12.207A1.935,1.935,0,0,0-.933,10.272,1.935,1.935,0,0,0-2.868,8.336,1.945,1.945,0,0,0-4.8,10.272,1.945,1.945,0,0,0-2.868,12.207Z" transform="translate(101.233 121.106)"/><circle class="f" cx="1.995" cy="1.995" r="1.995" transform="translate(101.993 129.382)"/><circle class="f" cx="2.057" cy="2.057" r="2.057" transform="translate(107.55 129.32)"/><path class="f" d="M-1.613,12.57A2.125,2.125,0,0,0,.51,10.447,2.125,2.125,0,0,0-1.613,8.324a2.125,2.125,0,0,0-2.123,2.123A2.125,2.125,0,0,0-1.613,12.57Z" transform="translate(116.836 120.93)"/><circle class="f" cx="2.166" cy="2.166" r="2.166" transform="translate(118.679 129.211)"/><path class="f" d="M-.82,12.721a2.2,2.2,0,0,0,2.2-2.2,2.2,2.2,0,0,0-2.2-2.2,2.2,2.2,0,0,0-2.2,2.2A2.2,2.2,0,0,0-.82,12.721Z" transform="translate(127.281 120.857)"/><circle class="f" cx="2.228" cy="2.228" r="2.228" transform="translate(129.855 129.149)"/><circle class="f" cx="2.244" cy="2.244" r="2.244" transform="translate(135.459 129.133)"/><circle class="f" cx="2.244" cy="2.244" r="2.244" transform="translate(141.078 129.133)"/><path class="f" d="M-9.871,8.88l.031-.031-.031-.031-.031.031Z" transform="translate(26.76 128.147)"/><circle class="f" cx="0.187" cy="0.187" r="0.187" transform="translate(22.321 136.809)"/><path class="f" d="M-8.873,9.455a.32.32,0,0,0,.328-.328A.32.32,0,0,0-8.873,8.8a.33.33,0,0,0-.328.328A.33.33,0,0,0-8.873,9.455Z" transform="translate(36.997 127.869)"/><path class="f" d="M-8.367,9.757a.486.486,0,0,0,.484-.484.486.486,0,0,0-.484-.484.486.486,0,0,0-.484.484A.486.486,0,0,0-8.367,9.757Z" transform="translate(42.111 127.723)"/><circle class="f" cx="0.623" cy="0.623" r="0.623" transform="translate(38.743 136.373)"/><path class="f" d="M-7.37,10.331a.773.773,0,0,0,.78-.78.773.773,0,0,0-.78-.78.783.783,0,0,0-.78.78A.783.783,0,0,0-7.37,10.331Z" transform="translate(52.352 127.446)"/><circle class="f" cx="0.904" cy="0.904" r="0.904" transform="translate(49.701 136.092)"/><path class="f" d="M-6.4,10.845A1.046,1.046,0,0,0-5.355,9.8,1.046,1.046,0,0,0-6.4,8.753,1.046,1.046,0,0,0-7.447,9.8,1.046,1.046,0,0,0-6.4,10.845Z" transform="translate(62.622 127.197)"/><circle class="f" cx="1.169" cy="1.169" r="1.169" transform="translate(60.674 135.828)"/><path class="f" d="M-5.447,11.328a1.292,1.292,0,0,0,1.3-1.3,1.292,1.292,0,0,0-1.3-1.3,1.292,1.292,0,0,0-1.3,1.3A1.292,1.292,0,0,0-5.447,11.328Z" transform="translate(72.906 126.964)"/><path class="f" d="M-4.985,11.54a1.4,1.4,0,0,0,1.4-1.4,1.4,1.4,0,0,0-1.4-1.4,1.409,1.409,0,0,0-1.4,1.4A1.409,1.409,0,0,0-4.985,11.54Z" transform="translate(78.063 126.861)"/><circle class="f" cx="1.511" cy="1.511" r="1.511" transform="translate(77.189 135.485)"/><circle class="f" cx="1.621" cy="1.621" r="1.621" transform="translate(82.699 135.376)"/><circle class="f" cx="1.698" cy="1.698" r="1.698" transform="translate(88.241 135.298)"/><circle class="f" cx="1.792" cy="1.792" r="1.792" transform="translate(93.766 135.204)"/><circle class="f" cx="1.87" cy="1.87" r="1.87" transform="translate(99.308 135.126)"/><path class="f" d="M-2.328,12.567A1.935,1.935,0,0,0-.393,10.632,1.935,1.935,0,0,0-2.328,8.7a1.945,1.945,0,0,0-1.936,1.936A1.945,1.945,0,0,0-2.328,12.567Z" transform="translate(109.122 126.365)"/><circle class="f" cx="1.995" cy="1.995" r="1.995" transform="translate(110.421 135.002)"/><path class="f" d="M-1.506,12.779A2.052,2.052,0,0,0,.539,10.734,2.052,2.052,0,0,0-1.506,8.689a2.052,2.052,0,0,0-2.045,2.045A2.052,2.052,0,0,0-1.506,12.779Z" transform="translate(119.538 126.262)"/><circle class="f" cx="2.072" cy="2.072" r="2.072" transform="translate(121.582 134.924)"/><path class="f" d="M-.728,12.9a2.108,2.108,0,0,0,2.107-2.107A2.108,2.108,0,0,0-.728,8.685a2.118,2.118,0,0,0-2.107,2.107A2.118,2.118,0,0,0-.728,12.9Z" transform="translate(129.998 126.204)"/><circle class="f" cx="2.135" cy="2.135" r="2.135" transform="translate(132.758 134.862)"/><circle class="f" cx="2.15" cy="2.15" r="2.15" transform="translate(138.362 134.846)"/></g></g></g></g></svg>