<svg xmlns="http://www.w3.org/2000/svg" xmlns:xlink="http://www.w3.org/1999/xlink" width="51" height="51" viewBox="0 0 51 51"><defs><style>.a{fill:#fff;}.b{fill:#202020;font-size:14px;font-family:Roboto-Regular, Roboto;}.c{fill:#ffc03f;}.d{fill:#c3d3dd;}.e{filter:url(#a);}</style><filter id="a" x="0" y="0" width="51" height="51" filterUnits="userSpaceOnUse"><feOffset dy="1" input="SourceAlpha"/><feGaussianBlur stdDeviation="1.5" result="b"/><feFlood flood-opacity="0.161"/><feComposite operator="in" in2="b"/><feComposite in="SourceGraphic"/></filter></defs><g transform="translate(-16.5 -220.5)"><g class="e" transform="matrix(1, 0, 0, 1, 16.5, 220.5)"><rect class="a" width="42" height="42" rx="3" transform="translate(4.5 3.5)"/></g><g transform="translate(1 1)"><g transform="translate(3 161)"><g transform="translate(-159 -28)"><text class="b" transform="translate(181 117)"><tspan x="0" y="0">1</tspan></text></g></g><g transform="translate(35.695 215)"><g transform="translate(0.403 24.27)"><path class="c" d="M27.873,140.41H11.932A1.932,1.932,0,0,1,10,138.478V128.015a1.932,1.932,0,0,1,1.932-1.932H27.873a1.932,1.932,0,0,1,1.932,1.932v10.463A1.932,1.932,0,0,1,27.873,140.41Z" transform="translate(-10 -126.083)"/></g><g transform="translate(8.781 31.338)"><path class="d" d="M221.186,301.667v.979a1.53,1.53,0,0,1-3.059,0v-.979Z" transform="translate(-218.127 -301.667)"/></g><g transform="translate(0.408 24.27)"><path class="a" d="M13.994,133.151H26.086a3.851,3.851,0,0,0,3.851-3.851v-1.495a1.932,1.932,0,0,0-1.921-1.723H12.075a1.932,1.932,0,0,0-1.932,1.932V129.3A3.851,3.851,0,0,0,13.994,133.151Z" transform="translate(-10.143 -126.083)"/></g><g transform="translate(5.314 20.403)"><path class="c" d="M140.051,30h-6.119A1.932,1.932,0,0,0,132,31.932h9.983A1.932,1.932,0,0,0,140.051,30Z" transform="translate(-132 -30)"/></g><g transform="translate(8.781 29.567)"><path class="a" d="M219.657,261.946a1.53,1.53,0,0,1-1.53-1.53V258.18a.514.514,0,0,1,.514-.514h2.031a.514.514,0,0,1,.514.514v2.237A1.53,1.53,0,0,1,219.657,261.946Z" transform="translate(-218.127 -257.666)"/></g><g transform="translate(8.781 29.567)"><path class="c" d="M218.127,259.438v-1.257a.514.514,0,0,1,.514-.514h2.031a.514.514,0,0,1,.514.514v1.257Z" transform="translate(-218.127 -257.667)"/></g><g transform="translate(0 20)"><path d="M18.276,23.868H15.7V22.335A2.337,2.337,0,0,0,13.364,20H7.246a2.337,2.337,0,0,0-2.335,2.335v1.533H2.335A2.337,2.337,0,0,0,0,26.2V36.665A2.337,2.337,0,0,0,2.335,39H18.276a2.337,2.337,0,0,0,2.335-2.335V26.2A2.337,2.337,0,0,0,18.276,23.868ZM7.246,20.805h6.119a1.532,1.532,0,0,1,1.476,1.127H5.77A1.532,1.532,0,0,1,7.246,20.805ZM.805,26.2a1.531,1.531,0,0,1,1.53-1.53H8.5a.4.4,0,0,0,0-.805H5.716v-1.13h9.178v1.13H12.122a.4.4,0,0,0,0,.805h6.154a1.531,1.531,0,0,1,1.53,1.53v1.284a3.455,3.455,0,0,1-3.451,3.451H12.242v-.856a.918.918,0,0,0-.917-.917H9.295a.918.918,0,0,0-.917.917v.856H4.256A3.455,3.455,0,0,1,.805,27.486Zm8.378,5.539h2.254v.576a1.127,1.127,0,0,1-2.254,0Zm0-.805v-.856a.112.112,0,0,1,.112-.112h2.031a.112.112,0,0,1,.112.112v.856Zm10.622,5.728a1.531,1.531,0,0,1-1.53,1.53H2.335a1.531,1.531,0,0,1-1.53-1.53V29.974a4.253,4.253,0,0,0,3.451,1.768H8.378v.576a1.932,1.932,0,0,0,3.864,0v-.576h4.112a4.253,4.253,0,0,0,3.451-1.768Z" transform="translate(0 -20)"/><path d="M246.533,116.885a.4.4,0,1,0-.285-.118A.4.4,0,0,0,246.533,116.885Z" transform="translate(-236.222 -112.212)"/></g></g></g></g></svg>