<svg xmlns="http://www.w3.org/2000/svg" xmlns:xlink="http://www.w3.org/1999/xlink" width="42.667" height="42.667" viewBox="0 0 42.667 42.667"><defs><style>.a{fill:#fff;}.b{fill:#213643;}.c{fill:#ffc03f;}.d{filter:url(#a);}</style><filter id="a" x="0" y="0" width="42.667" height="42.667" filterUnits="userSpaceOnUse"><feOffset dy="3" input="SourceAlpha"/><feGaussianBlur stdDeviation="3" result="b"/><feFlood flood-opacity="0.102"/><feComposite operator="in" in2="b"/><feComposite in="SourceGraphic"/></filter></defs><g transform="translate(9 6)"><g class="d" transform="matrix(1, 0, 0, 1, -9, -6)"><path class="a" d="M20.042,24.667H4.625A4.625,4.625,0,0,1,0,20.042V4.625A4.625,4.625,0,0,1,4.625,0H20.042a4.625,4.625,0,0,1,4.625,4.625V20.042A4.625,4.625,0,0,1,20.042,24.667Z" transform="translate(9 6)"/></g><g transform="translate(-223.503 -213.025)"><path class="b" d="M239.656,220.623a.575.575,0,0,0-.627-.233.528.528,0,0,0-.408.5,1.238,1.238,0,0,1-2.47,0v-4.371a.523.523,0,0,0-.344-.482.587.587,0,0,0-.608.113,25.953,25.953,0,0,0-3.057,3.571,19.858,19.858,0,0,0-2.108,3.674,10.994,10.994,0,0,0-.974,4.3,6.548,6.548,0,0,0,13.067,0A13.316,13.316,0,0,0,239.656,220.623Zm-4.063,12.136a5.256,5.256,0,0,1-5.417-5.065c0-2.749,1.567-5.528,2.882-7.375a26.447,26.447,0,0,1,1.978-2.445v3.018a2.281,2.281,0,0,0,2.35,2.2,2.4,2.4,0,0,0,1.921-.932,11.4,11.4,0,0,1,1.7,5.536A5.256,5.256,0,0,1,235.593,232.759Z" transform="translate(0 0)"/><path class="a" d="M239.106,239.2a5.256,5.256,0,0,1-5.417-5.065c0-2.749,1.567-5.528,2.882-7.375a26.445,26.445,0,0,1,1.978-2.445v3.018a2.281,2.281,0,0,0,2.35,2.2,2.4,2.4,0,0,0,1.921-.932,11.4,11.4,0,0,1,1.7,5.536A5.256,5.256,0,0,1,239.106,239.2Z" transform="translate(-3.513 -6.444)"/><path class="c" d="M246.479,255.063h-2.39a.523.523,0,1,0,0,1.043h1.043l-2.383,2.228-1.3-1.211a.585.585,0,0,0-.789,0l-1.268,1.185a.5.5,0,0,0,0,.738.586.586,0,0,0,.789,0l.873-.816,1.3,1.211a.586.586,0,0,0,.789,0l2.778-2.6v.975a.559.559,0,0,0,1.116,0v-2.235A.541.541,0,0,0,246.479,255.063Z" transform="translate(-7.721 -30.261)"/></g></g></svg>