<svg xmlns="http://www.w3.org/2000/svg" width="64" height="64" viewBox="0 0 64 64"><defs><style>.a,.b{fill:#621384;}.a{opacity:0.07;}.b{opacity:0.14;}.c{fill:#fff;}.d{fill:#ffc03f;}.e{fill:#2d2d2d;}.f{fill:#edc4a2;}</style></defs><g transform="translate(-18.332 -163.332)"><circle class="a" cx="32" cy="32" r="32" transform="translate(18.332 163.332)"/><circle class="b" cx="26" cy="26" r="26" transform="translate(24.332 169.332)"/><circle class="c" cx="21" cy="21" r="21" transform="translate(29.332 174.332)"/><g transform="translate(36.581 179.582)"><path class="d" d="M187.733,124.05V121.3a1.833,1.833,0,0,1,1.833-1.833h0a4.1,4.1,0,0,0,3.667,0h0a1.833,1.833,0,0,1,1.833,1.833v2.75a.916.916,0,0,1-.917.917h-5.5A.916.916,0,0,1,187.733,124.05Z" transform="translate(-177.65 -113.05)"/><circle class="c" cx="2.292" cy="2.292" r="2.292" transform="translate(11.458 0.458)"/><g transform="translate(2.75 2.759)"><path class="e" d="M51.658,77.411a.458.458,0,0,1-.458-.458,10.989,10.989,0,0,1,6.7-10.126.458.458,0,1,1,.359.843h0a10.074,10.074,0,0,0-6.138,9.283A.459.459,0,0,1,51.658,77.411Z" transform="translate(-51.2 -65.961)"/><path class="e" d="M331.142,77.41a.459.459,0,0,1-.458-.458,10.074,10.074,0,0,0-6.138-9.283.458.458,0,1,1,.359-.843,10.989,10.989,0,0,1,6.7,10.126A.458.458,0,0,1,331.142,77.41Z" transform="translate(-309.6 -65.96)"/><path class="e" d="M175.249,429.9a10.94,10.94,0,0,1-4.3-.874.458.458,0,1,1,.359-.843,10.166,10.166,0,0,0,7.891,0,.458.458,0,1,1,.359.843A10.94,10.94,0,0,1,175.249,429.9Z" transform="translate(-164.249 -407.905)"/><path class="e" d="M172.025,421.339a.458.458,0,0,1-.407-.246l-.917-1.754a.458.458,0,0,1,.194-.618.493.493,0,0,1,.084-.034l1.833-.538a.458.458,0,0,1,.258.88l-1.3.38.659,1.259a.458.458,0,0,1-.406.671Z" transform="translate(-164.234 -398.431)"/><path class="e" d="M420.065,224.256a.457.457,0,0,1-.324-.134l-1.375-1.375a.458.458,0,0,1,.648-.648l1.051,1.051,1.051-1.051a.458.458,0,0,1,.648.648l-1.375,1.375A.457.457,0,0,1,420.065,224.256Z" transform="translate(-398.523 -212.807)"/><path class="e" d="M138.2,55.022a.45.45,0,0,1-.2-.046.458.458,0,0,1-.215-.611l.715-1.491-1.408-.642a.458.458,0,0,1,.38-.833l1.833.837a.458.458,0,0,1,.225.608l0,.005-.917,1.913A.459.459,0,0,1,138.2,55.022Z" transform="translate(-132.24 -51.365)"/></g><path class="f" d="M225.167,17.169a2.282,2.282,0,0,1-3.2,3.2,2.285,2.285,0,1,0,3.2-3.2Z" transform="translate(-210.048 -16.247)"/><circle class="c" cx="2.292" cy="2.292" r="2.292" transform="translate(21.083 15.583)"/><path class="f" d="M404.367,298.769a2.282,2.282,0,0,1-3.2,3.2,2.285,2.285,0,1,0,3.2-3.2Z" transform="translate(-379.623 -282.722)"/><circle class="c" cx="2.292" cy="2.292" r="2.292" transform="translate(1.833 15.583)"/><path class="f" d="M45.967,298.769a2.282,2.282,0,0,1-3.2,3.2,2.285,2.285,0,1,0,3.2-3.2Z" transform="translate(-40.473 -282.722)"/><path class="d" d="M8.533,405.65V402.9a1.833,1.833,0,0,1,1.833-1.833h0a4.1,4.1,0,0,0,3.667,0h0a1.833,1.833,0,0,1,1.833,1.833v2.75a.916.916,0,0,1-.917.917H9.45A.916.916,0,0,1,8.533,405.65Z" transform="translate(-8.075 -379.525)"/><path class="d" d="M366.933,405.65V402.9a1.833,1.833,0,0,1,1.833-1.833h0a4.1,4.1,0,0,0,3.667,0h0a1.833,1.833,0,0,1,1.833,1.833v2.75a.916.916,0,0,1-.917.917h-5.5A.916.916,0,0,1,366.933,405.65Z" transform="translate(-347.225 -379.525)"/><path class="e" d="M210.3,2.75a2.75,2.75,0,1,0-2.75,2.75A2.75,2.75,0,0,0,210.3,2.75Zm-4.583,0a1.833,1.833,0,1,1,1.833,1.833A1.833,1.833,0,0,1,205.717,2.75Z" transform="translate(-193.8 0)"/><path class="e" d="M179.2,113.225v2.75a1.375,1.375,0,0,0,1.375,1.375h5.5a1.375,1.375,0,0,0,1.375-1.375v-2.75a2.294,2.294,0,0,0-2.292-2.292h-.108l-.1.048a3.654,3.654,0,0,1-3.257,0l-.1-.048h-.108A2.294,2.294,0,0,0,179.2,113.225Zm.917,0a1.375,1.375,0,0,1,1.277-1.371,4.587,4.587,0,0,0,3.862,0,1.375,1.375,0,0,1,1.277,1.371v2.75a.459.459,0,0,1-.458.458h-5.5a.458.458,0,0,1-.458-.458Z" transform="translate(-169.575 -104.975)"/><path class="e" d="M386.75,281.6a2.75,2.75,0,1,0,2.75,2.75A2.75,2.75,0,0,0,386.75,281.6Zm0,4.583a1.833,1.833,0,1,1,1.833-1.833A1.833,1.833,0,0,1,386.75,286.183Z" transform="translate(-363.375 -266.475)"/><path class="e" d="M364.356,392.533h-.108l-.1.046a3.654,3.654,0,0,1-3.257,0l-.1-.046h-.108a2.294,2.294,0,0,0-2.292,2.292v2.75a1.375,1.375,0,0,0,1.375,1.375h5.5a1.375,1.375,0,0,0,1.375-1.375v-2.75A2.294,2.294,0,0,0,364.356,392.533Zm1.375,5.042a.458.458,0,0,1-.458.458h-5.5a.459.459,0,0,1-.458-.458v-2.75a1.375,1.375,0,0,1,1.277-1.371,4.586,4.586,0,0,0,3.862,0,1.375,1.375,0,0,1,1.277,1.371Z" transform="translate(-339.148 -371.45)"/><path class="e" d="M28.35,281.6a2.75,2.75,0,1,0,2.75,2.75A2.75,2.75,0,0,0,28.35,281.6Zm0,4.583a1.833,1.833,0,1,1,1.833-1.833A1.833,1.833,0,0,1,28.35,286.183Z" transform="translate(-24.225 -266.475)"/><path class="e" d="M1.375,398.95h5.5a1.375,1.375,0,0,0,1.375-1.375v-2.75a2.294,2.294,0,0,0-2.292-2.292H5.85l-.1.046a3.654,3.654,0,0,1-3.257,0l-.1-.046H2.292A2.294,2.294,0,0,0,0,394.825v2.75A1.375,1.375,0,0,0,1.375,398.95Zm-.458-4.125a1.375,1.375,0,0,1,1.277-1.371,4.586,4.586,0,0,0,3.862,0,1.375,1.375,0,0,1,1.277,1.371v2.75a.459.459,0,0,1-.458.458h-5.5a.459.459,0,0,1-.458-.458v-2.75Z" transform="translate(0 -371.45)"/></g></g></svg>