<svg xmlns="http://www.w3.org/2000/svg" xmlns:xlink="http://www.w3.org/1999/xlink" width="42.667" height="42.667" viewBox="0 0 42.667 42.667"><defs><style>.a{fill:#fff;}.b{fill:#ffc03f;}.c{fill:#f5f4f9;}.d,.e{fill:#2c2f33;}.e{stroke:#2c2f33;stroke-width:0.4px;}.f{filter:url(#a);}</style><filter id="a" x="0" y="0" width="42.667" height="42.667" filterUnits="userSpaceOnUse"><feOffset dy="3" input="SourceAlpha"/><feGaussianBlur stdDeviation="3" result="b"/><feFlood flood-opacity="0.102"/><feComposite operator="in" in2="b"/><feComposite in="SourceGraphic"/></filter></defs><g transform="translate(9 6)"><g class="f" transform="matrix(1, 0, 0, 1, -9, -6)"><path class="a" d="M20.042,24.667H4.625A4.625,4.625,0,0,1,0,20.042V4.625A4.625,4.625,0,0,1,4.625,0H20.042a4.625,4.625,0,0,1,4.625,4.625V20.042A4.625,4.625,0,0,1,20.042,24.667Z" transform="translate(9 6)"/></g><g transform="translate(3 4)"><path class="b" d="M73.085,80.157V78.642a.311.311,0,0,0-.225-.3L71.291,77.9a6.25,6.25,0,0,0-.726-1.752l.793-1.425a.31.31,0,0,0-.052-.371l-1.071-1.071a.31.31,0,0,0-.371-.052l-1.425.793a6.249,6.249,0,0,0-1.752-.726l-.447-1.568a.31.31,0,0,0-.3-.225H64.428a.31.31,0,0,0-.3.225l-.447,1.568a6.249,6.249,0,0,0-1.752.726l-1.425-.793a.31.31,0,0,0-.371.052L59.065,74.35a.31.31,0,0,0-.052.371l.793,1.425A6.249,6.249,0,0,0,59.08,77.9l-1.568.447a.31.31,0,0,0-.225.3v1.515a.31.31,0,0,0,.225.3l1.568.447a6.249,6.249,0,0,0,.726,1.752l-.793,1.425a.31.31,0,0,0,.052.371l1.071,1.071a.31.31,0,0,0,.371.052l1.425-.793a6.25,6.25,0,0,0,1.752.726l.447,1.568a.31.31,0,0,0,.3.225h1.515a.31.31,0,0,0,.3-.225l.447-1.568a6.25,6.25,0,0,0,1.752-.726l1.425.793a.311.311,0,0,0,.371-.052l1.071-1.071a.31.31,0,0,0,.052-.371l-.793-1.425a6.25,6.25,0,0,0,.726-1.752l1.568-.447a.31.31,0,0,0,.225-.3Z" transform="translate(-56.082 -71.298)"/><circle class="b" cx="3.808" cy="3.808" r="3.808" transform="translate(5.297 4.294)"/><circle class="c" cx="3.135" cy="3.135" r="3.135" transform="translate(5.969 4.967)"/><path class="d" d="M135.229,266.644a4.947,4.947,0,0,1-4.942-4.942.2.2,0,1,1,.405,0,4.542,4.542,0,0,0,4.537,4.537.2.2,0,0,1,0,.405Z" transform="translate(-126.125 -253.601)"/><path class="d" d="M252.229,149.644a.2.2,0,0,1-.2-.2,4.542,4.542,0,0,0-4.537-4.537.2.2,0,0,1,0-.405,4.947,4.947,0,0,1,4.942,4.942A.2.2,0,0,1,252.229,149.644Z" transform="translate(-238.385 -141.341)"/><g transform="translate(0.203 0.23)"><path class="d" d="M212.839,251.4a.283.283,0,0,1-.2-.083l-.684-.684a.284.284,0,0,1,0-.4l.684-.684a.284.284,0,0,1,.4.4l-.483.483.483.483a.284.284,0,0,1-.2.485Z" transform="translate(-205.266 -242.562)"/><path class="d" d="M270.951,251.4a.284.284,0,0,1-.2-.485l.483-.483-.483-.483a.284.284,0,1,1,.4-.4l.684.684a.284.284,0,0,1,0,.4l-.684.684A.283.283,0,0,1,270.951,251.4Z" transform="translate(-260.721 -242.561)"/><path class="d" d="M240.774,251.4a.284.284,0,0,1-.247-.424l.772-1.368a.284.284,0,0,1,.495.279l-.772,1.368A.284.284,0,0,1,240.774,251.4Z" transform="translate(-232.258 -242.56)"/><path class="c" d="M37.889,76.92H32.934a.406.406,0,0,1-.406-.406v-3.94a.406.406,0,0,1,.406-.406h4.955a.406.406,0,0,1,.406.406v3.94A.406.406,0,0,1,37.889,76.92Z" transform="translate(-32.528 -72.168)"/></g><path class="c" d="M132.1,72.168h-1.384V76.92H132.1a.406.406,0,0,0,.406-.406v-3.94A.406.406,0,0,0,132.1,72.168Z" transform="translate(-126.533 -71.938)"/><path class="c" d="M38.295,73.494v-.92a.406.406,0,0,0-.406-.406H32.934a.406.406,0,0,0-.406.406v.92Z" transform="translate(-32.325 -71.938)"/><path class="d" d="M58.062,156.473H56.048a.2.2,0,1,1,0-.406h2.014a.2.2,0,1,1,0,.406Z" transform="translate(-54.698 -152.439)"/><path class="d" d="M56.965,135.669h-.918a.2.2,0,1,1,0-.406h.918a.2.2,0,0,1,0,.406Z" transform="translate(-54.698 -132.478)"/><path class="c" d="M313.678,325.7h-6.17a.406.406,0,0,1-.406-.406v-3.94a.406.406,0,0,1,.406-.406h6.17a.406.406,0,0,1,.406.406v3.94A.406.406,0,0,1,313.678,325.7Z" transform="translate(-295.777 -310.638)"/><path class="c" d="M314.084,322.271v-.92a.406.406,0,0,0-.406-.406h-6.17a.406.406,0,0,0-.406.406v.92Z" transform="translate(-295.777 -310.638)"/><path class="e" d="M45.429,76.605H42.805c.036-.112.07-.224.1-.337l1.456-.415a.515.515,0,0,0,.372-.493V73.845a.515.515,0,0,0-.372-.493l-1.456-.415a6.445,6.445,0,0,0-.66-1.592l.736-1.323a.515.515,0,0,0-.085-.612l-1.071-1.071a.515.515,0,0,0-.612-.086l-1.323.736a6.445,6.445,0,0,0-1.592-.66l-.415-1.456a.515.515,0,0,0-.493-.372H35.875a.515.515,0,0,0-.493.372l-.415,1.456a6.455,6.455,0,0,0-1.267.483V67.137a.609.609,0,0,0-.609-.609H28.137a.609.609,0,0,0-.609.609v.92a.2.2,0,0,0,.2.2h5.564v2.817a.2.2,0,0,1-.2.2H28.137a.2.2,0,0,1-.2-.2v-1.9a.2.2,0,1,0-.405,0v1.9a.609.609,0,0,0,.609.609h2.7a6.456,6.456,0,0,0-.476,1.251l-1.456.415a.515.515,0,0,0-.372.493V75.36a.515.515,0,0,0,.372.493l1.456.415a6.446,6.446,0,0,0,.66,1.592l-.736,1.323a.515.515,0,0,0,.085.612l1.071,1.071a.515.515,0,0,0,.612.085l1.323-.736a6.446,6.446,0,0,0,1.592.66l.415,1.456a.515.515,0,0,0,.493.373H37.39a.515.515,0,0,0,.493-.373l.415-1.456c.118-.031.236-.067.352-.1v.383a.609.609,0,0,0,.609.609h6.17a.609.609,0,0,0,.609-.609v-3.94a.609.609,0,0,0-.609-.608Zm-17.5-8.751v-.718a.2.2,0,0,1,.2-.2h4.955a.2.2,0,0,1,.2.2v.718ZM38.087,80.511a.2.2,0,0,0-.147.141l-.447,1.568a.108.108,0,0,1-.1.078H35.875a.108.108,0,0,1-.1-.078l-.447-1.568a.2.2,0,0,0-.147-.141,6.043,6.043,0,0,1-1.695-.7.2.2,0,0,0-.2,0l-1.425.793a.108.108,0,0,1-.129-.018l-1.071-1.071a.108.108,0,0,1-.018-.129l.793-1.425a.2.2,0,0,0,0-.2,6.043,6.043,0,0,1-.7-1.695.2.2,0,0,0-.141-.147l-1.568-.447a.108.108,0,0,1-.078-.1V73.845a.108.108,0,0,1,.078-.1l1.568-.447a.2.2,0,0,0,.141-.147,6.052,6.052,0,0,1,.569-1.462h1.8a.609.609,0,0,0,.609-.609V69.271a6.049,6.049,0,0,1,1.478-.577.2.2,0,0,0,.147-.141l.447-1.568a.108.108,0,0,1,.1-.078H37.39a.108.108,0,0,1,.1.078l.447,1.568a.2.2,0,0,0,.147.141,6.045,6.045,0,0,1,1.695.7.2.2,0,0,0,.2,0l1.425-.793a.108.108,0,0,1,.129.018L42.61,69.7a.108.108,0,0,1,.018.129l-.793,1.425a.2.2,0,0,0,0,.2,6.043,6.043,0,0,1,.7,1.695.2.2,0,0,0,.141.147l1.568.447a.108.108,0,0,1,.078.1V75.36a.108.108,0,0,1-.078.1l-1.568.447a.2.2,0,0,0-.141.147c-.045.185-.1.368-.163.548h-.827a.2.2,0,1,0,0,.405h3.877a.2.2,0,0,1,.2.2v.718H39.055v-.718a.2.2,0,0,1,.2-.2h1.177a.2.2,0,0,0,0-.405H39.259a.609.609,0,0,0-.609.609v3.129C38.465,80.408,38.276,80.464,38.087,80.511Zm7.342.847h-6.17a.2.2,0,0,1-.2-.2V78.337h6.577v2.818A.2.2,0,0,1,45.429,81.358Z" transform="translate(-27.528 -66.501)"/><path class="d" d="M331.732,381.234h-.019a.2.2,0,0,1-.174-.139l-.278-.851a.2.2,0,1,1,.385-.126l.132.4.074-.136a.2.2,0,0,1,.356,0l.074.136.132-.4a.2.2,0,1,1,.385.126l-.278.851a.2.2,0,0,1-.37.034l-.121-.222-.121.222A.2.2,0,0,1,331.732,381.234Z" transform="translate(-318.949 -367.28)"/><path class="d" d="M374.534,381.234h-.019a.2.2,0,0,1-.174-.139l-.278-.851a.2.2,0,1,1,.385-.126l.132.4.074-.136a.2.2,0,0,1,.356,0l.074.136.132-.4a.2.2,0,1,1,.385.126l-.278.851a.2.2,0,0,1-.37.034l-.121-.222-.121.222A.2.2,0,0,1,374.534,381.234Z" transform="translate(-360.017 -367.28)"/><path class="d" d="M417.933,381.234a.2.2,0,0,1-.178-.106l-.121-.222-.121.222a.2.2,0,0,1-.37-.034l-.278-.851a.2.2,0,1,1,.385-.126l.132.4.074-.136a.2.2,0,0,1,.356,0l.074.136.132-.4a.2.2,0,1,1,.385.126l-.278.851a.2.2,0,0,1-.174.139Z" transform="translate(-401.085 -367.28)"/></g></g></svg>