<svg xmlns="http://www.w3.org/2000/svg" width="22" height="22" viewBox="0 0 22 22"><defs><style>.a{fill:#fff;}.b{fill:none;}.c{fill:#2c2f33;}.d{fill:#ffc03f;}</style></defs><g transform="translate(-352.549 -386.061)"><path class="a" d="M363.549,407.081a10.02,10.02,0,1,1,10.019-10.02A10.033,10.033,0,0,1,363.549,407.081Z" transform="translate(0 0)"/><g transform="translate(352.549 386.061)"><path class="b" d="M363.549,387.042a10.02,10.02,0,1,0,10.019,10.02A10.031,10.031,0,0,0,363.549,387.042Zm2,15.951a1.466,1.466,0,0,1-1.464,1.464h-1.069a1.466,1.466,0,0,1-1.464-1.464v-5.487a1.466,1.466,0,0,1,1.464-1.464h1.069a1.466,1.466,0,0,1,1.464,1.464Zm-2-8.2h0a2.565,2.565,0,1,1,2.565-2.565A2.568,2.568,0,0,1,363.549,394.79Z" transform="translate(-352.549 -386.061)"/><path class="c" d="M363.548,386.061a11,11,0,1,0,11,11A11.013,11.013,0,0,0,363.548,386.061Zm0,20.957a9.956,9.956,0,1,1,9.956-9.956A9.969,9.969,0,0,1,363.548,407.018Z" transform="translate(-352.549 -386.061)"/><path class="d" d="M364.276,391.88a1.395,1.395,0,1,0-1.395,1.395A1.4,1.4,0,0,0,364.276,391.88Z" transform="translate(-351.883 -385.731)"/><path class="c" d="M362.882,389.486a2.395,2.395,0,1,0,0,4.789h0a2.395,2.395,0,0,0,0-4.789Zm-1.395,2.4a1.395,1.395,0,1,1,1.394,1.394A1.4,1.4,0,0,1,361.487,391.881Z" transform="translate(-351.883 -385.773)"/><rect class="d" width="1.732" height="5.856" rx="0.367" transform="translate(10.133 11.316)"/><path class="c" d="M363.381,395.443h-1a1.368,1.368,0,0,0-1.367,1.367v5.122a1.368,1.368,0,0,0,1.367,1.367h1a1.368,1.368,0,0,0,1.367-1.367V396.81A1.368,1.368,0,0,0,363.381,395.443Zm.367,6.489a.368.368,0,0,1-.367.367h-1a.368.368,0,0,1-.367-.367V396.81a.367.367,0,0,1,.367-.367h1a.367.367,0,0,1,.367.367Z" transform="translate(-351.883 -385.085)"/></g></g></svg>