<svg xmlns="http://www.w3.org/2000/svg" xmlns:xlink="http://www.w3.org/1999/xlink" width="80" height="80" viewBox="0 0 80 80"><defs><style>.a,.f{fill:#fff;}.b{fill:#03dbaf;}.c{fill:url(#c);}.d{fill:#f6bb53;}.e{fill:url(#d);}.f{stroke:#fff;stroke-width:0.5px;}.g{filter:url(#a);}</style><filter id="a" x="0" y="0" width="80" height="80" filterUnits="userSpaceOnUse"><feOffset dy="8" input="SourceAlpha"/><feGaussianBlur stdDeviation="5" result="b"/><feFlood flood-opacity="0.188"/><feComposite operator="in" in2="b"/><feComposite in="SourceGraphic"/></filter><linearGradient id="c" x1="0.406" y1="-0.043" x2="0.62" y2="1.446" gradientUnits="objectBoundingBox"><stop offset="0" stop-color="#fe8c09"/><stop offset="1" stop-color="#fc3907"/></linearGradient><linearGradient id="d" x1="0.064" y1="0.064" x2="0.692" y2="0.795" gradientUnits="objectBoundingBox"><stop offset="0" stop-color="#764ba2"/><stop offset="1" stop-color="#667eea"/></linearGradient></defs><g transform="translate(-125 -261)"><g class="g" transform="matrix(1, 0, 0, 1, 125, 261)"><rect class="a" width="50" height="50" rx="16" transform="translate(15 7)"/></g><g transform="translate(-11.667 -118.471)"><g transform="translate(159.667 395.471)"><g transform="translate(14.032 13.547)"><circle class="b" cx="1.369" cy="1.369" r="1.369"/></g><g transform="translate(0 0)"><circle class="c" cx="15.5" cy="15.5" r="15.5"/><g transform="translate(2.909 2.909)"><circle class="d" cx="12.5" cy="12.5" r="12.5" transform="translate(0.091 0.091)"/><g transform="translate(1.939 1.715)"><path class="a" d="M395.489,247.412h.866a.613.613,0,0,0,0-1.226h-.866a.613.613,0,0,0,0,1.226Z" transform="translate(-375.295 -235.837)"/><path class="a" d="M85.093,246.427a.613.613,0,0,0-.613-.613h-.866a.613.613,0,0,0,0,1.226h.866A.613.613,0,0,0,85.093,246.427Z" transform="translate(-83 -235.488)"/><path class="a" d="M246.8,85.093a.613.613,0,0,0,.613-.613v-.866a.613.613,0,1,0-1.226,0v.866A.613.613,0,0,0,246.8,85.093Z" transform="translate(-235.951 -83)"/><path class="a" d="M246.427,394.877a.613.613,0,0,0-.613.613v.866a.613.613,0,1,0,1.226,0v-.866A.613.613,0,0,0,246.427,394.877Z" transform="translate(-235.602 -375.068)"/><path class="a" d="M183.106,146.9a2.33,2.33,0,1,0,4.045,0l4.85-4.85a.613.613,0,1,0-.867-.867l-4.85,4.85a2.322,2.322,0,0,0-2.31,0l-2.428-2.428a.613.613,0,1,0-.867.867Zm3.126,1.155a1.1,1.1,0,1,1-1.1-1.1A1.105,1.105,0,0,1,186.233,148.051Z" transform="translate(-174.249 -137.207)"/></g></g></g></g><g transform="translate(176.151 411.955)"><circle class="e" cx="8" cy="8" r="8" transform="translate(-0.485 -0.485)"/><g transform="translate(3.721 3.593)"><path class="f" d="M8.544,4.1H4.793V.347a.347.347,0,1,0-.695,0V4.1H.347a.347.347,0,1,0,0,.695H4.1V8.544a.347.347,0,0,0,.695,0V4.793H8.544a.347.347,0,0,0,0-.695Z"/></g></g></g></g></svg>