<svg xmlns="http://www.w3.org/2000/svg" xmlns:xlink="http://www.w3.org/1999/xlink" width="80" height="80" viewBox="0 0 80 80"><defs><style>.a{fill:#fff;}.b{fill:#627bff;}.c{fill:#8aacff;}.d{fill:#e6edff;}.e{fill:url(#c);}.f{fill:url(#d);}.g{filter:url(#a);}</style><filter id="a" x="0" y="0" width="80" height="80" filterUnits="userSpaceOnUse"><feOffset dy="8" input="SourceAlpha"/><feGaussianBlur stdDeviation="5" result="b"/><feFlood flood-opacity="0.188"/><feComposite operator="in" in2="b"/><feComposite in="SourceGraphic"/></filter><linearGradient id="c" x1="0.22" y1="-0.479" x2="0.78" y2="1.479" gradientUnits="objectBoundingBox"><stop offset="0" stop-color="#8296ff"/><stop offset="0.338" stop-color="#6c87ff"/><stop offset="1" stop-color="#3964ff"/></linearGradient><linearGradient id="d" x1="0.146" y1="0.146" x2="0.852" y2="0.852" gradientUnits="objectBoundingBox"><stop offset="0" stop-color="#ffd02c"/><stop offset="0.97" stop-color="#f89131"/></linearGradient></defs><g transform="translate(-4 -261)"><g class="g" transform="matrix(1, 0, 0, 1, 4, 261)"><rect class="a" width="50" height="50" rx="16" transform="translate(15 7)"/></g><g transform="translate(-20.613 -13)"><g transform="translate(50.613 290)"><rect class="b" width="24" height="30.576" rx="5" transform="translate(0 0.624)"/><path class="c" d="M1.637,0H18.413A1.618,1.618,0,0,1,20.05,1.6V24.386a1.618,1.618,0,0,1-1.637,1.6H1.637A1.618,1.618,0,0,1,0,24.386V1.6A1.618,1.618,0,0,1,1.637,0Z" transform="translate(2.058 2.92)"/><rect class="d" width="8.092" height="6.852" rx="1.976" transform="translate(3.269 7.284)"/><rect class="d" width="5.087" height="2.61" rx="1.305" transform="translate(13.72 7.309)"/><rect class="d" width="5.087" height="2.61" rx="1.305" transform="translate(13.72 11.495)"/><rect class="d" width="15.884" height="1.305" rx="0.653" transform="translate(3.269 16.813)"/><rect class="a" width="11.54" height="1.305" rx="0.653" transform="translate(3.269 20.874)"/><rect class="d" width="15.539" height="1.305" rx="0.653" transform="translate(3.269 24.647)"/><rect class="e" width="13.997" height="4.006" rx="2.003" transform="translate(5.072)"/><g transform="translate(15.2 15.2)"><circle class="f" cx="8" cy="8" r="8" transform="translate(0.801 0.801)"/><path class="a" d="M58.471,121a1.607,1.607,0,0,1-1.631-1.556,1.581,1.581,0,0,1,1.292-1.515,1.724,1.724,0,0,1,.324-.031,1.61,1.61,0,0,1,1.567,1.185,2.428,2.428,0,0,0,1.784-.836h-.2a.37.37,0,0,1-.358-.4v-3.658a.4.4,0,0,1,.358-.434h.263v-.658a3.728,3.728,0,0,0-7.45,0v.658h.263a.4.4,0,0,1,.358.434v3.666a.368.368,0,0,1-.354.39H53.534a1.33,1.33,0,0,1-.93-.391,1.225,1.225,0,0,1-.359-.9v-1.869a1.313,1.313,0,0,1,1.289-1.332h.108v-.658a4.506,4.506,0,0,1,9.006,0v.661a1.476,1.476,0,0,1,1.242,1.479V117.1a1.116,1.116,0,0,1-1.16,1.108l-.236.386a3.207,3.207,0,0,1-2.467,1.215,1.372,1.372,0,0,1-.382.7,1.7,1.7,0,0,1-1.173.487Zm-.016-2.365a.849.849,0,0,0-.592.237.785.785,0,0,0-.245.571.852.852,0,0,0,1.463.547.709.709,0,0,0,.212-.543.826.826,0,0,0-.838-.812ZM53.534,114.5a.551.551,0,0,0-.512.583v1.871a.5.5,0,0,0,.145.38.53.53,0,0,0,.369.158h.727V114.5Zm9.066,2.991c.154,0,.512-.038.512-.389v-1.871c0-.33-.236-.732-.512-.732h-.574v2.991Z" transform="translate(-49.444 -105.953)"/></g></g></g></g></svg>