<svg xmlns="http://www.w3.org/2000/svg" xmlns:xlink="http://www.w3.org/1999/xlink" width="65" height="65" viewBox="0 0 65 65"><defs><style>.a{stroke:#90bfff;fill:url(#a);}.b{fill:url(#b);}.c{clip-path:url(#c);}.d{fill:#f39675;}.e{fill:#fff;}.f{fill:#e8b246;}.g{fill:url(#d);}.h{fill:#ffae93;}.i{fill:#cfc7bb;}.j{fill:#e57d2e;}</style><linearGradient id="a" x1="0.187" y1="0.802" x2="0.879" y2="0.253" gradientUnits="objectBoundingBox"><stop offset="0" stop-color="#81b6ff"/><stop offset="1" stop-color="#a997ff"/></linearGradient><linearGradient id="b" x1="0.187" y1="0.802" x2="0.879" y2="0.253" gradientUnits="objectBoundingBox"><stop offset="0" stop-color="#ffc5a7"/><stop offset="1" stop-color="#fe9d85"/></linearGradient><clipPath id="c"><circle class="a" cx="32.5" cy="32.5" r="32.5"/></clipPath><linearGradient id="d" x1="0.5" y1="1.099" x2="0.5" y2="0.334" gradientUnits="objectBoundingBox"><stop offset="0" stop-color="#ffae5d"/><stop offset="1" stop-color="#b73623"/></linearGradient></defs><g transform="translate(-42 -392)"><g transform="translate(-1956 -1451)"><g transform="translate(346 -72)"><circle class="b" cx="32.5" cy="32.5" r="32.5" transform="translate(1652 1915)"/><g class="c" transform="translate(1652 1915)"><path class="d" d="M20,40A20.005,20.005,0,0,1,12.215,1.572a20.005,20.005,0,0,1,15.57,36.857A19.875,19.875,0,0,1,20,40ZM20,8.571A11.429,11.429,0,1,0,31.429,20,11.442,11.442,0,0,0,20,8.571Z" transform="translate(-11 -7)"/><path class="d" d="M38,42H6a6.007,6.007,0,0,1-6-6V6A6.007,6.007,0,0,1,6,0H38a6.007,6.007,0,0,1,6,6V36A6.007,6.007,0,0,1,38,42ZM11.656,8.542a3,3,0,0,0-3,3V30.458a3,3,0,0,0,3,3H32.344a3,3,0,0,0,3-3V11.543a3,3,0,0,0-3-3Z" transform="translate(27 36)"/></g></g></g><g transform="translate(42 392)"><g transform="translate(-2.826 97.307)"><path class="e" d="M50.086-80.547H43.7a1.917,1.917,0,0,1,.032.32v2.3H27.616v-2.3a1.918,1.918,0,0,1,.032-.32H21.266a1.44,1.44,0,0,0-1.44,1.44h0v35.334a1.442,1.442,0,0,0,1.44,1.44h28.82a1.442,1.442,0,0,0,1.44-1.44V-79.107A1.442,1.442,0,0,0,50.086-80.547Z"/><g transform="translate(0.12)"><ellipse class="f" cx="3.751" cy="3.751" rx="3.751" ry="3.751" transform="translate(31.917 -76.14)"/><path class="f" d="M39.339-69.1c-3.85,0-6.971,1.566-6.971,3.5v.935h13.94v-.935c0-1.931-3.119-3.5-6.967-3.5h0Z" transform="translate(-3.662 1.73)"/></g><path class="g" d="M41.815-82.149h-2.6v-.624a3.534,3.534,0,0,0-3.534-3.534,3.534,3.534,0,0,0-3.534,3.534v.624h-2.6a1.923,1.923,0,0,0-1.922,1.922h0v2.294H43.737v-2.294a1.923,1.923,0,0,0-1.922-1.922Z"/><circle class="h" cx="1.116" cy="1.116" r="1.116" transform="translate(34.56 -84.102)"/></g><g transform="translate(-0.007)"><path class="i" d="M70.74,98.637H63.047a1.289,1.289,0,1,0,0,2.578H70.74a1.289,1.289,0,1,0,0-2.578Zm0,0" transform="translate(-28.758 -58.637)"/><path class="i" d="M70.74,158.641H63.047a1.289,1.289,0,1,0,0,2.578H70.74a1.289,1.289,0,1,0,0-2.578Zm0,0" transform="translate(-28.758 -111.484)"/><path class="j" d="M316.336,342.9a.964.964,0,0,0-1.355.149l-2.482,3.095-1.537-1.113a.964.964,0,1,0-1.131,1.561l2.28,1.652a.963.963,0,0,0,1.317-.177l3.057-3.811A.964.964,0,0,0,316.336,342.9Zm0,0" transform="translate(-286.425 -304.27)"/><path class="j" d="M316.336,342.9a.964.964,0,0,0-1.355.149l-2.482,3.095-1.537-1.113a.964.964,0,1,0-1.131,1.561l2.28,1.652a.963.963,0,0,0,1.317-.177l3.057-3.811A.964.964,0,0,0,316.336,342.9Zm0,0" transform="translate(-286.425 -297.27)"/></g></g></g></svg>