<svg xmlns="http://www.w3.org/2000/svg" xmlns:xlink="http://www.w3.org/1999/xlink" width="80" height="80" viewBox="0 0 80 80"><defs><style>.a,.g{fill:#fff;}.b{fill:url(#c);}.c,.e{stroke:rgba(0,0,0,0);}.c{stroke-miterlimit:10;fill:url(#d);}.d{fill:url(#e);}.e{fill:url(#g);}.f{fill:url(#j);}.g{stroke:#fff;stroke-width:0.2px;}.h{filter:url(#a);}</style><filter id="a" x="0" y="0" width="80" height="80" filterUnits="userSpaceOnUse"><feOffset dy="8" input="SourceAlpha"/><feGaussianBlur stdDeviation="5" result="b"/><feFlood flood-opacity="0.188"/><feComposite operator="in" in2="b"/><feComposite in="SourceGraphic"/></filter><linearGradient id="c" x1="0.462" y1="1.038" x2="0.5" y2="0.033" gradientUnits="objectBoundingBox"><stop offset="0" stop-color="#78e3ff"/><stop offset="1" stop-color="#00a7d4"/></linearGradient><linearGradient id="d" x1="0.189" x2="0.761" y2="0.5" gradientUnits="objectBoundingBox"><stop offset="0" stop-color="#a1f5ff"/><stop offset="1" stop-color="#00c2ff"/></linearGradient><linearGradient id="e" x1="0.244" y1="0.153" x2="0.598" y2="0.615" gradientUnits="objectBoundingBox"><stop offset="0" stop-color="#45e6ff"/><stop offset="0.457" stop-color="#07c6ff"/><stop offset="1" stop-color="#04acd8"/></linearGradient><linearGradient id="g" x1="0.5" x2="0.5" y2="1" gradientUnits="objectBoundingBox"><stop offset="0" stop-color="#038fb4"/><stop offset="1" stop-color="#004e63"/></linearGradient><linearGradient id="j" x1="0.146" y1="0.146" x2="0.852" y2="0.852" gradientUnits="objectBoundingBox"><stop offset="0" stop-color="#ff6054"/><stop offset="1" stop-color="#db22c8"/></linearGradient></defs><g transform="translate(-140 -381)"><g class="h" transform="matrix(1, 0, 0, 1, 140, 381)"><rect class="a" width="50" height="50" rx="16" transform="translate(15 7)"/></g><g transform="translate(164.473 395.75)"><g transform="translate(1.36 1.5)"><path class="b" d="M9.081,18.162A9.081,9.081,0,0,1,2.66,2.66,9.081,9.081,0,0,1,15.5,15.5,9.022,9.022,0,0,1,9.081,18.162Zm0-16.951a7.87,7.87,0,1,0,7.87,7.871A7.879,7.879,0,0,0,9.081,1.211Z" transform="translate(3.605 -0.25)"/><g transform="translate(0 4.272)"><path class="c" d="M0,11.314V9.228a3.7,3.7,0,0,1,3.771-3.62,3.7,3.7,0,0,1,3.771,3.62v2.086ZM1.242,2.454A2.507,2.507,0,0,1,3.8,0,2.507,2.507,0,0,1,6.357,2.454,2.508,2.508,0,0,1,3.8,4.909,2.508,2.508,0,0,1,1.242,2.454Z" transform="translate(0 7.965)"/><ellipse class="d" cx="4.786" cy="4.667" rx="4.786" ry="4.667" transform="translate(8.677)"/><path class="d" d="M395.734,122.363H381.619V118.4a6.972,6.972,0,0,1,7.057-6.882h0a6.971,6.971,0,0,1,7.057,6.882Z" transform="translate(-375.266 -100.891)"/><g transform="translate(11.989 26.656) rotate(175)"><rect class="e" width="1.405" height="4.88" transform="translate(3.235 8.834) rotate(28.57)"/><rect class="e" width="3.204" height="1.464" transform="translate(0.7 11.639) rotate(28.57)"/><path class="e" d="M0,9.78,4.66.837A1.5,1.5,0,0,1,6.741.2h0a1.642,1.642,0,0,1,.614,2.175L2.7,11.314Z" transform="translate(1.886 0)"/></g></g></g><g transform="translate(14.527 17.25)"><circle class="f" cx="8" cy="8" r="8"/><g transform="translate(2.316 2.316)"><g transform="translate(2.796 2.794)"><path class="g" d="M72.6,128.173a.268.268,0,0,1,.5.2,2.943,2.943,0,1,0,1.654-1.655.268.268,0,1,1-.2-.5,3.475,3.475,0,1,1-1.954,1.956Z" transform="translate(-72.357 -125.973)"/></g><g transform="translate(1.191 1.188)"><path class="g" d="M.2,57.287a.268.268,0,0,1,.515.147,4.545,4.545,0,1,0,3.118-3.119.268.268,0,1,1-.148-.515A5.08,5.08,0,1,1,.2,57.287Z" transform="translate(0 -53.603)"/></g><g transform="translate(4.402 4.4)"><path class="g" d="M144.731,200.037a.268.268,0,0,1,.534.048c0,.038-.005.077-.005.116a1.338,1.338,0,1,0,1.337-1.338c-.041,0-.082,0-.12.005a.268.268,0,0,1-.049-.534c.055-.005.112-.008.169-.008a1.874,1.874,0,1,1-1.874,1.874C144.724,200.146,144.726,200.091,144.731,200.037Z" transform="translate(-144.724 -198.327)"/></g><path class="g" d="M221.809,1.854a.535.535,0,0,1,.5-.331h.935V.588a.536.536,0,0,1,.915-.379l1.562,1.562a.8.8,0,0,1,.235.568V3.856l2.178,2.178a.268.268,0,1,1-.379.379l-2.178-2.178h-1.517A.8.8,0,0,1,223.487,4l-1.562-1.562A.534.534,0,0,1,221.809,1.854Zm3.606.485a.266.266,0,0,0-.078-.189L223.775.588V1.68l1.64,1.64Zm-1.549,1.281a.27.27,0,0,0,.189.078h.981l-1.64-1.64H222.3Z" transform="translate(-221.768 -0.052)"/></g></g></g></g></svg>