<svg xmlns="http://www.w3.org/2000/svg" xmlns:xlink="http://www.w3.org/1999/xlink" width="80" height="80" viewBox="0 0 80 80"><defs><style>.a{fill:#fff;}.b{fill:#0877cd;}.c{fill:#045592;}.d{fill:url(#c);}.e{fill:url(#d);}.f{fill:#0576cc;}.g{fill:url(#e);}.h{filter:url(#a);}</style><filter id="a" x="0" y="0" width="80" height="80" filterUnits="userSpaceOnUse"><feOffset dy="8" input="SourceAlpha"/><feGaussianBlur stdDeviation="5" result="b"/><feFlood flood-opacity="0.188"/><feComposite operator="in" in2="b"/><feComposite in="SourceGraphic"/></filter><linearGradient id="c" x1="0.2" y1="0.5" x2="1" y2="0.5" gradientUnits="objectBoundingBox"><stop offset="0" stop-color="#66c1fe"/><stop offset="1" stop-color="#0576cc"/></linearGradient><linearGradient id="d" x1="0.2" y1="0.168" x2="0.894" y2="0.965" gradientUnits="objectBoundingBox"><stop offset="0" stop-color="#66c1fe"/><stop offset="1" stop-color="#1a90ea"/></linearGradient><linearGradient id="e" x1="0.146" y1="0.146" x2="0.852" y2="0.852" gradientUnits="objectBoundingBox"><stop offset="0" stop-color="#ffd02c"/><stop offset="0.97" stop-color="#f89131"/></linearGradient></defs><g transform="translate(-4 -501)"><g class="h" transform="matrix(1, 0, 0, 1, 4, 501)"><rect class="a" width="50" height="50" rx="16" transform="translate(15 7)"/></g><g transform="translate(-20.743 429.575)"><g transform="translate(51.068 87.425)"><g transform="translate(5.3)"><g transform="translate(1.869 1.797)"><rect class="b" width="1.198" height="6.589"/><rect class="b" width="1.198" height="6.589" transform="translate(4.792)"/></g><g transform="translate(1.869 1.797)"><rect class="c" width="1.198" height="1.797"/><rect class="c" width="1.198" height="1.797" transform="translate(4.792)"/></g><path class="d" d="M63.009,0H70.3A1.207,1.207,0,0,1,71.52,1.2h0A1.207,1.207,0,0,1,70.3,2.4H63.009a1.207,1.207,0,0,1-1.216-1.2h0A1.207,1.207,0,0,1,63.009,0Z" transform="translate(-61.793 0)"/></g><g transform="translate(0 4.417)"><path class="e" d="M2.71,114.759H17.619a2.594,2.594,0,0,1,2.71,2.459v19.67a2.594,2.594,0,0,1-2.71,2.459H2.71A2.594,2.594,0,0,1,0,136.888v-19.67a2.594,2.594,0,0,1,2.71-2.459Z" transform="translate(0 -114.759)"/><circle class="f" cx="1.497" cy="1.497" r="1.497" transform="translate(16.735 24.588)"/><circle class="f" cx="1.497" cy="1.497" r="1.497" transform="translate(0.585 24.588)"/></g><g transform="translate(4.175 9.08)"><rect class="f" width="1.198" height="17.371" transform="translate(3.594)"/><rect class="f" width="1.198" height="17.371"/><rect class="f" width="1.198" height="17.371" transform="translate(7.188)"/><rect class="f" width="1.198" height="17.371" transform="translate(10.782)"/></g></g><g transform="translate(65.742 103.424)"><circle class="g" cx="8" cy="8" r="8" transform="translate(0 0)"/><path class="a" d="M1.539,5.725A.845.845,0,0,0,.6,5.9l-.519.519a.28.28,0,0,0,.054.438l1.646.987-.632.631a.28.28,0,0,0,.4.4l.642-.641,1.019,1.7a.28.28,0,0,0,.438.054l.52-.52a.845.845,0,0,0,.175-.938l-.428-.949L5.3,6.318l2.67,3.207a.28.28,0,0,0,.413.019A1.8,1.8,0,0,0,8.7,7.432l-.344-.649.3-.3A.84.84,0,0,0,7.53,5.235l-.341-.641L9.114,2.836A1.336,1.336,0,1,0,7.228.95L5.47,2.875l-.694-.367A.84.84,0,0,0,3.538,1.374l-.311.311-.59-.315a1.8,1.8,0,0,0-2.112.316A.28.28,0,0,0,.544,2.1L3.752,4.768,2.489,6.15Zm6.318-.033a.28.28,0,1,1,.4.4l-.177.177L7.8,5.748Zm.344,2A1.227,1.227,0,0,1,8.176,8.9L5.712,5.94l1.049-.957L8.2,7.691ZM3.935,1.769a.28.28,0,0,1,.4.4l-.071.071-.518-.275Zm-2.769.12a1.228,1.228,0,0,1,1.206-.025l2.709,1.44L4.126,4.354Zm1.6,4.787L7.648,1.323A.775.775,0,1,1,8.743,2.418L3.389,7.3a.28.28,0,0,0-.067.321l.508,1.135a.285.285,0,0,1-.058.313l-.266.266L2.6,7.821l.115-.115a.28.28,0,1,0-.4-.4l-.125.125L.732,6.559,1,6.294a.285.285,0,0,1,.313-.058l1.135.507a.28.28,0,0,0,.321-.067Zm0,0" transform="translate(2.894 2.583)"/></g></g></g></svg>