<svg xmlns="http://www.w3.org/2000/svg" xmlns:xlink="http://www.w3.org/1999/xlink" width="80" height="80" viewBox="0 0 80 80"><defs><style>.a{fill:#6774ff;}.a,.j{opacity:0.36;}.b,.g,.t{fill:#fff;}.c{fill:#e6edff;}.d,.j{fill:#ad81ff;}.e{fill:url(#c);}.f{fill:#020202;opacity:0.2;mix-blend-mode:multiply;}.f,.g{isolation:isolate;}.g{opacity:0.3;mix-blend-mode:screen;}.h{opacity:0.5;}.i,.s{fill:none;stroke-linecap:round;}.i{stroke:#6f41ef;stroke-miterlimit:10;}.k{clip-path:url(#d);}.l{fill:#d0befa;}.m{fill:#ffdede;}.n,.o,.p,.q{fill:#cfb9fc;}.o{opacity:0.71;}.p{opacity:0.7;}.q{opacity:0.55;}.r{fill:url(#e);}.s,.t{stroke:#fff;}.s{stroke-width:1.3px;}.t{stroke-width:0.2px;}.u{filter:url(#a);}</style><filter id="a" x="0" y="0" width="80" height="80" filterUnits="userSpaceOnUse"><feOffset dy="8" input="SourceAlpha"/><feGaussianBlur stdDeviation="5" result="b"/><feFlood flood-opacity="0.188"/><feComposite operator="in" in2="b"/><feComposite in="SourceGraphic"/></filter><linearGradient id="c" x1="0.5" x2="0.5" y2="1" gradientUnits="objectBoundingBox"><stop offset="0" stop-color="#d9c5ff"/><stop offset="1" stop-color="#c4a6fc"/></linearGradient><clipPath id="d"><path class="a" d="M1.5,0a1.872,1.872,0,0,1,1.7,1.7,1.377,1.377,0,0,1-1.5,1.5A1.872,1.872,0,0,1,0,1.5,1.377,1.377,0,0,1,1.5,0Z" transform="translate(0 2.27) rotate(-45)"/></clipPath><linearGradient id="e" x1="0.387" y1="0.094" x2="0.715" y2="1" gradientUnits="objectBoundingBox"><stop offset="0" stop-color="#13e360"/><stop offset="1" stop-color="#067d32"/></linearGradient></defs><g transform="translate(-268 -261)"><g class="u" transform="matrix(1, 0, 0, 1, 268, 261)"><rect class="b" width="50" height="50" rx="16" transform="translate(15 7)"/></g><g transform="translate(6.538 -4)"><g transform="translate(286.462 281)"><rect class="c" width="7.911" height="6.699" rx="1.976" transform="translate(3.783 5.056)"/><rect class="c" width="4.973" height="2.552" rx="1.276" transform="translate(14.244 5.093)"/><rect class="c" width="4.973" height="2.552" rx="1.276" transform="translate(14.244 9.095)"/><rect class="c" width="15.992" height="1.276" rx="0.638" transform="translate(3.671 14.192)"/><rect class="b" width="11.282" height="1.276" rx="0.638" transform="translate(3.815 18.078)"/><rect class="c" width="15.654" height="1.276" rx="0.638" transform="translate(3.671 21.69)"/><g transform="translate(0 0)"><path class="d" d="M319.3,114.261V140.59a1.518,1.518,0,0,1-.066.441,1.607,1.607,0,0,1-.081.209l-.052.1a2.1,2.1,0,0,1-.451.556,2.828,2.828,0,0,1-.309.238,3.432,3.432,0,0,1-.355.206c-.083.041-.171.081-.26.118h0q-.134.055-.276.1h0a4.273,4.273,0,0,1-.444.117h0c-.1.021-.206.039-.312.054a4.961,4.961,0,0,1-.661.044H299.875a4.826,4.826,0,0,1-.7-.05l-.111-.017-.122-.022a4.456,4.456,0,0,1-.489-.126c-.079-.026-.155-.053-.229-.082-.034-.013-.069-.027-.1-.041-.072-.03-.141-.062-.208-.1a3.118,3.118,0,0,1-.566-.361c-.066-.054-.129-.11-.188-.168a2.213,2.213,0,0,1-.236-.275,1.711,1.711,0,0,1-.22-.4h0a1.507,1.507,0,0,1-.1-.546V114.261c0-1.207,1.465-2.187,3.272-2.187h16.149C317.832,112.074,319.3,113.055,319.3,114.261Z" transform="translate(-296.345 -112.074)"/><path class="e" d="M322.144,118.685v24.854a1.1,1.1,0,0,1-.05.327.991.991,0,0,1-.058.149l-.046.088a1.516,1.516,0,0,1-.335.4,2.038,2.038,0,0,1-.235.176,2.425,2.425,0,0,1-.271.153c-.047.023-.1.048-.169.075l-.026.011c-.054.022-.11.043-.168.062l-.04.012a3.029,3.029,0,0,1-.3.079l-.035.007c-.082.016-.158.029-.233.04a4.015,4.015,0,0,1-.5.032H304.07a3.7,3.7,0,0,1-.524-.036c-.058-.008-.117-.017-.172-.028a3.432,3.432,0,0,1-.375-.094c-.058-.019-.117-.039-.167-.059l-.071-.027-.015-.006c-.043-.017-.092-.039-.151-.068a2.447,2.447,0,0,1-.428-.268c-.053-.042-.1-.082-.14-.122a1.644,1.644,0,0,1-.178-.2,1.289,1.289,0,0,1-.157-.271l-.01-.025a1.1,1.1,0,0,1-.078-.4V118.685c0-.888,1.107-1.611,2.467-1.611h15.606a2.687,2.687,0,0,1,2.291,1.016A1.131,1.131,0,0,1,322.144,118.685Z" transform="translate(-300.269 -115.761)"/><g transform="translate(1.912 10.889)"><g transform="translate(0)"><rect class="f" width="18.947" height="17.313" rx="1" transform="translate(0 0.199)"/><rect class="b" width="18.947" height="17.313" rx="1" transform="translate(0.22)"/></g></g><path class="f" d="M452.472,329.519c.014-.1.032-.223.056-.36v2.16a5.781,5.781,0,0,1-.237-.684A3.44,3.44,0,0,1,452.472,329.519Z" transform="translate(-429.576 -308.829)"/><path class="d" d="M454.446,177.592h0v-5.755h0a.747.747,0,0,1,.657.812v4.13A.747.747,0,0,1,454.446,177.592Z" transform="translate(-431.586 -166.619)"/><path class="d" d="M0,0H0A.519.519,0,0,1,.519.519V1.1A.519.519,0,0,1,0,1.617H0a0,0,0,0,1,0,0V0A0,0,0,0,1,0,0Z" transform="translate(0.519 6.871) rotate(180)"/><path class="d" d="M0,0H0A.519.519,0,0,1,.519.519V1.1A.519.519,0,0,1,0,1.617H0a0,0,0,0,1,0,0V0A0,0,0,0,1,0,0Z" transform="translate(0.519 8.741) rotate(180)"/><g transform="translate(1.335 1.313)"><path class="g" d="M322.009,118.117l-20.405,20.9v-3.645l17.865-18.3h.245A2.667,2.667,0,0,1,322.009,118.117Z" transform="translate(-301.604 -117.074)"/><path class="g" d="M338.543,228.154l-18.58,18.469h3.668L338.543,231.8Z" transform="translate(-318.004 -218.547)"/></g><path class="d" d="M356.787,115.563H350.57a1.857,1.857,0,0,1-1.894-1.817h10A1.857,1.857,0,0,1,356.787,115.563Z" transform="translate(-342.121 -112.546)"/><g transform="translate(1.912 3.773)"><g transform="translate(0 0)"><rect class="f" width="18.964" height="7.264" rx="1" transform="translate(0 0.196)"/><rect class="b" width="18.964" height="7.264" rx="1" transform="translate(0.211)"/><g transform="translate(6.441 2.028)"><g class="h"><line class="i" x2="6.588"/></g><g class="h" transform="translate(0 1.07)"><line class="i" x2="10.294"/></g><g class="h" transform="translate(0 2.139)"><line class="i" x2="10.294"/></g><g class="h" transform="translate(0 3.209)"><line class="i" x2="10.294"/></g></g></g><g transform="translate(0.396 1.206)"><path class="j" d="M1.5,0a1.872,1.872,0,0,1,1.7,1.7,1.377,1.377,0,0,1-1.5,1.5A1.872,1.872,0,0,1,0,1.5,1.377,1.377,0,0,1,1.5,0Z" transform="translate(0 2.27) rotate(-45)"/><g class="k" transform="translate(0 0)"><g transform="translate(1.114 1.295)"><path class="d" d="M335.352,175.442c.132.2.018.476.151.676.053.08.144.143.17.234a.2.2,0,0,1-.082.21.263.263,0,0,1-.251.02.294.294,0,0,0-.051-.022c-.066-.017-.126.035-.182.069a.31.31,0,0,1-.24.037.328.328,0,0,1-.2-.211,1.158,1.158,0,0,1,.061-.783.449.449,0,0,1,.251-.314" transform="translate(-333.464 -174.8)"/><path class="l" d="M332.146,184.578s-.006.231.035.246a1.143,1.143,0,0,0,.17.046s-.186.183-.327.177a.507.507,0,0,1-.37-.235c0-.046-.029-.3-.029-.3" transform="translate(-330.808 -183.039)"/><path class="m" d="M330.654,174.986a2.052,2.052,0,0,1-.045.681.634.634,0,0,1-.547.333c-.606,0-.714-.725-.711-.76s.894-.339.894-.339Z" transform="translate(-328.793 -174.39)"/><path class="l" d="M325.748,187.593s.276.27.371,0c.239.059.5.1.6.292.33.859-.747.934-1.052.934-.431,0-1.139-.209-.783-.917C324.993,187.679,325.158,187.544,325.748,187.593Z" transform="translate(-324.747 -185.804)"/><path class="d" d="M324.687,171.719l-.04-.02a.316.316,0,0,1-.162-.144.426.426,0,0,1,0-.351c.04-.066.115-.109.166-.168a.474.474,0,0,0,.1-.292,1.693,1.693,0,0,1,.024-.308.721.721,0,0,1,.248-.447.942.942,0,0,1,.988-.085c.048.036.057.065.122.07a.525.525,0,0,1,.221.057c.086.044.191.106.179.206a.36.36,0,0,1-.165.211.221.221,0,0,1-.093.018c-.1,0-.188-.057-.288-.048a.2.2,0,0,0-.126.062c-.036.039-.031.094-.074.131-.068.059-.173.054-.254.093a.083.083,0,0,0-.035.025.073.073,0,0,0-.009.038q0,.056,0,.112c-.04-.015-.044-.066-.077-.091a.1.1,0,0,0-.115.007.165.165,0,0,0-.056.1.251.251,0,0,0,.023.134c.026.076.1.144.16.094.043.056,0,.15-.006.213s0,.15.053.183.127.007.13.086-.079.128-.16.137a.669.669,0,0,1-.239-.037.423.423,0,0,0-.24-.01.778.778,0,0,1-.135.053A.233.233,0,0,1,324.687,171.719Z" transform="translate(-324.445 -169.798)"/></g></g></g></g><g transform="translate(10.369 14.645)"><g class="h"><line class="i" x2="7.889"/></g><g class="h" transform="translate(0 1.07)"><line class="i" x2="9.045"/></g><g class="h" transform="translate(0 2.139)"><line class="i" x2="9.045"/></g><g class="h" transform="translate(0 3.209)"><line class="i" x2="9.045"/></g></g></g><g transform="translate(4.734 20.539)"><path class="n" d="M9.2,479.046H.31c-.171,0-.31-.1-.31-.219s.139-.219.31-.219H9.2c.171,0,.31.1.31.219S9.367,479.046,9.2,479.046Z" transform="translate(0 -472.327)"/><path class="d" d="M259.14,478.609H256v.438h3.14a.219.219,0,1,0,0-.438Z" transform="translate(-249.853 -472.328)"/><path class="o" d="M379.968,0h-1.315a.219.219,0,0,0-.219.219v5.4a.219.219,0,0,0,.219.219h1.315a.219.219,0,0,0,.219-.219V.219A.219.219,0,0,0,379.968,0Z" transform="translate(-370.681 0)"/><path class="d" d="M446.093,5.623V.219A.219.219,0,0,0,445.874,0h-.657V5.843h.657A.219.219,0,0,0,446.093,5.623Z" transform="translate(-436.587 0)"/><path class="p" d="M189.436,148.639h1.315a.219.219,0,0,0,.219-.219v-3.506a.219.219,0,0,0-.219-.219h-1.315a.219.219,0,0,0-.219.219v3.506A.219.219,0,0,0,189.436,148.639Z" transform="translate(-185.34 -142.796)"/><path class="d" d="M256.876,148.421v-3.506a.219.219,0,0,0-.219-.219H256v3.944h.657A.219.219,0,0,0,256.876,148.421Z" transform="translate(-251.038 -142.797)"/><path class="q" d="M.219,280.452H1.534a.219.219,0,0,0,.219-.219V278.48a.219.219,0,0,0-.219-.219H.219A.219.219,0,0,0,0,278.48v1.753A.219.219,0,0,0,.219,280.452Z" transform="translate(0 -274.609)"/><path class="d" d="M67.659,280.233V278.48a.219.219,0,0,0-.219-.219h-.657v2.191h.657A.219.219,0,0,0,67.659,280.233Z" transform="translate(-65.907 -274.609)"/></g><g transform="translate(2.667 13.825)"><path class="n" d="M271.468.565A1.9,1.9,0,0,0,270.127,0,.125.125,0,0,0,270,.127v1.78a.121.121,0,0,0,.127.127h1.789a.125.125,0,0,0,.127-.127A1.9,1.9,0,0,0,271.468.565Z" transform="translate(-267.722 0)"/><path class="n" d="M3.652,62.772H2.025V61.127A.125.125,0,0,0,1.9,61a1.9,1.9,0,1,0,1.9,1.9A.13.13,0,0,0,3.652,62.772Z" transform="translate(0 -60.485)"/><path class="d" d="M69.24,271.127A1.891,1.891,0,0,1,66,272.468L67.468,271H69.1A.13.13,0,0,1,69.24,271.127Z" transform="translate(-65.443 -268.714)"/><path class="d" d="M276.206,68.342a.125.125,0,0,1-.127.127h-1.789a.145.145,0,0,1-.091-.035L275.633,67A1.905,1.905,0,0,1,276.206,68.342Z" transform="translate(-271.887 -66.435)"/></g></g><g transform="translate(301.945 296.483)"><g transform="translate(0 0)"><circle class="r" cx="8.5" cy="8.5" r="8.5" transform="translate(-0.483 -0.483)"/></g><g transform="translate(3.521 3.955)"><line class="s" x2="9.572" transform="translate(0.212 8.221)"/><path class="t" d="M10.365.367V1.835a.4.4,0,0,1-.8,0v-.58l-4.106,3.8a.409.409,0,0,1-.558,0l-1.316-1.2L.678,6.521a.39.39,0,0,1-.279.11.39.39,0,0,1-.279-.11.336.336,0,0,1,0-.514L3.309,3.071a.409.409,0,0,1,.558,0l1.316,1.2L9,.734h-.63a.38.38,0,0,1-.4-.367A.38.38,0,0,1,8.372,0H9.966a.38.38,0,0,1,.4.367Zm0,0" transform="translate(0 0)"/></g></g></g></g></svg>