<svg xmlns="http://www.w3.org/2000/svg" xmlns:xlink="http://www.w3.org/1999/xlink" width="608" height="260" viewBox="0 0 608 260"><defs><style>.a{fill:#27e2c6;}.b{fill:url(#a);}.c{clip-path:url(#b);}.d,.e,.f,.j{fill:none;}.d,.e,.f{stroke:#fff;}.d,.e{stroke-width:50px;}.d,.f{opacity:0.03;}.e{opacity:0.05;}.f{stroke-width:60px;}.g{opacity:0.23;}.g,.h{fill:url(#c);}.h{opacity:0.11;}.i{stroke:none;}</style><linearGradient id="a" x1="0.016" y1="0.938" x2="1" y2="0.931" gradientUnits="objectBoundingBox"><stop offset="0" stop-color="#8066ff"/><stop offset="1" stop-color="#607bfd"/></linearGradient><clipPath id="b"><rect class="a" width="608" height="260" rx="10" transform="translate(14 142)"/></clipPath><linearGradient id="c" x1="0.452" y1="-0.974" x2="0.494" y2="1.012" gradientUnits="objectBoundingBox"><stop offset="0" stop-color="#fff"/><stop offset="1" stop-color="#fff" stop-opacity="0"/></linearGradient></defs><g transform="translate(-16 -702)"><path class="b" d="M10,0H598a10,10,0,0,1,10,10V250a10,10,0,0,1-10,10H10A10,10,0,0,1,0,250V10A10,10,0,0,1,10,0Z" transform="translate(16 702)"/><g class="c" transform="translate(2 560)"><g class="d" transform="translate(442 51)"><circle class="i" cx="131.5" cy="131.5" r="131.5"/><circle class="j" cx="131.5" cy="131.5" r="106.5"/></g><g class="e" transform="translate(-87 294)"><circle class="i" cx="129.5" cy="129.5" r="129.5"/><circle class="j" cx="129.5" cy="129.5" r="104.5"/></g><g class="f" transform="translate(-187 194)"><circle class="i" cx="229.5" cy="229.5" r="229.5"/><circle class="j" cx="229.5" cy="229.5" r="199.5"/></g><path class="g" d="M304.68,0l304.68,424.137H0Z" transform="matrix(0.574, -0.819, 0.819, 0.574, -86.703, 376.628)"/><path class="h" d="M304.68,0l304.68,424.137H0Z" transform="matrix(0.559, -0.829, 0.829, 0.559, 77.625, 286.329)"/></g></g></svg>