<svg xmlns="http://www.w3.org/2000/svg" xmlns:xlink="http://www.w3.org/1999/xlink" width="355" height="391" viewBox="0 0 355 391"><defs><style>.a{fill:url(#a);}.b{fill:url(#b);}.c{fill:url(#c);}.d{clip-path:url(#d);}.e{fill:url(#e);}.f{clip-path:url(#f);}.g{fill:#1586c7;}.h{fill:#6a56bf;}.i,.r{fill:#0e2243;}.i{opacity:0.48;}.j{fill:#fff;}.k{fill:#929ba7;}.l{fill:url(#g);}.m{fill:#ccc;}.n{fill:#f5f7ff;}.o{fill:#e6e6e6;}.p{fill:#78c2ff;}.q{fill:#f3f3f3;}.r{opacity:0.24;}.s{fill:url(#h);}.t{fill:url(#i);}.u{fill:url(#j);}.v{fill:url(#k);}.w{fill:#eea886;}.x{fill:#db9c7c;}.y{fill:#323657;}.z{fill:#4da8f2;}.aa{fill:#efaa88;}.ab{fill:#424773;}.ac{fill:#292c47;}.ad{fill:#d88a51;}.ae{fill:#e2d2ca;}.af{fill:#dfe1e8;}.ag{fill:#de9673;}.ah{fill:#2f4563;}.ai{fill:#1e2d40;}.aj{fill:#23344a;}.ak{fill:#41608a;}.al{fill:#eea987;}.am{fill:#eb4747;}.an{fill:#464240;}.ao{fill:#a77860;}.ap{fill:#6e6760;}.aq{fill:#5c544d;}.ar{fill:#3c4145;}.as{fill:#33373b;}.at{fill:#fccca2;}.au{fill:#d6d6d6;}.av{fill:#c98462;}.aw{fill:#de9d7d;}.ax{fill:#1d3b54;}.ay{fill:#434343;}.az{fill:#cf8c6c;}.ba{fill:#eef0f7;}.bb{fill:#e0e0e0;}.bc{fill:#b8b8b8;}.bd{fill:#d9d9d9;}.be{fill:url(#l);}</style><linearGradient id="a" x1="0.092" y1="-0.196" x2="0.5" y2="1.132" gradientUnits="objectBoundingBox"><stop offset="0" stop-color="#fcfcfc"/><stop offset="1" stop-color="#1586c7"/></linearGradient><linearGradient id="b" x1="0.092" y1="-0.196" x2="0.5" y2="1.132" gradientUnits="objectBoundingBox"><stop offset="0" stop-color="#fcfcfc"/><stop offset="1" stop-color="#8264ff"/></linearGradient><linearGradient id="c" x1="0.092" y1="-0.196" x2="2.065" y2="3.508" xlink:href="#a"/><clipPath id="d"><rect class="a" width="355" height="339" rx="10" transform="translate(0 -0.147)"/></clipPath><linearGradient id="e" x1="-0.216" y1="1.266" x2="3.073" y2="-0.305" xlink:href="#a"/><clipPath id="f"><rect class="b" width="355" height="292" rx="10" transform="translate(0 -0.274)"/></clipPath><linearGradient id="g" y1="0.5" x2="1" y2="0.5" gradientUnits="objectBoundingBox"><stop offset="0" stop-color="#40d5e6"/><stop offset="1" stop-color="#57f"/></linearGradient><linearGradient id="h" x1="-24.056" y1="0.5" x2="-23.056" y2="0.5" xlink:href="#g"/><linearGradient id="i" x1="-32.154" y1="0.5" x2="-31.154" y2="0.5" xlink:href="#g"/><linearGradient id="j" x1="-0.038" y1="0.5" x2="0.962" y2="0.5" gradientUnits="objectBoundingBox"><stop offset="0" stop-color="#ff9340"/><stop offset="1" stop-color="#ffce45"/></linearGradient><linearGradient id="k" x1="-0.038" y1="0.5" x2="0.962" y2="0.5" gradientUnits="objectBoundingBox"><stop offset="0" stop-color="#c97332"/><stop offset="1" stop-color="#ffce45"/></linearGradient><linearGradient id="l" x1="1.11" y1="0.5" x2="0.09" y2="0.5" xlink:href="#g"/></defs><rect class="c" width="355" height="360" rx="10"/><g class="d" transform="translate(0 52.147)"><path class="e" d="M527,37.992V307.076H112.251v-69.94c70.518-30.968,127.75,36.753,161.493,17.437,20.019-11.449,22.175-44.878,29.193-66.373,4.41-13.483,10.58-26.667,20.714-35.478,11.978-10.425,27.19-12.458,41.359-16.307,20.346-5.527,38.952-19.123,51.751-38.326C444.439,56.566,483.287,23.7,527,37.992Z" transform="translate(-149.248 39.428)"/></g><g class="f" transform="translate(0 97.274)"><g transform="translate(66.918 44.609)"><g transform="translate(0 0)"><g transform="translate(18.506 75.349)"><path class="g" d="M428.732,707.927c3.462,7.556,5.408,14.7,2.858,17.894a4.136,4.136,0,0,1-.493.518c-1.964,1.73-5.826,1.769-12.346-.806-17.353-6.855-18.177-18.685-21.686-30.237-3.46-11.408-15.546-9.48-15.854-9.428C409.372,676.058,422.858,695.118,428.732,707.927Z" transform="translate(-381.21 -683.161)"/><g transform="translate(24.676 10.529)"><path class="g" d="M586.211,791.8a4.139,4.139,0,0,1-.493.518c-3.26-1.963-9.5-6.127-12.444-10.8a69.412,69.412,0,0,1-3.792-7.31c-2.335-4.963-4.754-10.095-8.975-14.031l.471-.507c4.317,4.029,6.762,9.221,9.127,14.245a67.569,67.569,0,0,0,3.753,7.234C576.727,785.706,583.034,789.885,586.211,791.8Z" transform="translate(-560.507 -759.667)"/></g></g><g transform="translate(42.215 59.227)"><path class="h" d="M574.282,609.991c-.2.5-.336.787-.351.819-.053-.277-.105-.553-.158-.819-2.315-11.862-5.411-13.1-14.693-23.477-9.492-10.612-4.034-20.5-4.034-20.5C586.849,575.2,576.443,604.688,574.282,609.991Z" transform="translate(-553.485 -566.016)"/><g transform="translate(9.293 12.389)"><path class="h" d="M632.514,687.619c-.2.5-.336.787-.351.819-.053-.277-.105-.553-.158-.819,1.03-10.254-5.156-22.287-7.1-24.446a22.649,22.649,0,0,1-3.719-6.469c-.079-.192-.153-.375-.177-.418l.448-.253c.039.07.091.2.205.479a22.113,22.113,0,0,0,3.625,6.315C627.752,665.565,633.459,677.655,632.514,687.619Z" transform="translate(-621.01 -656.033)"/></g></g><g transform="translate(231.909 36.145)"><g transform="translate(7.381 10.183)"><path class="g" d="M1989.519,480.406l-3.919-6.417a1.117,1.117,0,0,1,1.906-1.164l2.771,4.538,7.368-4.361a1.116,1.116,0,1,1,1.137,1.922Z" transform="translate(-1985.436 -472.29)"/></g><g transform="translate(0 0)"><path class="g" d="M1945.9,426.493A14.1,14.1,0,1,1,1960,412.4,14.111,14.111,0,0,1,1945.9,426.493Zm0-26.177a12.081,12.081,0,1,0,12.081,12.081A12.1,12.1,0,0,0,1945.9,400.317Z" transform="translate(-1931.809 -398.303)"/></g></g><g transform="translate(192.637 22.405)"><g transform="translate(4.561 6.293)"><path class="g" d="M1682.122,349.2l-2.422-3.966a.69.69,0,0,1,1.178-.719l1.713,2.8,4.553-2.695a.69.69,0,1,1,.7,1.187Z" transform="translate(-1679.599 -344.186)"/></g><g transform="translate(0)"><path class="g" d="M1655.168,315.884a8.71,8.71,0,1,1,8.711-8.711A8.72,8.72,0,0,1,1655.168,315.884Zm0-16.177a7.466,7.466,0,1,0,7.466,7.466A7.474,7.474,0,0,0,1655.168,299.707Z" transform="translate(-1646.458 -298.463)"/></g></g><path class="i" d="M401.279,294.806c.016,1.756,31.814,2.951,71.028,2.669,17.022-.123,32.642-.5,44.868-1.038,9.946-.726,13.692-.726,18.587-1.172,1.176-.092-1,.1,0,0,4.81-.463,7.515-.967,7.511-1.479-.016-1.756-31.815-2.952-71.023-2.67S401.263,293.051,401.279,294.806Z" transform="translate(-333.839 -81.069)"/><g transform="translate(144.063 1.729)"><g transform="translate(6.997 9.653)"><path class="g" d="M1348.222,226.066l-3.716-6.083a1.058,1.058,0,0,1,1.806-1.1l2.627,4.3,6.985-4.134a1.058,1.058,0,0,1,1.078,1.822Z" transform="translate(-1344.351 -218.373)"/></g><path class="g" d="M1306.876,174.958a13.362,13.362,0,1,1,13.362-13.362A13.377,13.377,0,0,1,1306.876,174.958Zm0-24.815a11.453,11.453,0,1,0,11.453,11.453A11.466,11.466,0,0,0,1306.876,150.143Z" transform="translate(-1293.514 -148.234)"/></g><g transform="translate(108.451 22.195)"><g transform="translate(4.623 6.378)"><path class="g" d="M1070.9,348.369l-2.455-4.02a.7.7,0,1,1,1.193-.729l1.736,2.842,4.615-2.732a.7.7,0,1,1,.712,1.2Z" transform="translate(-1068.345 -343.285)"/></g><path class="g" d="M1043.582,314.6a8.829,8.829,0,1,1,8.829-8.829A8.839,8.839,0,0,1,1043.582,314.6Zm0-16.4a7.568,7.568,0,1,0,7.568,7.568A7.576,7.576,0,0,0,1043.582,298.2Z" transform="translate(-1034.753 -296.939)"/></g><g transform="translate(72.151)"><g transform="translate(5.787 7.985)"><path class="j" d="M816.252,200.052l-3.073-5.032a.875.875,0,0,1,1.494-.913l2.173,3.558,5.778-3.42a.875.875,0,1,1,.892,1.507Z" transform="translate(-813.05 -193.688)"/></g><path class="j" d="M782.052,157.776A11.053,11.053,0,1,1,793.1,146.724,11.065,11.065,0,0,1,782.052,157.776Zm0-20.526a9.474,9.474,0,1,0,9.474,9.474A9.484,9.484,0,0,0,782.052,137.25Z" transform="translate(-770.999 -135.671)"/></g><g transform="translate(32.024 23.456)"><g transform="translate(6.416 8.852)"><path class="j" d="M529.608,377.48,526.2,371.9a.971.971,0,1,1,1.657-1.012l2.409,3.945,6.406-3.791a.971.971,0,1,1,.988,1.671Z" transform="translate(-526.058 -370.425)"/></g><path class="j" d="M491.691,330.611a12.254,12.254,0,1,1,12.254-12.253A12.268,12.268,0,0,1,491.691,330.611Zm0-22.757a10.5,10.5,0,1,0,10.5,10.5A10.515,10.515,0,0,0,491.691,307.854Z" transform="translate(-479.437 -306.104)"/></g><g transform="translate(223.259 7.381)"><g transform="translate(3.648 5.034)"><path class="g" d="M1897.486,229.885l-1.937-3.172a.552.552,0,0,1,.942-.575l1.37,2.243,3.642-2.156a.552.552,0,1,1,.563.95Z" transform="translate(-1895.468 -225.874)"/></g><path class="g" d="M1875.926,203.234a6.968,6.968,0,1,1,6.968-6.968A6.976,6.976,0,0,1,1875.926,203.234Zm0-12.94a5.972,5.972,0,1,0,5.972,5.972A5.979,5.979,0,0,0,1875.926,190.294Z" transform="translate(-1868.958 -189.299)"/></g><g transform="translate(131.421 151.383)"><rect class="k" width="19.218" height="58.37" transform="translate(19.218 58.37) rotate(180)"/></g><g transform="translate(58.058 62.435)"><path class="k" d="M58.533,0h48.879a58.532,58.532,0,0,1,58.532,58.532v0a58.533,58.533,0,0,1-58.533,58.533H58.532A58.532,58.532,0,0,1,0,58.533v0A58.533,58.533,0,0,1,58.533,0Z" transform="translate(165.944 117.065) rotate(180)"/></g><g transform="translate(64.557 49.976)"><rect class="j" width="152.946" height="111.179" transform="translate(152.946 111.179) rotate(180)"/></g><g transform="translate(64.557 49.976)"><rect class="l" width="152.946" height="13.428" transform="translate(152.946 13.428) rotate(180)"/></g><g transform="translate(198.891 164.197)"><path class="m" d="M1691.9,1334.083c0,2.957,2.818,5.353,6.294,5.353s6.294-2.4,6.294-5.353-2.818-5.353-6.294-5.353S1691.9,1331.127,1691.9,1334.083Z" transform="translate(-1691.895 -1328.73)"/></g><rect class="k" width="86.457" height="4.406" transform="translate(97.801 207.55)"/><rect class="n" width="21.814" height="5.074" rx="2.537" transform="translate(70.945 54.153)"/><rect class="o" width="80.077" height="2.753" transform="translate(75.763 110.192)"/><rect class="o" width="59.392" height="2.752" transform="translate(75.763 115.15)"/><rect class="o" width="37.659" height="2.753" transform="translate(75.763 125.922)"/><rect class="o" width="67.658" height="2.753" transform="translate(75.763 130.879)"/><rect class="o" width="63.381" height="2.752" transform="translate(75.763 142.725)"/><rect class="o" width="77.395" height="2.753" transform="translate(75.763 147.682)"/><rect class="p" width="2.012" height="7.71" transform="translate(71.855 110.192)"/><rect class="p" width="2.012" height="7.71" transform="translate(71.855 125.922)"/><rect class="p" width="2.012" height="7.71" transform="translate(71.855 142.725)"/><g transform="translate(173.713 142.877)"><g transform="translate(0)"><path class="p" d="M5.515,0h0a5.514,5.514,0,0,1,5.514,5.514v0a5.515,5.515,0,0,1-5.515,5.515h0A5.515,5.515,0,0,1,0,5.515v0A5.515,5.515,0,0,1,5.515,0Z"/></g><g transform="translate(2.189 3.085)"><path class="q" d="M1527.829,1201.1l-2.788-2.431a.549.549,0,0,1,.722-.828l1.972,1.719,2.812-3.136a.549.549,0,0,1,.818.733Z" transform="translate(-1524.853 -1196.24)"/></g></g><g transform="translate(173.707 126.069)"><g transform="translate(0)"><path class="p" d="M1517.438,1062.732h-6.013a2.516,2.516,0,0,1-2.513-2.514v-6.012a2.516,2.516,0,0,1,2.513-2.514h6.013a2.516,2.516,0,0,1,2.513,2.514v6.012A2.516,2.516,0,0,1,1517.438,1062.732Zm-6.013-10.34a1.816,1.816,0,0,0-1.813,1.814v6.012a1.815,1.815,0,0,0,1.813,1.814h6.013a1.815,1.815,0,0,0,1.813-1.814v-6.012a1.816,1.816,0,0,0-1.813-1.814Z" transform="translate(-1508.912 -1051.692)"/></g></g><g transform="translate(190.313 142.872)"><g transform="translate(0)"><path class="p" d="M1638.1,1184.823h-6.013a2.516,2.516,0,0,1-2.514-2.514V1176.3a2.517,2.517,0,0,1,2.514-2.513h6.013a2.516,2.516,0,0,1,2.513,2.513v6.013A2.516,2.516,0,0,1,1638.1,1184.823Zm-6.013-10.34a1.816,1.816,0,0,0-1.814,1.813v6.013a1.816,1.816,0,0,0,1.814,1.814h6.013a1.815,1.815,0,0,0,1.813-1.814V1176.3a1.815,1.815,0,0,0-1.813-1.813Z" transform="translate(-1629.568 -1173.783)"/></g></g><g transform="translate(190.319 126.075)"><g transform="translate(0)"><path class="p" d="M5.515,0h0a5.515,5.515,0,0,1,5.515,5.515v0a5.515,5.515,0,0,1-5.515,5.515h0A5.515,5.515,0,0,1,0,5.515v0A5.515,5.515,0,0,1,5.515,0Z"/></g><g transform="translate(2.189 3.085)"><path class="q" d="M1648.49,1079.009l-2.788-2.431a.549.549,0,0,1,.722-.828l1.972,1.719,2.812-3.136a.549.549,0,1,1,.818.733Z" transform="translate(-1645.513 -1074.15)"/></g></g><g transform="translate(190.313 109.266)"><g transform="translate(0)"><path class="p" d="M1638.1,940.644h-6.013a2.516,2.516,0,0,1-2.514-2.514v-6.013a2.517,2.517,0,0,1,2.514-2.514h6.013a2.516,2.516,0,0,1,2.513,2.514v6.013A2.516,2.516,0,0,1,1638.1,940.644Zm-6.013-10.34a1.816,1.816,0,0,0-1.814,1.814v6.013a1.816,1.816,0,0,0,1.814,1.814h6.013a1.815,1.815,0,0,0,1.813-1.814v-6.013a1.815,1.815,0,0,0-1.813-1.814Z" transform="translate(-1629.568 -929.604)"/></g></g><path class="r" d="M401.279,296.728c0,2.66,8.2,4.47,18.3,4.043a57.543,57.543,0,0,0,11.558-1.573c2.562-1.1,3.527-1.1,4.788-1.775.3-.14-.258.146,0,0,1.239-.7,1.936-1.465,1.935-2.241,0-2.66-8.2-4.472-18.3-4.044S401.275,294.068,401.279,296.728Z" transform="translate(-393.262 -84.386)"/><g transform="translate(173.713 109.272)"><g transform="translate(0)"><path class="p" d="M5.515,0h0a5.514,5.514,0,0,1,5.514,5.514v0a5.514,5.514,0,0,1-5.514,5.514h0A5.515,5.515,0,0,1,0,5.515v0A5.515,5.515,0,0,1,5.515,0Z"/></g><g transform="translate(2.189 3.085)"><path class="q" d="M1527.829,956.92l-2.788-2.431a.549.549,0,0,1,.722-.828l1.972,1.719,2.812-3.136a.549.549,0,1,1,.818.733Z" transform="translate(-1524.853 -952.062)"/></g></g><g transform="translate(0 124.275)"><path class="h" d="M414.264,1038.787c-2.6-1.245-5.2,7.044-5.2,7.044-4.425,5.848-10.61-1.932-10.005,6.81,1.058,15.3-17.607,4.81-9,20.78s-7.6,9.03-2.252,21.907-1.585,28.236,6.467,21.924c0,0,7.09-15.547,14.4-20.357s-4.38-10.518-2.093-17.051c3.323-9.489,11.328-9.117,5.556-19.314S423.115,1043.021,414.264,1038.787Z" transform="translate(-367.444 -1038.66)"/><g transform="translate(23.957 16.217)"><path class="j" d="M421.15,1213.019c3.49-2.455,7.575-19.56,7.819-29.748.125-5.219,1.668-7.393,3.029-9.312,1.3-1.833,2.425-3.417,1.77-7.053-1.251-6.949,2.038-9.948,2.071-9.978l-.381-.434c-.146.128-3.571,3.222-2.259,10.514.612,3.4-.4,4.818-1.673,6.617-1.339,1.888-3.006,4.236-3.135,9.632-.262,10.934-4.438,27.084-7.574,29.29Z" transform="translate(-420.818 -1156.494)"/></g><g transform="translate(0 39.747)"><path class="s" d="M263.721,1355.465c-.329-.747-.67-1.519-1.056-2.334-1.994-4.209-3.76-4.9-6.686-6.05-.715-.281-1.525-.6-2.415-1-4.192-1.884-3.38-4.66-2.664-7.109.1-.343.2-.685.287-1.022.369-1.441-.34-2.163-1.412-3.257a12.229,12.229,0,0,1-2.553-3.423c-.837-1.749-.41-2.687.095-3.166,1.063-1.008,3.515-.822,5.83.442h0a8.432,8.432,0,0,1,1.938,1.668,9.6,9.6,0,0,0,7.957,3.491c2.649.012,4.1.378,4.851,1.222.853.958.692,2.393.469,4.378-.077.687-.164,1.465-.217,2.306a13.451,13.451,0,0,0,2.675,8.671c1.769,2.107,3.949,6.478,3.008,9.169a3.22,3.22,0,0,1-2.622,2.109,7.448,7.448,0,0,1-1.476.16C266.483,1361.723,265.293,1359.028,263.721,1355.465Zm-10.851-26.411c-2.067-1.128-4.284-1.356-5.156-.529-.663.628-.35,1.7.029,2.5a11.572,11.572,0,0,0,2.445,3.268c1.122,1.144,2.008,2.049,1.558,3.8-.088.344-.19.692-.292,1.041-.713,2.439-1.386,4.742,2.347,6.42.877.394,1.68.709,2.389.988,2.954,1.159,4.905,1.925,7,6.34.389.822.732,1.6,1.063,2.348,1.806,4.092,2.9,6.562,6.843,5.764a2.679,2.679,0,0,0,2.191-1.734c.829-2.371-1.155-6.522-2.906-8.608a13.787,13.787,0,0,1-2.808-9.078c.054-.855.142-1.641.22-2.334.206-1.837.355-3.164-.327-3.93-.623-.7-1.987-1.018-4.422-1.029a10.1,10.1,0,0,1-8.372-3.669,7.9,7.9,0,0,0-1.8-1.561Z" transform="translate(-246.748 -1327.459)"/></g><g transform="translate(4.477 44.356)"><path class="t" d="M299.2,1393.938l.576-.03c-.028-.541-.756-13.307-5.881-17.043a20.512,20.512,0,0,1-8.24-11.46c-1-3.484-6.059-4.415-6.274-4.453l-.1.568c.049.009,4.924.907,5.819,4.043a21.062,21.062,0,0,0,8.455,11.768C298.458,1380.907,299.191,1393.808,299.2,1393.938Z" transform="translate(-279.278 -1360.952)"/></g><path class="g" d="M312.717,1132.273c3.643-1.249,2.886,5.772,4.425,10.967s17.125,2.266,10.583,15.275,8.274,4.351,3.848,15.7-.385,23.494-5.2,20.405-2.7-17.384-7.705-19.082-5.819-3.68-.866-8.3-12.979-9.2-8.554-18.527S308.508,1133.716,312.717,1132.273Z" transform="translate(-300.04 -1119.263)"/><g transform="translate(14.509 29.294)"><path class="j" d="M361.77,1297.035c.458-1.944,4.371-19.046.72-21.113-3.218-1.822-3.138-8.909-2.636-15.6.444-5.924-7.164-8.693-7.488-8.808l-.193.544c.075.027,7.517,2.737,7.105,8.22-.515,6.873-.571,14.166,2.928,16.147,2.772,1.57.22,15.315-1,20.478Z" transform="translate(-352.173 -1251.513)"/></g><path class="u" d="M383.762,1538.03l-5.2,19.733H366.938l-5.2-19.733Z" transform="translate(-345.911 -1469.303)"/><path class="v" d="M383.762,1538.029s-11.45,2.15-11.45,19.733h-5.374l-5.2-19.733Z" transform="translate(-345.911 -1469.303)"/></g><g transform="translate(125.192 130.278)"><g transform="translate(0.031 49.156)"><path class="w" d="M1160.344,1439.918a3.475,3.475,0,0,1,.45,1.191,5.707,5.707,0,0,0,.55,1.407,13.371,13.371,0,0,1,.668,2.345,10.81,10.81,0,0,0-.315,1.569c.053.339.248,1.012-.057,1.057s-.65-.507-.65-.507a.448.448,0,0,1-.229.432.756.756,0,0,1-.767.028s-.185.344-.417.39a.944.944,0,0,1-.763-.1.924.924,0,0,1-.579.186.76.76,0,0,1-.643-.4s-.573.116-.74-.151a2.566,2.566,0,0,1-.206-.8,9.261,9.261,0,0,1,.727-4.007,3.55,3.55,0,0,0-.189-3.113Z" transform="translate(-1156.622 -1439.446)"/></g><g transform="translate(0 53.591)"><path class="x" d="M1160.878,1474.564s.051-1.964-.466-2.382-.576.291-.576.291.07-.7-.495-.795-.589.737-.589.737a.546.546,0,0,0-.686-.429c-.593.111-.452.8-.452.8s-.567-.676-.934-.027a2.894,2.894,0,0,0-.022,2.391s.175.3.74.152a.78.78,0,0,0,1.222.214s.865.476,1.18-.287A.716.716,0,0,0,1160.878,1474.564Z" transform="translate(-1156.4 -1471.67)"/></g><path class="y" d="M1167.624,1208.572s-3.362,11.2-4.5,15.338c-.356,1.3-1.219,13.675-1.37,14.173s-4.417,1.181-4.417,1.181.517-15.486.565-16.33,4.705-18.138,6.059-18.755c1.015-.462,1.55-.08,2.829.869A2.992,2.992,0,0,1,1167.624,1208.572Z" transform="translate(-1157.21 -1187.233)"/><g transform="translate(43.199 0.607)"><rect class="z" width="9.197" height="0.683" transform="translate(0 5.036) rotate(-33.204)"/></g><path class="aa" d="M1499.419,1093.012a2.009,2.009,0,0,1-.2.61s-.252.3-.418.525a1.874,1.874,0,0,0-.121.179,3.673,3.673,0,0,1-.636.988c-.366.372-1.794,1.554-1.794,1.554l-1.223-1.038-1.27-.569a23.911,23.911,0,0,1,1.012-3.476c.03-.038.061-.074.092-.105a4.69,4.69,0,0,1,.8-.547c.062-.051.715-.522.949-.461a.786.786,0,0,1,.587.49,1.878,1.878,0,0,1,.869.559,1.17,1.17,0,0,1,.756.7S1499.394,1092.647,1499.419,1093.012Z" transform="translate(-1447.33 -1089.509)"/><g transform="translate(3.659 97.568)"><path class="ab" d="M1187.016,1791.483s-.306,2.127-.345,2.447-3.409-.188-3.409-.188l-.273-2.532S1186.595,1791.183,1187.016,1791.483Z" transform="translate(-1182.989 -1791.209)"/></g><g transform="translate(3.133 99.875)"><path class="ac" d="M1183.406,1808.112a9.1,9.1,0,0,0,2.1,1.84c1.033.559,2.656.78,3.267,1.358.441.418,1.606,2.215-2.684,2.178s-6.358.254-6.818-.435.665-5.086.665-5.086A9.081,9.081,0,0,0,1183.406,1808.112Z" transform="translate(-1179.161 -1807.968)"/></g><g transform="translate(27.811 97.568)"><path class="ab" d="M1362.5,1791.483s-.307,2.127-.345,2.447-3.409-.188-3.409-.188l-.273-2.532S1362.082,1791.183,1362.5,1791.483Z" transform="translate(-1358.477 -1791.209)"/></g><g transform="translate(27.284 99.875)"><path class="ac" d="M1358.893,1808.112a9.1,9.1,0,0,0,2.1,1.84c1.033.559,4.834,1.018,5.445,1.6.441.417,1.174,2.1-4.862,1.941-4.289-.112-6.359.254-6.818-.435s.665-5.086.665-5.086A8.253,8.253,0,0,0,1358.893,1808.112Z" transform="translate(-1354.648 -1807.968)"/></g><g transform="translate(3.133 43.186)"><path class="ac" d="M1186.506,1396.065s-3.167,5.032-2.931,9.581-1.148,9.515-1.624,14.266c-.53,5.3-2.7,17.838-2.78,20.671s.337,11.882.337,11.882l4.345.1s3.649-21.924,4.594-24.161,5.632-18.185,5.79-19.975S1186.506,1396.065,1186.506,1396.065Z" transform="translate(-1179.161 -1396.065)"/></g><g transform="translate(8.883 42.319)"><path class="ac" d="M1239.214,1391.315s2.387,12.467,2.7,15.251.525,13.473.682,15.213,1.471,22.717,1.89,25.354h-5.555s-4.264-15.287-4.264-22.521-3.294-15.725-5.421-20.5-6.994-4.885-8.3-13.74C1220.947,1390.376,1237.444,1388.507,1239.214,1391.315Z" transform="translate(-1220.947 -1389.767)"/></g><g transform="translate(13.102 0.49)"><path class="w" d="M1254.259,1086.224s4.251-1.588,6.212,1.648,1.771,9.715-.371,10.511-5.362.38-6.459-1.645a16.217,16.217,0,0,1-2.04-6.909A4.263,4.263,0,0,1,1254.259,1086.224Z" transform="translate(-1251.598 -1085.834)"/></g><g transform="translate(14.313 9.152)"><path class="w" d="M1267.225,1152.809a3.677,3.677,0,0,0,.116,1.713c.292.565-5.507.58-5.507.58a38.228,38.228,0,0,0-1.364-5.674C1259.577,1146.83,1267.225,1152.809,1267.225,1152.809Z" transform="translate(-1260.397 -1148.774)"/></g><g transform="translate(12.748)"><path class="ad" d="M1250.666,1092.082s.4.661,2.034.4,3.628-2.43,4.31-2.669.689-.64.689-.64l.427.624.725.046s-.661-1.945.336-2.738-1.035-6.294-6.275-4.463c0,0-4.025,1.109-3.879,3.4S1249.765,1090.943,1250.666,1092.082Z" transform="translate(-1249.029 -1082.276)"/></g><g transform="translate(15.087 13.243)"><path class="ae" d="M1272.534,1180.088s-.018-1.08-.508-1.184-5.4-.576-6.006-.34v1.258S1267.178,1180.535,1272.534,1180.088Z" transform="translate(-1266.02 -1178.499)"/></g><g transform="translate(19.782 5.235)"><path class="w" d="M1301.667,1121.149c-.092-.384-1.068-1.481-1.442-.306s.565,2.755,1.088,2.62S1301.9,1122.123,1301.667,1121.149Z" transform="translate(-1300.139 -1120.315)"/></g><g transform="translate(5.916 5.211)"><path class="y" d="M1223.2,1131.394c-3.37-.444-8.13-1.636-8.13-1.636l-6.514-.266a63.394,63.394,0,0,0-8.333,2.379c-.223.1-.224,5.334-.837,6.706l1.952,4.118s1.128,8.158,1.362,11.786c.108,1.666-2.326,15.618-2.326,15.618a44.983,44.983,0,0,0,7.053,1.258c4.446.49,15.554-.177,15.624-.7s-2.151-19.553-2.25-20.538c-.151-1.512.521-9.549.521-9.549,1.026-.8,10.039-4.98,12.5-7.16.658-.584,3.436-3.288,4.225-4.222a75.843,75.843,0,0,0,5.366-6.753c.317-.348-3.109-2.194-3.414-2.3-.266-.089-3.974,4.831-5.428,6.406a40.761,40.761,0,0,1-3.345,2.664S1225.311,1131.516,1223.2,1131.394Z" transform="translate(-1199.388 -1120.138)"/></g><g transform="translate(12.093 1.261)"><path class="ad" d="M1246.724,1091.439s-5.421.424-.167,8.545Z" transform="translate(-1244.265 -1091.439)"/></g><path class="af" d="M1526.573,1086.584l.445-.678-.819.107Z" transform="translate(-1475.305 -1085.406)"/></g><g transform="translate(44.891 133.872)"><path class="ag" d="M736.641,1364.781a13.487,13.487,0,0,1,3.376.57c.739.411,5.725-1.16,5.817-1.523a.819.819,0,0,0,0-.541h-9.788Z" transform="translate(-713.597 -1328.206)"/><g transform="translate(5.152 24.462)"><path class="ag" d="M616.419,1286.615s-.841,6.611,0,7.477c3.214,3.309,15.124,3.047,15.124,3.047l0,1.346s-18.1,2.258-19.786-1.253c-2.021-4.219-1.237-11.1-1.237-11.1Z" transform="translate(-610.365 -1286.131)"/></g><g transform="translate(2.725 91.351)"><path class="ah" d="M595.235,1775.4l1.076-1.226-1.942-2.031-1.64,1.148Z" transform="translate(-592.729 -1772.146)"/></g><g transform="translate(0.117 92.499)"><path class="ai" d="M576.382,1780.489a13.72,13.72,0,0,0,2.832,1.737c.616.067.907.342.834,1.281s.9,4.894,1.579,4.957,2.988.076,3.408,1.6-7.329,1.2-7.809-.046-3.815-7.3-3.42-7.79A4.75,4.75,0,0,1,576.382,1780.489Z" transform="translate(-573.773 -1780.489)"/></g><g transform="translate(3.9 43.87)"><path class="aj" d="M614.307,1428.468s14.476,25.217,8.6,30.434c-2.3,2.046-4.523,3.9-7.711,6.635a78.633,78.633,0,0,0-6.167,5.667l-.1.106c-1.73,1.8-3.158,3.328-3.6,3.8-.016.016-.029.03-.042.044l-.049.052-1.611,1.537-2.364-2.078a70.05,70.05,0,0,0,4.191-6.556c2.121-4,5.684-8.7,7.333-10.006,2.824-2.245,3.6-2.686,3.6-4.833,0-2.3-13.268-15.165-13.268-15.165s-1.925-8.05,2.673-10.157A9.495,9.495,0,0,1,614.307,1428.468Z" transform="translate(-601.264 -1427.152)"/></g><path class="ak" d="M595.734,1809.513a7.176,7.176,0,0,1,.1-1.9c.2-.743-3-.316-3-.316a27.725,27.725,0,0,0-.292,3.812C592.669,1811.815,595.734,1809.513,595.734,1809.513Z" transform="translate(-589.831 -1711)"/><g transform="translate(1.933 44.245)"><path class="ah" d="M591.54,1482.241l-4.306.776s-.31-5.494-.254-9.7c.06-4.525-.167-8.082,1.214-11.683,1.293-3.368,1-4.652,1.111-6.951s-1.1-14.141-1.1-14.141-1.471-5.3,1.934-9.042c3.317-3.645,11.9-.015,11.9-.015s-1.788,16.177-6.08,26.184c-1.215,2.832-.558,4.552-2.108,8.928C593.847,1466.593,591.494,1476.135,591.54,1482.241Z" transform="translate(-586.973 -1429.873)"/></g><g transform="translate(4.51 10.622)"><path class="al" d="M611.433,1188.814a4.976,4.976,0,0,0-.51,1.384,11.815,11.815,0,0,0-.236,1.477,17.252,17.252,0,0,0-.087,1.881s-5.744-1.25-4.8-2.589.388-5.4.388-5.4S612.177,1187.562,611.433,1188.814Z" transform="translate(-605.695 -1185.568)"/></g><g transform="translate(3.412 1.787)"><path class="w" d="M607.787,1122.391s1.47,1.277.813,4.955c0,0,.325,2.93.773,3.441s-1.2.7-1.378,1.068a7.308,7.308,0,0,1-1.655,3.128c-1.152,1.038-6.857-2.091-7.135-3.859s-4.231-9.345,2.026-9.692S607.787,1122.391,607.787,1122.391Z" transform="translate(-597.719 -1121.374)"/></g><g transform="translate(3.004 16.267)"><path class="am" d="M609.163,1240.263c-.117.369.322,6.029.282,6.517a37.4,37.4,0,0,0,.745,8.2c.065.345.1.52.1.52-6.2,3.033-14.828,2.768-14.828,2.768.031-.235,1.235-3.149,1.266-3.372.511-3.641,1.265-5.3,1.06-7.766h0a15.4,15.4,0,0,0-1.2-4.622,21.143,21.143,0,0,1-1.648-11.463,14,14,0,0,1,1.2-4.464l5.24.563c1.112,1.232,2.1,1.889,5.263,4.694C610.005,1234.827,610.594,1235.734,609.163,1240.263Z" transform="translate(-594.751 -1226.584)"/></g><g transform="translate(2.194 98.184)"><path class="aj" d="M589.2,1822.914s3.031-.861,3.12-.946.11-.268.528-.1.591.8,1,1,2.911.932,4.281,1.606c.5.244,2.59,1.042,2.892,1.71s.208,1.67-3.392,1.432-7.538.27-8.327-.124S589,1823.956,589.2,1822.914Z" transform="translate(-588.871 -1821.799)"/></g><g transform="translate(3.284)"><path class="an" d="M607.953,1114.827s.7-7.638-6.7-6.274-3.589,9.712-2.591,12.433c0,0-.121-4.226,3.445-4.364A9.74,9.74,0,0,0,607.953,1114.827Z" transform="translate(-596.788 -1108.389)"/></g><g transform="translate(6.207 6.764)"><path class="al" d="M619.844,1157.936a1.021,1.021,0,0,0-1.8.819c.175,1.181,1.4,2.36,1.806,1.789A2.291,2.291,0,0,0,619.844,1157.936Z" transform="translate(-618.03 -1157.54)"/></g><g transform="translate(3.004 21.524)"><path class="al" d="M599.937,1265.424s-.61,6.544.231,7.41c3.214,3.31,15.893,3.373,15.893,3.373l.606,1.9s-18.847,1.283-20.529-2.228c-2.021-4.219-1.237-11.1-1.237-11.1Z" transform="translate(-594.751 -1264.781)"/></g><path class="an" d="M578.326,1116.245s-2.852-2.736-4.88.363,2.409,7.423,4.207,4.856A5.717,5.717,0,0,0,578.326,1116.245Z" transform="translate(-572.927 -1114.202)"/><path class="ao" d="M621.306,1206.373a11.817,11.817,0,0,0-.236,1.477c-1.908-.87-3.335-3.527-3.335-3.527a14.7,14.7,0,0,0,3.571,2.049Z" transform="translate(-611.568 -1191.12)"/><rect class="ap" width="17.976" height="1.004" transform="translate(19.025 34.852)"/><rect class="ap" width="17.976" height="1.004" transform="translate(36.105 35.404) rotate(-63.225)"/><path class="al" d="M726.633,1342.711a10.858,10.858,0,0,0,3.376-.726c.739-.523,5.725,1.477,5.817,1.939a1.312,1.312,0,0,1,0,.689h-9.788Z" transform="translate(-704.966 -1309.761)"/><path class="am" d="M604.848,1220.3l.369-1,5.032,1v.891Z" transform="translate(-600.455 -1204.038)"/><g transform="translate(3.152 18.106)"><path class="al" d="M600.858,1244.1s.54-3.793-2.1-4.126-2.93,3.411-2.93,3.411Z" transform="translate(-595.827 -1239.949)"/></g></g><g transform="translate(184.945 129.268)"><g transform="translate(40.149 98.082)"><path class="aq" d="M1882.288,1787.881s.306,2.147.345,2.47,3.409-.19,3.409-.19l.272-2.556S1882.71,1787.578,1882.288,1787.881Z" transform="translate(-1882.288 -1787.604)"/></g><g transform="translate(34.61 100.41)"><path class="ar" d="M1847.885,1804.666a9.13,9.13,0,0,1-2.1,1.858c-1.033.564-2.656.787-3.266,1.371-.441.421-1.606,2.236,2.683,2.2s6.358.256,6.817-.439-.665-5.134-.665-5.134A8.994,8.994,0,0,1,1847.885,1804.666Z" transform="translate(-1842.037 -1804.521)"/></g><g transform="translate(16.002 98.082)"><path class="aq" d="M1706.83,1787.881s.306,2.147.345,2.47,3.408-.19,3.408-.19l.273-2.556S1707.251,1787.578,1706.83,1787.881Z" transform="translate(-1706.83 -1787.604)"/></g><g transform="translate(8.481 100.41)"><path class="ar" d="M1660.013,1804.666a9.113,9.113,0,0,1-2.1,1.858c-1.033.564-4.833,1.027-5.444,1.611-.441.421-1.174,2.117,4.861,1.959,4.288-.113,6.358.256,6.817-.439s-.665-5.134-.665-5.134A8.168,8.168,0,0,1,1660.013,1804.666Z" transform="translate(-1652.183 -1804.521)"/></g><g transform="translate(29.627 42.927)"><path class="as" d="M1815.154,1386.85a31.748,31.748,0,0,1,1.558,9.919c-.236,4.591.928,9.616,1.4,14.412.53,5.347,2.7,18.006,2.779,20.866s-.336,11.994-.336,11.994l-4.345.1s-3.648-22.131-4.594-24.389-5.631-18.357-5.788-20.163S1815.154,1386.85,1815.154,1386.85Z" transform="translate(-1805.829 -1386.85)"/></g><g transform="translate(15.415 42.312)"><path class="ar" d="M1707.838,1383.944s-2.386,12.584-2.7,15.395-.525,13.6-.682,15.356-1.05,22.984-1.89,25.593h5.554s4.263-15.431,4.263-22.733,3.294-15.873,5.42-20.69,6.993-4.932,8.3-13.869C1726.1,1383,1709.608,1381.109,1707.838,1383.944Z" transform="translate(-1702.564 -1382.38)"/></g><g transform="translate(24.179 0.466)"><path class="w" d="M1774.042,1078.725s-4.378-1.635-6.4,1.7-1.824,10,.382,10.825,5.522.391,6.651-1.694a16.7,16.7,0,0,0,2.1-7.115A4.39,4.39,0,0,0,1774.042,1078.725Z" transform="translate(-1766.245 -1078.324)"/></g><g transform="translate(26.571 9.151)"><path class="w" d="M1783.751,1145.461a3.675,3.675,0,0,1-.115,1.713c-.292.565,5.507.58,5.507.58a38.245,38.245,0,0,1,1.363-5.673C1791.4,1139.484,1783.751,1145.461,1783.751,1145.461Z" transform="translate(-1783.625 -1141.427)"/></g><g transform="translate(24.687)"><path class="at" d="M1778.7,1084.744s-.4.66-2.034.4-3.627-2.43-4.309-2.668-.688-.64-.688-.64l-.427.624-.725.046s.661-1.944-.336-2.737,1.035-6.294,6.275-4.462c0,0,4.024,1.109,3.878,3.4S1779.6,1083.6,1778.7,1084.744Z" transform="translate(-1769.936 -1074.939)"/></g><g transform="translate(26.237 13.241)"><path class="ae" d="M1781.2,1172.735s.018-1.08.508-1.184,5.4-.576,6-.34v1.259S1786.557,1173.182,1781.2,1172.735Z" transform="translate(-1781.202 -1171.146)"/></g><g transform="translate(26.399 5.234)"><path class="w" d="M1782.508,1113.806c.092-.384,1.068-1.481,1.442-.306s-.565,2.755-1.088,2.619S1782.276,1114.779,1782.508,1113.806Z" transform="translate(-1782.38 -1112.972)"/></g><g transform="translate(8.008 14.564)"><path class="am" d="M1666.979,1181.029s-2.694.969-5.815,2.295a6.551,6.551,0,0,0-3.979,5.3c-.206,2.1-2.447,13.273-2.867,14.218s-5.388,16.126-5.563,16.441,4.055,2.071,4.335,1.931,4.811-13.846,5.266-14.861c0,0,2.608-8.218,2.678-9.443,0,0,.075,3.492.215,4.472s-2.319,20.009-2.249,20.534,11.176,1.192,15.621.7a54.438,54.438,0,0,0,8.032-1.513s-3.5-15.018-3.39-16.683c.234-3.628,1.446-10.461,1.446-10.461l3.624,6.833-4.639,11.936,1.063,3.628s8.621-13.027,8.9-14.218-.422-2.706-.878-3.686-3.443-8.439-4.144-9.489-1.883-5.255-4.742-6.425a44.671,44.671,0,0,0-6.4-1.78Z" transform="translate(-1648.75 -1180.764)"/></g><g transform="translate(0 40.591)"><rect class="au" width="20.966" height="14.627" transform="matrix(0.969, 0.248, -0.248, 0.969, 3.633, 0)"/></g><g transform="translate(5.415 56.185)"><path class="av" d="M1630.738,1483.184s-.581.938-.792,1.205.521.435.835.165S1630.738,1483.184,1630.738,1483.184Z" transform="translate(-1629.907 -1483.184)"/></g><g transform="translate(6.199 52.772)"><path class="aw" d="M1639.878,1465a2.254,2.254,0,0,0,.417-.587s.1-.427.193-.727a2.2,2.2,0,0,1,.08-.229,4.124,4.124,0,0,0,.464-1.234c.09-.578.343-3.177.343-3.177l-1.573-.4-1.264-.267a25.89,25.89,0,0,0-2.876,3.253,1.477,1.477,0,0,0-.033.153,5.265,5.265,0,0,0,.039,1.083c0,.09.009.994.219,1.163a.884.884,0,0,0,.834.2,2.11,2.11,0,0,0,1.086.408,1.311,1.311,0,0,0,1.138.212S1639.533,1465.218,1639.878,1465Z" transform="translate(-1635.603 -1458.38)"/></g><g transform="translate(8.014 41.306)"><path class="am" d="M1657.391,1376.717s-3.6,10.917-4.267,12.062a11.891,11.891,0,0,1-4.335-1.931l3.958-11.781Z" transform="translate(-1648.789 -1375.067)"/></g></g><g transform="translate(237.781 132.38)"><g transform="translate(39.612 49.863)"><path class="ax" d="M2263.5,1462.868s-.146-2.514-.812-2.9-.281.388-.281.388.374,1.824.456,2.564A3.794,3.794,0,0,0,2263.5,1462.868Z" transform="translate(-2262.296 -1459.854)"/></g><path class="ay" d="M2142.255,1097.555s6.25-.52,6.08,6.056-1.213,7.565,0,12.211-6.094-2.639-6.094-2.639Z" transform="translate(-2119.155 -1097.545)"/><path class="al" d="M2005.589,1208.585s-8.854,5.525-9.6,4.937c-1.047-.821-3.892-7.831-3.892-7.831l-2.228,1.06s2.658,12.12,6.238,11.227,11.8-5.976,11.8-5.976Z" transform="translate(-1987.747 -1190.808)"/><path class="al" d="M2110.813,1386.544a28.8,28.8,0,0,1,3.114,4.875c.813,1.941,2.166,6.195,1.986,9.489s-1.263,9.478-.948,10.878.632,4.288.97,5.281a22.953,22.953,0,0,1,1.828,6.861c.135,2.979-1.9,16.068-1.805,17.286s-2.3.5-2.3.5-.812-11.825-1.263-13.856-.993-8.937-1.4-9.433a23.08,23.08,0,0,1-1.345-6.454c.171-.812-4.432-13-4.7-15.436s-7.059-9.986-7.059-9.986A21.1,21.1,0,0,1,2110.813,1386.544Z" transform="translate(-2080.902 -1345.901)"/><path class="al" d="M2073.292,1381.783a13.917,13.917,0,0,1-.253,1.681c-.136.451-3.25,11.96-3.566,16.384a87.252,87.252,0,0,1-1.263,9.12,19.573,19.573,0,0,0,.406,4.917c.271.813-1.354,19.995-1.49,20.446s1.084.587,1.941.452,5.19-14.082,4.919-16.429-.542-7.351.226-9.385,7.673-16.748,7.718-17.65S2084.918,1374.866,2073.292,1381.783Z" transform="translate(-2054.366 -1341.14)"/><path class="al" d="M2199.079,1779.721a9.663,9.663,0,0,1-.465,1.983c-.243.425-.911,2.59-1.214,2.995s-.971,3.44,0,3.8,3.258.972,4.027-.243a4.993,4.993,0,0,0,.749-3.359c-.122-.931-1.045-5.2-1.032-5.626S2199.079,1779.721,2199.079,1779.721Z" transform="translate(-2166.281 -1685.352)"/><path class="am" d="M2195.941,1813.3s-.1,2.359,1.677,2.359,2.57-2.146,2.57-2.146.607,1.053,0,3.3-3.136,1.781-3.7,1.7S2193.232,1817.719,2195.941,1813.3Z" transform="translate(-2164.436 -1714.792)"/><path class="am" d="M2019.109,1767.846a11.2,11.2,0,0,1-2.006,2.708c-.932.568-2.74,2.392-3.371,2.476s-2.9.487-2.463,1.769c.359,1.05,5.774.9,6.385.374s2.437-2.416,3.173-2.374.464,2.725.464,2.725h.8s.279-2.61.313-3.059c.1-1.328-.848-2.305-.89-3.063s-.086-1.324-.086-1.324Z" transform="translate(-2006.156 -1675.595)"/><path class="al" d="M2030.832,1772.105a4.315,4.315,0,0,0,3.158-.173c1.374-.79,4.01-1.989,4.942-2,0,0-.508-1.555-.519-1.729s-.066-.993-.066-.993l-2.3-.369a19.982,19.982,0,0,1-2.154,2.712A37.323,37.323,0,0,0,2030.832,1772.105Z" transform="translate(-2023.076 -1674.732)"/><path class="am" d="M2078.731,1389.477s-.643,2.674-.881,3.453-1.757,12.857-2.132,20.412a59.18,59.18,0,0,0,21.631,2.877s.3-13.879-.846-17.805-3.235-7.6-4.807-8.734C2090.3,1388.672,2078.731,1389.477,2078.731,1389.477Z" transform="translate(-2061.784 -1349.037)"/><g transform="translate(36.655 45.518)"><path class="al" d="M2241.892,1429.979a18.393,18.393,0,0,1-.528,2.214c-.342,1.087-.656,1.433-.519,2.056.1.47.635.823.77.672s.2-1.978.956-1.97-.226,2.263.225,2.1,2.185-1.116,2.077-2.037-.8-1.587-.759-2.962a2.958,2.958,0,0,0-.348-1.77Z" transform="translate(-2240.813 -1428.279)"/></g><g transform="translate(1.517 14.122)"><path class="w" d="M1985.5,1201.437s1.056,1.373,1.708,1.519,1.36-1.406,1.36-1.406l-.385-1.4Z" transform="translate(-1985.499 -1200.153)"/></g><g transform="translate(0 9.754)"><path class="w" d="M1978.6,1173.611s.506-1.584.576-1.828a3.009,3.009,0,0,0-.627-1.644,14.529,14.529,0,0,0-1.178-1.585c-.1-.1-.155-.211-.485-.063a1.375,1.375,0,0,0-.527.456.835.835,0,0,0-.707.389.727.727,0,0,0-.633.5s-.453.026-.545.392a5.524,5.524,0,0,1,.227.95,11.582,11.582,0,0,0,1.29,2.887S1977.08,1175.007,1978.6,1173.611Z" transform="translate(-1974.476 -1168.419)"/></g><g transform="translate(0.702 12.647)"><path class="az" d="M1981.843,1189.679a4.084,4.084,0,0,0-.608.888c-.063.255-1.655-.694-1.655-.694S1981.056,1189.037,1981.843,1189.679Z" transform="translate(-1979.58 -1189.437)"/></g><g transform="translate(0 9.849)"><path class="x" d="M1977.457,1169.311s.881,1.866.585,2.027a.528.528,0,0,1-.5.041l-.046.935a.538.538,0,0,1-.925.012s-.3.6-.755-.034c0,0-.372.308-.636.052a6.91,6.91,0,0,1-.7-1.515s.027-.308.545-.393a.715.715,0,0,1,.633-.5,1.081,1.081,0,0,1,.821-.513.814.814,0,0,1,.9-.269A1.017,1.017,0,0,1,1977.457,1169.311Z" transform="translate(-1974.476 -1169.111)"/></g><g transform="translate(2.258 11.815)"><path class="w" d="M1993.311,1184.634a7.034,7.034,0,0,0-1.876-1.195c-.183-.058-.37-.081-.493.067s-.064.514.378.944a5.212,5.212,0,0,1,.817,1.188S1992.719,1185.948,1993.311,1184.634Z" transform="translate(-1990.885 -1183.394)"/></g><g transform="translate(2 9.756)"><path class="w" d="M1989.009,1168.835a17.392,17.392,0,0,1,1.078,2.167c-.012.228.714-.16.711-.355a16.416,16.416,0,0,0-.892-2.08A.559.559,0,0,0,1989.009,1168.835Z" transform="translate(-1989.009 -1168.433)"/></g><g transform="translate(0.944 7.136)"><path class="w" d="M1983.513,1152.525s-1.737-3.241-1.993-3.123c-.372.172-.273,1.069,1.193,3.488C1984.138,1155.243,1983.513,1152.525,1983.513,1152.525Z" transform="translate(-1981.337 -1149.399)"/></g><path class="y" d="M2078.262,1227.946l-3.575-4.744s6.392-4.951,8.364-1.8C2083.051,1221.4,2083.191,1226.586,2078.262,1227.946Z" transform="translate(-2060.895 -1203.45)"/><path class="y" d="M2085.031,1222.765a13.136,13.136,0,0,0,1.049,3.487c.135.575,0,1.9.169,3.216a81.591,81.591,0,0,1,.508,9.411c-.169,1.794,12.314.984,13.262.442,0,0-2.1-3.759-2.159-5.316a5.1,5.1,0,0,1,.542-3.419c.464-.643,1.326-2.691,2.186-4.187h0c.334-.581.683-1.16.927-1.59h0a6,6,0,0,0,.494-1.229s.555-6.906-.968-7.684a7.761,7.761,0,0,0-3.825-.982,10.822,10.822,0,0,1-2.471-.372l-3.487.372a20.144,20.144,0,0,1-3.115.846c-.88.068-2,1.963-1.9,3.182S2084.93,1221.174,2085.031,1222.765Z" transform="translate(-2069.812 -1198.438)"/><g transform="translate(37.388 50.102)"><path class="ax" d="M2247.087,1461.6s-1.008.258-.948,3.668l1.141-.19a11.751,11.751,0,0,1,.32-2.912S2247.542,1461.5,2247.087,1461.6Z" transform="translate(-2246.137 -1461.589)"/></g><g transform="translate(34.153 52.028)"><path class="ax" d="M2222.63,1478.106l8.891-2.523-.026,10.95-8.848,5.3Z" transform="translate(-2222.63 -1475.584)"/></g><g transform="translate(34.169 52.028)"><path class="ax" d="M2222.75,1491.837l1.114.206,8.606-5.352-.107-11.056-.739-.051Z" transform="translate(-2222.75 -1475.584)"/></g><path class="w" d="M2184.351,1219.775a4.752,4.752,0,0,1,4.021,2.427c1.253,2.437,1.388,5.01,1.692,5.924s1.1,6.291,1.406,7.07a61.148,61.148,0,0,1,2.555,9.043,59.558,59.558,0,0,1,.532,6l-2.221-.07s-2.2-8.1-2.964-10.034c-.649-1.65-.9-4.529-1.271-5.545s-2.674-8.158-3.148-8.666S2181.989,1220.225,2184.351,1219.775Z" transform="translate(-2154.602 -1202.953)"/><path class="y" d="M2182.07,1229.625l5.642-1.777s-1.73-8.323-6.549-8.1C2177.3,1219.926,2182.07,1229.625,2182.07,1229.625Z" transform="translate(-2151.414 -1202.926)"/><path class="w" d="M2104.954,1102.078a5.313,5.313,0,0,0-6.1,4.2,12.966,12.966,0,0,0,.167,2.033c.17.906-.908,3.394-.718,3.545a5.684,5.684,0,0,0,1.016.41s.587,2.921,1.579,3.01a8.251,8.251,0,0,0,6.988-3.559C2110.051,1108.417,2111.21,1103.1,2104.954,1102.078Z" transform="translate(-2081.242 -1101.402)"/><path class="w" d="M2127.533,1173.636s.076.408.147,1.01c.036.308.071.665.094,1.044a6.992,6.992,0,0,1-.328,3.032s1.942,1.2,4.023-1.69c0,0-.2-3.61.992-5.518S2127.533,1173.636,2127.533,1173.636Z" transform="translate(-2106.394 -1160.892)"/><path class="ay" d="M2102.449,1102.443a14.1,14.1,0,0,0,4.8,2.649c2.47.635,3.778,3.41,3.778,3.41s4.37-4.359,1.733-8.59S2102.453,1097.568,2102.449,1102.443Z" transform="translate(-2084.837 -1097.565)"/><path class="ao" d="M2129.147,1188.327c.036.307.071.665.094,1.044a10.915,10.915,0,0,0,3.379-2.506A12.4,12.4,0,0,1,2129.147,1188.327Z" transform="translate(-2107.861 -1174.572)"/><path class="ay" d="M2140.643,1149.935s2.526,6.794,2.224,8.429a8.894,8.894,0,0,1,3.718.5S2145.434,1146.741,2140.643,1149.935Z" transform="translate(-2117.774 -1142.262)"/><path class="w" d="M2128.436,1214.012s-.832,5.095-3.913,4.52-.744-4.309-.744-4.309S2124.982,1213.143,2128.436,1214.012Z" transform="translate(-2102.499 -1197.692)"/></g><g transform="translate(171.108 69.105)"><path class="ba" d="M1522.522,654.04a16.25,16.25,0,1,1-16.25-16.251A16.186,16.186,0,0,1,1522.522,654.04Z" transform="translate(-1490.022 -637.789)"/><path class="p" d="M1539.145,707.423a2.027,2.027,0,0,0-.273-.16l-.015-.01v0a34.425,34.425,0,0,0-6.927-2.616h0c-.748-.228-1.313-.376-1.508-.426l-.35-.556a17.265,17.265,0,0,1-.028-1.956,6.928,6.928,0,0,0,1.4-3.37c.094.071.167-.084.167-.084-.052-.093.784-2.134.633-2.595-.085-.261-.259-.228-.395-.152.02-.119.041-.243.062-.374,0,0,.331-3.13-1.253-4.874a1.752,1.752,0,0,0-.747-.2,6.975,6.975,0,0,0-5.027-.022,5.058,5.058,0,0,0-1.46,4.224c.028.258.058.517.087.769v.008c.012.1.024.2.036.3-.132-.082-.306-.124-.4.135a7.766,7.766,0,0,0,.527,2.618s.133.209.238.114c0,0,0,0,0,0a7.49,7.49,0,0,0,1.373,3.577c-.04.727-.145,1.582-.219,2.128l-.63.657h0l-.1.034v0c-7.113,1.9-9.123,3.219-9.123,3.219a1.879,1.879,0,0,0-.545.843,16.251,16.251,0,0,0,25.3.518A6.685,6.685,0,0,0,1539.145,707.423Z" transform="translate(-1511.272 -682.46)"/></g><g transform="translate(72.907 69.166)"><g transform="translate(0 3.384)"><rect class="bb" width="0.291" height="27.46"/></g><g transform="translate(20.691 3.384)"><rect class="bb" width="0.291" height="27.46"/></g><g transform="translate(41.383 3.384)"><rect class="bb" width="0.291" height="27.46"/></g><g transform="translate(62.074 3.384)"><rect class="bb" width="0.291" height="27.46"/></g><g transform="translate(82.765 3.384)"><rect class="bb" width="0.291" height="27.46"/></g><rect class="bc" width="3.292" height="0.954" transform="translate(0.145 32.471)"/><rect class="bd" width="4.956" height="0.716" transform="translate(0.145)"/><rect class="bd" width="7.03" height="0.716" transform="translate(0.145 1.323)"/><rect class="bd" width="5.818" height="0.716" transform="translate(20.614)"/><rect class="bd" width="3.72" height="0.716" transform="translate(20.614 1.323)"/><rect class="bd" width="3.606" height="0.716" transform="translate(41.674)"/><rect class="bd" width="4.202" height="0.716" transform="translate(41.674 1.323)"/><rect class="bd" width="5.252" height="0.716" transform="translate(62.365)"/><rect class="bd" width="4.202" height="0.716" transform="translate(62.365 1.323)"/><rect class="bd" width="3.137" height="0.716" transform="translate(82.911)"/><rect class="bd" width="2.51" height="0.716" transform="translate(82.911 1.323)"/><rect class="bc" width="3.292" height="0.954" transform="translate(20.837 32.471)"/><rect class="bc" width="3.292" height="0.954" transform="translate(41.674 32.471)"/><rect class="bc" width="3.292" height="0.954" transform="translate(62.365 32.471)"/><rect class="bc" width="3.292" height="0.954" transform="translate(83.056 32.471)"/><g transform="translate(0.145 10.503)"><path class="be" d="M853.147,726.731c-6.454,0-12.064-2.509-17.913-5.125-7.221-3.23-14.687-6.569-24.634-5.654-6.352.584-10.339,2.911-13.857,4.963-3.185,1.859-6.2,3.493-10.275,3.633-6.591.226-8.878-2.3-8.916-2.457v-1.623h0c.008.028,1.447,2.866,8.909,2.832,3.675-.017,6.387-1.6,9.527-3.432,3.649-2.13,7.786-4.543,14.471-5.158,10.347-.951,18,2.47,25.393,5.778,7.74,3.462,15.126,6.708,24.466,3.892v1.334A23.262,23.262,0,0,1,853.147,726.731Z" transform="translate(-777.552 -714.549)"/></g><g transform="translate(0.145 6.785)"><path class="l" d="M814.409,703.124c-4.764,0-8.542-2.881-12.241-5.7-2.8-2.139-5.714-4.326-9.073-5.4-10.251-3.292-15.5,2.719-15.542,2.772v-1.828a9.371,9.371,0,0,1,3.7-2.2c2.464-.95,6.6-1.707,12.3.077,3.613,1.13,6.613,3.418,9.515,5.631,5.886,4.488,10.969,8.365,19.8,2.293,6.686-4.6,12.989-8.981,19.191-10.582,6.066-1.566,12.389-.42,18.309,4.9l-.044,1.661c-12.574-11.359-23.28-4.162-36.613,5.008C820.172,702.183,817.129,703.124,814.409,703.124Z" transform="translate(-777.552 -687.535)"/></g></g></g><path class="r" d="M401.279,296.585c0,2.592,7.988,4.357,17.834,3.941a56.089,56.089,0,0,0,11.266-1.533c2.5-1.072,3.438-1.072,4.667-1.73.3-.136-.251.143,0,0,1.208-.684,1.887-1.428,1.886-2.185,0-2.593-7.988-4.359-17.833-3.942S401.275,293.992,401.279,296.585Z" transform="translate(-368.565 -59.444)"/><path class="r" d="M401.279,296.585c.007,2.592,13.567,4.357,30.288,3.941a158.526,158.526,0,0,0,19.133-1.533c4.241-1.072,5.838-1.072,7.926-1.73.5-.136-.426.143,0,0,2.051-.684,3.2-1.428,3.2-2.185-.007-2.593-13.567-4.359-30.286-3.942S401.272,293.992,401.279,296.585Z" transform="translate(-291.612 -60.737)"/><path class="r" d="M401.279,296.585c.007,2.592,13.567,4.357,30.288,3.941a158.526,158.526,0,0,0,19.133-1.533c4.241-1.072,5.838-1.072,7.926-1.73.5-.136-.426.143,0,0,2.051-.684,3.2-1.428,3.2-2.185-.007-2.593-13.567-4.359-30.286-3.942S401.272,293.992,401.279,296.585Z" transform="translate(-228.238 -60.737)"/><path class="r" d="M401.279,296.585c.007,2.592,13.567,4.357,30.288,3.941a158.526,158.526,0,0,0,19.133-1.533c4.241-1.072,5.838-1.072,7.926-1.73.5-.136-.426.143,0,0,2.051-.684,3.2-1.428,3.2-2.185-.007-2.593-13.567-4.359-30.286-3.942S401.272,293.992,401.279,296.585Z" transform="translate(-177.152 -63.97)"/></g></g></svg>