<svg xmlns="http://www.w3.org/2000/svg" width="18.943" height="21.371" viewBox="0 0 18.943 21.371"><defs><style>.a{fill:#2c2f33;}</style></defs><path class="a" d="M4.112,0A.343.343,0,0,0,3.77.343v3.77H3.084A1.028,1.028,0,0,0,2.056,5.14v.343A1.028,1.028,0,0,0,1.028,6.511v7.882H.343A.343.343,0,0,0,0,14.736v.343a1.371,1.371,0,0,0,1.371,1.371H2.742v2.056H2.056a1.028,1.028,0,0,0-1.028,1.028v.685a.343.343,0,0,0,.343.343H6.854a.343.343,0,0,0,.343-.343v-.685a1.028,1.028,0,0,0-1.028-1.028H5.483V16.449H6.854a1.371,1.371,0,0,0,1.371-1.371v-.343a.343.343,0,0,0-.343-.343H7.2V6.511A1.028,1.028,0,0,0,6.168,5.483V5.14A1.028,1.028,0,0,0,5.14,4.112H4.455V.343A.343.343,0,0,0,4.112,0Zm2.4,19.533v.343h-4.8v-.343a.343.343,0,0,1,.343-.343H6.168A.343.343,0,0,1,6.511,19.533ZM4.8,18.505H3.427V16.449H4.8Zm2.056-2.742H1.371a.685.685,0,0,1-.685-.685H7.539A.685.685,0,0,1,6.854,15.764Zm-5.14-1.371v-.685H2.4a.343.343,0,1,0,0-.685H1.713V11.876a2.944,2.944,0,0,0,1.713.461,3.9,3.9,0,0,0,2.085-.6,3.055,3.055,0,0,1,1-.4v3.053Zm4.8-7.882v4.135a3.506,3.506,0,0,0-1.329.492,3.239,3.239,0,0,1-1.756.514c-1.244,0-1.629-.588-1.713-.756v-.272H2.4a.343.343,0,0,0,0-.685H1.713V8.91H2.4a.343.343,0,0,0,0-.685H1.713V6.511a.343.343,0,0,1,.343-.343H6.168A.343.343,0,0,1,6.511,6.511ZM5.483,5.14v.343H2.742V5.14A.343.343,0,0,1,3.084,4.8H5.14A.343.343,0,0,1,5.483,5.14Z" transform="matrix(0.799, 0.602, -0.602, 0.799, 12.374, 0)"/></svg>