<svg xmlns="http://www.w3.org/2000/svg" width="55" height="56" viewBox="0 0 55 56"><defs><style>.a{fill:#fff;stroke:#baeaf6;}.b{fill:#baeaf6;}.c{fill:#a2d6e3;}.d{stroke:none;}.e{fill:none;}</style></defs><g transform="translate(-14 -77)"><g class="a" transform="translate(14 82)"><rect class="d" width="55" height="51" rx="7"/><rect class="e" x="0.5" y="0.5" width="54" height="50" rx="6.5"/></g><path class="b" d="M7,0H48a7,7,0,0,1,7,7v8a0,0,0,0,1,0,0H0a0,0,0,0,1,0,0V7A7,7,0,0,1,7,0Z" transform="translate(14 81)"/><g transform="translate(26 77.244)"><rect class="c" width="4" height="9" rx="2" transform="translate(0 -0.244)"/><rect class="c" width="4" height="9" rx="2" transform="translate(28 -0.244)"/></g></g></svg>