<svg xmlns="http://www.w3.org/2000/svg" width="9.245" height="16.809" viewBox="0 0 9.245 16.809"><defs><style>.a{fill:#2c2f33;}</style></defs><g transform="translate(-7.812 -6.01)"><g transform="translate(7.812 6.01)"><path class="a" d="M27.732,25.238l-1.117,1.117A2.087,2.087,0,0,0,26,27.84v7.708a1.261,1.261,0,0,0,1.261,1.261h6.724a1.261,1.261,0,0,0,1.261-1.261V27.84a2.088,2.088,0,0,0-.616-1.486l-1.116-1.117a1.268,1.268,0,0,1-.369-.891V24.2a.84.84,0,0,0,.84-.84v-.84a.84.84,0,0,0-.84-.84h-.42v-.42A1.261,1.261,0,0,0,31.463,20H29.782a1.261,1.261,0,0,0-1.261,1.261v.42H28.1a.84.84,0,0,0-.84.84v.84a.84.84,0,0,0,.84.84v.144A1.269,1.269,0,0,1,27.732,25.238Zm6.672,8.21H26.84v-4.2H34.4Zm-.42,2.521H27.261a.42.42,0,0,1-.42-.42V34.288H34.4v1.261A.42.42,0,0,1,33.984,35.969ZM29.362,21.261a.42.42,0,0,1,.42-.42h1.681a.42.42,0,0,1,.42.42v.42H29.362ZM28.1,22.521h5.043v.84H28.1Zm.225,3.311a2.087,2.087,0,0,0,.615-1.486V24.2H32.3v.144a2.088,2.088,0,0,0,.616,1.486l1.116,1.117a1.268,1.268,0,0,1,.369.891V28.4H26.84V27.84a1.269,1.269,0,0,1,.369-.891Z" transform="translate(-26 -20)"/><path class="a" d="M34.42,45.681h.42v.42a.42.42,0,1,0,.84,0v-.42h.42a.42.42,0,0,0,0-.84h-.42v-.42a.42.42,0,0,0-.84,0v.42h-.42a.42.42,0,0,0,0,.84Z" transform="translate(-30.638 -33.914)"/></g></g></svg>