<svg xmlns="http://www.w3.org/2000/svg" width="22.667" height="18.702" viewBox="0 0 22.667 18.702"><defs><style>.a{fill:#fff;}.b{fill:#ffbe39;}</style></defs><g transform="translate(-4.667 -6.92)"><g transform="translate(-1.333 -42.809)"><path d="M7.768,245.952A1.77,1.77,0,0,1,6,244.184v-3.632a3.132,3.132,0,0,1,3.128-3.128H11.4a3.125,3.125,0,0,1,.822.11l.214.058.1-.2a3.118,3.118,0,0,1,2.789-1.715h4.016a3.118,3.118,0,0,1,2.789,1.715l.1.2.214-.058a3.126,3.126,0,0,1,.822-.11h2.272a3.132,3.132,0,0,1,3.128,3.128v3.632a1.77,1.77,0,0,1-1.768,1.768Zm15.5-7.712a2.311,2.311,0,0,0-.6.081l-.215.058.015.222c.005.08.008.146.008.207v6.328H26.9a.953.953,0,0,0,.952-.952v-3.632a2.315,2.315,0,0,0-2.312-2.312ZM15.326,236.5a2.315,2.315,0,0,0-2.312,2.312v6.328h8.64v-6.328a2.315,2.315,0,0,0-2.312-2.312Zm-6.2,1.744a2.315,2.315,0,0,0-2.312,2.312v3.632a.953.953,0,0,0,.952.952H12.2v-6.328c0-.062,0-.128.008-.207l.015-.222L12,238.321a2.309,2.309,0,0,0-.6-.081Z" transform="translate(0 -177.521)"/><path d="M42.163,138a2.749,2.749,0,1,1,2.749-2.749A2.731,2.731,0,0,1,42.163,138Zm0-4.683a1.933,1.933,0,1,0,1.933,1.933A1.936,1.936,0,0,0,42.163,133.32Z" transform="translate(-31.899 -79.022)"/><path d="M176.727,57.258a3.764,3.764,0,1,1,3.764-3.764A3.769,3.769,0,0,1,176.727,57.258Zm0-6.713a2.948,2.948,0,1,0,2.948,2.948A2.952,2.952,0,0,0,176.727,50.545Z" transform="translate(-159.393)"/><path d="M354.043,138a2.749,2.749,0,1,1,2.749-2.749A2.753,2.753,0,0,1,354.043,138Zm0-4.683a1.933,1.933,0,1,0,1.933,1.933A1.936,1.936,0,0,0,354.043,133.32Z" transform="translate(-329.64 -79.022)"/><path class="a" d="M369.626,292.152a2.31,2.31,0,0,0-.6.081l-.215.058.015.222c.005.08.008.146.008.207v6.328h4.429a.953.953,0,0,0,.952-.952v-3.632a2.315,2.315,0,0,0-2.312-2.312Z" transform="translate(-346.358 -231.433)"/><path class="b" d="M163.017,253.681a2.315,2.315,0,0,0-2.312,2.312v6.328h8.64v-6.328a2.315,2.315,0,0,0-2.312-2.312Z" transform="translate(-147.692 -194.706)"/><path class="a" d="M26.312,292.153A2.315,2.315,0,0,0,24,294.465V298.1a.953.953,0,0,0,.952.952h4.429v-6.328c0-.062,0-.128.008-.207l.015-.222-.215-.058a2.311,2.311,0,0,0-.6-.081Z" transform="translate(-17.184 -231.434)"/><circle class="b" cx="1.933" cy="1.933" r="1.933" transform="translate(8.331 54.298)"/><circle class="a" cx="2.948" cy="2.948" r="2.948" transform="translate(14.385 50.545)"/><path class="b" d="M371.227,150.5a1.933,1.933,0,1,0,1.933,1.933A1.936,1.936,0,0,0,371.227,150.5Z" transform="translate(-346.824 -96.206)"/></g></g></svg>