<svg xmlns="http://www.w3.org/2000/svg" xmlns:xlink="http://www.w3.org/1999/xlink" width="66" height="66" viewBox="0 0 66 66"><defs><style>.a{fill:#fbeaea;}.b{fill:url(#a);}.c{fill:url(#d);}.d{fill:url(#g);}.e{fill:#ffe6e6;}.f{fill:#fff;}.g{fill:#ac3a49;}.h{fill:url(#h);}.i{fill:#c25c69;}.j{fill:url(#i);}.k{fill:#480606;}.l{filter:url(#e);}.m{filter:url(#b);}</style><linearGradient id="a" x1="0.084" y1="0.183" x2="0.881" y2="0.864" gradientUnits="objectBoundingBox"><stop offset="0" stop-color="#fd7424"/><stop offset="1" stop-color="#ff3f61"/></linearGradient><filter id="b" x="2" y="10" width="62.737" height="49.335" filterUnits="userSpaceOnUse"><feOffset dy="2" input="SourceAlpha"/><feGaussianBlur stdDeviation="2" result="c"/><feFlood flood-color="#b20101" flood-opacity="0.302"/><feComposite operator="in" in2="c"/><feComposite in="SourceGraphic"/></filter><linearGradient id="d" x1="0.5" x2="0.5" y2="1" gradientUnits="objectBoundingBox"><stop offset="0" stop-color="#ffcbce"/><stop offset="1" stop-color="#ff8890"/></linearGradient><filter id="e" x="17.803" y="16.979" width="31.605" height="33.028" filterUnits="userSpaceOnUse"><feOffset dy="1" input="SourceAlpha"/><feGaussianBlur stdDeviation="1" result="f"/><feFlood flood-opacity="0.302"/><feComposite operator="in" in2="f"/><feComposite in="SourceGraphic"/></filter><linearGradient id="g" x1="0.5" x2="0.5" y2="1" gradientUnits="objectBoundingBox"><stop offset="0" stop-color="#ffeae9"/><stop offset="1" stop-color="#ffb2b1"/></linearGradient><linearGradient id="h" x1="0.5" x2="0.5" y2="1" gradientUnits="objectBoundingBox"><stop offset="0" stop-color="#ffd9db"/><stop offset="1" stop-color="#fff"/></linearGradient><linearGradient id="i" x1="0.5" x2="0.5" y2="1" gradientUnits="objectBoundingBox"><stop offset="0" stop-color="#ffdcdf"/><stop offset="1" stop-color="#ff8088"/></linearGradient></defs><g transform="translate(-44.667 -146.667)"><rect class="a" width="66" height="66" rx="12" transform="translate(44.667 146.667)"/><g transform="translate(52.666 160.666)"><g transform="translate(0 0)"><g class="m" transform="matrix(1, 0, 0, 1, -8, -14)"><path class="b" d="M18.667,0h13.4a18.667,18.667,0,1,1,0,37.335h-13.4A18.667,18.667,0,0,1,18.667,0Z" transform="translate(8 14)"/></g></g><g class="l" transform="matrix(1, 0, 0, 1, -8, -14)"><path class="c" d="M19.793,27.028a.466.466,0,0,1-.466-.466V23.3h3.728v3.263a.466.466,0,0,1-.465.466Zm-16.776,0a.466.466,0,0,1-.466-.466V23.3H6.278v3.263a.466.466,0,0,1-.466.466ZM2.551,23.3a.932.932,0,0,1-.932-.931V2.8A2.8,2.8,0,0,1,4.415,0H21.191a2.8,2.8,0,0,1,2.8,2.8V22.368a.931.931,0,0,1-.931.931Zm21.632-9.074V8.535a.711.711,0,0,1,1.422,0v5.691a.711.711,0,0,1-1.422,0ZM0,14.225V8.535a.711.711,0,0,1,1.423,0v5.691a.711.711,0,0,1-1.423,0Z" transform="translate(20.8 18.98)"/></g><g transform="translate(12.913 4.979)"><path class="d" d="M66.8,24H83.572a2.8,2.8,0,0,1,2.8,2.8V46.368a.932.932,0,0,1-.932.932h-20.5A.932.932,0,0,1,64,46.368V26.8A2.8,2.8,0,0,1,66.8,24Z" transform="translate(-62.492 -24)"/><path class="e" d="M80,424h3.728v3.262a.466.466,0,0,1-.466.466h-2.8a.466.466,0,0,1-.466-.466Z" transform="translate(-77.56 -400.7)"/><path class="e" d="M368,424h3.728v3.262a.466.466,0,0,1-.466.466h-2.8a.466.466,0,0,1-.466-.466Z" transform="translate(-348.784 -400.7)"/><ellipse class="f" cx="0.5" cy="1" rx="0.5" ry="1" transform="translate(4.692 19.514)"/><ellipse class="f" cx="0.5" cy="1" rx="0.5" ry="1" transform="translate(19.692 19.514)"/><path class="g" d="M168,344h10.252v.932H168Z" transform="translate(-160.434 -325.36)"/><path class="g" d="M168,376h10.252v.932H168Z" transform="translate(-160.434 -355.496)"/><path class="f" d="M64,96H86.368v12.116H64Z" transform="translate(-62.492 -91.806)"/><path class="h" d="M142.59,96v12.116H123.7c6.7-2.138,13.15-5.922,17.5-12.116Z" transform="translate(-118.714 -91.806)"/><path class="i" d="M0,0H.932V12.116H0Z" transform="translate(13.158 16.31) rotate(180)"/><rect class="j" width="2" height="8" rx="1" transform="translate(-0.308 7.514)"/><rect class="j" width="2" height="8" rx="1" transform="translate(23.692 7.514)"/><path class="k" d="M80,424h3.728v.932H80Z" transform="translate(-77.56 -400.7)"/><path class="k" d="M368,424h3.728v.932H368Z" transform="translate(-348.784 -400.7)"/></g></g></g></svg>