<svg xmlns="http://www.w3.org/2000/svg" width="29" height="29" viewBox="0 0 29 29"><defs><style>.a{fill:#fff;stroke:#4fcc5b;}.b{fill:#4fcc5b;}</style></defs><g transform="translate(-319.5 -446.5)"><circle class="a" cx="14" cy="14" r="14" transform="translate(320 447)"/><path class="b" d="M124.278,120.889a7.974,7.974,0,0,1-3.532-.807.723.723,0,0,0-.968.335l-.52,1.076a10.17,10.17,0,0,1-3.751-3.751l1.078-.52a.723.723,0,0,0,.335-.968,7.947,7.947,0,0,1-.809-3.532.722.722,0,0,0-.722-.722h-2.666a.722.722,0,0,0-.722.722A12.292,12.292,0,0,0,124.278,125a.722.722,0,0,0,.722-.722v-2.666A.722.722,0,0,0,124.278,120.889Z" transform="translate(215.5 342.5)"/></g></svg>