<svg xmlns="http://www.w3.org/2000/svg" width="24" height="20.626" viewBox="0 0 24 20.626"><defs><style>.a{fill:#fff;}.b{fill:#ffbe39;}</style></defs><g transform="translate(-56.81 -267.69)"><g transform="translate(56.81 267.69)"><path class="a" d="M24.344,10H10.938a.937.937,0,0,0-.938.938v9.375a.937.937,0,0,0,.938.938h1.875v2.813l2.813-2.813h8.719a.937.937,0,0,0,.938-.938V10.938A.937.937,0,0,0,24.344,10Zm0,0" transform="translate(-9.531 -9.531)"/><path class="b" d="M191.282,130.938v9.375a.938.938,0,0,1-.938.938h-1.875v2.813l-2.813-2.813h-8.719a.938.938,0,0,1-.938-.938v-9.375a.937.937,0,0,1,.938-.938h13.406A.937.937,0,0,1,191.282,130.938Zm0,0" transform="translate(-167.75 -123.906)"/><path d="M432.469,180a.469.469,0,1,0,.469.469A.469.469,0,0,0,432.469,180Zm0,0" transform="translate(-411.75 -171.562)"/><path d="M266.469,60.938a.469.469,0,1,0-.469-.469A.469.469,0,0,0,266.469,60.938Zm0,0" transform="translate(-253.531 -57.187)"/><path d="M22.594,5.625H16.219V1.406A1.408,1.408,0,0,0,14.813,0H1.406A1.408,1.408,0,0,0,0,1.406v9.375a1.408,1.408,0,0,0,1.406,1.406H2.813v2.344a.469.469,0,0,0,.8.331l2.675-2.675H7.781v4.219a1.408,1.408,0,0,0,1.406,1.406h8.525l2.675,2.675a.469.469,0,0,0,.8-.331V17.813h1.406A1.408,1.408,0,0,0,24,16.407V7.031a1.408,1.408,0,0,0-1.406-1.406ZM3.281,6.562H7.862a1.4,1.4,0,0,0-.081.469V8.438h-4.5a.469.469,0,0,0,0,.938h4.5V11.25H6.094a.469.469,0,0,0-.331.137L3.75,13.4V11.719a.469.469,0,0,0-.469-.469H1.406a.469.469,0,0,1-.469-.469V1.406A.469.469,0,0,1,1.406.938H14.813a.469.469,0,0,1,.469.469V5.625h-12a.468.468,0,1,0,0,.937Zm19.782,9.844a.469.469,0,0,1-.469.469H20.719a.469.469,0,0,0-.469.469v1.681l-2.012-2.012a.469.469,0,0,0-.331-.137H9.188a.469.469,0,0,1-.469-.469V7.031a.469.469,0,0,1,.469-.469H22.594a.469.469,0,0,1,.469.469Zm0,0"/><path d="M60.469,60.938H68.25a.469.469,0,0,0,0-.938H60.469a.469.469,0,0,0,0,.938Zm0,0" transform="translate(-57.187 -57.187)"/><path d="M226.469,180.938h7.781a.469.469,0,1,0,0-.938h-7.781a.469.469,0,0,0,0,.938Zm0,0" transform="translate(-215.406 -171.562)"/><path d="M236.125,240h-9.656a.469.469,0,0,0,0,.938h9.656a.469.469,0,0,0,0-.938Zm0,0" transform="translate(-215.406 -228.75)"/><path d="M236.125,300h-9.656a.469.469,0,0,0,0,.938h9.656a.469.469,0,0,0,0-.938Zm0,0" transform="translate(-215.406 -285.937)"/></g></g></svg>