<svg xmlns="http://www.w3.org/2000/svg" xmlns:xlink="http://www.w3.org/1999/xlink" width="39.913" height="36.54" viewBox="0 0 39.913 36.54"><defs><style>.a{fill:#fff;}.b{fill:url(#a);}.c{fill:#4250db;}.d{fill:#9aa3fe;}.e{fill:#97a1ff;}.f{fill:#c9e0fb;}.g{fill:#606efd;}.h{fill:#8c818f;}.i{filter:url(#d);}.j{filter:url(#b);}</style><linearGradient id="a" x1="0.084" y1="0.183" x2="0.881" y2="0.864" gradientUnits="objectBoundingBox"><stop offset="0" stop-color="#a5aeff"/><stop offset="1" stop-color="#5564fc"/></linearGradient><filter id="b" x="0" y="4" width="39.913" height="32.54" filterUnits="userSpaceOnUse"><feOffset dy="2" input="SourceAlpha"/><feGaussianBlur stdDeviation="2" result="c"/><feFlood flood-color="#9ba5fe"/><feComposite operator="in" in2="c"/><feComposite in="SourceGraphic"/></filter><filter id="d" x="11.698" y="13.602" width="16.572" height="15.264" filterUnits="userSpaceOnUse"><feOffset dy="1" input="SourceAlpha"/><feGaussianBlur stdDeviation="0.5" result="e"/><feFlood flood-opacity="0.161"/><feComposite operator="in" in2="e"/><feComposite in="SourceGraphic"/></filter></defs><g transform="translate(2)"><rect class="a" width="36" height="36" rx="6"/><g transform="translate(3.913 7.826)"><g transform="translate(0 0)"><g class="j" transform="matrix(1, 0, 0, 1, -5.91, -7.83)"><path class="b" d="M10.27,0h7.373a10.27,10.27,0,0,1,0,20.54H10.27A10.27,10.27,0,1,1,10.27,0Z" transform="translate(6 8)"/></g></g><g transform="translate(-40.676 1.698)"><g transform="translate(47.961 4.578)"><g transform="translate(0)"><g class="i" transform="matrix(1, 0, 0, 1, -13.2, -14.1)"><path class="c" d="M61.125,146.551H59.938l-5.013-.682-5.17.682H48.369a.408.408,0,0,1-.408-.408V138.8a4.516,4.516,0,0,1,4.516-4.516h4.539a4.516,4.516,0,0,1,4.516,4.516v7.339A.408.408,0,0,1,61.125,146.551Z" transform="translate(-34.76 -120.18)"/></g></g></g><g transform="translate(50.383 10.741)"><g transform="translate(0)"><path class="d" d="M127.516,321.147H124.48l-.562-.682-1.4.682H119.3a.287.287,0,0,1-.287-.287v-2.719a3.1,3.1,0,0,1,3.095-3.095h2.6a3.1,3.1,0,0,1,.866.123c.328.1.292.585.565.776.211.148.744-.02.912.175a3.083,3.083,0,0,1,.751,2.022v2.719A.287.287,0,0,1,127.516,321.147Z" transform="translate(-119.011 -315.046)"/></g></g><g transform="translate(53.89 10.864)"><path class="e" d="M221.87,324.627h1.962L226.4,319.6a3.074,3.074,0,0,0-1.477-.951Z" transform="translate(-221.87 -318.649)"/></g><g transform="translate(53.691 7.948)"><path class="f" d="M217.209,237.248h-.052a1.118,1.118,0,0,1-1.118-1.118v-3h2.288v3A1.118,1.118,0,0,1,217.209,237.248Z" transform="translate(-216.039 -233.132)"/></g><g transform="translate(49.744 4.446)"><g transform="translate(0)"><ellipse class="a" cx="1.213" cy="1.23" rx="1.213" ry="1.23"/></g></g><g transform="translate(57.5 4.446)"><g transform="translate(0)"><ellipse class="a" cx="1.213" cy="1.23" rx="1.213" ry="1.23"/></g></g><g transform="translate(50.958 0)"><path class="a" d="M139.737,9.9a3.878,3.878,0,0,1-3.878-3.878V3.832A3.833,3.833,0,0,1,139.692,0h.09a3.833,3.833,0,0,1,3.833,3.833V6.027A3.878,3.878,0,0,1,139.737,9.9Z" transform="translate(-135.859)"/></g><g transform="translate(50.958 4.449)"><g transform="translate(0)"><path class="g" d="M142.625,135.187v-.132a.856.856,0,0,0-.856-.856H137.7a.856.856,0,0,0-.856.856v.132a.761.761,0,0,1-.761.761h-.229v-2.179a3.277,3.277,0,0,1,3.277-3.277h1.2a3.277,3.277,0,0,1,3.277,3.277v2.179h-.229A.761.761,0,0,1,142.625,135.187Z" transform="translate(-135.859 -135.492)"/></g></g><g transform="translate(49.755 12.113)"><path class="g" d="M100.9,358.6a5.08,5.08,0,0,0-.31,1.416h1.424a3.687,3.687,0,0,1,7.335,0h1.424a5.106,5.106,0,0,0-7.909-3.882" transform="translate(-100.594 -355.291)"/></g><g transform="translate(50.065 12.961)"><g transform="translate(0)"><path class="h" d="M111.638,380.153a5.121,5.121,0,0,0-1.964,2.466" transform="translate(-109.674 -380.153)"/></g></g><g transform="translate(49.824 12.848)"><g transform="translate(0)"><path class="a" d="M105.285,378.956l-.526.576a1.137,1.137,0,0,1-1.606.074l-.408-.372a.467.467,0,0,1-.03-.66l1.428-1.566a.467.467,0,0,1,.66-.03l.408.372A1.137,1.137,0,0,1,105.285,378.956Z" transform="translate(-102.593 -376.856)"/></g></g><g transform="translate(56.881 12.848)"><g transform="translate(0)"><path class="a" d="M309.9,378.957l.526.576a1.137,1.137,0,0,0,1.606.074l.408-.372a.467.467,0,0,0,.03-.66l-1.428-1.566a.467.467,0,0,0-.66-.03l-.408.372A1.137,1.137,0,0,0,309.9,378.957Z" transform="translate(-309.606 -376.857)"/></g></g></g></g></g></svg>