<svg xmlns="http://www.w3.org/2000/svg" width="22.22" height="22.287" viewBox="0 0 22.22 22.287"><defs><style>.a{fill:#fff;}.b{fill:#ffc03f;}.c{fill:#213643;}.d{stroke:#213643;stroke-width:0.3px;}</style></defs><g transform="translate(-4.403 -4.334)"><circle class="a" cx="3.207" cy="3.207" r="3.207" transform="translate(12.725 7.228)"/><path class="a" d="M24.945,84.289H19.387a33.717,33.717,0,0,1-2.446,3.386,33.717,33.717,0,0,1-2.446-3.386H8.936l-2.63,6.895H27.574Z" transform="translate(-1.427 -65.035)"/><path class="b" d="M38.95,6.31a5.661,5.661,0,0,0-5.661,5.66c-.033,5.4,5.661,12.1,5.661,12.1s5.694-6.7,5.66-12.1A5.661,5.661,0,0,0,38.95,6.31Zm0,8.062a2.4,2.4,0,1,1,2.4-2.4A2.4,2.4,0,0,1,38.95,14.372Z" transform="translate(-23.437 -1.43)"/><path class="a" d="M45.469,85.888,34.856,89.663,30.72,84.29h3.688a33.684,33.684,0,0,0,2.446,3.386A33.685,33.685,0,0,0,39.3,84.29h5.559Z" transform="translate(-21.341 -65.036)"/><path class="b" d="M29.96,105.157l10.506-3.737,2.876,3.737Z" transform="translate(-20.721 -79.009)"/><g transform="translate(4.556 4.557)"><path class="c" d="M86.135,16.49a.323.323,0,1,0,.551-.336,6.019,6.019,0,0,0-.571-.784.323.323,0,1,0-.489.42,5.393,5.393,0,0,1,.51.7Z" transform="translate(-70.619 -13.284)"/><path class="d" d="M49.223,24.966a2.724,2.724,0,1,0,2.724-2.724A2.724,2.724,0,0,0,49.223,24.966Zm4.8,0a2.079,2.079,0,1,1-2.079-2.079A2.079,2.079,0,0,1,54.025,24.966Z" transform="translate(-40.99 -18.982)"/><path class="c" d="M10.219,102.87a.322.322,0,0,0,.416-.186l.295-.774a.323.323,0,0,0-.6-.23l-.295.774a.322.322,0,0,0,.186.416Z" transform="translate(-9.006 -83.614)"/><path class="d" d="M26.449,26.033l-2.63-6.894a.323.323,0,0,0-.3-.208H18.541l.091-.147c1.915-3.17,2.879-5.944,2.865-8.242a5.984,5.984,0,0,0-.253-1.726A.323.323,0,0,0,20.626,9a5.34,5.34,0,0,1,.225,1.542c.028,4.58-4.256,10.231-5.338,11.587-1.083-1.355-5.367-7-5.339-11.59a5.339,5.339,0,0,1,8.406-4.37.323.323,0,0,0,.371-.528,5.985,5.985,0,0,0-9.422,4.9c-.014,2.3.95,5.074,2.865,8.244.03.05.061.1.091.147H7.508a.323.323,0,0,0-.3.208l-.756,1.984a.323.323,0,0,0,.6.23l.677-1.776H9.221l3.767,4.9-3.8,1.353H5.347l.3-.782a.323.323,0,1,0-.6-.23l-.465,1.22a.322.322,0,0,0,.3.437H26.147a.322.322,0,0,0,.3-.438ZM10.034,19.576h2.855a34.233,34.233,0,0,0,2.378,3.273.323.323,0,0,0,.491,0,34.23,34.23,0,0,0,2.378-3.273h5.159l.413,1.083-10.08,3.586Zm3.582,5.357h0l6.014-2.138,2.333,3.031H11.108Zm9.163.892-2.508-3.259,3.668-1.3,1.741,4.564Z" transform="translate(-4.556 -4.557)"/></g></g></svg>