<svg xmlns="http://www.w3.org/2000/svg" xmlns:xlink="http://www.w3.org/1999/xlink" width="328.83" height="215.296" viewBox="0 0 328.83 215.296"><defs><style>.a{fill:#00042e;opacity:0.32;}.b{opacity:0.65;fill:url(#a);}.c{fill:#91b3fa;}.d{opacity:0.3;}.aa,.e{fill:#fff;}.f{fill:#7d97f4;}.g{opacity:0.5;}.h{fill:url(#b);}.i{fill:url(#c);}.j{fill:url(#d);}.k{fill:url(#e);}.l{fill:url(#f);}.m{fill:url(#g);}.n{fill:url(#h);}.o{fill:url(#i);}.p{fill:url(#j);}.q{fill:url(#k);}.r{fill:#bdd0fb;}.s{fill:url(#l);}.t{fill:url(#m);}.u{fill:url(#n);}.v{opacity:0.14;}.w{fill:url(#o);}.x{fill:url(#ac);}.y{fill:url(#ad);}.z{fill:url(#ae);}.aa{opacity:0.36;}.ab{fill:url(#af);}.ac{fill:url(#ag);}.ad{fill:url(#ah);}.ae{fill:url(#ai);}.af{fill:url(#aj);}.ag{fill:url(#ak);}.ah{fill:url(#al);}.ai{fill:url(#am);}.aj{fill:url(#an);}.ak{fill:url(#ao);}.al{fill:url(#ap);}.am{fill:url(#aq);}.an{fill:url(#ar);}.ao{fill:url(#as);}.ap{fill:url(#at);}.aq{fill:url(#au);}.ar{fill:url(#av);}.as{fill:url(#aw);}.at{fill:url(#ax);}.au{fill:url(#ay);}.av{fill:url(#az);}.aw{fill:url(#ba);}.ax{fill:url(#bb);}.ay{fill:url(#bh);}.az{fill:url(#bi);}.ba{fill:url(#bk);}.bb{fill:url(#bl);}.bc{fill:url(#bm);}.bd{fill:url(#bn);}.be{fill:url(#bo);}.bf{fill:url(#bp);}.bg{fill:url(#bq);}.bh{fill:url(#br);}.bi{fill:url(#bs);}.bj{fill:url(#bt);}.bk{fill:url(#bu);}.bl{fill:url(#bv);}.bm{fill:url(#bw);}.bn{fill:url(#bx);}.bo{fill:url(#by);}.bp{fill:url(#bz);}.bq{opacity:0.7;}</style><linearGradient id="a" x1="0.348" y1="1.158" x2="0.705" y2="-0.046" gradientUnits="objectBoundingBox"><stop offset="0" stop-color="#dae3fe"/><stop offset="1" stop-color="#e9effd"/></linearGradient><linearGradient id="b" x1="0.266" y1="0.887" x2="0.896" y2="-0.138" gradientUnits="objectBoundingBox"><stop offset="0" stop-color="#a737d5"/><stop offset="1" stop-color="#ef497a"/></linearGradient><linearGradient id="c" x1="0.438" y1="1.81" x2="0.601" y2="-1.656" gradientUnits="objectBoundingBox"><stop offset="0" stop-color="#b37cff"/><stop offset="1" stop-color="#f895e7"/></linearGradient><linearGradient id="d" x1="0.439" y1="1.783" x2="0.601" y2="-1.604" xlink:href="#c"/><linearGradient id="e" x1="0.439" y1="1.808" x2="0.599" y2="-1.653" xlink:href="#c"/><linearGradient id="f" x1="0.44" y1="1.786" x2="0.599" y2="-1.606" xlink:href="#c"/><linearGradient id="g" x1="0.439" y1="1.708" x2="0.6" y2="-1.486" xlink:href="#c"/><linearGradient id="h" x1="0.439" y1="1.688" x2="0.6" y2="-1.445" xlink:href="#c"/><linearGradient id="i" x1="0.44" y1="1.707" x2="0.598" y2="-1.485" xlink:href="#c"/><linearGradient id="j" x1="0.44" y1="1.688" x2="0.599" y2="-1.443" xlink:href="#c"/><linearGradient id="k" x1="0.44" y1="1.619" x2="0.599" y2="-1.338" xlink:href="#c"/><linearGradient id="l" x1="0.625" y1="-0.461" x2="0.78" y2="-1.63" gradientUnits="objectBoundingBox"><stop offset="0" stop-color="#4042e2"/><stop offset="1" stop-color="#4f52ff"/></linearGradient><linearGradient id="m" x1="0.638" y1="-1.065" x2="0.564" y2="-0.244" xlink:href="#l"/><linearGradient id="n" x1="0.497" y1="0.773" x2="0.537" y2="-4.919" xlink:href="#l"/><linearGradient id="o" x1="0" y1="0.5" x2="1" y2="0.5" xlink:href="#a"/><linearGradient id="ac" x1="2.366" y1="-5.21" x2="0.337" y2="0.998" gradientUnits="objectBoundingBox"><stop offset="0" stop-color="#fe7062"/><stop offset="1" stop-color="#ff928e"/></linearGradient><linearGradient id="ad" x1="0.6" y1="-0.067" x2="1.171" y2="-2.263" xlink:href="#ac"/><linearGradient id="ae" x1="0.353" y1="0.982" x2="0.51" y2="0.272" xlink:href="#ac"/><linearGradient id="af" x1="-770.955" y1="253.113" x2="-773.671" y2="256.157" gradientUnits="objectBoundingBox"><stop offset="0" stop-color="#ff928e"/><stop offset="1" stop-color="#feb3b1"/></linearGradient><linearGradient id="ag" x1="-11.294" y1="-25.387" x2="-10.449" y2="-72.103" gradientUnits="objectBoundingBox"><stop offset="0" stop-color="#09005d"/><stop offset="1" stop-color="#1a0f91"/></linearGradient><linearGradient id="ah" x1="-77.139" y1="-53.643" x2="-77.535" y2="-48.999" xlink:href="#ag"/><linearGradient id="ai" x1="-296.4" y1="-67.587" x2="-297.351" y2="-63.445" xlink:href="#af"/><linearGradient id="aj" x1="-72.742" y1="-301.1" x2="-71.896" y2="-347.817" xlink:href="#ag"/><linearGradient id="ak" x1="-73.944" y1="-52.655" x2="-74.34" y2="-48.047" xlink:href="#ag"/><linearGradient id="al" x1="-292.799" y1="-57.119" x2="-293.765" y2="-53.581" xlink:href="#af"/><linearGradient id="am" x1="1.475" y1="-0.209" x2="0.177" y2="0.773" xlink:href="#ag"/><linearGradient id="an" x1="-663.654" y1="0.429" x2="-659.943" y2="-1.257" gradientUnits="objectBoundingBox"><stop offset="0" stop-color="#53d8ff"/><stop offset="1" stop-color="#3840f7"/></linearGradient><linearGradient id="ao" x1="-136.945" y1="-23.071" x2="-137.534" y2="-22.451" xlink:href="#af"/><linearGradient id="ap" x1="1.072" y1="-0.067" x2="-0.913" y2="2.133" xlink:href="#ac"/><linearGradient id="aq" x1="0.654" y1="-1.58" x2="0.577" y2="-0.582" xlink:href="#af"/><linearGradient id="ar" x1="0.679" y1="-0.2" x2="0.313" y2="2.043" xlink:href="#af"/><linearGradient id="as" x1="2.413" y1="0.018" x2="0.896" y2="0.398" xlink:href="#af"/><linearGradient id="at" x1="-100.697" y1="-39.045" x2="-99.613" y2="-39.045" xlink:href="#ag"/><linearGradient id="au" x1="5.959" y1="-1.902" x2="3.298" y2="-0.749" xlink:href="#af"/><linearGradient id="av" x1="21.126" y1="-1.394" x2="0.448" y2="0.512" gradientUnits="objectBoundingBox"><stop offset="0" stop-color="#e1473d"/><stop offset="1" stop-color="#e9605a"/></linearGradient><linearGradient id="aw" x1="-178.379" y1="0.024" x2="-181.19" y2="1.814" xlink:href="#ag"/><linearGradient id="ax" x1="-875.833" y1="-267.051" x2="-876.763" y2="-262.73" gradientUnits="objectBoundingBox"><stop offset="0" stop-color="#8d55d1"/><stop offset="0.996" stop-color="#1c2873"/></linearGradient><linearGradient id="ay" x1="-281.837" y1="-50.378" x2="-283.044" y2="-49.003" xlink:href="#af"/><linearGradient id="az" x1="-27.939" y1="1.387" x2="-0.437" y2="0.529" xlink:href="#ag"/><linearGradient id="ba" x1="-0.365" y1="1.471" x2="0.415" y2="0.595" xlink:href="#ag"/><linearGradient id="bb" x1="0" y1="0.5" x2="1" y2="0.5" xlink:href="#ag"/><linearGradient id="bh" x1="0" y1="0.5" x2="1" y2="0.5" xlink:href="#a"/><linearGradient id="bi" x1="0" y1="0.5" x2="1" y2="0.5" xlink:href="#a"/><linearGradient id="bk" x1="0" y1="0.5" x2="1" y2="0.5" xlink:href="#a"/><linearGradient id="bl" x1="-0.135" y1="1.147" x2="1.143" y2="-0.094" xlink:href="#ag"/><linearGradient id="bm" x1="-0.446" y1="0.132" x2="0.085" y2="1.251" gradientUnits="objectBoundingBox"><stop offset="0" stop-color="#febbba"/><stop offset="1" stop-color="#ff928e"/></linearGradient><linearGradient id="bn" x1="6.468" y1="0.5" x2="7.468" y2="0.5" xlink:href="#l"/><linearGradient id="bo" x1="-1.315" y1="1.602" x2="-0.28" y2="-1.187" xlink:href="#bm"/><linearGradient id="bp" x1="-1.37" y1="0.5" x2="-0.37" y2="0.5" xlink:href="#l"/><linearGradient id="bq" x1="1.592" y1="1.698" x2="2.056" y2="-1.193" xlink:href="#bm"/><linearGradient id="br" x1="4.267" y1="-0.698" x2="2.705" y2="-0.187" gradientUnits="objectBoundingBox"><stop offset="0" stop-color="#ff928e"/><stop offset="1" stop-color="#fe7062"/></linearGradient><linearGradient id="bs" x1="-0.365" y1="1.218" x2="0.959" y2="0.25" xlink:href="#l"/><linearGradient id="bt" x1="-2.304" y1="1.857" x2="-2.049" y2="0.807" xlink:href="#bm"/><linearGradient id="bu" x1="0.398" y1="0.5" x2="1.398" y2="0.5" xlink:href="#bm"/><linearGradient id="bv" x1="-1.956" y1="1.328" x2="-0.495" y2="-1.033" xlink:href="#bm"/><linearGradient id="bw" x1="-4.5" y1="5.372" x2="1.582" y2="-0.722" xlink:href="#ag"/><linearGradient id="bx" x1="-5.814" y1="3.259" x2="-0.498" y2="-4.349" xlink:href="#bm"/><linearGradient id="by" x1="-4.139" y1="1.104" x2="-2.627" y2="4.23" xlink:href="#bm"/><linearGradient id="bz" x1="-13.314" y1="-0.95" x2="-12.487" y2="-0.95" xlink:href="#bm"/></defs><g transform="translate(-23 -198.704)"><ellipse class="a" cx="162" cy="13" rx="162" ry="13" transform="translate(23 388)"/><g transform="translate(23.264 198.704)"><path class="b" d="M494.191,338.9c-5.208-5.667-12.948-9-18.591-14.317-9.115-8.591-11.654-21.3-11.289-33.165s3.189-23.625,2.982-35.5-4.065-24.513-14.34-31.972c-11.054-8.025-27.15-8.17-40.566-3.964s-24.922,12.107-36.649,19.319c-6.138,3.775-13.447,7.554-20.6,5.731-7.057-1.8-11.04-8.265-14.955-13.84-4.571-6.509-10.551-12.711-18.676-15.141-16.031-4.795-18.042.695-18.808,5.052-1.148,6.527-2.866,11.249-8.682,13.334s-12.472,1.165-18.334-.815-11.246-4.959-17.033-7.111c-9.25-3.44-19.774-4.679-29.352-2.063s-17.96,9.47-20.33,18.212c-3.963,14.62,8.813,30.4,2.854,44.463-4.11,9.7-15.638,14.867-23.377,22.571-14.916,14.848-13.946,39.084-1.525,55.685s33.933,26.247,55.769,30.115,44.335,2.646,66.566,1.7c34.935-1.482,69.928-2.237,104.886-1.289,14.456.392,29.068,1.065,43.258-1.449s28.188-8.635,36.5-19.273S503.4,348.918,494.191,338.9Z" transform="translate(-176.42 -200.984)"/><g transform="translate(18.366 29.565)"><g transform="translate(110.214 0)"><path class="c" d="M1101.38,324.856a2.742,2.742,0,0,0-2.978-2.669l-76.22,6.6a2.78,2.78,0,0,0-2.549,2.731V484.742a2.724,2.724,0,0,0,2.83,2.627h79.815a2.648,2.648,0,0,0,2.741-2.719Z" transform="translate(-1019.633 -322.177)"/><g class="d" transform="translate(8.407 10.392)"><path class="e" d="M1081.823,415.708l-5.771.394c-.638.042-.918.631-.918,1.315V557.181c0,.7.05,1.263.694,1.263h6.072a1.229,1.229,0,0,0,1.181-1.269l-.087-140.3A1.12,1.12,0,0,0,1081.823,415.708Z" transform="translate(-1075.133 -411.93)"/><path class="e" d="M1171.272,409.6l-6.086.4a1.4,1.4,0,0,0-1.268,1.331l.146,140.659a1.316,1.316,0,0,0,1.284,1.273h6.151a1.16,1.16,0,0,0,1.092-1.278l-.235-141.2A1.061,1.061,0,0,0,1171.272,409.6Z" transform="translate(-1150.469 -406.745)"/><path class="e" d="M1266.547,403.408l-6.165.4a1.192,1.192,0,0,0-1.03,1.323l.3,141.59c0,.708.385,1.281,1.047,1.281h6.233a1.383,1.383,0,0,0,1.364-1.286l-.391-142.142A1.268,1.268,0,0,0,1266.547,403.408Z" transform="translate(-1231.447 -401.493)"/><path class="e" d="M1361.073,397.138l-6.246.41a1.286,1.286,0,0,0-1.145,1.339l.453,142.511a1.216,1.216,0,0,0,1.166,1.289h6.316a1.3,1.3,0,0,0,1.276-1.295l-.548-143.07A1.2,1.2,0,0,0,1361.073,397.138Z" transform="translate(-1311.488 -396.173)"/><path class="e" d="M1456.84,390.784l-6.329.415a1.39,1.39,0,0,0-1.263,1.355L1449.859,536a1.316,1.316,0,0,0,1.288,1.3h6.4a1.227,1.227,0,0,0,1.185-1.3l-.708-144.009A1.13,1.13,0,0,0,1456.84,390.784Z" transform="translate(-1392.578 -390.781)"/></g></g><g transform="translate(0 22.363)"><path class="f" d="M354.064,471.6a1.82,1.82,0,0,0-1.767-1.795H293.889a1.951,1.951,0,0,0-1.855,1.889V608.012a2.818,2.818,0,0,0,2.815,2.742l59.028-.161a2.754,2.754,0,0,0,1.957-.824,2.815,2.815,0,0,0,.785-2Z" transform="translate(-292.034 -469.81)"/><g class="g" transform="translate(3.257 5.861)"><path class="e" d="M367.714,508.5H314.092c-.31,0-.559.386-.556.7l.032,4.039a.6.6,0,0,0,.565.6l53.673.031a.637.637,0,0,0,.653-.555v-3.986C368.458,509.02,368.026,508.5,367.714,508.5Z" transform="translate(-313.536 -508.502)"/><path class="e" d="M368.37,575.322l-53.591-.029a.578.578,0,0,0-.578.568l.02,3.962a.565.565,0,0,0,.558.569l53.593.044a.646.646,0,0,0,.65-.569v-3.974A.65.65,0,0,0,368.37,575.322Z" transform="translate(-314.101 -565.176)"/><path class="e" d="M368.809,640.225l-53.514-.058a.576.576,0,0,0-.577.567l.02,3.951a.564.564,0,0,0,.557.567l53.517.073a.644.644,0,0,0,.649-.567v-3.962A.65.65,0,0,0,368.809,640.225Z" transform="translate(-314.539 -620.223)"/><path class="e" d="M369.247,704.943l-53.438-.087a.575.575,0,0,0-.576.565l.02,3.939a.563.563,0,0,0,.557.566l53.44.1a.643.643,0,0,0,.648-.565v-3.951A.649.649,0,0,0,369.247,704.943Z" transform="translate(-314.976 -675.113)"/><path class="e" d="M369.684,769.476l-53.362-.116a.573.573,0,0,0-.575.563l.02,3.928a.562.562,0,0,0,.556.564l53.364.131a.641.641,0,0,0,.647-.563v-3.94A.648.648,0,0,0,369.684,769.476Z" transform="translate(-315.412 -729.846)"/><path class="e" d="M370.118,833.825l-53.286-.145a.572.572,0,0,0-.575.561l.02,3.917a.561.561,0,0,0,.555.563l53.289.16a.64.64,0,0,0,.647-.562V834.39A.648.648,0,0,0,370.118,833.825Z" transform="translate(-315.846 -784.423)"/><path class="e" d="M370.553,897.991l-53.21-.173a.57.57,0,0,0-.574.559l.02,3.906a.561.561,0,0,0,.554.562l53.213.188a.639.639,0,0,0,.646-.56v-3.917A.647.647,0,0,0,370.553,897.991Z" transform="translate(-316.279 -838.846)"/><path class="e" d="M370.985,961.975l-53.134-.2a.569.569,0,0,0-.573.557l.02,3.895a.56.56,0,0,0,.553.561l53.138.216a.637.637,0,0,0,.645-.558v-3.906A.646.646,0,0,0,370.985,961.975Z" transform="translate(-316.711 -893.113)"/><path class="e" d="M371.417,1025.777l-53.059-.23a.567.567,0,0,0-.572.555l.02,3.884a.559.559,0,0,0,.553.559l53.062.244a.636.636,0,0,0,.644-.556v-3.9A.645.645,0,0,0,371.417,1025.777Z" transform="translate(-317.142 -947.227)"/><path class="e" d="M371.815,1084.692l-52.989-.255a.566.566,0,0,0-.572.553l.02,3.874a.558.558,0,0,0,.552.558l52.993.27a.634.634,0,0,0,.643-.554v-3.885A.645.645,0,0,0,371.815,1084.692Z" transform="translate(-317.539 -997.196)"/><path class="e" d="M372.244,1148.146l-52.915-.283a.564.564,0,0,0-.571.552l.02,3.863a.557.557,0,0,0,.551.557l52.918.3a.633.633,0,0,0,.643-.552V1148.7A.644.644,0,0,0,372.244,1148.146Z" transform="translate(-317.968 -1051.014)"/><path class="e" d="M372.673,1211.42l-52.84-.311a.563.563,0,0,0-.57.55l.019,3.852a.556.556,0,0,0,.55.556l52.843.325a.631.631,0,0,0,.642-.55v-3.863A.643.643,0,0,0,372.673,1211.42Z" transform="translate(-318.395 -1104.681)"/><path class="e" d="M373.1,1274.517l-52.765-.339a.561.561,0,0,0-.569.548l.019,3.841a.556.556,0,0,0,.55.554l52.769.353a.63.63,0,0,0,.641-.549v-3.852A.642.642,0,0,0,373.1,1274.517Z" transform="translate(-318.821 -1158.196)"/></g></g><g transform="translate(223.896 22.363)"><path class="f" d="M1832.172,472.561a2.794,2.794,0,0,0-2.741-2.751h-56.476a2.924,2.924,0,0,0-2.83,2.863V608.012a2.818,2.818,0,0,0,2.815,2.742l59.028-.161a2.754,2.754,0,0,0,1.957-.824,2.815,2.815,0,0,0,.785-2Z" transform="translate(-1770.124 -469.81)"/><g class="g" transform="translate(3.91 5.211)"><path class="e" d="M1811.017,504.212h-14.592c-.434,0-.488.928-.488,1.392v2.641c0,.464.054.841.488.841h14.592a.862.862,0,0,0,.842-.841V505.6C1811.859,505.14,1811.451,504.212,1811.017,504.212Z" transform="translate(-1795.936 -504.212)"/><path class="e" d="M1939.766,504.212h-14.592c-.434,0-.523.928-.523,1.392v2.641c0,.464.089.841.523.841h14.592c.434,0,.483-.377.483-.841V505.6C1940.249,505.14,1940.2,504.212,1939.766,504.212Z" transform="translate(-1905.154 -504.212)"/><path class="e" d="M2066.7,504.212H2052.1c-.434,0-.882.928-.882,1.392v2.641a.9.9,0,0,0,.882.841H2066.7c.434,0,1.1-.377,1.1-.841V505.6C2067.794,505.14,2067.129,504.212,2066.7,504.212Z" transform="translate(-2012.551 -504.212)"/><g transform="translate(0 11.373)"><path class="e" d="M1811.017,579.3h-14.592c-.434,0-.488,0-.488.464V582.4c0,.464.054,1.119.488,1.119h14.592c.434,0,.842-.655.842-1.119V579.76C1811.859,579.3,1811.451,579.3,1811.017,579.3Z" transform="translate(-1795.936 -579.296)"/><path class="e" d="M1939.766,579.3h-14.592c-.434,0-.523,0-.523.464V582.4c0,.464.089,1.119.523,1.119h14.592c.434,0,.483-.655.483-1.119V579.76C1940.249,579.3,1940.2,579.3,1939.766,579.3Z" transform="translate(-1905.154 -579.296)"/><path class="e" d="M2066.7,579.3H2052.1c-.434,0-.882,0-.882.464V582.4c0,.464.448,1.119.882,1.119H2066.7a1.41,1.41,0,0,0,1.1-1.119V579.76C2067.794,579.3,2067.129,579.3,2066.7,579.3Z" transform="translate(-2012.551 -579.296)"/></g><g transform="translate(0 21.447)"><path class="e" d="M1811.017,645.8h-14.592c-.434,0-.488.371-.488.835v2.641c0,.464.054.748.488.748h14.592a.784.784,0,0,0,.842-.748v-2.641A.857.857,0,0,0,1811.017,645.8Z" transform="translate(-1795.936 -645.798)"/><path class="e" d="M1939.766,645.8h-14.592c-.434,0-.523.371-.523.835v2.641c0,.464.089.748.523.748h14.592c.434,0,.483-.284.483-.748v-2.641C1940.249,646.169,1940.2,645.8,1939.766,645.8Z" transform="translate(-1905.154 -645.798)"/><path class="e" d="M2066.7,645.8H2052.1a.893.893,0,0,0-.882.835v2.641a.821.821,0,0,0,.882.748H2066.7c.434,0,1.1-.284,1.1-.748v-2.641C2067.794,646.169,2067.129,645.8,2066.7,645.8Z" transform="translate(-2012.551 -645.798)"/></g><g transform="translate(0 32.17)"><path class="e" d="M1811.017,716.591h-14.592c-.434,0-.488.093-.488.557v2.641c0,.464.054,1.026.488,1.026h14.592c.434,0,.842-.562.842-1.026v-2.641C1811.859,716.684,1811.451,716.591,1811.017,716.591Z" transform="translate(-1795.936 -716.591)"/><path class="e" d="M1939.766,716.591h-14.592c-.434,0-.523.093-.523.557v2.641c0,.464.089,1.026.523,1.026h14.592c.434,0,.483-.562.483-1.026v-2.641C1940.249,716.684,1940.2,716.591,1939.766,716.591Z" transform="translate(-1905.154 -716.591)"/><path class="e" d="M2066.7,716.591H2052.1c-.434,0-.882.093-.882.557v2.641a1.083,1.083,0,0,0,.882,1.026H2066.7a1.3,1.3,0,0,0,1.1-1.026v-2.641C2067.794,716.684,2067.129,716.591,2066.7,716.591Z" transform="translate(-2012.551 -716.591)"/></g><g transform="translate(0 41.919)"><path class="e" d="M1811.017,780.949h-14.592c-.434,0-.488.789-.488,1.253v2.641c0,.464.054.655.488.655h14.592c.434,0,.842-.19.842-.655V782.2C1811.859,781.738,1811.451,780.949,1811.017,780.949Z" transform="translate(-1795.936 -780.949)"/><path class="e" d="M1939.766,780.949h-14.592c-.434,0-.523.789-.523,1.253v2.641c0,.464.089.655.523.655h14.592c.434,0,.483-.19.483-.655V782.2C1940.249,781.738,1940.2,780.949,1939.766,780.949Z" transform="translate(-1905.154 -780.949)"/><path class="e" d="M2066.7,780.949H2052.1c-.434,0-.882.789-.882,1.253v2.641c0,.464.448.655.882.655H2066.7c.434,0,1.1-.19,1.1-.655V782.2C2067.794,781.738,2067.129,780.949,2066.7,780.949Z" transform="translate(-2012.551 -780.949)"/></g><g transform="translate(0 52.643)"><path class="e" d="M1811.017,851.742h-14.592c-.434,0-.488.511-.488.975v2.641c0,.464.054.608.488.608h14.592c.434,0,.842-.144.842-.608v-2.641A.993.993,0,0,0,1811.017,851.742Z" transform="translate(-1795.936 -851.742)"/><path class="e" d="M1939.766,851.742h-14.592c-.434,0-.523.511-.523.975v2.641c0,.464.089.608.523.608h14.592c.434,0,.483-.144.483-.608v-2.641C1940.249,852.253,1940.2,851.742,1939.766,851.742Z" transform="translate(-1905.154 -851.742)"/><path class="e" d="M2066.7,851.742H2052.1a1.028,1.028,0,0,0-.882.975v2.641c0,.464.448.608.882.608H2066.7c.434,0,1.1-.144,1.1-.608v-2.641C2067.794,852.253,2067.129,851.742,2066.7,851.742Z" transform="translate(-2012.551 -851.742)"/></g><g transform="translate(0 62.716)"><path class="e" d="M1811.017,918.245h-14.592c-.434,0-.488.883-.488,1.347v2.641c0,.464.054.886.488.886h14.592a.9.9,0,0,0,.842-.886v-2.641C1811.859,919.128,1811.451,918.245,1811.017,918.245Z" transform="translate(-1795.936 -918.245)"/><path class="e" d="M1939.766,918.245h-14.592c-.434,0-.523.883-.523,1.347v2.641c0,.464.089.886.523.886h14.592c.434,0,.483-.422.483-.886v-2.641C1940.249,919.128,1940.2,918.245,1939.766,918.245Z" transform="translate(-1905.154 -918.245)"/><path class="e" d="M2066.7,918.245H2052.1c-.434,0-.882.883-.882,1.347v2.641a.94.94,0,0,0,.882.886H2066.7c.434,0,1.1-.422,1.1-.886v-2.641C2067.794,919.128,2067.129,918.245,2066.7,918.245Z" transform="translate(-2012.551 -918.245)"/></g><g transform="translate(0 73.44)"><path class="e" d="M1811.017,989.038h-14.592c-.434,0-.488.6-.488,1.068v2.641c0,.464.054,1.165.488,1.165h14.592c.434,0,.842-.7.842-1.165v-2.641C1811.859,989.642,1811.451,989.038,1811.017,989.038Z" transform="translate(-1795.936 -989.038)"/><path class="e" d="M1939.766,989.038h-14.592c-.434,0-.523.6-.523,1.068v2.641c0,.464.089,1.165.523,1.165h14.592c.434,0,.483-.7.483-1.165v-2.641C1940.249,989.642,1940.2,989.038,1939.766,989.038Z" transform="translate(-1905.154 -989.038)"/><path class="e" d="M2066.7,989.038H2052.1c-.434,0-.882.6-.882,1.068v2.641c0,.464.448,1.165.882,1.165H2066.7a1.466,1.466,0,0,0,1.1-1.165v-2.641A1.351,1.351,0,0,0,2066.7,989.038Z" transform="translate(-2012.551 -989.038)"/></g><g transform="translate(0 83.838)"><path class="e" d="M1811.017,1057.686h-14.592c-.434,0-.488.651-.488,1.115v2.641c0,.464.054.793.488.793h14.592a.821.821,0,0,0,.842-.793V1058.8C1811.859,1058.337,1811.451,1057.686,1811.017,1057.686Z" transform="translate(-1795.936 -1057.686)"/><path class="e" d="M1939.766,1057.686h-14.592c-.434,0-.523.651-.523,1.115v2.641c0,.464.089.793.523.793h14.592c.434,0,.483-.329.483-.793V1058.8C1940.249,1058.337,1940.2,1057.686,1939.766,1057.686Z" transform="translate(-1905.154 -1057.686)"/><path class="e" d="M2066.7,1057.686H2052.1c-.434,0-.882.651-.882,1.115v2.641a.857.857,0,0,0,.882.793H2066.7c.434,0,1.1-.329,1.1-.793V1058.8A1.4,1.4,0,0,0,2066.7,1057.686Z" transform="translate(-2012.551 -1057.686)"/></g><g transform="translate(0 94.562)"><path class="e" d="M1811.017,1128.479h-14.592c-.434,0-.488.372-.488.836v2.641c0,.464.054,1.072.488,1.072h14.592c.434,0,.842-.607.842-1.072v-2.641A.858.858,0,0,0,1811.017,1128.479Z" transform="translate(-1795.936 -1128.479)"/><path class="e" d="M1939.766,1128.479h-14.592c-.434,0-.523.372-.523.836v2.641c0,.464.089,1.072.523,1.072h14.592c.434,0,.483-.607.483-1.072v-2.641C1940.249,1128.851,1940.2,1128.479,1939.766,1128.479Z" transform="translate(-1905.154 -1128.479)"/><path class="e" d="M2066.7,1128.479H2052.1a.894.894,0,0,0-.882.836v2.641c0,.464.448,1.072.882,1.072H2066.7a1.354,1.354,0,0,0,1.1-1.072v-2.641C2067.794,1128.851,2067.129,1128.479,2066.7,1128.479Z" transform="translate(-2012.551 -1128.479)"/></g><g transform="translate(0 105.285)"><path class="e" d="M1811.017,1199.272h-14.592c-.434,0-.488.094-.488.558v2.641c0,.464.054.7.488.7h14.592a.749.749,0,0,0,.842-.7v-2.641C1811.859,1199.366,1811.451,1199.272,1811.017,1199.272Z" transform="translate(-1795.936 -1199.272)"/><path class="e" d="M1939.766,1199.272h-14.592c-.434,0-.523.094-.523.558v2.641c0,.464.089.7.523.7h14.592c.434,0,.483-.236.483-.7v-2.641C1940.249,1199.366,1940.2,1199.272,1939.766,1199.272Z" transform="translate(-1905.154 -1199.272)"/><path class="e" d="M2066.7,1199.272H2052.1c-.434,0-.882.094-.882.558v2.641c0,.464.448.7.882.7H2066.7c.434,0,1.1-.236,1.1-.7v-2.641C2067.794,1199.366,2067.129,1199.272,2066.7,1199.272Z" transform="translate(-2012.551 -1199.272)"/></g><g transform="translate(0 115.359)"><path class="e" d="M1811.017,1265.775h-14.592c-.434,0-.488.465-.488.93v2.641c0,.464.054.653.488.653h14.592c.434,0,.842-.189.842-.653V1266.7A.946.946,0,0,0,1811.017,1265.775Z" transform="translate(-1795.936 -1265.775)"/><path class="e" d="M1939.766,1265.775h-14.592c-.434,0-.523.465-.523.93v2.641c0,.464.089.653.523.653h14.592c.434,0,.483-.189.483-.653V1266.7C1940.249,1266.24,1940.2,1265.775,1939.766,1265.775Z" transform="translate(-1905.154 -1265.775)"/><path class="e" d="M2066.7,1265.775H2052.1a.982.982,0,0,0-.882.93v2.641c0,.464.448.653.882.653H2066.7c.434,0,1.1-.189,1.1-.653V1266.7C2067.794,1266.24,2067.129,1265.775,2066.7,1265.775Z" transform="translate(-2012.551 -1265.775)"/></g></g></g><g transform="translate(54.559 41.532)"><path class="f" d="M712.921,599.062a2.742,2.742,0,0,0-2.851-2.7l-56.156,2.251a1.767,1.767,0,0,0-1.7,1.808l2.851,120.048,56.781-.693a2.742,2.742,0,0,0,2.708-2.78Z" transform="translate(-652.218 -596.359)"/><g class="g" transform="translate(6.334 9.114)"><path class="e" d="M703.178,672.1l-9.036-.066-.107-15.513h9.056Z" transform="translate(-694.034 -656.524)"/><path class="e" d="M789.16,672.075l-9-.066-.078-15.484H789.1Z" transform="translate(-767.045 -656.524)"/><path class="e" d="M879.571,672.044l-8.967-.066-.048-15.454h8.987Z" transform="translate(-843.816 -656.524)"/><path class="e" d="M967.556,672.188l-9.081-.153-.167-15.511h9.247Z" transform="translate(-918.277 -656.524)"/><g transform="translate(0.152 22.208)"><path class="e" d="M704.155,819.275l-9.008.048-.106-15.331,9.028-.029Z" transform="translate(-695.04 -803.838)"/><path class="e" d="M789.868,818.976l-8.975.048-.078-15.3,8.994-.028Z" transform="translate(-767.823 -803.609)"/><path class="e" d="M880,818.663l-8.94.048-.048-15.273,8.959-.028Z" transform="translate(-844.355 -803.368)"/><path class="e" d="M968.644,818.358l-9.053.048.054-15.244,9-.028Z" transform="translate(-919.518 -803.134)"/></g><g transform="translate(0.309 44.658)"><path class="e" d="M705.158,968.234l-8.979.077-.105-15.233,9-.058Z" transform="translate(-696.073 -952.767)"/><path class="e" d="M790.6,967.661l-8.946.077-.077-15.2,8.965-.057Z" transform="translate(-768.621 -952.304)"/><path class="e" d="M880.436,967.057l-8.911.076-.048-15.175,8.93-.057Z" transform="translate(-844.908 -951.817)"/><path class="e" d="M968.8,966.473l-9.025.076.055-15.147,8.97-.057Z" transform="translate(-919.833 -951.345)"/></g><g transform="translate(0.464 66.966)"><path class="e" d="M706.153,1115.885l-8.951.105-.1-14.776,8.97-.086Z" transform="translate(-697.1 -1100.747)"/><path class="e" d="M791.317,1115.04l-8.918.1-.075-14.749,8.937-.086Z" transform="translate(-769.415 -1100.053)"/><path class="e" d="M880.871,1114.152l-8.883.1-.046-14.721,8.9-.086Z" transform="translate(-845.457 -1099.324)"/><path class="e" d="M968.958,1113.29l-9,.1.055-14.693,8.942-.085Z" transform="translate(-920.143 -1098.616)"/></g><g transform="translate(0.619 89.133)"><path class="e" d="M707.143,1262.956l-8.922.133-.1-14.682,8.941-.115Z" transform="translate(-698.12 -1247.787)"/><path class="e" d="M792.035,1261.843l-8.89.133-.074-14.656,8.908-.114Z" transform="translate(-770.203 -1246.865)"/><path class="e" d="M881.3,1260.673l-8.855.132-.046-14.628,8.874-.114Z" transform="translate(-846.003 -1245.896)"/><path class="e" d="M969.115,1259.538l-8.969.132.055-14.6,8.914-.113Z" transform="translate(-920.455 -1244.955)"/></g></g></g><g transform="translate(176.013 59.604)"><path class="h" d="M1518.868,718.355a2.742,2.742,0,0,0-2.829-2.693l-59.369,1.9a2.742,2.742,0,0,0-2.653,2.822l2.929,98.323a2.742,2.742,0,0,0,2.767,2.66l58.175-.566a2.742,2.742,0,0,0,2.715-2.789Z" transform="translate(-1454.017 -715.661)"/><g transform="translate(4.868 7.29)"><path class="i" d="M1539.946,763.787h-52.868a.884.884,0,0,0-.922.868l.05,4.669a1.069,1.069,0,0,0,.945,1.045l53.019.056a1.025,1.025,0,0,0,.914-1.057l-.161-4.7A.948.948,0,0,0,1539.946,763.787Z" transform="translate(-1486.157 -763.787)"/><path class="j" d="M1540.906,830.364l-53.1-.088a.981.981,0,0,0-.924.984l.051,4.717a.99.99,0,0,0,.948.964l53.25.147a.944.944,0,0,0,.922-.967l-.162-4.76A1.055,1.055,0,0,0,1540.906,830.364Z" transform="translate(-1486.774 -820.204)"/><path class="k" d="M1541.887,900.04l-53.338-.182c-.519,0-.937.238-.931.734l.051,4.758a.916.916,0,0,0,.951.877l53.483.238a.871.871,0,0,0,.929-.877l-.164-4.8C1542.852,900.287,1542.416,900.042,1541.887,900.04Z" transform="translate(-1487.396 -879.247)"/><path class="l" d="M1542.865,967.988l-53.573-.273a.857.857,0,0,0-.934.836l.052,4.8c.005.5.432.786.954.789l53.719.331c.532,0,.953-.277.936-.785l-.165-4.844A.929.929,0,0,0,1542.865,967.988Z" transform="translate(-1488.024 -936.825)"/><path class="m" d="M1543.851,1036.529l-53.809-.366a.937.937,0,0,0-.937.939l.052,4.842a1.082,1.082,0,0,0,.962,1.061l53.965.428a1.016,1.016,0,0,0,.931-1.055l-.167-4.888A1.021,1.021,0,0,0,1543.851,1036.529Z" transform="translate(-1488.658 -994.904)"/><path class="n" d="M1544.845,1105.67l-54.047-.461a1.029,1.029,0,0,0-.94,1.044l.053,4.885a1,1,0,0,0,.965.973l54.2.524a.935.935,0,0,0,.938-.963l-.168-4.931A1.126,1.126,0,0,0,1544.845,1105.67Z" transform="translate(-1489.297 -1053.491)"/><path class="o" d="M1545.861,1177.834l-54.3-.561c-.528-.005-.953.272-.948.786l.053,4.929a.921.921,0,0,0,.968.883l54.447.621a.862.862,0,0,0,.946-.869l-.17-4.976A.9.9,0,0,0,1545.861,1177.834Z" transform="translate(-1489.942 -1114.64)"/><path class="p" d="M1546.874,1248.22l-54.539-.659a.9.9,0,0,0-.95.891l.054,4.973c.006.521.439.785.971.792l54.691.721c.542.007.972-.248.954-.774l-.171-5.021A.987.987,0,0,0,1546.874,1248.22Z" transform="translate(-1490.593 -1174.281)"/><path class="q" d="M1547.9,1319.232l-54.784-.759a.983.983,0,0,0-.954,1l.055,5.017a1.09,1.09,0,0,0,.979,1.073l54.946.825a1.007,1.007,0,0,0,.949-1.054l-.173-5.066A1.089,1.089,0,0,0,1547.9,1319.232Z" transform="translate(-1491.248 -1234.451)"/></g></g></g><g transform="translate(0 4.773)"><g transform="translate(55.959)"><path class="r" d="M589.807,286.544s1.053-27.612-11.563-35.186-36.738-12.543-37.077-52.218c-.2-23.227-.627-33.387-.949-37.819a2.615,2.615,0,0,1,3.128-2.755c12.016,2.442,51.023,12.346,58.847,39.179C611.467,229.555,589.807,286.544,589.807,286.544Z" transform="translate(-540.211 -158.512)"/><path class="c" d="M618.178,233.815c1.793,1.72,3.481,3.529,5.139,5.37.821.927,1.648,1.849,2.443,2.8l1.2,1.415,1.174,1.44q4.674,5.777,8.86,11.929c1.36,2.071,2.748,4.125,4.017,6.255l.972,1.585.486.793.463.806,1.845,3.228.46.808.435.822.87,1.643.87,1.643.435.822c.14.276.272.557.409.835l1.625,3.346.406.837c.067.14.137.278.2.419l.187.427.748,1.709c.258.566.476,1.149.708,1.726s.463,1.154.683,1.735l.629,1.756.314.878.286.887.572,1.774.519,1.79.259.9c.084.3.156.6.235.9l.464,1.805a104.4,104.4,0,0,1,2.453,14.686c.237,2.471.4,4.949.478,7.429s.09,4.962.015,7.442-.23,4.956-.463,7.426-.539,4.928-1,7.382a.327.327,0,0,1-.643-.115v-.009c.207-1.2.367-2.428.508-3.649s.265-2.448.361-3.676q.3-3.683.361-7.38a119.916,119.916,0,0,0-.6-14.751c-.068-.612-.12-1.225-.2-1.835l-.234-1.831c-.079-.61-.181-1.217-.27-1.825l-.135-.913c-.047-.3-.1-.606-.155-.909l-.316-1.818-.362-1.809c-.061-.3-.118-.6-.183-.9l-.205-.9c-.138-.6-.27-1.2-.413-1.8l-.461-1.785c-.078-.3-.15-.6-.233-.892l-.256-.886-.515-1.77-.567-1.754-.283-.877-.311-.867-.623-1.734c-.217-.574-.451-1.142-.676-1.714s-.445-1.145-.7-1.7l-.74-1.687-.185-.422c-.063-.14-.132-.278-.2-.417l-.4-.834-1.595-3.334c-.134-.277-.263-.557-.4-.832l-.428-.819-.855-1.639-.855-1.639-.428-.819-.453-.806-1.816-3.221-.455-.8-.479-.791-.957-1.582c-.64-1.054-1.265-2.116-1.946-3.144l-2-3.113c-2.732-4.106-5.614-8.114-8.668-11.989a136.836,136.836,0,0,0-9.685-11.179l0,0a.185.185,0,0,1,.261-.263Z" transform="translate(-606.102 -222.365)"/></g><g transform="translate(17.098 56.459)"><path class="c" d="M348.609,665.07c1.728,1.332-13.224-28.021-11.446-68.983.838-19.3,5.566-42.739-3.25-53.934-7.336-9.318-38.468-10.711-48.706-10.916a1.51,1.51,0,0,0-1.215,2.45c3.925,4.938,12.143,16.375,12.859,26.362.944,13.163,11.174,23.5,21.34,27.8s15.64,7.582,17.356,25.587S343.7,661.286,348.609,665.07Z" transform="translate(-283.662 -531.237)"/><path class="f" d="M376.834,584.928s.3.066.852.213,1.358.373,2.366.714,2.224.783,3.591,1.359a49.179,49.179,0,0,1,9.513,5.281,41.4,41.4,0,0,1,5.079,4.242,36.645,36.645,0,0,1,4.549,5.451,33.539,33.539,0,0,1,3.417,6.5l.327.866.163.433.138.441c.18.59.368,1.174.532,1.771l.907,3.476.893,3.421c.286,1.131.54,2.26.8,3.364l.77,3.256c.254,1.063.458,2.113.681,3.129l.633,2.964c.2.958.367,1.89.542,2.781l.49,2.559.394,2.318c.253,1.453.448,2.726.607,3.773s.263,1.875.341,2.437l.107.867a.281.281,0,0,1-.554.085v-.008l-.154-.851-.463-2.406c-.2-1.036-.449-2.294-.762-3.731l-.487-2.291-.565-2.535-.619-2.754-.693-2.941c-.465-2.022-1-4.141-1.547-6.333-.277-1.1-.543-2.212-.842-3.338l-.9-3.419-.918-3.473c-.157-.563-.344-1.127-.51-1.693l-.13-.424-.155-.416-.309-.832a34.133,34.133,0,0,0-7.562-11.575,42.539,42.539,0,0,0-4.844-4.238,48.166,48.166,0,0,0-4.835-3.184c-1.559-.893-3.022-1.655-4.348-2.273s-2.506-1.106-3.488-1.481-1.762-.647-2.3-.819-.822-.252-.822-.252a.225.225,0,0,1,.107-.438Z" transform="translate(-362.487 -576.79)"/></g><g transform="translate(0 117.91)"><path class="r" d="M250.613,1014.527c1.162.613-6.548-12.658-7.139-24.35s-3.229-31.647-13.312-43.584-21.124-13.026-35.037-2.174c-11.594,9.043-18.826,13.607-23.067,14.456a1.6,1.6,0,0,0-1.075,2.337c2.72,5.01,10.411,16.517,23.325,15.706,16.472-1.033,36.435-11.741,42.519-2.809s5.3,13.931,5.49,18.164S242.92,1010.471,250.613,1014.527Z" transform="translate(-170.787 -936.916)"/><path class="c" d="M362.978,1034.935a35.991,35.991,0,0,1,2.906-2.328c1-.73,2.038-1.42,3.108-2.055a36.988,36.988,0,0,1,3.3-1.752,26.908,26.908,0,0,1,3.488-1.359,21.093,21.093,0,0,1,3.672-.8,15.526,15.526,0,0,1,3.775-.014l.47.069c.156.024.314.042.468.081.308.072.622.133.924.215s.6.171.9.263l.891.293a24.449,24.449,0,0,1,3.444,1.494,21.729,21.729,0,0,1,5.913,4.589,27.179,27.179,0,0,1,4.161,6.2c.552,1.117,1.041,2.262,1.489,3.421s.829,2.342,1.183,3.531a68.977,68.977,0,0,1,1.659,7.244.114.114,0,0,1-.223.042c-.5-2.417-1.086-4.817-1.822-7.169-.2-.584-.376-1.173-.589-1.75-.1-.289-.2-.582-.311-.869l-.331-.861c-.458-1.141-.956-2.265-1.514-3.358a27.713,27.713,0,0,0-4.14-6.034,21.108,21.108,0,0,0-5.768-4.436,23.771,23.771,0,0,0-3.361-1.44l-.872-.282c-.292-.089-.587-.169-.881-.253s-.587-.139-.88-.21a4.3,4.3,0,0,0-.445-.08l-.447-.069a17.329,17.329,0,0,0-7.191.745,32.641,32.641,0,0,0-6.721,2.946,44.99,44.99,0,0,0-6.094,4.153l0,0a.118.118,0,0,1-.153-.179Z" transform="translate(-333.832 -1012.949)"/></g></g><g transform="translate(60.125 75.328)"><path class="s" d="M772.673,633.526l-2.3,97.335,0,.088-.355,14.981a3.593,3.593,0,0,1-3.58,3.58H572.9a3.593,3.593,0,0,1-3.58-3.58l-.217-14.981v-.088l-1.393-96.147a6.236,6.236,0,0,1,6.565-5.519L693.7,626.1l69.718-1.8a9.025,9.025,0,0,1,9.254,9.225Z" transform="translate(-567.712 -624.297)"/><path class="t" d="M792.5,771.351a3.384,3.384,0,0,1-3.409,3.337H604.727a3.384,3.384,0,0,1-3.409-3.337l-1.534-103.79a5.894,5.894,0,0,1,6.252-5.149l180.178-4.567a8.7,8.7,0,0,1,6.294,2.454,8.319,8.319,0,0,1,2.522,6.154Z" transform="translate(-594.926 -652.76)"/><g transform="translate(16.604 51.026)"><path class="f" d="M764.913,964.309c-.06,1.71-1.228,3.129-2.61,3.135l-82.179.387a3.1,3.1,0,0,1-2.8-3.33h0a3.163,3.163,0,0,1,2.845-3.35h82.348c1.385,0,2.457,1.448,2.4,3.159Z" transform="translate(-677.323 -961.15)"/><path class="f" d="M728.142,1053.44a2.6,2.6,0,0,1-2.439,2.615l-42.136.509a2.538,2.538,0,0,1-2.5-2.633v-.166a2.649,2.649,0,0,1,2.542-2.691l42.211-.365a2.4,2.4,0,0,1,2.327,2.57Z" transform="translate(-680.499 -1037.143)"/><path class="f" d="M727.383,1137a2.6,2.6,0,0,1-2.429,2.612L683,1140.46a2.5,2.5,0,0,1-2.491-2.59v-.164a2.657,2.657,0,0,1,2.531-2.688l42.033-.705a2.363,2.363,0,0,1,2.318,2.529Z" transform="translate(-680.023 -1108.083)"/></g><path class="u" d="M778.177,1327.987,777.819,1343a3.536,3.536,0,0,1-3.58,3.514H580.7a3.536,3.536,0,0,1-3.58-3.514l-.217-15.009Z" transform="translate(-575.514 -1221.394)"/><path class="c" d="M600.185,727.585a.152.152,0,0,1-.151-.151V690.348a6.785,6.785,0,0,1,6.607-6.935h16.291a.151.151,0,0,1,0,.3H606.64a6.482,6.482,0,0,0-6.3,6.633v37.085A.151.151,0,0,1,600.185,727.585Z" transform="translate(-595.137 -674.458)"/><g class="v" transform="translate(125.977)"><path class="e" d="M1478.358,633.521l-2.3,97.306,0,.059h-43.281c0-33.145-5.8-56.517-12.568-72.959a116.152,116.152,0,0,0-6.513-13.4,84.071,84.071,0,0,0-9.518-13.622,38.779,38.779,0,0,0-4.8-4.805h.012l69.718-1.8a9.025,9.025,0,0,1,9.254,9.226Z" transform="translate(-1399.374 -624.292)"/></g><path class="c" d="M813.2,750.845,663.28,749.168c-4.888-.055-8.558,3.6-8.142,8.13.412,4.481,4.672,8.036,9.463,7.984l147.5-1.624c3-.033,5.675-2.869,6-6.36C818.423,753.779,816.244,750.879,813.2,750.845Z" transform="translate(-641.867 -730.251)"/><g transform="translate(110.882 49.389)"><path class="w" d="M1353.225,1128.29a6.984,6.984,0,1,1,6.984-6.984A6.992,6.992,0,0,1,1353.225,1128.29Zm0-13.025a6.041,6.041,0,1,0,6.041,6.041A6.047,6.047,0,0,0,1353.225,1115.265Z" transform="translate(-1339.194 -1089.483)"/><path class="w" d="M1372.876,1147.589a3.274,3.274,0,1,1,3.274-3.274A3.277,3.277,0,0,1,1372.876,1147.589Zm0-5.6a2.33,2.33,0,1,0,2.33,2.33A2.333,2.333,0,0,0,1372.876,1141.985Z" transform="translate(-1359.016 -1112.155)"/><path class="w" d="M1698.685,1128.29a6.984,6.984,0,1,1,6.984-6.984A6.992,6.992,0,0,1,1698.685,1128.29Zm0-13.025a6.041,6.041,0,1,0,6.041,6.041A6.047,6.047,0,0,0,1698.685,1115.265Z" transform="translate(-1632.325 -1089.483)"/><path class="w" d="M1718.336,1147.589a3.274,3.274,0,1,1,3.274-3.274A3.277,3.277,0,0,1,1718.336,1147.589Zm0-5.6a2.33,2.33,0,1,0,2.33,2.33A2.333,2.333,0,0,0,1718.336,1141.985Z" transform="translate(-1652.147 -1112.155)"/><path class="w" d="M1440.908,1162.484a.472.472,0,0,1-.008-.943l37.053-.659h.009a.472.472,0,0,1,.008.944l-37.053.659Z" transform="translate(-1419.121 -1128.99)"/><path class="w" d="M1306.267,985.174h-1.734a2.759,2.759,0,0,1-2.753-2.491l-2.011-20.031a9.726,9.726,0,0,1,8.858-10.661c11.246-.953,33-2.375,52.313-1.2a10.032,10.032,0,0,1,9.293,8.626c.195,1.411.387,2.811.547,4a3.65,3.65,0,0,0,2.782,3.056c.524.121,1.034.244,1.514.368a7.144,7.144,0,0,1,5.328,6.6l.216,5.638a3.587,3.587,0,0,1-3.584,3.724h-2.77a.472.472,0,0,1,0-.944h2.77a2.642,2.642,0,0,0,2.641-2.744l-.216-5.638a6.2,6.2,0,0,0-4.62-5.725c-.473-.122-.974-.243-1.49-.362a4.6,4.6,0,0,1-3.506-3.849c-.16-1.183-.352-2.583-.547-3.992a9.085,9.085,0,0,0-8.416-7.814c-19.257-1.172-40.956.247-52.176,1.2a8.782,8.782,0,0,0-8,9.627l2.011,20.031a1.818,1.818,0,0,0,1.815,1.642h1.734a.472.472,0,1,1,0,.944Z" transform="translate(-1299.718 -950.346)"/><path class="w" d="M1322,995.091a2.825,2.825,0,0,1-2.936-2.185,16.943,16.943,0,0,1,.155-6.036c.482-2.253,2.827-3.908,5.575-3.935l34.88-.351h.033a2.591,2.591,0,0,1,2.735,2.177l.517,6.933a2.338,2.338,0,0,1-.634,1.757,3.291,3.291,0,0,1-2.384,1.013l-37.881.627Zm.052-.472h0Zm37.654-11.092h-.023l-34.88.351c-2.31.023-4.271,1.365-4.661,3.189a16.006,16.006,0,0,0-.145,5.7,1.931,1.931,0,0,0,2.047,1.379h0l37.881-.627a2.346,2.346,0,0,0,1.7-.705,1.4,1.4,0,0,0,.39-1.051l-.517-6.933A1.682,1.682,0,0,0,1359.71,983.527Z" transform="translate(-1315.969 -977.7)"/><path class="w" d="M1320.9,1075.312a.472.472,0,0,1-.018-.943l44.448-1.707a.472.472,0,1,1,.036.943l-44.448,1.708Z" transform="translate(-1317.289 -1054.133)"/><path class="w" d="M1317.638,1090.171a.472.472,0,0,1-.016-.943l44.942-1.557a.472.472,0,1,1,.033.943l-44.942,1.557Z" transform="translate(-1314.524 -1066.869)"/><path class="w" d="M1619.477,1009.349a.472.472,0,0,1-.468-.419l-2.715-24.158a2.845,2.845,0,0,1,2.759-3.248l6.173-.125h.073a3.586,3.586,0,0,1,3.57,3.3l1.689,19.081a.472.472,0,1,1-.94.083l-1.69-19.084a2.643,2.643,0,0,0-2.629-2.432h-.054l-6.173.125a1.9,1.9,0,0,0-1.843,2.176l0,.016,2.715,24.165a.472.472,0,0,1-.416.522Z" transform="translate(-1568.316 -976.695)"/><path class="w" d="M1632.37,1020.184a1.448,1.448,0,0,1-1.438-1.276l-2.569-21.492a1.448,1.448,0,0,1,1.4-1.62l.815-.023a1.452,1.452,0,0,1,1.482,1.315h0l1.983,21.514a1.448,1.448,0,0,1-1.436,1.581h-.235Zm-1.754-23.468h-.014l-.814.023a.505.505,0,0,0-.487.564l2.569,21.492a.5.5,0,0,0,.5.445h.231a.5.5,0,0,0,.5-.551l-1.983-21.514A.506.506,0,0,0,1630.615,996.717Z" transform="translate(-1578.573 -988.892)"/><path class="w" d="M1662.76,1020.638a1.441,1.441,0,0,1-1.442-1.316c-.255-2.8-1.547-16.994-1.912-21.237a1.448,1.448,0,0,1,1.618-1.561l1.447.176a1.456,1.456,0,0,1,1.273,1.406l.463,21.052a1.448,1.448,0,0,1-1.448,1.48Zm-1.912-23.182a.5.5,0,0,0-.5.547h0c.365,4.241,1.656,18.431,1.911,21.233a.5.5,0,0,0,1.007-.057l-.464-21.052a.507.507,0,0,0-.443-.49l-1.447-.176A.5.5,0,0,0,1660.849,997.457Z" transform="translate(-1604.918 -989.52)"/><path class="w" d="M1708.844,997.26a3.054,3.054,0,0,1-3.012-2.542l-.931-5.436a2.82,2.82,0,0,1,2.637-3.292l4.919-.256a.472.472,0,1,1,.049.942l-4.92.256a1.876,1.876,0,0,0-1.755,2.191l.932,5.436a2.112,2.112,0,0,0,2.216,1.754l6.559-.408a.472.472,0,0,1,.059.942l-6.559.408C1708.972,997.258,1708.908,997.26,1708.844,997.26Z" transform="translate(-1643.491 -980.372)"/><path class="w" d="M1803.233,1090.594c-1.014,0-1.779-1.432-1.779-3.33s.765-3.331,1.779-3.331,1.779,1.432,1.779,3.331S1804.247,1090.594,1803.233,1090.594Zm0-5.717c-.295,0-.835.906-.835,2.387s.541,2.387.835,2.387.835-.906.835-2.387S1803.527,1084.876,1803.233,1084.876Z" transform="translate(-1725.453 -1063.698)"/></g><path class="c" d="M1732.1,1045.854h-20.679a.151.151,0,0,1,0-.3H1732.1a5.089,5.089,0,0,0,5.166-4.863V977.462a.151.151,0,0,1,.3,0v63.226A5.4,5.4,0,0,1,1732.1,1045.854Z" transform="translate(-1538.05 -923.837)"/></g><g transform="translate(270.126 89.067)"><g transform="translate(0)"><path class="c" d="M1977.062,824.729a2.39,2.39,0,0,1-3.918.624,72.873,72.873,0,0,1-18.329-59.839c3.715-27.044,3.16-42.061,2.436-48.861a1.5,1.5,0,0,1,2.6-1.17C1970.627,727.243,2002.657,768.815,1977.062,824.729Z" transform="translate(-1954.073 -714.993)"/><path class="f" d="M2032.188,998.955a.3.3,0,0,1-.289-.21,222.8,222.8,0,0,1-5.9-24.483c-2.493-13.346-5.084-33.4-3.275-53.133a.3.3,0,1,1,.6.055c-1.8,19.667.782,39.659,3.268,52.967a221.921,221.921,0,0,0,5.884,24.409.3.3,0,0,1-.288.4Z" transform="translate(-2011.81 -889.67)"/></g><g transform="translate(17.891 31.689)"><path class="r" d="M2077.611,1004.56c11.576-4.281,42.959-21.56,23.5-79.217a1.68,1.68,0,0,0-3.243.211c-1.538,7.946-4.518,21.675-9.913,28.609-16.714,21.481-16.487,39.635-15.291,47.479A3.7,3.7,0,0,0,2077.611,1004.56Z" transform="translate(-2072.185 -924.194)"/><g class="g" transform="translate(2.621 19.497)"><path class="c" d="M2090.155,1113.17a.667.667,0,0,1-.491-1.119,95.086,95.086,0,0,0,21.292-39.1,85.492,85.492,0,0,0,3.178-19.382.667.667,0,1,1,1.334.013,86.96,86.96,0,0,1-3.226,19.72,96.42,96.42,0,0,1-21.6,39.657A.666.666,0,0,1,2090.155,1113.17Z" transform="translate(-2089.488 -1052.904)"/></g></g></g><g transform="translate(254.043)"><circle class="x" cx="7.394" cy="7.394" r="7.394" transform="translate(28.366 120.342) rotate(-76.718)"/><g transform="translate(0 0)"><path class="y" d="M1934.413,160.2c0,14.063-21.182,49.942-32.216,67.639-.856,1.373-2.7,2.207-6.116,2.207-1.618,0-.982-.838-1.838-2.211-11.035-17.7-32.214-53.574-32.214-67.636,0-18.338,16.2-33.2,36.192-33.2S1934.413,141.866,1934.413,160.2Z" transform="translate(-1859.89 -127)"/><path class="z" d="M1920.285,160.2c0,14.063-21.182,49.942-32.216,67.639a4.684,4.684,0,0,1-7.954,0c-11.035-17.7-32.213-53.574-32.213-67.636,0-18.338,16.2-33.2,36.192-33.2S1920.285,141.866,1920.285,160.2Z" transform="translate(-1847.902 -127)"/><circle class="aa" cx="22.089" cy="22.089" r="22.089" transform="translate(5.836 34.73) rotate(-45)"/><circle class="aa" cx="16.06" cy="16.06" r="16.06" transform="translate(12.221 32.559) rotate(-45)"/><path class="aa" d="M1937.431,241.257a26.7,26.7,0,0,1-26.67-26.67.3.3,0,1,1,.606,0,26.06,26.06,0,1,0,5.159-15.568.3.3,0,0,1-.486-.362,26.913,26.913,0,0,1,9.235-7.814,26.381,26.381,0,0,1,12.156-2.925,26.67,26.67,0,1,1,0,53.34Z" transform="translate(-1901.239 -178.69)"/></g></g><g transform="translate(247.887 124.329)"><path class="ab" d="M1831.279,999.767a3.112,3.112,0,0,0,.385-1.408c-.046-.628.345-1.549-.071-1.481s-.5.013-.615.766S1829.849,1001.174,1831.279,999.767Z" transform="translate(-1826.999 -989.438)"/><g transform="translate(21.661 77.704)"><path class="ac" d="M1953.038,1487.017a8.192,8.192,0,0,1-2.705-.387c0,.151,0,.3,0,.463a.3.3,0,0,0,.286.3l8.323-.054a.38.38,0,0,0,.306-.553C1958.161,1486.881,1955.381,1487.083,1953.038,1487.017Z" transform="translate(-1950.321 -1482.712)"/><path class="ad" d="M1950.626,1461.871a1.527,1.527,0,0,1,1.518-1.114l.7.022a10.607,10.607,0,0,1,6.307,3.959.375.375,0,0,1,.033.063c-1.091.09-3.871.292-6.214.226a8.188,8.188,0,0,1-2.705-.387A10.456,10.456,0,0,1,1950.626,1461.871Z" transform="translate(-1950.26 -1460.757)"/></g><path class="ae" d="M1961.917,1445.143l-.581,2.8a.458.458,0,0,1-.391.377,3.874,3.874,0,0,1-.9-.014.575.575,0,0,1-.456-.676l.4-2.485Z" transform="translate(-1936.507 -1369.804)"/><g transform="translate(7.113 77.705)"><path class="af" d="M1860.467,1487.017a8.192,8.192,0,0,0,2.705-.387c0,.151,0,.3,0,.463a.3.3,0,0,1-.286.3l-8.323-.054a.38.38,0,0,1-.306-.553C1855.344,1486.881,1858.124,1487.083,1860.467,1487.017Z" transform="translate(-1854.215 -1482.713)"/><path class="ag" d="M1854.469,1464.845a.4.4,0,0,1,.033-.063,10.608,10.608,0,0,1,6.307-3.959l1.775-.056a8.516,8.516,0,0,1,.805,3.918,8.192,8.192,0,0,1-2.705.387C1858.34,1465.137,1855.56,1464.935,1854.469,1464.845Z" transform="translate(-1854.431 -1460.767)"/></g><path class="ah" d="M1897.327,1440.6c-.02.132-.263,2.143-.357,2.922a.386.386,0,0,1-.326.349,4.068,4.068,0,0,1-1.219-.019.525.525,0,0,1-.4-.527v-3.156Z" transform="translate(-1881.732 -1365.585)"/><path class="ai" d="M1896.058,1200.787a158.007,158.007,0,0,0-4.2,36.738.793.793,0,0,0,.629.772,9.24,9.24,0,0,0,1.984.23.736.736,0,0,0,.7-.614c.6-3.52,4.044-23.348,6.007-26.567,0,0,1.291,17.66.878,26.822a.434.434,0,0,0,.383.452,7.3,7.3,0,0,0,1.593,0,.581.581,0,0,0,.518-.493c.428-2.979,2.889-20.71,2.784-33.482-.006-.72-1.9-3.852-1.9-3.852Z" transform="translate(-1879.04 -1162.462)"/><path class="aj" d="M2006,1067.8a17.974,17.974,0,0,0,.737-7.068l-.32.037a17.627,17.627,0,0,1-.72,6.92Z" transform="translate(-1975.636 -1043.621)"/><g transform="translate(0.196 11.67)"><path class="ak" d="M1808.894,1038.66c-.961-5.226.418-13.839.418-13.839l1.878,1.946s.317,7.031,1.654,9.941A6.5,6.5,0,0,0,1808.894,1038.66Z" transform="translate(-1808.553 -1024.821)"/><path class="al" d="M1814.75,1040.541a2.392,2.392,0,0,0,.87,1.133c1.207.663,3.549-3.119,5.294-6.4,1.255-2.356,2.2-4.45,2.2-4.45,1.255-1.418,4.364-1.613,7.256-1.432a44.268,44.268,0,0,1,5.983.824l.012,0c1.386.182,2.589.335,3.458.446a4.148,4.148,0,0,1,2.616,1.406c2.657,3.074,8.489,11.495,1.625,19.98a12.8,12.8,0,0,1-2.974-2.175,10.494,10.494,0,0,0-.769-8.232,8.148,8.148,0,0,1-.2.789,48.716,48.716,0,0,0-2.305,14.063.439.439,0,0,1-.277.411c-2.886,1.157-8.444.468-10.308.191a.628.628,0,0,1-.526-.713c.556-4.03-.962-9.641-2.516-14.037-9.121,9.039-12.379,5.626-13.387.143A6.5,6.5,0,0,1,1814.75,1040.541Z" transform="translate(-1810.46 -1028.655)"/></g><path class="am" d="M1963.642,1170.76a11.622,11.622,0,0,0,5.1-5.833,12.8,12.8,0,0,0,2.974,2.174,24.7,24.7,0,0,1-5.436,4.834h0c-.083,1.808-1.473,2.478-1.791,3.063s.134.452-.067,1.188-2.309-1.171-2.812-1.607-.2-1.64-.2-1.64a6.811,6.811,0,0,0-.167-.753C1961.108,1171.686,1963.632,1170.763,1963.642,1170.76Z" transform="translate(-1937.912 -1132.034)"/><g transform="translate(17.621 0)"><path class="an" d="M1941.721,999.787l.557,5.684s-3.2.963-5.523-.678l1.635-5.166Z" transform="translate(-1934.759 -991.774)"/><path class="ao" d="M1932.6,965.2c-.038.1-.2,7.085-.2,7.085l3.991.007,1.136-6.6S1933.235,963.549,1932.6,965.2Z" transform="translate(-1931.065 -962.032)"/><path class="ap" d="M1928.68,952.268a.574.574,0,0,1,.179.472l-.321,3.47a.566.566,0,0,1-.036.153c-.106.271-.514,1.108-1.364.644a5.057,5.057,0,0,0-1.94-.767.573.573,0,0,0-.587.565,21.351,21.351,0,0,0,.155,3.154.571.571,0,0,0,.6.487,15.9,15.9,0,0,0,3.538-.586.573.573,0,0,0,.389-.443c.169-.916.653-3.481.9-4.184.231-.653,1.127-.88,1.545-.951a.576.576,0,0,0,.387-.252,1.263,1.263,0,0,0-.4-1.939.574.574,0,0,1-.178-.779,1.269,1.269,0,0,0-.342-1.833,1.788,1.788,0,0,0-2.156-.016.6.6,0,0,1-.714-.042.379.379,0,0,0-.368-.082.557.557,0,0,1-.689-.394,1.468,1.468,0,0,0-1.468-1.161c-1.767-.1-2.39,1.744-2.193,2.951s2.119,1.2,3.162.855A2.073,2.073,0,0,1,1928.68,952.268Z" transform="translate(-1923.586 -947.781)"/><path class="aq" d="M1966.168,991.289s-.252-2.117.575-2.433,1.835.176,1.277,1.541C1967.326,992.094,1966.168,991.289,1966.168,991.289Z" transform="translate(-1959.687 -982.556)"/></g><g transform="translate(13.415 19.242)"><path class="ar" d="M1896.264,1080.742h.012a.1.1,0,0,0,.087-.112c-.006-.044-.547-4.433-.253-5.7a.1.1,0,1,0-.2-.045c-.3,1.3.226,5.585.249,5.767A.1.1,0,0,0,1896.264,1080.742Z" transform="translate(-1895.823 -1074.809)"/></g><g transform="translate(0.84 5.289)"><path class="as" d="M1813.1,983.08a.4.4,0,0,1,.484-.371l2.871.653a.225.225,0,0,1,.173.244l-.835,7.461a.12.12,0,0,1-.045.082.121.121,0,0,1-.09.025l-2.505-.3a.4.4,0,0,1-.349-.41Z" transform="translate(-1812.803 -982.699)"/><path class="f" d="M1818.048,986.867a.224.224,0,0,1,.279-.205l1.889.472a.224.224,0,0,1,.169.243l-.717,6.353a.121.121,0,0,1-.048.084.122.122,0,0,1-.094.022l-1.742-.31a.121.121,0,0,1-.1-.126Z" transform="translate(-1816.945 -986.056)"/><path class="at" d="M1827.249,986.648c0,.023.026.048.069.057l.631.131c.043.009.081,0,.086-.025l0-.022c0-.022-.026-.048-.069-.057l-.632-.131c-.043-.009-.081,0-.086.025Z" transform="translate(-1825.061 -986.008)"/></g><path class="au" d="M1807.4,990.286c.464-.171,1.371-1.741,1.545-1.225s-.073,1.225,0,1.444.575,1.44.349,2a21.816,21.816,0,0,0-.569,2.315.474.474,0,0,1-.928,0C1807.777,994.735,1806.934,990.457,1807.4,990.286Z" transform="translate(-1807.258 -982.72)"/></g><g transform="translate(222.514 27.591)"><g transform="translate(30.657 17.563)"><path class="f" d="M1842.566,425.211a.859.859,0,0,1,.216.212c.095.142.168.365.3.554a6.555,6.555,0,0,1,.423.734l0,0c.076.122.116.238-.013.325a.235.235,0,0,1-.342-.081s-.223-.366-.464-.72c-.059-.089-.109-.184-.164-.268s-.083-.137-.119-.2a1.114,1.114,0,0,0-.085-.141c-.028-.037-.043-.06-.043-.06l-.069-.095a.225.225,0,0,1,.029-.339.22.22,0,0,1,.332.069Z" transform="translate(-1842.14 -425.091)"/><path class="f" d="M1855.888,443.665l1.061,1.337a.263.263,0,0,1-.061.372.274.274,0,0,1-.381-.032l-1.063-1.335a.264.264,0,0,1,.06-.373.276.276,0,0,1,.383.032Z" transform="translate(-1853.384 -440.772)"/><path class="f" d="M1870.11,461.244l1.205,1.231a.249.249,0,0,1-.014.364.266.266,0,0,1-.374-.006l-1.17-1.244a.243.243,0,0,1,0-.36c.114-.1.228-.028.353.015Z" transform="translate(-1865.506 -455.711)"/><path class="f" d="M1885.766,477.728l1.349,1.081a.223.223,0,0,1,.034.339.258.258,0,0,1-.365.015l-1.279-1.14c-.106-.093-.167-.207-.062-.317s.2-.02.323.021Z" transform="translate(-1878.838 -469.692)"/><path class="f" d="M1904.257,487.261l1.236,1.353c.114.082.048.417-.045.534s-.3.232-.417.151l-1.424-.957c-.115-.082.024-.571.117-.688s.416-.432.533-.392Z" transform="translate(-1894.259 -477.841)"/><path class="f" d="M1922.534,504.232l1.5.855a.248.248,0,0,1,.068.355.29.29,0,0,1-.371.106l-1.523-.835a.255.255,0,0,1-.059-.364.365.365,0,0,1,.388-.118Z" transform="translate(-1909.985 -492.231)"/><path class="f" d="M1943.787,511.863l1.457.867c.131.051.1.313.037.443a.373.373,0,0,1-.394.2l-1.654-.608c-.131-.051-.024-.414.039-.544s.073-.165.515-.359Z" transform="translate(-1927.867 -498.719)"/><path class="f" d="M1964.925,520.8l1.692.532a.288.288,0,0,1,.155.362.311.311,0,0,1-.335.214l-1.724-.4c-.138-.033-.187-.278-.143-.414s.227-.338.355-.295Z" transform="translate(-1946.01 -506.294)"/><path class="f" d="M1987.225,527.808l1.778.327a.232.232,0,0,1,.2.283.266.266,0,0,1-.309.189l-1.738-.35c-.138-.027-.253-.138-.214-.274s.235-.257.286-.175Z" transform="translate(-1964.999 -512.226)"/><path class="f" d="M2010.491,531.584l1.778.268a.244.244,0,0,1,.2.292.279.279,0,0,1-.3.217l-1.766-.238a.259.259,0,0,1-.209-.3c.029-.136.189-.271.295-.235Z" transform="translate(-1984.735 -515.448)"/><path class="f" d="M2034.326,532.924l1.754.207c.14.006.219.185.2.32a.314.314,0,0,1-.292.268l-1.8-.059c-.14-.005-.2-.242-.186-.378s.2-.4.321-.358Z" transform="translate(-2004.939 -516.586)"/><path class="f" d="M2057.917,533.325a7.256,7.256,0,0,0,.883-.025c.439-.068.866-.1.866-.1l.013.013a.233.233,0,0,1,.271.209.271.271,0,0,1-.23.283l-.925.145-.9.088c-.14.014-.236-.146-.24-.28s.147-.37.266-.33Z" transform="translate(-2025.006 -516.821)"/><path class="f" d="M2079.97,525.134a1.383,1.383,0,0,0,.421-.068c.079-.034.254-.049.342-.1s.228-.083.325-.131c.189-.112.405-.21.536-.31s.235-.154.235-.154l.023-.012a.252.252,0,0,1,.348.047.243.243,0,0,1-.072.338l-.248.174a6.62,6.62,0,0,1-.566.347l-.321.16c-.1.054-.2.089-.275.123l-.266.112a.473.473,0,0,1-.477-.165.521.521,0,0,1-.006-.363Z" transform="translate(-2043.919 -509.284)"/><path class="f" d="M2098.218,506.114a.759.759,0,0,0,.267-.253,2.229,2.229,0,0,0,.183-.251c.019-.045.066-.093.086-.14.007-.015.046-.064.042-.053l.028-.082a1.31,1.31,0,0,0,.051-.155c.007-.044.017-.086.023-.128a2.406,2.406,0,0,0,.019-.246c0-.148-.01-.247-.01-.247v-.012a.263.263,0,0,1,.231-.27.226.226,0,0,1,.264.2s.01.117.014.295a2.76,2.76,0,0,1-.022.313l-.031.186c-.012.06-.03.108-.044.163l-.023.08c-.022.064-.026.066-.041.1l-.068.161a2.385,2.385,0,0,1-.128.273l-.133.25a.466.466,0,0,1-.471.126c-.121-.054-.272-.213-.238-.314Z" transform="translate(-2059.424 -492.281)"/><path class="f" d="M2093.241,486.231a6.213,6.213,0,0,0-.41-.748c-.263-.311-.5-.64-.5-.64l0-.028a.223.223,0,0,1,.063-.32c.107-.087.164-.244.36.036h0s.277.322.564.662l.464.7c.071.107-.027.287-.143.363s-.332.083-.4-.026Z" transform="translate(-2054.396 -475.393)"/><path class="f" d="M2074.593,474.338s-.185.192-.328.114c-.071-.035-.2.028-.287,0s-.2-.013-.294-.052a2.667,2.667,0,0,0-.3-.054.966.966,0,0,0-.259-.036c-.149-.017-.251-.02-.251-.02h-.046a.216.216,0,0,1-.195-.257.261.261,0,0,1,.281-.205l.308.032a1.326,1.326,0,0,1,.3.061,3.107,3.107,0,0,1,.335.1l.322.134a2.415,2.415,0,0,1,.253.13l.238.13c.114.062.238-.039.165.076s-.131-.109-.248-.148Z" transform="translate(-2037.719 -466.441)"/><path class="f" d="M2055.278,478.021a.687.687,0,0,0-.3.132c-.033.027-.11.032-.149.063a1.247,1.247,0,0,0-.116.088c-.065.07-.144.138-.212.213s-.131.169-.19.251a2.451,2.451,0,0,0-.182.214.94.94,0,0,1-.168.216l-.012.019a.229.229,0,0,1-.3.121.206.206,0,0,1-.071-.3s.067-.1.157-.253a2.4,2.4,0,0,1,.169-.257c.067-.092.14-.189.212-.286s.174-.188.256-.275a1.6,1.6,0,0,1,.228-.208l.224-.182a.363.363,0,0,1,.42.068.421.421,0,0,1,.037.38Z" transform="translate(-2021.516 -469.587)"/><path class="f" d="M2048.2,497.776a7.68,7.68,0,0,1-.132.884c-.061.423-.093.856-.093.856l.012.021a.253.253,0,0,1-.263.217.211.211,0,0,1-.2-.245s.066-.447.13-.9c.094-.432.189-.864.189-.864.028-.127.1-.235.228-.217s.169.121.128.243Z" transform="translate(-2016.411 -486.557)"/><path class="f" d="M2047.837,519.769a5.76,5.76,0,0,0-.064,1,8.056,8.056,0,0,1,.042.909l-.027.047a.28.28,0,0,1-.223.284.219.219,0,0,1-.27-.174s-.056-.434-.108-.872c-.026-.433-.054-.863-.054-.863a.543.543,0,0,1,.338-.4.844.844,0,0,1,.365.061Z" transform="translate(-2016.081 -505.373)"/><path class="f" d="M2050.957,540.554l.456,1.864a.4.4,0,0,1-.18.4c-.125.043-.264.037-.3-.081l-.5-1.614c-.036-.118.07-.457.2-.5s.469-.365.324-.071Z" transform="translate(-2018.879 -522.96)"/><path class="f" d="M2058.316,563.9l.667,1.645a.3.3,0,0,1-.145.35.231.231,0,0,1-.318-.073l-.721-1.539a.374.374,0,0,1,.165-.392.451.451,0,0,1,.351.009Z" transform="translate(-2025.121 -542.835)"/><path class="f" d="M2068.116,584.889l.13.233.292.5.429.737a.229.229,0,0,1-.094.308.226.226,0,0,1-.313-.068l-.43-.736-.3-.51-.13-.232a.23.23,0,0,1,.1-.308.227.227,0,0,1,.313.074Z" transform="translate(-2033.515 -560.592)"/><path class="f" d="M2079.669,604.206l.938,1.424a.235.235,0,0,1-.391.256l-.94-1.423a.225.225,0,0,1,.077-.31.228.228,0,0,1,.316.052Z" transform="translate(-2043.327 -576.994)"/><path class="f" d="M2092.359,622.811l1.028,1.362a.22.22,0,0,1-.057.308.227.227,0,0,1-.316-.034l-1.03-1.361a.221.221,0,0,1,.057-.31.228.228,0,0,1,.317.034Z" transform="translate(-2054.104 -592.792)"/><path class="f" d="M2106.264,640.546l1.127,1.285a.215.215,0,0,1-.036.307.227.227,0,0,1-.316-.013l-1.128-1.283a.216.216,0,0,1,.035-.308.229.229,0,0,1,.317.012Z" transform="translate(-2065.915 -607.85)"/><path class="f" d="M2121.6,657.02l1.214,1.2a.219.219,0,0,1-.021.31.236.236,0,0,1-.32.015l-1.239-1.185a.228.228,0,0,1,.03-.317c.09-.088.276-.12.336-.024Z" transform="translate(-2078.914 -621.839)"/><path class="f" d="M2137.928,672.778l1.226,1.2a.208.208,0,0,1-.012.3.226.226,0,0,1-.312.01l-1.228-1.194a.209.209,0,0,1,.012-.3.227.227,0,0,1,.313-.01Z" transform="translate(-2092.797 -635.21)"/><path class="f" d="M2153.975,688.733l1.174,1.244a.208.208,0,0,1-.024.3.223.223,0,0,1-.308,0l-1.176-1.242a.209.209,0,0,1,.024-.3.224.224,0,0,1,.31,0Z" transform="translate(-2106.412 -648.744)"/><path class="f" d="M2169.321,705.325l1.118,1.292a.208.208,0,0,1-.036.3.219.219,0,0,1-.3-.014l-1.12-1.291a.208.208,0,0,1,.036-.3.22.22,0,0,1,.305.014Z" transform="translate(-2119.431 -662.818)"/><path class="f" d="M2183.91,722.554l1.057,1.34a.207.207,0,0,1-.048.291.215.215,0,0,1-.3-.026l-1.059-1.339a.208.208,0,0,1,.048-.293.216.216,0,0,1,.3.026Z" transform="translate(-2131.809 -677.432)"/><path class="f" d="M2197.691,740.414l.993,1.387a.207.207,0,0,1-.061.287.211.211,0,0,1-.294-.038l-.995-1.386a.208.208,0,0,1,.061-.289.212.212,0,0,1,.3.038Z" transform="translate(-2143.501 -692.581)"/><path class="f" d="M2210.605,758.895l.924,1.433a.215.215,0,0,1-.361.232l-.926-1.432a.216.216,0,0,1,.363-.233Z" transform="translate(-2154.458 -708.257)"/><path class="f" d="M2222.6,777.981l.851,1.478a.206.206,0,0,1-.085.277.2.2,0,0,1-.281-.063l-.853-1.477a.214.214,0,0,1,.369-.215Z" transform="translate(-2164.633 -724.447)"/><path class="f" d="M2233.609,797.654l.773,1.521a.206.206,0,0,1-.1.271.2.2,0,0,1-.274-.075l-.775-1.52a.207.207,0,0,1,.1-.272.2.2,0,0,1,.276.076Z" transform="translate(-2173.976 -741.134)"/><path class="f" d="M2243.58,817.889l.691,1.562a.206.206,0,0,1-.11.264.2.2,0,0,1-.266-.088l-.694-1.561a.207.207,0,0,1,.111-.265.2.2,0,0,1,.268.088Z" transform="translate(-2182.437 -758.296)"/><path class="f" d="M2252.451,838.652l.6,1.6a.205.205,0,0,1-.123.256.192.192,0,0,1-.258-.1l-.606-1.6a.206.206,0,0,1,.123-.258.193.193,0,0,1,.259.1Z" transform="translate(-2189.964 -775.908)"/><path class="f" d="M2260.163,859.929l.512,1.636a.205.205,0,0,1-.135.248.188.188,0,0,1-.248-.113l-.515-1.635a.206.206,0,0,1,.135-.249.189.189,0,0,1,.249.113Z" transform="translate(-2196.509 -793.955)"/><path class="f" d="M2266.64,881.655l.415,1.667a.2.2,0,0,1-.147.239.184.184,0,0,1-.238-.125l-.417-1.667a.206.206,0,0,1,.147-.24.186.186,0,0,1,.239.126Z" transform="translate(-2202.006 -812.382)"/><path class="f" d="M2271.8,903.78l.159.847c.04.209.081.427.106.586l.045.266a.2.2,0,0,1-.162.227.18.18,0,0,1-.224-.14l-.045-.266c-.026-.16-.065-.365-.106-.58l-.16-.846a.205.205,0,0,1,.158-.231.182.182,0,0,1,.228.137Z" transform="translate(-2206.39 -831.149)"/><path class="f" d="M2275.545,926.264l.2,1.718a.2.2,0,0,1-.171.217.177.177,0,0,1-.213-.15l-.2-1.717a.205.205,0,0,1,.172-.218.178.178,0,0,1,.214.151Z" transform="translate(-2209.566 -850.217)"/><path class="f" d="M2277.777,949.029l.077,1.735a.2.2,0,0,1-.183.2.174.174,0,0,1-.2-.162l-.078-1.735a.2.2,0,0,1,.183-.206.175.175,0,0,1,.2.163Z" transform="translate(-2211.462 -869.525)"/><path class="f" d="M2278.1,972l-.053,1.745a.2.2,0,0,1-.195.19.171.171,0,0,1-.183-.175l.052-1.745a.2.2,0,0,1,.2-.191.171.171,0,0,1,.184.175Z" transform="translate(-2211.695 -889.005)"/><path class="f" d="M2276.177,995.067l-.193,1.745a.2.2,0,0,1-.206.174.167.167,0,0,1-.166-.187l.191-1.745a.2.2,0,0,1,.207-.175.169.169,0,0,1,.167.188Z" transform="translate(-2209.95 -908.57)"/><path class="f" d="M2272.327,1018.108l-.343,1.734a.2.2,0,0,1-.216.156.165.165,0,0,1-.146-.2l.34-1.734a.2.2,0,0,1,.218-.157.166.166,0,0,1,.147.2Z" transform="translate(-2206.563 -928.109)"/><path class="f" d="M2266.434,1040.956l-.5,1.708a.2.2,0,0,1-.226.136.163.163,0,0,1-.125-.209l.5-1.709a.2.2,0,0,1,.227-.137.164.164,0,0,1,.126.21Z" transform="translate(-2201.435 -947.485)"/><path class="f" d="M2259.058,1063.413l-.545,1.376a.2.2,0,0,1-.234.115.162.162,0,0,1-.1-.219l.543-1.377a.2.2,0,0,1,.235-.115.163.163,0,0,1,.1.22Z" transform="translate(-2195.147 -966.529)"/></g><g transform="translate(0 0)"><path class="f" d="M1797.2,361.2l-.945,6.336-3.885-3.364Z" transform="translate(-1769.255 -353.312)"/><path class="c" d="M1639.753,309.144l14.872,17.559a1.621,1.621,0,0,0,2.331.149l17.067-15.6a.65.65,0,0,0-.419-1.129Z" transform="translate(-1639.753 -309.144)"/><path class="f" d="M1667.7,317.029l-27.946-7.885,25.2,10.411-.187,1.768Z" transform="translate(-1639.752 -309.144)"/><path class="f" d="M1795.284,379.356l3.444,2.325-1.8-3.81Z" transform="translate(-1771.725 -367.461)"/></g></g><g transform="translate(15.13 93.797)"><rect class="av" width="2.6" height="73.115" transform="translate(19.171 30.282)"/><circle class="aw" cx="14.361" cy="14.361" r="14.361" transform="translate(0 20.309) rotate(-45)"/><path class="ax" d="M373.318,1419.615l-3.187-9.233a1.286,1.286,0,0,0-1.191-.876h-6.71a1.285,1.285,0,0,0-1.246,1.1l-1.4,9.092a.451.451,0,0,0,.122.388.5.5,0,0,0,.4.147h12.705a.493.493,0,0,0,.432-.178A.443.443,0,0,0,373.318,1419.615Z" transform="translate(-346.114 -1309.034)"/><g transform="translate(8.283 8.557)"><path class="c" d="M337.527,827.06A12.174,12.174,0,1,1,349.7,814.886,12.188,12.188,0,0,1,337.527,827.06Zm0-23.681a11.507,11.507,0,1,0,11.507,11.507A11.52,11.52,0,0,0,337.527,803.379Z" transform="translate(-325.353 -802.712)"/></g><g transform="translate(14.076 12.686)"><path class="r" d="M374.28,845.4l-.052,0-.326-.016a.943.943,0,0,1-.9-.812v-.987h-6.348v.942c0,.472-.434.683-.864.683h-.217c-.424,0-1.02-.212-1.02-.683v-.942h-.448c-.131,0-.238-.116-.325-.21l-.04-.042a.763.763,0,0,1-.145-.466l.158-5.961a36.736,36.736,0,0,1,.588-4.608.992.992,0,0,1,.342-.61c3.915-3.217,8.786-1.053,10.185-.313a.944.944,0,0,1,.474.728h0l.734,4.986v5.884c0,.026,0,.052,0,.077a.331.331,0,0,1-.087.3l-.014.012a.313.313,0,0,1-.3.107l-.579-.078v1.19a.825.825,0,0,1-.826.814Zm-7.7-1.968h6.5a.076.076,0,0,1,.076.076v1.062c0,.346.406.639.755.661l.326.016a.673.673,0,0,0,.717-.661v-1.277a.076.076,0,0,1,.026-.057.078.078,0,0,1,.06-.018l.665.09c.082.012.1,0,.177-.07l.015-.013c.043-.037.042-.088.036-.181,0-.029,0-.058,0-.087V837.1l-.733-4.974a.8.8,0,0,0-.4-.619c-1.379-.729-6.176-2.861-10.018.3a.841.841,0,0,0-.289.518,36.593,36.593,0,0,0-.586,4.586l-.158,5.962a.638.638,0,0,0,.1.356l.042.045c.063.068.149.161.214.161h.524a.076.076,0,0,1,.076.076v1.018c0,.362.518.531.869.531h.217c.355,0,.713-.164.713-.531V843.5A.076.076,0,0,1,366.581,843.429Z" transform="translate(-363.598 -829.971)"/><path class="r" d="M381.9,853.054h-.024l-9.378-.539h0a.506.506,0,0,1-.47-.585l.515-3.36c.035-.223.234-.545.5-.545h8.336c.273,0,.47.328.5.554l.527,3.855a.568.568,0,0,1-.13.443A.528.528,0,0,1,381.9,853.054Zm-9.394-.691,9.378.539a.372.372,0,0,0,.282-.128.423.423,0,0,0,.091-.319l-.527-3.856c-.026-.192-.189-.424-.351-.424h-8.336c-.157,0-.32.228-.35.417l-.515,3.36a.355.355,0,0,0,.329.41Z" transform="translate(-370.748 -845.289)"/><path class="r" d="M385.284,838.43a.4.4,0,0,1-.385-.334l-.034-.216a.488.488,0,0,1,.086-.359l.023-.027c.067-.082.159-.2.276-.2h5.329c.118,0,.21.113.277.2l.022.027a.592.592,0,0,1,.086.4l-.007.039a.386.386,0,0,1-.373.32l-5.289.15Zm-.034-.981c-.045,0-.119.091-.159.139l-.024.029a.34.34,0,0,0-.053.237l.034.216a.245.245,0,0,0,.242.207l5.289-.149a.236.236,0,0,0,.229-.2l.007-.039a.459.459,0,0,0-.053-.277l-.023-.028c-.04-.049-.114-.14-.16-.14Z" transform="translate(-381.638 -836.188)"/><path class="r" d="M372.621,894.869a1.053,1.053,0,1,1,1.052-1.053A1.054,1.054,0,0,1,372.621,894.869Zm0-1.954a.9.9,0,1,0,.9.9A.9.9,0,0,0,372.621,892.915Z" transform="translate(-370.361 -883.252)"/><path class="r" d="M427.079,894.869a1.053,1.053,0,1,1,1.053-1.053A1.054,1.054,0,0,1,427.079,894.869Zm0-1.954a.9.9,0,1,0,.9.9A.9.9,0,0,0,427.079,892.915Z" transform="translate(-416.57 -883.252)"/></g></g><g transform="translate(85.457 36.699)"><g transform="translate(3.419 11.376)"><g transform="translate(9.036 10.574)"><path class="w" d="M818.663,518.373c.7-.582,3.334-5.007,7.556,0,.457.238,1.638-.429,1.488-.9-4.941-7.206-11.094-.443-10.491.3S817.855,519.05,818.663,518.373Z" transform="translate(-817.175 -514.183)"/></g><g transform="translate(5.067 5.261)"><path class="w" d="M808.456,485.608c.922-.108,1.788-.737,1.529-1.543s-9.05-11.068-18.845.513a.7.7,0,0,0,.086.987,1.716,1.716,0,0,0,1.319.56C801.508,475.963,807.534,485.716,808.456,485.608Z" transform="translate(-790.974 -479.106)"/></g><path class="w" d="M784.648,453.07c.655.131,1.993-.361,1.647-1.436-15.48-16.843-29.266.811-28.76,1.523a1.643,1.643,0,0,0,1.944.5C771.8,437.845,783.994,452.939,784.648,453.07Z" transform="translate(-757.522 -444.376)"/></g><g transform="translate(0 20.864)"><g transform="translate(33.737 7.444)"><path class="w" d="M957.84,557.184a.167.167,0,0,1-.138-.261q.233-.343.45-.693a.167.167,0,1,1,.283.175q-.22.357-.458.705A.166.166,0,0,1,957.84,557.184Z" transform="translate(-957.673 -556.152)"/></g><g transform="translate(0.472 2.437)"><path class="w" d="M756.183,537.232c-.515,0-1.036-.021-1.55-.064a.167.167,0,1,1,.027-.332c.5.041,1.016.063,1.521.063h.094a.167.167,0,0,1,0,.333Zm1.72-.08a.167.167,0,0,1-.015-.333c.534-.05,1.072-.123,1.6-.22a.169.169,0,0,1,.194.134.167.167,0,0,1-.134.194c-.537.1-1.086.173-1.629.224Zm-4.872-.188-.028,0c-.539-.093-1.08-.21-1.607-.348a.167.167,0,1,1,.085-.322c.518.136,1.049.251,1.578.342a.167.167,0,0,1-.028.331Zm8.075-.4a.167.167,0,0,1-.044-.328c.516-.142,1.033-.31,1.536-.5a.167.167,0,0,1,.117.313c-.512.191-1.038.361-1.564.507A.171.171,0,0,1,761.105,536.567Zm-11.224-.431a.169.169,0,0,1-.056-.01c-.514-.184-1.026-.394-1.521-.623a.167.167,0,1,1,.14-.3c.487.225.989.43,1.494.612a.167.167,0,0,1-.056.324Zm14.274-.708a.167.167,0,0,1-.072-.317c.484-.232.963-.487,1.425-.761a.167.167,0,0,1,.17.287c-.47.278-.958.538-1.451.774A.166.166,0,0,1,764.156,535.428Zm-17.228-.657a.167.167,0,0,1-.083-.022c-.473-.271-.94-.568-1.388-.88a.167.167,0,0,1,.191-.273c.44.307.9.6,1.363.864a.167.167,0,0,1-.083.311Zm20.031-1a.167.167,0,0,1-.1-.3q.312-.223.616-.461.335-.261.655-.535a.167.167,0,1,1,.217.253q-.325.278-.667.544-.31.242-.628.469A.164.164,0,0,1,766.958,533.77Zm-22.7-.861a.165.165,0,0,1-.107-.039c-.417-.349-.824-.723-1.212-1.11a.167.167,0,0,1,.236-.236c.38.381.781.748,1.19,1.091a.167.167,0,0,1-.107.294Zm25.172-1.256a.167.167,0,0,1-.119-.283c.376-.384.739-.789,1.078-1.2a.167.167,0,0,1,.258.212c-.345.421-.715.832-1.1,1.223A.165.165,0,0,1,769.432,531.653Zm-27.473-1.047a.167.167,0,0,1-.128-.06q-.212-.254-.418-.517c-.2-.257-.4-.522-.583-.787a.167.167,0,0,1,.273-.192c.183.261.375.521.572.774q.2.259.411.508a.167.167,0,0,1-.128.274Zm-1.868-2.667a.167.167,0,0,1-.145-.083c-.273-.473-.529-.964-.759-1.458a.167.167,0,1,1,.3-.141c.226.486.477.968.745,1.433a.166.166,0,0,1-.061.228A.164.164,0,0,1,740.091,527.939Zm-1.374-2.953a.167.167,0,0,1-.157-.11c-.186-.514-.351-1.042-.49-1.57a.167.167,0,0,1,.322-.085c.137.518.3,1.037.481,1.542a.167.167,0,0,1-.1.214A.17.17,0,0,1,738.717,524.986Z" transform="translate(-738.065 -523.097)"/></g><path class="ay" d="M735.239,508.167a.167.167,0,0,1-.164-.139q-.071-.415-.123-.832a.167.167,0,1,1,.331-.041q.051.409.12.817a.167.167,0,0,1-.136.193Z" transform="translate(-734.95 -507.009)"/></g><g transform="translate(3.506)"><g transform="translate(0 6.839)"><path class="az" d="M758.263,415.415a.167.167,0,0,1-.134-.266q.25-.337.517-.664a.167.167,0,0,1,.259.211q-.262.321-.507.651A.167.167,0,0,1,758.263,415.415Z" transform="translate(-758.096 -414.424)"/></g><g transform="translate(1.668)"><path class="w" d="M800.626,384.148a.167.167,0,0,1-.163-.131c-.123-.556-.273-1.113-.448-1.656a.167.167,0,0,1,.318-.1c.178.553.331,1.12.456,1.687a.167.167,0,0,1-.127.2A.174.174,0,0,1,800.626,384.148Zm-1.059-3.293a.166.166,0,0,1-.153-.1c-.225-.524-.477-1.043-.75-1.543a.167.167,0,1,1,.293-.16c.278.509.534,1.038.763,1.571a.166.166,0,0,1-.153.232Zm-1.655-3.037a.167.167,0,0,1-.139-.074c-.242-.36-.5-.717-.771-1.062q-.125-.16-.252-.316a.167.167,0,1,1,.258-.211q.13.159.257.322c.274.351.538.715.785,1.081a.167.167,0,0,1-.138.26Zm-28.635-2.661a.167.167,0,0,1-.119-.284c.406-.413.837-.811,1.282-1.186a.167.167,0,1,1,.215.255c-.437.368-.861.761-1.26,1.165A.166.166,0,0,1,769.277,375.157Zm26.448-.02a.166.166,0,0,1-.119-.05c-.4-.406-.823-.8-1.259-1.166a.167.167,0,1,1,.215-.255c.443.374.874.773,1.281,1.187a.167.167,0,0,1-.119.284Zm-23.8-2.21a.167.167,0,0,1-.1-.3c.476-.332.974-.645,1.479-.931a.167.167,0,1,1,.164.29c-.5.281-.985.589-1.452.915A.167.167,0,0,1,771.922,372.927Zm21.159-.018a.168.168,0,0,1-.095-.03c-.468-.324-.957-.631-1.453-.91a.167.167,0,0,1,.163-.291c.506.284,1,.6,1.48.926a.167.167,0,0,1-.1.3Zm-18.148-1.686a.167.167,0,0,1-.068-.319c.529-.237,1.076-.452,1.627-.639a.167.167,0,1,1,.107.316c-.54.183-1.077.394-1.6.628A.165.165,0,0,1,774.933,371.223Zm15.135-.009A.166.166,0,0,1,790,371.2c-.52-.232-1.058-.441-1.6-.623a.167.167,0,1,1,.107-.316c.55.185,1.1.4,1.627.635a.167.167,0,0,1-.068.319Zm-11.859-1.1a.167.167,0,0,1-.039-.329c.563-.133,1.14-.243,1.717-.324a.167.167,0,1,1,.047.33c-.566.08-1.134.187-1.686.318A.157.157,0,0,1,778.208,370.11Zm8.583,0a.153.153,0,0,1-.038,0c-.557-.131-1.124-.238-1.686-.317a.167.167,0,1,1,.046-.33c.572.08,1.15.189,1.717.322a.167.167,0,0,1-.038.329Zm-3.425-.48h-.008q-.856-.039-1.716,0a.167.167,0,1,1-.015-.333q.874-.041,1.747,0a.167.167,0,0,1-.008.333Z" transform="translate(-769.11 -369.274)"/></g><g transform="translate(33.314 16.265)"><path class="ba" d="M978.272,477.811a.167.167,0,0,1-.166-.154q-.032-.411-.082-.821a.167.167,0,0,1,.331-.041q.052.418.084.836a.167.167,0,0,1-.153.179Z" transform="translate(-978.023 -476.648)"/></g></g></g><g transform="translate(46.579 102.385)"><path class="bb" d="M567.866,1539.052s2.779-6.81-7.7-5.437-7.936,5.331-8.764,8.424-5.227,6.6-17.466,11.37-8.611,17.782-3.113,22.1,8.5,1.448,9.774,8.9,6.379,13.506,12.743,7.188,13.6-13.789,11.575-23.585.268-7.943,4.217-12.437S564.707,1546.732,567.866,1539.052Z" transform="translate(-525.722 -1530.86)"/><path class="bc" d="M1156.137,1580.17s-10.565,14.9-22.312,17.256c0,0,1.916,6.551,3.62,7.38,0,0,14.89-11.137,19.164-22.415Z" transform="translate(-1096.622 -1574.739)"/><path class="bd" d="M631.987,3142.489l-.316,2.6a3.484,3.484,0,0,1-1.724,1.8,7.926,7.926,0,0,1-2.5.146c-.574-.061-1.142-1.6-.967-2.147a9.474,9.474,0,0,1,1.744-3.4h2.884A.888.888,0,0,1,631.987,3142.489Z" transform="translate(-620.283 -3040.543)"/><path class="be" d="M1000.909,2659.895l.487,2.864s-1.63,16.514-1.92,23.119a5.176,5.176,0,0,0,.766,2.942l2.835,4.6-7.2-4.251-.143-.879,1.179-1.622-1.545-18.5a5.677,5.677,0,0,1,.646-3.139l1.49-2.8Z" transform="translate(-966.612 -2588.407)"/><path class="bf" d="M1000.758,3113.944h-2.3a1.384,1.384,0,0,1-1.1-.539c-.717-.932-2.2-2.749-2.912-2.8-.956-.064-.834,3.334-.834,3.334h-.536l-.679-4.223a2.5,2.5,0,0,1,1.312-2.613h0a3.533,3.533,0,0,0,1.4,2.331c1.185.715,4.821,3.275,4.821,3.275a3.276,3.276,0,0,1,.935.025A.608.608,0,0,1,1000.758,3113.944Z" transform="translate(-963.82 -3008.262)"/><path class="bg" d="M660.04,2663.864s-9.551,18.117-11.069,22.254a39.742,39.742,0,0,0-2.07,7.914c-.032.511-.667,1-2.418,1a1.68,1.68,0,0,1-1.563-.713,1.021,1.021,0,0,1-.039-.989c.553-1.118,2.306-4.691,2.955-6.312.775-1.935,2.443-10.7,3.358-13.752s1.948-6.356,5.931-9.4C655.125,2663.864,657.859,2661.186,660.04,2663.864Z" transform="translate(-635.611 -2591.016)"/><path class="bh" d="M965.672,1861.668c2.464-10.44-3.778-16.344-3.778-16.344,3.938-3.78,11.114-5.5,11.114-5.5s6.847,5.006,6.035,8.924c-.476,2.3-4.813,13.755-4.813,13.755A9.528,9.528,0,0,1,965.672,1861.668Z" transform="translate(-935.21 -1818.506)"/><path class="bi" d="M845.52,2202.058c1-3.021,5.462-5.168,5.462-5.168a9.529,9.529,0,0,0,8.558.833,17.163,17.163,0,0,1,.279,6.632c-.621,3.194-4.515,23.724-4.515,23.724-6.136,1.243-15.573-1.251-15.573-1.251C843.639,2219.89,844.517,2205.079,845.52,2202.058Z" transform="translate(-820.52 -2153.728)"/><path class="bj" d="M1039.169,1713.891l-2,9c-.192.792.531.663,1.332.512,1.312-.247,3-.757,3.569-1.778a.971.971,0,0,0,.1-.339l.861-6.239a1.121,1.121,0,0,0-.656-1.178l-1.661-.736A1.121,1.121,0,0,0,1039.169,1713.891Z" transform="translate(-1005.847 -1699.473)"/><path class="bk" d="M857.863,1929.73s-13.98,10-1.788,20.513a3.149,3.149,0,0,0,1.38.8,15.174,15.174,0,0,1,2.52,1.71.474.474,0,0,0,.694-.125h0a.648.648,0,0,0,.037-.621l-1.731-3.66a1.335,1.335,0,0,0-1.734-.075h0a.659.659,0,0,1-1-.226c-.943-1.92-2.722-7.565,4.562-13.945a.789.789,0,0,0,.175-.959C860.467,1932.157,859.3,1930.2,857.863,1929.73Z" transform="translate(-831.179 -1902.913)"/><path class="bl" d="M1043.976,1584.852a8.877,8.877,0,0,1,3.985,4.43c1.613,3.428.408,5.011-1.1,5.228a7.083,7.083,0,0,1-6.169-2.03C1038.294,1590.265,1040.892,1583.665,1043.976,1584.852Z" transform="translate(-1008.304 -1579.001)"/><path class="bm" d="M1002.221,1543.759s-1.79-5.015,2.657-5.075l1.046.731s1.632-2.781-1.046-4.108-5.812-.231-6.951,3.377-1.334,6.023.562,7.749,2.677-.231,2.677-.231-1.032-1.614-.612-2.478,1.39.179,1.39.179Z" transform="translate(-968.229 -1532.111)"/><path class="bn" d="M1035.334,1663.349s-.905-2.584-2.112-1.555.981,2.387,1.838,2.826Z" transform="translate(-1001.841 -1651.142)"/><g transform="translate(57.793 0)"><path class="bo" d="M1471.878,1499.99c.013.32-1.182.476-1.486-.9.135-.583.456-3.151.928-3.527a47.72,47.72,0,0,1,6.93-4.175.878.878,0,0,1-.214,1.206l-2.216,1.33a8.664,8.664,0,0,1,.467,2.268,2.51,2.51,0,0,1-.725,1.716c-.452.464-1.058,1.061-1.6,1.511A2.477,2.477,0,0,1,1471.878,1499.99Z" transform="translate(-1470.392 -1491.389)"/><path class="bp" d="M1495.953,1550.663l.855-1.194,1.937-.906c.281.256.388.581-.118,1.056a18.77,18.77,0,0,0-1.694,2.983Z" transform="translate(-1494.389 -1545.064)"/></g><g class="bq" transform="translate(3.047 6.249)"><path class="e" d="M872.562,1605.769a.051.051,0,0,1-.017-.1c4.41-1.534,6.586-4.328,6.127-7.869-.474-3.661,1.816-4.259,1.839-4.265a.052.052,0,0,1,.061.038.051.051,0,0,1-.037.061c-.023.005-2.224.587-1.762,4.153.466,3.593-1.734,6.427-6.195,7.978Z" transform="translate(-854.341 -1593.534)"/><path class="e" d="M584.546,1949.714a.053.053,0,0,1-.025-.006c-5.016-2.786-7.969-6.151-8.779-10a12.385,12.385,0,0,1,2.034-9.172.051.051,0,1,1,.081.062,12.277,12.277,0,0,0-2.015,9.091c.8,3.821,3.741,7.163,8.729,9.933a.051.051,0,0,1-.025.1Z" transform="translate(-575.52 -1909.897)"/></g></g></g></g></svg>