<svg xmlns="http://www.w3.org/2000/svg" width="32" height="32" viewBox="0 0 32 32"><defs><style>.a{fill:#fff;}.b{fill:#ffbe39;}</style></defs><path class="a" d="M26,32H6a6,6,0,0,1-6-6V6A6,6,0,0,1,6,0H26a6,6,0,0,1,6,6V26A6,6,0,0,1,26,32Z"/><g transform="translate(6 5)"><path class="b" d="M217.95,321.643a2.9,2.9,0,0,1,1.881,1.88l-2.508.628Z" transform="translate(-207.985 -307.822)"/><path class="b" d="M246.86,162.292a3.795,3.795,0,0,0-2.1-2.1l3.1-3.1,3.342-3.342,2.1,2.1Z" transform="translate(-234.241 -147.144)"/><path class="b" d="M412.79,109.183l-.94.94-2.1-2.1.94-.941a1.47,1.47,0,0,1,1.051-.435,1.486,1.486,0,0,1,1.05,2.537Z" transform="translate(-392.143 -102.064)"/><path class="a" d="M36.916,41.041a.459.459,0,0,1-.458.458H21.791a.459.459,0,0,1-.458-.458V21.791a.459.459,0,0,1,.458-.458h1.375v1a1.375,1.375,0,1,0,.917,0v-1h2.75v1a1.375,1.375,0,1,0,.917,0v-1H30.5v1a1.375,1.375,0,1,0,.917,0v-1h2.75v1a1.375,1.375,0,1,0,.917,0v-1h1.375a.459.459,0,0,1,.458.458v4.394l-3.4,3.4H23.625a.458.458,0,1,0,0,.917H32.6l-2.75,2.75H23.625a.458.458,0,1,0,0,.917h5.829l-.687,2.75H23.625a.458.458,0,1,0,0,.917h5.5a.42.42,0,0,0,.111-.015L32.9,36.9c.01,0,.017-.012.028-.016a.459.459,0,0,0,.161-.091c.007-.006.017-.007.024-.014l3.8-3.8Z" transform="translate(-20.416 -20.416)"/><path d="M19.6,3.667a2.384,2.384,0,0,0-1.7.7l-.481.481V1.375A1.377,1.377,0,0,0,16.042,0H1.375A1.377,1.377,0,0,0,0,1.375v19.25A1.377,1.377,0,0,0,1.375,22H16.042a1.377,1.377,0,0,0,1.375-1.375V11.917a.433.433,0,0,0-.059-.211l2.671-2.671,0,0,0,0L21.3,7.768a2.4,2.4,0,0,0-1.7-4.1ZM14.208,2.75a.458.458,0,1,1-.458.458A.459.459,0,0,1,14.208,2.75Zm-3.667,0a.458.458,0,1,1-.458.458A.459.459,0,0,1,10.542,2.75Zm-3.667,0a.458.458,0,1,1-.458.458A.459.459,0,0,1,6.875,2.75Zm-3.667,0a.458.458,0,1,1-.458.458A.459.459,0,0,1,3.208,2.75ZM16.5,20.625a.459.459,0,0,1-.458.458H1.375a.459.459,0,0,1-.458-.458V1.375A.459.459,0,0,1,1.375.917H2.75v1a1.375,1.375,0,1,0,.917,0v-1h2.75v1a1.375,1.375,0,1,0,.917,0v-1h2.75v1a1.375,1.375,0,1,0,.917,0v-1h2.75v1a1.375,1.375,0,1,0,.917,0v-1h1.375a.459.459,0,0,1,.458.458V5.769l-3.4,3.4H3.208a.458.458,0,1,0,0,.917h8.977l-2.75,2.75H3.208a.458.458,0,1,0,0,.917H9.037L8.35,16.5H3.208a.458.458,0,1,0,0,.917h5.5a.42.42,0,0,0,.111-.015l3.667-.917c.01,0,.017-.012.028-.016a.459.459,0,0,0,.161-.091c.007-.006.017-.007.024-.014l3.8-3.8Zm-6.535-6.8a2.9,2.9,0,0,1,1.881,1.88l-2.508.628Zm2.654,1.328a3.795,3.795,0,0,0-2.1-2.1l3.1-3.1,3.342-3.342,2.1,2.1ZM20.648,7.12l-.941.94-2.1-2.1.94-.941A1.47,1.47,0,0,1,19.6,4.582a1.486,1.486,0,0,1,1.05,2.537Z"/></g></svg>