<svg xmlns="http://www.w3.org/2000/svg" width="152.054" height="119.364" viewBox="0 0 152.054 119.364"><defs><style>.a,.h{fill:#101a20;}.a{opacity:0.18;}.b{fill:#74d270;}.c{fill:#a5a5b1;}.d,.k{fill:#fff;}.e{fill:#213643;opacity:0.4;}.f{fill:#bed2fa;}.g{fill:#93b3f4;}.i{fill:#3662c1;}.j{fill:#91b3fa;}.k{font-size:11px;font-family:Roboto-Regular, Roboto;}.l{fill:#fa7269;}.m{fill:#6d89cf;}.n{fill:#060632;}.o{fill:#0b0754;}.p{fill:#ea8888;}</style></defs><g transform="translate(-15)"><ellipse class="a" cx="76" cy="4.5" rx="76" ry="4.5" transform="translate(15 110.364)"/><path class="b" d="M2801.44,1498.166h-14.525c-.779-.66.539-2.16,1.915-2.26a8.478,8.478,0,0,1,2.217.262c.2-2.655,1.341-14.589,5.643-14.11,4.837.537,0,5.256-1.367,8.049a66.42,66.42,0,0,0-2.57,6.437c.393.085.8.169,1.215.245.641-1.968,3.026-8.59,6.06-8.2,3.562.452,2.13,3.107-.394,4.683-1.852,1.159-4.127,2.806-5.207,3.6a15.428,15.428,0,0,0,2.84.228A6.12,6.12,0,0,1,2801.44,1498.166Z" transform="translate(-2635.108 -1385.156)"/><path class="b" d="M1443.141,1320.094c-10.472,2.545-18.848,14.881-23.607,23.649a15.169,15.169,0,0,1-1.611-2.147c2.008-4.545,5.9-14.309,2.132-13.983-3.281.284-3.593,7.071-3.439,11.794-2.666-4.625-5.677-9.985-14.214-9.643-14.126.565-18.484,15.255-28.294,14.971s-39.779-4.033-45.679,11.054H1431.7c-.337-.927-.931-4.663-3.691-7.374q.758-.258,1.575-.524c8.752-2.85,5.481-5.8,5.481-5.8-4.105,0-7.86,1.844-10.856,4.01a11.436,11.436,0,0,0-1.352-.362,5.46,5.46,0,0,1-1.487-.536c5.18-5.952,12.646-13.541,18.486-15.458,4-1.312,6-3.109,6.954-4.825A3.3,3.3,0,0,0,1443.141,1320.094Z" transform="translate(-1287.815 -1242.725)"/><g transform="translate(59.463)"><g transform="translate(0 0)"><rect class="c" width="59.585" height="113.06" rx="6"/><rect class="d" width="59.585" height="113.06" rx="6" transform="translate(5.776)"/><g transform="translate(25.458 4.28)"><path class="e" d="M1733.213,717.1h-15.489a.6.6,0,1,0,0,1.205h15.489a.6.6,0,1,0,0-1.205Z" transform="translate(-1714.37 -717.102)"/><path class="e" d="M1695,717.1a.6.6,0,1,0,.6.6A.6.6,0,0,0,1695,717.1Z" transform="translate(-1694.4 -717.102)"/></g><path class="e" d="M1751.9,1535.8a3.887,3.887,0,1,1,3.887,3.887A3.887,3.887,0,0,1,1751.9,1535.8Z" transform="translate(-1719.483 -1428.988)"/><rect class="f" width="49.54" height="91.447" transform="translate(10.736 8.965)"/><rect class="f" width="49.54" height="10.616" transform="translate(10.736 89.804)"/><path class="d" d="M1610.339,867.687l-10.284-16.854a10.608,10.608,0,0,0,4.447-6.427c1.89-7.79-3.959-17.8-5.9-20.841a6.952,6.952,0,1,0-11.485-2.931c-7.481,4.336-15.557,8.9-18.412,10.319l-8.557-14.276a1.442,1.442,0,1,0-2.474,1.483l12.822,21.391a5.148,5.148,0,0,0,6.867,1.889l8.159-4.394a2.476,2.476,0,0,1,3.288.89l7.235,11.856c-14.551,7.713-35.455,18.714-37.067,19.342a1.442,1.442,0,0,0,.747,2.785c.366-.086.92-.217,20.125-10.315,7.442-3.914,14.868-7.845,17.7-9.345l10.331,16.931a1.443,1.443,0,0,0,2.463-1.5Zm-16.582-53.182a4.07,4.07,0,1,1-4.07,4.07A4.075,4.075,0,0,1,1593.757,814.506Zm-9.608,20-8.159,4.394a2.268,2.268,0,0,1-3.025-.832l-2.781-4.639c1.453-.732,4.2-2.213,9.582-5.262,3.588-2.034,7.1-4.061,8.756-5.017a6.949,6.949,0,0,0,7.632,1.955,49.146,49.146,0,0,1,3.29,6.1c1.567,3.5,3.229,8.51,2.252,12.528a7.711,7.711,0,0,1-3.147,4.636l-7.281-11.933A5.361,5.361,0,0,0,1584.149,834.506Z" transform="translate(-1548.584 -795.898)"/><g transform="translate(49.281 13.202)"><path class="d" d="M1891.6,798.05a.424.424,0,0,1-.207-.795l11.455-6.4a.424.424,0,0,1,.414.741l-11.455,6.4A.423.423,0,0,1,1891.6,798.05Z" transform="translate(-1891.176 -790.803)"/></g><g transform="translate(37.63 11.477)"><path class="d" d="M1799.558,783.623a.424.424,0,0,1-.352-.187l-4.191-6.222a.424.424,0,1,1,.7-.474l4.19,6.222a.424.424,0,0,1-.351.661Z" transform="translate(-1794.943 -776.552)"/></g><g transform="translate(26.406 66.374)"><path class="d" d="M1716.982,1254.26a.424.424,0,0,1-.362-.2l-14.324-23.416a.424.424,0,1,1,.724-.443l14.324,23.417a.424.424,0,0,1-.362.646Z" transform="translate(-1702.234 -1229.995)"/></g><path class="d" d="M1840.637,854.474a2.011,2.011,0,1,1,2.011,2.011A2.01,2.01,0,0,1,1840.637,854.474Z" transform="translate(-1797.474 -831.796)"/><g transform="translate(10.736 12.364)"><path class="g" d="M1597.986,1325.3l-6.393-10.478a6.1,6.1,0,0,0-8.027-2.237l-10.2,5.3v7.566Z" transform="translate(-1573.3 -1247.975)"/><path class="g" d="M1572.865,1002.968c-.057-.511,19.949-10.837,27.117-14.52a2.553,2.553,0,0,0,.973-3.663l-.385-.592a1.862,1.862,0,0,0-2.4-.647l-9.644,4.859a4.144,4.144,0,0,1-5.364-1.481L1572.8,969.764Z" transform="translate(-1572.795 -947.26)"/><path class="g" d="M1612.593,789.256l4.787,8.177a3.572,3.572,0,0,0,4.825,1.315l5.041-2.814a3.582,3.582,0,0,0,1.818-2.814,10.233,10.233,0,0,1,1.095-3.956,3.554,3.554,0,0,0-.09-3.576v0a3.573,3.573,0,0,0-3.047-1.707h-11.344A3.573,3.573,0,0,0,1612.593,789.256Z" transform="translate(-1607.34 -783.879)"/><path class="g" d="M1946.832,854.926v19.658a42.159,42.159,0,0,0-4.313-9.908,3.9,3.9,0,0,1-.254-3.407,12.112,12.112,0,0,0,.718-3.066,3.277,3.277,0,0,1,2.249-2.758Z" transform="translate(-1897.292 -846.325)"/><path class="g" d="M1961.7,1109.922a11.139,11.139,0,0,0,1.851-3.146v11.036l-2.251-4.714A2.965,2.965,0,0,1,1961.7,1109.922Z" transform="translate(-1914.015 -1067.684)"/><path class="g" d="M1819.407,1225.536v8.848h-10.49l-11.167-17.147a4.541,4.541,0,0,1,1.586-6.44l3.145-1.762a5.879,5.879,0,0,1,7.857,2.01Z" transform="translate(-1769.867 -1156.903)"/><path class="g" d="M1700.053,947.556l10.479-5.65a1.912,1.912,0,0,1,1.67-.07,17.72,17.72,0,0,0,6.237,1.628,1.912,1.912,0,0,1,1.73,1.077,43.517,43.517,0,0,1,2.878,7.446,1.911,1.911,0,0,1-3.4,1.593l-4.7-6.54a1.911,1.911,0,0,0-2.294-.646L1701.7,951a1.911,1.911,0,0,1-2.407-.824h0A1.912,1.912,0,0,1,1700.053,947.556Z" transform="translate(-1683.763 -922.573)"/></g><g transform="translate(22.247 92.473)"><path class="h" d="M1693.985,1445.571h-25.567a.539.539,0,0,0-.538.537h0a.539.539,0,0,0,.538.537h25.567a.539.539,0,0,0,.537-.537h0A.539.539,0,0,0,1693.985,1445.571Z" transform="translate(-1667.881 -1445.571)"/><path class="h" d="M1693.985,1465.019h-25.567a.537.537,0,1,0,0,1.075h25.567a.537.537,0,0,0,0-1.075Z" transform="translate(-1667.881 -1462.664)"/></g></g><path class="h" d="M1598.811,1432.946a2.287,2.287,0,0,0-2.287,2.287c0,1.263,2.287,4.071,2.287,4.071s2.287-2.808,2.287-4.071A2.287,2.287,0,0,0,1598.811,1432.946Zm0,3.333a1.069,1.069,0,1,1,1.069-1.069A1.069,1.069,0,0,1,1598.811,1436.279Z" transform="translate(-1582.916 -1342.001)"/><g transform="translate(17.872 31.365) rotate(-1)"><path class="i" d="M70.163,1.232,18.708.3l-.021,3.052a.73.73,0,0,1-.766.713.747.747,0,0,1-.757-.738L17.184.275,1.956,0A1.937,1.937,0,0,0,.04,1.94L0,38.755a1.684,1.684,0,0,0,1.889,1.614l15.041-.119.017-2.69a.739.739,0,0,1,.759-.715.716.716,0,0,1,.748.706l-.018,2.687,50.851-.4a1.682,1.682,0,0,0,1.81-1.569l.817-35.121A1.879,1.879,0,0,0,70.163,1.232ZM18.478,34a.737.737,0,0,1-.759.715A.719.719,0,0,1,16.97,34L17,29.964a.736.736,0,0,1,.76-.715.722.722,0,0,1,.75.713Zm.052-7.606a.735.735,0,0,1-.76.714.726.726,0,0,1-.752-.716l.026-4.059a.758.758,0,0,1,1.514.006Zm.052-7.643a.759.759,0,0,1-1.516-.009l.026-4.079a.76.76,0,0,1,1.517.014Zm.053-7.679a.732.732,0,0,1-.764.713.74.74,0,0,1-.755-.73l.026-4.1a.731.731,0,0,1,.766-.714.743.743,0,0,1,.755.734Z" transform="translate(0 0)"/><g transform="translate(33.068 3.871)"><path class="j" d="M22.542,1.935a1.516,1.516,0,0,1-1.57,1.45L1.57,3.117A1.548,1.548,0,0,1,0,1.6l0-.13A1.535,1.535,0,0,1,1.606,0l19.42.309a1.506,1.506,0,0,1,1.517,1.5Z" transform="translate(0 0)"/><path class="j" d="M9.551,1.656a1.564,1.564,0,0,1-1.611,1.5L1.565,3.063A1.552,1.552,0,0,1,0,1.514V1.5A1.57,1.57,0,0,1,1.625,0L8.007.1A1.538,1.538,0,0,1,9.552,1.645Z" transform="translate(25.914 0.412)"/></g><path class="j" d="M31.88.936a.95.95,0,0,1-.966.9L.975,1.844A.942.942,0,0,1,0,.922H0A.968.968,0,0,1,1,0L30.953.032a.9.9,0,0,1,.927.9Z" transform="translate(33.972 26.484)"/><path class="j" d="M21.082.9a.951.951,0,0,1-.965.9L.957,1.849A.924.924,0,0,1,0,.938H0A.963.963,0,0,1,.985.023L20.156,0a.9.9,0,0,1,.926.9Z" transform="translate(44.699 29.828)"/><path class="j" d="M21.06.9a.952.952,0,0,1-.964.9l-19.14.09A.92.92,0,0,1,0,.982H0A.964.964,0,0,1,.984.066L20.135,0a.9.9,0,0,1,.925.9Z" transform="translate(44.647 33.284)"/><g transform="translate(3.08 29.825)"><path class="j" d="M1.023,7.184a.5.5,0,0,1-.513.47h0A.486.486,0,0,1,0,7.189L.014.471A.5.5,0,0,1,.528,0h0a.491.491,0,0,1,.512.469Z" transform="translate(0 0.074)"/><path class="j" d="M1.361,7.172c0,.264-.3.479-.682.481h0C.3,7.656,0,7.444,0,7.18L.018.48C.018.216.322,0,.7,0h0c.379,0,.681.214.68.479Z" transform="translate(1.875 0)"/><path class="j" d="M1.018,7.164a.5.5,0,0,1-.51.469h0A.484.484,0,0,1,0,7.17L.023.469A.493.493,0,0,1,.534,0h0a.488.488,0,0,1,.508.468Z" transform="translate(4.255 0.069)"/><path class="j" d="M1.011,7.141A.493.493,0,0,1,.5,7.609h0A.48.48,0,0,1,0,7.147L.033.468A.492.492,0,0,1,.542,0h0a.484.484,0,0,1,.5.466Z" transform="translate(9.162 0.063)"/><path class="j" d="M1.015,7.156a.494.494,0,0,1-.509.468h0A.483.483,0,0,1,0,7.161L.027.469A.493.493,0,0,1,.537,0h0a.486.486,0,0,1,.507.467Z" transform="translate(6.12 0.067)"/><path class="j" d="M.507,7.383a.247.247,0,0,1-.254.234h0A.241.241,0,0,1,0,7.386L.032.234A.246.246,0,0,1,.287,0h0A.243.243,0,0,1,.54.233Z" transform="translate(7.811 0.065)"/></g></g><text class="k" transform="translate(66.537 51.364)"><tspan x="-13.213" y="0">PASS</tspan></text></g><g transform="translate(17.911 23.593)"><g transform="translate(0 2.34)"><path class="l" d="M2334.247,922.648s.386-1.856,1.353-2.281,1.546-2.126,1.933-1.663-.116,3.557-.851,3.943a3.984,3.984,0,0,0-1.083.786Z" transform="translate(-2291.435 -900.505)"/><path class="m" d="M2354.832,878.307s6.479,11.3,8.83,13.38l8.619-6.426a3.146,3.146,0,0,1,1.8,1.639s-5.234,10.663-10.387,11.115-12.386-12.781-12.386-12.781Z" transform="translate(-2329.557 -864.228)"/><g transform="translate(5.971 39.591)"><path class="n" d="M2673.791,1542.759s-1.425,1.32-1.147,2.258,1.564,1.563,1.737,2.71.869,1.772,1.494,1.772h2.981s.46-.807-.651-1.05-1.531-1.59-1.461-2.841a22.366,22.366,0,0,0-.1-2.918l-2.363-.556Z" transform="translate(-2672.608 -1501.103)"/><path class="n" d="M2466.807,1576.936a.836.836,0,0,0,.212.057h7.863a1.354,1.354,0,0,0-1.265-1c-1.245-.2-3.4-.925-3.885-2.518-.015-.052-.029-.1-.041-.157-.382-1.7-3.162.521-3.162.521s-.008.068-.02.184C2466.444,1574.652,2466.279,1576.671,2466.807,1576.936Z" transform="translate(-2447.871 -1528.587)"/><path class="o" d="M2494.142,1154.336s-.422,5.267-.918,11.6c-.674,8.6-1.485,19.163-1.565,21.165-.139,3.475-.7,9.033-.7,9.033a4.369,4.369,0,0,1-3.96.764,90.927,90.927,0,0,1-3.026-16.331c-.01-.138-.021-.276-.031-.415-.625-8.547-1.6-26.544-1.6-26.544Z" transform="translate(-2468.727 -1151.522)"/><path class="n" d="M2494.142,1154.336s-.422,5.267-.918,11.6l-9.247,14.632c-.01-.138-.021-.276-.031-.415-.625-8.547-1.6-26.544-1.6-26.544Z" transform="translate(-2468.727 -1151.522)"/><path class="o" d="M2523.883,1136.252s-7.609,19.074-12.612,28.037-6.566,11.465-6.566,11.465-2.866-1.146-3.126-1.928c0,0,1.913-17.3,5.263-21.523,1.893-2.384,4.117-9.537,4.221-12.038s.677-7.452.677-7.452Z" transform="translate(-2500.395 -1132.813)"/></g><path class="l" d="M2526.583,816.931a22.349,22.349,0,0,0,.349-3.181l-3.861-3.111a7.741,7.741,0,0,1-2.6,6.335s5.144,2.532,8.118,1.594A7.124,7.124,0,0,0,2526.583,816.931Z" transform="translate(-2501.026 -803.343)"/><path class="p" d="M2524.273,768.043s-4.911.816-5.372-2.25-1.405-5.026,1.711-5.677,3.9.428,4.306,1.414S2525.538,767.752,2524.273,768.043Z" transform="translate(-2497.458 -757.707)"/><path class="g" d="M2500.389,886.038a.5.5,0,0,1-.329.125c-1.174-.016-4.6.636-7.5.339a21.583,21.583,0,0,1-6.926-2c-.308-.138-1.018-.517-1-.861.01-.377.048-.925.095-1.614a86.331,86.331,0,0,0,.172-11.273c-.051-.885-.077-1.764-.08-2.628-.024-6.444,1.254-12.113,3.822-14.031.219-.157,1.566.5,2.8,1.111a5.123,5.123,0,0,0,3.367.408l1.08.955a10.794,10.794,0,0,1,3.382,5.4,60.767,60.767,0,0,1,1.018,10.021c.078,1.816.141,3.649.157,5.387v.062c.015.172.015.361.015.533C2500.53,882.436,2500.467,885.975,2500.389,886.038Z" transform="translate(-2469.336 -842.423)"/><path class="m" d="M2580.131,970.369a82.045,82.045,0,0,0,.163-10.719c-.048-.842-.073-1.677-.076-2.5,1.017-2.467,1.848-4.257,1.848-4.257h2.564S2586.51,965.732,2580.131,970.369Z" transform="translate(-2563.305 -931.338)"/><path class="n" d="M2613.066,1167.3l.683-4.793a2.631,2.631,0,0,1,2.967-2.227l3.758.536.146-1.022a.867.867,0,0,1,.979-.735l3.266.465a.867.867,0,0,1,.735.979l-.146,1.022,2.177.31a2.54,2.54,0,0,1,.254.049l1.195.17a2.621,2.621,0,0,1,2.219,2.956l-.675,4.738a2.621,2.621,0,0,1-2.956,2.219l-.893-.127a2.6,2.6,0,0,1-.567-.018l-10.915-1.555A2.631,2.631,0,0,1,2613.066,1167.3Zm11.722-7.239-3.266-.465a.314.314,0,0,0-.1,0,.324.324,0,0,0-.269.273l-.146,1.022,3.906.556.146-1.022A.323.323,0,0,0,2624.789,1160.058Z" transform="translate(-2613.04 -1116.826)"/><path class="p" d="M2680.316,1128.573l-.487.839a1.947,1.947,0,0,1-1.308,2.774s-.973.245-1.056-.429.06-.409-.081-1.362a1.739,1.739,0,0,1,.933-2.027l.554-.531Z" transform="translate(-2668.477 -1088.744)"/><path class="g" d="M2560.226,893.5a8.416,8.416,0,0,0,1.924.107s2.741-8.467,3.094-9.24,8.141-9.928,8.141-9.928l-3.245-8.12s-8.424,14.071-9.279,16.048c-1.413,3.267-1.9,10.593-1.9,10.593A3.525,3.525,0,0,0,2560.226,893.5Z" transform="translate(-2549.678 -853.446)"/><path class="o" d="M2506.853,745.649s.5-.084.423-.778-.08-1.6.484-1.432.593.621.824.357.236-1.376,1.915-1.453,2.362.507,3.143.164.822-1.525.822-1.525a1.343,1.343,0,0,1-.558.556s1.3-1.782-.205-3-3.046-.422-3.92-.369c-1.923.116-3.165.232-3.794,1.5S2505.619,744.432,2506.853,745.649Z" transform="translate(-2485.415 -737.858)"/><g transform="translate(43.124 16.372)"><path class="o" d="M2331.071,905.322l2-4.053a.16.16,0,0,1,.213-.072l1.112.548a.16.16,0,0,1,.072.213l-2,4.053a.16.16,0,0,1-.213.072l-1.112-.548A.159.159,0,0,1,2331.071,905.322Z" transform="translate(-2331.055 -901.18)"/><path class="n" d="M2325.713,910.414l2.031-4.121a.122.122,0,0,1,.162-.055l.652.321a.121.121,0,0,1,.055.162l-2.031,4.121a.121.121,0,0,1-.162.055l-.652-.321A.121.121,0,0,1,2325.713,910.414Z" transform="translate(-2324.661 -905.719)"/></g></g></g></g></svg>