<svg xmlns="http://www.w3.org/2000/svg" xmlns:xlink="http://www.w3.org/1999/xlink" width="48.378" height="44" viewBox="0 0 48.378 44"><defs><style>.a{fill:#ffe6ea;}.b{fill:url(#a);}.c{fill:url(#d);}.d{fill:#ffdfde;}.e{fill:url(#g);}.f{filter:url(#e);}.g{filter:url(#b);}</style><linearGradient id="a" x1="0.084" y1="0.183" x2="0.881" y2="0.864" gradientUnits="objectBoundingBox"><stop offset="0" stop-color="#fd7424"/><stop offset="1" stop-color="#ff3f61"/></linearGradient><filter id="b" x="0" y="4.787" width="48.378" height="38.786" filterUnits="userSpaceOnUse"><feOffset dy="2" input="SourceAlpha"/><feGaussianBlur stdDeviation="2" result="c"/><feFlood flood-color="#97011b" flood-opacity="0.502"/><feComposite operator="in" in2="c"/><feComposite in="SourceGraphic"/></filter><linearGradient id="d" x1="0.5" x2="0.5" y2="1" gradientUnits="objectBoundingBox"><stop offset="0" stop-color="#fbfbff"/><stop offset="1" stop-color="#dce0ff"/></linearGradient><filter id="e" x="9.163" y="6.8" width="29.93" height="32.4" filterUnits="userSpaceOnUse"><feOffset dy="1" input="SourceAlpha"/><feGaussianBlur stdDeviation="2" result="f"/><feFlood flood-color="#000b1c" flood-opacity="0.2"/><feComposite operator="in" in2="f"/><feComposite in="SourceGraphic"/></filter><linearGradient id="g" x1="0.5" x2="0.5" y2="1" gradientUnits="objectBoundingBox"><stop offset="0" stop-color="#ffe1d1"/><stop offset="1" stop-color="#fff"/></linearGradient></defs><g transform="translate(2.378 0.25)"><rect class="a" width="44" height="44" rx="6" transform="translate(-0.25 -0.25)"/><g transform="translate(3.622 8.537)"><g class="g" transform="matrix(1, 0, 0, 1, -6, -8.79)"><path class="b" d="M13.384,0h9.609a13.393,13.393,0,0,1,0,26.786H13.384A13.393,13.393,0,0,1,13.384,0Z" transform="translate(6 8.79)"/></g><g transform="translate(-11066.337 -1009.178)"><g class="f" transform="matrix(1, 0, 0, 1, 11060.34, 1000.39)"><path class="c" d="M0,16.813C0,15.264,2.152,14,5.574,13.478L3.622,10.4a6.571,6.571,0,1,1,10.71-.024l-1.972,3.1c3.42.52,5.57,1.786,5.57,3.335,0,2.331-4.614,3.587-8.965,3.587S0,19.144,0,16.813ZM5.976,6.574A2.988,2.988,0,1,0,8.965,3.586,2.992,2.992,0,0,0,5.976,6.574Z" transform="translate(15.16 11.8)"/></g><g transform="translate(11075.5 1012.191)"><path class="d" d="M42.427,335.221a.61.61,0,0,0-.562.275l-1.9,2.964-1.9-2.964a.587.587,0,0,0-.562-.275c-3.956.418-6.5,1.769-6.5,3.454,0,2.331,4.614,3.586,8.965,3.586s8.965-1.255,8.965-3.586C48.93,336.99,46.384,335.639,42.427,335.221Z" transform="translate(-31 -321.861)"/><path class="e" d="M97.574,0a6.57,6.57,0,0,0-5.343,10.4l4.841,7.634a.6.6,0,0,0,1,0l4.865-7.658A6.577,6.577,0,0,0,97.574,0Zm0,9.562a2.988,2.988,0,1,1,2.988-2.988A2.992,2.992,0,0,1,97.574,9.562Z" transform="translate(-88.609 0)"/></g></g></g></g></svg>