<svg xmlns="http://www.w3.org/2000/svg" xmlns:xlink="http://www.w3.org/1999/xlink" width="48.105" height="44" viewBox="0 0 48.105 44"><defs><style>.a{fill:#e1fff8;}.b{fill:url(#a);}.c{fill:url(#d);}.d{fill:url(#g);}.e{filter:url(#e);}.f{filter:url(#b);}</style><linearGradient id="a" x1="0.084" y1="0.183" x2="0.881" y2="0.864" gradientUnits="objectBoundingBox"><stop offset="0" stop-color="#52dec6"/><stop offset="1" stop-color="#01b17b"/></linearGradient><filter id="b" x="0" y="3.833" width="48.105" height="38.619" filterUnits="userSpaceOnUse"><feOffset dy="2" input="SourceAlpha"/><feGaussianBlur stdDeviation="2" result="c"/><feFlood flood-color="#006d62" flood-opacity="0.502"/><feComposite operator="in" in2="c"/><feComposite in="SourceGraphic"/></filter><linearGradient id="d" x1="0.5" x2="0.5" y2="1" gradientUnits="objectBoundingBox"><stop offset="0" stop-color="#fff"/><stop offset="1" stop-color="#acfff4"/></linearGradient><filter id="e" x="7.258" y="6.25" width="33.5" height="33.5" filterUnits="userSpaceOnUse"><feOffset dy="2" input="SourceAlpha"/><feGaussianBlur stdDeviation="2" result="f"/><feFlood flood-opacity="0.161"/><feComposite operator="in" in2="f"/><feComposite in="SourceGraphic"/></filter><linearGradient id="g" x1="0.5" x2="0.5" y2="1" gradientUnits="objectBoundingBox"><stop offset="0" stop-color="#fff"/><stop offset="1" stop-color="#acffc8"/></linearGradient></defs><g transform="translate(2.675 -0.333)"><rect class="a" width="44" height="44" rx="2" transform="translate(0.333 0.333)"/><g transform="translate(3.924 8.654)"><g class="f" transform="matrix(1, 0, 0, 1, -6.6, -8.32)"><path class="b" d="M13.284,0h9.537a13.31,13.31,0,0,1,0,26.619H13.284A13.31,13.31,0,0,1,13.284,0Z" transform="translate(6 7.83)"/></g><g transform="translate(6.659 1.928)"><g class="e" transform="matrix(1, 0, 0, 1, -13.26, -10.25)"><path class="c" d="M18.351,13.9H17.6a1.878,1.878,0,0,0-3.547,0H12.682a1.26,1.26,0,0,1,0-2.52h4.409a.706.706,0,0,0,.5-.252L20.62,7.053a4.409,4.409,0,1,0-7.058,0l2.269,3.068h-3.15a2.52,2.52,0,0,0,0,5.039h1.376a1.878,1.878,0,0,0,3.547,0h.746a1.892,1.892,0,0,1,1.89,1.89,1.928,1.928,0,0,1-1.89,1.932H13.825a1.878,1.878,0,0,0-3.547,0H5.669l2.269-3.067A4.409,4.409,0,1,0,0,13.27a4.37,4.37,0,0,0,.88,2.643c.073.1,3.039,4.111,3.133,4.188a.636.636,0,0,0,.4.14h5.87a1.878,1.878,0,0,0,3.547,0h4.525A3.189,3.189,0,0,0,21.5,17.049,3.153,3.153,0,0,0,18.351,13.9ZM15.2,4.409a1.89,1.89,0,1,1,1.89,1.89A1.892,1.892,0,0,1,15.2,4.409ZM4.409,15.159A1.89,1.89,0,1,1,6.3,13.27,1.892,1.892,0,0,1,4.409,15.159Z" transform="translate(13.26 10.25)"/></g><g transform="translate(16.461 3.779)"><path class="d" d="M392.63,90a.63.63,0,1,0,.63.63A.63.63,0,0,0,392.63,90Z" transform="translate(-392 -90)"/></g><g transform="translate(3.779 12.64)"><path class="d" d="M90.63,301a.63.63,0,1,0,.63.63A.63.63,0,0,0,90.63,301Z" transform="translate(-90 -301)"/></g></g></g></g></svg>