<svg xmlns="http://www.w3.org/2000/svg" width="26.775" height="19.154" viewBox="0 0 26.775 19.154"><defs><style>.a{stroke:#000;stroke-width:0.1px;}.b{fill:#ffbe39;}.c{fill:#fff;}</style></defs><g transform="translate(-55.761 -267.95)"><g transform="translate(52.811 262)"><g transform="translate(-10.838 -77.027)"><g transform="translate(13.838 83.027)"><path class="a" d="M26.032,272.887H15.362a1.524,1.524,0,1,1,0-3.049h10.67a1.524,1.524,0,1,1,0,3.049ZM15.362,270.6a.762.762,0,1,0,0,1.524h10.67a.762.762,0,1,0,0-1.524Z" transform="translate(-13.838 -259.549)"/><path class="a" d="M45.646,94.078H34.976A.381.381,0,0,1,34.6,93.7V84.932A1.908,1.908,0,0,1,36.5,83.027h7.621a1.908,1.908,0,0,1,1.905,1.905V93.7A.381.381,0,0,1,45.646,94.078Zm-10.289-.762h9.908V84.932a1.143,1.143,0,0,0-1.143-1.143H36.5a1.143,1.143,0,0,0-1.143,1.143Z" transform="translate(-33.452 -83.027)"/><path class="a" d="M131.459,318.27h.762v5.716h-.762Z" transform="translate(-124.981 -305.314)"/><path class="a" d="M96.865,415.135h4.573v.762H96.865Z" transform="translate(-92.292 -396.844)"/><path class="a" d="M261.275,272.887h-10.67a1.524,1.524,0,1,1,0-3.049h10.67a1.524,1.524,0,1,1,0,3.049Zm-10.67-2.286a.762.762,0,1,0,0,1.524h10.67a.762.762,0,1,0,0-1.524Z" transform="translate(-236.125 -259.549)"/><path class="a" d="M280.889,94.078h-10.67a.381.381,0,0,1-.381-.381V84.932a1.908,1.908,0,0,1,1.905-1.905h7.621a1.908,1.908,0,0,1,1.905,1.905V93.7A.381.381,0,0,1,280.889,94.078ZM270.6,93.316h9.908V84.932a1.143,1.143,0,0,0-1.143-1.143h-7.621a1.143,1.143,0,0,0-1.143,1.143Z" transform="translate(-255.738 -83.027)"/><path class="a" d="M366.7,318.27h.762v5.716H366.7Z" transform="translate(-347.268 -305.314)"/><path class="a" d="M332.108,415.135h4.573v.762h-4.573Z" transform="translate(-314.579 -396.844)"/></g><path class="b" d="M48.432,106.392H58.34V98.008A1.143,1.143,0,0,0,57.2,96.865H49.575a1.143,1.143,0,0,0-1.143,1.143Z" transform="translate(-32.689 -13.076)"/><path class="c" d="M28.438,283.676a.762.762,0,1,0,0,1.524h10.67a.762.762,0,1,0,0-1.524Z" transform="translate(-13.076 -189.598)"/><path class="b" d="M283.676,106.392h9.908V98.008a1.143,1.143,0,0,0-1.143-1.143h-7.621a1.143,1.143,0,0,0-1.143,1.143Z" transform="translate(-254.976 -13.076)"/><path class="c" d="M263.681,283.676a.762.762,0,1,0,0,1.524h10.67a.762.762,0,1,0,0-1.524Z" transform="translate(-235.362 -189.598)"/></g></g></g></svg>