<svg xmlns="http://www.w3.org/2000/svg" xmlns:xlink="http://www.w3.org/1999/xlink" width="39.006" height="34.872" viewBox="0 0 39.006 34.872"><defs><style>.a{fill:#fff;}.b{fill:url(#a);}.c{fill:#0f3075;}.d{fill:#013bb4;}.e{fill:#428fce;}.f{fill:#3180b5;}.g{fill:url(#d);}.h{fill:#c3f4ee;}.i{fill:url(#g);}.j{filter:url(#e);}.k{filter:url(#b);}</style><linearGradient id="a" x1="0.084" y1="0.183" x2="0.881" y2="0.864" gradientUnits="objectBoundingBox"><stop offset="0" stop-color="#b9ecff"/><stop offset="1" stop-color="#3f79ff"/></linearGradient><filter id="b" x="0" y="3" width="39.006" height="31.872" filterUnits="userSpaceOnUse"><feOffset dy="2" input="SourceAlpha"/><feGaussianBlur stdDeviation="2" result="c"/><feFlood flood-color="#4584ff" flood-opacity="0.49"/><feComposite operator="in" in2="c"/><feComposite in="SourceGraphic"/></filter><linearGradient id="d" x1="0.5" x2="0.5" y2="1" gradientUnits="objectBoundingBox"><stop offset="0" stop-color="#488bff"/><stop offset="1" stop-color="#5099ff"/></linearGradient><filter id="e" x="10.752" y="8.661" width="17.408" height="19.042" filterUnits="userSpaceOnUse"><feOffset dy="2" input="SourceAlpha"/><feGaussianBlur stdDeviation="1" result="f"/><feFlood flood-opacity="0.49"/><feComposite operator="in" in2="f"/><feComposite in="SourceGraphic"/></filter><linearGradient id="g" x1="0.5" x2="0.5" y2="1" gradientUnits="objectBoundingBox"><stop offset="0" stop-color="#f5fffe"/><stop offset="1" stop-color="#d9e5ff"/></linearGradient></defs><g transform="translate(-24.5 -266)"><g transform="translate(-137)"><g transform="translate(1 -14)"><g transform="translate(118.5 133)"><rect class="a" width="34" height="34" rx="6" transform="translate(45 147)"/><g transform="translate(48 154)"><g transform="translate(0 0)"><g class="k" transform="matrix(1, 0, 0, 1, -6, -7)"><path class="b" d="M9.936,0H17.07a9.936,9.936,0,0,1,0,19.872H9.936A9.936,9.936,0,0,1,9.936,0Z" transform="translate(6 7)"/></g></g><g transform="translate(6.387 2.661)"><g transform="translate(2.681 12.369)"><path class="c" d="M105.81,428.293v2.03a.388.388,0,0,1-.388.388h-.969a.388.388,0,0,1-.388-.388v-2.03Z" transform="translate(-104.065 -428.293)"/><path class="c" d="M349.272,428.293v2.03a.388.388,0,0,1-.388.388h-.969a.388.388,0,0,1-.388-.388v-2.03Z" transform="translate(-340.496 -428.293)"/></g><g transform="translate(2.68 12.369)"><rect class="d" width="1.745" height="1.539"/><rect class="d" width="1.745" height="1.539" transform="translate(7.031)"/></g><path class="e" d="M295.086,135.074h-5.4v3.712h5.4a.691.691,0,0,0,.691-.691v-2.33A.691.691,0,0,0,295.086,135.074Z" transform="translate(-281.64 -131.173)"/><path class="f" d="M11.94,135.074h5.419v3.712H11.94a.691.691,0,0,1-.691-.691v-2.33A.691.691,0,0,1,11.94,135.074Z" transform="translate(-11.249 -131.173)"/><g class="j" transform="matrix(1, 0, 0, 1, -12.39, -9.66)"><path class="g" d="M68.472,0H59.926a1.431,1.431,0,0,0-1.431,1.431V11.611a1.431,1.431,0,0,0,1.431,1.431h8.545A1.431,1.431,0,0,0,69.9,11.611V1.431A1.431,1.431,0,0,0,68.472,0Z" transform="translate(-44.74 9.66)"/></g><g transform="translate(2.142 10.545)"><circle class="h" cx="0.83" cy="0.83" r="0.83" transform="translate(0)"/><circle class="h" cx="0.83" cy="0.83" r="0.83" transform="translate(8.193)"/></g><g transform="translate(1.916 10.318)"><path class="f" d="M78.645,359.394a1.056,1.056,0,1,1,1.056-1.056A1.049,1.049,0,0,1,78.645,359.394Zm0-1.66a.6.6,0,1,0,0,1.207.6.6,0,0,0,0-1.207Z" transform="translate(-77.589 -357.282)"/><path class="f" d="M362.335,359.394a1.056,1.056,0,1,1,1.056-1.056A1.049,1.049,0,0,1,362.335,359.394Zm0-1.66a.6.6,0,1,0,0,1.207.6.6,0,0,0,0-1.207Z" transform="translate(-353.086 -357.282)"/></g><path class="i" d="M69.907,41.834v6.759a.8.8,0,0,1-.8.8H59.3a.8.8,0,0,1-.8-.8V41.834a.8.8,0,0,1,.8-.8h9.8A.8.8,0,0,1,69.907,41.834Z" transform="translate(-57.134 -39.847)"/><path class="a" d="M69.906,41.834v1.31H58.5v-1.31a.8.8,0,0,1,.8-.8h9.8A.8.8,0,0,1,69.906,41.834Z" transform="translate(-57.133 -39.847)"/><path class="f" d="M113.834,368.249h-3.051a.889.889,0,0,0-.889.889v.413a1.105,1.105,0,0,1-1.105,1.105h7.039a1.105,1.105,0,0,1-1.105-1.105v-.413A.889.889,0,0,0,113.834,368.249Z" transform="translate(-105.263 -357.614)"/><path class="c" d="M200.024,395.324h-2.713a.349.349,0,0,1-.349-.349v-.419a.349.349,0,0,1,.349-.349h2.713a.349.349,0,0,1,.349.349v.419A.349.349,0,0,1,200.024,395.324Z" transform="translate(-191.6 -382.822)"/></g></g></g></g></g></g></svg>