<svg xmlns="http://www.w3.org/2000/svg" width="13.146" height="14.103" viewBox="0 0 13.146 14.103">
  <g id="sort-descending" transform="translate(-44.42 -2.761)">
    <path id="Path_102" data-name="Path 102" d="M42.871,8.287l2.744,1.084V.22a.22.22,0,0,1,.22-.22h2.2a.22.22,0,0,1,.22.22V9.371L51,8.287a.22.22,0,0,1,.255.339L47.11,14.018a.22.22,0,0,1-.349,0L42.616,8.626a.219.219,0,0,1-.046-.134.22.22,0,0,1,.3-.2Zm6.573-1.361h6.271V5.476H49.444Zm0-2.779h6.271V2.7H49.444Zm0-4.147V1.45h6.271V0Z" transform="translate(1.85 2.761)" fill="#575757"/>
  </g>
</svg>
