<svg xmlns="http://www.w3.org/2000/svg" xmlns:xlink="http://www.w3.org/1999/xlink" width="38.363" height="35.028" viewBox="0 0 38.363 35.028"><defs><style>.a{fill:#fff;}.b{fill:url(#a);}.c{fill:url(#f);}.d{fill:#aa90fb;}.e{fill:#583eab;}.f{fill:url(#g);}.g{fill:url(#h);}.h{filter:url(#d);}.i{filter:url(#b);}</style><linearGradient id="a" x1="-0.084" x2="0.881" y2="0.864" gradientUnits="objectBoundingBox"><stop offset="0" stop-color="#ad85ff"/><stop offset="1" stop-color="#5f50fb"/></linearGradient><filter id="b" x="0" y="3.629" width="38.363" height="31.399" filterUnits="userSpaceOnUse"><feOffset dy="2" input="SourceAlpha"/><feGaussianBlur stdDeviation="2" result="c"/><feFlood flood-color="#0101a7" flood-opacity="0.502"/><feComposite operator="in" in2="c"/><feComposite in="SourceGraphic"/></filter><filter id="d" x="9.652" y="8.216" width="19.305" height="20.044" filterUnits="userSpaceOnUse"><feOffset dy="1" input="SourceAlpha"/><feGaussianBlur stdDeviation="1" result="e"/><feFlood flood-opacity="0.302"/><feComposite operator="in" in2="e"/><feComposite in="SourceGraphic"/></filter><linearGradient id="f" x1="0.5" x2="0.5" y2="1" gradientUnits="objectBoundingBox"><stop offset="0" stop-color="#f3efff"/><stop offset="1" stop-color="#c6b5ff"/></linearGradient><linearGradient id="g" x1="0.5" x2="0.5" y2="1" gradientUnits="objectBoundingBox"><stop offset="0" stop-color="#bfabff"/><stop offset="1" stop-color="#fff"/></linearGradient><linearGradient id="h" x1="0.5" x2="0.5" y2="1" gradientUnits="objectBoundingBox"><stop offset="0" stop-color="#dfd5ff"/><stop offset="1" stop-color="#9474fd"/></linearGradient></defs><g transform="translate(2.304 0.238)"><rect class="a" width="34" height="34" rx="6" transform="translate(0 -0.238)"/><g transform="translate(3.696 7.391)"><g class="i" transform="matrix(1, 0, 0, 1, -6, -7.63)"><path class="b" d="M9.7,0h6.964a9.7,9.7,0,0,1,0,19.4H9.7A9.7,9.7,0,1,1,9.7,0Z" transform="translate(6 7.63)"/></g></g><g class="h" transform="matrix(1, 0, 0, 1, -2.3, -0.24)"><path class="a" d="M10.284,14.044a.242.242,0,0,1-.242-.242v-1.7h1.937v1.7a.242.242,0,0,1-.242.242Zm-8.716,0a.243.243,0,0,1-.243-.242v-1.7H3.263v1.7a.243.243,0,0,1-.242.242Zm-.243-1.938a.484.484,0,0,1-.484-.484V1.453A1.453,1.453,0,0,1,2.294,0h8.717a1.453,1.453,0,0,1,1.453,1.453V11.622a.484.484,0,0,1-.484.484Zm11.24-4.715V4.434a.37.37,0,0,1,.74,0V7.391a.37.37,0,1,1-.74,0ZM0,7.391V4.434a.369.369,0,0,1,.739,0V7.391a.369.369,0,1,1-.739,0Z" transform="translate(12.65 10.22)"/></g><path class="c" d="M65.453,24h8.717a1.453,1.453,0,0,1,1.453,1.453V35.622a.484.484,0,0,1-.484.484H64.484A.484.484,0,0,1,64,35.622V25.453A1.453,1.453,0,0,1,65.453,24Z" transform="translate(-52.811 -14.022)"/><path class="d" d="M80,424h1.937v1.695a.242.242,0,0,1-.242.242H80.242a.242.242,0,0,1-.242-.242Z" transform="translate(-68.327 -401.915)"/><path class="d" d="M368,424h1.937v1.695a.242.242,0,0,1-.242.242h-1.453a.242.242,0,0,1-.242-.242Z" transform="translate(-347.61 -401.915)"/><ellipse class="a" cy="0.5" ry="0.5" transform="translate(13 19.762)"/><ellipse class="a" cy="0.5" ry="0.5" transform="translate(21 19.762)"/><path class="e" d="M168,344h5.327v.484H168Z" transform="translate(-153.663 -324.336)"/><path class="e" d="M168,376h5.327v.484H168Z" transform="translate(-153.663 -355.368)"/><path class="a" d="M64,96H75.622v6.3H64Z" transform="translate(-52.811 -83.843)"/><path class="f" d="M133.515,96v6.3H123.7a17.228,17.228,0,0,0,9.091-6.3Z" transform="translate(-110.704 -83.843)"/><path class="e" d="M0,0H.484V6.3H0Z" transform="translate(17.242 18.453) rotate(180)"/><rect class="g" height="4" transform="translate(11 13.762)"/><rect class="g" height="4" transform="translate(23 13.762)"/><path class="e" d="M80,424h1.937v.484H80Z" transform="translate(-68.327 -401.915)"/><path class="e" d="M368,424h1.937v.484H368Z" transform="translate(-347.61 -401.915)"/></g></svg>