<svg xmlns="http://www.w3.org/2000/svg" xmlns:xlink="http://www.w3.org/1999/xlink" width="68.411" height="60" viewBox="0 0 68.411 60"><defs><style>.a{fill:#ebebff;}.b{fill:url(#a);}.c{fill:url(#d);}.d{filter:url(#h);}.e{filter:url(#e);}.f{filter:url(#b);}</style><linearGradient id="a" x1="0.084" y1="0.183" x2="0.881" y2="0.864" gradientUnits="objectBoundingBox"><stop offset="0" stop-color="#9499ff"/><stop offset="1" stop-color="#945aff"/></linearGradient><filter id="b" x="9.5" y="12.5" width="49.115" height="38.519" filterUnits="userSpaceOnUse"><feOffset dy="2" input="SourceAlpha"/><feGaussianBlur stdDeviation="1.5" result="c"/><feFlood flood-color="#3d00a7" flood-opacity="0.22"/><feComposite operator="in" in2="c"/><feComposite in="SourceGraphic"/></filter><linearGradient id="d" x1="0.5" x2="0.5" y2="1" gradientUnits="objectBoundingBox"><stop offset="0" stop-color="#fff"/><stop offset="1" stop-color="#e2d4ff"/></linearGradient><filter id="e" x="28.072" y="19.404" width="19.715" height="25.238" filterUnits="userSpaceOnUse"><feOffset dy="2" input="SourceAlpha"/><feGaussianBlur stdDeviation="1" result="f"/><feFlood flood-opacity="0.122"/><feComposite operator="in" in2="f"/><feComposite in="SourceGraphic"/></filter><filter id="h" x="19.788" y="20.693" width="19.025" height="23.949" filterUnits="userSpaceOnUse"><feOffset dy="2" input="SourceAlpha"/><feGaussianBlur stdDeviation="1" result="i"/><feFlood flood-opacity="0.122"/><feComposite operator="in" in2="i"/><feComposite in="SourceGraphic"/></filter></defs><g transform="translate(-2775 -1172)"><g transform="translate(2775 1172)"><rect class="a" width="68.411" height="60" rx="9" transform="translate(0 0)"/></g><g transform="translate(2785 1179.404)"><g transform="translate(4.788 8)"><g class="f" transform="matrix(1, 0, 0, 1, -14.79, -15.4)"><path class="b" d="M14.759,0h10.6a14.759,14.759,0,1,1,0,29.519h-10.6A14.759,14.759,0,0,1,14.759,0Z" transform="translate(14 15)"/></g><g transform="translate(8 5)"><g class="e" transform="matrix(1, 0, 0, 1, -22.79, -20.4)"><path class="c" d="M204.491,0h-9.665A2.025,2.025,0,0,0,192.8,2.025V6.786l1.578.785.788-1.577a1.934,1.934,0,1,1,3.459,1.729l-1.405,2.811a2.936,2.936,0,0,1-.1,1.11h.928L195.6,18.373a.644.644,0,1,0,1.211.44l2.607-7.169h.452l2.634,7.172a.644.644,0,0,0,1.21-.444l-2.471-6.727h3.247a2.025,2.025,0,0,0,2.025-2.025V2.025A2.025,2.025,0,0,0,204.491,0ZM203.11,8.883h-2.892a.645.645,0,1,1,0-1.289h2.892a.645.645,0,0,1,0,1.289Zm0-2.416h-2.892a.645.645,0,1,1,0-1.289h2.892a.645.645,0,0,1,0,1.289Zm0-2.416h-6.9a.645.645,0,0,1,0-1.289h6.9a.645.645,0,0,1,0,1.289Zm0,0" transform="translate(-161.73 20.4)"/></g><g class="d" transform="matrix(1, 0, 0, 1, -22.79, -20.4)"><path class="c" d="M11.34,40.078a1.666,1.666,0,0,0,.017-1.023l1.6-3.2A.645.645,0,0,0,11.8,35.28L10.44,38.008,7.388,36.49a5.527,5.527,0,0,0-2.722-.876H4.1a2.808,2.808,0,1,0-2.044-.883,2.8,2.8,0,0,0,2.044.883,4.117,4.117,0,0,0-2.9,1.2,4.064,4.064,0,0,0-1.2,2.9v2.071A2.029,2.029,0,0,0,1.381,43.7v3.6a.644.644,0,0,0,.645.645H6.167a.644.644,0,0,0,.645-.645V40.063l2.063,1.032a1.765,1.765,0,0,0,2.462-1.008l0-.008Zm0,0" transform="translate(22.79 -8.31)"/></g></g></g></g></g></svg>