<svg xmlns="http://www.w3.org/2000/svg" xmlns:xlink="http://www.w3.org/1999/xlink" width="68.411" height="60" viewBox="0 0 68.411 60"><defs><style>.a{fill:#dcffff;}.b{fill:url(#a);}.c{fill:url(#d);}.d{fill:#198395;}.e{fill:url(#g);}.f{filter:url(#h);}.g{filter:url(#e);}.h{filter:url(#b);}</style><linearGradient id="a" x1="0.084" y1="0.183" x2="0.881" y2="0.864" gradientUnits="objectBoundingBox"><stop offset="0" stop-color="#08b6d5"/><stop offset="1" stop-color="#21efed"/></linearGradient><filter id="b" x="9.5" y="12.5" width="48.815" height="38.298" filterUnits="userSpaceOnUse"><feOffset dy="2" input="SourceAlpha"/><feGaussianBlur stdDeviation="1.5" result="c"/><feFlood flood-color="#006171" flood-opacity="0.2"/><feComposite operator="in" in2="c"/><feComposite in="SourceGraphic"/></filter><linearGradient id="d" x1="0.5" x2="0.5" y2="1" gradientUnits="objectBoundingBox"><stop offset="0" stop-color="#c7f6ff"/><stop offset="0.393" stop-color="#fff"/><stop offset="0.644" stop-color="#fff"/><stop offset="1" stop-color="#fff"/></linearGradient><filter id="e" x="21.501" y="14.5" width="21.993" height="21.993" filterUnits="userSpaceOnUse"><feOffset dy="1" input="SourceAlpha"/><feGaussianBlur stdDeviation="1.5" result="f"/><feFlood flood-opacity="0.161"/><feComposite operator="in" in2="f"/><feComposite in="SourceGraphic"/></filter><linearGradient id="g" x1="0.5" x2="0.5" y2="1" gradientUnits="objectBoundingBox"><stop offset="0" stop-color="#c5f6ff"/><stop offset="1" stop-color="#fff"/></linearGradient><filter id="h" x="24.108" y="20.5" width="23.68" height="26.695" filterUnits="userSpaceOnUse"><feOffset dy="1" input="SourceAlpha"/><feGaussianBlur stdDeviation="1.5" result="i"/><feFlood flood-opacity="0.161"/><feComposite operator="in" in2="i"/><feComposite in="SourceGraphic"/></filter></defs><g transform="translate(-2775 -1172)"><g transform="translate(2775 1172)"><rect class="a" width="68.411" height="60" rx="9" transform="translate(0 0)"/></g><g transform="translate(2789.385 1187.37)"><g class="h" transform="matrix(1, 0, 0, 1, -14.38, -15.37)"><path class="b" d="M14.649,0H25.166a14.649,14.649,0,0,1,0,29.3H14.649a14.649,14.649,0,0,1,0-29.3Z" transform="translate(14 15)"/></g><g transform="translate(-34.527 2.63)"><g class="g" transform="matrix(1, 0, 0, 1, 20.14, -18)"><path class="c" d="M58.825,5.009l-1.2-.183a5.3,5.3,0,0,0-.278-.671l.719-.979a.367.367,0,0,0-.036-.477L56.438,1.107a.367.367,0,0,0-.477-.036l-.979.719a5.244,5.244,0,0,0-.671-.277l-.184-1.2A.367.367,0,0,0,53.764,0h-2.25a.367.367,0,0,0-.363.312l-.184,1.2a5.214,5.214,0,0,0-.671.277l-.98-.719a.367.367,0,0,0-.477.036L47.251,2.7a.366.366,0,0,0-.036.477l.719.979a5.224,5.224,0,0,0-.278.671l-1.2.183a.367.367,0,0,0-.312.363v2.25a.367.367,0,0,0,.312.363l1.2.184a5.218,5.218,0,0,0,.278.671l-.719.98a.366.366,0,0,0,.036.477l1.591,1.591a.367.367,0,0,0,.477.037l.98-.72a5.148,5.148,0,0,0,.671.278l.184,1.2a.367.367,0,0,0,.363.312h2.25a.367.367,0,0,0,.363-.312l.184-1.2a5.177,5.177,0,0,0,.671-.278l.979.72a.368.368,0,0,0,.477-.037l1.591-1.591a.367.367,0,0,0,.036-.477l-.719-.98a5.288,5.288,0,0,0,.278-.671l1.2-.184a.367.367,0,0,0,.311-.363V5.372A.367.367,0,0,0,58.825,5.009ZM55.26,6.5a2.62,2.62,0,1,1-2.62-2.62A2.621,2.621,0,0,1,55.26,6.5Z" transform="translate(-20.14 18)"/></g><path class="d" d="M114.945,65.512a3.291,3.291,0,1,0,3.291,3.291A3.291,3.291,0,0,0,114.945,65.512Zm0,5.912a2.62,2.62,0,1,1,2.62-2.62A2.621,2.621,0,0,1,114.945,71.424Z" transform="translate(-62.306 -62.307)"/><g class="f" transform="matrix(1, 0, 0, 1, 20.14, -18)"><path class="e" d="M114.108,129.12a6.435,6.435,0,1,0-12.87-.054c0,.142.005.283.014.423l-1.8,4.86a.294.294,0,0,0,.275.4h1.719v1.994a1.453,1.453,0,0,0,1.453,1.453h2.945v2.135h6.077V133.9A6.419,6.419,0,0,0,114.108,129.12Z" transform="translate(-70.82 -98.63)"/></g></g></g></g></svg>