<svg xmlns="http://www.w3.org/2000/svg" width="27.667" height="27.667" viewBox="0 0 27.667 27.667"><defs><style>.a{fill:#dcf2ff;}.b{fill:#1586c7;stroke:#1586c7;}.c,.d{stroke:none;}.d{fill:#dcf2ff;}</style></defs><g transform="translate(-4763.479 -847.245)"><g transform="translate(4764.479 848.245)"><g class="a"><path class="c" d="M 12.83333301544189 26.16666221618652 C 10.50785255432129 26.16666221618652 8.326442718505859 25.58270263671875 6.164433002471924 24.38142395019531 C 4.211672782897949 23.30035209655762 2.554563045501709 21.67486381530762 1.372943043708801 19.68106269836426 C 0.1476530134677887 17.61358261108398 -0.4999969899654388 15.24567317962646 -0.4999969899654388 12.83333301544189 C -0.4999969899654388 9.271873474121094 0.886913001537323 5.923583030700684 3.405242919921875 3.405242919921875 C 5.923583030700684 0.886913001537323 9.271873474121094 -0.4999969899654388 12.83333301544189 -0.4999969899654388 C 16.3947925567627 -0.4999969899654388 19.74308395385742 0.886913001537323 22.26142311096191 3.405242919921875 C 24.77975273132324 5.923583030700684 26.16666221618652 9.271873474121094 26.16666221618652 12.83333301544189 C 26.16666221618652 16.3947925567627 24.77975273132324 19.74308395385742 22.26142311096191 22.26142311096191 C 19.74308395385742 24.77975273132324 16.3947925567627 26.16666221618652 12.83333301544189 26.16666221618652 Z"/><path class="d" d="M 12.83333301544189 3.814697265625e-06 C 5.745683670043945 3.814697265625e-06 3.814697265625e-06 5.745683670043945 3.814697265625e-06 12.83333301544189 C 3.814697265625e-06 17.66711235046387 2.672452926635742 21.87671279907227 6.407283782958984 23.94436264038086 C 8.461292266845703 25.08564376831055 10.57946300506592 25.66666221618652 12.83333301544189 25.66666221618652 C 19.92098236083984 25.66666221618652 25.66666221618652 19.92098236083984 25.66666221618652 12.83333301544189 C 25.66666221618652 5.745683670043945 19.92098236083984 3.814697265625e-06 12.83333301544189 3.814697265625e-06 M 12.83333301544189 -0.9999961853027344 C 16.52835273742676 -0.9999961853027344 20.0022029876709 0.4389228820800781 22.6149730682373 3.051692962646484 C 25.22774314880371 5.664463043212891 26.66666221618652 9.138313293457031 26.66666221618652 12.83333301544189 C 26.66666221618652 16.52835273742676 25.22774314880371 20.0022029876709 22.6149730682373 22.6149730682373 C 20.0022029876709 25.22774314880371 16.52835273742676 26.66666221618652 12.83333301544189 26.66666221618652 C 10.42065334320068 26.66666221618652 8.15980339050293 26.0621223449707 5.92158317565918 24.8184928894043 C 3.891803741455078 23.69478225708008 2.169702529907227 22.00617218017578 0.9428138732910156 19.93598365783691 C -0.32818603515625 17.79137420654297 -0.9999961853027344 15.33532333374023 -0.9999961853027344 12.83333301544189 C -0.9999961853027344 9.138313293457031 0.4389228820800781 5.664463043212891 3.051692962646484 3.051692962646484 C 5.664463043212891 0.4389228820800781 9.138313293457031 -0.9999961853027344 12.83333301544189 -0.9999961853027344 Z"/></g><g transform="translate(5.201 7.225)"><path class="b" d="M-233.99,403.7v6.111s-2.214.443-2.569,2.214l-.089,2.879a1.557,1.557,0,0,1-2.126-1.24l-.177-2.834-3.366-.089s-1.417-.177-1.24-1.506l.753-4.694s.31-1.329,1.107-1.55l6.067-.089S-234.211,403.124-233.99,403.7Z" transform="translate(243.571 -402.903)"/><rect class="b" width="3.062" height="6.428" rx="1" transform="translate(11.397 0.55)"/></g></g></g></svg>