<svg xmlns="http://www.w3.org/2000/svg" width="25.667" height="25.667" viewBox="0 0 25.667 25.667"><defs><style>.a{fill:#dcf2ff;}.b{fill:#1586c7;}</style></defs><path class="a" d="M12.833,0a12.833,12.833,0,1,1,0,25.667,13,13,0,0,1-6.426-1.722A12.835,12.835,0,0,1,12.833,0Z"/><g transform="translate(6.201 7.225)"><path class="b" d="M-243.571,414.206V408.1s2.214-.443,2.569-2.214l.089-2.879a1.557,1.557,0,0,1,2.126,1.24l.177,2.834,3.366.089s1.417.177,1.24,1.506l-.753,4.694s-.31,1.329-1.107,1.55l-6.067.089S-243.35,414.782-243.571,414.206Z" transform="translate(247.449 -402.903)"/><rect class="b" width="3.062" height="6.428" rx="1" transform="translate(0 5.122)"/></g></svg>