<svg xmlns="http://www.w3.org/2000/svg" xmlns:xlink="http://www.w3.org/1999/xlink" width="58" height="58" viewBox="0 0 58 58"><defs><style>.a{fill:#fff;}.b{fill:#ffc03f;}.c{fill:#c3d3dd;}.d{filter:url(#a);}</style><filter id="a" x="0" y="0" width="58" height="58" filterUnits="userSpaceOnUse"><feOffset dy="3" input="SourceAlpha"/><feGaussianBlur stdDeviation="3" result="b"/><feFlood flood-opacity="0.161"/><feComposite operator="in" in2="b"/><feComposite in="SourceGraphic"/></filter></defs><g transform="translate(-10 -83)"><g class="d" transform="matrix(1, 0, 0, 1, 10, 83)"><rect class="a" width="40" height="40" rx="3" transform="translate(9 6)"/></g><g transform="translate(27 78)"><g transform="translate(0.466 24.945)"><path class="b" d="M30.7,142.672H12.237A2.237,2.237,0,0,1,10,140.435V128.32a2.237,2.237,0,0,1,2.237-2.237H30.7a2.237,2.237,0,0,1,2.237,2.237v12.115A2.237,2.237,0,0,1,30.7,142.672Z" transform="translate(-10 -126.083)"/></g><g transform="translate(10.167 33.129)"><path class="c" d="M221.669,301.667V302.8a1.771,1.771,0,0,1-3.542,0v-1.134Z" transform="translate(-218.127 -301.667)"/></g><g transform="translate(0.473 24.945)"><path class="a" d="M14.6,134.267h14a4.459,4.459,0,0,0,4.459-4.459v-1.73a2.237,2.237,0,0,0-2.224-1.995H12.38a2.237,2.237,0,0,0-2.237,2.237v1.488A4.459,4.459,0,0,0,14.6,134.267Z" transform="translate(-10.143 -126.083)"/></g><g transform="translate(6.153 20.466)"><path class="b" d="M141.322,30h-7.085A2.237,2.237,0,0,0,132,32.237h11.559A2.237,2.237,0,0,0,141.322,30Z" transform="translate(-132 -30)"/></g><g transform="translate(10.167 31.078)"><path class="a" d="M219.9,262.622a1.771,1.771,0,0,1-1.771-1.771v-2.59a.6.6,0,0,1,.6-.6h2.352a.6.6,0,0,1,.6.6v2.59A1.771,1.771,0,0,1,219.9,262.622Z" transform="translate(-218.127 -257.666)"/></g><g transform="translate(10.167 31.078)"><path class="b" d="M218.127,259.718v-1.456a.6.6,0,0,1,.6-.6h2.352a.6.6,0,0,1,.6.6v1.456Z" transform="translate(-218.127 -257.667)"/></g><g transform="translate(0 20)"><path d="M21.161,24.478H18.178V22.7a2.706,2.706,0,0,0-2.7-2.7H8.39a2.706,2.706,0,0,0-2.7,2.7v1.775H2.7a2.706,2.706,0,0,0-2.7,2.7V39.3A2.706,2.706,0,0,0,2.7,42H21.161a2.706,2.706,0,0,0,2.7-2.7V27.182A2.706,2.706,0,0,0,21.161,24.478ZM8.39,20.932h7.085a1.774,1.774,0,0,1,1.709,1.305H6.681A1.774,1.774,0,0,1,8.39,20.932ZM.932,27.182A1.773,1.773,0,0,1,2.7,25.411H9.841a.466.466,0,0,0,0-.932H6.619V23.17H17.246v1.309h-3.21a.466.466,0,0,0,0,.932h7.125a1.773,1.773,0,0,1,1.771,1.771v1.486a4,4,0,0,1-4,4H14.175v-.991a1.063,1.063,0,0,0-1.061-1.061H10.762A1.063,1.063,0,0,0,9.7,31.673v.991H4.928a4,4,0,0,1-4-4Zm9.7,6.414h2.61v.667a1.305,1.305,0,0,1-2.61,0Zm0-.932v-.991a.129.129,0,0,1,.129-.129h2.352a.129.129,0,0,1,.129.129v.991Zm12.3,6.633a1.773,1.773,0,0,1-1.771,1.771H2.7A1.773,1.773,0,0,1,.932,39.3V31.549a4.924,4.924,0,0,0,4,2.047H9.7v.667a2.237,2.237,0,0,0,4.475,0V33.6h4.761a4.925,4.925,0,0,0,4-2.047Z" transform="translate(0 -20)"/><path d="M246.6,117.012a.466.466,0,1,0-.33-.137A.468.468,0,0,0,246.6,117.012Z" transform="translate(-234.658 -111.602)"/></g></g></g></svg>