<svg xmlns="http://www.w3.org/2000/svg" xmlns:xlink="http://www.w3.org/1999/xlink" width="51" height="51" viewBox="0 0 51 51"><defs><style>.a,.b{fill:#fff;}.b,.c{stroke:#010101;stroke-width:0.8px;}.c{fill:#ffc03f;}.d{font-size:14px;font-family:Roboto-Regular, Roboto;}.e{filter:url(#a);}</style><filter id="a" x="0" y="0" width="51" height="51" filterUnits="userSpaceOnUse"><feOffset dy="1" input="SourceAlpha"/><feGaussianBlur stdDeviation="1.5" result="b"/><feFlood flood-opacity="0.161"/><feComposite operator="in" in2="b"/><feComposite in="SourceGraphic"/></filter></defs><g transform="translate(-16.5 -224.5)"><g transform="translate(3 138)"><g class="e" transform="matrix(1, 0, 0, 1, 13.5, 86.5)"><rect class="a" width="42" height="42" rx="3" transform="translate(4.5 3.5)"/></g></g><g transform="translate(1 -1)"><g transform="translate(-75.768 125.047)"><g transform="translate(112.947 110.953)"><g transform="translate(0 6.736)"><path class="b" d="M1.375,15.453A1.374,1.374,0,0,1,0,14.083V8.975A3.17,3.17,0,0,1,3.176,5.818H4.261A3.17,3.17,0,0,1,7.437,8.975c0,1.691-.377,5.064-.377,5.777a.7.7,0,0,1-.7.7Zm-.21-12.96A2.493,2.493,0,1,1,3.658,4.987,2.493,2.493,0,0,1,1.165,2.493Z" transform="translate(11.025 2.837)"/><path class="c" d="M1.638,19.983A1.64,1.64,0,0,1,0,18.344V14.511A5.667,5.667,0,0,1,5.661,8.851H6.968a5.666,5.666,0,0,1,5.66,5.661v3.833a1.64,1.64,0,0,1-1.638,1.638Zm1.1-15.931A4.052,4.052,0,1,1,6.788,8.1,4.051,4.051,0,0,1,2.736,4.051Z" transform="translate(0)"/></g><path class="b" d="M8.309,27.776l-2.642-2.1A.424.424,0,0,0,4.984,26v.7a.4.4,0,0,1-.376.423H.41a.4.4,0,0,0-.41.4V28.63a.415.415,0,0,0,.41.41h4.2a.377.377,0,0,1,.376.4v.7a.419.419,0,0,0,.676.321L8.3,28.418A.4.4,0,0,0,8.309,27.776Z" transform="translate(2.572 -25.585)"/><path class="c" d="M.155,27.776l2.642-2.1A.424.424,0,0,1,3.479,26v.7a.4.4,0,0,0,.375.423h4.2a.4.4,0,0,1,.41.4V28.63a.415.415,0,0,1-.41.41h-4.2a.377.377,0,0,0-.375.4v.7a.419.419,0,0,1-.676.321L.168,28.418A.4.4,0,0,1,.155,27.776Z" transform="translate(10.69 -21.852)"/></g></g><g transform="translate(2 165)"><g transform="translate(-159 -28)"><text class="d" transform="translate(182 118)"><tspan x="0" y="0">2</tspan></text></g></g></g></g></svg>