<svg xmlns="http://www.w3.org/2000/svg" xmlns:xlink="http://www.w3.org/1999/xlink" width="26" height="26" viewBox="0 0 26 26"><defs><style>.a{fill:#fff6ef;}.b{fill:url(#a);}.c{fill:url(#d);}.d{fill:#fff;}.e{fill:url(#g);}.f{filter:url(#e);}.g{filter:url(#b);}</style><linearGradient id="a" x1="0.034" y1="0.336" x2="0.912" y2="0.707" gradientUnits="objectBoundingBox"><stop offset="0" stop-color="#ff7423"/><stop offset="1" stop-color="#ff4163"/></linearGradient><filter id="b" x="2.5" y="5.5" width="21.461" height="17.47" filterUnits="userSpaceOnUse"><feOffset dy="1" input="SourceAlpha"/><feGaussianBlur stdDeviation="0.5" result="c"/><feFlood flood-color="#ff455f" flood-opacity="0.369"/><feComposite operator="in" in2="c"/><feComposite in="SourceGraphic"/></filter><linearGradient id="d" x1="0.5" x2="0.5" y2="1" gradientUnits="objectBoundingBox"><stop offset="0" stop-color="#ffd6d6"/><stop offset="0.488" stop-color="#fcaeb1"/><stop offset="1" stop-color="#f9858b"/></linearGradient><filter id="e" x="6.501" y="8.5" width="13.963" height="11.171" filterUnits="userSpaceOnUse"><feOffset dy="1" input="SourceAlpha"/><feGaussianBlur stdDeviation="0.5" result="f"/><feFlood flood-opacity="0.18"/><feComposite operator="in" in2="f"/><feComposite in="SourceGraphic"/></filter><linearGradient id="g" x1="-1.75" y1="0.781" x2="2.75" y2="0.219" gradientUnits="objectBoundingBox"><stop offset="0" stop-color="#ff4854"/><stop offset="1" stop-color="#ffb8ba"/></linearGradient></defs><g transform="translate(-22 -174)"><rect class="a" width="26" height="26" rx="3" transform="translate(22 174)"/><g transform="translate(26.354 180.349)"><g class="g" transform="matrix(1, 0, 0, 1, -4.35, -6.35)"><path class="b" d="M7.235,0h3.992a7.235,7.235,0,1,1,0,14.47H7.235A7.235,7.235,0,0,1,7.235,0Z" transform="translate(4 6)"/></g><g transform="translate(3.327 3.104)"><g class="f" transform="matrix(1, 0, 0, 1, -7.68, -9.45)"><rect class="c" width="10.963" height="8.171" rx="1" transform="translate(8 9)"/></g><path class="d" d="M13.659,40.51A1.531,1.531,0,0,1,12,39.157v-1.8A1.53,1.53,0,0,1,13.659,36a1.53,1.53,0,0,1,1.659,1.353v1.8A1.531,1.531,0,0,1,13.659,40.51Zm0-3.608a.51.51,0,0,0-.553.451v1.8a.565.565,0,0,0,1.106,0v-1.8A.51.51,0,0,0,13.659,36.9Z" transform="translate(-10.673 -34.547)"/><path class="d" d="M61.659,40.51A1.531,1.531,0,0,1,60,39.157v-1.8a1.694,1.694,0,0,1,3.318,0v1.8A1.531,1.531,0,0,1,61.659,40.51Zm0-3.608a.51.51,0,0,0-.553.451v1.8a.565.565,0,0,0,1.106,0v-1.8A.51.51,0,0,0,61.659,36.9Z" transform="translate(-52.823 -34.547)"/><path class="e" d="M44,24h1.106v8.233H44Z" transform="translate(-38.661 -24.453)"/></g></g></g></svg>