<svg xmlns="http://www.w3.org/2000/svg" xmlns:xlink="http://www.w3.org/1999/xlink" width="355" height="160" viewBox="0 0 355 160"><defs><style>.a{fill:#27e2c6;}.b{fill:url(#a);}.c{clip-path:url(#b);}.d{opacity:0.39;}.d,.h{fill:url(#c);}.e,.f,.g,.j{fill:none;}.e,.f,.g{stroke:#fff;stroke-width:30px;}.e{opacity:0.04;}.f{opacity:0.16;}.g{opacity:0.08;}.h{opacity:0.41;}.i{stroke:none;}</style><linearGradient id="a" x1="0.016" y1="0.938" x2="1" y2="0.931" gradientUnits="objectBoundingBox"><stop offset="0" stop-color="#1489c8"/><stop offset="1" stop-color="#46b6f5"/></linearGradient><clipPath id="b"><rect class="a" width="355" height="160" rx="6" transform="translate(0 0)"/></clipPath><linearGradient id="c" x1="0.452" y1="-0.974" x2="0.494" y2="1.012" gradientUnits="objectBoundingBox"><stop offset="0" stop-color="#fff"/><stop offset="1" stop-color="#fff" stop-opacity="0"/></linearGradient></defs><g transform="translate(-10 -78)"><path class="b" d="M5.839,0H349.161A6,6,0,0,1,355,6.154V153.846A6,6,0,0,1,349.161,160H5.839A6,6,0,0,1,0,153.846V6.154A6,6,0,0,1,5.839,0Z" transform="translate(10 78)"/><g class="c" transform="translate(10 78)"><path class="d" d="M191.561.251,369.793,247.489.336,256.823Z" transform="matrix(0.559, -0.829, 0.829, 0.559, 29.397, 91.643)"/><g class="e" transform="translate(249.703 -57.219)"><ellipse class="i" cx="77.218" cy="81.589" rx="77.218" ry="81.589"/><ellipse class="j" cx="77.218" cy="81.589" rx="62.218" ry="66.589"/></g><g class="f" transform="translate(-59.167 93.245)"><ellipse class="i" cx="75.713" cy="79.47" rx="75.713" ry="79.47"/><ellipse class="j" cx="75.713" cy="79.47" rx="60.713" ry="64.47"/></g><g class="g" transform="translate(-117.331 31.788)"><ellipse class="i" cx="134.379" cy="141.457" rx="134.379" ry="141.457"/><ellipse class="j" cx="134.379" cy="141.457" rx="119.379" ry="126.457"/></g><path class="h" d="M191.49.254l177.98,247.4L.341,257.118Z" transform="matrix(0.574, -0.819, 0.819, 0.574, -66.66, 147.224)"/></g></g></svg>