<svg xmlns="http://www.w3.org/2000/svg" xmlns:xlink="http://www.w3.org/1999/xlink" width="68.411" height="60" viewBox="0 0 68.411 60"><defs><style>.a{fill:#ffe6ea;}.b{fill:url(#a);}.c{fill:url(#d);}.d{fill:url(#g);}.e{fill:#f9f9f9;}.f{fill:#c43e56;}.g{filter:url(#h);}.h{filter:url(#e);}.i{filter:url(#b);}</style><linearGradient id="a" x1="0.084" y1="0.183" x2="0.881" y2="0.864" gradientUnits="objectBoundingBox"><stop offset="0" stop-color="#fd7424"/><stop offset="1" stop-color="#ff3f61"/></linearGradient><filter id="b" x="9.5" y="12.5" width="49.103" height="38.509" filterUnits="userSpaceOnUse"><feOffset dy="2" input="SourceAlpha"/><feGaussianBlur stdDeviation="1.5" result="c"/><feFlood flood-color="#b20101" flood-opacity="0.2"/><feComposite operator="in" in2="c"/><feComposite in="SourceGraphic"/></filter><linearGradient id="d" x1="0.5" x2="0.5" y2="1" gradientUnits="objectBoundingBox"><stop offset="0" stop-color="#ffe1d1"/><stop offset="1" stop-color="#fff"/></linearGradient><filter id="e" x="24.385" y="16.744" width="25.763" height="25.763" filterUnits="userSpaceOnUse"><feOffset dy="1" input="SourceAlpha"/><feGaussianBlur stdDeviation="1.5" result="f"/><feFlood flood-opacity="0.161"/><feComposite operator="in" in2="f"/><feComposite in="SourceGraphic"/></filter><linearGradient id="g" x1="0.5" y1="0.621" x2="0.5" y2="-0.73" gradientUnits="objectBoundingBox"><stop offset="0" stop-color="#ffdfde"/><stop offset="1" stop-color="#ffb1b1"/></linearGradient><filter id="h" x="20.499" y="18.5" width="18.227" height="21.355" filterUnits="userSpaceOnUse"><feOffset dy="1" input="SourceAlpha"/><feGaussianBlur stdDeviation="0.5" result="i"/><feFlood flood-opacity="0.161"/><feComposite operator="in" in2="i"/><feComposite in="SourceGraphic"/></filter></defs><g transform="translate(-8702 -5467)"><g transform="translate(5927 4295)"><g transform="translate(2775 1172)"><rect class="a" width="68.411" height="60" rx="9" transform="translate(0 0)"/></g></g><g transform="translate(-78 11)"><g transform="translate(8794 5471)"><g class="i" transform="matrix(1, 0, 0, 1, -14, -15)"><path class="b" d="M14.755,0H25.348a14.755,14.755,0,1,1,0,29.509H14.755A14.755,14.755,0,0,1,14.755,0Z" transform="translate(14 15)"/></g></g><g transform="translate(-0.952 -0.008)"><g class="h" transform="matrix(1, 0, 0, 1, 8780.95, 5456.01)"><path class="c" d="M62.5,6.462l-1.55-.237a6.834,6.834,0,0,0-.359-.866L61.524,4.1a.473.473,0,0,0-.047-.615L59.425,1.428a.474.474,0,0,0-.615-.047l-1.263.928a6.765,6.765,0,0,0-.865-.358L56.444.4a.473.473,0,0,0-.468-.4h-2.9a.473.473,0,0,0-.468.4l-.237,1.55a6.727,6.727,0,0,0-.865.358l-1.264-.928a.473.473,0,0,0-.615.047L47.572,3.481a.472.472,0,0,0-.047.615l.928,1.263a6.739,6.739,0,0,0-.359.866l-1.55.237a.474.474,0,0,0-.4.468v2.9a.474.474,0,0,0,.4.468l1.55.237a6.731,6.731,0,0,0,.359.865l-.928,1.264a.473.473,0,0,0,.047.615l2.052,2.052a.473.473,0,0,0,.615.047l1.264-.929a6.641,6.641,0,0,0,.865.359l.237,1.55a.474.474,0,0,0,.468.4h2.9a.474.474,0,0,0,.468-.4l.237-1.55a6.679,6.679,0,0,0,.865-.359l1.263.929a.474.474,0,0,0,.615-.047l2.052-2.052a.473.473,0,0,0,.047-.615L60.6,11.4a6.824,6.824,0,0,0,.359-.865L62.5,10.3a.473.473,0,0,0,.4-.468V6.93A.473.473,0,0,0,62.5,6.462Zm-4.6,1.92A3.381,3.381,0,1,1,54.524,5,3.381,3.381,0,0,1,57.905,8.381Z" transform="translate(-17.26 20.24)"/></g><g transform="translate(8802.953 5475.007)"><g transform="translate(0)"><g class="g" transform="matrix(1, 0, 0, 1, -22, -19)"><path class="d" d="M-8843.954-5464.558v-15.692a1.756,1.756,0,0,1,1.758-1.756h12.883a.585.585,0,0,1,.586.584v15.108a.587.587,0,0,1-.586.586h-10.736v.766l-3.043,1.312Z" transform="translate(8865.95 5501.01)"/></g></g><path class="e" d="M90.639,417H77.171A1.171,1.171,0,0,0,76,418.171v.781a1.171,1.171,0,0,0,1.171,1.171H90.639A2.6,2.6,0,0,1,90.639,417Z" transform="translate(-75.414 -400.722)"/><g transform="translate(0 15.693)"><path class="f" d="M76.224,402.586a.586.586,0,0,1-.586.586H62.757a.586.586,0,0,0-.586.586v.781a.586.586,0,0,0,.586.586H75.639a.586.586,0,0,1,0,1.171H62.757A1.759,1.759,0,0,1,61,404.537v-.781A1.759,1.759,0,0,1,62.757,402H76.224Z" transform="translate(-61 -402)"/></g></g></g></g></g></svg>