<svg xmlns="http://www.w3.org/2000/svg" width="42" height="42" viewBox="0 0 42 42"><defs><style>.a,.b{fill:#fff;}.a{opacity:0.41;}.c{fill:#ffc03f;}.d{fill:#2d2d2d;}</style></defs><g transform="translate(-17 -121)"><rect class="a" width="42" height="42" rx="21" transform="translate(17 121)"/><rect class="b" width="34" height="34" rx="17" transform="translate(21 125)"/><g transform="translate(26 129)"><g transform="translate(0.474 0.474)"><g transform="translate(13.928 11.422)"><path class="b" d="M364.007,255.517a1.932,1.932,0,0,1-1.932-1.932v-.84a1.932,1.932,0,0,1,3.865,0v.84A1.932,1.932,0,0,1,364.007,255.517Z" transform="translate(-359.303 -250.812)"/><path class="c" d="M310.21,350h-6.585v4.621h9.41v-1.8A2.824,2.824,0,0,0,310.21,350Z" transform="translate(-303.625 -345.295)"/></g><g transform="translate(0 11.422)"><path class="b" d="M70.381,255.517a1.932,1.932,0,0,0,1.932-1.932v-.84a1.932,1.932,0,0,0-3.865,0v.84A1.932,1.932,0,0,0,70.381,255.517Z" transform="translate(-65.677 -250.812)"/><path class="c" d="M12.824,350H19.41v4.621H10v-1.8A2.824,2.824,0,0,1,12.824,350Z" transform="translate(-10 -345.295)"/></g><g transform="translate(4.269 8.061)"><path class="b" d="M196.941,188.016A2.941,2.941,0,0,1,194,185.075v-2.184a2.941,2.941,0,0,1,5.882,0v2.184A2.941,2.941,0,0,1,196.941,188.016Z" transform="translate(-189.541 -179.95)"/><path class="b" d="M196.941,179.95A2.941,2.941,0,0,0,194,182.891v.479h.476a4.5,4.5,0,0,0,2.464-.735,4.5,4.5,0,0,0,2.464.735h.476v-.479A2.941,2.941,0,0,0,196.941,179.95Z" transform="translate(-189.541 -179.95)"/><path class="b" d="M110.375,350h-5.95A4.425,4.425,0,0,0,100,354.425v2.785h14.8v-2.785A4.425,4.425,0,0,0,110.375,350Z" transform="translate(-100 -341.934)"/><path class="b" d="M199.231,350l-2.975,7.21L193.281,350Z" transform="translate(-188.856 -341.934)"/></g><path class="c" d="M192.322,14.958l-1.4,1.025a.457.457,0,0,1-.7-.512l.541-1.652L189.342,12.8a.457.457,0,0,1,.268-.828h1.744l.534-1.651a.458.458,0,0,1,.871,0l.534,1.651h1.744a.457.457,0,0,1,.268.828l-1.413,1.022.541,1.652a.457.457,0,0,1-.7.512Z" transform="translate(-180.654 -10.001)"/></g><g transform="translate(0 0)"><path class="d" d="M21.019,178.017a2.394,2.394,0,0,0,.494-1.459v-.84a2.407,2.407,0,1,0-4.813,0v.84a2.394,2.394,0,0,0,.494,1.458H14.5a3.4,3.4,0,0,0,1.057-2.467v-2.184a3.415,3.415,0,0,0-6.83,0v2.184a3.4,3.4,0,0,0,1.057,2.467H7.092a2.394,2.394,0,0,0,.494-1.458v-.84a2.407,2.407,0,1,0-4.813,0v.84a2.394,2.394,0,0,0,.494,1.459A3.3,3.3,0,0,0,0,181.315v1.8a.474.474,0,0,0,.474.474H4.269V185.7a.474.474,0,0,0,.474.474H6.071a.474.474,0,0,0,0-.949H5.218v-2.311a3.955,3.955,0,0,1,3.638-3.937l2.578,6.248H10.34a.474.474,0,0,0,0,.949h9.2a.474.474,0,0,0,.474-.474v-2.115h3.795a.474.474,0,0,0,.474-.474v-1.8A3.3,3.3,0,0,0,21.019,178.017Zm-3.37-1.459v-.84a1.458,1.458,0,0,1,2.916,0v.84a1.458,1.458,0,0,1-2.916,0ZM12.143,170.9a2.469,2.469,0,0,1,2.467,2.467v0h0a4.017,4.017,0,0,1-2.2-.658.474.474,0,0,0-.519,0,4.017,4.017,0,0,1-2.2.658h0v0A2.469,2.469,0,0,1,12.143,170.9Zm-2.467,4.651v-1.231h0a4.96,4.96,0,0,0,2.464-.653,4.961,4.961,0,0,0,2.464.653h0v1.231a2.467,2.467,0,0,1-4.933,0Zm-5.955.168a1.458,1.458,0,0,1,2.916,0v.84a1.458,1.458,0,0,1-2.916,0Zm.556,6.919H.949v-1.322a2.353,2.353,0,0,1,2.35-2.35H6.274A4.9,4.9,0,0,0,4.277,182.637Zm5.607-3.672h1.785V180.1a.474.474,0,0,0,.949,0v-1.138h1.792l-2.266,5.492-2.266-5.492Zm9.184,6.261H12.852l2.578-6.248a3.955,3.955,0,0,1,3.638,3.937Zm4.269-2.589H20.009a4.9,4.9,0,0,0-2-3.672h2.975a2.353,2.353,0,0,1,2.35,2.35Z" transform="translate(0 -161.889)"/><path class="d" d="M179.517,3.654l1.132.819L180.217,5.8a.932.932,0,0,0,1.435,1.043l1.124-.821,1.124.821a.918.918,0,0,0,1.1,0,.918.918,0,0,0,.338-1.044L184.9,4.473l1.132-.819a.932.932,0,0,0-.546-1.687h-1.4L183.663.645a.932.932,0,0,0-1.773,0l-.427,1.322h-1.4a.932.932,0,0,0-.546,1.687Zm2.29-.738a.474.474,0,0,0,.451-.328l.518-1.6.518,1.6a.474.474,0,0,0,.451.328h1.691l-1.37.991a.475.475,0,0,0-.173.532l.524,1.6-1.362-.994a.474.474,0,0,0-.559,0l-1.362.994.524-1.6a.474.474,0,0,0-.173-.532l-1.37-.991h1.691Z" transform="translate(-170.633 0)"/><path class="d" d="M163.474,492a.475.475,0,1,0,.335.139A.478.478,0,0,0,163.474,492Z" transform="translate(-155.268 -468.663)"/></g></g></g></svg>