<svg xmlns="http://www.w3.org/2000/svg" width="66" height="66" viewBox="0 0 66 66"><defs><style>.a,.b{fill:#621384;}.a{opacity:0.07;}.b{opacity:0.14;}.c{fill:#fff;}.d{fill:#ffc03f;}.e{fill:#f5f4f9;}.f,.g{fill:#2c2f33;}.g{stroke:#2c2f33;stroke-width:0.4px;}</style></defs><g transform="translate(-18.667 -163.667)"><circle class="a" cx="33" cy="33" r="33" transform="translate(18.667 163.667)"/><circle class="b" cx="27" cy="27" r="27" transform="translate(24.667 169.667)"/><circle class="c" cx="22" cy="22" r="22" transform="translate(29.667 174.667)"/><g transform="translate(38.666 185.667)"><path class="d" d="M79.77,83.821V81.664a.442.442,0,0,0-.321-.425L77.218,80.6a8.9,8.9,0,0,0-1.033-2.493l1.129-2.028a.442.442,0,0,0-.074-.527l-1.525-1.525a.442.442,0,0,0-.527-.074L73.16,75.086a8.894,8.894,0,0,0-2.493-1.033l-.636-2.231a.442.442,0,0,0-.425-.321H67.45a.442.442,0,0,0-.425.321l-.636,2.231A8.894,8.894,0,0,0,63.9,75.086l-2.028-1.129a.442.442,0,0,0-.527.074l-1.525,1.525a.442.442,0,0,0-.074.527l1.129,2.028A8.894,8.894,0,0,0,59.839,80.6l-2.231.636a.442.442,0,0,0-.321.425v2.157a.442.442,0,0,0,.321.425l2.231.636a8.894,8.894,0,0,0,1.033,2.493L59.743,89.4a.442.442,0,0,0,.074.527l1.525,1.525a.442.442,0,0,0,.527.074L63.9,90.4a8.9,8.9,0,0,0,2.493,1.033l.636,2.231a.442.442,0,0,0,.425.321h2.156a.442.442,0,0,0,.425-.321l.636-2.231A8.894,8.894,0,0,0,73.16,90.4l2.028,1.129a.442.442,0,0,0,.527-.074l1.525-1.525a.442.442,0,0,0,.074-.527l-1.129-2.028a8.894,8.894,0,0,0,1.033-2.493l2.231-.636a.442.442,0,0,0,.321-.425Z" transform="translate(-55.571 -71.213)"/><circle class="d" cx="5.419" cy="5.419" r="5.419" transform="translate(7.538 6.111)"/><circle class="e" cx="4.461" cy="4.461" r="4.461" transform="translate(8.496 7.068)"/><path class="f" d="M137.32,268.821a7.041,7.041,0,0,1-7.033-7.033.288.288,0,1,1,.576,0,6.464,6.464,0,0,0,6.457,6.457.288.288,0,0,1,0,.577Z" transform="translate(-124.363 -250.259)"/><path class="f" d="M254.32,151.821a.288.288,0,0,1-.288-.288,6.464,6.464,0,0,0-6.457-6.457.288.288,0,0,1,0-.576,7.041,7.041,0,0,1,7.033,7.033A.288.288,0,0,1,254.32,151.821Z" transform="translate(-234.618 -140.003)"/><g transform="translate(0.288 0.327)"><path class="f" d="M213.249,252.221a.4.4,0,0,1-.286-.118l-.973-.973a.4.4,0,0,1,0-.572l.973-.973a.4.4,0,0,1,.572.572l-.687.687.687.687a.4.4,0,0,1-.286.69Z" transform="translate(-202.47 -239.64)"/><path class="f" d="M271.071,252.22a.4.4,0,0,1-.286-.69l.687-.687-.687-.687a.4.4,0,1,1,.572-.572l.973.973a.4.4,0,0,1,0,.572l-.973.973A.4.4,0,0,1,271.071,252.22Z" transform="translate(-256.512 -239.639)"/><path class="f" d="M240.894,252.219a.4.4,0,0,1-.352-.6l1.1-1.946a.4.4,0,1,1,.7.4l-1.1,1.946A.4.4,0,0,1,240.894,252.219Z" transform="translate(-228.775 -239.638)"/><path class="e" d="M40.158,78.932H33.106a.578.578,0,0,1-.578-.578V72.746a.578.578,0,0,1,.578-.578h7.052a.578.578,0,0,1,.578.578v5.608A.578.578,0,0,1,40.158,78.932Z" transform="translate(-32.528 -72.168)"/></g><path class="e" d="M132.682,72.168h-1.969v6.764h1.969a.578.578,0,0,0,.578-.578V72.746A.578.578,0,0,0,132.682,72.168Z" transform="translate(-124.765 -71.841)"/><path class="e" d="M40.735,74.056v-1.31a.578.578,0,0,0-.578-.578H33.106a.578.578,0,0,0-.578.578v1.31Z" transform="translate(-32.24 -71.841)"/><path class="f" d="M59,156.645H56.134a.289.289,0,1,1,0-.578H59a.289.289,0,1,1,0,.578Z" transform="translate(-54.213 -150.904)"/><path class="f" d="M57.44,135.841H56.134a.289.289,0,1,1,0-.578H57.44a.289.289,0,1,1,0,.578Z" transform="translate(-54.213 -131.299)"/><path class="e" d="M316.461,327.709H307.68a.578.578,0,0,1-.578-.578v-5.608a.578.578,0,0,1,.578-.578h8.781a.578.578,0,0,1,.578.578v5.608A.578.578,0,0,1,316.461,327.709Z" transform="translate(-290.985 -306.277)"/><path class="e" d="M317.039,322.833v-1.31a.578.578,0,0,0-.578-.578H307.68a.578.578,0,0,0-.578.578v1.31Z" transform="translate(-290.985 -306.277)"/><path class="g" d="M53,80.881H49.271c.051-.159.1-.319.142-.48l2.072-.59a.733.733,0,0,0,.53-.7V76.952a.733.733,0,0,0-.53-.7l-2.072-.59a9.172,9.172,0,0,0-.939-2.266l1.048-1.883a.733.733,0,0,0-.122-.871l-1.525-1.525A.733.733,0,0,0,47,68.994l-1.883,1.048a9.173,9.173,0,0,0-2.266-.939l-.59-2.072a.733.733,0,0,0-.7-.53H39.407a.733.733,0,0,0-.7.53l-.59,2.072a9.186,9.186,0,0,0-1.8.688V67.406a.867.867,0,0,0-.866-.866H28.394a.867.867,0,0,0-.866.866v1.31a.288.288,0,0,0,.288.288h7.919v4.01a.29.29,0,0,1-.29.29H28.394a.29.29,0,0,1-.29-.29V70.3a.288.288,0,1,0-.576,0v2.71a.867.867,0,0,0,.866.866h3.84a9.188,9.188,0,0,0-.677,1.78l-2.072.59a.733.733,0,0,0-.53.7v2.156a.733.733,0,0,0,.53.7l2.072.59a9.174,9.174,0,0,0,.939,2.266L31.448,84.55a.733.733,0,0,0,.122.871l1.525,1.525a.733.733,0,0,0,.871.122l1.883-1.048a9.174,9.174,0,0,0,2.266.939l.59,2.072a.733.733,0,0,0,.7.53h2.156a.733.733,0,0,0,.7-.53l.59-2.072c.168-.045.336-.095.5-.149v.546a.867.867,0,0,0,.866.866H53a.867.867,0,0,0,.866-.866V81.747A.867.867,0,0,0,53,80.881ZM28.1,68.427V67.406a.29.29,0,0,1,.29-.29h7.052a.29.29,0,0,1,.29.29v1.022ZM42.555,86.44a.288.288,0,0,0-.209.2l-.636,2.231a.154.154,0,0,1-.148.112H39.407a.154.154,0,0,1-.148-.112l-.636-2.231a.288.288,0,0,0-.209-.2,8.6,8.6,0,0,1-2.412-1,.288.288,0,0,0-.29-.005l-2.028,1.129a.154.154,0,0,1-.183-.026l-1.525-1.525a.154.154,0,0,1-.026-.183L33.081,82.8a.288.288,0,0,0-.005-.29,8.6,8.6,0,0,1-1-2.412.288.288,0,0,0-.2-.209l-2.231-.636a.154.154,0,0,1-.112-.148V76.953a.154.154,0,0,1,.112-.148l2.231-.636a.288.288,0,0,0,.2-.209,8.612,8.612,0,0,1,.81-2.081h2.56a.867.867,0,0,0,.866-.866V70.443a8.609,8.609,0,0,1,2.1-.821.288.288,0,0,0,.209-.2l.636-2.231a.154.154,0,0,1,.148-.112h2.156a.154.154,0,0,1,.148.112l.636,2.231a.288.288,0,0,0,.209.2,8.6,8.6,0,0,1,2.412,1,.288.288,0,0,0,.29.005L47.284,69.5a.154.154,0,0,1,.183.026l1.525,1.525a.154.154,0,0,1,.026.183l-1.129,2.028a.288.288,0,0,0,.005.29,8.6,8.6,0,0,1,1,2.412.288.288,0,0,0,.2.209l2.231.636a.154.154,0,0,1,.112.148v2.156a.154.154,0,0,1-.112.148l-2.231.636a.288.288,0,0,0-.2.209c-.064.263-.143.524-.232.78H47.486a.288.288,0,1,0,0,.576H53a.29.29,0,0,1,.29.29v1.022h-9.36V81.747a.29.29,0,0,1,.29-.29H45.9a.288.288,0,0,0,0-.576H44.223a.867.867,0,0,0-.866.866V86.2C43.094,86.293,42.825,86.374,42.555,86.44ZM53,87.645H44.223a.29.29,0,0,1-.29-.29v-4.01h9.36v4.01A.29.29,0,0,1,53,87.645Z" transform="translate(-27.528 -66.501)"/><path class="f" d="M331.936,381.766h-.026a.288.288,0,0,1-.248-.2l-.4-1.211a.288.288,0,0,1,.548-.179l.188.576.105-.194a.288.288,0,0,1,.506,0l.105.194.188-.576a.288.288,0,0,1,.548.179l-.4,1.211a.288.288,0,0,1-.527.048l-.172-.316-.172.316A.288.288,0,0,1,331.936,381.766Z" transform="translate(-313.743 -361.907)"/><path class="f" d="M374.738,381.766h-.026a.288.288,0,0,1-.248-.2l-.4-1.211a.288.288,0,0,1,.548-.179l.188.576.105-.194a.288.288,0,0,1,.506,0l.105.194.188-.576a.288.288,0,0,1,.548.179l-.4,1.211a.288.288,0,0,1-.527.048l-.172-.316-.172.316A.288.288,0,0,1,374.738,381.766Z" transform="translate(-354.077 -361.907)"/><path class="f" d="M418.389,381.766a.288.288,0,0,1-.253-.15l-.172-.316-.172.316a.288.288,0,0,1-.527-.048l-.4-1.211a.288.288,0,0,1,.548-.179l.188.576.105-.194a.288.288,0,0,1,.506,0l.105.194.188-.576a.288.288,0,0,1,.548.179l-.4,1.211a.288.288,0,0,1-.248.2Z" transform="translate(-394.412 -361.907)"/></g></g></svg>