<svg xmlns="http://www.w3.org/2000/svg" xmlns:xlink="http://www.w3.org/1999/xlink" width="50" height="51" viewBox="0 0 50 51"><defs><style>.a{fill:url(#a);}.b{fill:#fff;}.c{fill:none;stroke:#c44e62;stroke-linecap:round;stroke-linejoin:round;}.d{stroke:rgba(0,0,0,0);stroke-miterlimit:10;fill:url(#b);}.e{fill:url(#c);}</style><linearGradient id="a" x1="0.5" x2="0.5" y2="1" gradientUnits="objectBoundingBox"><stop offset="0" stop-color="#ffa1b1"/><stop offset="1" stop-color="#ff758d"/></linearGradient><linearGradient id="b" x1="0.189" x2="0.761" y2="0.5" xlink:href="#a"/><linearGradient id="c" x1="0.146" y1="0.146" x2="0.852" y2="0.852" gradientUnits="objectBoundingBox"><stop offset="0" stop-color="#07e5c7"/><stop offset="1" stop-color="#019201"/></linearGradient></defs><g transform="translate(-37.296 -413.663)"><g transform="translate(1 -3.666)"><rect class="a" width="37.477" height="49.066" rx="3.419" transform="translate(36.296 417.33)"/><path class="b" d="M1.615,0H14.569a1.615,1.615,0,0,1,1.615,1.615V12.59A1.615,1.615,0,0,1,14.569,14.2H1.615A1.615,1.615,0,0,1,0,12.59V1.615A1.615,1.615,0,0,1,1.615,0Z" transform="translate(46.882 423.089)"/><rect class="b" width="25.354" height="2.083" rx="1.042" transform="translate(41.981 444.506)"/><rect class="b" width="18.42" height="2.083" rx="1.042" transform="translate(41.981 451.595)"/><rect class="b" width="24.803" height="2.083" rx="1.042" transform="translate(41.981 459.122)"/><path class="c" d="M528.186,420.133h-3.311v2.753" transform="translate(-479.992 1.268)"/><path class="c" d="M524.875,420.133h3.311v2.753" transform="translate(-463.07 1.268)"/><path class="c" d="M528.186,422.886h-3.311v-2.753" transform="translate(-479.992 17.597)"/><path class="c" d="M524.875,422.886h3.311v-2.753" transform="translate(-463.07 17.597)"/><g transform="translate(50.374 424.004)"><path class="d" d="M0,13.67V11.15a4.374,4.374,0,0,1,8.748,0v2.52Zm1.44-10.7A2.966,2.966,0,1,1,4.406,5.932,2.966,2.966,0,0,1,1.44,2.966Z" transform="translate(0 0)"/></g></g><g transform="translate(61.335 438.328)"><path class="e" d="M13,0A13,13,0,1,1,0,13,13,13,0,0,1,13,0Z" transform="translate(-0.039 0.335)"/><g transform="translate(-1208.957 -1204.824)"><g transform="translate(0.05 0.056)"><path class="b" d="M1218.173,1215.388a.728.728,0,0,1,0-1.456h3.675a.73.73,0,0,1,.726.727.726.726,0,0,1-.726.729Z" transform="translate(-0.017 -0.026)"/><path class="b" d="M1218.173,1219.457a.728.728,0,0,1,0-1.456h7.722a.731.731,0,0,1,.727.727.727.727,0,0,1-.727.729Z" transform="translate(-0.017 -0.053)"/><path class="b" d="M1218.173,1223.15a.718.718,0,1,1,0-1.435h8.089a.718.718,0,1,1,0,1.435Z" transform="translate(-0.017 -0.078)"/><path class="b" d="M1216.725,1226.619a1.865,1.865,0,0,1-1.857-1.866v-12.791a1.859,1.859,0,0,1,1.857-1.859h9.24l3.568,3.656v10.994a1.865,1.865,0,0,1-1.858,1.866Zm0-15.451a.8.8,0,0,0-.792.792v12.792a.8.8,0,0,0,.795.787h10.949a.8.8,0,0,0,.8-.784v-10.59l-1.818-.019a1.136,1.136,0,0,1-1.12-1.128v-1.849h-8.81Z" transform="translate(0 0)"/></g></g></g></g></svg>