<svg xmlns="http://www.w3.org/2000/svg" xmlns:xlink="http://www.w3.org/1999/xlink" width="80" height="80" viewBox="0 0 80 80"><defs><style>.a{fill:#fff;}.b{fill:#f9a21d;}.c{fill:#231f20;stroke:#231f20;}.d{fill:url(#c);}.e{fill:#f18021;}.f{fill:#03a2d5;}.g{filter:url(#a);}</style><filter id="a" x="0" y="0" width="80" height="80" filterUnits="userSpaceOnUse"><feOffset dy="8" input="SourceAlpha"/><feGaussianBlur stdDeviation="5" result="b"/><feFlood flood-opacity="0.188"/><feComposite operator="in" in2="b"/><feComposite in="SourceGraphic"/></filter><linearGradient id="c" x1="0.209" y1="0.099" x2="0.819" y2="0.903" gradientUnits="objectBoundingBox"><stop offset="0" stop-color="#73dafb"/><stop offset="1" stop-color="#03a2d5"/></linearGradient></defs><g transform="translate(-4 -381)"><g class="g" transform="matrix(1, 0, 0, 1, 4, 381)"><rect class="a" width="50" height="50" rx="16" transform="translate(15 7)"/></g><g transform="translate(-6.743 -14.163)"><g transform="translate(33.644 411.163)"><g transform="translate(1 0)"><g transform="translate(0)"><path class="b" d="M319.793,350.232a1.021,1.021,0,1,0,1.395-.374A1.021,1.021,0,0,0,319.793,350.232Z" transform="translate(-295.765 -329.509)"/><circle class="b" cx="1.467" cy="1.467" r="1.467" transform="matrix(0.615, -0.788, 0.788, 0.615, 24.273, 26.453)"/><path class="b" d="M296.028,355.277a.723.723,0,1,0,.987.265A.723.723,0,0,0,296.028,355.277Z" transform="translate(-277.488 -333.668)"/><circle class="b" cx="1.021" cy="1.021" r="1.021" transform="translate(16.781 24.715) rotate(-13.816)"/><circle class="b" cx="1.467" cy="1.467" r="1.467" transform="translate(13.991 31.041) rotate(-82.982)"/><path class="b" d="M279.4,353.211a.513.513,0,1,0,.512-.512A.513.513,0,0,0,279.4,353.211Z" transform="translate(-265.099 -331.778)"/><path class="b" d="M271.12,359.655a.723.723,0,1,0,.885-.511A.723.723,0,0,0,271.12,359.655Z" transform="translate(-258.767 -336.669)"/><path class="b" d="M258.554,365.306a1.021,1.021,0,1,0,.374,1.395A1.021,1.021,0,0,0,258.554,365.306Z" transform="translate(-248.046 -341.278)"/><circle class="b" cx="1.467" cy="1.467" r="1.467" transform="translate(2.957 26.332) rotate(-45)"/><path class="b" d="M273.007,340.867a.357.357,0,1,0,.13.487A.356.356,0,0,0,273.007,340.867Z" transform="translate(-259.816 -322.726)"/><path class="b" d="M265.026,342.3a.513.513,0,1,0,.725,0A.513.513,0,0,0,265.026,342.3Z" transform="translate(-254.029 -323.739)"/><circle class="b" cx="0.723" cy="0.723" r="0.723" transform="translate(8.013 18.625) rotate(-29.316)"/><path class="b" d="M240.547,338.215a1.021,1.021,0,1,0-1.25-.722A1.021,1.021,0,0,0,240.547,338.215Z" transform="translate(-234.514 -319.213)"/><circle class="b" cx="1.467" cy="1.467" r="1.467" transform="translate(0 14.159)"/><path class="b" d="M266.046,329.952a.357.357,0,1,0-.437-.252A.357.357,0,0,0,266.046,329.952Z" transform="translate(-254.578 -313.913)"/><path class="b" d="M259.342,325.43a.513.513,0,1,0-.512.513A.513.513,0,0,0,259.342,325.43Z" transform="translate(-249.032 -310.612)"/><path class="b" d="M250.666,318.029a.723.723,0,1,0-.511-.885A.723.723,0,0,0,250.666,318.029Z" transform="translate(-242.794 -304.28)"/><path class="b" d="M243.48,304.067a1.021,1.021,0,1,0-1.395.374A1.021,1.021,0,0,0,243.48,304.067Z" transform="translate(-236.276 -293.559)"/><circle class="b" cx="1.467" cy="1.467" r="1.467" transform="matrix(0.615, -0.788, 0.788, 0.615, 2.84, 5.285)"/><path class="b" d="M272.171,318.52a.357.357,0,1,0-.487.13A.357.357,0,0,0,272.171,318.52Z" transform="translate(-259.08 -305.329)"/><path class="b" d="M269.743,311.264a.513.513,0,1,0-.725,0A.512.512,0,0,0,269.743,311.264Z" transform="translate(-257.07 -299.542)"/><path class="b" d="M269.154,300.932a.723.723,0,1,0-.987-.265A.723.723,0,0,0,269.154,300.932Z" transform="translate(-256.462 -291.309)"/><circle class="b" cx="1.021" cy="1.021" r="1.021" transform="matrix(0.971, -0.239, 0.239, 0.971, 11.981, 5.022)"/><circle class="b" cx="1.467" cy="1.467" r="1.467" transform="translate(14.138)"/><path class="b" d="M286.611,304.855a.512.512,0,0,0,.024-1.024h-.024a.51.51,0,0,0-.29.09l-.036.027a.443.443,0,0,0-.036.033l-.017.018a.513.513,0,0,0,.38.857Z" transform="translate(-270.198 -294.545)"/><path class="b" d="M293.177,297.064a.723.723,0,0,0,.406-1.387l-.032-.01a.731.731,0,0,0-.216-.024.722.722,0,0,0-.211.041l-.06.024c-.021.01-.042.02-.062.032l-.03.018a.723.723,0,0,0,.2,1.306Z" transform="translate(-275.183 -288.307)"/><path class="b" d="M304.719,288.993a1.021,1.021,0,0,0,1.061-1.744l-.04-.025a1.015,1.015,0,0,0-.589-.134c-.03,0-.06.006-.09.011s-.064.012-.1.021l-.047.014a1.021,1.021,0,0,0-.2,1.857Z" transform="translate(-283.996 -281.789)"/><path class="b" d="M323.623,281.753a1.467,1.467,0,0,0,2.122-2.025l-.047-.05a1.456,1.456,0,0,0-.767-.4c-.043-.008-.086-.014-.13-.018s-.094-.007-.141-.007l-.07,0a1.467,1.467,0,0,0-.967,2.5Z" transform="translate(-298.461 -275.817)"/></g><g transform="translate(15.498 11.582)"><path class="c" d="M288.269,319.739H284.41V319.2l3.055-5.134h-2.957v-.593h3.648v.569l-3.014,5.1h3.128Z" transform="translate(-284.41 -313.476)"/></g></g></g><g transform="translate(51.459 427.88)"><path class="d" d="M7.642,0A7.642,7.642,0,1,1,0,7.642,7.642,7.642,0,0,1,7.642,0Z" transform="translate(0 0)"/><g transform="translate(3.347 2.966)"><rect class="a" width="8.541" height="1.73" transform="translate(0 3.405)"/><rect class="a" width="1.73" height="8.541" transform="translate(3.405)"/></g></g><g transform="translate(54.197 423.193)"><rect class="e" width="5.496" height="1.113" transform="translate(0 2.191)"/><rect class="f" width="1.113" height="5.496" transform="translate(2.191)"/></g></g></g></svg>