<svg xmlns="http://www.w3.org/2000/svg" width="20" height="20" viewBox="0 0 20 20"><defs><style>.a{fill:#1586c7;}.b{fill:#fff;}</style></defs><rect class="a" width="20" height="20" rx="10"/><g transform="translate(16.04 13.648) rotate(180)"><path class="b" d="M11.292,1.088H.475A.513.513,0,0,1,0,.544.513.513,0,0,1,.475,0H11.292a.513.513,0,0,1,.475.544A.513.513,0,0,1,11.292,1.088Z" transform="translate(0 3.326)"/><path class="b" d="M3.869,7.739a.542.542,0,0,1-.385-.159L.159,4.254a.544.544,0,0,1,0-.769L3.485.159a.544.544,0,0,1,.769.769L1.313,3.869,4.254,6.811a.544.544,0,0,1-.384.928Z"/></g></svg>