<svg xmlns="http://www.w3.org/2000/svg" width="15.397" height="20.211" viewBox="0 0 15.397 20.211"><defs><style>.a{fill:#fff;}</style></defs><g transform="translate(-1104.083 -320.507)"><path class="a" d="M1119.1,325.812a7.528,7.528,0,0,0-4.883-4.923,7.741,7.741,0,0,0-10.134,7.359,7.635,7.635,0,0,0,1.536,4.614l6.16,7.856,6.153-7.848.008-.01A7.781,7.781,0,0,0,1119.1,325.812Zm-2.1,6.335-5.217,6.655-5.221-6.655a6.458,6.458,0,0,1-1.3-3.9,6.556,6.556,0,0,1,8.6-6.229,6.33,6.33,0,0,1,4.1,4.142,6.613,6.613,0,0,1-.966,5.987Z"/><path class="a" d="M1111.78,324.04a4.251,4.251,0,1,0,4.251,4.251A4.251,4.251,0,0,0,1111.78,324.04Zm0,7.287a3.036,3.036,0,1,1,3.036-3.036h0A3.041,3.041,0,0,1,1111.78,331.327Z"/></g></svg>