<svg xmlns="http://www.w3.org/2000/svg" width="14.013" height="14.013" viewBox="0 0 14.013 14.013"><defs><style>.a{fill:#1586c7;}</style></defs><g transform="translate(0 0.193)"><path class="a" d="M7.007,0a7.007,7.007,0,1,0,7.007,7.007A7.015,7.015,0,0,0,7.007,0Zm0,12.739a5.733,5.733,0,1,1,5.733-5.733A5.739,5.739,0,0,1,7.007,12.739Z" transform="translate(0 -0.193)"/><path class="a" d="M145.851,70a.849.849,0,1,0,.849.85A.85.85,0,0,0,145.851,70Z" transform="translate(-138.845 -67.027)"/><path class="a" d="M150.637,140a.637.637,0,0,0-.637.637v3.822a.637.637,0,0,0,1.274,0v-3.822A.637.637,0,0,0,150.637,140Z" transform="translate(-143.63 -134.055)"/></g></svg>