<svg xmlns="http://www.w3.org/2000/svg" width="12" height="15.752" viewBox="0 0 12 15.752"><defs><style>.a{fill:#1586c7;}</style></defs><g transform="translate(-60.971 0)"><g transform="translate(60.971 0)"><path class="a" d="M72.679,4.127A5.871,5.871,0,0,0,68.872.289a6.035,6.035,0,0,0-7.9,5.738,5.95,5.95,0,0,0,1.2,3.6l4.8,6.127,4.8-6.119.006-.008A6.067,6.067,0,0,0,72.679,4.127Zm-1.64,4.94-4.067,5.189L62.9,9.067a5.034,5.034,0,0,1-1.01-3.04A5.112,5.112,0,0,1,68.6,1.171,4.937,4.937,0,0,1,71.8,4.4,5.154,5.154,0,0,1,71.039,9.067Z" transform="translate(-60.971 0)"/></g><g transform="translate(63.658 2.746)"><path class="a" d="M154.308,90.895a3.314,3.314,0,1,0,3.314,3.314A3.318,3.318,0,0,0,154.308,90.895Zm0,5.681a2.367,2.367,0,1,1,2.367-2.367A2.37,2.37,0,0,1,154.308,96.576Z" transform="translate(-150.994 -90.895)"/></g></g></svg>