<svg xmlns="http://www.w3.org/2000/svg" xmlns:xlink="http://www.w3.org/1999/xlink" width="65" height="65" viewBox="0 0 65 65"><defs><style>.a{stroke:#90bfff;fill:url(#a);}.b{fill:url(#b);}.c{clip-path:url(#c);}.d{fill:#8fa1f4;}.e{fill:#83acf4;}.f,.j{fill:#fff;}.g{fill:#dacef4;}.h{fill:#b5a6ff;}.i{fill:url(#d);}.j{stroke:#fff;}</style><linearGradient id="a" x1="0.187" y1="0.802" x2="0.879" y2="0.253" gradientUnits="objectBoundingBox"><stop offset="0" stop-color="#81b6ff"/><stop offset="1" stop-color="#a997ff"/></linearGradient><linearGradient id="b" x1="0.187" y1="0.802" x2="0.879" y2="0.253" gradientUnits="objectBoundingBox"><stop offset="0" stop-color="#8dc1ff"/><stop offset="1" stop-color="#afa1ff"/></linearGradient><clipPath id="c"><circle class="a" cx="32.5" cy="32.5" r="32.5"/></clipPath><linearGradient id="d" x1="0.5" x2="0.5" y2="1.24" gradientUnits="objectBoundingBox"><stop offset="0" stop-color="#4d3eb7"/><stop offset="1" stop-color="#648bff"/></linearGradient></defs><g transform="translate(-44 -252)"><g transform="translate(-1914 -1634)"><g transform="translate(306 -29)"><circle class="b" cx="32.5" cy="32.5" r="32.5" transform="translate(1652 1915)"/><g class="c" transform="translate(1652 1915)"><path class="d" d="M20,40A20.005,20.005,0,0,1,12.215,1.572a20.005,20.005,0,0,1,15.57,36.857A19.875,19.875,0,0,1,20,40ZM20,8.571A11.429,11.429,0,1,0,31.429,20,11.442,11.442,0,0,0,20,8.571Z" transform="translate(-11 -7)"/><path class="e" d="M38,42H6a6.007,6.007,0,0,1-6-6V6A6.007,6.007,0,0,1,6,0H38a6.007,6.007,0,0,1,6,6V36A6.007,6.007,0,0,1,38,42ZM11.656,8.542a3,3,0,0,0-3,3V30.458a3,3,0,0,0,3,3H32.344a3,3,0,0,0,3-3V11.543a3,3,0,0,0-3-3Z" transform="translate(27 36)"/></g></g></g><g transform="translate(47 250)"><rect class="f" width="33" height="33" rx="4" transform="translate(10 17)"/><rect class="g" width="2" height="6" rx="1" transform="translate(16 15)"/><rect class="g" width="2" height="6" rx="1" transform="translate(21 15)"/><rect class="g" width="2" height="6" rx="1" transform="translate(27 15)"/><rect class="g" width="2" height="6" rx="1" transform="translate(32 15)"/><rect class="g" width="2" height="6" rx="1" transform="translate(37 15)"/><rect class="h" width="5" height="5" rx="1" transform="translate(15 27)"/><rect class="h" width="5" height="5" rx="1" transform="translate(15 34)"/><rect class="h" width="5" height="5" rx="1" transform="translate(15 40)"/><rect class="h" width="5" height="5" rx="1" transform="translate(22 27)"/><rect class="h" width="5" height="5" rx="1" transform="translate(29 27)"/><rect class="h" width="5" height="5" rx="1" transform="translate(22 34)"/><rect class="h" width="5" height="5" rx="1" transform="translate(22 40)"/><path class="i" d="M9.5,0A9.5,9.5,0,1,1,0,9.5,9.5,9.5,0,0,1,9.5,0Z" transform="translate(29 34)"/><g transform="translate(1.619 3.136)"><circle class="h" cx="1" cy="1" r="1" transform="translate(36 41)"/><path class="j" d="M19.632,20.939V15.423a.544.544,0,1,1,1.088,0v5.516a2.173,2.173,0,0,1,1.554,1.554h3.884a.544.544,0,1,1,0,1.088H22.274a2.171,2.171,0,1,1-2.642-2.642Zm.544,3.186a1.088,1.088,0,1,0-1.088-1.088A1.089,1.089,0,0,0,20.175,24.125Z" transform="translate(16.381 18.985)"/></g></g></g></svg>