<svg xmlns="http://www.w3.org/2000/svg" xmlns:xlink="http://www.w3.org/1999/xlink" width="65" height="65" viewBox="0 0 65 65"><defs><style>.a{stroke:#90bfff;fill:url(#a);}.b{fill:url(#b);}.c{clip-path:url(#c);}.d{fill:#d390e5;}.e{fill:#fff;}.f{fill:url(#d);}.g{fill:#7b367c;}</style><linearGradient id="a" x1="0.187" y1="0.802" x2="0.879" y2="0.253" gradientUnits="objectBoundingBox"><stop offset="0" stop-color="#81b6ff"/><stop offset="1" stop-color="#a997ff"/></linearGradient><linearGradient id="b" x1="0.187" y1="0.802" x2="0.879" y2="0.253" gradientUnits="objectBoundingBox"><stop offset="0" stop-color="#eba1f5"/><stop offset="1" stop-color="#bb97fd"/></linearGradient><clipPath id="c"><circle class="a" cx="32.5" cy="32.5" r="32.5"/></clipPath><linearGradient id="d" x1="0.5" x2="0.5" y2="0.825" gradientUnits="objectBoundingBox"><stop offset="0" stop-color="#2f1150"/><stop offset="1" stop-color="#873d85"/></linearGradient></defs><g transform="translate(-266 -252)"><g transform="translate(-1732 -1591)"><g transform="translate(346 -72)"><circle class="b" cx="32.5" cy="32.5" r="32.5" transform="translate(1652 1915)"/><g class="c" transform="translate(1652 1915)"><path class="d" d="M20,40A20.005,20.005,0,0,1,12.215,1.572a20.005,20.005,0,0,1,15.57,36.857A19.875,19.875,0,0,1,20,40ZM20,8.571A11.429,11.429,0,1,0,31.429,20,11.442,11.442,0,0,0,20,8.571Z" transform="translate(-11 -7)"/><path class="d" d="M38,42H6a6.007,6.007,0,0,1-6-6V6A6.007,6.007,0,0,1,6,0H38a6.007,6.007,0,0,1,6,6V36A6.007,6.007,0,0,1,38,42ZM11.656,8.542a3,3,0,0,0-3,3V30.458a3,3,0,0,0,3,3H32.344a3,3,0,0,0,3-3V11.543a3,3,0,0,0-3-3Z" transform="translate(27 36)"/></g></g></g><rect class="e" width="34" height="41" rx="6" transform="translate(280 263)"/><circle class="f" cx="9.5" cy="9.5" r="9.5" transform="translate(301 286)"/><path class="e" d="M318.665,342.971a1.289,1.289,0,0,0-1.812.2l-3.32,4.139-2.055-1.489a1.289,1.289,0,1,0-1.513,2.088l3.049,2.209a1.288,1.288,0,0,0,1.762-.237l4.088-5.1A1.289,1.289,0,0,0,318.665,342.971Zm0,0" transform="translate(-3.432 -50.688)"/><g transform="translate(-120.497 325.523)"><path class="g" d="M70.74,98.637H63.047a1.289,1.289,0,1,0,0,2.578H70.74a1.289,1.289,0,1,0,0-2.578Zm0,0" transform="translate(344.739 -152.16)"/><path class="g" d="M70.74,158.641H63.047a1.289,1.289,0,1,0,0,2.578H70.74a1.289,1.289,0,1,0,0-2.578Zm0,0" transform="translate(344.739 -207.008)"/><path class="g" d="M70.74,218.645H63.047a1.289,1.289,0,1,0,0,2.578H70.74a1.289,1.289,0,1,0,0-2.578Zm0,0" transform="translate(344.739 -261.855)"/><path class="g" d="M70.74,278.648H63.047a1.289,1.289,0,1,0,0,2.578H70.74a1.289,1.289,0,1,0,0-2.578Zm0,0" transform="translate(344.739 -316.701)"/><path class="g" d="M70.74,339.656H63.047a1.289,1.289,0,1,0,0,2.578H70.74a1.289,1.289,0,1,0,0-2.578Zm0,0" transform="translate(344.739 -372.466)"/><path class="g" d="M202.945,101.215h7.693a1.289,1.289,0,1,0,0-2.578h-7.693a1.289,1.289,0,0,0,0,2.578Zm0,0" transform="translate(216.863 -152.16)"/><path class="g" d="M202.945,161.219h7.693a1.289,1.289,0,1,0,0-2.578h-7.693a1.289,1.289,0,0,0,0,2.578Zm0,0" transform="translate(216.863 -207.008)"/><path class="g" d="M207.939,219.934a1.289,1.289,0,0,0-1.289-1.289h-3.705a1.289,1.289,0,1,0,0,2.578h3.705A1.289,1.289,0,0,0,207.939,219.934Zm0,0" transform="translate(216.864 -261.855)"/></g></g></svg>