<svg xmlns="http://www.w3.org/2000/svg" xmlns:xlink="http://www.w3.org/1999/xlink" width="65" height="65" viewBox="0 0 65 65"><defs><style>.a{stroke:#90bfff;fill:url(#a);}.b{fill:url(#b);}.c{clip-path:url(#c);}.d{fill:#8dc88d;}.e,.h{fill:#fff;}.f{fill:#408952;stroke:#408952;}.g{fill:url(#d);}.h{stroke:#fff;stroke-width:0.6px;}</style><linearGradient id="a" x1="0.187" y1="0.802" x2="0.879" y2="0.253" gradientUnits="objectBoundingBox"><stop offset="0" stop-color="#81b6ff"/><stop offset="1" stop-color="#a997ff"/></linearGradient><linearGradient id="b" x1="0.187" y1="0.802" x2="0.879" y2="0.253" gradientUnits="objectBoundingBox"><stop offset="0" stop-color="#99d7a2"/><stop offset="1" stop-color="#bdd999"/></linearGradient><clipPath id="c"><circle class="a" cx="32.5" cy="32.5" r="32.5"/></clipPath><linearGradient id="d" x1="0.5" x2="0.5" y2="0.825" gradientUnits="objectBoundingBox"><stop offset="0" stop-color="#055b1c"/><stop offset="1" stop-color="#3a8112"/></linearGradient></defs><g transform="translate(-153 -232)"><g transform="translate(-4 -20)"><g transform="translate(-1841 -1591)"><g transform="translate(346 -72)"><circle class="b" cx="32.5" cy="32.5" r="32.5" transform="translate(1652 1915)"/><g class="c" transform="translate(1652 1915)"><path class="d" d="M20,40A20.005,20.005,0,0,1,12.215,1.572a20.005,20.005,0,0,1,15.57,36.857A19.875,19.875,0,0,1,20,40ZM20,8.571A11.429,11.429,0,1,0,31.429,20,11.442,11.442,0,0,0,20,8.571Z" transform="translate(-11 -7)"/><path class="d" d="M38,42H6a6.007,6.007,0,0,1-6-6V6A6.007,6.007,0,0,1,6,0H38a6.007,6.007,0,0,1,6,6V36A6.007,6.007,0,0,1,38,42ZM11.656,8.542a3,3,0,0,0-3,3V30.458a3,3,0,0,0,3,3H32.344a3,3,0,0,0,3-3V11.543a3,3,0,0,0-3-3Z" transform="translate(27 36)"/></g></g></g><g transform="translate(-145 365)"><circle class="e" cx="20" cy="20" r="20" transform="translate(315 -103)"/><g transform="translate(315.333 -102.586)"><path class="f" d="M26.667,22.307V15.546a.667.667,0,1,0-1.333,0v6.761a2.663,2.663,0,0,0-1.905,1.905H18.667a.667.667,0,1,0,0,1.333h4.761a2.661,2.661,0,1,0,3.239-3.239ZM26,26.212a1.333,1.333,0,1,1,1.333-1.333A1.335,1.335,0,0,1,26,26.212Z" transform="translate(-6 -4.96)"/><path class="f" d="M29.667,8.879a.666.666,0,0,0,.667-.667V7.546a.667.667,0,0,0-1.333,0v.667A.666.666,0,0,0,29.667,8.879Z" transform="translate(-9.667 -2.293)"/><path class="f" d="M29.667,49.879a.666.666,0,0,0-.667.667v.667a.667.667,0,1,0,1.333,0v-.667A.666.666,0,0,0,29.667,49.879Z" transform="translate(-9.667 -16.626)"/><path class="f" d="M51.333,28.879h-.667a.667.667,0,0,0,0,1.333h.667a.667.667,0,0,0,0-1.333Z" transform="translate(-16.667 -9.626)"/><path class="f" d="M8.333,28.879H7.667a.667.667,0,1,0,0,1.333h.667a.667.667,0,1,0,0-1.333Z" transform="translate(-2.333 -9.626)"/><path class="f" d="M44.516,13.517l-.471.471a.667.667,0,1,0,.943.943l.471-.471a.667.667,0,0,0-.943-.943Z" transform="translate(-14.616 -4.441)"/><path class="f" d="M14.111,43.923l-.471.471a.667.667,0,1,0,.943.943l.471-.471a.667.667,0,1,0-.943-.943Z" transform="translate(-4.481 -14.576)"/><path class="f" d="M44.987,43.923a.667.667,0,1,0-.943.943l.471.471a.667.667,0,0,0,.943-.943Z" transform="translate(-14.616 -14.576)"/><path class="f" d="M14.582,13.517a.667.667,0,1,0-.943.943l.471.471a.667.667,0,0,0,.943-.943Z" transform="translate(-4.481 -4.441)"/></g></g></g><path class="g" d="M9.5,0A9.5,9.5,0,1,1,0,9.5,9.5,9.5,0,0,1,9.5,0Z" transform="translate(189 265)"/><g transform="translate(194 270)"><path class="h" d="M376.545,346.09h-3.286V342.8a.758.758,0,0,0-1.517,0v3.286h-3.286a.758.758,0,1,0,0,1.516h3.286v3.286a.758.758,0,0,0,1.517,0v-3.286h3.286a.758.758,0,1,0,0-1.516Z" transform="translate(-367.699 -342.046)"/></g></g></svg>