<svg xmlns="http://www.w3.org/2000/svg" xmlns:xlink="http://www.w3.org/1999/xlink" width="65" height="65" viewBox="0 0 65 65"><defs><style>.a{stroke:#90bfff;fill:url(#a);}.b{fill:url(#b);}.c{clip-path:url(#c);}.d{fill:#71c6eb;}.e{fill:#54afd4;}.f{fill:#fff;}.g{fill:#5eacce;}.h{fill:url(#d);}.i{fill:url(#e);}</style><linearGradient id="a" x1="0.187" y1="0.802" x2="0.879" y2="0.253" gradientUnits="objectBoundingBox"><stop offset="0" stop-color="#81b6ff"/><stop offset="1" stop-color="#a997ff"/></linearGradient><linearGradient id="b" x1="0.187" y1="0.802" x2="0.879" y2="0.253" gradientUnits="objectBoundingBox"><stop offset="0" stop-color="#65ccf9"/><stop offset="1" stop-color="#9bfff1"/></linearGradient><clipPath id="c"><circle class="a" cx="32.5" cy="32.5" r="32.5"/></clipPath><linearGradient id="d" x1="0.598" y1="1" x2="0.58" y2="-0.164" gradientUnits="objectBoundingBox"><stop offset="0" stop-color="#27a8de"/><stop offset="1" stop-color="#024f5b"/></linearGradient><linearGradient id="e" x1="0.5" y1="-0.836" x2="0.5" y2="0.827" gradientUnits="objectBoundingBox"><stop offset="0" stop-color="#2197c8"/><stop offset="1" stop-color="#84eaf5"/></linearGradient></defs><g transform="translate(76 -3317)"><g transform="translate(-2074 1474)"><g transform="translate(346 -72)"><circle class="b" cx="32.5" cy="32.5" r="32.5" transform="translate(1652 1915)"/><g class="c" transform="translate(1652 1915)"><path class="d" d="M20,40A20.005,20.005,0,0,1,12.215,1.572a20.005,20.005,0,0,1,15.57,36.857A19.875,19.875,0,0,1,20,40ZM20,8.571A11.429,11.429,0,1,0,31.429,20,11.442,11.442,0,0,0,20,8.571Z" transform="translate(-11 -7)"/><path class="d" d="M38,42H6a6.007,6.007,0,0,1-6-6V6A6.007,6.007,0,0,1,6,0H38a6.007,6.007,0,0,1,6,6V36A6.007,6.007,0,0,1,38,42ZM11.656,8.542a3,3,0,0,0-3,3V30.458a3,3,0,0,0,3,3H32.344a3,3,0,0,0,3-3V11.543a3,3,0,0,0-3-3Z" transform="translate(27 36)"/></g></g></g><g transform="translate(-398.107 2869.641)"><g transform="translate(334.107 461.875)"><g transform="translate(9.505 8.079)"><circle class="e" cx="4.277" cy="4.277" r="4.277" transform="translate(2.376)"/><path class="e" d="M177.32,271.514a6.653,6.653,0,0,0-6.653,6.653h13.307A6.653,6.653,0,0,0,177.32,271.514Z" transform="translate(-170.667 -262.96)"/></g><path class="f" d="M87.249,0H68.239a6.185,6.185,0,0,0-6.178,6.178V7.6h1.426a1.426,1.426,0,0,1,0,2.851H62.061v3.8h1.426a1.426,1.426,0,0,1,0,2.851H62.061v3.8h1.426a1.426,1.426,0,0,1,0,2.851H62.061v1.426a6.185,6.185,0,0,0,6.178,6.178h19.01a1.426,1.426,0,0,0,1.426-1.426V1.426A1.426,1.426,0,0,0,87.249,0ZM75.368,23.287H68.714a6.653,6.653,0,0,1,6.653-6.653,4.277,4.277,0,1,1,4.277-4.277,4.277,4.277,0,0,1-4.277,4.277,6.653,6.653,0,0,1,6.653,6.653H75.368Z" transform="translate(-59.21)"/><path class="g" d="M16.941,126.972h2.851a1.426,1.426,0,0,0,0-2.851H16.941a1.426,1.426,0,0,0,0,2.851Z" transform="translate(-15.515 -116.517)"/><path class="g" d="M19.792,232.727H16.941a1.426,1.426,0,1,0,0,2.851h2.851a1.426,1.426,0,1,0,0-2.851Z" transform="translate(-15.515 -218.47)"/><path class="g" d="M19.792,341.333H16.941a1.426,1.426,0,0,0,0,2.852h2.851a1.426,1.426,0,0,0,0-2.852Z" transform="translate(-15.515 -320.422)"/></g><g transform="translate(356.67 484.139)"><path class="f" d="M11.976,103.042l-1.06,1.59a.727.727,0,0,0,.158.977l1.305,1.015a.724.724,0,0,1,.191.923,11.886,11.886,0,0,1-2.544,3.3,11.868,11.868,0,0,1-3.3,2.544A.723.723,0,0,1,5.8,113.2l-1.015-1.305a.727.727,0,0,0-.977-.158l-1.64,1.094L.325,114.06a.727.727,0,0,0-.222.978L.978,116.5a1.779,1.779,0,0,0,1.047.809c1.454.4,4.659.48,9.8-4.659s5.061-8.345,4.662-9.8a1.779,1.779,0,0,0-.809-1.047l-1.457-.875a.727.727,0,0,0-.978.222Z" transform="translate(0 -100.823)"/></g><g transform="translate(356.67 459.359)"><path class="h" d="M116.179,17.662v9.03a.645.645,0,0,0,.645.645h17.415a.645.645,0,0,0,.645-.645v-12.9a.645.645,0,0,0-.645-.645H116.824a.645.645,0,0,0-.645.645v3.87Z" transform="translate(-116.179 -13.147)"/><path class="i" d="M119.587,13.369l8.569,7.317a.964.964,0,0,0,1.244,0l8.569-7.317a.638.638,0,0,0-.484-.222H120.071A.639.639,0,0,0,119.587,13.369Z" transform="translate(-119.426 -13.147)"/></g></g></g></svg>