<svg xmlns="http://www.w3.org/2000/svg" xmlns:xlink="http://www.w3.org/1999/xlink" width="65" height="65" viewBox="0 0 65 65"><defs><style>.a{stroke:#90bfff;fill:url(#a);}.b{fill:url(#b);}.c{clip-path:url(#c);}.d{fill:#e2cc76;}.e{fill:#e4d88f;}.f{fill:#fff;}.g{fill:#cbcbcb;}.h{fill:#f6c40f;}.i{fill:url(#d);}.j{fill:url(#e);}</style><linearGradient id="a" x1="0.187" y1="0.802" x2="0.879" y2="0.253" gradientUnits="objectBoundingBox"><stop offset="0" stop-color="#81b6ff"/><stop offset="1" stop-color="#a997ff"/></linearGradient><linearGradient id="b" x1="0.187" y1="0.802" x2="0.879" y2="0.253" gradientUnits="objectBoundingBox"><stop offset="0" stop-color="#f2d981"/><stop offset="1" stop-color="#eef2a9"/></linearGradient><clipPath id="c"><circle class="a" cx="32.5" cy="32.5" r="32.5"/></clipPath><linearGradient id="d" x1="0.5" y1="-0.111" x2="0.5" y2="1.123" gradientUnits="objectBoundingBox"><stop offset="0" stop-color="#d4b000"/><stop offset="1" stop-color="#ab500a"/></linearGradient><linearGradient id="e" x1="0.5" x2="0.5" y2="1" gradientUnits="objectBoundingBox"><stop offset="0" stop-color="#ffa50a"/><stop offset="1" stop-color="#f6b061"/></linearGradient></defs><g transform="translate(-1998 -1843)"><g transform="translate(346 -72)"><circle class="b" cx="32.5" cy="32.5" r="32.5" transform="translate(1652 1915)"/><g class="c" transform="translate(1652 1915)"><path class="d" d="M20,40A20.005,20.005,0,0,1,12.215,1.572a20.005,20.005,0,0,1,15.57,36.857A19.875,19.875,0,0,1,20,40ZM20,8.571A11.429,11.429,0,1,0,31.429,20,11.442,11.442,0,0,0,20,8.571Z" transform="translate(-11 -7)"/><path class="e" d="M38,42H6a6.007,6.007,0,0,1-6-6V6A6.007,6.007,0,0,1,6,0H38a6.007,6.007,0,0,1,6,6V36A6.007,6.007,0,0,1,38,42ZM11.656,8.542a3,3,0,0,0-3,3V30.458a3,3,0,0,0,3,3H32.344a3,3,0,0,0,3-3V11.543a3,3,0,0,0-3-3Z" transform="translate(27 36)"/></g></g><g transform="translate(1737.625 1754.289)"><g transform="translate(268.874 94.703)"><path class="f" d="M77.455,135.3H52.312a2.349,2.349,0,0,1-2.241-2.444v-30.2a2.349,2.349,0,0,1,2.241-2.444H77.455a2.349,2.349,0,0,1,2.241,2.444v30.2A2.349,2.349,0,0,1,77.455,135.3Zm0,0" transform="translate(-46.569 -93.207)"/><path class="f" d="M89.718,359.3H87.093a1.851,1.851,0,0,1-1.766-1.926v-2.862a1.851,1.851,0,0,1,1.766-1.926h2.624a1.851,1.851,0,0,1,1.765,1.926v2.862A1.851,1.851,0,0,1,89.718,359.3Zm0,0" transform="translate(-78.701 -321.179)"/><g transform="translate(15.04 13.198)"><path class="g" d="M190.962,165.762H180.944a.761.761,0,0,1,0-1.516h10.018a.761.761,0,0,1,0,1.516Zm0,0" transform="translate(-180.249 -164.246)"/><path class="g" d="M195.187,197.081H180.945a.76.76,0,0,1,0-1.515h14.242a.76.76,0,0,1,0,1.515Zm0,0" transform="translate(-180.25 -192.538)"/><path class="g" d="M190.962,265.546H180.944a.76.76,0,0,1,0-1.515h10.018a.76.76,0,0,1,0,1.515Zm0,0" transform="translate(-180.249 -254.384)"/><path class="g" d="M195.187,296.863H180.945a.761.761,0,0,1,0-1.516h14.242a.761.761,0,0,1,0,1.516Zm0,0" transform="translate(-180.25 -282.673)"/><path class="g" d="M190.962,365.327H180.944a.76.76,0,0,1,0-1.515h10.018a.76.76,0,0,1,0,1.515Zm0,0" transform="translate(-180.249 -344.519)"/><path class="g" d="M195.187,396.648H180.945a.76.76,0,0,1,0-1.515h14.242a.76.76,0,0,1,0,1.515Zm0,0" transform="translate(-180.25 -372.812)"/></g><path class="h" d="M103.125,144.766a.666.666,0,0,1-.491-.222l-1.157-1.262a.807.807,0,0,1,0-1.071.654.654,0,0,1,.982,0l.573.625,2.954-4.583a.659.659,0,0,1,.968-.184.8.8,0,0,1,.169,1.056l-3.429,5.32a.685.685,0,0,1-.509.319C103.165,144.766,103.145,144.766,103.125,144.766Zm0,0" transform="translate(-94.501 -127.277)"/><path class="h" d="M103.125,243.472a.668.668,0,0,1-.491-.222l-1.157-1.262a.807.807,0,0,1,0-1.071.655.655,0,0,1,.982,0l.573.625,2.954-4.583a.659.659,0,0,1,.968-.184.8.8,0,0,1,.169,1.056l-3.429,5.32a.685.685,0,0,1-.509.319C103.165,243.472,103.145,243.472,103.125,243.472Zm0,0" transform="translate(-94.501 -216.44)"/><path class="h" d="M103.125,243.472a.668.668,0,0,1-.491-.222l-1.157-1.262a.807.807,0,0,1,0-1.071.655.655,0,0,1,.982,0l.573.625,2.954-4.583a.659.659,0,0,1,.968-.184.8.8,0,0,1,.169,1.056l-3.429,5.32a.685.685,0,0,1-.509.319C103.165,243.472,103.145,243.472,103.125,243.472Zm0,0" transform="translate(-94.501 -206.763)"/></g><g transform="translate(3.3 2.3)"><path class="i" d="M18.553,11.664l-1.46.317a7.947,7.947,0,0,1-.47,1.133l.808,1.258a.568.568,0,0,1-.076.708L15.08,17.356a.568.568,0,0,1-.708.076l-1.258-.808a7.948,7.948,0,0,1-1.133.47l-.317,1.46a.568.568,0,0,1-.555.447H7.892a.568.568,0,0,1-.555-.447l-.317-1.46a7.947,7.947,0,0,1-1.133-.47l-1.258.808a.568.568,0,0,1-.708-.076L1.645,15.08a.568.568,0,0,1-.076-.708l.808-1.258a7.948,7.948,0,0,1-.47-1.133l-1.46-.317A.568.568,0,0,1,0,11.109V7.892a.568.568,0,0,1,.447-.555l1.46-.317a7.948,7.948,0,0,1,.47-1.133L1.569,4.628a.568.568,0,0,1,.076-.708L3.92,1.645a.568.568,0,0,1,.708-.076l1.258.808a7.948,7.948,0,0,1,1.133-.47L7.337.447A.568.568,0,0,1,7.892,0h3.217a.568.568,0,0,1,.555.447l.317,1.46a7.948,7.948,0,0,1,1.133.47l1.258-.808a.568.568,0,0,1,.708.076L17.355,3.92a.568.568,0,0,1,.076.708l-.808,1.258a7.948,7.948,0,0,1,.47,1.133l1.46.317A.568.568,0,0,1,19,7.892v3.217A.568.568,0,0,1,18.553,11.664ZM9.5,4.958A4.542,4.542,0,1,0,14.042,9.5,4.547,4.547,0,0,0,9.5,4.958Zm0,0" transform="translate(291 119)"/><g transform="translate(293.639 121.639)"><circle class="f" cx="6.598" cy="6.598" r="6.598" transform="translate(0 0)"/><g transform="translate(3.427 2.548)"><path class="j" d="M167.936,61a1.938,1.938,0,1,0,1.938,1.938A1.935,1.935,0,0,0,167.936,61Z" transform="translate(-164.706 -61)"/><path class="j" d="M139.227,151c-1.783,0-3.229,1.014-3.229,2.263v.905c0,.253.284.453.646.453h5.167c.362,0,.646-.2.646-.453v-.905C142.457,152.014,141.01,151,139.227,151Z" transform="translate(-135.998 -146.635)"/></g></g></g></g></g></svg>