<svg xmlns="http://www.w3.org/2000/svg" width="39.091" height="17.981" viewBox="0 0 39.091 17.981">
  <g id="Group_1295" data-name="Group 1295" transform="translate(-430.901 -389.063)">
    <g id="Rectangle_672" data-name="Rectangle 672">
      <rect id="Rectangle_674" data-name="Rectangle 674" width="38.091" height="16.98" rx="2" transform="translate(431.401 389.564)" fill="#fff"/>
      <path id="Path_10779" data-name="Path 10779" d="M467.492,407.044H433.4a2.5,2.5,0,0,1-2.5-2.5V391.563a2.5,2.5,0,0,1,2.5-2.5h34.091a2.5,2.5,0,0,1,2.5,2.5v12.981A2.5,2.5,0,0,1,467.492,407.044ZM433.4,390.063a1.5,1.5,0,0,0-1.5,1.5v12.981a1.5,1.5,0,0,0,1.5,1.5h34.091a1.5,1.5,0,0,0,1.5-1.5V391.563a1.5,1.5,0,0,0-1.5-1.5Z" fill="#2c2f33"/>
    </g>
    <g id="Rectangle_673" data-name="Rectangle 673">
      <rect id="Rectangle_675" data-name="Rectangle 675" width="22.511" height="2.715" transform="translate(439.147 401.552)" fill="#ffc03f"/>
      <path id="Path_10780" data-name="Path 10780" d="M462.158,404.767H438.646v-3.715h23.512Zm-22.512-1h21.512v-1.715H439.646Z" fill="#2c2f33"/>
    </g>
    <g id="Line_1" data-name="Line 1">
      <rect id="Rectangle_676" data-name="Rectangle 676" width="38.091" height="1" transform="translate(431.401 398.455)" fill="#2c2f33"/>
    </g>
    <g id="Line_2" data-name="Line 2">
      <rect id="Rectangle_677" data-name="Rectangle 677" width="1" height="9.391" transform="translate(434.987 389.563)" fill="#2c2f33"/>
    </g>
    <g id="Line_3" data-name="Line 3">
      <rect id="Rectangle_678" data-name="Rectangle 678" width="1" height="9.391" transform="translate(439.946 389.563)" fill="#2c2f33"/>
    </g>
    <g id="Line_4" data-name="Line 4">
      <rect id="Rectangle_679" data-name="Rectangle 679" width="1" height="9.391" transform="translate(444.904 389.563)" fill="#2c2f33"/>
    </g>
    <g id="Line_5" data-name="Line 5">
      <rect id="Rectangle_680" data-name="Rectangle 680" width="1" height="9.391" transform="translate(449.863 389.563)" fill="#2c2f33"/>
    </g>
    <g id="Line_6" data-name="Line 6">
      <rect id="Rectangle_681" data-name="Rectangle 681" width="1" height="9.391" transform="translate(454.821 389.563)" fill="#2c2f33"/>
    </g>
    <g id="Line_7" data-name="Line 7">
      <rect id="Rectangle_682" data-name="Rectangle 682" width="1" height="9.391" transform="translate(459.78 389.563)" fill="#2c2f33"/>
    </g>
    <g id="Line_8" data-name="Line 8">
      <rect id="Rectangle_683" data-name="Rectangle 683" width="1" height="9.391" transform="translate(464.739 389.563)" fill="#2c2f33"/>
    </g>
    <g id="Line_9" data-name="Line 9">
      <rect id="Rectangle_684" data-name="Rectangle 684" width="38.091" height="1" transform="translate(431.401 394.972)" fill="#2c2f33"/>
    </g>
    <g id="Line_10" data-name="Line 10">
      <rect id="Rectangle_685" data-name="Rectangle 685" width="38.091" height="1" transform="translate(431.401 391.666)" fill="#2c2f33"/>
    </g>
  </g>
</svg>
