<svg xmlns="http://www.w3.org/2000/svg" width="10.39" height="13.796" viewBox="0 0 10.39 13.796"><defs><style>.a{fill:#2c2f33;}</style></defs><g transform="translate(4.75)"><path class="a" d="M157.117,150.481a1.491,1.491,0,1,0-1.492-1.489A1.491,1.491,0,0,0,157.117,150.481Zm0-2.4a.915.915,0,1,1-.915.915A.915.915,0,0,1,157.117,148.077Zm0,0" transform="translate(-156.672 -144.094)"/><path class="a" d="M121.289,303.161h4.006a.289.289,0,0,0,.289-.289,2.394,2.394,0,0,0-.669-1.694,2.279,2.279,0,0,0-3.244,0,2.394,2.394,0,0,0-.67,1.694A.289.289,0,0,0,121.289,303.161Zm.794-1.579a1.7,1.7,0,0,1,2.418,0,1.774,1.774,0,0,1,.485,1H121.6A1.765,1.765,0,0,1,122.082,301.582Zm0,0" transform="translate(-122.847 -293.562)"/><path class="a" d="M4.2.981H1.6V.289A.289.289,0,0,0,1.311,0H-.421A.289.289,0,0,0-.709.289V.981h-2.6A1.444,1.444,0,0,0-4.75,2.424v9.928A1.444,1.444,0,0,0-3.307,13.8H4.2A1.444,1.444,0,0,0,5.64,12.353V2.424A1.444,1.444,0,0,0,4.2.981ZM-.132.577H1.022V1.732H-.132ZM5.063,12.353a.868.868,0,0,1-.866.866h-7.5a.868.868,0,0,1-.866-.866V2.424a.868.868,0,0,1,.866-.866h2.6V2.02a.289.289,0,0,0,.289.289H1.311A.289.289,0,0,0,1.6,2.02V1.558H4.2a.868.868,0,0,1,.866.866Zm0,0"/><path class="a" d="M79.034,505H72.789a.289.289,0,1,0,0,.577h6.248a.289.289,0,1,0,0-.577Zm0,0" transform="translate(-75.466 -493.34)"/><path class="a" d="M135.289,450a.289.289,0,1,0,0,.577h3.362a.289.289,0,1,0,0-.577Zm0,0" transform="translate(-136.523 -439.61)"/></g></svg>