<svg xmlns="http://www.w3.org/2000/svg" width="38" height="38" viewBox="0 0 38 38"><defs><style>.a{fill:#fff;stroke:#e5e5e5;}.b{fill:#787bc4;stroke:rgba(0,0,0,0);stroke-miterlimit:10;}.c{stroke:none;}.d{fill:none;}</style></defs><g transform="translate(-234 -689)"><g transform="translate(234 689)"><g class="a"><circle class="c" cx="19" cy="19" r="19"/><circle class="d" cx="19" cy="19" r="18.5"/></g><g transform="translate(12 9)"><path class="b" d="M5025.208,10388.225a.621.621,0,0,1,.623-.62h2.307v-1.674a6.764,6.764,0,0,1-6.137-6.729.622.622,0,1,1,1.244,0,5.514,5.514,0,1,0,11.029,0,.622.622,0,1,1,1.244,0,6.768,6.768,0,0,1-6.135,6.729v1.669h2.305a.622.622,0,1,1,0,1.243h0l-5.856,0A.623.623,0,0,1,5025.208,10388.225Zm-.431-9.023v-7.22a3.98,3.98,0,1,1,7.96,0v7.22a3.98,3.98,0,1,1-7.96,0Z" transform="translate(-5022 -10368)"/></g></g></g></svg>