<svg xmlns="http://www.w3.org/2000/svg" width="131.812" height="63.926" viewBox="0 0 131.812 63.926">
  <g id="Good_Morning" data-name="Good Morning" transform="translate(-39.126 -145.435)">
    <path id="Path_1" data-name="Path 1" d="M62.595,242.571a5.143,5.143,0,0,0,2.483-.725,5.5,5.5,0,0,0,2.659-3.092,9.916,9.916,0,0,0,.5-4.546c-.1-1.119-.184-2.237-.335-3.351a9.689,9.689,0,0,0-.483-2.144c-.082-.218-.236-.238-.452-.2-1.8.306-3.51.946-5.3,1.291-.952.184-1.9.405-2.843.61-.918.2-1.838.389-2.752.6a.528.528,0,0,0-.469.406,7.844,7.844,0,0,0-.052,2.586,16.2,16.2,0,0,0,.786,2.939,11.659,11.659,0,0,0,1.267,2.676,8.206,8.206,0,0,0,1.562,1.771A5.072,5.072,0,0,0,62.595,242.571Z" transform="translate(-11.246 -61.933)" fill="#fff7f7"/>
    <g id="Group_8798" data-name="Group 8798">
      <path id="Path_8" data-name="Path 8" d="M51.351,240.388a7.509,7.509,0,0,1-5.592-1.977.322.322,0,0,0-.478-.1,3.262,3.262,0,0,1-3.341-.073,4.856,4.856,0,0,1-2.084-1.859,4.47,4.47,0,0,1-.71-2.083,5.162,5.162,0,0,1,.083-1.557,2.5,2.5,0,0,1,2.827-1.878c.4.085.369-.2.378-.453a5.571,5.571,0,0,1,.636-2.347.658.658,0,0,1,.5-.356c1.387-.331,2.758-.732,4.147-1.056.9-.21,1.8-.406,2.7-.636q1.472-.377,2.945-.746a14.078,14.078,0,0,0,2.223-.45.865.865,0,0,1,.9.256.668.668,0,0,1,.187.311c.253.985.623,1.934.86,2.928a13.67,13.67,0,0,1,.515,5.71,8.543,8.543,0,0,1-1.781,4.072A6.9,6.9,0,0,1,51.351,240.388Zm-.315-.686a5.143,5.143,0,0,0,2.483-.725,5.5,5.5,0,0,0,2.659-3.092,9.916,9.916,0,0,0,.5-4.546c-.1-1.119-.184-2.237-.335-3.351a9.689,9.689,0,0,0-.483-2.144c-.082-.218-.236-.237-.452-.2-1.8.306-3.51.946-5.3,1.291-.952.184-1.9.405-2.843.61-.918.2-1.838.389-2.752.6a.528.528,0,0,0-.469.406A7.844,7.844,0,0,0,44,231.138a16.2,16.2,0,0,0,.786,2.939,11.658,11.658,0,0,0,1.267,2.676,8.207,8.207,0,0,0,1.562,1.771A5.072,5.072,0,0,0,51.036,239.7Zm-6.115-2.1a14.228,14.228,0,0,1-1.467-2.629,20.534,20.534,0,0,1-.926-3.046.46.46,0,0,0-.709-.342,2.275,2.275,0,0,0-.564.552c-.855,1.259-.507,2.529-.036,3.794a4.548,4.548,0,0,0,1.528,1.827A1.6,1.6,0,0,0,44.921,237.607Z" transform="translate(0 -59.376)" fill="#1d262d"/>
      <path id="Path_9" data-name="Path 9" d="M61.223,179.741c.272-.1.516-.188.76.023a1.081,1.081,0,0,0,1.376,0,3.617,3.617,0,0,0,1.67-2.515,5.006,5.006,0,0,0-.3-2.951c-.312-.7-.708-1.395-1.6-1.515a2.194,2.194,0,0,0-1.45.366,4.732,4.732,0,0,0-2.271,3.775,6.783,6.783,0,0,0,1.057,4.451,20.684,20.684,0,0,0,2.2,2.789,5,5,0,0,1,1.158,1.783A2.554,2.554,0,0,1,63.8,187.4a2.657,2.657,0,0,1-.955,1.529,2.135,2.135,0,0,1-2.566-.227.407.407,0,0,1,.04-.553.307.307,0,0,1,.492-.005c.023.021.053.034.076.054.188.157.3.493.6.4a1.271,1.271,0,0,0,.77-.818,2.073,2.073,0,0,0-.441-2.142c-.563-.7-1.269-1.253-1.877-1.905a8.684,8.684,0,0,1-2.4-3.95,6.888,6.888,0,0,1,.136-3.55,5.8,5.8,0,0,1,1.635-2.789,4.724,4.724,0,0,1,3.508-1.328,3.308,3.308,0,0,1,2.906,1.681,4.936,4.936,0,0,1,.334,3.852,3.962,3.962,0,0,1-.607,1.379A2.973,2.973,0,0,1,62.2,180.45C61.856,180.354,61.375,180.247,61.223,179.741Z" transform="translate(-12.553 -23.141)" fill="#7f4a11"/>
      <path id="Path_10" data-name="Path 10" d="M85.826,185.478a5.947,5.947,0,0,0,.6-2.855c0-.093-.07-.206-.036-.274.12-.237-.14-.642.313-.728a1.1,1.1,0,0,1,.88.582,2.7,2.7,0,0,1-.11,1.94,5.452,5.452,0,0,1-.489,1.093A.71.71,0,0,1,85.826,185.478Z" transform="translate(-32.125 -29.683)" fill="#7f4a11"/>
      <path id="Path_24" data-name="Path 24" d="M61.047,211.245A2.276,2.276,0,0,1,59.129,210c.315-.3.52-.027.747.144.1.075.257.115.3.211C60.36,210.745,60.828,210.837,61.047,211.245Z" transform="translate(-13.761 -49.121)" fill="#7f4a11"/>
      <path id="Path_25" data-name="Path 25" d="M87.4,240.7c-.818.029-.861-.06-.889-1.055a47.251,47.251,0,0,0-.411-5.466c-.05-.34.134-.423.4-.379a.818.818,0,0,1,.655.659,13.165,13.165,0,0,1,.518,4.772A3.486,3.486,0,0,1,87.4,240.7Z" transform="translate(-32.306 -65.576)" fill="#facabe"/>
    </g>
    <g id="Group_8855" data-name="Group 8855" transform="translate(16.117 77.06) rotate(-30)">
      <g id="Group_14" data-name="Group 14" transform="translate(48.617 122.678)">
        <g id="Group_13" data-name="Group 13" transform="translate(0)">
          <g id="Group_12" data-name="Group 12">
            <path id="Path_3543" data-name="Path 3543" d="M86.306,168.283a8.41,8.41,0,0,1-6.882-2.85,11.539,11.539,0,0,1-2.592-5.33,8.776,8.776,0,0,1-.044-3.443,6.379,6.379,0,0,1,3.585-4.59,10.072,10.072,0,0,1,9.224-.244,10.52,10.52,0,0,1,4.556,3.638,9.191,9.191,0,0,1,1.606,6.427,6.484,6.484,0,0,1-4.027,5.255A12.845,12.845,0,0,1,86.306,168.283Zm-5.767-10.815a4.918,4.918,0,0,1,3.392-2.128,7.427,7.427,0,0,1,4.052.376,3.287,3.287,0,0,0-2.79-2.158A5.289,5.289,0,0,0,80.539,157.467Zm.644,7.4a5.615,5.615,0,0,0,4.568,2.362c1.882-.011,4.148-.88,4.9-1.911a8.631,8.631,0,0,1-4.822,1.221A7.944,7.944,0,0,1,81.184,164.871Zm7.858-11.658c-2.487-2.1-6.048-1.689-8.535.564A8.987,8.987,0,0,1,89.042,153.213Z" transform="translate(-67.609 -141.755)" fill="#ffce43"/>
            <path id="Path_3544" data-name="Path 3544" d="M137.317,212.646a1.72,1.72,0,0,1-1.341-.456,11.761,11.761,0,0,1-2.889-4.01c-.323-.736-.108-1.048.7-1.042a1.241,1.241,0,0,1,.836.275,13.43,13.43,0,0,1,3.345,4.014C138.447,212.385,138.039,212.605,137.317,212.646Z" transform="translate(-105.77 -179.921)" fill="#ffce43"/>
            <path id="Path_3545" data-name="Path 3545" d="M130.454,127.451c.748,0,1,.306.785,1.013a10.54,10.54,0,0,1-2.135,4.042,2.088,2.088,0,0,1-1.8.851c-.553-.049-.757-.347-.5-.819a45.259,45.259,0,0,1,2.4-4.307A1.443,1.443,0,0,1,130.454,127.451Z" transform="translate(-101.532 -125.912)" fill="#ffce43"/>
            <path id="Path_3546" data-name="Path 3546" d="M99.342,126.937a10.3,10.3,0,0,1-.105,1.705c-.051.32-.084.666-.5.742a.782.782,0,0,1-.909-.519,6.4,6.4,0,0,1-.492-1.924c-.133-.885-.261-1.771-.376-2.659a7.587,7.587,0,0,1-.016-.771c-.01-.411.118-.716.571-.8a1.063,1.063,0,0,1,1.247.516,6.266,6.266,0,0,1,.481,1.885A12.205,12.205,0,0,1,99.342,126.937Z" transform="translate(-81.366 -122.678)" fill="#ffce43"/>
            <path id="Path_3547" data-name="Path 3547" d="M68.078,209.095c-.585.009-.739-.179-.564-.663a23.433,23.433,0,0,1,2.891-5.547,1.364,1.364,0,0,1,1.406-.623c.447.067.585.291.422.71a3.146,3.146,0,0,1-.343.692c-1.106,1.55-2.023,3.218-3.017,4.837C68.678,208.821,68.46,209.12,68.078,209.095Z" transform="translate(-61.379 -176.603)" fill="#ffce43"/>
            <path id="Path_3548" data-name="Path 3548" d="M68.23,143.044a1.963,1.963,0,0,1-1.172-.412,12.431,12.431,0,0,1-2.713-2.509c-.278-.339-.2-.56.24-.649a1.683,1.683,0,0,1,1.34.349,20.1,20.1,0,0,1,2.828,2.454c.127.13.338.259.267.468-.079.234-.333.25-.547.287A2.046,2.046,0,0,1,68.23,143.044Z" transform="translate(-59.167 -134.041)" fill="#ffce43"/>
            <path id="Path_3549" data-name="Path 3549" d="M99.367,215.088a16.718,16.718,0,0,1,.386-2.491c.09-.439.318-.592.791-.572a.685.685,0,0,1,.753.644,6.237,6.237,0,0,1-.463,3.184.93.93,0,0,1-1.291.353.389.389,0,0,1-.177-.345C99.365,215.6,99.367,215.345,99.367,215.088Z" transform="translate(-83.012 -183.232)" fill="#ffce43"/>
            <path id="Path_3550" data-name="Path 3550" d="M141.532,164a1.984,1.984,0,0,1-.917-.179c-.234-.125-.3-.3-.044-.457A11.053,11.053,0,0,1,145,161.588a1.512,1.512,0,0,1,.915.126c.218.12.278.313.048.438C144.549,162.919,143.215,163.884,141.532,164Z" transform="translate(-110.828 -149.038)" fill="#ffce43"/>
            <path id="Path_3551" data-name="Path 3551" d="M52.46,177.908c.678-.038,1.356-.074,2.034-.114a2.209,2.209,0,0,1,.848.065c.139.046.307.1.319.276s-.149.241-.287.3a3.848,3.848,0,0,1-1.391.281q-2.261.094-4.524.006a3.311,3.311,0,0,1-.637-.122c-.106-.025-.217-.08-.2-.215.009-.106.107-.151.2-.186a3.67,3.67,0,0,1,1.243-.191c.8-.019,1.6-.005,2.4-.005Z" transform="translate(-48.617 -160.025)" fill="#ffce43"/>
          </g>
        </g>
      </g>
    </g>
    <g id="objects" transform="translate(-183.479 -44.896)">
      <g id="Group_4" data-name="Group 4">
        <g id="Group_3" data-name="Group 3">
          <g id="Group_2" data-name="Group 2">
            <g id="Path_7" data-name="Path 7">
              <path id="Path_37087" data-name="Path 37087" d="M286.869,251.3c.188-.088.3.022.4.1a5.375,5.375,0,0,0,3.29.942,25.457,25.457,0,0,0,6.131-.878c4.452-1.059,8.854-2.311,13.324-3.3a57.728,57.728,0,0,1,14.927-1.538,38.765,38.765,0,0,1,10.919,1.782,5.157,5.157,0,0,1,1.762.865,1.758,1.758,0,0,1,.329.333c.118.174.309.379.1.585-.183.176-.39.025-.556-.082a4.825,4.825,0,0,0-1.882-.538,55.238,55.238,0,0,0-13.036-.554,85.032,85.032,0,0,0-14.733,2.713c-3.3.81-6.6,1.672-9.964,2.189a18.168,18.168,0,0,1-6.689.045,7.189,7.189,0,0,1-4.117-2.29C286.986,251.574,286.85,251.5,286.869,251.3Z" fill="#1d262d"/>
            </g>
          </g>
        </g>
        <g id="Morning" style="isolation: isolate">
          <g id="Group_8909" data-name="Group 8909" style="isolation: isolate">
            <path id="Path_37088" data-name="Path 37088" d="M250.972,236.609l.322-.723a92.667,92.667,0,0,1,5.51-11.149,6.852,6.852,0,0,1,.467-.554,2.481,2.481,0,0,1,.443-.363,3.858,3.858,0,0,1,.653-.321,7.645,7.645,0,0,1,3-.5,2.718,2.718,0,0,1,1.2.161c.166.108.25.35.25.726,0,.289-.011.6-.032.933q-.129,2.9-.129,4.125a39.283,39.283,0,0,0,.419,5.866,22.12,22.12,0,0,0,.8,3.142,11.629,11.629,0,0,0,1.08,2.176,8.811,8.811,0,0,0,1.031,1.225q.516.515.516.789,0,.5-.854,1.353a4.188,4.188,0,0,1-2.868,1.386,4.963,4.963,0,0,1-3.658-1.724,6.73,6.73,0,0,1-1.329-1.861,9.256,9.256,0,0,1-.733-2.53,31.772,31.772,0,0,1-.323-3.828q-.113-2.512-.129-2.835h-.064q-1.016,1.95-1.693,3.255t-1.105,2.159q-.427.855-1.008,2.046a44.894,44.894,0,0,1-2.4,4.592c-.022.023-.065.071-.129.146a1.278,1.278,0,0,1-.178.177,1.938,1.938,0,0,1-.62.395,1.669,1.669,0,0,1-.589.137,2.234,2.234,0,0,1-1.491-.846,7.788,7.788,0,0,1-1.427-2.184,19.694,19.694,0,0,1-1.026-2.893,31.1,31.1,0,0,1-.7-3.5q-.3-2.025-.526-4.943h-.065q-.484,1.063-.727,1.6t-.742,1.644q-.5,1.112-.582,1.288-.661,1.465-1.389,2.965t-1.169,2.3q-.442.807-.974,1.6a9.5,9.5,0,0,1-.853,1.049,7.455,7.455,0,0,1-2.076,1.412,5.21,5.21,0,0,1-2.141.508,1.186,1.186,0,0,1-.675-.194.578.578,0,0,1-.29-.5,1.244,1.244,0,0,1,.436-.725q.241-.291,1.048-1.483l.935-1.45q.87-1.289,2.628-4.625l.774-1.449q2.709-5.188,3.66-7.1a10.275,10.275,0,0,0,.952-2.216,1.12,1.12,0,0,0-.488-.756c-.249-.2-.374-.381-.374-.533,0-.235.312-.459.936-.668a6.332,6.332,0,0,1,2.032-.314,4.215,4.215,0,0,1,3.146.982,6.087,6.087,0,0,1,1.08,2.41,45.3,45.3,0,0,1,1,5.2c.022.128.038.227.049.3s.021.131.032.184a1.088,1.088,0,0,1,.016.209,3.665,3.665,0,0,1,.1.6q.339,2.075.518,2.676A3.245,3.245,0,0,0,250.972,236.609Z" fill="#1d262d"/>
            <path id="Path_37089" data-name="Path 37089" d="M278.507,228.833q2.4,0,2.4.563,0,.646-1.079.694a5.41,5.41,0,0,0-2.433.741,6.961,6.961,0,0,0-2.006,1.805,8.943,8.943,0,0,0-1.37,2.578,9.27,9.27,0,0,0-.492,3.029,4.524,4.524,0,0,0,.822,2.828,2.578,2.578,0,0,0,2.143,1.072,2.632,2.632,0,0,0,2.143-1.257,4.835,4.835,0,0,0,.919-2.933,5.892,5.892,0,0,0-.573-2.57,5.4,5.4,0,0,0-1.667-2.022c-.312-.247-.467-.424-.467-.532q0-.225.66-.692a7.685,7.685,0,0,1,1.66-.838,4.61,4.61,0,0,1,1.547-.339,2.7,2.7,0,0,1,1.378.379,3.713,3.713,0,0,1,1.152,1.079,5.332,5.332,0,0,1,.765,1.611,6.914,6.914,0,0,1,.266,1.942,9.292,9.292,0,0,1-.645,3.376,7.517,7.517,0,0,1-1.692,2.7,10.909,10.909,0,0,1-3.262,2.135,9.133,9.133,0,0,1-3.634.83,9.992,9.992,0,0,1-3.327-.58A6.965,6.965,0,0,1,269.1,242.9a4.949,4.949,0,0,1-1.289-3.658,8.4,8.4,0,0,1,.919-3.738,12.2,12.2,0,0,1,2.489-3.392,12.556,12.556,0,0,1,3.465-2.4A9.015,9.015,0,0,1,278.507,228.833Z" fill="#1d262d"/>
            <path id="Path_37090" data-name="Path 37090" d="M290.608,240.129l-.064.322a6.886,6.886,0,0,1-.065.789,9.447,9.447,0,0,1-.177,1.289,2.4,2.4,0,0,1-.338.83,4.687,4.687,0,0,1-.612.7,3.532,3.532,0,0,1-2.369,1.079,1.579,1.579,0,0,1-1.426-.709,4.341,4.341,0,0,1-.459-2.288,21.119,21.119,0,0,1,.281-3.1,29.413,29.413,0,0,1,.685-3.312l.129-.418a1.793,1.793,0,0,1,.1-.4,21.012,21.012,0,0,1,1.1-3.247,5.367,5.367,0,0,1,1.208-1.7,2.221,2.221,0,0,1,1.418-.5q1.145,0,1.386,1.387a3.55,3.55,0,0,0,.435-.452,4.778,4.778,0,0,1,.725-.75,1,1,0,0,1,.6-.185q1.386,0,1.386,2.74a12.916,12.916,0,0,1-.322,2.9,8.88,8.88,0,0,1-.814,2.287q-.492.886-.975.886-.531,0-.532-2.013a9.01,9.01,0,0,0-.12-1.668,2.3,2.3,0,0,0-.379-.944,11.914,11.914,0,0,0-.628,4.125Q290.656,239.646,290.608,240.129Z" fill="#1d262d"/>
            <path id="Path_37091" data-name="Path 37091" d="M302.752,236.547l.971-1.131q1.473-1.632,2.335-2.431a7.306,7.306,0,0,1,1.545-1.154,2.984,2.984,0,0,1,1.392-.355,1.9,1.9,0,0,1,1.61.612,3.621,3.621,0,0,1,.467,2.127q0,.629-.129,1.853a26,26,0,0,0-.193,3.061,17.078,17.078,0,0,0,.161,2.611,7.457,7.457,0,0,0,.338,1.225,3.676,3.676,0,0,1,.161.789.471.471,0,0,1-.193.4,4.493,4.493,0,0,1-1.321.758,3.94,3.94,0,0,1-1.386.322,2.528,2.528,0,0,1-1.668-.629,4.031,4.031,0,0,1-1.16-1.74,7.2,7.2,0,0,1-.411-2.513,14.987,14.987,0,0,1,.194-2.208l-.065-.064q-.693.774-1.12,1.225c-.285.3-.551.586-.8.853q-1.8,2.064-3.061,3.723-.483.645-.886,1.128a1.866,1.866,0,0,1-1.353.6,2.077,2.077,0,0,1-1.676-.773,3.016,3.016,0,0,1-.645-2,11.851,11.851,0,0,1,.178-1.854q.177-1.095.475-2.344t.709-2.57q.411-1.32.894-2.513a8.95,8.95,0,0,1,1.8-3.094,2.389,2.389,0,0,1,1.757-.726q1.676,0,1.675,2.175a22.613,22.613,0,0,1-.667,4.572Z" fill="#1d262d"/>
            <path id="Path_37092" data-name="Path 37092" d="M315.033,245.2a2,2,0,0,1-1.32-.661,3.821,3.821,0,0,1-.845-1.394,6.279,6.279,0,0,1-.249-1.941,21.392,21.392,0,0,1,.99-6,13.885,13.885,0,0,1,2.248-4.843,1.673,1.673,0,0,1,1.385-.628,1.744,1.744,0,0,1,1.507.855,3.954,3.954,0,0,1,.571,2.239,23.251,23.251,0,0,1-.589,4.793,44.37,44.37,0,0,1-1.655,5.712,3.166,3.166,0,0,1-1.029,1.612,1.836,1.836,0,0,1-.983.258Zm1.937-16.194q-1.515-.046-1.515-1.821a5.942,5.942,0,0,1,.442-2.054A4.926,4.926,0,0,1,316.9,223.4a1.844,1.844,0,0,1,.588-.434,1.941,1.941,0,0,1,.766-.129,1.576,1.576,0,0,1,1.183.394,1.864,1.864,0,0,1,.379,1.314,5.99,5.99,0,0,1-.394,2.167,4.535,4.535,0,0,1-1.056,1.66,1.96,1.96,0,0,1-1.353.636Z" fill="#1d262d"/>
            <path id="Path_37093" data-name="Path 37093" d="M327.824,236.547l.971-1.131q1.473-1.632,2.335-2.431a7.331,7.331,0,0,1,1.545-1.154,2.987,2.987,0,0,1,1.392-.355,1.907,1.907,0,0,1,1.611.612,3.628,3.628,0,0,1,.467,2.127q0,.629-.129,1.853a26.013,26.013,0,0,0-.194,3.061,17.082,17.082,0,0,0,.161,2.611,7.555,7.555,0,0,0,.338,1.225,3.613,3.613,0,0,1,.161.789.471.471,0,0,1-.193.4,4.48,4.48,0,0,1-1.321.758,3.94,3.94,0,0,1-1.386.322,2.53,2.53,0,0,1-1.668-.629,4.031,4.031,0,0,1-1.16-1.74,7.2,7.2,0,0,1-.41-2.513,14.971,14.971,0,0,1,.193-2.208l-.064-.064q-.693.774-1.12,1.225c-.286.3-.551.586-.8.853q-1.8,2.064-3.062,3.723-.483.645-.886,1.128a1.866,1.866,0,0,1-1.353.6,2.077,2.077,0,0,1-1.676-.773,3.016,3.016,0,0,1-.644-2,11.94,11.94,0,0,1,.176-1.854q.179-1.095.476-2.344t.709-2.57q.409-1.32.894-2.513a8.966,8.966,0,0,1,1.8-3.094,2.391,2.391,0,0,1,1.757-.726q1.676,0,1.676,2.175a22.684,22.684,0,0,1-.667,4.572Z" fill="#1d262d"/>
            <path id="Path_37094" data-name="Path 37094" d="M348.487,240.628l-.435.322a1.606,1.606,0,0,1-.154.129c-.069.054-.158.124-.265.21a37.884,37.884,0,0,1-4.375,3.061,5.874,5.874,0,0,1-2.763.886,2.608,2.608,0,0,1-2.1-.951,3.828,3.828,0,0,1-.8-2.545,8.767,8.767,0,0,1,1.119-4.1,15.412,15.412,0,0,1,2.957-3.891A15.756,15.756,0,0,1,345.7,230.9a9.634,9.634,0,0,1,4.238-1.071,5.611,5.611,0,0,1,3.07.693,2.322,2.322,0,0,1,1.055,2.079,6.391,6.391,0,0,1-.918,2.868,1.329,1.329,0,0,1,.966.411,1.739,1.739,0,0,1,.307,1.136,16.811,16.811,0,0,1-.516,3.5,29.631,29.631,0,0,1-1.256,4.149,12.3,12.3,0,0,1-2.579,4.174,11.506,11.506,0,0,1-3.158,2.3,7.429,7.429,0,0,1-3.239.959,2.752,2.752,0,0,1-2.014-.9,2.826,2.826,0,0,1-.886-2.03,3.65,3.65,0,0,1,.386-1.571,4.658,4.658,0,0,1,1-1.394,12.9,12.9,0,0,1,3.691-2.417,1.736,1.736,0,0,1,.692-.225.25.25,0,0,1,.178.08.245.245,0,0,1,.08.177,1.161,1.161,0,0,1-.193.436,9.2,9.2,0,0,0-.854,2.1,8.158,8.158,0,0,0-.371,2.216q0,1.095.339,1.1.177,0,.442-.4a5.215,5.215,0,0,0,.477-.893,27.319,27.319,0,0,0,1.752-6.446Q348.437,241.5,348.487,240.628Zm.822-3.433v.065l-.065-.065a.785.785,0,0,1-.258.034q-.306.031-.773.031c-.548,0-.821-.1-.821-.306a.631.631,0,0,1,.209-.387,6.1,6.1,0,0,0,1.055-1.821,6.613,6.613,0,0,0,.491-2.046,2.226,2.226,0,0,1,.033-.4c.01-.042.018-.08.024-.112a.561.561,0,0,0,.008-.081q0-.225-.306-.225-.629,0-1.933,1.353a12.3,12.3,0,0,0-1.547,2.063,11.911,11.911,0,0,0-1.128,2.385,6.76,6.76,0,0,0-.4,2.142q0,.935.467.935a6.55,6.55,0,0,0,2.272-1.515Q347.456,238.534,349.309,237.2Z" fill="#1d262d"/>
          </g>
        </g>
      </g>
      <g id="Good" style="isolation: isolate">
        <g id="Group_8910" data-name="Group 8910" style="isolation: isolate">
          <path id="Path_37095" data-name="Path 37095" d="M253.966,214.94a10.66,10.66,0,0,1-2.459,1.826,5.077,5.077,0,0,1-2.3.573,4.174,4.174,0,0,1-2.373-.659,4.121,4.121,0,0,1-1.509-1.9,7.508,7.508,0,0,1-.521-2.927,9.765,9.765,0,0,1,1.1-4.331,16.6,16.6,0,0,1,7.007-7.165,9.227,9.227,0,0,1,4.258-1.134q3.322,0,3.322,2.914a4.362,4.362,0,0,1-.613,2.2,4.867,4.867,0,0,1-1.628,1.714,3.935,3.935,0,0,1-2.149.646c-.308,0-.461-.11-.461-.329a1.644,1.644,0,0,1,.158-.449,6.445,6.445,0,0,0,.54-1.515,10.726,10.726,0,0,0,.211-1.781q0-1.107-.263-1.107a3.285,3.285,0,0,0-1.734.884,8.837,8.837,0,0,0-1.826,1.924,12.076,12.076,0,0,0-1.193,2.162,15.311,15.311,0,0,0-.857,2.531,10.018,10.018,0,0,0-.31,2.348,2.948,2.948,0,0,0,.435,1.667,1.314,1.314,0,0,0,1.134.653q1.2,0,2.7-3.046c.316-.562.529-.921.639-1.074a1.547,1.547,0,0,1,.468-.415,9.116,9.116,0,0,1,2.061-.917,6.82,6.82,0,0,1,1.93-.4.711.711,0,0,1,.8.8q0,.066-.079.579a47.4,47.4,0,0,1-2.263,7.068,16.059,16.059,0,0,1-2.584,4.561,4.318,4.318,0,0,1-1.715,1.029,6.8,6.8,0,0,1-2.32.409,6.384,6.384,0,0,1-1.984-.33,5.261,5.261,0,0,1-1.655-.844,1.39,1.39,0,0,1-.646-1.016,1.217,1.217,0,0,1,.37-.751,5.036,5.036,0,0,1,1-.843,3.43,3.43,0,0,1,1.331-.673q.344,0,.962.752a8.083,8.083,0,0,0,1.6,1.437,21.051,21.051,0,0,0,.89-2.65A16.788,16.788,0,0,0,253.966,214.94Z" fill="#1d262d"/>
          <path id="Path_37096" data-name="Path 37096" d="M270.354,204.1q1.963,0,1.964.462,0,.528-.883.566a4.418,4.418,0,0,0-1.991.607,5.707,5.707,0,0,0-1.642,1.476,7.351,7.351,0,0,0-1.12,2.11,7.59,7.59,0,0,0-.4,2.478,3.7,3.7,0,0,0,.672,2.314,2.107,2.107,0,0,0,1.754.877,2.154,2.154,0,0,0,1.753-1.029,3.955,3.955,0,0,0,.751-2.4,4.842,4.842,0,0,0-.467-2.1,4.437,4.437,0,0,0-1.365-1.655c-.255-.2-.382-.347-.382-.434q0-.185.54-.568a6.42,6.42,0,0,1,1.358-.685,3.815,3.815,0,0,1,1.266-.277,2.218,2.218,0,0,1,1.127.31,3.025,3.025,0,0,1,.942.884,4.344,4.344,0,0,1,.627,1.318,5.675,5.675,0,0,1,.217,1.589,7.626,7.626,0,0,1-.527,2.762,6.182,6.182,0,0,1-1.384,2.208,8.954,8.954,0,0,1-2.67,1.747,7.472,7.472,0,0,1-2.973.678,8.18,8.18,0,0,1-2.723-.474,5.711,5.711,0,0,1-2.142-1.253,4.045,4.045,0,0,1-1.054-2.992,6.883,6.883,0,0,1,.751-3.059,9.992,9.992,0,0,1,2.037-2.775,10.244,10.244,0,0,1,2.834-1.964A7.367,7.367,0,0,1,270.354,204.1Z" fill="#1d262d"/>
          <path id="Path_37097" data-name="Path 37097" d="M284.987,204.1q1.965,0,1.965.462,0,.528-.884.566a4.414,4.414,0,0,0-1.99.607,5.694,5.694,0,0,0-1.642,1.476,7.326,7.326,0,0,0-1.12,2.11,7.563,7.563,0,0,0-.4,2.478,3.7,3.7,0,0,0,.672,2.314,2.107,2.107,0,0,0,1.753.877,2.155,2.155,0,0,0,1.754-1.029,3.955,3.955,0,0,0,.751-2.4,4.828,4.828,0,0,0-.468-2.1,4.434,4.434,0,0,0-1.364-1.655c-.255-.2-.383-.347-.383-.434,0-.123.181-.312.541-.568a6.42,6.42,0,0,1,1.358-.685,3.815,3.815,0,0,1,1.265-.277,2.213,2.213,0,0,1,1.127.31,3.017,3.017,0,0,1,.943.884,4.345,4.345,0,0,1,.627,1.318,5.675,5.675,0,0,1,.217,1.589,7.626,7.626,0,0,1-.527,2.762,6.17,6.17,0,0,1-1.385,2.208,8.942,8.942,0,0,1-2.67,1.747,7.467,7.467,0,0,1-2.972.678,8.18,8.18,0,0,1-2.723-.474,5.7,5.7,0,0,1-2.142-1.253,4.045,4.045,0,0,1-1.055-2.992,6.885,6.885,0,0,1,.752-3.059,9.992,9.992,0,0,1,2.037-2.775,10.229,10.229,0,0,1,2.834-1.964A7.366,7.366,0,0,1,284.987,204.1Z" fill="#1d262d"/>
          <path id="Path_37098" data-name="Path 37098" d="M299.621,205.3l.132-.541q.408-1.806.738-2.92a14.818,14.818,0,0,1,.679-1.885,3.875,3.875,0,0,1,.692-1.115,2.674,2.674,0,0,1,1.991-.592,5.017,5.017,0,0,1,.942.065,1.035,1.035,0,0,1,.495.238q-.633,1.965-.877,2.947t-.534,2.7a32.14,32.14,0,0,0-.448,5.049,20.485,20.485,0,0,0,.244,3.091,29.788,29.788,0,0,0,.8,3.567,13.543,13.543,0,0,1-1.339.83,8.488,8.488,0,0,1-1.213.541,3.169,3.169,0,0,1-1.008.2,1.1,1.1,0,0,1-1.081-.752,5.688,5.688,0,0,1-.343-.995q-.078-.375-.277-2.089a20,20,0,0,1-3.381,2.907,5.221,5.221,0,0,1-2.578,1.061,2.2,2.2,0,0,1-1.812-.9,3.663,3.663,0,0,1-.706-2.326,8.653,8.653,0,0,1,.548-2.842,13.77,13.77,0,0,1,1.509-3.026,10.321,10.321,0,0,1,1.3-1.628,10.155,10.155,0,0,1,1.51-1.233,5.022,5.022,0,0,1,2.558-1A3.05,3.05,0,0,1,299.621,205.3Zm-.409,6.262V210.8a1.927,1.927,0,0,1-1,.593.162.162,0,0,1-.184-.184,1.438,1.438,0,0,1,.079-.33,4.606,4.606,0,0,0,.277-1.529,5.917,5.917,0,0,0-.462-2.215c-.131-.395-.294-.593-.487-.593a.28.28,0,0,0-.238.132,5.477,5.477,0,0,0-.83,1.417,12.1,12.1,0,0,0-.653,1.991,8.317,8.317,0,0,0-.257,1.9q0,1.569.949,1.568a2.483,2.483,0,0,0,1.272-.559A8.274,8.274,0,0,0,299.212,211.565Z" fill="#1d262d"/>
        </g>
      </g>
    </g>
  </g>
</svg>
