<svg xmlns="http://www.w3.org/2000/svg" width="17.671" height="20.953" viewBox="0 0 17.671 20.953"><defs><style>.a{fill:#fff;}.b{fill:#ffc03f;}</style></defs><g transform="translate(-30 -467)"><path class="a" d="M1133.593,466.1l-.026,17.028,2.589.457.283,2.49,9.674.216,4.4-4.147,0-13-2.716-.437-.208-2.607Z" transform="translate(-1103.172 1.404)"/><path class="b" d="M1144.609,483.078l-4.221,3.9s-.732-2.8.233-3.738S1144.609,483.078,1144.609,483.078Z" transform="translate(-1097.356 0.545)"/><g transform="translate(30 467)"><g transform="translate(0)"><path d="M56.758,2.777H54.991V1.01A1.013,1.013,0,0,0,53.981,0H41.107A1.013,1.013,0,0,0,40.1,1.01V17.166a1.013,1.013,0,0,0,1.01,1.01h1.767v1.767a1.013,1.013,0,0,0,1.01,1.01h8.583a2.946,2.946,0,0,0,1.745-.692l2.821-2.655a2.681,2.681,0,0,0,.735-1.7V3.787A1.013,1.013,0,0,0,56.758,2.777ZM42.874,3.787V17.418H41.107a.256.256,0,0,1-.252-.252V1.01a.256.256,0,0,1,.252-.252H53.981a.256.256,0,0,1,.252.252V2.777H43.884A1.013,1.013,0,0,0,42.874,3.787ZM56.513,17.054l-2.821,2.655a1.34,1.34,0,0,1-.216.158V17.545a.633.633,0,0,1,.631-.631h2.526A1.06,1.06,0,0,1,56.513,17.054Zm.5-1.15a1.178,1.178,0,0,1-.034.252H54.107a1.391,1.391,0,0,0-1.388,1.388v2.62a1.32,1.32,0,0,1-.252.031H43.884a.256.256,0,0,1-.252-.252V3.787c0-.137.252-.252.252-.252H56.758a.256.256,0,0,1,.252.252Z" transform="translate(-40.097)"/></g><g transform="translate(6.185 6.311)"><path d="M198.934,154.216h-7.321a.379.379,0,0,0,0,.757h7.321a.379.379,0,1,0,0-.757Z" transform="translate(-191.235 -154.216)"/></g><g transform="translate(6.185 11.36)"><path d="M198.934,277.59h-7.321a.379.379,0,1,0,0,.757h7.321a.379.379,0,1,0,0-.757Z" transform="translate(-191.235 -277.59)"/></g><g transform="translate(6.185 13.884)"><g transform="translate(0)"><path d="M195.654,339.277h-4.039a.379.379,0,0,0,0,.757h4.039a.379.379,0,0,0,0-.757Z" transform="translate(-191.236 -339.277)"/></g></g><g transform="translate(6.185 8.835)"><path d="M198.934,215.9h-7.321a.379.379,0,0,0,0,.757h7.321a.379.379,0,0,0,0-.757Z" transform="translate(-191.235 -215.903)"/></g></g></g></svg>