<svg xmlns="http://www.w3.org/2000/svg" width="26" height="26" viewBox="0 0 26 26"><defs><style>.a{fill:#fff;}.b{fill:#fa0f00;}</style></defs><g transform="translate(-86.667 -346.816)"><rect class="a" width="26" height="26" rx="2" transform="translate(86.667 346.816)"/><g transform="translate(1354.667 1015.816)"><path class="b" d="M-1263-661.434a2.568,2.568,0,0,1,2.566-2.566h11.3a2.568,2.568,0,0,1,2.566,2.566v11.3a2.568,2.568,0,0,1-2.566,2.566h-11.3a2.568,2.568,0,0,1-2.566-2.566Z" transform="translate(0 0)"/><path class="b" d="M-1260.434-664h11.3a2.568,2.568,0,0,1,2.566,2.566v11.3a2.568,2.568,0,0,1-2.566,2.566h-11.3a2.568,2.568,0,0,1-2.566-2.566v-11.3A2.568,2.568,0,0,1-1260.434-664Z" transform="translate(0 0)"/><path class="a" d="M-1167.314-561.892c-.812-.841-3.023-.5-3.552-.437a9.377,9.377,0,0,1-1.5-1.965,9.044,9.044,0,0,0,.5-2.586c0-.779-.312-1.62-1.183-1.62a.91.91,0,0,0-.749.437,4.214,4.214,0,0,0,.374,3.3,22.461,22.461,0,0,1-1.528,3.552c-.9.375-2.806,1.245-2.961,2.182a.831.831,0,0,0,.25.779,1.18,1.18,0,0,0,.779.279c1.153,0,2.274-1.59,3.056-2.931a20.959,20.959,0,0,1,2.711-.716,4.3,4.3,0,0,0,2.836,1.216c.749,0,1.029-.312,1.121-.591A.811.811,0,0,0-1167.314-561.892Zm-.779.529c-.03.217-.312.437-.812.312a4.228,4.228,0,0,1-1.59-.812,6.709,6.709,0,0,1,1.965-.03C-1168.28-561.829-1168.03-561.672-1168.093-561.363Zm-5.2-6.421a.313.313,0,0,1,.25-.154c.279,0,.342.342.342.624a6.8,6.8,0,0,1-.375,1.932A3.383,3.383,0,0,1-1173.3-567.784Zm-.062,6.049a17.53,17.53,0,0,0,.716-1.745,7.831,7.831,0,0,0,1,1.278c0,.03-.969.217-1.715.467Zm-1.84,1.245c-.716,1.183-1.466,1.932-1.87,1.932a.421.421,0,0,1-.187-.062.234.234,0,0,1-.092-.279C-1177.257-559.335-1176.445-559.927-1175.2-560.489Z" transform="translate(-82.279 -92.362)"/></g></g></svg>