<svg xmlns="http://www.w3.org/2000/svg" width="27" height="27" viewBox="0 0 27 27"><defs><style>.a{fill:#fff;}.b{fill:#2c2f33;}.c{fill:#ffc03f;}</style></defs><g transform="translate(-86.78 -346.929)"><rect class="a" width="27" height="27" rx="2" transform="translate(86.78 346.929)"/><g transform="translate(77.03 336.428)"><g transform="translate(14.75 13.5)"><path class="a" d="M24.976,28.984l-1.363-2.179a5.106,5.106,0,0,0,2.723,0Z" transform="translate(-16.336 -14.992)"/><path class="a" d="M24.152,15.621h1.568a3.54,3.54,0,0,1,3.542,3.528v.323l-.735-1.059a.393.393,0,0,0-.546-.1.325.325,0,0,0-.056.047,4.385,4.385,0,0,1-5.981,0,.391.391,0,0,0-.554-.006.363.363,0,0,0-.05.059l-.7,1.021v-.283A3.527,3.527,0,0,1,24.152,15.621Z" transform="translate(-16.294 -14.832)"/><path class="a" d="M20.638,21.789v-.906l1.088-1.595a5.253,5.253,0,0,0,6.414,0l1.122,1.62V21.8a4.312,4.312,0,0,1-8.624,0Z" transform="translate(-16.294 -14.885)"/><path class="a" d="M17.021,30.914c0-1.62,1.964-3.009,3.678-3.131l1.467,3.3a.392.392,0,0,0,.517.2h0l.016-.007.28-.141.318.991L22.787,34.3H17.02Z" transform="translate(-16.242 -15.006)"/><path class="a" d="M32.88,34.294H27.1l-.495-2.173.341-.985.256.128a.391.391,0,0,0,.525-.175h0l.008-.016L29.2,27.782c1.715.127,3.678,1.52,3.678,3.131Z" transform="translate(-16.379 -15.006)"/><path class="b" d="M33.515,30.73c0-2.159-2.455-3.845-4.561-3.925l-1.073-.964a5.115,5.115,0,0,0,2.1-4.117V19.133a4.319,4.319,0,0,0-4.319-4.312H24.094a4.3,4.3,0,0,0-4.3,4.3h0v2.6a5.116,5.116,0,0,0,2.074,4.108l-1.08.972c-2.1.08-4.56,1.764-4.56,3.926V34.5a.392.392,0,0,0,.391.392H33.128a.392.392,0,0,0,.391-.392h0ZM24,32.307h1.734l.411,1.8H23.58Zm1.767-.785H23.977l-.3-.936,1.195-.6,1.218.607Zm-.9-2.71-1.362-2.179a5.106,5.106,0,0,0,2.723,0Zm.561.582,1.882-3.014,1.014.913-1.3,2.9ZM24.089,15.609h1.567A3.54,3.54,0,0,1,29.2,19.136v.324l-.735-1.06a.393.393,0,0,0-.546-.1.325.325,0,0,0-.056.047,4.386,4.386,0,0,1-5.982,0,.391.391,0,0,0-.553-.007.417.417,0,0,0-.05.06l-.7,1.021v-.291A3.528,3.528,0,0,1,24.09,15.61Zm-3.514,6.115v-.906l1.088-1.595a5.253,5.253,0,0,0,6.414,0l1.122,1.62v.889a4.312,4.312,0,0,1-8.624,0h0Zm1.853,4.656L24.31,29.39l-1.606.8-1.3-2.9ZM17.01,30.727c0-1.62,1.964-3.01,3.678-3.131l1.467,3.3a.392.392,0,0,0,.517.2h0l.016-.008.28-.14.318.99-.517,2.18H17Zm15.723,3.38H26.955l-.495-2.173.341-.985.256.128a.392.392,0,0,0,.525-.175h0l.008-.016,1.463-3.292c1.715.128,3.678,1.521,3.678,3.132Z" transform="translate(-16.231 -14.821)"/><path class="a" d="M24.108,32.561h1.734l.411,1.8H23.684Z" transform="translate(-16.337 -15.074)"/><path class="a" d="M25.877,31.743H24.085l-.3-.936,1.195-.6,1.218.608Z" transform="translate(-16.339 -15.04)"/><path class="c" d="M25.564,29.561l1.882-3.014,1.014.913-1.3,2.9Z" transform="translate(-16.364 -14.988)"/><path class="c" d="M22.5,26.547l1.882,3.011-1.606.8-1.3-2.9Z" transform="translate(-16.306 -14.988)"/></g></g></g></svg>