<svg xmlns="http://www.w3.org/2000/svg" xmlns:xlink="http://www.w3.org/1999/xlink" width="38" height="38" viewBox="0 0 38 38"><defs><style>.a{fill:#fff;}.b{fill:#101a20;}.c{filter:url(#a);}</style><filter id="a" x="0" y="0" width="38" height="38" filterUnits="userSpaceOnUse"><feOffset dy="3" input="SourceAlpha"/><feGaussianBlur stdDeviation="3" result="b"/><feFlood flood-opacity="0.102"/><feComposite operator="in" in2="b"/><feComposite in="SourceGraphic"/></filter></defs><g transform="translate(-338.244 -71.779)"><g transform="translate(347.244 77.779)"><g class="c" transform="matrix(1, 0, 0, 1, -9, -6)"><path class="a" d="M16.25,20H3.75A3.75,3.75,0,0,1,0,16.25V3.75A3.75,3.75,0,0,1,3.75,0h12.5A3.75,3.75,0,0,1,20,3.75v12.5A3.75,3.75,0,0,1,16.25,20Z" transform="translate(9 6)"/></g></g><g transform="translate(345.609 81.392)"><path class="b" d="M119.817.832a1.949,1.949,0,0,0-2.757,0l-7.728,7.728a.433.433,0,0,0-.111.191l-1.016,3.669a.433.433,0,0,0,.533.533l3.669-1.016a.433.433,0,0,0,.191-.111L120.325,4.1a1.951,1.951,0,0,0,0-2.757Zm-9.54,8.009L116.6,2.516l2.04,2.04-6.325,6.325Zm-.407.818,1.63,1.63-2.254.625Zm9.844-6.174-.459.459-2.04-2.04.46-.459a1.083,1.083,0,0,1,1.531,0l.508.508A1.084,1.084,0,0,1,119.713,3.484Zm0,0" transform="translate(-102.591 0)"/></g></g></svg>