<svg xmlns="http://www.w3.org/2000/svg" width="37.639" height="37.639" viewBox="0 0 37.639 37.639"><defs><style>.a{fill:#fff;}.b{fill:#e2ebff;}.c{fill:#b9ceff;}.d{fill:#597fd9;}</style></defs><g transform="translate(-20 -86)"><g transform="translate(20 86)"><circle class="a" cx="18.819" cy="18.819" r="18.819" transform="translate(0 0)"/><g transform="translate(0.999 -0.001)"><path class="b" d="M21.25,25.25H6.75v-3.5a3,3,0,0,1,3-3h8.5a3,3,0,0,1,3,3Z"/><circle class="b" cx="3.75" cy="3.75" r="3.75" transform="translate(10.25 7.75)"/><path class="b" d="M17.74,11.3C16.04,11.56,15,9.75,15,9.75a6.236,6.236,0,0,1-4.74,1.53,3.746,3.746,0,0,1,7.48.02Z"/><circle class="b" cx="5.75" cy="5.75" r="5.75" transform="translate(17.75 17.75)"/><path class="c" d="M20,23.5a5.75,5.75,0,0,1,4.625-5.638A5.75,5.75,0,1,0,23.5,29.25a5.715,5.715,0,0,0,1.125-.112A5.75,5.75,0,0,1,20,23.5Z"/><path class="c" d="M12,18.75H9.75a3,3,0,0,0-3,3v3.5H9v-3.5A3,3,0,0,1,12,18.75Z"/><path class="c" d="M12.5,11.5a3.737,3.737,0,0,1,2.625-3.559A3.707,3.707,0,0,0,14,7.75a3.75,3.75,0,0,0,0,7.5,3.707,3.707,0,0,0,1.125-.191A3.737,3.737,0,0,1,12.5,11.5Z"/><path class="c" d="M15.123,7.939A3.693,3.693,0,0,0,14,7.75a3.741,3.741,0,0,0-3.74,3.53,6.862,6.862,0,0,0,2.281-.2,3.722,3.722,0,0,1,2.582-3.138Z"/><path class="d" d="M17.4,12.076a3.467,3.467,0,0,1-2.527-1.255,7.2,7.2,0,0,1-4.682,1.206l.141-1.493A5.506,5.506,0,0,0,14.488,9.2a.75.75,0,0,1,1.162.175c.006.01.808,1.351,1.977,1.182l.227,1.482a3.013,3.013,0,0,1-.456.035Z"/><path class="d" d="M14,16a4.5,4.5,0,1,1,4.5-4.5A4.505,4.505,0,0,1,14,16Zm0-7.5a3,3,0,1,0,3,3A3,3,0,0,0,14,8.5Z"/><path class="d" d="M23.708,26.5H21.5V25h2.208a.387.387,0,0,0,0-.75h-.416a1.877,1.877,0,0,1,0-3.75H25.5V22H23.292a.387.387,0,0,0,0,.75h.416a1.877,1.877,0,0,1,0,3.75Z"/><path class="d" d="M22.75,19.5h1.5V22h-1.5Z"/><path class="d" d="M22.75,25h1.5v2.5h-1.5Z"/><path class="d" d="M23.5,30A6.5,6.5,0,1,1,30,23.5,6.508,6.508,0,0,1,23.5,30Zm0-11.5a5,5,0,1,0,5,5A5.006,5.006,0,0,0,23.5,18.5Z"/><path class="d" d="M15,26H6.75A.75.75,0,0,1,6,25.25v-3.5A3.755,3.755,0,0,1,9.75,18h6.27v1.5H9.75A2.253,2.253,0,0,0,7.5,21.75V24.5H15Z"/></g></g></g></svg>