<svg xmlns="http://www.w3.org/2000/svg" width="30.002" height="30.831" viewBox="0 0 30.002 30.831">
  <path id="like" d="M.9,9.831a3.83,3.83,0,0,0-.9,2.6,4,4,0,0,0,.84,2.22,3.45,3.45,0,0,0,.82,4c1,.94,2.77,1.36,5.18,1.24a19.9,19.9,0,0,0,3.16-.46h0a5.365,5.365,0,0,0,1-.2,11.45,11.45,0,0,1-.81,3.75c-.9,2.75-.85,4.85.17,6.26a4.12,4.12,0,0,0,3.29,1.59,1.63,1.63,0,0,0,1.24-.57,4.31,4.31,0,0,0,.54-3.08c.85-2.28,3.24-7.88,5.26-9.44l.11-.09a6.91,6.91,0,0,0,1.26-1.9,2.6,2.6,0,0,0,1.28.33h3.94A2.69,2.69,0,0,0,30,13.431V2.941a2.7,2.7,0,0,0-2.68-2.69h-3.94a2.69,2.69,0,0,0-1.55.49l-1.52-.18a66.8,66.8,0,0,0-8.6-.47Q10.552,0,9.552,0a15.08,15.08,0,0,0-3,.27,5.59,5.59,0,0,0-4,2.49,4,4,0,0,0-.45,2.47,4.14,4.14,0,0,0-1.46,3.35A4.42,4.42,0,0,0,.9,9.831Zm26.42-7.84a1,1,0,0,1,.94,1v10.44a1,1,0,0,1-.94.94h-3.94a.94.94,0,0,1-.94-.94h0V2.941a.94.94,0,0,1,.94-.94h3.94Zm-24.77,8.64a.86.86,0,0,0,.12-1,2.47,2.47,0,0,1,.92-3.31.86.86,0,0,0,.29-1,2.25,2.25,0,0,1,.18-1.67,4,4,0,0,1,2.85-1.64,17.22,17.22,0,0,1,4.7-.14h.09a63.578,63.578,0,0,1,8.39.46h0l.65.08a2.76,2.76,0,0,0-.06.57v10.45a2.73,2.73,0,0,0,.13.8,5.43,5.43,0,0,1-1.19,2.2c-2.9,2.3-5.73,10-5.86,10.39a1,1,0,0,0,0,.43,4.08,4.08,0,0,1-.08,1.87,2.3,2.3,0,0,1-1.82-.87c-.66-.91-.63-2.54.08-4.69,1.08-3.29,1.17-5,.31-5.78a1.39,1.39,0,0,0-1.4-.25c-.4.09-.77.17-1.13.23h-.08c-2,.43-5.53.69-6.76-.43a1.85,1.85,0,0,1-.22-2.36.85.85,0,0,0-.16-1.14,2.53,2.53,0,0,1-.75-1.42,2.42,2.42,0,0,1,.8-1.78Z" transform="translate(0 0)" fill="#383838"/>
</svg>
