<svg id="Layer_2" data-name="Layer 2" xmlns="http://www.w3.org/2000/svg" viewBox="0 0 34.13 32"><defs><style>.cls-1{fill:#a8474f;}</style></defs><title>calendar</title><path class="cls-1" d="M29.23,2.13H25V1.07a1.07,1.07,0,0,0-2.14,0V2.13H12.17V1.07A1,1,0,0,0,11.1,0,1,1,0,0,0,10,1.07V2.13H5.77A5.29,5.29,0,0,0,.43,7.47v19.2A5.29,5.29,0,0,0,5.77,32H29.23a5.29,5.29,0,0,0,5.34-5.33V7.47a5.29,5.29,0,0,0-5.34-5.34ZM2.57,7.47a3.28,3.28,0,0,1,3.2-3.2H10V5.33A1,1,0,0,0,11.1,6.4a1,1,0,0,0,1.07-1.07V4.27H22.83V5.33a1.07,1.07,0,0,0,2.14,0V4.27h4.26a3.28,3.28,0,0,1,3.2,3.2v3.2H2.57V7.47Zm29.86,19.2a3.28,3.28,0,0,1-3.2,3.2H5.77a3.28,3.28,0,0,1-3.2-3.2V12.8H32.43Z" transform="translate(-0.43)"/><path class="cls-1" d="M7.9,26.67A1.94,1.94,0,0,0,9.39,26a2.07,2.07,0,0,0,0-3,2.06,2.06,0,0,0-3,0,1.92,1.92,0,0,0-.64,1.49A2.3,2.3,0,0,0,6.41,26,1.94,1.94,0,0,0,7.9,26.67Z" transform="translate(-0.43)"/><path class="cls-1" d="M7.9,20.27a1.94,1.94,0,0,0,1.49-.64,2.3,2.3,0,0,0,.64-1.5,2.3,2.3,0,0,0-.64-1.49,2.06,2.06,0,0,0-3,0,1.92,1.92,0,0,0-.64,1.49,1.94,1.94,0,0,0,.64,1.5A1.94,1.94,0,0,0,7.9,20.27Z" transform="translate(-0.43)"/><path class="cls-1" d="M14.3,26.67A1.94,1.94,0,0,0,15.79,26a2.07,2.07,0,0,0,0-3,2.06,2.06,0,0,0-3,0,2.07,2.07,0,0,0,0,3A1.94,1.94,0,0,0,14.3,26.67Z" transform="translate(-0.43)"/><path class="cls-1" d="M14.3,20.27a1.94,1.94,0,0,0,1.49-.64,2.3,2.3,0,0,0,.64-1.5,2.3,2.3,0,0,0-.64-1.49,2.06,2.06,0,0,0-3,0,2.3,2.3,0,0,0-.64,1.49,2.3,2.3,0,0,0,.64,1.5A1.94,1.94,0,0,0,14.3,20.27Z" transform="translate(-0.43)"/><path class="cls-1" d="M20.7,26.67a2.19,2.19,0,0,0,2.13-2.14A1.92,1.92,0,0,0,22.19,23a2.06,2.06,0,0,0-3,0,2.07,2.07,0,0,0,0,3A1.94,1.94,0,0,0,20.7,26.67Z" transform="translate(-0.43)"/><path class="cls-1" d="M20.7,20.27a2.19,2.19,0,0,0,2.13-2.14,2.3,2.3,0,0,0-.64-1.49,2.06,2.06,0,0,0-3,0,2.3,2.3,0,0,0-.64,1.49,2.3,2.3,0,0,0,.64,1.5A1.94,1.94,0,0,0,20.7,20.27Z" transform="translate(-0.43)"/><path class="cls-1" d="M27.1,26.67A1.94,1.94,0,0,0,28.59,26a2.07,2.07,0,0,0,0-3,2.06,2.06,0,0,0-3,0A1.92,1.92,0,0,0,25,24.53a2.3,2.3,0,0,0,.64,1.5A1.94,1.94,0,0,0,27.1,26.67Z" transform="translate(-0.43)"/><path class="cls-1" d="M27.1,20.27a2.19,2.19,0,0,0,2.13-2.14,2.3,2.3,0,0,0-.64-1.49,2.06,2.06,0,0,0-3,0A2.3,2.3,0,0,0,25,18.13a2.3,2.3,0,0,0,.64,1.5A1.94,1.94,0,0,0,27.1,20.27Z" transform="translate(-0.43)"/></svg>