<svg xmlns="http://www.w3.org/2000/svg" xmlns:xlink="http://www.w3.org/1999/xlink" width="260.959" height="318" viewBox="0 0 260.959 318"><defs><style>.a,.ad,.n,.p,.q{fill:none;}.b{clip-path:url(#a);}.c{fill:#ebf1ff;}.d{fill:#bbcdf9;}.e{fill:#aec1fc;}.f{fill:#90a5fc;}.g{fill:#738ee5;}.h{fill:#fff;}.i{fill:#bdd4ff;}.j{fill:#bbdefb;opacity:0.1;}.k{opacity:0.39;}.l{fill:url(#b);}.m{fill:#1c163f;}.n,.p,.q{stroke:#fff;}.ad,.n,.p,.q{stroke-linecap:round;stroke-linejoin:round;}.n{stroke-width:0.395px;}.o{fill:#5172ed;}.p{stroke-width:0.477px;}.q{stroke-width:0.436px;}.r{fill:#2e2c60;}.s{fill:#232322;}.t{fill:#ffa689;}.u{fill:#4764cf;}.v{fill:#1b173d;}.w{fill:#0a0a0a;opacity:0.58;}.x{fill:#171032;}.y{fill:#ed8a6d;}.z{fill:#fcc8a3;}.aa{fill:#ff6b72;}.ab{fill:#ffafb6;}.ac{fill:#271f50;}.ad{stroke:#4764cf;stroke-width:0.75px;}.ae{fill:#060412;}.af{fill:#f6ebe6;}</style><clipPath id="a"><path class="a" d="M574.994,65.663H430.947c-.957,11.182-7.719,31.948-42.817,43.067-49.575,15.706-73.607,36.343-68.683,72.889s39.75,62.213,87.186,69.391,61.711,36.6,101.184,40.889c32.556,3.535,53.423-.84,71.959-11.082V70.444A4.781,4.781,0,0,0,574.994,65.663Z" transform="translate(-318.817 -65.663)"/></clipPath><radialGradient id="b" cx="0.5" cy="0.5" r="0.5" gradientUnits="objectBoundingBox"><stop offset="0" stop-color="#fff"/><stop offset="1" stop-color="#fff" stop-opacity="0"/></radialGradient></defs><g transform="translate(-334.15 -33)"><g transform="translate(334.15 65.663)"><g class="b"><g transform="translate(-85.383 -27.045)"><path class="c" d="M574.994,65.663H430.947c-.957,11.182-7.719,31.948-42.817,43.067-49.575,15.706-73.607,36.343-68.683,72.889s39.75,62.213,87.186,69.391,61.711,36.6,101.184,40.889c32.556,3.535,53.423-.84,71.959-11.082V70.444A4.781,4.781,0,0,0,574.994,65.663Z" transform="translate(-233.434 -38.618)"/><g transform="translate(135.649 82.051)"><path class="d" d="M529.568,168.232l-25.916,8.046-19.911-11.849a.534.534,0,0,1,.115-.968h0a17.115,17.115,0,0,1,7.461-.6Z" transform="translate(-405.27 -141.992)"/><path class="e" d="M490.667,162.7,509.34,173.81l19.161-5.949-35.6-5A16.95,16.95,0,0,0,490.667,162.7Z" transform="translate(-406.849 -141.994)"/><path class="f" d="M420.194,188.368l-.33.1a9.83,9.83,0,0,1-7.355-.619l-24.041-12.174a4.224,4.224,0,0,0-3.161-.266l-1.671.519a.561.561,0,0,0-.35.755l8.693,20.442,1.265,2.942,27.895-8.66Z" transform="translate(-383.241 -144.746)"/><path class="g" d="M447.863,192.775l106.634-33.1a85.222,85.222,0,0,0,17.532-7.695l14.027-8.146a2.959,2.959,0,0,0,.562-.423h0a2.957,2.957,0,0,0-1.673-5.066l-15.7-2a21.967,21.967,0,0,0-9.3.811l-163.6,50.792a1.863,1.863,0,0,0-.942.664h0a1.869,1.869,0,0,0,.916,2.9l2.836.925A80.3,80.3,0,0,0,447.863,192.775Z" transform="translate(-385.831 -136.162)"/><path class="h" d="M440.89,188.873l118.235-36.707a94.449,94.449,0,0,0,19.439-8.532l7.938-4.61a2.919,2.919,0,0,0-1.555-.684l-15.7-2a21.967,21.967,0,0,0-9.3.811l-163.6,50.792a1.859,1.859,0,0,0-.977,2.84A89.036,89.036,0,0,0,440.89,188.873Z" transform="translate(-385.832 -136.162)"/><path class="e" d="M611.607,141.3l12.611-3.915-7.861-1.031-5.733,1.78a1.657,1.657,0,0,0-1.092,2.075h0A1.658,1.658,0,0,0,611.607,141.3Z" transform="translate(-432.955 -136.204)"/><g transform="translate(76.646 9.003)"><rect class="e" width="2.438" height="2.438" rx="0.894" transform="translate(86.025 2.328) rotate(162.75)"/><rect class="e" width="2.438" height="2.438" rx="0.894" transform="matrix(-0.955, 0.296, -0.296, -0.955, 79.11, 4.475)"/><rect class="e" width="2.438" height="2.438" rx="0.894" transform="translate(72.196 6.621) rotate(162.753)"/><rect class="e" width="2.438" height="2.438" rx="0.894" transform="matrix(-0.955, 0.296, -0.296, -0.955, 65.281, 8.768)"/><rect class="e" width="2.438" height="2.438" rx="0.894" transform="translate(58.367 10.915) rotate(162.75)"/><rect class="e" width="2.438" height="2.438" rx="0.894" transform="translate(51.452 13.061) rotate(162.75)"/><rect class="e" width="2.438" height="2.438" rx="0.894" transform="matrix(-0.955, 0.296, -0.296, -0.955, 44.538, 15.208)"/><rect class="e" width="2.438" height="2.438" rx="0.894" transform="matrix(-0.955, 0.296, -0.296, -0.955, 37.623, 17.355)"/><rect class="e" width="2.438" height="2.438" rx="0.894" transform="matrix(-0.955, 0.296, -0.296, -0.955, 30.709, 19.501)"/><rect class="e" width="2.438" height="2.438" rx="0.894" transform="translate(23.794 21.648) rotate(162.75)"/><rect class="e" width="2.438" height="2.438" rx="0.894" transform="translate(16.88 23.795) rotate(162.75)"/><rect class="e" width="2.438" height="2.438" rx="0.894" transform="matrix(-0.955, 0.296, -0.296, -0.955, 9.965, 25.941)"/><rect class="e" width="2.438" height="2.438" rx="0.894" transform="matrix(-0.955, 0.296, -0.296, -0.955, 3.051, 28.088)"/></g><path class="d" d="M541.261,168.18l-39.906,12.389-14.664,31.81a1.112,1.112,0,0,0,1.339,1.527l.972-.3a18.915,18.915,0,0,0,7.172-4.119Z" transform="translate(-405.952 -143.199)"/><path class="e" d="M497.251,210.046a1.162,1.162,0,0,0-.1.553c.463-.351.914-.719,1.344-1.113l45.087-41.306-31.548,9.794Z" transform="translate(-408.274 -143.199)"/><path class="f" d="M407.713,200.2l-14.045,4.361-5.529,11.994,2.606-.809Z" transform="translate(-384.317 -150.235)"/></g><g transform="translate(71.108 34.99)"><path class="h" d="M404.552,153.28c.808-1.494,3.024-2.57,5.639-2.57a9.013,9.013,0,0,1,2.062.239,4.182,4.182,0,0,1,2.278-2.229c.7-3.373,5.2-5.978,10.674-5.978,4.125,0,7.706,1.482,9.517,3.657a9.864,9.864,0,0,1,3.4-.584c3.765,0,6.816,1.95,6.816,4.355a2.861,2.861,0,0,1-.062.561q.3-.02.613-.02c2.615,0,4.83,1.076,5.639,2.57Z" transform="translate(-323.383 -90.547)"/><path class="h" d="M300.521,184.28c.808-1.494,3.024-2.57,5.639-2.57a9.015,9.015,0,0,1,2.062.239,4.181,4.181,0,0,1,2.278-2.229c.7-3.373,5.2-5.978,10.675-5.978,4.125,0,7.706,1.482,9.517,3.657a9.857,9.857,0,0,1,3.4-.584c3.765,0,6.817,1.95,6.817,4.355a2.809,2.809,0,0,1-.063.561q.3-.02.613-.02c2.615,0,4.831,1.076,5.639,2.57Z" transform="translate(-300.521 -97.36)"/><path class="h" d="M544.138,203.637c.807-1.495,3.024-2.571,5.639-2.571a9.017,9.017,0,0,1,2.062.239,4.185,4.185,0,0,1,2.278-2.229c.7-3.373,5.2-5.977,10.675-5.977,4.125,0,7.706,1.482,9.517,3.656a9.882,9.882,0,0,1,3.4-.584c3.765,0,6.817,1.95,6.817,4.355a2.812,2.812,0,0,1-.063.561q.3-.02.614-.02c2.614,0,4.83,1.076,5.639,2.571Z" transform="translate(-354.06 -101.614)"/><path class="h" d="M551.253,137.124c-.82-1.518-3.07-2.609-5.722-2.609a9.142,9.142,0,0,0-2.093.243,4.245,4.245,0,0,0-2.312-2.262c-.708-3.423-5.281-6.066-10.832-6.066-4.187,0-7.819,1.5-9.658,3.71a10.022,10.022,0,0,0-3.45-.592c-3.82,0-6.917,1.979-6.917,4.419a2.821,2.821,0,0,0,.064.569q-.308-.02-.623-.02c-2.654,0-4.9,1.092-5.722,2.609Z" transform="translate(-345.236 -86.962)"/><path class="h" d="M557.363,85.258c.645-1.193,2.415-2.052,4.5-2.052a7.2,7.2,0,0,1,1.647.19,3.339,3.339,0,0,1,1.819-1.78c.557-2.693,4.156-4.773,8.523-4.773,3.294,0,6.153,1.184,7.6,2.92a7.876,7.876,0,0,1,2.714-.467c3.006,0,5.443,1.557,5.443,3.478a2.26,2.26,0,0,1-.05.448q.241-.015.489-.016c2.088,0,3.858.859,4.5,2.052Z" transform="translate(-356.966 -76.065)"/><path class="h" d="M481.98,79.577a2.258,2.258,0,0,1,2-.91,3.219,3.219,0,0,1,.73.084,1.484,1.484,0,0,1,.807-.789c.247-1.195,1.843-2.117,3.779-2.117a4.439,4.439,0,0,1,3.37,1.294,3.511,3.511,0,0,1,1.2-.207c1.334,0,2.414.691,2.414,1.543a.986.986,0,0,1-.023.2c.072,0,.144-.007.217-.007a2.259,2.259,0,0,1,2,.91Z" transform="translate(-340.399 -75.846)"/><path class="h" d="M666.731,181.878c-.733-1.358-2.745-2.335-5.12-2.335a8.147,8.147,0,0,0-1.873.217,3.8,3.8,0,0,0-2.069-2.024c-.633-3.063-4.726-5.429-9.693-5.429-3.746,0-7,1.346-8.643,3.321a8.961,8.961,0,0,0-3.087-.531c-3.418,0-6.19,1.77-6.19,3.955a2.582,2.582,0,0,0,.057.509q-.275-.018-.557-.018c-2.374,0-4.386.977-5.12,2.335Z" transform="translate(-371.706 -97.045)"/></g><g transform="translate(76.243 188.704)"><rect class="i" width="312.087" height="55.956" transform="translate(0 20.645)"/><rect class="i" width="312.087" height="12.097"/></g><g transform="translate(0 14.906)"><rect class="j" width="274.658" height="234.078" transform="translate(71.684 12.139)"/><g class="k"><path class="h" d="M293.173,294.4H280.947L439.7,50.1h12.226Z" transform="translate(-225.111 -50.104)"/><path class="h" d="M550.953,294.4H538.727L697.479,50.1H709.7Z" transform="translate(-281.762 -50.104)"/><path class="h" d="M512.5,294.4H466.537L625.288,50.1h45.968Z" transform="translate(-265.897 -50.104)"/><path class="h" d="M255.352,294.4H209.384L368.136,50.1H414.1Z" transform="translate(-209.384 -50.104)"/></g></g><g transform="translate(51.017)"><rect class="h" width="6.715" height="258.236" transform="translate(89.243)"/><rect class="h" width="6.715" height="258.236" transform="translate(261.983)"/><rect class="h" width="6.874" height="357.94" transform="translate(357.94 64.03) rotate(90)"/></g></g></g></g><circle class="l" cx="93" cy="93" r="93" transform="translate(356.109 33)"/><g transform="translate(425.597 179.226)"><g transform="translate(1.926 1)"><ellipse class="c" cx="76.793" cy="5.193" rx="76.793" ry="5.193" transform="translate(0 160.387)"/></g><g transform="translate(-25.989 86.051)"><path class="m" d="M346.025,320.167c0,.509,2.773.921,6.193.921s6.193-.413,6.193-.921-2.773-.921-6.193-.921S346.025,319.658,346.025,320.167Z" transform="translate(-333.025 -288.793)"/><ellipse class="c" cx="11.634" cy="1.338" rx="11.634" ry="1.338" transform="translate(7.559 50.992)"/><g transform="translate(0)"><g transform="translate(0 14.692)"><path class="f" d="M378.956,304.273s1.284-3.863-.355-5.612.984-4.7-2.9-6.364-3.75-5.561-7.131-5.577-6.039-1.592-7.142-.1,4.023,2.219,4.034,4.754.511,2.776,1.9,4.357c.776.886.415,2.845,2.139,4.741C370.848,301.96,374.406,301.456,378.956,304.273Z" transform="translate(-361.27 -285.978)"/><path class="n" d="M379.81,304.988a13.422,13.422,0,0,0-5.346-5.933c-3.728-2.055-2.413-10.419-12.184-11.718" transform="translate(-362.124 -286.693)"/></g><g transform="translate(15.985)"><path class="o" d="M325.617,289.791a29.811,29.811,0,0,0-.567-9.971c-1.25-4.445.795-5.866,4.3-7.014s1.3-4.808,2.346-8.222,3.665,1.89,4.537-2.759,2.2-7.047,3.257-6.848,1.414,1.228,2.172,6.543,4.448,4.924,1.247,9.137-4.017,3.022-2.239,6.678C344.468,285.144,330.867,282.836,325.617,289.791Z" transform="translate(-324.681 -254.965)"/><path class="p" d="M334.051,289.8s1.743-9.3,6.77-13.889,8.359-9.5,7.1-20.926" transform="translate(-333.115 -254.978)"/></g><g transform="translate(18.671 17.794)"><path class="f" d="M315.54,308.8s5.457-14.461,9.214-13.547,4.134,1.106,7.557-1.633,5.913.251,3.295,2.443-2.71,2.391-.214,4.806-3.46,5.119-8.7,4.3S316.361,307.608,315.54,308.8Z" transform="translate(-315.54 -292.526)"/><path class="q" d="M315.551,310.432a13.71,13.71,0,0,1,9.45-6.768c6.892-1.392,3.67-5.937,11.7-8.041" transform="translate(-315.551 -294.156)"/></g></g><path class="r" d="M352.459,322.376c2.866,0,5.27-.29,5.977-.683-.7.91-2.954,4.961-4.288,20.542,0,.226-.756.409-1.689.409s-1.689-.183-1.689-.409c-1.334-15.581-3.586-19.633-4.288-20.542C347.188,322.086,349.593,322.376,352.459,322.376Z" transform="translate(-333.266 -290.081)"/></g><g transform="translate(3.645 -3.263)"><g transform="translate(0 0)"><path class="s" d="M2.077,0H7.4A2.078,2.078,0,0,1,9.479,2.078V14.854A2.078,2.078,0,0,1,7.4,16.932H2.078A2.078,2.078,0,0,1,0,14.854V2.077A2.077,2.077,0,0,1,2.077,0Z" transform="translate(32.237 79.057) rotate(135.004)"/><g transform="translate(52.491 32.19)"><g transform="translate(26.885 30.939)"><path class="t" d="M107.668,118.346a5.176,5.176,0,1,0,3.5-6.43A5.176,5.176,0,0,0,107.668,118.346Z" transform="translate(-100.52 -105.362)"/><path class="t" d="M121.658,117.844l-7.315-9.364,4.363-3.4,6.336,7.737Z" transform="translate(-114.343 -105.076)"/></g><path class="u" d="M145.5,113.4l6.484-5.535L139.146,90a3.978,3.978,0,0,0-.9-.9L120.254,72.743,115.571,79.2l17.47,15.969Z" transform="translate(-115.571 -72.743)"/></g><path class="t" d="M187.061,209.519l5.335-8.932-4.786-3.7-5.649,9.415Z" transform="translate(-167.022 -45.907)"/><path class="t" d="M114.842,207.818,111,196.785l-6.693,2.108,5.268,11Z" transform="translate(-15.163 -45.903)"/><path class="v" d="M177.684,113.354a153.8,153.8,0,0,0-15.463,44.029L145.37,194.29l7.379,6.38s20.256-24.059,20.916-43.288l13.96-25.581Z" transform="translate(-127.239 -42.304)"/><path class="w" d="M152.533,39.331s-.854.319-.5,2.136,2.884-1.428,2.884-1.428Z" transform="translate(-100.824 -39.112)"/><g transform="translate(41.856 0.927)"><path class="x" d="M161.55,44.07s-9.2-2.023-6.484,5.718c2.874,8.185,9.23,2.191,9.23,2.191Z" transform="translate(-154.564 -40.233)"/><path class="y" d="M149.124,71.135h0c2.391,0,5.051.058,5.051.058V52.347h-8.619V71.479A18.9,18.9,0,0,1,149.124,71.135Z" transform="translate(-135.825 -40.6)"/><path class="t" d="M141.7,51.925a9.366,9.366,0,1,0,9.367-9.366A9.366,9.366,0,0,0,141.7,51.925Z" transform="translate(-138.385 -40.178)"/><path class="t" d="M156.351,64.734h0a4.447,4.447,0,0,0,4.448-4.448v-6.41l-10.553-1.529v6.28A6.107,6.107,0,0,0,156.351,64.734Z" transform="translate(-146.933 -40.6)"/><path class="t" d="M162.08,54.533l-2.046,3.014a.738.738,0,0,0,.684,1.095l2.37.448Z" transform="translate(-158.496 -40.695)"/><path class="x" d="M151.815,54.936s-10.058-6.343-7.019-11.028c5.6-8.634,14.47,0,14.47,0Z" transform="translate(-139.64 -40.071)"/><path class="x" d="M140,42.559s8.471,1.837,7.022,7.645c-1.231,4.941-.462,3.943,2.053,6.091s3.122,3.686,1.151,10.864c.159,1.117,6.857,13.078-6.06,14.991-1.255.362.9-7.386-4.166-12.439-3.949-2.357-8.734-7.167-3.28-13.416,0,0,.289-4.869-3.284-5.53Z" transform="translate(-122.681 -40.178)"/><path class="z" d="M146.632,55.49a2.574,2.574,0,1,0,2.574-2.573A2.574,2.574,0,0,0,146.632,55.49Z" transform="translate(-134.457 -40.625)"/></g><g transform="translate(22.968 68.746)"><path class="t" d="M178.038,115.815a5.177,5.177,0,1,0,5.908,4.323A5.177,5.177,0,0,0,178.038,115.815Z" transform="translate(-173.655 -111.154)"/><path class="t" d="M165.56,116.949l10.255-6,2.793,4.779-8.512,5.248Z" transform="translate(-160.51 -110.947)"/></g><path class="aa" d="M143.466,54.388a4.823,4.823,0,1,0,4.823-4.823A4.823,4.823,0,0,0,143.466,54.388Z" transform="translate(-90.904 -39.553)"/><path class="aa" d="M150.306,50.773s.606-9.386-3.663-11.452l1.106-.158a5.137,5.137,0,0,1,2.962.4,3.916,3.916,0,0,1,1.324,1c1.37,1.682,2.669,5.37,1.768,10.21Z" transform="translate(-94.935 -39.102)"/><ellipse class="ab" cx="2.556" cy="2.556" rx="2.556" ry="2.556" transform="translate(55.275 12.47)"/><path class="o" d="M158.514,72s4.675,1.925,3.694,9.612-1.78,20.791-1.78,20.791h-15.4l-1.555-12.579a17.707,17.707,0,0,1-1.69-4.418,9.343,9.343,0,0,1,3.382-9.382l4.729-3.738S152.834,69.906,158.514,72Z" transform="translate(-98.307 -40.484)"/><path class="ac" d="M105.486,103.816l3.721,13.951s5.953,27.633,21.359,43.659l16.569,38.006,10.177-3.678s-4.138-28.629-17.377-41.786l-12.8-32.8s4.262-11.777-6.254-17.353Z" transform="translate(-58.763 -41.893)"/><path class="x" d="M120.709,206.837l2.159,5.169a1.186,1.186,0,0,1-.639,1.554L111.3,218.112H101.169a4.948,4.948,0,0,1,3.789-4.809l.8-.192a4.823,4.823,0,0,0,2.415-1.418l3.734-4.044a.715.715,0,0,1,.775-.188c1.23.468,4.777,1.53,6.845-.812A.7.7,0,0,1,120.709,206.837Z" transform="translate(-20.279 -46.318)"/><path class="x" d="M207.4,209.527l-2.542,4.991a1.188,1.188,0,0,1-1.6.519l-17.975-12.2.875-.913a4.945,4.945,0,0,1,6.117-.224l.665.486a4.831,4.831,0,0,0,2.645.924l5.5.229a.713.713,0,0,1,.643.47c.439,1.24,1.925,4.631,5.049,4.693A.7.7,0,0,1,207.4,209.527Z" transform="translate(-185.285 -46.074)"/><path class="o" d="M151.217,118.895l18.813-13.588a3.992,3.992,0,0,0,1.619-2.706l2.778-22.572A3.988,3.988,0,0,0,171,75.548h0a3.99,3.99,0,0,0-4.483,3.425l-2.551,20.87-17.423,12.584Z" transform="translate(-115.201 -40.672)"/></g><line class="ad" y1="14.275" x2="1.758" transform="translate(56.447 47.653)"/><path class="ad" d="M154.847,101.477,156.891,100l2.551-20.87" transform="translate(-108.124 -40.828)"/><g transform="translate(-217.134 -179.964)"><path class="r" d="M5.164,2.436,3.133,0,0,2.558,2.162,5.011A1.98,1.98,0,0,0,4.943,5.2h0A1.978,1.978,0,0,0,5.164,2.436Z" transform="translate(333.029 295.544) rotate(-164)"/><path class="r" d="M25.125,31.03,27.931,28.6,4.013,0,.945,2.553A2.623,2.623,0,0,0,.624,6.268L21.409,30.743A2.624,2.624,0,0,0,25.125,31.03Z" transform="translate(363.721 341.92) rotate(-164)"/><rect class="ae" width="42.302" height="1.593" transform="translate(326.621 296.18) rotate(-113.657)"/><path class="ae" d="M.78.478a2.121,2.121,0,1,1-.3,2.984A2.121,2.121,0,0,1,.78.478Z" transform="translate(311.269 258.531) rotate(-164)"/><path class="m" d="M49.383,43.755l-13.1,9.588a4.336,4.336,0,0,1-5.9-.726L1,17.275a4.337,4.337,0,0,1,.541-6.089L14.828,0Z" transform="translate(357.306 352.584) rotate(-164)"/><path class="ae" d="M.03,5.2A5.781,5.781,0,1,1,5.2,11.533,5.781,5.781,0,0,1,.03,5.2Z" transform="translate(348.025 353.361) rotate(-164)"/><path class="af" d="M.012,2.115a2.35,2.35,0,1,1,2.1,2.575A2.35,2.35,0,0,1,.012,2.115Z" transform="translate(345.673 349.118) rotate(-164)"/></g></g></g></g></svg>