<svg xmlns="http://www.w3.org/2000/svg" width="15.119" height="15.116" viewBox="0 0 15.119 15.116"><defs><style>.a{fill:#fff;}.b{fill:#ffc03f;}.c{stroke:#000;stroke-width:0.1px;}</style></defs><g transform="translate(0.05 -0.399)"><path class="a" d="M206.554,155.425l-2.655.883.883-2.655Zm0,0" transform="translate(-196.841 -147.901)"/><path class="b" d="M236.13,12.218l-4.96,4.96L229.4,15.406l4.96-4.957Zm0,0" transform="translate(-221.458 -9.655)"/><g transform="translate(0 0.449)"><path class="c" d="M200.3.549a.343.343,0,0,0-.246-.1.357.357,0,0,0-.246.1l-4.957,4.957-.014.014-.007.007a.18.18,0,0,0-.024.031c-.007.01-.014.024-.021.035a.012.012,0,0,1,0,.007c0,.01-.01.021-.014.031s0,0,0,.007L193.887,8.3a.341.341,0,0,0,.083.353.348.348,0,0,0,.246.1.41.41,0,0,0,.111-.017l2.655-.886s0,0,.007,0a.124.124,0,0,0,.031-.014s.007,0,.01,0l.035-.021a.2.2,0,0,0,.031-.024s.007,0,.007-.007.01-.007.014-.014l4.96-4.957a.343.343,0,0,0,.1-.246.357.357,0,0,0-.1-.246Zm-5.542,7.31.488-1.468.98.979Zm2.108-.827L195.59,5.752l4.469-4.469,1.281,1.281Zm0,0" transform="translate(-187.158 -0.449)"/><path class="c" d="M12.33,72.18a.347.347,0,0,0-.346.346V79a1.041,1.041,0,0,1-1.038,1.038H1.731A1.041,1.041,0,0,1,.692,79V69.782a1.041,1.041,0,0,1,1.038-1.038H8.2a.346.346,0,1,0,0-.692H1.731A1.731,1.731,0,0,0,0,69.782V79a1.731,1.731,0,0,0,1.731,1.731h9.214A1.731,1.731,0,0,0,12.676,79V72.527A.347.347,0,0,0,12.33,72.18Zm0,0" transform="translate(0 -65.711)"/></g></g></svg>