<svg xmlns="http://www.w3.org/2000/svg" xmlns:xlink="http://www.w3.org/1999/xlink" width="45.86" height="44" viewBox="0 0 45.86 44"><defs><style>.a{fill:#e4fff4;}.b{fill:url(#a);}.c{fill:url(#d);}.d{fill:#414fe8;}.e{fill:#1c35d5;}.f{fill:#cfd2ff;}.g{fill:#6262f2;}.h{fill:#a3adf1;}.i{fill:#616ffc;}.j{filter:url(#e);}.k{filter:url(#b);}</style><linearGradient id="a" x1="0.084" y1="0.183" x2="0.881" y2="0.864" gradientUnits="objectBoundingBox"><stop offset="0" stop-color="#a5aeff"/><stop offset="1" stop-color="#5564fc"/></linearGradient><filter id="b" x="0" y="6" width="45.86" height="36.916" filterUnits="userSpaceOnUse"><feOffset dy="2" input="SourceAlpha"/><feGaussianBlur stdDeviation="2" result="c"/><feFlood flood-color="#5acfc7"/><feComposite operator="in" in2="c"/><feComposite in="SourceGraphic"/></filter><linearGradient id="d" x1="0.5" x2="0.5" y2="1" gradientUnits="objectBoundingBox"><stop offset="0" stop-color="#fff"/><stop offset="1" stop-color="#c9ceff"/></linearGradient><filter id="e" x="12.5" y="11.5" width="19.875" height="23.25" filterUnits="userSpaceOnUse"><feOffset dy="1" input="SourceAlpha"/><feGaussianBlur stdDeviation="0.5" result="f"/><feFlood flood-opacity="0.329"/><feComposite operator="in" in2="f"/><feComposite in="SourceGraphic"/></filter></defs><g transform="translate(1)"><rect class="a" width="44" height="44" rx="6"/><g transform="translate(4.852 9.704)"><g transform="translate(0 0)"><g class="k" transform="matrix(1, 0, 0, 1, -5.85, -9.7)"><path class="b" d="M12.458,0H21.4a12.458,12.458,0,0,1,0,24.916H12.458A12.458,12.458,0,1,1,12.458,0Z" transform="translate(6 10)"/></g></g><g transform="translate(6.148 2.296)"><g class="j" transform="matrix(1, 0, 0, 1, -12, -12)"><path class="c" d="M16.555,20.25H4.32A2.322,2.322,0,0,1,2,17.93V2.32A2.322,2.322,0,0,1,4.32,0H16.555a2.322,2.322,0,0,1,2.32,2.32V17.93A2.322,2.322,0,0,1,16.555,20.25Z" transform="translate(12 12)"/></g><path class="d" d="M16.18,21.016H5.633a.633.633,0,0,1,0-1.266H16.18a.633.633,0,0,1,0,1.266Z" transform="translate(-0.469 -5.617)"/><path class="d" d="M16.18,21.016H5.633a.633.633,0,0,1,0-1.266H16.18a.633.633,0,0,1,0,1.266Z" transform="translate(-0.469 -3.086)"/><path class="e" d="M13.667,12.219a4.216,4.216,0,0,1-7.2,2.981l2.981-2.981V8a4.222,4.222,0,0,1,4.219,4.219Z" transform="translate(-0.698 -4.625)"/><path class="f" d="M9.219,8v4.219L6.238,15.2A4.177,4.177,0,0,1,5,12.219,4.222,4.222,0,0,1,9.219,8Z" transform="translate(-0.469 -4.625)"/><path class="g" d="M9.448,13,6.467,15.981a4.212,4.212,0,0,0,6.194-.249h0Z" transform="translate(-0.698 -5.406)"/><path class="h" d="M5.452,10.75h0a4.212,4.212,0,0,0,.786,4.879l2.981-2.981Z" transform="translate(-0.469 -5.055)"/><g transform="translate(13.813 3.375)"><path class="i" d="M17.9,12.016H16.633a.633.633,0,0,1,0-1.266H17.9a.633.633,0,0,1,0,1.266Z" transform="translate(-16 -8.43)"/><path class="i" d="M17.9,9.266H16.633a.633.633,0,0,1,0-1.266H17.9a.633.633,0,0,1,0,1.266Z" transform="translate(-16 -8)"/><path class="i" d="M17.9,15.016H16.633a.633.633,0,0,1,0-1.266H17.9a.633.633,0,0,1,0,1.266Z" transform="translate(-16 -8.898)"/><path class="i" d="M17.9,17.766H16.633a.633.633,0,0,1,0-1.266H17.9a.633.633,0,0,1,0,1.266Z" transform="translate(-16 -9.328)"/></g></g></g></g></svg>