<svg xmlns="http://www.w3.org/2000/svg" width="20" height="20.001" viewBox="0 0 20 20.001">
  <path id="filter" d="M19.719,0H1.281A.781.781,0,0,0,.5.781a7.631,7.631,0,0,0,2.559,5.7L6.481,9.521A2.784,2.784,0,0,1,7.414,11.6v7.619a.782.782,0,0,0,1.215.65L13.238,16.8a.781.781,0,0,0,.348-.65V11.6a2.784,2.784,0,0,1,.934-2.079L17.941,6.48A7.631,7.631,0,0,0,20.5.781.781.781,0,0,0,19.719,0ZM16.9,5.312,13.482,8.353A4.348,4.348,0,0,0,12.023,11.6v4.128L8.977,17.759V11.6A4.348,4.348,0,0,0,7.519,8.353L4.1,5.312A6.069,6.069,0,0,1,2.113,1.562H18.887A6.067,6.067,0,0,1,16.9,5.312Zm0,0" transform="translate(-0.5 0)" fill="#fff"/>
</svg>
