<svg xmlns="http://www.w3.org/2000/svg" width="21.151" height="21.289" viewBox="0 0 21.151 21.289"><defs><style>.a{fill:#000;}</style></defs><g transform="translate(-0.956)"><path class="a" d="M153.189,15.513a.433.433,0,0,0-.613,0l-4.3,4.3V.433a.433.433,0,0,0-.866,0V19.809l-4.3-4.3a.433.433,0,1,0-.613.613l5.037,5.036a.433.433,0,0,0,.613,0l5.036-5.036A.433.433,0,0,0,153.189,15.513Z" transform="translate(-131.21)"/><path class="a" d="M1.389.866H14.4A.433.433,0,1,0,14.4,0H1.389a.433.433,0,1,0,0,.866Z" transform="translate(0)"/><path class="a" d="M1.389,71.094H14.4a.433.433,0,1,0,0-.866H1.389a.433.433,0,1,0,0,.866Z" transform="translate(0 -65.157)"/><path class="a" d="M1.389,141.322H14.4a.433.433,0,1,0,0-.866H1.389a.433.433,0,1,0,0,.866Z" transform="translate(0 -130.315)"/><path class="a" d="M9.872,210.685H1.389a.433.433,0,1,0,0,.866H9.872a.433.433,0,1,0,0-.866Z" transform="translate(0 -195.473)"/><path class="a" d="M9.872,280.912H1.389a.433.433,0,1,0,0,.866H9.872a.433.433,0,1,0,0-.866Z" transform="translate(0 -260.629)"/></g></svg>