<svg xmlns="http://www.w3.org/2000/svg" width="23.056" height="23.05" viewBox="0 0 23.056 23.05"><defs><style>.a{fill:#fff;}</style></defs><g transform="translate(-93.944 -92.95)"><g transform="translate(93.944 92.95)"><g transform="translate(0)"><path class="a" d="M29.7,22.313h0a.822.822,0,0,0-.761.514.844.844,0,0,0-.02.1.8.8,0,0,0-.042.207.779.779,0,0,0,.032.161.948.948,0,0,0,.031.152.839.839,0,0,0,.18.268.81.81,0,0,0,.271.179.709.709,0,0,0,.123.025.837.837,0,0,0,.187.036h0a.831.831,0,0,0,.177-.035.875.875,0,0,0,.134-.027.833.833,0,0,0,.271-.182.823.823,0,0,0-.584-1.4Z" transform="translate(-11.934 -14.54)"/><path class="a" d="M38.431,27.828l-.095-.032V19.118a2.375,2.375,0,0,0-2.374-2.372H33.03a2.376,2.376,0,0,0-2.375,2.372v8.6H24.792V25.884h1.662a2.378,2.378,0,0,0,2.375-2.375V19.118a2.377,2.377,0,0,0-2.375-2.372h-7.32a2.376,2.376,0,0,0-2.374,2.372v4.391a2.377,2.377,0,0,0,2.374,2.375h1.652v1.839H18.754a2.008,2.008,0,0,0-.624,3.918l.095.032v7.579a.545.545,0,0,0,.545.545H21.7a.545.545,0,0,0,.543-.545v-.919h12.08v.919a.545.545,0,0,0,.545.545H37.8a.545.545,0,0,0,.545-.545V31.667l.095-.034a2.01,2.01,0,0,0-.008-3.806Zm-6.677-8.71a1.289,1.289,0,0,1,1.285-1.286h2.933a1.291,1.291,0,0,1,1.286,1.286v2.019h-5.5Zm0,3.105h5.5v5.5h-5.5ZM19.133,24.8a1.289,1.289,0,0,1-1.285-1.287V19.118a1.289,1.289,0,0,1,1.285-1.286h7.32a1.29,1.29,0,0,1,1.285,1.286v4.391A1.291,1.291,0,0,1,26.454,24.8Zm4.581,1.088v1.839h-1.84V25.884ZM21.152,38.7h-1.84V31.739h1.84Zm13.172-1.463H22.24v-5.5H34.324ZM37.252,38.7H35.415V31.739h1.837Zm.545-8.051H18.769a.92.92,0,0,1,0-1.84H37.8a.92.92,0,1,1,0,1.84Z" transform="translate(-16.743 -16.746)"/></g></g></g></svg>