<svg xmlns="http://www.w3.org/2000/svg" width="25.001" height="25" viewBox="0 0 25.001 25"><defs><style>.a{fill:#545454;}</style></defs><path class="a" d="M403.218,470.127v3.32a3.911,3.911,0,0,1-3.906,3.906H382.123a3.911,3.911,0,0,1-3.906-3.906v-3.32a.977.977,0,1,1,1.953,0v3.32a1.955,1.955,0,0,0,1.953,1.953h17.188a1.955,1.955,0,0,0,1.953-1.953v-3.32a.977.977,0,0,1,1.953,0Zm-14.527,2.457a2.926,2.926,0,0,0,4.15,0l4.448-4.474a1.909,1.909,0,0,0-1.348-3.256h-7.147a.977.977,0,0,0,0,1.953h7.036l-4.374,4.4a.973.973,0,0,1-1.38,0l-4.374-4.4h4.088a1.955,1.955,0,0,0,1.953-1.953V453.331a.977.977,0,1,0-1.953,0v11.523h-4.2a1.909,1.909,0,0,0-1.348,3.256Zm0,0" transform="translate(-378.217 -452.354)"/></svg>