<svg xmlns="http://www.w3.org/2000/svg" width="24" height="24" viewBox="0 0 24 24">
  <g id="Group_8691" data-name="Group 8691" transform="translate(-341 -77)">
    <rect id="Rectangle_1731" data-name="Rectangle 1731" width="24" height="24" rx="4" transform="translate(341 77)" fill="#fff"/>
    <g id="download_1_" data-name="download (1)" transform="translate(342.777 78.488)">
      <g id="Group_8561" data-name="Group 8561" transform="translate(4.223 3.511)">
        <g id="Group_8466" data-name="Group 8466" transform="translate(0 12.302)">
          <path id="Path_34935" data-name="Path 34935" d="M155.521,353.876H144.976a.879.879,0,0,1,0-1.758h10.545a.879.879,0,0,1,0,1.758Z" transform="translate(-144.097 -352.118)" fill="#05adb3"/>
        </g>
        <g id="Group_8467" data-name="Group 8467" transform="translate(5.272)">
          <path id="Path_34936" data-name="Path 34936" d="M240.976,134.709a.879.879,0,0,1-.879-.879V129a.879.879,0,1,1,1.757,0v4.833A.879.879,0,0,1,240.976,134.709Z" transform="translate(-240.097 -128.118)" fill="#05adb3"/>
        </g>
        <g id="Group_8468" data-name="Group 8468" transform="translate(1.318 5.272)">
          <path id="Path_34937" data-name="Path 34937" d="M172.309,229.573l-3.954-3.954a.879.879,0,0,1,1.243-1.243l3.333,3.333,3.333-3.333a.879.879,0,1,1,1.243,1.243l-3.954,3.954A.879.879,0,0,1,172.309,229.573Z" transform="translate(-168.097 -224.118)" fill="#05adb3"/>
        </g>
      </g>
    </g>
  </g>
</svg>
