<svg xmlns="http://www.w3.org/2000/svg" width="10.686" height="16.385" viewBox="0 0 10.686 16.385"><path d="M74.33,2.85H71.124V.356A.356.356,0,0,0,70.768,0h-2.85a.356.356,0,0,0-.356.356V2.85H64.356A.356.356,0,0,0,64,3.206V16.029a.356.356,0,0,0,.356.356H74.33a.356.356,0,0,0,.356-.356V3.206A.356.356,0,0,0,74.33,2.85ZM68.274.712h2.137V4.987H68.274Zm5.7,14.96H64.712V14.248h9.261Zm0-2.137H64.712V3.562h2.85V5.343a.356.356,0,0,0,.356.356h2.85a.356.356,0,0,0,.356-.356V3.562h2.85Z" transform="translate(-64 0)"/><g transform="translate(2.85 7.124)"><g transform="translate(0)"><path d="M132.63,160h-4.274a.356.356,0,0,0-.356.356v4.274a.356.356,0,0,0,.356.356h4.274a.356.356,0,0,0,.356-.356v-4.274A.356.356,0,0,0,132.63,160Zm-.356,4.274h-3.562v-3.562h3.562Z" transform="translate(-128 -160)"/></g></g></svg>