<svg xmlns="http://www.w3.org/2000/svg" width="9.99" height="12.981" viewBox="0 0 9.99 12.981"><defs><style>.a{fill:#0ea2c8;}</style></defs><g transform="translate(-59 0)"><path class="a" d="M68.432,4.031S64.959.557,64.959.557A1.9,1.9,0,0,0,63.614,0H59V12.981h9.99V5.375A1.9,1.9,0,0,0,68.432,4.031ZM65.516,2.19,66.8,3.474H65.516Zm2.713,10.031H59.761V.761h3.854A1.142,1.142,0,0,1,64.755,1.9V4.234h2.333a1.142,1.142,0,0,1,1.141,1.141Z"/><path class="a" d="M194,377h4.665v.761H194Z" transform="translate(-131.577 -367.441)"/><path class="a" d="M194,317h4.665v.761H194Z" transform="translate(-131.577 -308.963)"/><path class="a" d="M194,257h4.665v.761H194Z" transform="translate(-131.577 -250.484)"/><path class="a" d="M134,257h.761v.761H134Z" transform="translate(-73.098 -250.484)"/><path class="a" d="M134,317h.761v.761H134Z" transform="translate(-73.098 -308.963)"/><path class="a" d="M134,377h.761v.761H134Z" transform="translate(-73.098 -367.441)"/></g></svg>