<svg xmlns="http://www.w3.org/2000/svg" width="18.029" height="23.939" viewBox="0 0 18.029 23.939"><defs><style>.a{fill:#fff;}</style></defs><g transform="translate(4.75)"><path class="a" d="M158.214,152.673a2.587,2.587,0,1,0-2.589-2.584A2.587,2.587,0,0,0,158.214,152.673Zm0-4.172a1.588,1.588,0,1,1-1.588,1.588A1.588,1.588,0,0,1,158.214,148.5Zm0,0" transform="translate(-153.95 -141.59)"/><path class="a" d="M121.5,305.117h6.951a.5.5,0,0,0,.5-.5,4.153,4.153,0,0,0-1.162-2.94,3.954,3.954,0,0,0-5.629,0,4.154,4.154,0,0,0-1.162,2.94A.5.5,0,0,0,121.5,305.117Zm1.377-2.739a2.95,2.95,0,0,1,4.2,0,3.079,3.079,0,0,1,.842,1.738h-5.879A3.062,3.062,0,0,1,122.878,302.378Zm0,0" transform="translate(-120.712 -288.461)"/><path class="a" d="M10.775,1.7H6.268V.5a.5.5,0,0,0-.5-.5h-3a.5.5,0,0,0-.5.5V1.7H-2.246a2.505,2.505,0,0,0-2.5,2.5V21.435a2.505,2.505,0,0,0,2.5,2.5H10.775a2.505,2.505,0,0,0,2.5-2.5V4.207A2.505,2.505,0,0,0,10.775,1.7ZM3.263,1h2V3h-2Zm9.015,20.433a1.507,1.507,0,0,1-1.5,1.5H-2.246a1.507,1.507,0,0,1-1.5-1.5V4.207a1.507,1.507,0,0,1,1.5-1.5H2.261v.8a.5.5,0,0,0,.5.5h3a.5.5,0,0,0,.5-.5V2.7h4.507a1.507,1.507,0,0,1,1.5,1.5Zm0,0"/><path class="a" d="M83.838,505H73a.5.5,0,1,0,0,1H83.843a.5.5,0,1,0-.005-1Zm0,0" transform="translate(-74.155 -484.767)"/><path class="a" d="M135.5,450a.5.5,0,1,0,0,1h5.834a.5.5,0,1,0,0-1Zm0,0" transform="translate(-134.151 -431.971)"/></g></svg>