<svg xmlns="http://www.w3.org/2000/svg" width="54" height="54" viewBox="0 0 54 54"><defs><style>.a{fill:#fff;}.b{fill:#ccc9c8;}.c{fill:#f2d4ca;}.d{fill:#ffc03f;}.e{fill:#eaaa73;}.f{fill:#2c2f33;}.g{fill:none;}.h{fill:#737981;}</style></defs><g transform="translate(-20 -91)"><rect class="a" width="54" height="54" rx="6" transform="translate(20 91)"/><path class="b" d="M33.115,84.316H32.7A4.586,4.586,0,0,0,28.117,88.9v1.774l.386-.608.006-.01a.412.412,0,0,1,.34-.184h.021c.228,0,3.832-.091,5.5-2.393a.419.419,0,0,1,.748.155c0,.019.464,1.91,1.951,2.248l.015,0,.033.01.009,0,.022.008.018.009.019.01.022.013.013.008.019.015.011.009.018.016.012.012.014.016.014.016.012.016.381.543V88.9a4.586,4.586,0,0,0-4.581-4.581Z" transform="translate(4.295 31.042)"/><path class="c" d="M25.053,114.33l-.077.015-.048.061a.416.416,0,0,1-.314.16l-.078,0-.057.053a1.172,1.172,0,0,0,.618,2.021l.241.037v-2.392l-.249.037-.036.006Z" transform="translate(7.394 7.914)"/><path class="c" d="M44.822,141.615h-.795a4.1,4.1,0,0,1-.749-.07l-.248-.046v1.328l1.375,1.339,1.413-1.466v-1.2l-.247.046a4.121,4.121,0,0,1-.749.07Z" transform="translate(-7.214 -13.085)"/><path class="c" d="M69.559,114.577l-.052-.045-.069-.006a.413.413,0,0,1-.282-.143l-.046-.053-.068-.015L69,114.307l-.249-.048v2.4l.247-.045a1.172,1.172,0,0,0,.559-2.037Z" transform="translate(-27.064 7.935)"/><path class="c" d="M38.586,103.17l-.125-.247-.2.188a8.409,8.409,0,0,1-4.88,1.923l-.191.016v2.715a3.248,3.248,0,0,0,3.245,3.244h.795a3.248,3.248,0,0,0,3.244-3.244v-2.8l-.13-.053a3.564,3.564,0,0,1-1.753-1.739Z" transform="translate(0.383 16.683)"/><path class="d" d="M27.446,150.032l-.023-.008L23.862,148.6,22,150.526a.421.421,0,0,1-.3.128.416.416,0,0,1-.292-.119l-1.8-1.756a.484.484,0,0,1-.034-.038l-.1-.119-3.58,1.4-.021.008a3.679,3.679,0,0,0-2.279,3.587v3.206H29.727v-3.206a3.7,3.7,0,0,0-2.281-3.588Z" transform="translate(15.502 -18.561)"/><path class="b" d="M146.459,28.489h6.24l-3.12-3.12-3.12-3.12v6.24Z" transform="translate(-87.029 78.939)"/><path class="a" d="M74.569,33.439H59.6a.628.628,0,1,1,0-1.256H74.569a.628.628,0,1,1,0,1.256Zm0,4.3H59.6a.628.628,0,1,1,0-1.256H74.569a.628.628,0,1,1,0,1.256Zm0,4.3H59.6a.628.628,0,1,1,0-1.256H74.569a.628.628,0,1,1,0,1.256Zm0,4.3H59.6a.628.628,0,1,1,0-1.256H74.569a.628.628,0,1,1,0,1.256ZM59.6,27.88h9.908a.628.628,0,1,1,0,1.256H59.6a.628.628,0,1,1,0-1.256Zm13.852-1.137a.628.628,0,0,1-.628-.628V18.359H52.668V32.4A5.635,5.635,0,0,1,57.688,38v1.667a2.219,2.219,0,0,1-1.3,4.01,4.31,4.31,0,0,1-2.085,2.6v.8l3.647,1.463a4.752,4.752,0,0,1,2.976,4.574v2.495H81.21V26.743Z" transform="translate(-14.651 81.941)"/><path class="e" d="M51.442,141.616h.787V141.5l-.247.046a4.152,4.152,0,0,1-.644.068l.105,0Z" transform="translate(-13.624 -13.086)"/><path class="f" d="M27.214,51.368V48.9a4.756,4.756,0,0,0-2.979-4.578l-3.648-1.463a.006.006,0,0,1,0-.006v-.795a.006.006,0,0,1,0-.005,4.312,4.312,0,0,0,2.083-2.6.006.006,0,0,1,.006,0,2.221,2.221,0,0,0,1.3-4.011.005.005,0,0,1,0,0V33.76a5.641,5.641,0,0,0-5.021-5.6.006.006,0,0,1-.005-.006V14.121a.006.006,0,0,1,.006-.006H39.1a.006.006,0,0,1,.006.006v7.744a.634.634,0,0,0,.634.634h7.744a.006.006,0,0,1,.006.006V51.362a.006.006,0,0,1-.006.006Zm-9.1-6.751-1.161-1.131a.006.006,0,0,1,0,0V42.5a.006.006,0,0,1,.007-.006,4.3,4.3,0,0,0,.782.073h.8a4.282,4.282,0,0,0,.782-.073.006.006,0,0,1,.007.006v.859l-1.21,1.256ZM14.7,38.274V35.753a.006.006,0,0,1,.005-.006,8.687,8.687,0,0,0,5-1.974.006.006,0,0,1,.009,0,3.754,3.754,0,0,0,1.856,1.832.006.006,0,0,1,0,.005v2.656a3.045,3.045,0,0,1-3.045,3.045h-.789A3.042,3.042,0,0,1,14.7,38.274Zm-2.077-1.054a.964.964,0,0,1,.311-.708l0,0a.625.625,0,0,0,.468-.238l.038.012v1.882a.007.007,0,0,1-.008.007.968.968,0,0,1-.813-.953Zm10.206-.95.037.007a.625.625,0,0,0,.424.216.965.965,0,0,1-.453,1.676.007.007,0,0,1-.008-.006V36.27Zm-4.91-6.888h.411a4.383,4.383,0,0,1,4.383,4.383v1.022l0-.006L22.7,34.76l-.02-.023-.021-.023-.02-.019-.025-.022-.021-.017-.027-.02-.023-.015-.028-.017-.028-.014-.026-.012-.035-.014-.022-.008-.04-.011-.016,0c-1.368-.311-1.8-2.08-1.8-2.1a.63.63,0,0,0-.744-.477.67.67,0,0,0-.4.276c-1.663,2.258-5.273,2.281-5.324,2.281h0c-.022,0-.043,0-.064,0l-.018,0-.044.007-.028.007-.032.008-.033.012-.025.009-.038.018-.017.008-.038.023-.014.008-.035.026-.013.01-.032.029-.013.012c-.01.01-.019.02-.028.03l-.013.014-.024.032-.012.016-.011.018V33.76a4.382,4.382,0,0,1,4.377-4.377ZM40.36,15l1.964,1.964h0l.5.5,2.16,2.16h0L46.56,21.2l.04.04H40.366a.006.006,0,0,1-.006-.006V15Zm8.383,6.847c0-.007,0-.014,0-.021a.62.62,0,0,0-.01-.079h0a.622.622,0,0,0-.021-.078l-.007-.019a.607.607,0,0,0-.031-.071l0,0a.6.6,0,0,0-.043-.069l-.013-.017a.617.617,0,0,0-.054-.063l-4.846-4.846-3.539-3.538a.649.649,0,0,0-.063-.055l-.017-.012a.658.658,0,0,0-.069-.043l0,0a.618.618,0,0,0-.07-.031l-.02-.007a.646.646,0,0,0-.077-.021h0a.609.609,0,0,0-.076-.01H18.325a.634.634,0,0,0-.634.634V28.127a.006.006,0,0,1-.006.006,5.639,5.639,0,0,0-5.4,5.627v1.66a.006.006,0,0,1,0,0,2.221,2.221,0,0,0,1.307,4.018h.016A4.315,4.315,0,0,0,15.7,42.049a.006.006,0,0,1,0,.005v.791a.006.006,0,0,1,0,.006l-3.743,1.466A4.756,4.756,0,0,0,8.97,48.9v3.119a.635.635,0,0,0,.635.635h2.73a.655.655,0,0,0,.668-.6.628.628,0,0,0-.627-.656H10.232a.006.006,0,0,1-.006-.006V48.9A3.474,3.474,0,0,1,12.367,45.5l.029-.011,3.441-1.348a.612.612,0,0,0,.05.056l1.807,1.76a.623.623,0,0,0,.439.176h0a.621.621,0,0,0,.443-.19l1.764-1.831a.006.006,0,0,1,.007,0l3.431,1.376.034.012A3.488,3.488,0,0,1,25.958,48.9v2.492a.006.006,0,0,1-.006.006H11.98a.655.655,0,0,0-.668.6.628.628,0,0,0,.627.656H26.586a.624.624,0,0,0,.174-.025H48.11a.634.634,0,0,0,.634-.634V21.871c0-.007,0-.014,0-.021Z" transform="translate(19.07 86.185)"/><rect class="g" width="39.774" height="39.79" transform="translate(28.04 99.044)"/><path class="h" d="M80.913,61.316h9.908a.628.628,0,1,0,0-1.256H80.913a.628.628,0,1,0,0,1.256Z" transform="translate(-35.963 49.76)"/><path class="h" d="M95.881,78.908H80.913a.628.628,0,1,0,0,1.256H95.881a.628.628,0,1,0,0-1.256Z" transform="translate(-35.963 35.215)"/><path class="h" d="M95.881,97.756H80.913a.628.628,0,0,0,0,1.256H95.881a.628.628,0,1,0,0-1.256Z" transform="translate(-35.963 20.671)"/><path class="h" d="M95.881,116.605H80.913a.628.628,0,0,0,0,1.256H95.881a.628.628,0,1,0,0-1.256Z" transform="translate(-35.963 6.125)"/><path class="h" d="M95.881,135.453H80.913a.628.628,0,0,0,0,1.256H95.881a.628.628,0,1,0,0-1.256Z" transform="translate(-35.963 -8.42)"/></g></svg>