<svg xmlns="http://www.w3.org/2000/svg" width="37.639" height="37.639" viewBox="0 0 37.639 37.639"><defs><style>.a{fill:#fff;}.b{fill:#f5ecff;}.c{fill:#ecdcff;}.d{fill:#a175e9;}.e{fill:#a173e8;}</style></defs><g transform="translate(-20 -86)"><g transform="translate(20 86)"><circle class="a" cx="18.819" cy="18.819" r="18.819" transform="translate(0 0)"/><g transform="translate(0.999 0.999)"><path class="b" d="M18.9,7.839l1.969-.895a2.167,2.167,0,0,1,2.926,1.212l.76,2.025a2.168,2.168,0,0,0,1.268,1.268l2.025.76a2.167,2.167,0,0,1,1.212,2.926l-.9,1.969a2.166,2.166,0,0,0,0,1.793l.9,1.969a2.167,2.167,0,0,1-1.212,2.926l-2.025.76a2.168,2.168,0,0,0-1.268,1.268l-.76,2.025a2.167,2.167,0,0,1-2.926,1.212l-1.969-.9a2.166,2.166,0,0,0-1.793,0l-1.969.9a2.167,2.167,0,0,1-2.926-1.212l-.76-2.025a2.168,2.168,0,0,0-1.268-1.268l-2.025-.76a2.167,2.167,0,0,1-1.212-2.926L7.839,18.9a2.166,2.166,0,0,0,0-1.793l-.895-1.969a2.167,2.167,0,0,1,1.212-2.926l2.025-.76a2.168,2.168,0,0,0,1.268-1.268l.76-2.025a2.167,2.167,0,0,1,2.926-1.212l1.969.895A2.166,2.166,0,0,0,18.9,7.839Z"/><path class="c" d="M14.459,27.843l-.76-2.025a2.168,2.168,0,0,0-1.268-1.268l-2.025-.76a2.167,2.167,0,0,1-1.212-2.926l.9-1.969a2.166,2.166,0,0,0,0-1.793l-.9-1.969a2.167,2.167,0,0,1,1.212-2.926l2.025-.76A2.168,2.168,0,0,0,13.7,10.179l.76-2.025a2.141,2.141,0,0,1,.93-1.1l-.254-.115a2.167,2.167,0,0,0-2.926,1.212l-.76,2.025a2.168,2.168,0,0,1-1.268,1.268l-2.025.76a2.167,2.167,0,0,0-1.212,2.926L7.839,17.1a2.166,2.166,0,0,1,0,1.793l-.895,1.969a2.167,2.167,0,0,0,1.212,2.926l2.025.76a2.168,2.168,0,0,1,1.268,1.268l.76,2.025a2.167,2.167,0,0,0,2.926,1.212l.254-.115a2.15,2.15,0,0,1-.93-1.1Z"/><path class="d" d="M14.238,30a2.913,2.913,0,0,1-2.731-1.892l-.76-2.024a1.418,1.418,0,0,0-.829-.83l-2.025-.76a2.917,2.917,0,0,1-1.63-3.939l.895-1.968a1.42,1.42,0,0,0,0-1.173l-.894-1.969a2.916,2.916,0,0,1,1.631-3.938l2.024-.76a1.418,1.418,0,0,0,.83-.829l.76-2.025a2.917,2.917,0,0,1,3.939-1.63l1.968.895a1.428,1.428,0,0,0,1.173,0l1.969-.895A2.916,2.916,0,0,1,24.5,7.893l.76,2.024a1.418,1.418,0,0,0,.829.83l2.025.76a2.917,2.917,0,0,1,1.63,3.939l-.9,1.968a1.42,1.42,0,0,0,0,1.173l.894,1.969a2.916,2.916,0,0,1-1.631,3.938l-2.024.76a1.418,1.418,0,0,0-.83.829l-.76,2.025a2.917,2.917,0,0,1-3.939,1.63l-1.968-.9a1.42,1.42,0,0,0-1.173,0l-1.969.894A2.9,2.9,0,0,1,14.238,30Zm0-22.5a1.422,1.422,0,0,0-1.328.921l-.76,2.025a2.917,2.917,0,0,1-1.707,1.707l-2.024.76a1.417,1.417,0,0,0-.793,1.913L8.522,16.8a2.911,2.911,0,0,1,0,2.413l-.895,1.969a1.418,1.418,0,0,0,.793,1.914l2.025.76a2.917,2.917,0,0,1,1.707,1.707l.76,2.024a1.417,1.417,0,0,0,1.913.793l1.969-.9a2.915,2.915,0,0,1,2.413,0l1.969.9a1.418,1.418,0,0,0,1.914-.793l.76-2.025a2.917,2.917,0,0,1,1.707-1.707l2.024-.76a1.417,1.417,0,0,0,.793-1.913l-.9-1.969a2.911,2.911,0,0,1,0-2.413l.9-1.969a1.418,1.418,0,0,0-.793-1.914l-2.025-.76a2.917,2.917,0,0,1-1.707-1.707l-.76-2.024a1.417,1.417,0,0,0-1.913-.793l-1.969.895a2.919,2.919,0,0,1-2.413,0l-1.969-.895a1.408,1.408,0,0,0-.586-.128Z"/><path class="e" d="M13.25,21H11V19.5h2.25a.25.25,0,0,0,.25-.25V15H15v4.25A1.752,1.752,0,0,1,13.25,21Z"/><path class="e" d="M18.25,21h-.5A1.752,1.752,0,0,1,16,19.25v-2.5A1.752,1.752,0,0,1,17.75,15h.5A1.752,1.752,0,0,1,20,16.75v2.5A1.752,1.752,0,0,1,18.25,21Zm-.5-4.5a.25.25,0,0,0-.25.25v2.5a.25.25,0,0,0,.25.25h.5a.25.25,0,0,0,.25-.25v-2.5a.25.25,0,0,0-.25-.25Z"/><path class="e" d="M23.13,21H21.75a.75.75,0,0,1-.75-.75v-4.5a.75.75,0,0,1,.75-.75h1.38a1.875,1.875,0,0,1,1.5,3,1.877,1.877,0,0,1-1.5,3Zm-.63-1.5h.63a.375.375,0,0,0,0-.75H22.5Zm0-2.25h.63a.375.375,0,0,0,0-.75H22.5Z"/></g></g></g></svg>