<svg xmlns="http://www.w3.org/2000/svg" xmlns:xlink="http://www.w3.org/1999/xlink" width="174.112" height="108.318" viewBox="0 0 174.112 108.318"><defs><style>.a{fill:url(#a);}.b{opacity:0.2;clip-path:url(#b);}.c{fill:#fff;}</style><linearGradient id="a" x2="1" y2="1" gradientUnits="objectBoundingBox"><stop offset="0" stop-color="#eb4886"/><stop offset="1" stop-color="#ba54a4"/></linearGradient><clipPath id="b"><rect class="a" width="174.112" height="108.318" rx="6" transform="translate(9 78)"/></clipPath></defs><g class="b" transform="translate(-9 -78)"><g transform="translate(90.038 78.306)"><path class="c" d="M-9.878.226-9.853.2-9.878.178-9.9.2Z" transform="translate(12.001 1.497)"/><circle class="c" cx="0.133" cy="0.133" r="0.133" transform="translate(6.35 1.567)"/><path class="c" d="M-8.947.668A.248.248,0,0,0-8.692.413.248.248,0,0,0-8.947.159.256.256,0,0,0-9.2.413.256.256,0,0,0-8.947.668Z" transform="translate(19.787 1.286)"/><circle class="c" cx="0.363" cy="0.363" r="0.363" transform="translate(14.841 1.337)"/><circle class="c" cx="0.484" cy="0.484" r="0.484" transform="translate(19.08 1.216)"/><path class="c" d="M-7.556,1.318A.594.594,0,0,0-6.962.724.594.594,0,0,0-7.556.131a.594.594,0,0,0-.593.593A.594.594,0,0,0-7.556,1.318Z" transform="translate(31.477 0.975)"/><circle class="c" cx="0.701" cy="0.701" r="0.701" transform="translate(27.583 0.998)"/><path class="c" d="M-6.647,1.713a.8.8,0,0,0,.8-.8.8.8,0,0,0-.8-.8.806.806,0,0,0-.8.8A.806.806,0,0,0-6.647,1.713Z" transform="translate(39.288 0.786)"/><circle class="c" cx="0.907" cy="0.907" r="0.907" transform="translate(36.098 0.793)"/><circle class="c" cx="0.991" cy="0.991" r="0.991" transform="translate(40.373 0.708)"/><path class="c" d="M-5.3,2.27A1.086,1.086,0,0,0-4.21,1.18,1.086,1.086,0,0,0-5.3.09,1.093,1.093,0,0,0-6.39,1.18,1.093,1.093,0,0,0-5.3,2.27Z" transform="translate(51.022 0.52)"/><circle class="c" cx="1.173" cy="1.173" r="1.173" transform="translate(48.912 0.527)"/><circle class="c" cx="1.245" cy="1.245" r="1.245" transform="translate(53.2 0.454)"/><circle class="c" cx="1.318" cy="1.318" r="1.318" transform="translate(57.487 0.382)"/><circle class="c" cx="1.378" cy="1.378" r="1.378" transform="translate(61.787 0.321)"/><path class="c" d="M-3.178,2.944A1.437,1.437,0,0,0-1.736,1.5,1.437,1.437,0,0,0-3.178.061,1.445,1.445,0,0,0-4.619,1.5,1.445,1.445,0,0,0-3.178,2.944Z" transform="translate(70.701 0.197)"/><path class="c" d="M-2.773,3.036a1.489,1.489,0,0,0,1.49-1.49A1.489,1.489,0,0,0-2.773.057a1.489,1.489,0,0,0-1.49,1.49A1.489,1.489,0,0,0-2.773,3.036Z" transform="translate(74.656 0.153)"/><circle class="c" cx="1.536" cy="1.536" r="1.536" transform="translate(74.71 0.164)"/><path class="c" d="M-1.975,3.2A1.571,1.571,0,0,0-.4,1.625,1.571,1.571,0,0,0-1.975.05,1.579,1.579,0,0,0-3.55,1.625,1.579,1.579,0,0,0-1.975,3.2Z" transform="translate(82.579 0.075)"/><circle class="c" cx="1.608" cy="1.608" r="1.608" transform="translate(83.358 0.092)"/><path class="c" d="M-1.2,3.315A1.636,1.636,0,0,0,.435,1.68,1.636,1.636,0,0,0-1.2.045,1.644,1.644,0,0,0-2.835,1.68,1.644,1.644,0,0,0-1.2,3.315Z" transform="translate(90.524 0.02)"/><path class="c" d="M-.829,3.338A1.649,1.649,0,0,0,.818,1.691,1.649,1.649,0,0,0-.829.044,1.649,1.649,0,0,0-2.476,1.691,1.649,1.649,0,0,0-.829,3.338Z" transform="translate(94.513 0.008)"/><circle class="c" cx="1.656" cy="1.656" r="1.656" transform="translate(96.39 0.043)"/><circle class="c" cx="0.024" cy="0.024" r="0.024" transform="translate(-0.081 6.036)"/><circle class="c" cx="0.133" cy="0.133" r="0.133" transform="translate(4.17 5.927)"/><path class="c" d="M-9.127,1.028A.248.248,0,0,0-8.872.773.248.248,0,0,0-9.127.519a.256.256,0,0,0-.254.254A.256.256,0,0,0-9.127,1.028Z" transform="translate(17.787 5.286)"/><path class="c" d="M-8.656,1.26A.377.377,0,0,0-8.28.884.377.377,0,0,0-8.656.509a.377.377,0,0,0-.375.375A.377.377,0,0,0-8.656,1.26Z" transform="translate(21.676 5.175)"/><circle class="c" cx="0.496" cy="0.496" r="0.496" transform="translate(16.888 5.564)"/><path class="c" d="M-7.724,1.7A.6.6,0,0,0-7.119,1.1.6.6,0,0,0-7.724.49.607.607,0,0,0-8.33,1.1.607.607,0,0,0-7.724,1.7Z" transform="translate(29.466 4.964)"/><circle class="c" cx="0.713" cy="0.713" r="0.713" transform="translate(25.391 5.346)"/><circle class="c" cx="0.822" cy="0.822" r="0.822" transform="translate(29.642 5.238)"/><path class="c" d="M-6.344,2.328A.933.933,0,0,0-5.412,1.4.933.933,0,0,0-6.344.463a.941.941,0,0,0-.933.933A.941.941,0,0,0-6.344,2.328Z" transform="translate(41.166 4.664)"/><path class="c" d="M-5.9,2.514A1.029,1.029,0,0,0-4.866,1.484,1.029,1.029,0,0,0-5.9.455,1.029,1.029,0,0,0-6.925,1.484,1.029,1.029,0,0,0-5.9,2.514Z" transform="translate(45.077 4.575)"/><circle class="c" cx="1.112" cy="1.112" r="1.112" transform="translate(42.432 4.947)"/><path class="c" d="M-5.009,2.862A1.215,1.215,0,0,0-3.8,1.651,1.215,1.215,0,0,0-5.009.44,1.215,1.215,0,0,0-6.22,1.651,1.215,1.215,0,0,0-5.009,2.862Z" transform="translate(52.911 4.409)"/><path class="c" d="M-4.582,3A1.284,1.284,0,0,0-3.3,1.718,1.284,1.284,0,0,0-4.582.434,1.292,1.292,0,0,0-5.866,1.718,1.292,1.292,0,0,0-4.582,3Z" transform="translate(56.845 4.342)"/><path class="c" d="M-4.156,3.141A1.354,1.354,0,0,0-2.8,1.784,1.354,1.354,0,0,0-4.156.428,1.354,1.354,0,0,0-5.512,1.784,1.354,1.354,0,0,0-4.156,3.141Z" transform="translate(60.778 4.275)"/><path class="c" d="M-3.729,3.28A1.432,1.432,0,0,0-2.3,1.851,1.432,1.432,0,0,0-3.729.422,1.432,1.432,0,0,0-5.158,1.851,1.432,1.432,0,0,0-3.729,3.28Z" transform="translate(64.712 4.209)"/><path class="c" d="M-3.313,3.4a1.489,1.489,0,0,0,1.49-1.49A1.489,1.489,0,0,0-3.313.417,1.489,1.489,0,0,0-4.8,1.907,1.489,1.489,0,0,0-3.313,3.4Z" transform="translate(68.656 4.153)"/><circle class="c" cx="1.548" cy="1.548" r="1.548" transform="translate(68.158 4.512)"/><circle class="c" cx="1.596" cy="1.596" r="1.596" transform="translate(72.47 4.464)"/><path class="c" d="M-2.1,3.675A1.636,1.636,0,0,0-.465,2.04,1.636,1.636,0,0,0-2.1.405,1.644,1.644,0,0,0-3.735,2.04,1.644,1.644,0,0,0-2.1,3.675Z" transform="translate(80.523 4.02)"/><circle class="c" cx="1.668" cy="1.668" r="1.668" transform="translate(81.118 4.391)"/><circle class="c" cx="1.693" cy="1.693" r="1.693" transform="translate(85.454 4.367)"/><path class="c" d="M-.942,3.838a1.719,1.719,0,0,0,1.72-1.72A1.719,1.719,0,0,0-.942.4a1.726,1.726,0,0,0-1.72,1.72A1.726,1.726,0,0,0-.942,3.838Z" transform="translate(92.446 3.942)"/><circle class="c" cx="1.729" cy="1.729" r="1.729" transform="translate(94.138 4.331)"/><circle class="c" cx="1.741" cy="1.741" r="1.741" transform="translate(98.486 4.319)"/><circle class="c" cx="0.024" cy="0.024" r="0.024" transform="translate(-2.261 10.396)"/><circle class="c" cx="0.133" cy="0.133" r="0.133" transform="translate(1.99 10.287)"/><path class="c" d="M-9.307,1.388a.248.248,0,0,0,.254-.254A.248.248,0,0,0-9.307.879a.256.256,0,0,0-.254.254A.256.256,0,0,0-9.307,1.388Z" transform="translate(15.787 9.287)"/><path class="c" d="M-8.836,1.62a.377.377,0,0,0,.375-.375A.377.377,0,0,0-8.836.869a.377.377,0,0,0-.375.375A.377.377,0,0,0-8.836,1.62Z" transform="translate(19.676 9.176)"/><circle class="c" cx="0.496" cy="0.496" r="0.496" transform="translate(14.708 9.924)"/><circle class="c" cx="0.617" cy="0.617" r="0.617" transform="translate(18.947 9.803)"/><path class="c" d="M-7.433,2.293a.729.729,0,0,0,.727-.727A.729.729,0,0,0-7.433.84a.729.729,0,0,0-.727.727A.729.729,0,0,0-7.433,2.293Z" transform="translate(31.355 8.853)"/><circle class="c" cx="0.834" cy="0.834" r="0.834" transform="translate(27.45 9.586)"/><path class="c" d="M-6.513,2.711a.946.946,0,0,0,.945-.945A.946.946,0,0,0-6.513.822a.946.946,0,0,0-.945.945A.946.946,0,0,0-6.513,2.711Z" transform="translate(39.155 8.653)"/><circle class="c" cx="1.04" cy="1.04" r="1.04" transform="translate(35.965 9.38)"/><circle class="c" cx="1.137" cy="1.137" r="1.137" transform="translate(40.228 9.283)"/><path class="c" d="M-5.167,3.269A1.241,1.241,0,0,0-3.931,2.033,1.241,1.241,0,0,0-5.167.8,1.241,1.241,0,0,0-6.4,2.033,1.241,1.241,0,0,0-5.167,3.269Z" transform="translate(50.889 8.387)"/><circle class="c" cx="1.318" cy="1.318" r="1.318" transform="translate(48.767 9.102)"/><circle class="c" cx="1.39" cy="1.39" r="1.39" transform="translate(53.055 9.03)"/><circle class="c" cx="1.463" cy="1.463" r="1.463" transform="translate(57.342 8.957)"/><circle class="c" cx="1.536" cy="1.536" r="1.536" transform="translate(61.63 8.884)"/><circle class="c" cx="1.596" cy="1.596" r="1.596" transform="translate(65.93 8.824)"/><path class="c" d="M-2.629,4.058A1.649,1.649,0,0,0-.982,2.411,1.649,1.649,0,0,0-2.629.764,1.649,1.649,0,0,0-4.276,2.411,1.649,1.649,0,0,0-2.629,4.058Z" transform="translate(74.512 8.009)"/><circle class="c" cx="1.693" cy="1.693" r="1.693" transform="translate(74.553 8.727)"/><circle class="c" cx="1.729" cy="1.729" r="1.729" transform="translate(78.877 8.691)"/><circle class="c" cx="1.753" cy="1.753" r="1.753" transform="translate(83.213 8.667)"/><path class="c" d="M-1.067,4.314a1.783,1.783,0,0,0,1.78-1.78A1.783,1.783,0,0,0-1.067.753a1.783,1.783,0,0,0-1.78,1.78A1.783,1.783,0,0,0-1.067,4.314Z" transform="translate(90.39 7.887)"/><circle class="c" cx="1.801" cy="1.801" r="1.801" transform="translate(91.885 8.618)"/><circle class="c" cx="1.801" cy="1.801" r="1.801" transform="translate(96.245 8.618)"/><circle class="c" cx="0.012" cy="0.012" r="0.012" transform="translate(-4.429 14.768)"/><circle class="c" cx="0.121" cy="0.121" r="0.121" transform="translate(-0.178 14.659)"/><path class="c" d="M-9.5,1.724a.243.243,0,0,0,.242-.242A.243.243,0,0,0-9.5,1.24a.243.243,0,0,0-.242.242A.243.243,0,0,0-9.5,1.724Z" transform="translate(13.798 13.298)"/><path class="c" d="M-9.016,1.98A.377.377,0,0,0-8.64,1.6a.377.377,0,0,0-.375-.375.377.377,0,0,0-.375.375A.377.377,0,0,0-9.016,1.98Z" transform="translate(17.676 13.176)"/><circle class="c" cx="0.496" cy="0.496" r="0.496" transform="translate(12.528 14.284)"/><circle class="c" cx="0.617" cy="0.617" r="0.617" transform="translate(16.767 14.164)"/><path class="c" d="M-7.613,2.653a.729.729,0,0,0,.727-.727A.729.729,0,0,0-7.613,1.2a.729.729,0,0,0-.727.727A.729.729,0,0,0-7.613,2.653Z" transform="translate(29.355 12.853)"/><circle class="c" cx="0.846" cy="0.846" r="0.846" transform="translate(25.258 13.934)"/><path class="c" d="M-6.682,3.095a.951.951,0,0,0,.957-.957.951.951,0,0,0-.957-.957.959.959,0,0,0-.957.957A.959.959,0,0,0-6.682,3.095Z" transform="translate(37.144 12.642)"/><circle class="c" cx="1.052" cy="1.052" r="1.052" transform="translate(33.772 13.728)"/><path class="c" d="M-5.773,3.489A1.163,1.163,0,0,0-4.611,2.327,1.163,1.163,0,0,0-5.773,1.164,1.163,1.163,0,0,0-6.936,2.327,1.163,1.163,0,0,0-5.773,3.489Z" transform="translate(44.955 12.453)"/><circle class="c" cx="1.245" cy="1.245" r="1.245" transform="translate(42.299 13.535)"/><circle class="c" cx="1.342" cy="1.342" r="1.342" transform="translate(46.563 13.438)"/><circle class="c" cx="1.415" cy="1.415" r="1.415" transform="translate(50.85 13.366)"/><path class="c" d="M-4.022,4.14a1.5,1.5,0,0,0,1.5-1.5,1.5,1.5,0,0,0-1.5-1.5,1.509,1.509,0,0,0-1.5,1.5A1.509,1.509,0,0,0-4.022,4.14Z" transform="translate(60.645 12.142)"/><path class="c" d="M-3.6,4.279A1.571,1.571,0,0,0-2.021,2.7,1.571,1.571,0,0,0-3.6,1.13,1.579,1.579,0,0,0-5.17,2.7,1.579,1.579,0,0,0-3.6,4.279Z" transform="translate(64.578 12.076)"/><path class="c" d="M-3.18,4.4A1.636,1.636,0,0,0-1.545,2.76,1.636,1.636,0,0,0-3.18,1.125,1.644,1.644,0,0,0-4.815,2.76,1.644,1.644,0,0,0-3.18,4.4Z" transform="translate(68.523 12.02)"/><circle class="c" cx="1.681" cy="1.681" r="1.681" transform="translate(68.025 13.1)"/><circle class="c" cx="1.729" cy="1.729" r="1.729" transform="translate(72.337 13.051)"/><path class="c" d="M-1.967,4.674a1.783,1.783,0,0,0,1.78-1.78,1.783,1.783,0,0,0-1.78-1.78,1.783,1.783,0,0,0-1.78,1.78A1.783,1.783,0,0,0-1.967,4.674Z" transform="translate(80.39 11.887)"/><circle class="c" cx="1.801" cy="1.801" r="1.801" transform="translate(80.985 12.979)"/><circle class="c" cx="1.826" cy="1.826" r="1.826" transform="translate(85.321 12.954)"/><path class="c" d="M-.82,4.813A1.853,1.853,0,0,0,1.033,2.96,1.853,1.853,0,0,0-.82,1.107,1.861,1.861,0,0,0-2.673,2.96,1.861,1.861,0,0,0-.82,4.813Z" transform="translate(92.324 11.82)"/><path class="c" d="M-.449,4.836A1.866,1.866,0,0,0,1.416,2.971,1.866,1.866,0,0,0-.449,1.106,1.866,1.866,0,0,0-2.314,2.971,1.866,1.866,0,0,0-.449,4.836Z" transform="translate(96.313 11.809)"/><circle class="c" cx="1.874" cy="1.874" r="1.874" transform="translate(98.353 12.906)"/><circle class="c" cx="0.097" cy="0.097" r="0.097" transform="translate(-2.334 19.043)"/><path class="c" d="M-9.689,2.061a.23.23,0,0,0,.23-.23.23.23,0,0,0-.23-.23.238.238,0,0,0-.23.23A.238.238,0,0,0-9.689,2.061Z" transform="translate(11.809 17.309)"/><circle class="c" cx="0.363" cy="0.363" r="0.363" transform="translate(6.12 18.778)"/><circle class="c" cx="0.484" cy="0.484" r="0.484" transform="translate(10.36 18.657)"/><path class="c" d="M-8.264,2.781a.6.6,0,0,0,.606-.606.6.6,0,0,0-.606-.606.607.607,0,0,0-.606.606A.607.607,0,0,0-8.264,2.781Z" transform="translate(23.465 16.965)"/><path class="c" d="M-7.793,3.013a.729.729,0,0,0,.727-.727.729.729,0,0,0-.727-.727.729.729,0,0,0-.727.727A.729.729,0,0,0-7.793,3.013Z" transform="translate(27.354 16.854)"/><circle class="c" cx="0.846" cy="0.846" r="0.846" transform="translate(23.078 18.294)"/><path class="c" d="M-6.862,3.455A.951.951,0,0,0-5.905,2.5a.951.951,0,0,0-.957-.957.959.959,0,0,0-.957.957A.959.959,0,0,0-6.862,3.455Z" transform="translate(35.144 16.642)"/><circle class="c" cx="1.064" cy="1.064" r="1.064" transform="translate(31.58 18.076)"/><path class="c" d="M-5.953,3.849A1.163,1.163,0,0,0-4.791,2.687,1.163,1.163,0,0,0-5.953,1.524,1.163,1.163,0,0,0-7.116,2.687,1.163,1.163,0,0,0-5.953,3.849Z" transform="translate(42.955 16.454)"/><circle class="c" cx="1.257" cy="1.257" r="1.257" transform="translate(40.107 17.883)"/><path class="c" d="M-5.056,4.221A1.354,1.354,0,0,0-3.7,2.864,1.354,1.354,0,0,0-5.056,1.508,1.354,1.354,0,0,0-6.412,2.864,1.354,1.354,0,0,0-5.056,4.221Z" transform="translate(50.778 16.276)"/><path class="c" d="M-4.618,4.384A1.437,1.437,0,0,0-3.176,2.942,1.437,1.437,0,0,0-4.618,1.5,1.445,1.445,0,0,0-6.059,2.942,1.445,1.445,0,0,0-4.618,4.384Z" transform="translate(54.7 16.198)"/><circle class="c" cx="1.523" cy="1.523" r="1.523" transform="translate(52.922 17.617)"/><circle class="c" cx="1.596" cy="1.596" r="1.596" transform="translate(57.209 17.544)"/><circle class="c" cx="1.656" cy="1.656" r="1.656" transform="translate(61.509 17.484)"/><path class="c" d="M-2.922,4.918A1.726,1.726,0,0,0-1.2,3.2a1.726,1.726,0,0,0-1.72-1.72A1.726,1.726,0,0,0-4.642,3.2,1.726,1.726,0,0,0-2.922,4.918Z" transform="translate(70.445 15.942)"/><path class="c" d="M-2.518,5.011A1.77,1.77,0,0,0-.749,3.242,1.77,1.77,0,0,0-2.518,1.474,1.778,1.778,0,0,0-4.286,3.242,1.778,1.778,0,0,0-2.518,5.011Z" transform="translate(74.401 15.898)"/><circle class="c" cx="1.814" cy="1.814" r="1.814" transform="translate(74.432 17.327)"/><path class="c" d="M-1.72,5.173A1.853,1.853,0,0,0,.133,3.32,1.853,1.853,0,0,0-1.72,1.467,1.861,1.861,0,0,0-3.573,3.32,1.861,1.861,0,0,0-1.72,5.173Z" transform="translate(82.323 15.82)"/><circle class="c" cx="1.874" cy="1.874" r="1.874" transform="translate(83.092 17.266)"/><circle class="c" cx="1.898" cy="1.898" r="1.898" transform="translate(87.428 17.242)"/><path class="c" d="M-.584,5.289A1.918,1.918,0,0,0,1.329,3.376,1.918,1.918,0,0,0-.584,1.462,1.918,1.918,0,0,0-2.5,3.376,1.918,1.918,0,0,0-.584,5.289Z" transform="translate(94.268 15.765)"/><path class="c" d="M-.213,5.312A1.923,1.923,0,0,0,1.712,3.387,1.923,1.923,0,0,0-.213,1.461,1.931,1.931,0,0,0-2.139,3.387,1.931,1.931,0,0,0-.213,5.312Z" transform="translate(98.257 15.754)"/><circle class="c" cx="0.073" cy="0.073" r="0.073" transform="translate(-4.49 23.428)"/><circle class="c" cx="0.206" cy="0.206" r="0.206" transform="translate(-0.263 23.295)"/><circle class="c" cx="0.339" cy="0.339" r="0.339" transform="translate(3.965 23.162)"/><path class="c" d="M-8.938,2.862a.46.46,0,0,0,.46-.46.46.46,0,0,0-.46-.46.46.46,0,0,0-.46.46A.46.46,0,0,0-8.938,2.862Z" transform="translate(17.599 21.098)"/><path class="c" d="M-8.456,3.118a.594.594,0,0,0,.593-.593.594.594,0,0,0-.593-.593.594.594,0,0,0-.593.593A.594.594,0,0,0-8.456,3.118Z" transform="translate(21.476 20.976)"/><circle class="c" cx="0.713" cy="0.713" r="0.713" transform="translate(16.67 22.787)"/><circle class="c" cx="0.834" cy="0.834" r="0.834" transform="translate(20.91 22.666)"/><path class="c" d="M-7.053,3.791a.946.946,0,0,0,.945-.945A.946.946,0,0,0-7.053,1.9.946.946,0,0,0-8,2.847.946.946,0,0,0-7.053,3.791Z" transform="translate(33.155 20.654)"/><circle class="c" cx="1.052" cy="1.052" r="1.052" transform="translate(29.412 22.449)"/><path class="c" d="M-6.133,4.209A1.163,1.163,0,0,0-4.971,3.047,1.163,1.163,0,0,0-6.133,1.884,1.163,1.163,0,0,0-7.3,3.047,1.163,1.163,0,0,0-6.133,4.209Z" transform="translate(40.955 20.454)"/><circle class="c" cx="1.27" cy="1.27" r="1.27" transform="translate(37.915 22.231)"/><path class="c" d="M-5.236,4.581A1.354,1.354,0,0,0-3.879,3.224,1.354,1.354,0,0,0-5.236,1.868,1.354,1.354,0,0,0-6.592,3.224,1.354,1.354,0,0,0-5.236,4.581Z" transform="translate(48.778 20.276)"/><circle class="c" cx="1.451" cy="1.451" r="1.451" transform="translate(46.454 22.05)"/><circle class="c" cx="1.536" cy="1.536" r="1.536" transform="translate(50.729 21.965)"/><circle class="c" cx="1.608" cy="1.608" r="1.608" transform="translate(55.017 21.892)"/><circle class="c" cx="1.681" cy="1.681" r="1.681" transform="translate(59.305 21.82)"/><circle class="c" cx="1.741" cy="1.741" r="1.741" transform="translate(63.604 21.759)"/><path class="c" d="M-2.675,5.417A1.788,1.788,0,0,0-.883,3.625,1.788,1.788,0,0,0-2.675,1.832,1.8,1.8,0,0,0-4.468,3.625,1.8,1.8,0,0,0-2.675,5.417Z" transform="translate(72.379 19.876)"/><path class="c" d="M-2.271,5.51A1.84,1.84,0,0,0-.43,3.669,1.84,1.84,0,0,0-2.271,1.828,1.84,1.84,0,0,0-4.112,3.669,1.84,1.84,0,0,0-2.271,5.51Z" transform="translate(76.334 19.832)"/><circle class="c" cx="1.874" cy="1.874" r="1.874" transform="translate(76.552 21.626)"/><path class="c" d="M-1.484,5.649A1.918,1.918,0,0,0,.429,3.736,1.918,1.918,0,0,0-1.484,1.822,1.918,1.918,0,0,0-3.4,3.736,1.918,1.918,0,0,0-1.484,5.649Z" transform="translate(84.268 19.765)"/><path class="c" d="M-1.1,5.7A1.944,1.944,0,0,0,.836,3.758,1.944,1.944,0,0,0-1.1,1.82,1.944,1.944,0,0,0-3.04,3.758,1.944,1.944,0,0,0-1.1,5.7Z" transform="translate(88.246 19.743)"/><circle class="c" cx="1.959" cy="1.959" r="1.959" transform="translate(89.548 21.542)"/><path class="c" d="M-.338,5.789A1.987,1.987,0,0,0,1.649,3.8,1.987,1.987,0,0,0-.338,1.816,2,2,0,0,0-2.324,3.8,2,2,0,0,0-.338,5.789Z" transform="translate(96.202 19.698)"/><path class="c" d="M.011,5.789a1.986,1.986,0,1,0,0-3.973,1.986,1.986,0,0,0,0,3.973Z" transform="translate(100.213 19.698)"/><circle class="c" cx="0.048" cy="0.048" r="0.048" transform="translate(-6.646 27.812)"/><circle class="c" cx="0.181" cy="0.181" r="0.181" transform="translate(-2.419 27.679)"/><path class="c" d="M-9.611,2.944A.313.313,0,0,0-9.3,2.629a.313.313,0,0,0-.315-.315.321.321,0,0,0-.315.315A.321.321,0,0,0-9.611,2.944Z" transform="translate(11.732 25.232)"/><circle class="c" cx="0.435" cy="0.435" r="0.435" transform="translate(6.048 27.425)"/><circle class="c" cx="0.568" cy="0.568" r="0.568" transform="translate(10.275 27.292)"/><circle class="c" cx="0.689" cy="0.689" r="0.689" transform="translate(14.514 27.171)"/><path class="c" d="M-7.716,3.9A.812.812,0,0,0-6.9,3.084a.812.812,0,0,0-.811-.811.812.812,0,0,0-.811.811A.812.812,0,0,0-7.716,3.9Z" transform="translate(27.277 24.776)"/><path class="c" d="M-7.244,4.128A.933.933,0,0,0-6.312,3.2a.933.933,0,0,0-.933-.933.941.941,0,0,0-.933.933A.941.941,0,0,0-7.244,4.128Z" transform="translate(31.166 24.665)"/><circle class="c" cx="1.04" cy="1.04" r="1.04" transform="translate(27.244 26.821)"/><path class="c" d="M-6.313,4.569A1.163,1.163,0,0,0-5.151,3.407,1.163,1.163,0,0,0-6.313,2.244,1.163,1.163,0,0,0-7.476,3.407,1.163,1.163,0,0,0-6.313,4.569Z" transform="translate(38.955 24.454)"/><circle class="c" cx="1.257" cy="1.257" r="1.257" transform="translate(35.747 26.603)"/><path class="c" d="M-5.416,4.941A1.354,1.354,0,0,0-4.059,3.584,1.354,1.354,0,0,0-5.416,2.228,1.354,1.354,0,0,0-6.772,3.584,1.354,1.354,0,0,0-5.416,4.941Z" transform="translate(46.778 24.276)"/><circle class="c" cx="1.451" cy="1.451" r="1.451" transform="translate(44.274 26.41)"/><circle class="c" cx="1.536" cy="1.536" r="1.536" transform="translate(48.549 26.325)"/><circle class="c" cx="1.62" cy="1.62" r="1.62" transform="translate(52.825 26.24)"/><circle class="c" cx="1.693" cy="1.693" r="1.693" transform="translate(57.113 26.168)"/><circle class="c" cx="1.753" cy="1.753" r="1.753" transform="translate(61.412 26.107)"/><circle class="c" cx="1.814" cy="1.814" r="1.814" transform="translate(65.712 26.047)"/><path class="c" d="M-2.429,5.916A1.866,1.866,0,0,0-.564,4.051,1.866,1.866,0,0,0-2.429,2.186,1.866,1.866,0,0,0-4.294,4.051,1.866,1.866,0,0,0-2.429,5.916Z" transform="translate(74.312 23.809)"/><circle class="c" cx="1.898" cy="1.898" r="1.898" transform="translate(74.348 25.962)"/><path class="c" d="M-1.642,6.056A1.944,1.944,0,0,0,.3,4.118,1.944,1.944,0,0,0-1.642,2.18,1.944,1.944,0,0,0-3.58,4.118,1.944,1.944,0,0,0-1.642,6.056Z" transform="translate(82.246 23.743)"/><circle class="c" cx="1.971" cy="1.971" r="1.971" transform="translate(82.995 25.89)"/><circle class="c" cx="2.007" cy="2.007" r="2.007" transform="translate(87.319 25.854)"/><circle class="c" cx="2.043" cy="2.043" r="2.043" transform="translate(91.643 25.817)"/><path class="c" d="M-.1,6.288A2.057,2.057,0,0,0,1.957,4.229,2.057,2.057,0,0,0-.1,2.17,2.047,2.047,0,0,0-2.149,4.229,2.047,2.047,0,0,0-.1,6.288Z" transform="translate(98.146 23.632)"/><circle class="c" cx="0.024" cy="0.024" r="0.024" transform="translate(-8.802 32.197)"/><circle class="c" cx="0.145" cy="0.145" r="0.145" transform="translate(-4.563 32.076)"/><path class="c" d="M-9.824,3.234a.274.274,0,0,0,.279-.279.274.274,0,0,0-.279-.279.282.282,0,0,0-.279.279A.282.282,0,0,0-9.824,3.234Z" transform="translate(9.765 29.265)"/><circle class="c" cx="0.411" cy="0.411" r="0.411" transform="translate(3.892 31.81)"/><path class="c" d="M-8.871,3.722a.538.538,0,0,0,.533-.533.538.538,0,0,0-.533-.533.538.538,0,0,0-.533.533A.538.538,0,0,0-8.871,3.722Z" transform="translate(17.532 29.032)"/><path class="c" d="M-8.389,3.977a.664.664,0,0,0,.666-.666.664.664,0,0,0-.666-.666.672.672,0,0,0-.666.666A.672.672,0,0,0-8.389,3.977Z" transform="translate(21.41 28.91)"/><circle class="c" cx="0.786" cy="0.786" r="0.786" transform="translate(16.598 31.435)"/><circle class="c" cx="0.907" cy="0.907" r="0.907" transform="translate(20.837 31.314)"/><path class="c" d="M-6.976,4.674A1.029,1.029,0,0,0-5.946,3.644,1.029,1.029,0,0,0-6.976,2.615,1.029,1.029,0,0,0-8.005,3.644,1.029,1.029,0,0,0-6.976,4.674Z" transform="translate(33.077 28.576)"/><circle class="c" cx="1.137" cy="1.137" r="1.137" transform="translate(29.328 31.084)"/><circle class="c" cx="1.245" cy="1.245" r="1.245" transform="translate(33.579 30.975)"/><circle class="c" cx="1.342" cy="1.342" r="1.342" transform="translate(37.842 30.879)"/><path class="c" d="M-5.158,5.464A1.437,1.437,0,0,0-3.716,4.022,1.437,1.437,0,0,0-5.158,2.581,1.445,1.445,0,0,0-6.6,4.022,1.445,1.445,0,0,0-5.158,5.464Z" transform="translate(48.7 28.199)"/><circle class="c" cx="1.536" cy="1.536" r="1.536" transform="translate(46.369 30.685)"/><circle class="c" cx="1.62" cy="1.62" r="1.62" transform="translate(50.645 30.601)"/><circle class="c" cx="1.693" cy="1.693" r="1.693" transform="translate(54.932 30.528)"/><circle class="c" cx="1.753" cy="1.753" r="1.753" transform="translate(59.232 30.468)"/><circle class="c" cx="1.814" cy="1.814" r="1.814" transform="translate(63.532 30.407)"/><circle class="c" cx="1.874" cy="1.874" r="1.874" transform="translate(67.832 30.347)"/><path class="c" d="M-2.2,6.369A1.918,1.918,0,0,0-.291,4.456,1.918,1.918,0,0,0-2.2,2.542,1.918,1.918,0,0,0-4.118,4.456,1.918,1.918,0,0,0-2.2,6.369Z" transform="translate(76.268 27.765)"/><circle class="c" cx="1.959" cy="1.959" r="1.959" transform="translate(76.467 30.262)"/><circle class="c" cx="2.007" cy="2.007" r="2.007" transform="translate(80.779 30.214)"/><path class="c" d="M-1,6.648A2.057,2.057,0,0,0,1.057,4.589,2.057,2.057,0,0,0-1,2.53,2.047,2.047,0,0,0-3.049,4.589,2.047,2.047,0,0,0-1,6.648Z" transform="translate(88.146 27.632)"/><circle class="c" cx="2.092" cy="2.092" r="2.092" transform="translate(89.415 30.129)"/><path class="c" d="M-.215,6.787A2.135,2.135,0,0,0,1.916,4.656,2.135,2.135,0,0,0-.215,2.524a2.124,2.124,0,0,0-2.12,2.132A2.124,2.124,0,0,0-.215,6.787Z" transform="translate(96.08 27.565)"/><circle class="c" cx="2.152" cy="2.152" r="2.152" transform="translate(98.075 30.069)"/><circle class="c" cx="0.097" cy="0.097" r="0.097" transform="translate(-6.694 36.484)"/><circle class="c" cx="0.23" cy="0.23" r="0.23" transform="translate(-2.467 36.351)"/><circle class="c" cx="0.363" cy="0.363" r="0.363" transform="translate(1.76 36.218)"/><circle class="c" cx="0.496" cy="0.496" r="0.496" transform="translate(5.987 36.085)"/><circle class="c" cx="0.629" cy="0.629" r="0.629" transform="translate(10.215 35.952)"/><circle class="c" cx="0.75" cy="0.75" r="0.75" transform="translate(14.454 35.831)"/><path class="c" d="M-7.649,4.755a.889.889,0,0,0,.884-.884.889.889,0,0,0-.884-.884.889.889,0,0,0-.884.884A.889.889,0,0,0-7.649,4.755Z" transform="translate(27.21 32.71)"/><circle class="c" cx="0.991" cy="0.991" r="0.991" transform="translate(22.932 35.59)"/><circle class="c" cx="1.112" cy="1.112" r="1.112" transform="translate(27.172 35.469)"/><path class="c" d="M-6.258,5.406A1.22,1.22,0,0,0-5.034,4.182,1.22,1.22,0,0,0-6.258,2.959,1.228,1.228,0,0,0-7.481,4.182,1.228,1.228,0,0,0-6.258,5.406Z" transform="translate(38.899 32.399)"/><circle class="c" cx="1.33" cy="1.33" r="1.33" transform="translate(35.674 35.251)"/><path class="c" d="M-5.349,5.8A1.432,1.432,0,0,0-3.92,4.371,1.432,1.432,0,0,0-5.349,2.942,1.432,1.432,0,0,0-6.778,4.371,1.432,1.432,0,0,0-5.349,5.8Z" transform="translate(46.711 32.21)"/><circle class="c" cx="1.523" cy="1.523" r="1.523" transform="translate(44.201 35.058)"/><circle class="c" cx="1.608" cy="1.608" r="1.608" transform="translate(48.477 34.973)"/><circle class="c" cx="1.681" cy="1.681" r="1.681" transform="translate(52.764 34.9)"/><circle class="c" cx="1.753" cy="1.753" r="1.753" transform="translate(57.052 34.828)"/><circle class="c" cx="1.814" cy="1.814" r="1.814" transform="translate(61.352 34.767)"/><circle class="c" cx="1.874" cy="1.874" r="1.874" transform="translate(65.652 34.707)"/><path class="c" d="M-2.373,6.752A1.923,1.923,0,0,0-.448,4.827,1.923,1.923,0,0,0-2.373,2.9,1.931,1.931,0,0,0-4.3,4.827,1.931,1.931,0,0,0-2.373,6.752Z" transform="translate(74.256 31.754)"/><circle class="c" cx="1.971" cy="1.971" r="1.971" transform="translate(74.275 34.61)"/><circle class="c" cx="2.031" cy="2.031" r="2.031" transform="translate(78.575 34.55)"/><circle class="c" cx="2.092" cy="2.092" r="2.092" transform="translate(82.875 34.489)"/><circle class="c" cx="2.152" cy="2.152" r="2.152" transform="translate(87.174 34.429)"/><path class="c" d="M-.318,7.31A2.217,2.217,0,0,0,1.9,5.093,2.217,2.217,0,0,0-.318,2.877a2.207,2.207,0,0,0-2.2,2.216A2.207,2.207,0,0,0-.318,7.31Z" transform="translate(94.002 31.488)"/><circle class="c" cx="2.249" cy="2.249" r="2.249" transform="translate(95.798 34.332)"/><circle class="c" cx="0.048" cy="0.048" r="0.048" transform="translate(-8.826 40.893)"/><circle class="c" cx="0.194" cy="0.194" r="0.194" transform="translate(-4.611 40.748)"/><path class="c" d="M-9.78,4.047a.326.326,0,0,0,.327-.327.326.326,0,0,0-.327-.327.326.326,0,0,0-.327.327A.326.326,0,0,0-9.78,4.047Z" transform="translate(9.72 37.221)"/><path class="c" d="M-9.309,4.279a.447.447,0,0,0,.448-.448.447.447,0,0,0-.448-.448.455.455,0,0,0-.448.448A.455.455,0,0,0-9.309,4.279Z" transform="translate(13.609 37.11)"/><path class="c" d="M-8.827,4.535a.581.581,0,0,0,.581-.581.581.581,0,0,0-.581-.581.589.589,0,0,0-.581.581A.589.589,0,0,0-8.827,4.535Z" transform="translate(17.487 36.988)"/><circle class="c" cx="0.713" cy="0.713" r="0.713" transform="translate(12.31 40.228)"/><circle class="c" cx="0.834" cy="0.834" r="0.834" transform="translate(16.549 40.107)"/><path class="c" d="M-7.4,5.255A.951.951,0,0,0-6.445,4.3.951.951,0,0,0-7.4,3.341a.959.959,0,0,0-.957.957A.959.959,0,0,0-7.4,5.255Z" transform="translate(29.143 36.643)"/><path class="c" d="M-6.931,5.487A1.08,1.08,0,0,0-5.853,4.409,1.08,1.08,0,0,0-6.931,3.331,1.08,1.08,0,0,0-8.009,4.409,1.08,1.08,0,0,0-6.931,5.487Z" transform="translate(33.032 36.532)"/><circle class="c" cx="1.197" cy="1.197" r="1.197" transform="translate(29.267 39.744)"/><path class="c" d="M-6.011,5.9a1.3,1.3,0,0,0,1.3-1.3,1.3,1.3,0,0,0-1.3-1.3,1.3,1.3,0,0,0-1.3,1.3A1.3,1.3,0,0,0-6.011,5.9Z" transform="translate(40.833 36.332)"/><circle class="c" cx="1.403" cy="1.403" r="1.403" transform="translate(37.782 39.539)"/><path class="c" d="M-5.1,6.3A1.5,1.5,0,0,0-3.6,4.8,1.5,1.5,0,0,0-5.1,3.3,1.509,1.509,0,0,0-6.6,4.8,1.509,1.509,0,0,0-5.1,6.3Z" transform="translate(48.644 36.143)"/><path class="c" d="M-4.664,6.462A1.592,1.592,0,0,0-3.078,4.876,1.592,1.592,0,0,0-4.664,3.289,1.592,1.592,0,0,0-6.251,4.876,1.592,1.592,0,0,0-4.664,6.462Z" transform="translate(52.567 36.066)"/><circle class="c" cx="1.668" cy="1.668" r="1.668" transform="translate(50.596 39.273)"/><circle class="c" cx="1.741" cy="1.741" r="1.741" transform="translate(54.884 39.2)"/><circle class="c" cx="1.814" cy="1.814" r="1.814" transform="translate(59.172 39.128)"/><circle class="c" cx="1.874" cy="1.874" r="1.874" transform="translate(63.471 39.067)"/><path class="c" d="M-2.553,7.112A1.923,1.923,0,0,0-.628,5.187,1.923,1.923,0,0,0-2.553,3.261,1.931,1.931,0,0,0-4.479,5.187,1.931,1.931,0,0,0-2.553,7.112Z" transform="translate(72.256 35.754)"/><path class="c" d="M-2.149,7.229A1.987,1.987,0,0,0-.163,5.242,1.987,1.987,0,0,0-2.149,3.256,1.985,1.985,0,0,0-4.123,5.242,1.985,1.985,0,0,0-2.149,7.229Z" transform="translate(76.212 35.699)"/><circle class="c" cx="2.043" cy="2.043" r="2.043" transform="translate(76.383 38.898)"/><path class="c" d="M-1.307,7.484a2.122,2.122,0,0,0,2.12-2.12,2.122,2.122,0,0,0-2.12-2.12,2.119,2.119,0,0,0-2.107,2.12A2.119,2.119,0,0,0-1.307,7.484Z" transform="translate(84.09 35.577)"/><path class="c" d="M-.88,7.623A2.192,2.192,0,0,0,1.312,5.431,2.192,2.192,0,0,0-.88,3.239,2.181,2.181,0,0,0-3.06,5.431,2.181,2.181,0,0,0-.88,7.623Z" transform="translate(88.024 35.51)"/><circle class="c" cx="2.285" cy="2.285" r="2.285" transform="translate(89.221 38.656)"/><circle class="c" cx="2.37" cy="2.37" r="2.37" transform="translate(93.497 38.571)"/><path class="c" d="M.411,8.065a2.422,2.422,0,0,0,0-4.845,2.422,2.422,0,0,0,0,4.845Z" transform="translate(99.813 35.299)"/><circle class="c" cx="0.012" cy="0.012" r="0.012" transform="translate(-10.97 45.289)"/><circle class="c" cx="0.133" cy="0.133" r="0.133" transform="translate(-6.731 45.168)"/><path class="c" d="M-10.016,4.291a.269.269,0,0,0,.266-.266.269.269,0,0,0-.266-.266.269.269,0,0,0-.266.266A.269.269,0,0,0-10.016,4.291Z" transform="translate(7.776 41.277)"/><path class="c" d="M-9.533,4.546a.4.4,0,0,0,.4-.4.4.4,0,0,0-.4-.4.4.4,0,0,0-.4.4A.4.4,0,0,0-9.533,4.546Z" transform="translate(11.654 41.155)"/><path class="c" d="M-9.051,4.8a.538.538,0,0,0,.533-.533.538.538,0,0,0-.533-.533.538.538,0,0,0-.533.533A.538.538,0,0,0-9.051,4.8Z" transform="translate(15.532 41.032)"/><path class="c" d="M-8.569,5.057A.664.664,0,0,0-7.9,4.391a.664.664,0,0,0-.666-.666.672.672,0,0,0-.666.666A.672.672,0,0,0-8.569,5.057Z" transform="translate(19.41 40.91)"/><circle class="c" cx="0.786" cy="0.786" r="0.786" transform="translate(14.418 44.515)"/><circle class="c" cx="0.919" cy="0.919" r="0.919" transform="translate(18.645 44.382)"/><circle class="c" cx="1.04" cy="1.04" r="1.04" transform="translate(22.884 44.262)"/><path class="c" d="M-6.684,5.986A1.15,1.15,0,0,0-5.534,4.836,1.15,1.15,0,0,0-6.684,3.685,1.158,1.158,0,0,0-7.835,4.836,1.158,1.158,0,0,0-6.684,5.986Z" transform="translate(34.966 40.466)"/><circle class="c" cx="1.257" cy="1.257" r="1.257" transform="translate(31.387 44.044)"/><path class="c" d="M-5.764,6.4A1.367,1.367,0,0,0-4.4,5.036,1.367,1.367,0,0,0-5.764,3.667,1.375,1.375,0,0,0-7.133,5.036,1.375,1.375,0,0,0-5.764,6.4Z" transform="translate(42.766 40.266)"/><circle class="c" cx="1.463" cy="1.463" r="1.463" transform="translate(39.902 43.838)"/><path class="c" d="M-4.867,6.776A1.566,1.566,0,0,0-3.3,5.213,1.566,1.566,0,0,0-4.867,3.651,1.566,1.566,0,0,0-6.429,5.213,1.566,1.566,0,0,0-4.867,6.776Z" transform="translate(50.589 40.088)"/><path class="c" d="M-4.429,6.938A1.649,1.649,0,0,0-2.782,5.291,1.649,1.649,0,0,0-4.429,3.644,1.649,1.649,0,0,0-6.076,5.291,1.649,1.649,0,0,0-4.429,6.938Z" transform="translate(54.511 40.01)"/><circle class="c" cx="1.729" cy="1.729" r="1.729" transform="translate(52.716 43.572)"/><circle class="c" cx="1.801" cy="1.801" r="1.801" transform="translate(57.004 43.5)"/><path class="c" d="M-3.149,7.356A1.866,1.866,0,0,0-1.284,5.491,1.866,1.866,0,0,0-3.149,3.626,1.866,1.866,0,0,0-5.014,5.491,1.866,1.866,0,0,0-3.149,7.356Z" transform="translate(66.312 39.81)"/><path class="c" d="M-2.744,7.449A1.918,1.918,0,0,0-.831,5.536,1.918,1.918,0,0,0-2.744,3.622,1.918,1.918,0,0,0-4.658,5.536,1.918,1.918,0,0,0-2.744,7.449Z" transform="translate(70.267 39.766)"/><circle class="c" cx="1.971" cy="1.971" r="1.971" transform="translate(69.915 43.331)"/><circle class="c" cx="2.031" cy="2.031" r="2.031" transform="translate(74.215 43.27)"/><path class="c" d="M-1.487,7.844a2.122,2.122,0,0,0,2.12-2.12,2.122,2.122,0,0,0-2.12-2.12,2.119,2.119,0,0,0-2.107,2.12A2.119,2.119,0,0,0-1.487,7.844Z" transform="translate(82.09 39.577)"/><path class="c" d="M-1.038,8.03A2.217,2.217,0,0,0,1.179,5.813,2.217,2.217,0,0,0-1.038,3.6a2.207,2.207,0,0,0-2.2,2.216A2.207,2.207,0,0,0-1.038,8.03Z" transform="translate(86.001 39.488)"/><path class="c" d="M-.567,8.262A2.339,2.339,0,0,0,1.771,5.925,2.339,2.339,0,0,0-.567,3.587,2.336,2.336,0,0,0-2.892,5.925,2.336,2.336,0,0,0-.567,8.262Z" transform="translate(89.89 39.377)"/><circle class="c" cx="2.454" cy="2.454" r="2.454" transform="translate(91.232 42.847)"/><circle class="c" cx="2.575" cy="2.575" r="2.575" transform="translate(95.471 42.726)"/><circle class="c" cx="0.073" cy="0.073" r="0.073" transform="translate(-8.85 49.589)"/><circle class="c" cx="0.206" cy="0.206" r="0.206" transform="translate(-4.623 49.456)"/><path class="c" d="M-9.769,4.79a.339.339,0,0,0,.339-.339.339.339,0,0,0-.339-.339.347.347,0,0,0-.339.339A.347.347,0,0,0-9.769,4.79Z" transform="translate(9.709 45.21)"/><circle class="c" cx="0.472" cy="0.472" r="0.472" transform="translate(3.832 49.19)"/><path class="c" d="M-8.8,5.3A.6.6,0,0,0-8.2,4.7.6.6,0,0,0-8.8,4.09.607.607,0,0,0-9.41,4.7.607.607,0,0,0-8.8,5.3Z" transform="translate(17.465 44.966)"/><path class="c" d="M-8.322,5.557a.734.734,0,0,0,.739-.739.734.734,0,0,0-.739-.739.742.742,0,0,0-.739.739A.742.742,0,0,0-8.322,5.557Z" transform="translate(21.343 44.844)"/><path class="c" d="M-7.851,5.789a.863.863,0,0,0,.86-.86.863.863,0,0,0-.86-.86.863.863,0,0,0-.86.86A.863.863,0,0,0-7.851,5.789Z" transform="translate(25.232 44.733)"/><circle class="c" cx="0.991" cy="0.991" r="0.991" transform="translate(20.752 48.67)"/><circle class="c" cx="1.1" cy="1.1" r="1.1" transform="translate(25.004 48.561)"/><path class="c" d="M-6.438,6.486A1.22,1.22,0,0,0-5.214,5.262,1.22,1.22,0,0,0-6.438,4.039,1.228,1.228,0,0,0-7.661,5.262,1.228,1.228,0,0,0-6.438,6.486Z" transform="translate(36.899 44.399)"/><circle class="c" cx="1.33" cy="1.33" r="1.33" transform="translate(33.494 48.332)"/><path class="c" d="M-5.529,6.88A1.432,1.432,0,0,0-4.1,5.451,1.432,1.432,0,0,0-5.529,4.022,1.432,1.432,0,0,0-6.958,5.451,1.432,1.432,0,0,0-5.529,6.88Z" transform="translate(44.711 44.21)"/><circle class="c" cx="1.523" cy="1.523" r="1.523" transform="translate(42.021 48.138)"/><circle class="c" cx="1.62" cy="1.62" r="1.62" transform="translate(46.285 48.041)"/><circle class="c" cx="1.693" cy="1.693" r="1.693" transform="translate(50.572 47.969)"/><path class="c" d="M-3.767,7.554a1.783,1.783,0,0,0,1.78-1.78,1.783,1.783,0,0,0-1.78-1.78,1.783,1.783,0,0,0-1.78,1.78A1.783,1.783,0,0,0-3.767,7.554Z" transform="translate(60.389 43.888)"/><path class="c" d="M-3.351,7.67A1.84,1.84,0,0,0-1.51,5.829,1.84,1.84,0,0,0-3.351,3.988,1.84,1.84,0,0,0-5.192,5.829,1.84,1.84,0,0,0-3.351,7.67Z" transform="translate(64.334 43.833)"/><circle class="c" cx="1.898" cy="1.898" r="1.898" transform="translate(63.447 47.763)"/><circle class="c" cx="1.959" cy="1.959" r="1.959" transform="translate(67.747 47.703)"/><circle class="c" cx="2.019" cy="2.019" r="2.019" transform="translate(72.047 47.642)"/><circle class="c" cx="2.104" cy="2.104" r="2.104" transform="translate(76.322 47.558)"/><path class="c" d="M-1.229,8.367a2.2,2.2,0,0,0,2.2-2.2,2.2,2.2,0,0,0-2.2-2.2,2.2,2.2,0,0,0-2.192,2.2A2.2,2.2,0,0,0-1.229,8.367Z" transform="translate(84.012 43.499)"/><circle class="c" cx="2.321" cy="2.321" r="2.321" transform="translate(84.825 47.34)"/><path class="c" d="M-.253,8.9A2.486,2.486,0,0,0,2.23,6.418,2.486,2.486,0,0,0-.253,3.935,2.476,2.476,0,0,0-2.724,6.418,2.476,2.476,0,0,0-.253,8.9Z" transform="translate(91.757 43.244)"/><circle class="c" cx="2.66" cy="2.66" r="2.66" transform="translate(93.207 47.002)"/><circle class="c" cx="2.805" cy="2.805" r="2.805" transform="translate(97.422 46.856)"/><circle class="c" cx="0.024" cy="0.024" r="0.024" transform="translate(-10.982 53.997)"/><circle class="c" cx="0.145" cy="0.145" r="0.145" transform="translate(-6.743 53.876)"/><path class="c" d="M-10,5.034a.274.274,0,0,0,.279-.279A.274.274,0,0,0-10,4.477a.274.274,0,0,0-.279.279A.274.274,0,0,0-10,5.034Z" transform="translate(7.765 49.266)"/><circle class="c" cx="0.411" cy="0.411" r="0.411" transform="translate(1.712 53.611)"/><circle class="c" cx="0.544" cy="0.544" r="0.544" transform="translate(5.939 53.478)"/><path class="c" d="M-8.558,5.8a.677.677,0,0,0,.678-.678.677.677,0,0,0-.678-.678.677.677,0,0,0-.678.678A.677.677,0,0,0-8.558,5.8Z" transform="translate(19.399 48.899)"/><path class="c" d="M-8.087,6.033a.8.8,0,0,0,.8-.8.8.8,0,0,0-.8-.8.806.806,0,0,0-.8.8A.806.806,0,0,0-8.087,6.033Z" transform="translate(23.288 48.788)"/><path class="c" d="M-7.6,6.288a.933.933,0,0,0,.933-.933A.933.933,0,0,0-7.6,4.423a.941.941,0,0,0-.933.933A.941.941,0,0,0-7.6,6.288Z" transform="translate(27.166 48.666)"/><circle class="c" cx="1.052" cy="1.052" r="1.052" transform="translate(22.872 52.97)"/><path class="c" d="M-6.673,6.729A1.163,1.163,0,0,0-5.511,5.567,1.163,1.163,0,0,0-6.673,4.4,1.163,1.163,0,0,0-7.836,5.567,1.163,1.163,0,0,0-6.673,6.729Z" transform="translate(34.955 48.455)"/><path class="c" d="M-6.2,6.962A1.284,1.284,0,0,0-4.918,5.678,1.284,1.284,0,0,0-6.2,4.394,1.292,1.292,0,0,0-7.486,5.678,1.292,1.292,0,0,0-6.2,6.962Z" transform="translate(38.844 48.344)"/><circle class="c" cx="1.378" cy="1.378" r="1.378" transform="translate(35.626 52.643)"/><path class="c" d="M-5.293,7.356A1.489,1.489,0,0,0-3.8,5.867a1.489,1.489,0,0,0-1.49-1.49,1.489,1.489,0,0,0-1.49,1.49A1.489,1.489,0,0,0-5.293,7.356Z" transform="translate(46.655 48.155)"/><path class="c" d="M-4.856,7.519A1.571,1.571,0,0,0-3.281,5.945,1.571,1.571,0,0,0-4.856,4.37,1.579,1.579,0,0,0-6.43,5.945,1.579,1.579,0,0,0-4.856,7.519Z" transform="translate(50.578 48.077)"/><circle class="c" cx="1.668" cy="1.668" r="1.668" transform="translate(48.416 52.353)"/><circle class="c" cx="1.741" cy="1.741" r="1.741" transform="translate(52.704 52.281)"/><circle class="c" cx="1.814" cy="1.814" r="1.814" transform="translate(56.992 52.208)"/><circle class="c" cx="1.874" cy="1.874" r="1.874" transform="translate(61.291 52.148)"/><path class="c" d="M-2.733,8.192A1.923,1.923,0,0,0-.808,6.267,1.923,1.923,0,0,0-2.733,4.341,1.931,1.931,0,0,0-4.659,6.267,1.931,1.931,0,0,0-2.733,8.192Z" transform="translate(70.256 47.755)"/><path class="c" d="M-2.307,8.332a2,2,0,0,0,2-2,2,2,0,0,0-2-2,2,2,0,0,0-2,2A2,2,0,0,0-2.307,8.332Z" transform="translate(74.19 47.688)"/><path class="c" d="M-1.891,8.471A2.078,2.078,0,0,0,.18,6.4,2.078,2.078,0,0,0-1.891,4.329,2.068,2.068,0,0,0-3.95,6.4,2.068,2.068,0,0,0-1.891,8.471Z" transform="translate(78.134 47.622)"/><circle class="c" cx="2.152" cy="2.152" r="2.152" transform="translate(78.454 51.87)"/><path class="c" d="M-.982,8.866A2.274,2.274,0,0,0,1.295,6.589,2.274,2.274,0,0,0-.982,4.312,2.272,2.272,0,0,0-3.247,6.589,2.272,2.272,0,0,0-.982,8.866Z" transform="translate(85.946 47.433)"/><circle class="c" cx="2.43" cy="2.43" r="2.43" transform="translate(86.896 51.591)"/><path class="c" d="M.06,9.539a2.628,2.628,0,1,0,0-5.256,2.628,2.628,0,0,0,0,5.256Z" transform="translate(93.624 47.11)"/><path class="c" d="M.609,9.934a2.834,2.834,0,0,0,0-5.668,2.834,2.834,0,0,0,0,5.668Z" transform="translate(97.435 46.922)"/><circle class="c" cx="0.073" cy="0.073" r="0.073" transform="translate(-8.85 58.309)"/><circle class="c" cx="0.206" cy="0.206" r="0.206" transform="translate(-4.623 58.176)"/><path class="c" d="M-9.769,5.51a.339.339,0,0,0,.339-.339.339.339,0,0,0-.339-.339.347.347,0,0,0-.339.339A.347.347,0,0,0-9.769,5.51Z" transform="translate(9.709 53.211)"/><circle class="c" cx="0.472" cy="0.472" r="0.472" transform="translate(3.832 57.91)"/><path class="c" d="M-8.8,6.021A.6.6,0,0,0-8.2,5.416.6.6,0,0,0-8.8,4.81a.607.607,0,0,0-.606.606A.607.607,0,0,0-8.8,6.021Z" transform="translate(17.465 52.966)"/><path class="c" d="M-8.322,6.277a.734.734,0,0,0,.739-.739A.734.734,0,0,0-8.322,4.8a.742.742,0,0,0-.739.739A.742.742,0,0,0-8.322,6.277Z" transform="translate(21.343 52.844)"/><path class="c" d="M-7.84,6.532a.868.868,0,0,0,.872-.872.868.868,0,0,0-.872-.872.876.876,0,0,0-.872.872A.876.876,0,0,0-7.84,6.532Z" transform="translate(25.221 52.722)"/><circle class="c" cx="0.991" cy="0.991" r="0.991" transform="translate(20.752 57.39)"/><circle class="c" cx="1.1" cy="1.1" r="1.1" transform="translate(25.004 57.282)"/><path class="c" d="M-6.438,7.206A1.22,1.22,0,0,0-5.214,5.982,1.22,1.22,0,0,0-6.438,4.759,1.228,1.228,0,0,0-7.661,5.982,1.228,1.228,0,0,0-6.438,7.206Z" transform="translate(36.899 52.4)"/><circle class="c" cx="1.33" cy="1.33" r="1.33" transform="translate(33.494 57.052)"/><path class="c" d="M-5.529,7.6A1.432,1.432,0,0,0-4.1,6.171,1.432,1.432,0,0,0-5.529,4.742,1.432,1.432,0,0,0-6.958,6.171,1.432,1.432,0,0,0-5.529,7.6Z" transform="translate(44.711 52.211)"/><circle class="c" cx="1.523" cy="1.523" r="1.523" transform="translate(42.021 56.858)"/><circle class="c" cx="1.62" cy="1.62" r="1.62" transform="translate(46.285 56.762)"/><path class="c" d="M-4.193,8.134A1.706,1.706,0,0,0-2.486,6.427,1.706,1.706,0,0,0-4.193,4.719,1.706,1.706,0,0,0-5.9,6.427,1.706,1.706,0,0,0-4.193,8.134Z" transform="translate(56.456 51.955)"/><path class="c" d="M-3.767,8.274a1.783,1.783,0,0,0,1.78-1.78,1.783,1.783,0,0,0-1.78-1.78,1.783,1.783,0,0,0-1.78,1.78A1.783,1.783,0,0,0-3.767,8.274Z" transform="translate(60.389 51.888)"/><path class="c" d="M-3.351,8.39A1.84,1.84,0,0,0-1.51,6.549,1.84,1.84,0,0,0-3.351,4.708,1.84,1.84,0,0,0-5.192,6.549,1.84,1.84,0,0,0-3.351,8.39Z" transform="translate(64.334 51.833)"/><circle class="c" cx="1.898" cy="1.898" r="1.898" transform="translate(63.447 56.484)"/><circle class="c" cx="1.959" cy="1.959" r="1.959" transform="translate(67.747 56.423)"/><circle class="c" cx="2.019" cy="2.019" r="2.019" transform="translate(72.047 56.363)"/><circle class="c" cx="2.104" cy="2.104" r="2.104" transform="translate(76.322 56.278)"/><path class="c" d="M-1.229,9.087a2.2,2.2,0,0,0,2.2-2.2,2.2,2.2,0,0,0-2.2-2.2,2.2,2.2,0,0,0-2.192,2.2A2.2,2.2,0,0,0-1.229,9.087Z" transform="translate(84.012 51.5)"/><path class="c" d="M-.747,9.342A2.339,2.339,0,0,0,1.591,7,2.339,2.339,0,0,0-.747,4.667,2.336,2.336,0,0,0-3.072,7,2.336,2.336,0,0,0-.747,9.342Z" transform="translate(87.89 51.377)"/><path class="c" d="M-.242,9.644A2.491,2.491,0,0,0,2.253,7.149,2.491,2.491,0,0,0-.242,4.654,2.489,2.489,0,0,0-2.725,7.149,2.489,2.489,0,0,0-.242,9.644Z" transform="translate(91.746 51.233)"/><circle class="c" cx="2.66" cy="2.66" r="2.66" transform="translate(93.207 55.722)"/><path class="c" d="M.778,10.271a2.822,2.822,0,0,0,0-5.644,2.822,2.822,0,0,0,0,5.644Z" transform="translate(99.446 50.933)"/><circle class="c" cx="0.012" cy="0.012" r="0.012" transform="translate(-10.97 62.73)"/><circle class="c" cx="0.133" cy="0.133" r="0.133" transform="translate(-6.731 62.609)"/><path class="c" d="M-10.016,5.731a.269.269,0,0,0,.266-.266.269.269,0,0,0-.266-.266.269.269,0,0,0-.266.266A.269.269,0,0,0-10.016,5.731Z" transform="translate(7.776 57.278)"/><path class="c" d="M-9.533,5.986a.4.4,0,0,0,.4-.4.4.4,0,0,0-.4-.4.4.4,0,0,0-.4.4A.4.4,0,0,0-9.533,5.986Z" transform="translate(11.654 57.155)"/><path class="c" d="M-9.051,6.242a.538.538,0,0,0,.533-.533.538.538,0,0,0-.533-.533.538.538,0,0,0-.533.533A.538.538,0,0,0-9.051,6.242Z" transform="translate(15.532 57.033)"/><path class="c" d="M-8.569,6.5A.664.664,0,0,0-7.9,5.831a.664.664,0,0,0-.666-.666.672.672,0,0,0-.666.666A.672.672,0,0,0-8.569,6.5Z" transform="translate(19.41 56.911)"/><circle class="c" cx="0.786" cy="0.786" r="0.786" transform="translate(14.418 61.956)"/><circle class="c" cx="0.919" cy="0.919" r="0.919" transform="translate(18.645 61.823)"/><circle class="c" cx="1.04" cy="1.04" r="1.04" transform="translate(22.884 61.702)"/><path class="c" d="M-6.684,7.426A1.15,1.15,0,0,0-5.534,6.276,1.15,1.15,0,0,0-6.684,5.125,1.158,1.158,0,0,0-7.835,6.276,1.158,1.158,0,0,0-6.684,7.426Z" transform="translate(34.966 56.466)"/><circle class="c" cx="1.27" cy="1.27" r="1.27" transform="translate(31.375 61.472)"/><path class="c" d="M-5.764,7.844A1.367,1.367,0,0,0-4.4,6.476,1.367,1.367,0,0,0-5.764,5.107,1.375,1.375,0,0,0-7.133,6.476,1.375,1.375,0,0,0-5.764,7.844Z" transform="translate(42.766 56.266)"/><circle class="c" cx="1.463" cy="1.463" r="1.463" transform="translate(39.902 61.279)"/><path class="c" d="M-4.867,8.216A1.566,1.566,0,0,0-3.3,6.653,1.566,1.566,0,0,0-4.867,5.091,1.566,1.566,0,0,0-6.429,6.653,1.566,1.566,0,0,0-4.867,8.216Z" transform="translate(50.589 56.089)"/><path class="c" d="M-4.429,8.378A1.649,1.649,0,0,0-2.782,6.731,1.649,1.649,0,0,0-4.429,5.084,1.649,1.649,0,0,0-6.076,6.731,1.649,1.649,0,0,0-4.429,8.378Z" transform="translate(54.511 56.011)"/><circle class="c" cx="1.729" cy="1.729" r="1.729" transform="translate(52.716 61.013)"/><circle class="c" cx="1.801" cy="1.801" r="1.801" transform="translate(57.004 60.941)"/><path class="c" d="M-3.149,8.8A1.866,1.866,0,0,0-1.284,6.931,1.866,1.866,0,0,0-3.149,5.066,1.866,1.866,0,0,0-5.014,6.931,1.866,1.866,0,0,0-3.149,8.8Z" transform="translate(66.312 55.811)"/><path class="c" d="M-2.744,8.889A1.918,1.918,0,0,0-.831,6.976,1.918,1.918,0,0,0-2.744,5.062,1.918,1.918,0,0,0-4.658,6.976,1.918,1.918,0,0,0-2.744,8.889Z" transform="translate(70.267 55.766)"/><circle class="c" cx="1.971" cy="1.971" r="1.971" transform="translate(69.915 60.771)"/><circle class="c" cx="2.043" cy="2.043" r="2.043" transform="translate(74.203 60.699)"/><path class="c" d="M-1.487,9.284a2.122,2.122,0,0,0,2.12-2.12,2.122,2.122,0,0,0-2.12-2.12,2.119,2.119,0,0,0-2.107,2.12A2.119,2.119,0,0,0-1.487,9.284Z" transform="translate(82.09 55.577)"/><path class="c" d="M-1.038,9.47A2.217,2.217,0,0,0,1.179,7.253,2.217,2.217,0,0,0-1.038,5.037a2.207,2.207,0,0,0-2.2,2.216A2.207,2.207,0,0,0-1.038,9.47Z" transform="translate(86.001 55.489)"/><path class="c" d="M-.567,9.7A2.339,2.339,0,0,0,1.771,7.365,2.339,2.339,0,0,0-.567,5.027,2.336,2.336,0,0,0-2.892,7.365,2.336,2.336,0,0,0-.567,9.7Z" transform="translate(89.89 55.377)"/><path class="c" d="M-.084,9.958A2.473,2.473,0,0,0,2.386,7.487,2.473,2.473,0,0,0-.084,5.016,2.471,2.471,0,0,0-2.543,7.487,2.471,2.471,0,0,0-.084,9.958Z" transform="translate(93.768 55.255)"/><circle class="c" cx="2.587" cy="2.587" r="2.587" transform="translate(95.459 60.155)"/><circle class="c" cx="0.048" cy="0.048" r="0.048" transform="translate(-8.826 67.054)"/><circle class="c" cx="0.194" cy="0.194" r="0.194" transform="translate(-4.611 66.909)"/><path class="c" d="M-9.78,6.207a.326.326,0,0,0,.327-.327.326.326,0,0,0-.327-.327.326.326,0,0,0-.327.327A.326.326,0,0,0-9.78,6.207Z" transform="translate(9.72 61.222)"/><path class="c" d="M-9.309,6.439a.447.447,0,0,0,.448-.448.447.447,0,0,0-.448-.448.455.455,0,0,0-.448.448A.455.455,0,0,0-9.309,6.439Z" transform="translate(13.609 61.111)"/><path class="c" d="M-8.827,6.695a.581.581,0,0,0,.581-.581.581.581,0,0,0-.581-.581.589.589,0,0,0-.581.581A.589.589,0,0,0-8.827,6.695Z" transform="translate(17.487 60.989)"/><circle class="c" cx="0.713" cy="0.713" r="0.713" transform="translate(12.31 66.389)"/><circle class="c" cx="0.834" cy="0.834" r="0.834" transform="translate(16.549 66.268)"/><circle class="c" cx="0.967" cy="0.967" r="0.967" transform="translate(20.777 66.135)"/><path class="c" d="M-6.931,7.647A1.08,1.08,0,0,0-5.853,6.569,1.08,1.08,0,0,0-6.931,5.491,1.08,1.08,0,0,0-8.009,6.569,1.08,1.08,0,0,0-6.931,7.647Z" transform="translate(33.032 60.533)"/><circle class="c" cx="1.197" cy="1.197" r="1.197" transform="translate(29.267 65.905)"/><path class="c" d="M-6,8.088A1.3,1.3,0,0,0-4.692,6.78,1.3,1.3,0,0,0-6,5.472,1.31,1.31,0,0,0-7.308,6.78,1.31,1.31,0,0,0-6,8.088Z" transform="translate(40.822 60.322)"/><circle class="c" cx="1.403" cy="1.403" r="1.403" transform="translate(37.782 65.7)"/><path class="c" d="M-5.1,8.46a1.5,1.5,0,0,0,1.5-1.5,1.5,1.5,0,0,0-1.5-1.5,1.509,1.509,0,0,0-1.5,1.5A1.509,1.509,0,0,0-5.1,8.46Z" transform="translate(48.644 60.144)"/><path class="c" d="M-4.664,8.622A1.592,1.592,0,0,0-3.078,7.036,1.592,1.592,0,0,0-4.664,5.449,1.592,1.592,0,0,0-6.251,7.036,1.592,1.592,0,0,0-4.664,8.622Z" transform="translate(52.567 60.067)"/><circle class="c" cx="1.668" cy="1.668" r="1.668" transform="translate(50.596 65.434)"/><circle class="c" cx="1.753" cy="1.753" r="1.753" transform="translate(54.872 65.349)"/><circle class="c" cx="1.814" cy="1.814" r="1.814" transform="translate(59.172 65.289)"/><circle class="c" cx="1.874" cy="1.874" r="1.874" transform="translate(63.471 65.228)"/><path class="c" d="M-2.553,9.272A1.923,1.923,0,0,0-.628,7.347,1.923,1.923,0,0,0-2.553,5.421,1.931,1.931,0,0,0-4.479,7.347,1.931,1.931,0,0,0-2.553,9.272Z" transform="translate(72.256 59.755)"/><path class="c" d="M-2.149,9.389A1.987,1.987,0,0,0-.163,7.4,1.987,1.987,0,0,0-2.149,5.416,1.985,1.985,0,0,0-4.123,7.4,1.985,1.985,0,0,0-2.149,9.389Z" transform="translate(76.212 59.7)"/><circle class="c" cx="2.043" cy="2.043" r="2.043" transform="translate(76.383 65.059)"/><path class="c" d="M-1.307,9.644a2.122,2.122,0,0,0,2.12-2.12,2.122,2.122,0,0,0-2.12-2.12,2.119,2.119,0,0,0-2.107,2.12A2.119,2.119,0,0,0-1.307,9.644Z" transform="translate(84.09 59.578)"/><path class="c" d="M-.869,9.807a2.2,2.2,0,0,0,2.2-2.2,2.2,2.2,0,0,0-2.2-2.2A2.2,2.2,0,0,0-3.061,7.6,2.2,2.2,0,0,0-.869,9.807Z" transform="translate(88.013 59.5)"/><circle class="c" cx="2.297" cy="2.297" r="2.297" transform="translate(89.209 64.805)"/><circle class="c" cx="2.382" cy="2.382" r="2.382" transform="translate(93.485 64.72)"/><circle class="c" cx="2.43" cy="2.43" r="2.43" transform="translate(97.797 64.672)"/><circle class="c" cx="0.097" cy="0.097" r="0.097" transform="translate(-6.694 71.365)"/><circle class="c" cx="0.23" cy="0.23" r="0.23" transform="translate(-2.467 71.232)"/><circle class="c" cx="0.363" cy="0.363" r="0.363" transform="translate(1.76 71.1)"/><circle class="c" cx="0.496" cy="0.496" r="0.496" transform="translate(5.987 70.967)"/><circle class="c" cx="0.629" cy="0.629" r="0.629" transform="translate(10.215 70.834)"/><circle class="c" cx="0.75" cy="0.75" r="0.75" transform="translate(14.454 70.713)"/><path class="c" d="M-7.649,7.635a.889.889,0,0,0,.884-.884.889.889,0,0,0-.884-.884.889.889,0,0,0-.884.884A.889.889,0,0,0-7.649,7.635Z" transform="translate(27.21 64.711)"/><path class="c" d="M-7.178,7.868A1,1,0,0,0-6.172,6.862,1,1,0,0,0-7.178,5.857,1,1,0,0,0-8.183,6.862,1,1,0,0,0-7.178,7.868Z" transform="translate(31.099 64.6)"/><circle class="c" cx="1.112" cy="1.112" r="1.112" transform="translate(27.172 70.35)"/><path class="c" d="M-6.258,8.286A1.22,1.22,0,0,0-5.034,7.062,1.22,1.22,0,0,0-6.258,5.839,1.228,1.228,0,0,0-7.481,7.062,1.228,1.228,0,0,0-6.258,8.286Z" transform="translate(38.899 64.4)"/><circle class="c" cx="1.33" cy="1.33" r="1.33" transform="translate(35.674 70.132)"/><path class="c" d="M-5.349,8.68A1.432,1.432,0,0,0-3.92,7.251,1.432,1.432,0,0,0-5.349,5.822,1.432,1.432,0,0,0-6.778,7.251,1.432,1.432,0,0,0-5.349,8.68Z" transform="translate(46.711 64.211)"/><circle class="c" cx="1.523" cy="1.523" r="1.523" transform="translate(44.201 69.939)"/><circle class="c" cx="1.608" cy="1.608" r="1.608" transform="translate(48.477 69.854)"/><circle class="c" cx="1.693" cy="1.693" r="1.693" transform="translate(52.752 69.77)"/><path class="c" d="M-3.6,9.331A1.77,1.77,0,0,0-1.829,7.562,1.77,1.77,0,0,0-3.6,5.794,1.778,1.778,0,0,0-5.366,7.562,1.778,1.778,0,0,0-3.6,9.331Z" transform="translate(62.4 63.9)"/><circle class="c" cx="1.826" cy="1.826" r="1.826" transform="translate(61.34 69.637)"/><circle class="c" cx="1.874" cy="1.874" r="1.874" transform="translate(65.652 69.588)"/><path class="c" d="M-2.373,9.632A1.923,1.923,0,0,0-.448,7.707,1.923,1.923,0,0,0-2.373,5.781,1.931,1.931,0,0,0-4.3,7.707,1.931,1.931,0,0,0-2.373,9.632Z" transform="translate(74.256 63.756)"/><path class="c" d="M-1.958,9.749A1.987,1.987,0,0,0,.029,7.762,1.987,1.987,0,0,0-1.958,5.776,2,2,0,0,0-3.944,7.762,2,2,0,0,0-1.958,9.749Z" transform="translate(78.201 63.7)"/><circle class="c" cx="2.031" cy="2.031" r="2.031" transform="translate(78.575 69.431)"/><circle class="c" cx="2.104" cy="2.104" r="2.104" transform="translate(82.862 69.359)"/><circle class="c" cx="2.164" cy="2.164" r="2.164" transform="translate(87.162 69.298)"/><circle class="c" cx="2.225" cy="2.225" r="2.225" transform="translate(91.462 69.238)"/><path class="c" d="M.087,10.283a2.265,2.265,0,0,0,0-4.53,2.265,2.265,0,0,0,0,4.53Z" transform="translate(97.957 63.444)"/><circle class="c" cx="0.024" cy="0.024" r="0.024" transform="translate(-8.802 75.798)"/><circle class="c" cx="0.145" cy="0.145" r="0.145" transform="translate(-4.563 75.677)"/><path class="c" d="M-9.824,6.834a.274.274,0,0,0,.279-.279.274.274,0,0,0-.279-.279.282.282,0,0,0-.279.279A.282.282,0,0,0-9.824,6.834Z" transform="translate(9.765 69.267)"/><circle class="c" cx="0.411" cy="0.411" r="0.411" transform="translate(3.892 75.411)"/><path class="c" d="M-8.871,7.322a.538.538,0,0,0,.533-.533.538.538,0,0,0-.533-.533.538.538,0,0,0-.533.533A.538.538,0,0,0-8.871,7.322Z" transform="translate(17.532 69.034)"/><path class="c" d="M-8.389,7.577a.664.664,0,0,0,.666-.666.664.664,0,0,0-.666-.666.672.672,0,0,0-.666.666A.672.672,0,0,0-8.389,7.577Z" transform="translate(21.41 68.911)"/><circle class="c" cx="0.786" cy="0.786" r="0.786" transform="translate(16.598 75.037)"/><circle class="c" cx="0.907" cy="0.907" r="0.907" transform="translate(20.837 74.916)"/><path class="c" d="M-6.976,8.274A1.029,1.029,0,0,0-5.946,7.244,1.029,1.029,0,0,0-6.976,6.215,1.029,1.029,0,0,0-8.005,7.244,1.029,1.029,0,0,0-6.976,8.274Z" transform="translate(33.077 68.578)"/><circle class="c" cx="1.137" cy="1.137" r="1.137" transform="translate(29.328 74.686)"/><circle class="c" cx="1.245" cy="1.245" r="1.245" transform="translate(33.579 74.577)"/><circle class="c" cx="1.342" cy="1.342" r="1.342" transform="translate(37.842 74.48)"/><path class="c" d="M-5.158,9.064A1.437,1.437,0,0,0-3.716,7.622,1.437,1.437,0,0,0-5.158,6.181,1.445,1.445,0,0,0-6.6,7.622,1.445,1.445,0,0,0-5.158,9.064Z" transform="translate(48.7 68.2)"/><circle class="c" cx="1.536" cy="1.536" r="1.536" transform="translate(46.369 74.287)"/><circle class="c" cx="1.62" cy="1.62" r="1.62" transform="translate(50.645 74.202)"/><circle class="c" cx="1.693" cy="1.693" r="1.693" transform="translate(54.932 74.13)"/><path class="c" d="M-3.418,9.691A1.77,1.77,0,0,0-1.649,7.922,1.77,1.77,0,0,0-3.418,6.154,1.778,1.778,0,0,0-5.186,7.922,1.778,1.778,0,0,0-3.418,9.691Z" transform="translate(64.4 67.9)"/><circle class="c" cx="1.826" cy="1.826" r="1.826" transform="translate(63.52 73.997)"/><circle class="c" cx="1.874" cy="1.874" r="1.874" transform="translate(67.832 73.948)"/><path class="c" d="M-2.193,9.992A1.923,1.923,0,0,0-.268,8.067,1.923,1.923,0,0,0-2.193,6.141,1.931,1.931,0,0,0-4.119,8.067,1.931,1.931,0,0,0-2.193,9.992Z" transform="translate(76.257 67.756)"/><circle class="c" cx="1.971" cy="1.971" r="1.971" transform="translate(76.455 73.852)"/><circle class="c" cx="2.019" cy="2.019" r="2.019" transform="translate(80.767 73.803)"/><path class="c" d="M-1,10.248A2.057,2.057,0,0,0,1.057,8.189,2.057,2.057,0,0,0-1,6.13,2.047,2.047,0,0,0-3.049,8.189,2.047,2.047,0,0,0-1,10.248Z" transform="translate(88.146 67.634)"/><circle class="c" cx="2.104" cy="2.104" r="2.104" transform="translate(89.403 73.719)"/><path class="c" d="M-.2,10.41A2.14,2.14,0,0,0,1.939,8.267,2.14,2.14,0,0,0-.2,6.123,2.137,2.137,0,0,0-2.336,8.267,2.137,2.137,0,0,0-.2,10.41Z" transform="translate(96.068 67.556)"/><circle class="c" cx="2.164" cy="2.164" r="2.164" transform="translate(98.063 73.658)"/><circle class="c" cx="0.048" cy="0.048" r="0.048" transform="translate(-6.646 80.134)"/><circle class="c" cx="0.181" cy="0.181" r="0.181" transform="translate(-2.419 80.001)"/><path class="c" d="M-9.611,7.264A.313.313,0,0,0-9.3,6.949a.313.313,0,0,0-.315-.315.321.321,0,0,0-.315.315A.321.321,0,0,0-9.611,7.264Z" transform="translate(11.732 73.234)"/><circle class="c" cx="0.435" cy="0.435" r="0.435" transform="translate(6.048 79.747)"/><circle class="c" cx="0.568" cy="0.568" r="0.568" transform="translate(10.275 79.614)"/><circle class="c" cx="0.689" cy="0.689" r="0.689" transform="translate(14.514 79.493)"/><path class="c" d="M-7.716,8.216A.812.812,0,0,0-6.9,7.4a.812.812,0,0,0-.811-.811.812.812,0,0,0-.811.811A.812.812,0,0,0-7.716,8.216Z" transform="translate(27.277 72.778)"/><path class="c" d="M-7.244,8.448a.933.933,0,0,0,.933-.933.933.933,0,0,0-.933-.933.941.941,0,0,0-.933.933A.941.941,0,0,0-7.244,8.448Z" transform="translate(31.166 72.667)"/><circle class="c" cx="1.052" cy="1.052" r="1.052" transform="translate(27.232 79.131)"/><path class="c" d="M-6.313,8.889A1.163,1.163,0,0,0-5.151,7.727,1.163,1.163,0,0,0-6.313,6.564,1.163,1.163,0,0,0-7.476,7.727,1.163,1.163,0,0,0-6.313,8.889Z" transform="translate(38.955 72.456)"/><circle class="c" cx="1.257" cy="1.257" r="1.257" transform="translate(35.747 78.925)"/><path class="c" d="M-5.4,9.284A1.367,1.367,0,0,0-4.036,7.916,1.367,1.367,0,0,0-5.4,6.547,1.375,1.375,0,0,0-6.773,7.916,1.375,1.375,0,0,0-5.4,9.284Z" transform="translate(46.766 72.267)"/><circle class="c" cx="1.451" cy="1.451" r="1.451" transform="translate(44.274 78.732)"/><circle class="c" cx="1.536" cy="1.536" r="1.536" transform="translate(48.549 78.647)"/><circle class="c" cx="1.62" cy="1.62" r="1.62" transform="translate(52.825 78.562)"/><circle class="c" cx="1.693" cy="1.693" r="1.693" transform="translate(57.113 78.49)"/><circle class="c" cx="1.753" cy="1.753" r="1.753" transform="translate(61.412 78.429)"/><circle class="c" cx="1.814" cy="1.814" r="1.814" transform="translate(65.712 78.369)"/><path class="c" d="M-2.429,10.236A1.866,1.866,0,0,0-.564,8.371,1.866,1.866,0,0,0-2.429,6.506,1.866,1.866,0,0,0-4.294,8.371,1.866,1.866,0,0,0-2.429,10.236Z" transform="translate(74.312 71.811)"/><circle class="c" cx="1.898" cy="1.898" r="1.898" transform="translate(74.348 78.284)"/><circle class="c" cx="1.947" cy="1.947" r="1.947" transform="translate(78.659 78.236)"/><path class="c" d="M-1.238,10.469A1.987,1.987,0,0,0,.749,8.482,1.987,1.987,0,0,0-1.238,6.5,2,2,0,0,0-3.224,8.482,2,2,0,0,0-1.238,10.469Z" transform="translate(86.201 71.7)"/><circle class="c" cx="2.019" cy="2.019" r="2.019" transform="translate(87.307 78.164)"/><circle class="c" cx="2.043" cy="2.043" r="2.043" transform="translate(91.643 78.139)"/><path class="c" d="M-.091,10.631A2.078,2.078,0,0,0,1.98,8.56,2.078,2.078,0,0,0-.091,6.489,2.068,2.068,0,0,0-2.15,8.56,2.068,2.068,0,0,0-.091,10.631Z" transform="translate(98.135 71.623)"/><circle class="c" cx="0.073" cy="0.073" r="0.073" transform="translate(-4.49 84.47)"/><circle class="c" cx="0.218" cy="0.218" r="0.218" transform="translate(-0.275 84.325)"/><circle class="c" cx="0.339" cy="0.339" r="0.339" transform="translate(3.965 84.204)"/><circle class="c" cx="0.472" cy="0.472" r="0.472" transform="translate(8.192 84.071)"/><path class="c" d="M-8.456,8.158a.594.594,0,0,0,.593-.593.594.594,0,0,0-.593-.593.594.594,0,0,0-.593.593A.594.594,0,0,0-8.456,8.158Z" transform="translate(21.476 76.978)"/><circle class="c" cx="0.713" cy="0.713" r="0.713" transform="translate(16.67 83.829)"/><circle class="c" cx="0.834" cy="0.834" r="0.834" transform="translate(20.91 83.709)"/><path class="c" d="M-7.042,8.855A.951.951,0,0,0-6.085,7.9a.951.951,0,0,0-.957-.957A.959.959,0,0,0-8,7.9.959.959,0,0,0-7.042,8.855Z" transform="translate(33.144 76.645)"/><circle class="c" cx="1.064" cy="1.064" r="1.064" transform="translate(29.4 83.479)"/><circle class="c" cx="1.173" cy="1.173" r="1.173" transform="translate(33.652 83.37)"/><circle class="c" cx="1.27" cy="1.27" r="1.27" transform="translate(37.915 83.273)"/><path class="c" d="M-5.224,9.644A1.367,1.367,0,0,0-3.856,8.276,1.367,1.367,0,0,0-5.224,6.907,1.375,1.375,0,0,0-6.593,8.276,1.375,1.375,0,0,0-5.224,9.644Z" transform="translate(48.766 76.267)"/><circle class="c" cx="1.451" cy="1.451" r="1.451" transform="translate(46.454 83.092)"/><circle class="c" cx="1.536" cy="1.536" r="1.536" transform="translate(50.729 83.007)"/><circle class="c" cx="1.608" cy="1.608" r="1.608" transform="translate(55.017 82.935)"/><circle class="c" cx="1.681" cy="1.681" r="1.681" transform="translate(59.305 82.862)"/><circle class="c" cx="1.741" cy="1.741" r="1.741" transform="translate(63.604 82.802)"/><circle class="c" cx="1.801" cy="1.801" r="1.801" transform="translate(67.904 82.741)"/><path class="c" d="M-2.271,10.55A1.84,1.84,0,0,0-.43,8.709,1.84,1.84,0,0,0-2.271,6.868,1.84,1.84,0,0,0-4.112,8.709,1.84,1.84,0,0,0-2.271,10.55Z" transform="translate(76.334 75.834)"/><circle class="c" cx="1.886" cy="1.886" r="1.886" transform="translate(76.54 82.657)"/><path class="c" d="M-1.484,10.689A1.918,1.918,0,0,0,.429,8.776,1.918,1.918,0,0,0-1.484,6.862,1.918,1.918,0,0,0-3.4,8.776,1.918,1.918,0,0,0-1.484,10.689Z" transform="translate(84.268 75.767)"/><circle class="c" cx="1.947" cy="1.947" r="1.947" transform="translate(85.2 82.596)"/><circle class="c" cx="1.971" cy="1.971" r="1.971" transform="translate(89.536 82.572)"/><path class="c" d="M-.338,10.829A1.987,1.987,0,0,0,1.649,8.842,1.987,1.987,0,0,0-.338,6.856,2,2,0,0,0-2.324,8.842,2,2,0,0,0-.338,10.829Z" transform="translate(96.202 75.701)"/><path class="c" d="M.033,10.852a2,2,0,0,0,0-4,2,2,0,0,0,0,4Z" transform="translate(100.191 75.689)"/><circle class="c" cx="0.012" cy="0.012" r="0.012" transform="translate(-6.61 88.891)"/><circle class="c" cx="0.109" cy="0.109" r="0.109" transform="translate(-2.346 88.794)"/><path class="c" d="M-9.689,7.821a.23.23,0,0,0,.23-.23.23.23,0,0,0-.23-.23.238.238,0,0,0-.23.23A.238.238,0,0,0-9.689,7.821Z" transform="translate(11.809 81.312)"/><circle class="c" cx="0.363" cy="0.363" r="0.363" transform="translate(6.12 88.54)"/><circle class="c" cx="0.484" cy="0.484" r="0.484" transform="translate(10.36 88.419)"/><path class="c" d="M-8.264,8.541a.6.6,0,0,0,.606-.606.6.6,0,0,0-.606-.606.607.607,0,0,0-.606.606A.607.607,0,0,0-8.264,8.541Z" transform="translate(23.465 80.967)"/><path class="c" d="M-7.793,8.773a.729.729,0,0,0,.727-.727.729.729,0,0,0-.727-.727.729.729,0,0,0-.727.727A.729.729,0,0,0-7.793,8.773Z" transform="translate(27.354 80.856)"/><circle class="c" cx="0.846" cy="0.846" r="0.846" transform="translate(23.078 88.057)"/><path class="c" d="M-6.862,9.215a.951.951,0,0,0,.957-.957A.951.951,0,0,0-6.862,7.3a.959.959,0,0,0-.957.957A.959.959,0,0,0-6.862,9.215Z" transform="translate(35.144 80.645)"/><circle class="c" cx="1.064" cy="1.064" r="1.064" transform="translate(31.58 87.839)"/><circle class="c" cx="1.173" cy="1.173" r="1.173" transform="translate(35.832 87.73)"/><circle class="c" cx="1.27" cy="1.27" r="1.27" transform="translate(40.095 87.633)"/><path class="c" d="M-5.056,9.981A1.354,1.354,0,0,0-3.7,8.625,1.354,1.354,0,0,0-5.056,7.268,1.354,1.354,0,0,0-6.412,8.625,1.354,1.354,0,0,0-5.056,9.981Z" transform="translate(50.778 80.278)"/><path class="c" d="M-4.618,10.144A1.437,1.437,0,0,0-3.176,8.7,1.437,1.437,0,0,0-4.618,7.261,1.445,1.445,0,0,0-6.059,8.7,1.445,1.445,0,0,0-4.618,10.144Z" transform="translate(54.7 80.201)"/><circle class="c" cx="1.523" cy="1.523" r="1.523" transform="translate(52.922 87.38)"/><circle class="c" cx="1.596" cy="1.596" r="1.596" transform="translate(57.209 87.307)"/><circle class="c" cx="1.668" cy="1.668" r="1.668" transform="translate(61.497 87.234)"/><path class="c" d="M-2.922,10.678A1.726,1.726,0,0,0-1.2,8.958a1.726,1.726,0,0,0-1.72-1.72,1.726,1.726,0,0,0-1.72,1.72A1.726,1.726,0,0,0-2.922,10.678Z" transform="translate(70.445 79.945)"/><path class="c" d="M-2.507,10.794a1.783,1.783,0,0,0,1.78-1.78,1.783,1.783,0,0,0-1.78-1.78,1.783,1.783,0,0,0-1.78,1.78A1.783,1.783,0,0,0-2.507,10.794Z" transform="translate(74.39 79.89)"/><circle class="c" cx="1.814" cy="1.814" r="1.814" transform="translate(74.432 87.089)"/><path class="c" d="M-1.72,10.933A1.853,1.853,0,0,0,.133,9.08,1.853,1.853,0,0,0-1.72,7.227,1.861,1.861,0,0,0-3.573,9.08,1.861,1.861,0,0,0-1.72,10.933Z" transform="translate(82.323 79.823)"/><circle class="c" cx="1.886" cy="1.886" r="1.886" transform="translate(83.08 87.017)"/><circle class="c" cx="1.898" cy="1.898" r="1.898" transform="translate(87.428 87.005)"/><path class="c" d="M-.573,11.072A1.923,1.923,0,0,0,1.352,9.147,1.923,1.923,0,0,0-.573,7.221,1.931,1.931,0,0,0-2.5,9.147,1.931,1.931,0,0,0-.573,11.072Z" transform="translate(94.257 79.756)"/><path class="c" d="M-.213,11.072A1.923,1.923,0,0,0,1.712,9.147,1.923,1.923,0,0,0-.213,7.221,1.931,1.931,0,0,0-2.139,9.147,1.931,1.931,0,0,0-.213,11.072Z" transform="translate(98.257 79.756)"/><circle class="c" cx="0.012" cy="0.012" r="0.012" transform="translate(-4.429 93.251)"/><circle class="c" cx="0.121" cy="0.121" r="0.121" transform="translate(-0.178 93.142)"/><path class="c" d="M-9.487,8.228a.248.248,0,0,0,.254-.254.248.248,0,0,0-.254-.254.256.256,0,0,0-.254.254A.256.256,0,0,0-9.487,8.228Z" transform="translate(13.787 85.29)"/><path class="c" d="M-9.016,8.46a.377.377,0,0,0,.375-.375.377.377,0,0,0-.375-.375.377.377,0,0,0-.375.375A.377.377,0,0,0-9.016,8.46Z" transform="translate(17.676 85.179)"/><circle class="c" cx="0.496" cy="0.496" r="0.496" transform="translate(12.528 92.767)"/><circle class="c" cx="0.617" cy="0.617" r="0.617" transform="translate(16.767 92.647)"/><path class="c" d="M-7.6,9.157a.734.734,0,0,0,.739-.739A.734.734,0,0,0-7.6,7.679a.742.742,0,0,0-.739.739A.742.742,0,0,0-7.6,9.157Z" transform="translate(29.343 84.845)"/><circle class="c" cx="0.846" cy="0.846" r="0.846" transform="translate(25.258 92.417)"/><path class="c" d="M-6.682,9.575a.951.951,0,0,0,.957-.957.951.951,0,0,0-.957-.957.959.959,0,0,0-.957.957A.959.959,0,0,0-6.682,9.575Z" transform="translate(37.144 84.645)"/><circle class="c" cx="1.064" cy="1.064" r="1.064" transform="translate(33.76 92.199)"/><path class="c" d="M-5.773,9.969A1.163,1.163,0,0,0-4.611,8.807,1.163,1.163,0,0,0-5.773,7.644,1.163,1.163,0,0,0-6.936,8.807,1.163,1.163,0,0,0-5.773,9.969Z" transform="translate(44.955 84.456)"/><circle class="c" cx="1.257" cy="1.257" r="1.257" transform="translate(42.287 92.006)"/><circle class="c" cx="1.342" cy="1.342" r="1.342" transform="translate(46.563 91.921)"/><path class="c" d="M-4.449,10.48A1.432,1.432,0,0,0-3.02,9.051,1.432,1.432,0,0,0-4.449,7.622,1.432,1.432,0,0,0-5.878,9.051,1.432,1.432,0,0,0-4.449,10.48Z" transform="translate(56.711 84.212)"/><path class="c" d="M-4.022,10.62a1.5,1.5,0,0,0,1.5-1.5,1.5,1.5,0,0,0-1.5-1.5,1.509,1.509,0,0,0-1.5,1.5A1.509,1.509,0,0,0-4.022,10.62Z" transform="translate(60.645 84.145)"/><path class="c" d="M-3.6,10.759A1.571,1.571,0,0,0-2.021,9.184,1.571,1.571,0,0,0-3.6,7.61,1.579,1.579,0,0,0-5.17,9.184,1.579,1.579,0,0,0-3.6,10.759Z" transform="translate(64.578 84.079)"/><path class="c" d="M-3.18,10.875A1.636,1.636,0,0,0-1.545,9.24,1.636,1.636,0,0,0-3.18,7.605,1.644,1.644,0,0,0-4.815,9.24,1.644,1.644,0,0,0-3.18,10.875Z" transform="translate(68.523 84.023)"/><circle class="c" cx="1.693" cy="1.693" r="1.693" transform="translate(68.013 91.57)"/><circle class="c" cx="1.741" cy="1.741" r="1.741" transform="translate(72.325 91.522)"/><path class="c" d="M-1.967,11.154a1.783,1.783,0,0,0,1.78-1.78,1.783,1.783,0,0,0-1.78-1.78,1.783,1.783,0,0,0-1.78,1.78A1.783,1.783,0,0,0-1.967,11.154Z" transform="translate(80.39 83.89)"/><circle class="c" cx="1.814" cy="1.814" r="1.814" transform="translate(80.973 91.45)"/><path class="c" d="M-1.191,11.27A1.84,1.84,0,0,0,.65,9.429,1.84,1.84,0,0,0-1.191,7.588,1.84,1.84,0,0,0-3.032,9.429,1.84,1.84,0,0,0-1.191,11.27Z" transform="translate(88.335 83.834)"/><path class="c" d="M-.809,11.316A1.866,1.866,0,0,0,1.056,9.451,1.866,1.866,0,0,0-.809,7.586,1.866,1.866,0,0,0-2.674,9.451,1.866,1.866,0,0,0-.809,11.316Z" transform="translate(92.313 83.812)"/><circle class="c" cx="1.874" cy="1.874" r="1.874" transform="translate(93.993 91.389)"/><circle class="c" cx="1.874" cy="1.874" r="1.874" transform="translate(98.353 91.389)"/><circle class="c" cx="0.024" cy="0.024" r="0.024" transform="translate(-2.261 97.599)"/><circle class="c" cx="0.133" cy="0.133" r="0.133" transform="translate(1.99 97.49)"/><path class="c" d="M-9.307,8.588a.248.248,0,0,0,.254-.254.248.248,0,0,0-.254-.254.256.256,0,0,0-.254.254A.256.256,0,0,0-9.307,8.588Z" transform="translate(15.787 89.29)"/><path class="c" d="M-8.836,8.82a.377.377,0,0,0,.375-.375.377.377,0,0,0-.375-.375.377.377,0,0,0-.375.375A.377.377,0,0,0-8.836,8.82Z" transform="translate(19.676 89.179)"/><circle class="c" cx="0.496" cy="0.496" r="0.496" transform="translate(14.708 97.128)"/><circle class="c" cx="0.617" cy="0.617" r="0.617" transform="translate(18.947 97.007)"/><path class="c" d="M-7.422,9.517a.734.734,0,0,0,.739-.739.734.734,0,0,0-.739-.739.742.742,0,0,0-.739.739A.742.742,0,0,0-7.422,9.517Z" transform="translate(31.344 88.846)"/><circle class="c" cx="0.846" cy="0.846" r="0.846" transform="translate(27.438 96.777)"/><path class="c" d="M-6.513,9.911a.946.946,0,0,0,.945-.945.946.946,0,0,0-.945-.945.946.946,0,0,0-.945.945A.946.946,0,0,0-6.513,9.911Z" transform="translate(39.155 88.657)"/><circle class="c" cx="1.052" cy="1.052" r="1.052" transform="translate(35.952 96.571)"/><path class="c" d="M-5.6,10.306A1.15,1.15,0,0,0-4.454,9.156,1.15,1.15,0,0,0-5.6,8.005,1.158,1.158,0,0,0-6.755,9.156,1.158,1.158,0,0,0-5.6,10.306Z" transform="translate(46.966 88.468)"/><path class="c" d="M-5.167,10.469A1.241,1.241,0,0,0-3.931,9.233,1.241,1.241,0,0,0-5.167,8,1.241,1.241,0,0,0-6.4,9.233,1.241,1.241,0,0,0-5.167,10.469Z" transform="translate(50.889 88.39)"/><circle class="c" cx="1.318" cy="1.318" r="1.318" transform="translate(48.767 96.305)"/><circle class="c" cx="1.403" cy="1.403" r="1.403" transform="translate(53.043 96.221)"/><circle class="c" cx="1.475" cy="1.475" r="1.475" transform="translate(57.33 96.148)"/><circle class="c" cx="1.536" cy="1.536" r="1.536" transform="translate(61.63 96.088)"/><circle class="c" cx="1.596" cy="1.596" r="1.596" transform="translate(65.93 96.027)"/><path class="c" d="M-2.629,11.258A1.649,1.649,0,0,0-.982,9.611,1.649,1.649,0,0,0-2.629,7.964,1.649,1.649,0,0,0-4.276,9.611,1.649,1.649,0,0,0-2.629,11.258Z" transform="translate(74.512 88.012)"/><circle class="c" cx="1.693" cy="1.693" r="1.693" transform="translate(74.553 95.931)"/><circle class="c" cx="1.729" cy="1.729" r="1.729" transform="translate(78.877 95.894)"/><path class="c" d="M-1.438,11.491A1.77,1.77,0,0,0,.331,9.722,1.77,1.77,0,0,0-1.438,7.954,1.778,1.778,0,0,0-3.206,9.722,1.778,1.778,0,0,0-1.438,11.491Z" transform="translate(86.401 87.901)"/><path class="c" d="M-1.055,11.537A1.788,1.788,0,0,0,.737,9.745,1.788,1.788,0,0,0-1.055,7.952,1.8,1.8,0,0,0-2.848,9.745,1.8,1.8,0,0,0-1.055,11.537Z" transform="translate(90.379 87.879)"/><circle class="c" cx="1.801" cy="1.801" r="1.801" transform="translate(91.885 95.822)"/><circle class="c" cx="1.814" cy="1.814" r="1.814" transform="translate(96.233 95.81)"/><circle class="c" cx="0.024" cy="0.024" r="0.024" transform="translate(-0.081 101.959)"/><circle class="c" cx="0.145" cy="0.145" r="0.145" transform="translate(4.158 101.838)"/><circle class="c" cx="0.266" cy="0.266" r="0.266" transform="translate(8.397 101.718)"/><path class="c" d="M-8.644,9.2a.383.383,0,0,0,.388-.388.383.383,0,0,0-.388-.388.39.39,0,0,0-.388.388A.39.39,0,0,0-8.644,9.2Z" transform="translate(21.665 93.168)"/><circle class="c" cx="0.496" cy="0.496" r="0.496" transform="translate(16.888 101.488)"/><circle class="c" cx="0.617" cy="0.617" r="0.617" transform="translate(21.127 101.367)"/><path class="c" d="M-7.253,9.853a.729.729,0,0,0,.727-.727A.729.729,0,0,0-7.253,8.4a.729.729,0,0,0-.727.727A.729.729,0,0,0-7.253,9.853Z" transform="translate(33.355 92.857)"/><circle class="c" cx="0.834" cy="0.834" r="0.834" transform="translate(29.63 101.149)"/><path class="c" d="M-6.344,10.248a.933.933,0,0,0,.933-.933.933.933,0,0,0-.933-.933.941.941,0,0,0-.933.933A.941.941,0,0,0-6.344,10.248Z" transform="translate(41.166 92.668)"/><path class="c" d="M-5.9,10.434A1.029,1.029,0,0,0-4.866,9.4,1.029,1.029,0,0,0-5.9,8.375,1.029,1.029,0,0,0-6.925,9.4,1.029,1.029,0,0,0-5.9,10.434Z" transform="translate(45.077 92.579)"/><circle class="c" cx="1.124" cy="1.124" r="1.124" transform="translate(42.42 100.859)"/><path class="c" d="M-5.009,10.782A1.215,1.215,0,0,0-3.8,9.571,1.215,1.215,0,0,0-5.009,8.36,1.215,1.215,0,0,0-6.22,9.571,1.215,1.215,0,0,0-5.009,10.782Z" transform="translate(52.911 92.412)"/><path class="c" d="M-4.571,10.945a1.3,1.3,0,0,0,1.3-1.3,1.3,1.3,0,0,0-1.3-1.3,1.3,1.3,0,0,0-1.3,1.3A1.3,1.3,0,0,0-4.571,10.945Z" transform="translate(56.833 92.335)"/><path class="c" d="M-4.144,11.084A1.367,1.367,0,0,0-2.776,9.716,1.367,1.367,0,0,0-4.144,8.347,1.375,1.375,0,0,0-5.513,9.716,1.375,1.375,0,0,0-4.144,11.084Z" transform="translate(60.767 92.268)"/><path class="c" d="M-3.718,11.224A1.437,1.437,0,0,0-2.276,9.782,1.437,1.437,0,0,0-3.718,8.341,1.445,1.445,0,0,0-5.159,9.782,1.445,1.445,0,0,0-3.718,11.224Z" transform="translate(64.7 92.201)"/><path class="c" d="M-3.3,11.34a1.5,1.5,0,0,0,1.5-1.5,1.5,1.5,0,0,0-1.5-1.5,1.509,1.509,0,0,0-1.5,1.5A1.509,1.509,0,0,0-3.3,11.34Z" transform="translate(68.645 92.146)"/><circle class="c" cx="1.548" cy="1.548" r="1.548" transform="translate(68.158 100.436)"/><circle class="c" cx="1.596" cy="1.596" r="1.596" transform="translate(72.47 100.388)"/><path class="c" d="M-2.089,11.618A1.649,1.649,0,0,0-.442,9.971,1.649,1.649,0,0,0-2.089,8.324,1.649,1.649,0,0,0-3.736,9.971,1.649,1.649,0,0,0-2.089,11.618Z" transform="translate(80.512 92.012)"/><circle class="c" cx="1.681" cy="1.681" r="1.681" transform="translate(81.106 100.303)"/><path class="c" d="M-1.313,11.734A1.706,1.706,0,0,0,.394,10.027,1.706,1.706,0,0,0-1.313,8.319a1.706,1.706,0,0,0-1.708,1.708A1.706,1.706,0,0,0-1.313,11.734Z" transform="translate(88.457 91.957)"/><circle class="c" cx="1.729" cy="1.729" r="1.729" transform="translate(89.778 100.255)"/><circle class="c" cx="1.741" cy="1.741" r="1.741" transform="translate(94.126 100.242)"/><circle class="c" cx="1.741" cy="1.741" r="1.741" transform="translate(98.486 100.242)"/><path class="c" d="M-9.878,8.866l.024-.024-.024-.024-.024.024Z" transform="translate(12.001 97.501)"/><circle class="c" cx="0.145" cy="0.145" r="0.145" transform="translate(6.338 106.199)"/><path class="c" d="M-8.947,9.308a.248.248,0,0,0,.254-.254A.248.248,0,0,0-8.947,8.8a.256.256,0,0,0-.254.254A.256.256,0,0,0-8.947,9.308Z" transform="translate(19.787 97.29)"/><path class="c" d="M-8.476,9.54A.377.377,0,0,0-8.1,9.164a.377.377,0,0,0-.375-.375.377.377,0,0,0-.375.375A.377.377,0,0,0-8.476,9.54Z" transform="translate(23.677 97.179)"/><circle class="c" cx="0.484" cy="0.484" r="0.484" transform="translate(19.08 105.86)"/><path class="c" d="M-7.544,9.981a.6.6,0,0,0,.606-.606.6.6,0,0,0-.606-.606.607.607,0,0,0-.606.606A.607.607,0,0,0-7.544,9.981Z" transform="translate(31.466 96.968)"/><circle class="c" cx="0.701" cy="0.701" r="0.701" transform="translate(27.583 105.642)"/><path class="c" d="M-6.636,10.376a.812.812,0,0,0,.811-.811.812.812,0,0,0-.811-.811.812.812,0,0,0-.811.811A.812.812,0,0,0-6.636,10.376Z" transform="translate(39.277 96.779)"/><circle class="c" cx="0.907" cy="0.907" r="0.907" transform="translate(36.098 105.437)"/><path class="c" d="M-5.738,10.748A1,1,0,0,0-4.732,9.742,1,1,0,0,0-5.738,8.737,1,1,0,0,0-6.743,9.742,1,1,0,0,0-5.738,10.748Z" transform="translate(47.1 96.601)"/><path class="c" d="M-5.3,10.91A1.086,1.086,0,0,0-4.21,9.82,1.086,1.086,0,0,0-5.3,8.73,1.093,1.093,0,0,0-6.39,9.82,1.093,1.093,0,0,0-5.3,10.91Z" transform="translate(51.022 96.524)"/><circle class="c" cx="1.173" cy="1.173" r="1.173" transform="translate(48.912 105.171)"/><circle class="c" cx="1.257" cy="1.257" r="1.257" transform="translate(53.188 105.086)"/><circle class="c" cx="1.318" cy="1.318" r="1.318" transform="translate(57.487 105.026)"/><circle class="c" cx="1.39" cy="1.39" r="1.39" transform="translate(61.775 104.953)"/><circle class="c" cx="1.451" cy="1.451" r="1.451" transform="translate(66.075 104.893)"/><path class="c" d="M-2.762,11.7a1.5,1.5,0,0,0,1.5-1.5,1.5,1.5,0,0,0-1.5-1.5,1.509,1.509,0,0,0-1.5,1.5A1.509,1.509,0,0,0-2.762,11.7Z" transform="translate(74.645 96.146)"/><circle class="c" cx="1.548" cy="1.548" r="1.548" transform="translate(74.698 104.796)"/><path class="c" d="M-1.964,11.862A1.592,1.592,0,0,0-.378,10.276,1.592,1.592,0,0,0-1.964,8.689a1.592,1.592,0,0,0-1.587,1.587A1.592,1.592,0,0,0-1.964,11.862Z" transform="translate(82.568 96.068)"/><circle class="c" cx="1.608" cy="1.608" r="1.608" transform="translate(83.358 104.736)"/><path class="c" d="M-1.2,11.955A1.636,1.636,0,0,0,.435,10.32,1.636,1.636,0,0,0-1.2,8.685,1.644,1.644,0,0,0-2.835,10.32,1.644,1.644,0,0,0-1.2,11.955Z" transform="translate(90.524 96.024)"/><circle class="c" cx="1.656" cy="1.656" r="1.656" transform="translate(92.03 104.687)"/><circle class="c" cx="1.668" cy="1.668" r="1.668" transform="translate(96.378 104.675)"/></g></g></svg>