<svg id="Layer_1" data-name="Layer 1" xmlns="http://www.w3.org/2000/svg" viewBox="0 0 30 30.83"><defs><style>.cls-1{fill:#383838;}</style></defs><title>like</title><path class="cls-1" d="M29.1,21A3.83,3.83,0,0,0,30,18.4a4,4,0,0,0-.84-2.22,3.45,3.45,0,0,0-.82-4c-1-.94-2.77-1.36-5.18-1.24A19.9,19.9,0,0,0,20,11.4h0c-.32,0-.66.13-1,.2a11.45,11.45,0,0,1,.81-3.75c.9-2.75.85-4.85-.17-6.26A4.12,4.12,0,0,0,16.35,0a1.63,1.63,0,0,0-1.24.57,4.31,4.31,0,0,0-.54,3.08c-.85,2.28-3.24,7.88-5.26,9.44l-.11.09a6.91,6.91,0,0,0-1.26,1.9,2.6,2.6,0,0,0-1.28-.33H2.72A2.69,2.69,0,0,0,0,17.4V27.89a2.7,2.7,0,0,0,2.68,2.69H6.62a2.69,2.69,0,0,0,1.55-.49l1.52.18a66.8,66.8,0,0,0,8.6.47q1.16.09,2.16.09a15.08,15.08,0,0,0,3-.27,5.59,5.59,0,0,0,4-2.49,4,4,0,0,0,.45-2.47,4.14,4.14,0,0,0,1.46-3.35A4.42,4.42,0,0,0,29.1,21ZM2.68,28.84a1,1,0,0,1-.94-1V17.4a1,1,0,0,1,.94-.94H6.62a.94.94,0,0,1,.94.94h0V27.89a.94.94,0,0,1-.94.94H2.68ZM27.45,20.2a.86.86,0,0,0-.12,1,2.47,2.47,0,0,1-.92,3.31.86.86,0,0,0-.29,1,2.25,2.25,0,0,1-.18,1.67,4,4,0,0,1-2.85,1.64,17.22,17.22,0,0,1-4.7.14H18.3a63.58,63.58,0,0,1-8.39-.46h0l-.65-.08a2.76,2.76,0,0,0,.06-.57V17.4a2.73,2.73,0,0,0-.13-.8,5.43,5.43,0,0,1,1.19-2.2c2.9-2.3,5.73-10,5.86-10.39a1,1,0,0,0,0-.43,4.08,4.08,0,0,1,.08-1.87,2.3,2.3,0,0,1,1.82.87c.66.91.63,2.54-.08,4.69-1.08,3.29-1.17,5-.31,5.78a1.39,1.39,0,0,0,1.4.25c.4-.09.77-.17,1.13-.23h.08c2-.43,5.53-.69,6.76.43a1.85,1.85,0,0,1,.22,2.36A.85.85,0,0,0,27.5,17a2.53,2.53,0,0,1,.75,1.42A2.42,2.42,0,0,1,27.45,20.2Z" transform="translate(0 0)"/></svg>