<svg xmlns="http://www.w3.org/2000/svg" width="334.025" height="162.27" viewBox="0 0 334.025 162.27"><defs><style>.a{fill:#eaeaeb;}.b{fill:#1487e3;}.c{fill:#4aafff;}.d{fill:#1a598c;}.e{fill:#2273b5;}.f{fill:#3788cc;}.g{fill:#e0e0e0;}.h,.i{fill:#ebebeb;}.h{mix-blend-mode:hard-light;isolation:isolate;}.j{fill:#fff;}.k{fill:#4dafff;}.l{fill:#c5c5c5;}.m{fill:#9e9e9e;}.n{fill:#353a3d;}.o{fill:#81807e;}.p{fill:#2d3133;}.q{fill:#decbc4;}.r{fill:#495055;}.s{fill:#eea886;}.t{fill:#a77860;}.u{fill:#434343;}.v{fill:#5b83c2;}.w{fill:#4e70a6;}.x{fill:#f5e2d9;}.y{fill:#323657;}.z{fill:#ad9f99;}.aa{fill:#69737a;}.ab{fill:#2f4363;}.ac{fill:#3b3b40;}.ad{fill:#d46946;}.ae{fill:#494f80;}.af,.ah{fill:#0ea2c8;}.af{fill-rule:evenodd;}.ag{fill:#1586c7;}.ai{fill:#242740;}.aj{fill:#2b2f4d;}.ak{fill:#d1c0ba;}.al{fill:#eea987;}.am{fill:#a87860;}.an{fill:#da9b5b;}.ao{fill:#fab46c;}.ap{fill:#514e58;}.aq{fill:#3e3b42;}.ar{fill:#ead8cf;}.as{fill:#279171;}.at{fill:#4caf91;}.au{fill:#2b2b2b;}.av{fill:#bdb69c;}.aw{fill:#80756b;}</style></defs><g transform="translate(-20 -101.535)"><g transform="translate(0 -15)"><g transform="translate(-2044.503 -1268.166)"><g transform="translate(2346.981 1481.054)"><path class="a" d="M2423.3,1504.992a14.509,14.509,0,0,0,1.4-3.8l2.772-.673-.122-3.1-.122-3.1-2.817-.452a14.516,14.516,0,0,0-1.695-3.678l1.483-2.434-2.276-2.1-2.276-2.1-2.31,1.671a14.509,14.509,0,0,0-3.8-1.4l-.673-2.772-3.1.122-3.1.122-.452,2.817a14.509,14.509,0,0,0-3.678,1.695l-2.434-1.483-2.1,2.276-2.1,2.276,1.671,2.309a14.508,14.508,0,0,0-1.4,3.8l-2.772.673.122,3.1.123,3.1,2.817.452a14.5,14.5,0,0,0,1.695,3.678l-1.483,2.434,2.276,2.1,2.276,2.1,2.309-1.671a14.508,14.508,0,0,0,3.8,1.4l.673,2.772,3.1-.122,3.1-.122.452-2.817a14.505,14.505,0,0,0,3.678-1.694l2.434,1.483,2.1-2.276,2.1-2.276Zm-20.234,1.074a10.859,10.859,0,1,1,15.345-.606A10.86,10.86,0,0,1,2403.065,1506.066Z" transform="translate(-2393.399 -1481.054)"/></g><g transform="translate(2338.554 1514.046)"><path class="a" d="M2352.262,1706.752a6.647,6.647,0,0,0,.641-1.742l1.271-.308-.056-1.419-.056-1.42-1.291-.207a6.654,6.654,0,0,0-.777-1.687l.68-1.116-1.043-.964-1.043-.964-1.059.766a6.655,6.655,0,0,0-1.742-.641l-.308-1.271-1.42.056-1.42.056-.207,1.291a6.655,6.655,0,0,0-1.687.777l-1.116-.68-.964,1.043-.964,1.044.766,1.059a6.653,6.653,0,0,0-.641,1.742l-1.271.309.056,1.42.056,1.42,1.292.207a6.648,6.648,0,0,0,.776,1.686l-.68,1.116,1.044.964,1.043.964,1.059-.766a6.652,6.652,0,0,0,1.742.641l.308,1.271,1.419-.056,1.42-.056.208-1.291a6.653,6.653,0,0,0,1.686-.777l1.116.68.964-1.044.964-1.044Zm-9.276.492a4.978,4.978,0,1,1,7.035-.278A4.978,4.978,0,0,1,2342.985,1707.245Z" transform="translate(-2338.554 -1695.778)"/></g></g><g transform="translate(0 8)"><g transform="translate(-1618.858 -914.192)"><rect class="a" width="41.887" height="38.356" rx="2" transform="translate(1714.592 1125.525)"/><path class="b" d="M2054.315,1176.559h9.855a.665.665,0,0,0,.665-.665h0a.665.665,0,0,0-.665-.665h-9.855a.665.665,0,0,0-.665.665h0A.664.664,0,0,0,2054.315,1176.559Z" transform="translate(-312.441 -45.154)"/><path class="c" d="M2054.315,1201.894h9.855a.665.665,0,0,0,.665-.665h0a.665.665,0,0,0-.665-.665h-9.855a.665.665,0,0,0-.665.665h0A.665.665,0,0,0,2054.315,1201.894Z" transform="translate(-312.441 -68.17)"/><path class="c" d="M2054.315,1227.227h9.855a.665.665,0,0,0,.665-.665h0a.665.665,0,0,0-.665-.665h-9.855a.665.665,0,0,0-.665.665h0A.664.664,0,0,0,2054.315,1227.227Z" transform="translate(-312.441 -91.184)"/><g transform="translate(1718.991 1128.616)"><g transform="translate(0 0)"><path class="c" d="M1829.813,1165.733a9.718,9.718,0,1,0-18.3,6.545c.074.206.154.408.239.606a9.719,9.719,0,0,0,18.062-7.151Zm-6.7,10.133a7.278,7.278,0,0,1-9.135-3.953q-.1-.222-.179-.454a7.286,7.286,0,1,1,9.314,4.407Z" transform="translate(-1810.942 -1159.284)"/></g><g transform="translate(0.444 0.004)"><path class="d" d="M1818.111,1166.877l-2.322-.725a9.732,9.732,0,0,1,8.987-6.82l.073,2.432a7.3,7.3,0,0,0-6.738,5.114Z" transform="translate(-1815.789 -1159.332)"/></g><g transform="translate(0 6.824)"><path class="e" d="M1813.981,1239.633l-2.23.971q-.128-.3-.239-.606a9.676,9.676,0,0,1-.127-6.169l2.322.725a7.252,7.252,0,0,0,.095,4.625Q1813.885,1239.411,1813.981,1239.633Z" transform="translate(-1810.942 -1233.829)"/></g><g transform="translate(0.81 12.629)"><path class="f" d="M1821.292,1300.623a9.672,9.672,0,0,1-1.507-2.419l2.23-.971a7.243,7.243,0,0,0,1.129,1.814Z" transform="translate(-1819.785 -1297.233)"/></g></g><g transform="translate(1740.548 1140.614)"><g transform="translate(0 0)"><path class="c" d="M2052.164,1290.728a4.02,4.02,0,1,0-3.438,7.268q.122.058.247.107a4.02,4.02,0,0,0,3.191-7.375Zm1.005,4.923a3.011,3.011,0,0,1-3.828,1.516c-.062-.025-.124-.051-.185-.08a3.014,3.014,0,1,1,4.014-1.435Z" transform="translate(-2046.423 -1290.341)"/></g><g transform="translate(0 1.264)"><path class="d" d="M2047.775,1308.3l-.891.467a4.026,4.026,0,0,1,.634-4.623l.732.69a3.019,3.019,0,0,0-.475,3.466Z" transform="translate(-2046.423 -1304.146)"/></g><g transform="translate(0.46 5.42)"><path class="c" d="M2053.907,1350.953l-.368.936c-.083-.033-.166-.068-.247-.107a4,4,0,0,1-1.842-1.768l.891-.467a3,3,0,0,0,1.381,1.325C2053.783,1350.9,2053.845,1350.929,2053.907,1350.953Z" transform="translate(-2051.45 -1349.548)"/></g><g transform="translate(2.549 6.826)"><path class="c" d="M2075.415,1366.1a4,4,0,0,1-1.148-.267l.368-.936a3,3,0,0,0,.861.2Z" transform="translate(-2074.267 -1364.899)"/></g></g><g transform="translate(1735.828 1147.963)"><path class="c" d="M2002.364,1373.948h-7.507v-.149h7.357v-3.18h.149Z" transform="translate(-1994.857 -1370.619)"/></g><g transform="translate(1735.828 1149.59)"><rect class="g" width="3.951" height="0.895" transform="translate(0 0)"/></g><rect class="h" width="37.43" height="16.626" rx="3" transform="translate(1729.862 1153.382)"/><g transform="translate(1735.385 1155.545)"><g transform="translate(0 1.223)"><rect class="g" width="1.659" height="11.005"/></g><g transform="translate(4.121 3.46)"><rect class="g" width="1.659" height="8.769"/></g><g transform="translate(8.241 1.814)"><rect class="g" width="1.659" height="10.414"/></g><g transform="translate(12.362 5.063)"><rect class="g" width="1.659" height="7.165"/></g><g transform="translate(16.482 2.152)"><rect class="g" width="1.659" height="10.076"/></g><g transform="translate(20.603 0.633)"><rect class="g" width="1.66" height="11.595"/></g><g transform="translate(24.723 0)"><rect class="g" width="1.659" height="12.228"/></g><g transform="translate(0 5.324)"><rect class="f" width="1.659" height="6.904"/></g><g transform="translate(4.121 6.727)"><rect class="f" width="1.659" height="5.501"/></g><g transform="translate(8.241 5.695)"><rect class="f" width="1.659" height="6.533"/></g><g transform="translate(12.362 7.733)"><rect class="f" width="1.659" height="4.495"/></g><g transform="translate(16.482 5.906)"><rect class="f" width="1.659" height="6.322"/></g><g transform="translate(20.603 4.954)"><rect class="f" width="1.66" height="7.275"/></g><g transform="translate(24.723 4.556)"><rect class="f" width="1.659" height="7.672"/></g></g></g><g transform="translate(31.836 -30.913)"><path class="i" d="M304.723,273.333H23.562l-30.371,9.806H327.216Z" transform="translate(-5.026 18.58)"/><g transform="translate(103.021 187.449)"><g transform="translate(24.031 17.737)"><g transform="translate(0 0)"><rect class="a" width="43.755" height="56.013" rx="2" transform="translate(0 0)"/></g><g transform="translate(27.277 4.651)"><g transform="translate(0 0)"><rect class="c" width="11.254" height="1.283"/></g></g><g transform="translate(30.268 7.47)"><g transform="translate(0 0)"><rect class="j" width="8.263" height="1.283"/></g></g><g transform="translate(18.216 10.288)"><g transform="translate(0 0)"><rect class="j" width="20.315" height="1.283"/></g></g><g transform="translate(5.161 18.396)"><rect class="c" width="13.939" height="1.283"/></g><g transform="translate(5.161 21.215)"><rect class="j" width="18.874" height="1.283"/></g><g transform="translate(5.161 24.034)"><rect class="j" width="25.162" height="1.283"/></g><g transform="translate(5.161 32.147)"><rect class="c" width="15.35" height="1.283"/></g><g transform="translate(5.161 34.966)"><rect class="j" width="21.237" height="1.283"/></g><g transform="translate(5.161 37.785)"><rect class="j" width="20.396" height="1.283"/></g></g><g transform="translate(14.254 8.073)"><g transform="translate(0 0)"><path class="c" d="M1090.885,1105.353A12.138,12.138,0,1,0,1080.5,1127.3c.247.117.5.225.746.324a12.138,12.138,0,0,0,9.636-22.268Zm3.035,14.864a9.089,9.089,0,0,1-11.559,4.576c-.188-.074-.375-.155-.56-.242a9.1,9.1,0,1,1,12.119-4.334Z" transform="translate(-1073.553 -1104.184)"/></g><g transform="translate(0 3.816)"><path class="e" d="M1077.633,1141.485l-2.691,1.41a12.155,12.155,0,0,1,1.914-13.96l2.212,2.083a9.114,9.114,0,0,0-1.434,10.467Z" transform="translate(-1073.552 -1128.935)"/></g><g transform="translate(1.389 16.366)"><path class="k" d="M1089.983,1214.579l-1.113,2.827c-.25-.1-.5-.207-.746-.324a12.085,12.085,0,0,1-5.56-5.337l2.691-1.41a9.061,9.061,0,0,0,4.169,4Q1089.7,1214.467,1089.983,1214.579Z" transform="translate(-1082.563 -1210.335)"/></g><g transform="translate(7.696 20.609)"><path class="k" d="M1126.937,1241.492a12.08,12.08,0,0,1-3.467-.806l1.113-2.827a9.048,9.048,0,0,0,2.6.6Z" transform="translate(-1123.47 -1237.859)"/></g></g><g transform="translate(61.314 62.133)"><g transform="translate(0 0)"><path class="c" d="M1087.944,1105.155a10.079,10.079,0,1,0-8.621,18.221c.2.1.412.187.62.269a10.079,10.079,0,0,0,8-18.49Zm2.52,12.342a7.547,7.547,0,0,1-9.6,3.8c-.156-.061-.311-.129-.465-.2a7.557,7.557,0,1,1,10.063-3.6Z" transform="translate(-1073.553 -1104.184)"/></g><g transform="translate(0 3.169)"><path class="e" d="M1076.94,1139.356l-2.234,1.171a10.093,10.093,0,0,1,1.589-11.592l1.836,1.73a7.568,7.568,0,0,0-1.191,8.691Z" transform="translate(-1073.552 -1128.935)"/></g><g transform="translate(1.154 13.589)"><path class="k" d="M1088.724,1213.859l-.924,2.348c-.208-.082-.415-.172-.62-.269a10.035,10.035,0,0,1-4.617-4.431l2.234-1.171a7.523,7.523,0,0,0,3.461,3.322Q1088.49,1213.766,1088.724,1213.859Z" transform="translate(-1082.563 -1210.335)"/></g><g transform="translate(6.39 17.113)"><path class="k" d="M1126.349,1240.876a10.034,10.034,0,0,1-2.879-.669l.924-2.348a7.513,7.513,0,0,0,2.158.5Z" transform="translate(-1123.47 -1237.859)"/></g></g><g transform="translate(0 30.264)"><path class="k" d="M1003.765,1258.167H981.1v-.451h22.215v-9.6h.451Z" transform="translate(-981.099 -1248.114)"/></g><g transform="translate(0 35.177)"><rect class="g" width="11.931" height="2.703" transform="translate(0)"/></g><g transform="translate(36.348)"><g transform="translate(0)"><path class="c" d="M1229.693,1056.206a6.611,6.611,0,1,0-12.45,4.453c.05.14.1.277.163.412a6.611,6.611,0,0,0,12.287-4.865Zm-4.556,6.894a4.951,4.951,0,0,1-6.214-2.689c-.044-.1-.085-.2-.122-.309a4.957,4.957,0,1,1,6.336,3Z" transform="translate(-1216.855 -1051.82)"/></g><g transform="translate(0.302 0.003)"><path class="d" d="M1220.392,1056.972l-1.579-.493a6.62,6.62,0,0,1,6.114-4.64l.049,1.654a4.965,4.965,0,0,0-4.583,3.479Z" transform="translate(-1218.813 -1051.839)"/></g><g transform="translate(0 4.643)"><path class="e" d="M1218.922,1085.881l-1.518.66c-.058-.135-.113-.272-.163-.412a6.58,6.58,0,0,1-.086-4.2l1.58.493a4.934,4.934,0,0,0,.064,3.146Q1218.856,1085.729,1218.922,1085.881Z" transform="translate(-1216.854 -1081.932)"/></g><g transform="translate(0.551 8.591)"><path class="k" d="M1221.452,1109.849a6.582,6.582,0,0,1-1.025-1.646l1.517-.661a4.934,4.934,0,0,0,.768,1.234Z" transform="translate(-1220.427 -1107.543)"/></g></g></g><g transform="translate(-19.979 223.449)"><g transform="translate(29.25 8.073)"><g transform="translate(0 0)"><path class="a" d="M1080.5,1105.353a12.138,12.138,0,1,1,10.383,21.944c-.247.117-.5.225-.746.324a12.138,12.138,0,0,1-9.636-22.268Zm-3.035,14.864a9.089,9.089,0,0,0,11.559,4.576c.188-.074.375-.155.56-.242a9.1,9.1,0,1,0-12.119-4.334Z" transform="translate(-1073.553 -1104.184)"/></g><g transform="translate(18.768 3.816)"><path class="l" d="M1074.987,1141.485l2.691,1.41a12.155,12.155,0,0,0-1.914-13.96l-2.212,2.083a9.114,9.114,0,0,1,1.434,10.467Z" transform="translate(-1073.553 -1128.935)"/></g><g transform="translate(15.474 16.366)"><path class="m" d="M1082.563,1214.579l1.113,2.827c.25-.1.5-.207.746-.324a12.085,12.085,0,0,0,5.56-5.337l-2.691-1.41a9.061,9.061,0,0,1-4.169,4Q1082.846,1214.467,1082.563,1214.579Z" transform="translate(-1082.563 -1210.335)"/></g><g transform="translate(12.874 20.609)"><path class="l" d="M1123.715,1241.492a12.08,12.08,0,0,0,3.467-.806l-1.113-2.827a9.048,9.048,0,0,1-2.6.6Z" transform="translate(-1123.47 -1237.859)"/></g></g><g transform="translate(18.213)"><g transform="translate(0)"><path class="a" d="M1217.243,1056.206a6.611,6.611,0,1,1,12.45,4.453c-.05.14-.1.277-.163.412a6.611,6.611,0,0,1-12.287-4.865Zm4.556,6.894a4.951,4.951,0,0,0,6.214-2.689c.044-.1.085-.2.122-.309a4.957,4.957,0,1,0-6.336,3Z" transform="translate(-1216.855 -1051.82)"/></g><g transform="translate(6.761 0.003)"><path class="l" d="M1223.4,1056.972l1.579-.493a6.62,6.62,0,0,0-6.114-4.64l-.049,1.654a4.965,4.965,0,0,1,4.583,3.479Z" transform="translate(-1218.813 -1051.839)"/></g><g transform="translate(11.158 4.643)"><path class="l" d="M1216.854,1085.881l1.518.66c.058-.135.113-.272.163-.412a6.58,6.58,0,0,0,.086-4.2l-1.58.493a4.934,4.934,0,0,1-.064,3.146Q1216.92,1085.729,1216.854,1085.881Z" transform="translate(-1216.854 -1081.932)"/></g><g transform="translate(10.39 8.591)"><path class="m" d="M1221.688,1109.849a6.582,6.582,0,0,0,1.025-1.646l-1.517-.661a4.934,4.934,0,0,1-.768,1.234Z" transform="translate(-1220.427 -1107.543)"/></g></g></g><g transform="translate(216.084 139.449)"><g transform="translate(22.15 148.374)"><path class="n" d="M1312.656,1819.176s-1.689,2.526-4.058,3.072-4.7,1.414-4.72,2.909,6.849,2.387,9.561.88c4.046-2.249,4.457-1.571,4.906-2.7s-.539-4.131-.51-4.489C1317.871,1818.411,1312.656,1819.176,1312.656,1819.176Z" transform="translate(-1303.878 -1818.715)"/></g><g transform="translate(30.924 146.854)"><path class="o" d="M1336.144,1813.906a10.827,10.827,0,0,0-.262,1.246c.046.026,5.338.656,5.178-.323-.13-.794-.315-1.657-.315-1.657Z" transform="translate(-1335.877 -1813.172)"/></g><g transform="translate(41.553 148.04)"><path class="n" d="M1381.828,1818.125a7.434,7.434,0,0,1-3.263,3.24c-2.2.88-3.964,1.891-3.924,3.348s5.378,2.933,9.262.137c2.454-1.766,3.232-1.775,3.625-2.887s-.683-4-.669-4.352C1386.878,1817.18,1381.828,1818.125,1381.828,1818.125Z" transform="translate(-1374.64 -1817.499)"/></g><g transform="translate(48.681 146.472)"><path class="o" d="M1400.636,1812.719a11.868,11.868,0,0,0,.06,1.255c.045.023,5.161.445,5.031-.514a7.9,7.9,0,0,0-.5-1.681Z" transform="translate(-1400.636 -1811.78)"/></g><g transform="translate(22.737 67.962)"><path class="p" d="M1313.206,1531.058s-4.752,20.963-5.838,27.348c-.924,5.435-1.66,11.094-1.218,15.017.549,4.857,7.424,30.031,7.137,31.455s7.195.228,7.195.228-5.229-28.08-4.185-33.306c.774-3.871,7.553-29.584,8.591-28.265s2.327,24.267,3.1,28.077,3.131,33.909,3.131,33.909,5.281.779,6.692-.415c0,0,.642-25.7.152-32.844-.187-2.722,3.189-32.635-1.14-44.677C1334.532,1521.221,1313.206,1531.058,1313.206,1531.058Z" transform="translate(-1306.018 -1525.442)"/></g><g transform="translate(8.529 24.861)"><path class="q" d="M1254.908,1397.909c3.387-.476,14.043,4.245,15.012,3.888.666-.244,2.229-5.336,3.345-9.19.66-2.28,1.164-4.127,1.234-4.279l0-.008a22.72,22.72,0,0,0,.036,4.135c.014.148.031.3.048.451q.007.059.015.119a20.1,20.1,0,0,0,.48,2.58,23.561,23.561,0,0,1,.558,4.838v.007c0,.014,0,.027,0,.042,0,.042,0,.083,0,.125,0,.016,0,.034,0,.051.095,3.3-.134,6.859-.228,8.752a6.912,6.912,0,0,0,.844,4.292h0l1.021-.143.737-.1h.009l.986-.138,3.865-.544,1.4-.2.331-.047,2.448-.344,6.9-.971.758-.106.312-.044,2.6-.367,1.177-.165h0s1-7.088,1.076-10.918c.07-3.519,1.953-10.664,2.26-11.806a.183.183,0,0,1,.007-.024.255.255,0,0,1,.008-.031c.006-.02.01-.036.014-.051s0-.016.006-.024a.022.022,0,0,1,0-.007.021.021,0,0,0,0-.007.046.046,0,0,0,0-.012s5.635,5.919,6.728,8.5c.333.783,1.352,2.915,2.65,5.51a15.593,15.593,0,0,0,1.443-3.166c0-.036,0-.075,0-.115-.083-2.554-2.76-12.91-4.871-19.675-1.64-3.3-3.054-5.963-3.508-6.288a49.641,49.641,0,0,0-6.1-2.734l-.246-.1-.693-.272-.333-.128-.179-.068-.144-.055h0a19.389,19.389,0,0,0-2.419-.827c-.033,0-.086,0-.157,0s-.191.007-.319.015c-1.56.092-6.217.528-7.715.67l-.467.044h0l-1.788.817h0l-.1.046c-.649.3-1.4.695-2.2,1.13-1.558.854-3.278,1.851-4.705,2.531-1.4.665-3.315,1.593-3.478,1.723l-7.089,20.444-12.3-2.248Z" transform="translate(-1254.198 -1368.248)"/></g><g transform="translate(29.925 67.154)"><path class="r" d="M1332.9,1525.669s-.519.622-.67,3.253c0,0,21.357-2.491,23.614-3.473,0,0,.088-2.9-.39-2.95C1354.93,1522.443,1332.9,1525.669,1332.9,1525.669Z" transform="translate(-1332.232 -1522.497)"/></g><g transform="translate(40.085 16.489)"><path class="s" d="M1378.008,1345.362c-.066,3.352-6.556,5.185-6.556,5.185s-2.714-3.4-2.066-3.729c.254-.128.358-.636.39-1.206a11.756,11.756,0,0,0-.037-1.52c-.019-.237-.038-.389-.038-.389s.927-.978,2.107-2.144c2.062-2.038,4.9-4.649,4.9-3.611a.924.924,0,0,1-.024.2C1376.186,1340.484,1378.008,1345.362,1378.008,1345.362Z" transform="translate(-1369.286 -1337.713)"/></g><g transform="translate(48.269 67.546)"><path class="n" d="M1399.134,1524.05s.466,2.939.507,3.706l.988-.2s-.272-3.11-.432-3.631Z" transform="translate(-1399.134 -1523.927)"/></g><g transform="translate(31.993 69.843)"><path class="n" d="M1340.158,1532.443s-.375,2.672-.383,3.681l1.045-.136s.214-3.337.334-3.685Z" transform="translate(-1339.775 -1532.303)"/></g><g transform="translate(39.893 19.226)"><path class="t" d="M1375,1347.7h0c-.013.02-.288.432-.758,1.023a13.592,13.592,0,0,1-4.975,4.139,11.778,11.778,0,0,0-.037-1.52,3.393,3.393,0,0,1-.645-.078A19.961,19.961,0,0,1,1370,1349.2l1.3-.39Z" transform="translate(-1368.587 -1347.699)"/></g><g transform="translate(35.517 5.506)"><path class="s" d="M1364.663,1308.921c-.561,1.221-1.094,2.106-1.246,2.457h0a4.331,4.331,0,0,1-.758,1.022c-1.069,1.152-3.057,2.672-5.012,2.618a3.355,3.355,0,0,1-.645-.078,3.068,3.068,0,0,1-2.234-1.543c-4.048-7.927-1.117-14.409-1.117-14.409s11.07-3.13,12.8.2C1367.669,1301.53,1365.982,1306.051,1364.663,1308.921Z" transform="translate(-1352.626 -1297.657)"/></g><g transform="translate(35.19 0)"><path class="u" d="M1352.787,1284.417s-1.028-.057-1.282-2.006c-.251-1.926.257-2.459.257-2.459a45.72,45.72,0,0,1,6.211-2.162c1.641-.249,5.677-.488,6.623.594,0,0,2.3-.534,2.925,3.281.993,6.053-3.385,11.931-3.385,11.931s.037-3.955-.835-4.478-1.625.722-1.625.722l-1.784.319s2.709-5.85-.541-6.067S1354.647,1284.756,1352.787,1284.417Z" transform="translate(-1351.435 -1277.578)"/></g><g transform="translate(45.423 9.016)"><path class="s" d="M1388.811,1312.129c.17-1.742,3.32-2.407,3.109-.581s-1.762,3.58-2.479,3.519S1388.681,1313.457,1388.811,1312.129Z" transform="translate(-1388.754 -1310.46)"/></g><g transform="translate(42.697 25.689)"><path class="v" d="M1403.462,1400.7c0-.036,0-.075,0-.115a98.655,98.655,0,0,0-3.426-19.513c-1.025-3.285-1.261-5.579-1.658-5.863-.687-.494-6.8-2.3-9.4-3.32l-.246-.1-.693-.272-.333-.128-.179-.068-.144-.055-.014.014a42.231,42.231,0,0,0-2.865,3.661c-2.68,3.812-6.171,9.983-5.636,15.681.171,1.829.384,4.456.739,7.4.031.252.063.505.095.763.086.678.181,1.371.284,2.072q.093.631.2,1.271c.709,4.418,2.934,7.43,4.909,11.033l.051.091.028.052.126.231c.068.126.135.254.2.381.039.074.077.146.114.221.378.725.748,1.467,1.107,2.212q.348.721.682,1.444l.069.15s.364.845.83,1.93l.542,1.262c.128.3.256.6.38.886.109.253.215.5.315.734.224.523.42.98.556,1.3.1.239.169.4.192.456.679,1.7,1.17,3.013,1.4,3.626.091.247.138.38.138.38l6.832-3.771c1.3-.649.619-4.146.131-5.511a31.155,31.155,0,0,0-1.618-3.611c-.263-.514-.538-1.036-.82-1.561,2.138-3.736,4.3-7.587,5.676-10.206A15.561,15.561,0,0,0,1403.462,1400.7Zm-10.863-10.69a.22.22,0,0,1,.007-.024c0-.01,0-.021.008-.031s.009-.034.014-.051a.215.215,0,0,1,.007-.024.018.018,0,0,1,0-.007.036.036,0,0,0,0-.007s3.323,5.194,3.073,9.707a21.348,21.348,0,0,1-1.754,4.753s0,0,0,0c-.37.829-.781,1.724-1.22,2.658-.016-.038-.032-.078-.048-.117a11.78,11.78,0,0,1-1.049-4.278S1391.919,1392.692,1392.6,1390.01Z" transform="translate(-1378.812 -1371.269)"/></g><g transform="translate(3.307 26.455)"><path class="v" d="M1236.548,1395.2l15.469,3.368,7.374-19.284c.163-.129,2.277-1.267,3.677-1.933,1.457-.694,3.3-1.55,4.937-2.305.781-.361,1.517-.7,2.139-.984l.051.041a91.246,91.246,0,0,0-2.095,10.629v0q-.06.382-.12.779c0,.031-.009.062-.014.092-.026.176-.054.353-.08.534,0,.022-.006.043-.01.063-.018.121-.036.243-.053.367q-.067.45-.133.916c-.527,3.695-1.266,9.982-1.977,16.328v0c-.562,5-1.841,10.136-2.248,13.966,0,0,0,0,0,.008a26.451,26.451,0,0,1-.532,2.88c-.029.128-.059.257-.09.388-1.145,4.836-3.366,11.679-3.366,11.679l-.647-.6-1.917-1.77a1.554,1.554,0,0,1-.431-1.6c1.063-3.429,4.676-15.564,5.338-24.1a.026.026,0,0,0,0-.007c.208-2.68-.576-5.205-1.031-7.6q-.012.031-.023.063c-.381,1.058-.8,2.208-1.227,3.328h0c-1.14,3.007-2.307,5.793-2.793,5.971-1.081.4-21.45-5.172-21.591-5.971Z" transform="translate(-1235.156 -1374.064)"/></g><g transform="translate(42.697 25.688)"><path class="w" d="M1385.58,1379.584l-3.157,1.78,1.349,1.376-3.592,19.392c-.732-4.545-1.065-8.862-1.313-11.509-.826-8.81,7.968-18.749,8.515-19.358.422.16.879.337,1.35.524Z" transform="translate(-1378.812 -1371.266)"/></g><g transform="translate(33.129 26.41)"><path class="w" d="M1349.185,1373.9a102.2,102.2,0,0,0-2.554,13.469c-.527,3.694-1.266,9.982-1.978,16.328l-.735-18.161,1.5-1.629-1.337-1.671,2.861-7.305c.781-.361,1.517-.7,2.139-.985Z" transform="translate(-1343.919 -1373.898)"/></g><g transform="translate(42.251 24.137)"><path class="x" d="M1386.361,1367.2l-2.618-1.59s-.073,1.436-6.556,5.185l1.841,5.186Z" transform="translate(-1377.187 -1365.61)"/></g><g transform="translate(38.396 24.861)"><path class="x" d="M1365.257,1368.248a12.21,12.21,0,0,0,1.725,4.462l-3.593,4.684-.262-7.6Z" transform="translate(-1363.127 -1368.248)"/></g><g transform="translate(40.075 29.323)"><path class="y" d="M1371.436,1384.521s.7,2.786.446,3.565a3.4,3.4,0,0,1-2.632-.139A12.239,12.239,0,0,1,1371.436,1384.521Z" transform="translate(-1369.25 -1384.521)"/></g><g transform="translate(38.484 61.389)"><g transform="translate(0)"><path class="z" d="M1363.624,1509.574c-.39-1.965-.019-7.854,0-8.1l.334.021c0,.061-.384,6.095,0,8.017Z" transform="translate(-1363.447 -1501.471)"/></g></g><g transform="translate(37.206 68.587)"><path class="aa" d="M1362.968,1527.721s-3.143.375-4.182.634l.136,3.522,4.115-.439Z" transform="translate(-1358.787 -1527.721)"/></g><g transform="translate(37.704 32.108)"><path class="y" d="M1363.6,1395.07a49.456,49.456,0,0,0-2.933,18.758c.592,10.271,1.565,14,1.565,14l2.161,2.709.953-3.33s-2.9-13.1-1.028-25.838c.339-2.309.843-6.685.843-6.685Z" transform="translate(-1360.603 -1394.68)"/></g><g transform="translate(47.878 74.284)"><path class="s" d="M1401.064,1548.515s-.752,1.5-1.5,1.754a6.516,6.516,0,0,0-1.849,1.473l5.3,2.789a14.5,14.5,0,0,0,1.473-4.513C1404.542,1548.264,1401.064,1548.515,1401.064,1548.515Z" transform="translate(-1397.711 -1548.502)"/></g><g transform="translate(50.378 74.437)"><path class="q" d="M1407.178,1549.06l-.351.705s3.363,2.46,4.27,2.617l.311-.94Z" transform="translate(-1406.827 -1549.06)"/></g><g transform="translate(50.378 57.51)"><path class="v" d="M1406.827,1504.282a25.793,25.793,0,0,0,4.644,3.045l7.143-12.848-3.7-7.155S1406.994,1503.03,1406.827,1504.282Z" transform="translate(-1406.827 -1487.324)"/></g><g transform="translate(27.585 39.06)"><path class="ab" d="M1325.154,1425.941c-.117,2.376-.1,4.488-.1,4.488v0c0,.012,0,.076-.009.182,0-.04-.01-.079-.014-.119-.381,1.058-.8,2.208-1.227,3.328a35.794,35.794,0,0,1-.1-3.627c.17-6.664,2.266-10.159,2.266-10.159A22.645,22.645,0,0,0,1325.154,1425.941Z" transform="translate(-1323.698 -1420.035)"/></g><g transform="translate(55.329 68.492)"><path class="ab" d="M1430.605,1528.936l-5.719,6.907,4.9-8.467C1430.066,1527.9,1430.341,1528.421,1430.605,1528.936Z" transform="translate(-1424.886 -1527.375)"/></g><g transform="translate(0 41.873)"><path class="y" d="M1228.39,1414.47h-6.526a.969.969,0,0,1-.942-.741l-2.834-11.7a.969.969,0,0,1,.942-1.2h6.526a.969.969,0,0,1,.942.741l2.835,11.7A.969.969,0,0,1,1228.39,1414.47Z" transform="translate(-1218.061 -1400.829)"/></g><g transform="translate(1.079 46.39)"><path class="s" d="M1229.321,1455.188c.646-.6,1.892-.945,2.959-1.658a.838.838,0,0,0,.176-1.449c1.1-.377.978-.877.838-1.218-.19-.461-1.387-.33-1.387-.33a11.851,11.851,0,0,0,1.515-.433c.442-.2.292-.966-.388-1.209s-3.448.439-3.448.439.452-.221,1.817-.907,1.665-1.308.86-1.608c-.56-.208-1.66.228-3.771,1.646-1.59,1.068-1.461,1.207-1.461,1.207S1228.549,1455.9,1229.321,1455.188Z" transform="translate(-1227.03 -1446.768)"/></g></g></g></g><g transform="translate(64.221 125)"><g transform="translate(7.497)"><path class="ac" d="M1738.24,1267.67s-5.066-.17-6.682,3.982a12.262,12.262,0,0,0,.065,8.849c1.2,3.95,1.3,5.384.72,7.768-.517,2.113-.992,3.2-1.588,5.18s.4,1.756.485,1.9,19.839,1.968,19.839,1.968-.528-4.279-1.919-5.272-2.766-1.195-1.707-5.429,1.729-6.2,1.136-9.27c-.687-3.558-1.12-5.782-4.465-8.115A9,9,0,0,0,1738.24,1267.67Z" transform="translate(-1730.564 -1267.634)"/></g><path class="ad" d="M1725.218,1827.805a46.731,46.731,0,0,0,3.909,5.136s2.5.915,2.745,2.662.208,2.912-2.745,2.995-4.888-.447-5.429-2.235a8.146,8.146,0,0,0-1.724-3.006v3.743h-.665s-.167-3.618-.208-4.284-.478-3.224.925-4.357A3.9,3.9,0,0,1,1725.218,1827.805Z" transform="translate(-1715.891 -1688.104)"/><path class="ad" d="M1778.911,1812a11.926,11.926,0,0,0,1.393,2.329c.668.872,2.745,4.45,3.659,4.7s3.743.748,3.992,2.329.374,2.7-2.412,2.828-4.616.291-5.947-1.663a14.485,14.485,0,0,0-3.452-3.369v5.1h-1.081s-.5-5.307-.79-5.682-1.039-4.449,1.539-6.57S1778.911,1812,1778.911,1812Z" transform="translate(-1755.636 -1675.609)"/><path class="s" d="M1712.166,1503.244a29.769,29.769,0,0,0-4.085,10.083c-.954,5.427.177,23.56.135,26.243s-2.536,9.357-2.037,14.409,4.668,29.785,4.668,29.785l3.191-.654s-.312-25.638,0-27.759.938-9.851,1.063-10.725,7.92-23.8,7.92-27.717S1720.65,1496.861,1712.166,1503.244Z" transform="translate(-1704.711 -1443.408)"/><path class="s" d="M1764.872,1511.417s5.78,22.061,6.466,25.118,1.68,5.577,1.68,6.875a45.418,45.418,0,0,1-1.119,7.846l-8.883,34.932-3.684.579s2.131-21.466,2.236-25.584,3.282-9.989,2.658-11.735-10.043-21.895-10.043-21.895S1747.052,1505.013,1764.872,1511.417Z" transform="translate(-1739.742 -1449.792)"/><path class="s" d="M1732.206,1833.243s-2.853,1.6-4.69-.453a14.482,14.482,0,0,1-2.41-4.028l3.191-.655Z" transform="translate(-1718.97 -1688.405)"/><path class="s" d="M1787.823,1820.183s-2.5.624-3.452,0-4.208-6.12-5.285-6.449c0,0,1.043-2.118,3.684-.579C1782.77,1813.156,1787.116,1819.269,1787.823,1820.183Z" transform="translate(-1759.495 -1676.76)"/><path class="ae" d="M1733.766,1541.885s-13.37,5.74-33.276,5.74c0,0,2.1-30.163,4.991-36.659s20.6.656,20.6.656S1733.766,1536.443,1733.766,1541.885Z" transform="translate(-1700.489 -1448.268)"/><g transform="translate(20.156 24.205)"><path class="ae" d="M1809.513,1390.456s-12.194,1.05-15.211-.294c-1.511-.672-3.557-3.459-5.447-6.516-.321-.52-.638-1.047-.946-1.573-2.311-3.938-4.178-7.807-4.178-7.807s-5.578-7.018.359-9.525a7.209,7.209,0,0,1,3.738,2.858,27.561,27.561,0,0,1,2.836,6.64c.283,1.1,5.057,10.739,5.356,11.011s3.3.09,5.613.309c3.773.356,7.753.564,7.753.564Z" transform="translate(-1781.354 -1364.741)"/></g><g transform="translate(2.426 22.301)"><path class="ae" d="M1735,1374.929c-1.5,3.472-.086,4.631-.772,8.1s-.931,13.366-.8,15.295-17.1,3.912-21.089.4c0,0,1.329-7.5,3.77-12.171.464-.886.242-4.378-.229-5.578-.145-.367-.722-1.787-1.455-3.581l0,0c-.762-1.865-1.692-4.136-2.475-6.048-.928-2.266-1.652-4.031-1.652-4.031s-.595-5.587,1.725-7.388c2.016-1.565,7.507-2.123,8.493-2.466a16.873,16.873,0,0,1,5.87-.192,32.324,32.324,0,0,0,4.159,1.673c1.072.214,5.231,5.616,5.96,7.589S1736.5,1371.456,1735,1374.929Z" transform="translate(-1710.224 -1357.103)"/></g><g transform="translate(12.981 14.675)"><path class="s" d="M1759.643,1330.734a73.659,73.659,0,0,0-.487,7.507s-2.58,3.135-6.228-3.831a12.239,12.239,0,0,0-.248-6.7C1751.525,1323.792,1759.643,1330.734,1759.643,1330.734Z" transform="translate(-1752.568 -1326.509)"/></g><path class="s" d="M1741.607,1358.305s2.207,6.517,8.265,6.038,2.872-5.5,2.872-5.5a13.373,13.373,0,0,0-1.935-.947c-.425-.082-6.012-.319-6.012-.319Z" transform="translate(-1731.358 -1335.156)"/><g transform="translate(40.806 38.216)"><g transform="translate(0.538 2.94)"><path class="af" d="M38.143,2.659l-.035-.005L38.1,2.619l-.016.031-.035-.006.025.025-.016.031.031-.016.025.025-.006-.035Zm.164-.121-.058-.009-.009-.058-.026.053-.058-.009.042.042-.027.053.053-.027.042.042-.009-.058Zm.138-.1-.027-.168.151-.077h0L38.4,2.168,38.374,2l-.077.152-.168-.027.121.12-.077.152.151-.078Zm-.465.034-.006-.037.034-.017-.037-.006-.006-.037-.017.034L37.91,2.4l.027.026-.017.034.034-.017Zm-1.922.046a.21.21,0,1,0-.175-.24A.21.21,0,0,0,36.058,2.52Zm-.23.525h0l0-.017v0l0-.018h0l0-.017h0l0-.017v0l0-.016h0l0-.017v0l0-.017h0L35.86,2.9h0l.006-.017h0l.007-.017h0l.007-.017h0l.008-.017h0l.009-.016h0l.009-.016h0l.01-.016h0l.023-.033h0l.012-.016a.746.746,0,0,0-.267.134c-.4.3-.512.859-.9.675.176.142.416.043.57-.042.216-.118.165-.15.277.012a6.36,6.36,0,0,1,.4.824.522.522,0,0,1,.134-.084c-.036-.1-.073-.2-.109-.291A2.12,2.12,0,0,1,35.828,3.045Zm.4.923c-.046-.139-.1-.283-.141-.44-.14-.484-.1-.936.515-.947.313-.006.677.1.906.1a.845.845,0,0,0,.651-.268c-.4.594-.853.425-1.394.481h0l-.026,0c-.612.079-.286.84-.249,1.31a.527.527,0,0,0-.09-.01.517.517,0,0,0-.1.006c-.023-.079-.049-.158-.076-.238Zm1.809-1.687.038.038-.009-.053.048-.024-.053-.008L38.05,2.18l-.024.048-.053-.008.038.038-.024.048Z" transform="translate(-34.792 -2)"/><path class="ag" d="M0,43.171H.2V43.7H.39v-.527h.2V43H0Z" transform="translate(5.072 -40.783)"/><path class="ag" d="M10.141,43.2l.064.232H10.08Zm.336.5-.259-.693h-.154l-.258.693h.2l.042-.136h.185l.041.136Z" transform="translate(-5.346 -40.783)"/><path class="ag" d="M23.65,43.7V43h-.19v.527h-.314V43.7Z" transform="translate(-19.242 -40.783)"/><path class="ag" d="M33.744,43.532V43.7h.494V43h-.485v.166h.295v.1H33.8v.154h.252v.109Z" transform="translate(-30.405 -40.783)"/><path class="ag" d="M44.933,43.357V43.7h.19V43h-.148l-.278.353V43h-.19V43.7h.151Z" transform="translate(-41.873 -40.783)"/><path class="ag" d="M57.178,43.171h.2V43.7h.19v-.527h.2V43h-.59Z" transform="translate(-55.204 -40.783)"/><path class="ag" d="M68.738,45.318a.346.346,0,0,1,.051,0c.125,0,.148.169-.02.121-.043-.012-.071-.027-.079-.067s.009-.045.049-.051m.026-.384a.445.445,0,0,0-.139.022.342.342,0,0,0-.12.067.326.326,0,0,0-.083.116.411.411,0,0,0-.031.168c0,.009,0,.021,0,.036a.389.389,0,0,0,.006.048.294.294,0,0,0,.015.052.175.175,0,0,0,.028.048.132.132,0,0,0,.044.035.14.14,0,0,0,.063.013.132.132,0,0,0,.046-.007.089.089,0,0,0,.03-.018.074.074,0,0,0,.018-.023.1.1,0,0,0,.008-.023.263.263,0,0,0,.076.05.235.235,0,0,0,.1.019.2.2,0,0,0,.07-.011.147.147,0,0,0,.026-.255.18.18,0,0,0-.061-.026.3.3,0,0,0-.068-.008.217.217,0,0,0-.064.008.277.277,0,0,0-.038.015.128.128,0,0,1,0-.036.066.066,0,0,1,.017-.028.077.077,0,0,1,.032-.018.17.17,0,0,1,.05-.006.227.227,0,0,1,.073.011.137.137,0,0,1,.051.029l.031-.095a.254.254,0,0,0-.081-.037.372.372,0,0,0-.093-.011.205.205,0,0,0-.1.031.14.14,0,0,0-.058.052c-.043.072-.024.114-.024.2,0,.014,0,.029,0,.043,0,.045-.024.074-.054.074a.042.042,0,0,1-.037-.019.142.142,0,0,1-.021-.044.264.264,0,0,1-.009-.052q0-.026,0-.042a.33.33,0,0,1,.021-.121.273.273,0,0,1,.062-.1.282.282,0,0,1,.1-.063A.345.345,0,0,1,68.769,45a.338.338,0,0,1,.126.022.271.271,0,0,1,.095.062.268.268,0,0,1,.059.094.332.332,0,0,1,.021.119.346.346,0,0,1-.019.116A.276.276,0,0,1,69,45.51a.263.263,0,0,1-.089.064.3.3,0,0,1-.121.023.281.281,0,0,1-.046,0l-.039-.008-.035-.012-.035-.014-.019.066a.413.413,0,0,0,.087.029.425.425,0,0,0,.089.01.365.365,0,0,0,.138-.026.337.337,0,0,0,.113-.074.343.343,0,0,0,.076-.116.4.4,0,0,0,.028-.153.374.374,0,0,0-.031-.158.337.337,0,0,0-.083-.114.349.349,0,0,0-.121-.069A.449.449,0,0,0,68.763,44.934Z" transform="translate(-67.185 -42.608)"/><path class="ah" d="M.739,60.729.3,60.211H.719v-.223H.008v.19l.409.518H0v.223H.739Z" transform="translate(4.923 -56.846)"/><path class="ah" d="M15.878,60.7v.223h.664v-.931h-.652v.223h.4v.131h-.338v.207h.338V60.7Z" transform="translate(-11.74 -56.846)"/><path class="ah" d="M30.9,60.461v.458h.256v-.931h-.2l-.374.473v-.473h-.256v.931h.2Z" transform="translate(-27.137 -56.846)"/><path class="ah" d="M47.547,60.155a.726.726,0,0,1,.081-.042.74.74,0,0,1,.079-.03.287.287,0,0,1,.086-.014.119.119,0,0,1,.054.011.037.037,0,0,1,.02.035.041.041,0,0,1-.012.03.112.112,0,0,1-.034.022.428.428,0,0,1-.054.019l-.073.022a.952.952,0,0,0-.116.043.361.361,0,0,0-.089.056.214.214,0,0,0-.056.078.282.282,0,0,0-.02.111.293.293,0,0,0,.031.141.252.252,0,0,0,.081.091.344.344,0,0,0,.114.049.554.554,0,0,0,.128.015.722.722,0,0,0,.1-.008.918.918,0,0,0,.107-.022.94.94,0,0,0,.1-.034.651.651,0,0,0,.091-.045l-.11-.224a.769.769,0,0,1-.1.051.686.686,0,0,1-.1.035.378.378,0,0,1-.108.016.11.11,0,0,1-.058-.011.034.034,0,0,1-.016-.03.042.042,0,0,1,.016-.033.149.149,0,0,1,.045-.024l.066-.021.079-.025A.688.688,0,0,0,48,60.373a.287.287,0,0,0,.073-.055.2.2,0,0,0,.043-.07.274.274,0,0,0,.014-.09.313.313,0,0,0-.028-.136.28.28,0,0,0-.077-.1.343.343,0,0,0-.111-.06.423.423,0,0,0-.132-.02.5.5,0,0,0-.1.01.8.8,0,0,0-.094.025q-.045.015-.085.033l-.071.033Z" transform="translate(-45.081 -56.709)"/><path class="ah" d="M61.951,60.254l.087.312h-.169Zm.451.665-.347-.931h-.207l-.346.931h.27l.056-.182h.248l.055.182Z" transform="translate(-60.072 -56.846)"/><path class="ah" d="M79.972,60.41h-.161a.057.057,0,0,1-.044-.026.117.117,0,0,1-.02-.073.105.105,0,0,1,.024-.074.066.066,0,0,1,.047-.026h.155Zm.256.509v-.931H79.8a.283.283,0,0,0-.126.028.325.325,0,0,0-.1.073.342.342,0,0,0-.065.1.311.311,0,0,0-.024.117.331.331,0,0,0,.035.151.308.308,0,0,0,.1.115l-.21.342H79.7l.177-.286h.1v.286Z" transform="translate(-78.869 -56.846)"/></g><path class="ai" d="M1218.729,1413.651h4.5a.748.748,0,0,0,.649-.7l1.954-11c.1-.573-.217-1.125-.649-1.125h-4.5a.748.748,0,0,0-.649.7l-1.954,11C1217.978,1413.1,1218.3,1413.651,1218.729,1413.651Z" transform="translate(-1218.543 -1401.154)"/><g transform="translate(4.676 5.711)"><path class="s" d="M1895.026,1399.867s2.379-.553,3.144.592a4.461,4.461,0,0,1,.6,3.3c-.191.682-.807,2.438-1.612,2.077C1894.578,1404.682,1895.026,1399.867,1895.026,1399.867Z" transform="translate(-1894.996 -1399.733)"/></g><g transform="translate(5.78 4.505)"><path class="s" d="M1900.706,1396.259s-.333-1.607-.976-1.333-.062,1.335-.062,1.335Z" transform="translate(-1899.426 -1394.894)"/></g><g transform="translate(4.706 5.444)"><path class="s" d="M1895.115,1399.062s.039-.919,1.7.026S1895.115,1399.062,1895.115,1399.062Z" transform="translate(-1895.115 -1398.661)"/></g></g><path class="aj" d="M1807.65,1418.358a40.725,40.725,0,0,0,1.892-5.282,31.8,31.8,0,0,1-.946,6.857c-.321-.519-.637-1.047-.946-1.573Z" transform="translate(-1780.939 -1376.823)"/><path class="ak" d="M1815.24,1412.831c0-.054,0-.081,0-.081A.8.8,0,0,1,1815.24,1412.831Z" transform="translate(-1786.637 -1376.578)"/><path class="aj" d="M1755.178,1418.134l-7.554-13.3s2.639,13.266,4.637,13.712A3.272,3.272,0,0,0,1755.178,1418.134Z" transform="translate(-1735.876 -1370.637)"/><g transform="translate(1.903 24.79)"><path class="ae" d="M1706.311,1367.177s-3.623,1.8-2.374,6.472a19.574,19.574,0,0,0,3.685,7.757c1.127,1.649,3.427,6.088,3.708,6.586s3.052,7.744,5.593,8.567,19.581-3.088,19.865-2.65,0-4.8,0-4.8-10.308.723-11.6.635c-2.1-.142-5.456.714-6.265-1.1-.949-2.132-4.355-9.138-4.713-10.292S1709.672,1365.991,1706.311,1367.177Z" transform="translate(-1703.675 -1367.089)"/></g><g transform="translate(10.658 1.757)"><path class="al" d="M1751.711,1275.619s5.589,3.648,3.772,12.467-8.415,3.97-9.131,3.47-2.932-6.019-3.019-8.427C1743.252,1280.862,1742.069,1271.773,1751.711,1275.619Z" transform="translate(-1743.247 -1274.682)"/></g><g transform="translate(10.16 0.936)"><path class="ac" d="M1749.829,1274.915c-.583-.172-2.55,3.63-3.609,4.568a9.8,9.8,0,0,0-3.2,5.874c-.19,2.58-2.368-5.639-1.614-8.688s1.758-7.522,8.569-3.975,5.049,9.888,5.049,9.888S1752.774,1275.785,1749.829,1274.915Z" transform="translate(-1741.251 -1271.387)"/></g><g transform="translate(11.569 9.341)"><path class="al" d="M1749.352,1306.319c-.18-1.044-2.483-1.927-2.449-.359s1.306,3.378,2.024,3.264S1749.519,1307.281,1749.352,1306.319Z" transform="translate(-1746.903 -1305.108)"/></g><path class="am" d="M1757.861,1343.848c.041.078,1.37,2.633,5.439,3.277.09-1,.217-2.219.217-2.219A6.542,6.542,0,0,1,1757.861,1343.848Z" transform="translate(-1743.561 -1324.851)"/><g transform="translate(34.56 45.454)"><path class="s" d="M1827.523,1447.245a34.306,34.306,0,0,1,3.393-.93c1.595-.345,3.5-.457,3.686-.181.207.308-1.553.574-3.117,1.018-1.439.409-1.1.559-1.1.559s-.1-.048,1.548-.2c1.767-.165,3.586-.161,3.766.192.087.172.026.288-.611.449.383-.017.436.082.451.236.075.8-2.5,1.429-3.524,1.68.787-.188,1.381-.245,1.1.287-.324.61-4,1.348-5.3,1.733C1826.406,1452.507,1827.523,1447.245,1827.523,1447.245Z" transform="translate(-1827.104 -1445.979)"/></g></g></g><g transform="translate(-319.706 -359.502)"><path class="an" d="M662.294,930.586s.327,2.4.368,2.759,3.639-.212,3.639-.212l.291-2.856S662.744,930.247,662.294,930.586Z" transform="translate(-108.361 -322.365)"/><path class="ao" d="M634.855,941.823s-3.072,1.736-4.175,2.366-4.5.957-4.374,1.611,1.1,2.127,5.684,2.086,6.789.286,7.279-.491-.71-5.735-.71-5.735S637.515,942.344,634.855,941.823Z" transform="translate(-80.592 -331.149)"/><path class="an" d="M590.559,944.8l.529,3.031s3.891-.234,4.055-.766a16.482,16.482,0,0,0-.426-3.357Z" transform="translate(-53.015 -332.728)"/><path class="ao" d="M557.892,957.457s1.223,4.13.364,5.684-3.64,1.84-4.662,1.758-3.8-1.022-6.379-.9-5.6-.531-4.866-2.126,6.349-1.1,8.061-2.576a6.867,6.867,0,0,1,3.254-1.668S553.68,958.929,557.892,957.457Z" transform="translate(-15.732 -343.336)"/><g transform="translate(521.845 523.2)"><path class="ap" d="M528.015,571.647l-6.169-9.165,5.372-2.985,5.311,9.387Z" transform="translate(-521.845 -559.497)"/><path class="aq" d="M530.629,573.579l-5.339-7.932,4.649-2.583,4.6,8.124Z" transform="translate(-524.503 -562.249)"/><path class="s" d="M550.421,605.22a1.3,1.3,0,0,1-.448-1.887c.669-1.336.2-1.784.2-1.784l-5.018,3.057s1.563,2.379,2.151,2.594S550.856,606.13,550.421,605.22Z" transform="translate(-539.827 -591.942)"/><path class="s" d="M532.543,597.5s-2.14-2.17-2.322-2.463a22.476,22.476,0,0,1-1.375-2.355c-.316-.738,1.477-.168,1.858.611a3,3,0,0,0,1.148,1.3c.334.229,2.523.862,2.816,1.612S532.543,597.5,532.543,597.5Z" transform="translate(-527.218 -584.84)"/><path class="s" d="M559.858,585.7s-.28.75-.579.316-.384-1.814.266-1.632S559.858,585.7,559.858,585.7Z" transform="translate(-550.552 -578.684)"/><path class="s" d="M556.272,579.707s-.209.934-.586.566c-.284-.277-.377-2.064.274-1.882S556.272,579.707,556.272,579.707Z" transform="translate(-547.787 -574.065)"/></g><path class="s" d="M578.4,598.933s-2.005-1.439-2.87-2.158-3.206-1.912-3.374-2.126-7.226-1.926-7.593-2.376-1.01.723.768,1.458,4.175,2.183,4.187,2.931-2.059.556-2.372,1.115-.024.472.245.652,2.615-.622,3.494-.12,2.4.294,3.073.668,3.965,2.175,3.965,2.175Z" transform="translate(-32.631 -61.507)"/><path class="ar" d="M604.459,613.664l-1.055-.619s2-3.055,2.6-2.865a15.516,15.516,0,0,1,1.534.61Z" transform="translate(-62.926 -75.395)"/><path class="as" d="M606.448,614.217c.164-.082,3.19-4.007,3.19-4.007l4.7,1.513-3.517,4.662Z" transform="translate(-65.274 -75.423)"/><path class="n" d="M570.185,750.962s.5,7.671-3.308,9.082H537.129s7.649,33.151,7.649,33.7l-4.943,1.352s-13.535-28.375-14.176-29.9c-.8-1.9-.736-6.931,1.595-8.833s17.3-7.28,20.242-7.474S570.185,750.962,570.185,750.962Z" transform="translate(-2.586 -182.41)"/><path class="s" d="M670.808,574.983s-.109,1.98-.163,4.523-6.923.867-6.923.867.31-2.749-.479-3.624S670.808,574.983,670.808,574.983Z" transform="translate(-109.052 -48.244)"/><path class="s" d="M648.059,520.171c-.164,1.063-2.249,2.372-.777,8.588s3.885,5.439,5.766,5.03,5.234-1.513,6.5-6.461a9.632,9.632,0,0,0-2.29-9.474C655.788,516.1,648.059,520.171,648.059,520.171Z" transform="translate(-96.375 -3.828)"/><path class="at" d="M595.654,598.424s-2.4,12.741-1.514,16.763c-.075,1.636-.548,4.649-.617,5.616-.184,2.576-.54,10.991-.54,10.991-7.545,4.478-22.917-1.4-23.124-1.83-.449-.933,3.741-7.247,3.741-9.026s-2.365-8.926-2.365-8.926-4.13,5.807-6.543,6.952-10.51-15.417-10.51-15.417l4.457-3.272s5.439,7.811,5.643,8.056,5.6-5.725,6.3-6.911,9.037-5.807,9.037-5.807,6.249-.989,6.923-.867S595.1,598.118,595.654,598.424Z" transform="translate(-24.95 -63.485)"/><path class="au" d="M632.729,810.276s5.52,26.743,6.318,26.927a36.995,36.995,0,0,0,5.091-.307s.736-14.66.429-17.972-.368-9.63-.368-9.63Z" transform="translate(-85.551 -229.023)"/><path class="ar" d="M557.027,616.5l-.73-1.086s-3.885,2.155-3.722,2.673a4.779,4.779,0,0,0,.685,1.178Z" transform="translate(-23.705 -79.438)"/><path class="u" d="M643.3,519.664a1.372,1.372,0,0,1-.892-.8c-.353-.709-1.295-6.039,5.453-6.284,5.076-.185,5.633-.436,7.443,1.349,2.044,2.018,1.491,9.505-.724,12.808,0,0-4.048-.662-5.725-3.709-.505-.918.305-3.854-1.566-3.476-1.392.281-1.289,3.8-1.289,3.8l-.906.327S645.911,518.219,643.3,519.664Z" transform="translate(-92.819 0)"/><path class="at" d="M724.887,610.881s6.007,4.841-1.995,17.545C719.293,634.14,724.887,610.881,724.887,610.881Z" transform="translate(-154.183 -75.941)"/><rect class="av" width="53.986" height="3.731" transform="translate(534.543 577.633)"/><rect class="aw" width="3.442" height="41.548" transform="translate(534.543 581.364)"/><rect class="aw" width="3.442" height="41.548" transform="translate(585.088 581.364)"/><path class="ar" d="M665.516,592.327v-.763s5.568-1.665,6.942-.873l-.018.77Z" transform="translate(-110.847 -60.198)"/><path class="at" d="M622.8,748.929s10.548,7.681,17.624,5.868c4.96-1.27,5.5-4.038,5.5-4.038Z" transform="translate(-77.887 -182.45)"/><path class="as" d="M588.146,648.314l-3.035,2.927,1.784-4.682Z" transform="translate(-48.812 -103.468)"/></g></g></svg>