<svg xmlns="http://www.w3.org/2000/svg" width="19.283" height="13.559" viewBox="0 0 19.283 13.559">
  <g id="helping" transform="translate(0 -76)">
    <circle id="Ellipse_215" data-name="Ellipse 215" cx="0.377" cy="0.377" r="0.377" transform="translate(16.692 86.74)" fill="#2c2f33"/>
    <path id="Path_16741" data-name="Path 16741" d="M19.272,84.012a.378.378,0,0,0-.175-.233l-2.91-1.716a1.3,1.3,0,0,0-.4-.557,3.487,3.487,0,0,0-.222-.5,1.283,1.283,0,0,0-.142-.884,1.3,1.3,0,0,0-.677-.582,1.285,1.285,0,0,0-.043-1.123,1.306,1.306,0,0,0-.8-.641,1.344,1.344,0,0,0-.328-.05,1.283,1.283,0,0,0-.161-.757,1.308,1.308,0,0,0-.793-.62,1.33,1.33,0,0,0-1,.112c-.038.02-.692.367-1.616.864l-1.941-1.14a1.328,1.328,0,0,0-1.805.445,1.283,1.283,0,0,0-.151.986l0,.01a1.325,1.325,0,0,0-.821.593,1.282,1.282,0,0,0-.151.985l0,.01a1.326,1.326,0,0,0-.821.593,1.281,1.281,0,0,0-.173.877q-.091.089-.169.181a1.32,1.32,0,0,0-.628.531,1.283,1.283,0,0,0-.189.705L.2,83.711a.377.377,0,0,0-.149.516l2.893,5.14a.376.376,0,0,0,.51.145l2.007-1.1a.377.377,0,0,0,.146-.515l-.377-.668.948-.524a3.894,3.894,0,0,0,1.754.417,4.256,4.256,0,0,0,1.949-.488,4.089,4.089,0,0,0,1.5.293,3.9,3.9,0,0,0,1.634-.361l.928.555-.4.654a.377.377,0,0,0,.128.52l1.966,1.173a.377.377,0,0,0,.514-.127l.352-.577a.377.377,0,1,0-.643-.392l-.158.259-1.319-.787,2.678-4.38,1.321.775-.756,1.239a.377.377,0,1,0,.643.392h0l.956-1.566A.378.378,0,0,0,19.272,84.012Zm-4.56.1.87-.453a1.3,1.3,0,0,0,.612-.718l.221.129-2.077,3.4-.782-.468S14.707,84.121,14.713,84.11ZM6.9,77.022a.564.564,0,0,1,.487-.269.575.575,0,0,1,.292.08l.717.424a.548.548,0,0,1,.256.341.534.534,0,0,1-.063.41h0a.548.548,0,0,1-.158.166l-.1.056a.58.58,0,0,1-.5-.021l-.737-.436h0a.548.548,0,0,1-.256-.34.535.535,0,0,1,.063-.411ZM5.93,78.611a.564.564,0,0,1,.486-.269.575.575,0,0,1,.292.08l1.255.742a.548.548,0,0,1,.256.341.534.534,0,0,1-.063.411h0a.578.578,0,0,1-.758.2l-1.276-.755a.547.547,0,0,1-.256-.34.535.535,0,0,1,.064-.411ZM4.96,80.2a.573.573,0,0,1,.779-.189l1.291.763a.548.548,0,0,1,.256.341.535.535,0,0,1-.063.411.573.573,0,0,1-.779.189L5.153,80.95A.548.548,0,0,1,4.9,80.61a.534.534,0,0,1,.063-.41Zm.526,1.823a.548.548,0,0,1,.256.341.534.534,0,0,1-.063.411h0a.573.573,0,0,1-.779.189l-.717-.424a.548.548,0,0,1-.256-.341.534.534,0,0,1,.063-.411.574.574,0,0,1,.779-.189ZM3.415,88.672.893,84.191l1.348-.73,2.521,4.469Zm1.443-2.1L2.9,83.1l.5-.271a1.308,1.308,0,0,0,.4.362l.3.177,1.559,2.762Zm1.59-.574L5.207,83.8a1.323,1.323,0,0,0,1.115-.629h0a1.285,1.285,0,0,0,.189-.64,1.325,1.325,0,0,0,1.354-.609,1.282,1.282,0,0,0,.151-.985c0-.012-.007-.024-.01-.036a1.313,1.313,0,0,0,.793-.588,1.282,1.282,0,0,0,.151-.985,1.3,1.3,0,0,0-.211-.452l3.234-1.745,0,0a.581.581,0,0,1,.438-.049.56.56,0,0,1,.34.265.536.536,0,0,1,.049.414.556.556,0,0,1-.271.336h0l-2.1,1.145a.377.377,0,1,0,.361.661l2.464-1.345A.581.581,0,0,1,13.7,78.5a.549.549,0,0,1,.1,1.025l-2.446,1.335a.377.377,0,1,0,.361.661l2.283-1.247a.581.581,0,0,1,.435-.048.56.56,0,0,1,.34.265.536.536,0,0,1,.049.414.555.555,0,0,1-.27.335l-2.305,1.184a.377.377,0,1,0,.343.671l2.089-1.068a.581.581,0,0,1,.431-.046.56.56,0,0,1,.34.265.536.536,0,0,1,.049.414.557.557,0,0,1-.269.335l-5.6,2.916-.006,0a3.253,3.253,0,0,1-3.174.08Zm4.4.129,2.569-1.339-.649,1.061A3.16,3.16,0,0,1,10.85,86.123Z" transform="translate(0)" fill="#2c2f33"/>
  </g>
</svg>
