<svg xmlns="http://www.w3.org/2000/svg" width="37.55" height="23.7" viewBox="0 0 37.55 23.7">
  <g id="Layer_3" transform="translate(-0.525 -0.5)">
    <path id="Path_13996" data-name="Path 13996" d="M.6,12.8c2.7,6.8,10.3,11.4,18.7,11.4s16-4.6,18.7-11.4a1.388,1.388,0,0,0,0-.9C35.3,5.1,27.8.5,19.3.5S3.3,5.1.6,11.9A1.379,1.379,0,0,0,.6,12.8ZM19.3,3C26.6,3,33,6.8,35.6,12.4c-2.5,5.7-9,9.4-16.3,9.4S5.6,18.1,3.1,12.4C5.6,6.7,12,3,19.3,3Z" fill="#2c2e32"/>
    <path id="Path_13997" data-name="Path 13997" d="M19.4,19.5a7.28,7.28,0,0,0,7.2-7.1,7.15,7.15,0,0,0-14.3-.1h0A7.024,7.024,0,0,0,19.4,19.5Zm0-11.8a4.7,4.7,0,1,1-4.7,4.7A4.695,4.695,0,0,1,19.4,7.7Z" fill="#2c2e32"/>
  </g>
</svg>
