<svg id="Layer_3" data-name="Layer 3" xmlns="http://www.w3.org/2000/svg" viewBox="0 0 38 38"><defs><style>.cls-1{fill:#fff;}</style></defs><title>Notification</title><path class="cls-1" d="M20,39a7.11,7.11,0,0,1-7.1-7.1l0-.22H3.53a2.53,2.53,0,0,1-1.78-4.32A15,15,0,0,0,5.92,21.1c.47-1.57.57-2.8.57-6.59a13.51,13.51,0,0,1,27,0c0,6.89.71,8.81,4.74,12.85a2.53,2.53,0,0,1-1.78,4.32H27.08l0,.15A7.12,7.12,0,0,1,20,39Zm-3.88-7a3.88,3.88,0,0,0,7.76-.07l0-.22H16.15Zm18.72-3.52c-4.56-5.07-4.56-8.85-4.56-13.94a10.28,10.28,0,0,0-20.56,0c0,5.09,0,8.87-4.56,13.94Z" transform="translate(-1 -1)"/><path class="cls-1" d="M37.37,27.69c-4.21-4.22-4.84-6.33-4.84-13.06a12.53,12.53,0,0,0-25.06,0c0,3.63-.09,5-.59,6.65a15.52,15.52,0,0,1-4.25,6.41,1.79,1.79,0,0,0,1.26,3h9.94l-.09.9a6.26,6.26,0,0,0,12.52,0l-.09-.9h9.94A1.79,1.79,0,0,0,37.37,27.69ZM20,36.11a4.47,4.47,0,0,1-4.47-4.47l.09-.9h8.76l.1.9A4.48,4.48,0,0,1,20,36.11ZM3.89,29C9.26,23.58,9.26,20,9.26,14.63a10.74,10.74,0,0,1,21.48,0c0,5.37,0,8.95,5.37,14.32Z" transform="translate(-1 -1)"/></svg>