<svg xmlns="http://www.w3.org/2000/svg" width="23.245" height="24.905" viewBox="0 0 23.245 24.905"><defs><style>.a{fill:#605f5f;}</style></defs><path class="a" d="M1275.83,583.66h-2.907v-1.244a.414.414,0,0,0-.413-.416H1269.6a.416.416,0,0,0-.416.416v1.244h-9.13v-1.244a.416.416,0,0,0-.416-.416h-2.907a.416.416,0,0,0-.416.416v1.244h-2.9a.416.416,0,0,0-.416.416v22.414a.416.416,0,0,0,.416.416h22.414a.416.416,0,0,0,.416-.416V584.075a.417.417,0,0,0-.416-.416Zm-5.811-.829h2.075v2.488h-2.075Zm-12.868,0h2.075v2.488h-2.075Zm-3.32,1.66h2.488v1.244a.416.416,0,0,0,.416.416h2.907a.416.416,0,0,0,.416-.416v-1.244h9.13v1.244a.416.416,0,0,0,.416.416h2.907a.414.414,0,0,0,.413-.416v-1.244h2.491v3.735h-21.583Zm0,21.583V589.057h21.583v17.016Zm0,0" transform="translate(-1253 -582)"/><path class="a" d="M1271.407,600.4H1260.2v12.039h15.775V600.4Zm-2.907.831h2.907v2.907H1268.5Zm2.907,6.642H1268.5v-2.907h2.907Zm-6.642-2.907h2.907v2.907h-2.907Zm0-3.735h2.907v2.907h-2.907Zm-3.735,0h2.9v2.907h-2.9Zm0,3.735h2.9v2.907h-2.9Zm2.9,6.642h-2.9V608.7h2.9Zm3.738,0h-2.907V608.7h2.907Zm3.735,0H1268.5V608.7h2.907Zm3.735,0h-2.907V608.7h2.907Zm0-3.735h-2.907v-2.907h2.907Zm0-6.642v2.907h-2.907v-2.907Zm0,0" transform="translate(-1256.464 -590.852)"/></svg>