<svg xmlns="http://www.w3.org/2000/svg" width="11.336" height="12.144" viewBox="0 0 11.336 12.144"><defs><style>.a{fill:#ffc03f;}.b{fill:#333;}</style></defs><g transform="translate(-3 -2)"><g transform="translate(3 2)"><path class="a" d="M204.453,281.7a.2.2,0,0,1-.2-.2l0-.607a.2.2,0,0,1,.2-.2h.48l-.567-.506a.412.412,0,0,0-.269-.1h-.658V281.7H200v1.212a.4.4,0,0,0,.4.4h.4a.81.81,0,0,1,1.619,0h1.214a.81.81,0,0,1,1.619,0h.4a.408.408,0,0,0,.407-.4V281.7Zm0,0" transform="translate(-194.94 -272.992)"/><path class="a" d="M203.441,279.926v1.617H200l0-1.216a.406.406,0,0,1,.4-.4Zm0,0" transform="translate(-194.94 -272.84)"/><path class="a" d="M273.214,8v2.024l-.607-.607-.607.607V8Zm0,0" transform="translate(-265.118 -7.798)"/><g transform="translate(0)"><path class="b" d="M198.41,273.586l-1.705-1.518a.608.608,0,0,0-.4-.154l-3.692,0a.607.607,0,0,0-.607.607l0,2.429a.607.607,0,0,0,.607.607h.223a1.012,1.012,0,0,0,1.984,0h.85a1.012,1.012,0,0,0,1.984,0h.223a.609.609,0,0,0,.607-.607v-1.214A.2.2,0,0,0,198.41,273.586Zm-1.753-.659h.4l.682.607h-1.087Zm-4.048-.612,2.832,0v1.214H192.4v-1.015a.2.2,0,0,1,.2-.2Zm1.641,3.467a.607.607,0,1,1,.132-.662.6.6,0,0,1-.132.662Zm2.834,0a.607.607,0,1,1,.133-.662.6.6,0,0,1-.133.662Zm.928-.69a.2.2,0,0,1-.142.06h-.223a1.012,1.012,0,0,0-1.984,0h-.85a1.012,1.012,0,0,0-1.983,0h-.224a.2.2,0,0,1-.2-.2v-1.012h3.036v.607h.4v-2.227h.455a.2.2,0,0,1,.134.051l.176.157a.405.405,0,0,0-.359.4v.607a.4.4,0,0,0,.4.4h1.417v1.012A.2.2,0,0,1,198.012,275.094Zm0,0" transform="translate(-187.142 -265.031)"/><path class="b" d="M367.961,400.047h.4v.4h-.4Zm0,0" transform="translate(-358.651 -389.925)"/><path class="b" d="M255.961,399.953h.4v.4h-.4Zm0,0" transform="translate(-249.485 -389.834)"/><path class="b" d="M8.3,11.74H1.012A.607.607,0,0,1,.4,11.132V1.012A.607.607,0,0,1,1.012.4H6.68V2.226a.2.2,0,0,0,.346.143l.464-.464.464.464A.2.2,0,0,0,8.3,2.226V.4a.607.607,0,0,1,.607.607V6.477h.4V1.012A1.013,1.013,0,0,0,8.3,0H1.012A1.013,1.013,0,0,0,0,1.012v10.12a1.013,1.013,0,0,0,1.012,1.012H8.3a1.012,1.012,0,0,0,.67-.253l-.268-.3a.605.605,0,0,1-.4.152Zm-.4-10-.262-.262a.2.2,0,0,0-.286,0l-.262.262V.4h.81Zm0,0" transform="translate(0)"/><path class="b" d="M48,48h.81v.4H48Zm0,0" transform="translate(-46.786 -46.786)"/><path class="b" d="M96,48h2.024v.4H96Zm0,0" transform="translate(-93.571 -46.786)"/><path class="b" d="M48,144h5.263v.4H48Zm0,0" transform="translate(-46.786 -140.357)"/><path class="b" d="M48,192h6.882v.4H48Zm0,0" transform="translate(-46.786 -187.142)"/><path class="b" d="M48,240h3.239v.4H48Zm0,0" transform="translate(-46.786 -233.928)"/><path class="b" d="M48,368h2.024v.4H48Zm0,0" transform="translate(-46.786 -358.689)"/><path class="b" d="M48,400h2.024v.4H48Zm0,0" transform="translate(-46.786 -389.88)"/></g></g></g></svg>