<svg xmlns="http://www.w3.org/2000/svg" width="16" height="16" viewBox="0 0 16 16"><defs><style>.a{fill:#fff;}.b{fill:#ffbe39;}</style></defs><path class="a" d="M13,16H3a3,3,0,0,1-3-3V3A3,3,0,0,1,3,0H13a3,3,0,0,1,3,3V13A3,3,0,0,1,13,16Z"/><g transform="translate(2.019 2.019)"><circle class="a" cx="1.766" cy="1.766" r="1.766" transform="translate(0.707 0.707)"/><circle class="a" cx="1.766" cy="1.766" r="1.766" transform="translate(7.623 5.161)"/><g transform="translate(0.244 0.244)"><path class="b" d="M306.889,178.445a2.433,2.433,0,0,1-.411,1.356l-2.034,3.19-2.034-3.19a2.445,2.445,0,1,1,4.478-1.356Zm-1.467,0a.978.978,0,1,0-.978.978A.978.978,0,0,0,305.422,178.445Z" transform="translate(-295.011 -172.091)"/><ellipse cx="0.757" cy="0.252" rx="0.757" ry="0.252" transform="translate(8.892 11.416)"/><path class="b" d="M14.889,12.445a2.433,2.433,0,0,1-.411,1.356l-2.034,3.337L10.411,13.8a2.445,2.445,0,1,1,4.478-1.356Zm-1.467,0a.978.978,0,1,0-.978.978A.978.978,0,0,0,13.422,12.445Z" transform="translate(-10 -10)"/><ellipse cx="0.757" cy="0.252" rx="0.757" ry="0.252" transform="translate(1.472 6.932)"/></g><path d="M2.316,7.15A.722.722,0,0,0,2.689,8.5a.734.734,0,0,0,.691-.483h1.9a.724.724,0,1,1,0,1.449H2.347a1.207,1.207,0,1,0,0,2.414H4.791a.241.241,0,1,0,0-.483H2.347a.724.724,0,1,1,0-1.449H5.28a1.207,1.207,0,1,0,0-2.414H3.38a.73.73,0,0,0-.318-.382L4.929,4.125a2.621,2.621,0,0,0,.449-1.469A2.675,2.675,0,0,0,2.689,0,2.675,2.675,0,0,0,0,2.656,2.621,2.621,0,0,0,.449,4.125Zm.373.865a.241.241,0,1,1,.244-.241A.243.243,0,0,1,2.689,8.015Zm0-7.532a2.189,2.189,0,0,1,2.2,2.173A2.144,2.144,0,0,1,4.52,3.861l-.005.008L2.689,6.827.858,3.861A2.144,2.144,0,0,1,.489,2.656,2.189,2.189,0,0,1,2.689.483Z" transform="translate(0 0)"/><path d="M61.222,62.445A1.222,1.222,0,1,0,60,61.222,1.224,1.224,0,0,0,61.222,62.445Zm0-1.956a.733.733,0,1,1-.733.733A.734.734,0,0,1,61.222,60.489Z" transform="translate(-58.533 -58.533)"/><path d="M279.08,166a2.689,2.689,0,0,0-2.239,4.179l1.86,2.918a.737.737,0,0,0-.313.383h-2.144a.244.244,0,0,0,0,.489h2.144a.733.733,0,1,0,1.07-.872l1.86-2.918A2.689,2.689,0,0,0,279.08,166Zm0,7.969a.244.244,0,1,1,.244-.244A.245.245,0,0,1,279.08,173.969Zm1.831-4.06-1.831,2.871-1.831-2.871a2.2,2.2,0,1,1,3.661,0Z" transform="translate(-269.402 -162.091)"/><path d="M353.222,226a1.222,1.222,0,1,0,1.222,1.222A1.224,1.224,0,0,0,353.222,226Zm0,1.956a.733.733,0,1,1,.733-.733A.734.734,0,0,1,353.222,227.956Z" transform="translate(-343.545 -220.557)"/><ellipse cx="0.252" rx="0.252" transform="translate(5.682 11.66)"/></g></svg>