<svg xmlns="http://www.w3.org/2000/svg" xmlns:xlink="http://www.w3.org/1999/xlink" width="45" height="45" viewBox="0 0 45 45"><defs><style>.a{fill:#01c275;}.b,.c{stroke:none;}.c{fill:#fff;}.d{filter:url(#a);}</style><filter id="a" x="0" y="0" width="45" height="45" filterUnits="userSpaceOnUse"><feOffset dy="3" input="SourceAlpha"/><feGaussianBlur stdDeviation="3" result="b"/><feFlood flood-opacity="0.161"/><feComposite operator="in" in2="b"/><feComposite in="SourceGraphic"/></filter></defs><g class="d" transform="matrix(1, 0, 0, 1, 0, 0)"><g class="a" transform="translate(9 6)"><path class="b" d="M 13.5 26 C 10.16112995147705 26 7.022109985351562 24.69976997375488 4.66117000579834 22.33883094787598 C 2.300230026245117 19.97789001464844 1 16.83886909484863 1 13.5 C 1 10.16112995147705 2.300230026245117 7.022109985351562 4.66117000579834 4.66117000579834 C 7.022109985351562 2.300230026245117 10.16112995147705 1 13.5 1 C 16.83886909484863 1 19.97789001464844 2.300230026245117 22.33883094787598 4.66117000579834 C 24.69976997375488 7.022109985351562 26 10.16112995147705 26 13.5 C 26 16.83886909484863 24.69976997375488 19.97789001464844 22.33883094787598 22.33883094787598 C 19.97789001464844 24.69976997375488 16.83886909484863 26 13.5 26 Z"/><path class="c" d="M 13.5 2 C 10.4282398223877 2 7.540340423583984 3.196210861206055 5.368270874023438 5.368270874023438 C 3.196210861206055 7.540340423583984 2 10.4282398223877 2 13.5 C 2 16.5717601776123 3.196210861206055 19.45965957641602 5.368270874023438 21.63172912597656 C 7.540340423583984 23.80379104614258 10.4282398223877 25 13.5 25 C 16.5717601776123 25 19.45965957641602 23.80379104614258 21.63172912597656 21.63172912597656 C 23.80379104614258 19.45965957641602 25 16.5717601776123 25 13.5 C 25 10.4282398223877 23.80379104614258 7.540340423583984 21.63172912597656 5.368270874023438 C 19.45965957641602 3.196210861206055 16.5717601776123 2 13.5 2 M 13.5 0 C 20.95584106445312 0 27 6.044160842895508 27 13.5 C 27 20.95584106445312 20.95584106445312 27 13.5 27 C 6.044160842895508 27 0 20.95584106445312 0 13.5 C 0 6.044160842895508 6.044160842895508 0 13.5 0 Z"/></g></g></svg>