<svg xmlns="http://www.w3.org/2000/svg" xmlns:xlink="http://www.w3.org/1999/xlink" width="348" height="490" viewBox="0 0 348 490"><defs><style>.a{fill:url(#a);}.b{fill:none;}.c{fill:url(#b);}.d{clip-path:url(#c);}.e{fill:url(#d);}.bx,.f,.g{fill:#01c275;}.f{opacity:0.11;}.g{opacity:0.28;}.bl,.bn,.g,.h{mix-blend-mode:multiply;}.bl,.bn,.bu,.g,.h{isolation:isolate;}.h,.i{fill:#139177;}.h{opacity:0.65;}.j{fill:#fff;}.k{fill:#85c5ff;}.l{fill:#beddee;}.m{fill:#d8b5a8;}.n{clip-path:url(#e);}.o{fill:#aa4805;}.p{fill:#323249;}.q{fill:#ba5604;}.r{fill:#1788e2;}.s{fill:#0a74ce;}.t{fill:#004fa7;}.u{fill:#ed9558;}.v{fill:#d1652f;}.w{fill:#1f91ee;}.x{fill:#ffb476;}.y{fill:#93271c;}.z{fill:#9a6335;}.aa{fill:#f7eee2;}.ab{fill:#d5b698;}.ac{fill:#562824;}.ad{fill:#3d3d5b;}.ae{fill:#ce6f09;}.af{fill:#46ad1a;}.ag{fill:#f7e8f0;}.ah{fill:#c73700;}.ai{fill:#dbb4d1;}.aj{fill:#fff3fa;}.ak{fill:#d64900;}.al{fill:#44415e;}.am{fill:#822d0f;}.an{fill:#f4e4ec;}.ao{fill:#f2d0e7;}.ap{fill:#dd7928;}.aq{fill:#ba5a1a;}.ar{fill:#933914;}.as{fill:#3a374c;}.at{fill:#5f5c85;}.au{fill:#545175;}.av{fill:#eacadf;}.aw{fill:#303047;}.ax{fill:#4c211e;}.ay{fill:#73859b;}.az{fill:#f4e6e1;}.ba{fill:#d6b5a7;}.bb{fill:#d87239;}.bc{fill:#fff7ee;}.bd{fill:#75210e;}.be{fill:#2d313d;}.bf{fill:#5c5c99;}.bg{fill:#4d4d84;}.bh{fill:#eadace;}.bi{fill:#2e2b3d;}.bj{fill:#272432;}.bk{fill:#b0c1d1;}.bl,.bm{fill:#525b66;}.bl,.bu{opacity:0.2;}.bn{fill:#a02a65;opacity:0.3;}.bo{clip-path:url(#i);}.bp{fill:#f7e7e7;}.bq{clip-path:url(#j);}.br{fill:#5d9dc1;}.bs{fill:#6db3d1;}.bt{fill:#3d4359;}.bu{mix-blend-mode:screen;fill:url(#k);}.bv{fill:#525d7c;}.bw{fill:#323749;}.by{fill:#01c29b;}.bz{fill:url(#l);}.ca{fill:url(#m);}</style><linearGradient id="a" x1="0.092" y1="-0.196" x2="0.5" y2="1.132" gradientUnits="objectBoundingBox"><stop offset="0" stop-color="#fcfcfc"/><stop offset="1" stop-color="#01c275"/></linearGradient><linearGradient id="b" x1="0.092" y1="-0.196" x2="2.065" y2="3.508" xlink:href="#a"/><clipPath id="c"><rect class="a" width="348" height="345" rx="10" transform="translate(0 0)"/></clipPath><linearGradient id="d" x1="-0.216" y1="1.266" x2="3.073" y2="-0.305" xlink:href="#a"/><clipPath id="e"><rect class="b" width="21.852" height="23.295"/></clipPath><clipPath id="i"><path class="b" d="M100.068,110.178a22.377,22.377,0,1,1-31.374,4.141A22.375,22.375,0,0,1,100.068,110.178Z" transform="translate(-64.073 -105.557)"/></clipPath><clipPath id="j"><rect class="b" width="30.092" height="32.08"/></clipPath><radialGradient id="k" cx="0.5" cy="0.5" r="0.5" gradientTransform="translate(0)" gradientUnits="objectBoundingBox"><stop offset="0" stop-color="#fff"/><stop offset="0.405" stop-color="#fdfeff"/><stop offset="0.551" stop-color="#f6fdff"/><stop offset="0.655" stop-color="#eafbff"/><stop offset="0.739" stop-color="#d9f8ff"/><stop offset="0.811" stop-color="#c3f4ff"/><stop offset="0.875" stop-color="#a8efff"/><stop offset="0.933" stop-color="#88e9ff"/><stop offset="0.984" stop-color="#63e3ff"/><stop offset="1" stop-color="#57e1ff"/></radialGradient><linearGradient id="l" x1="-0.038" y1="0.5" x2="0.962" y2="0.5" gradientUnits="objectBoundingBox"><stop offset="0" stop-color="#ff9340"/><stop offset="1" stop-color="#ffce45"/></linearGradient><linearGradient id="m" x1="-0.038" y1="0.5" x2="0.962" y2="0.5" gradientUnits="objectBoundingBox"><stop offset="0" stop-color="#c97332"/><stop offset="1" stop-color="#ffce45"/></linearGradient></defs><g transform="translate(-14 -80)"><rect class="c" width="348" height="490" rx="10" transform="translate(14 80)"/><g class="d" transform="translate(14 225)"><path class="e" d="M518.819,38.066V313H112.251V241.54c69.127-31.641,125.231,37.552,158.308,17.816,19.624-11.7,21.738-45.854,28.618-67.816,4.323-13.776,10.371-27.247,20.306-36.25,11.742-10.651,26.654-12.729,40.544-16.661,19.945-5.647,38.184-19.539,50.731-39.16C437.889,57.044,475.971,23.466,518.819,38.066Z" transform="translate(-148.519 40.119)"/></g><g transform="translate(14.555 255.67)"><g transform="translate(25.195 35.871)"><circle class="f" cx="111.533" cy="111.533" r="111.533" transform="translate(9.257 0)"/><path class="g" d="M21.316,177.316H313.033s-73,17.025-147.188,17.025S21.316,177.316,21.316,177.316Z" transform="translate(-21.316 76.95)"/><path class="h" d="M137.571,186.406c-1.863-.026-3.741-.1-5.583-.215l.072-1.109c1.82.115,3.682.187,5.528.213Zm5.589-.057-.039-1.112c1.826-.063,3.683-.174,5.52-.328l.095,1.107C146.88,186.172,145,186.283,143.16,186.348Zm-16.737-.649c-1.841-.208-3.7-.467-5.532-.767l.18-1.1c1.813.3,3.656.554,5.476.76Zm27.867-.295-.148-1.1c1.83-.247,3.669-.541,5.463-.877l.206,1.094C158,184.858,156.138,185.154,154.29,185.4ZM115.4,183.89c-1.817-.393-3.643-.836-5.43-1.318l.289-1.073c1.768.476,3.578.916,5.376,1.3Zm49.873-.534-.258-1.083c1.794-.428,3.593-.906,5.348-1.42l.313,1.068C168.906,182.439,167.088,182.923,165.277,183.356Zm-60.658-2.371c-1.757-.569-3.531-1.194-5.27-1.857l.395-1.038c1.722.654,3.478,1.273,5.216,1.837ZM176,180.216l-.367-1.049c1.724-.6,3.466-1.257,5.179-1.952l.417,1.031C179.506,178.948,177.745,179.61,176,180.216Zm-81.825-3.205c-1.7-.749-3.4-1.548-5.057-2.376l.5-.994c1.641.819,3.324,1.611,5.009,2.352Zm92.178-1-.469-1.008c1.663-.775,3.329-1.6,4.955-2.46l.521.982C189.72,174.4,188.037,175.233,186.357,176.016ZM84.189,172.01c-1.626-.919-3.24-1.885-4.8-2.868l.6-.94c1.54.973,3.138,1.928,4.749,2.84Zm112.048-1.21-.567-.957c1.579-.936,3.157-1.928,4.688-2.942l.614.927C199.426,168.853,197.832,169.852,196.238,170.8ZM74.748,166.037c-1.515-1.066-3.023-2.187-4.486-3.329l.684-.877c1.448,1.133,2.944,2.241,4.443,3.3Zm130.8-1.413-.66-.9c1.472-1.084,2.942-2.226,4.373-3.392l.7.862C208.524,162.376,207.038,163.529,205.551,164.624ZM65.945,159.16c-1.4-1.212-2.794-2.477-4.134-3.759l.767-.8c1.327,1.268,2.706,2.519,4.095,3.72Zm148.261-1.6-.745-.825c1.359-1.227,2.71-2.508,4.015-3.808l.784.788C216.944,155.026,215.58,156.32,214.206,157.558ZM57.865,151.444c-1.274-1.342-2.534-2.738-3.745-4.149l.843-.725c1.2,1.4,2.447,2.777,3.709,4.108Zm164.255-1.772-.825-.749q1.057-1.162,2.08-2.352l.843.725Q223.183,148.5,222.119,149.672Z" transform="translate(-18.38 45.881)"/></g><g transform="translate(17.445 -52.669)"><g transform="translate(289.622 75.305) rotate(-180)"><path class="i" d="M.063,49.532,0,48.607a15.846,15.846,0,0,0,2.664-.4l.221.9A16.584,16.584,0,0,1,.063,49.532Zm5.524-1.387-.4-.838A11.814,11.814,0,0,0,7.452,45.9l.577.725A12.792,12.792,0,0,1,5.587,48.145ZM10.071,44.6l-.721-.584a13.86,13.86,0,0,0,1.476-2.241l.819.432A14.706,14.706,0,0,1,10.071,44.6Zm2.686-5.022-.879-.293a18.558,18.558,0,0,0,.654-2.63l.914.159A19.243,19.243,0,0,1,12.757,39.579ZM23.1,36.737c-.938,0-1.887-.048-2.82-.137l.087-.923c.9.087,1.824.132,2.734.133Zm2.821-.13-.087-.923a24.689,24.689,0,0,0,2.7-.408l.189.908A26.044,26.044,0,0,1,25.926,36.607Zm-8.438-.4a27.359,27.359,0,0,1-2.751-.662L15,34.655a26.919,26.919,0,0,0,2.658.64Zm13.973-.775-.3-.877a18.174,18.174,0,0,0,2.488-1.071l.43.819A19.134,19.134,0,0,1,31.461,35.43ZM12.07,34.57a13.82,13.82,0,0,1-2.5-1.409l.545-.751a12.725,12.725,0,0,0,2.338,1.312Zm1.665-.586-.927-.03c.007-.195.009-.387.009-.58a16.739,16.739,0,0,0-.13-2.123l.919-.117a17.889,17.889,0,0,1,.137,2.239C13.744,33.577,13.742,33.78,13.734,33.984Zm22.747-1.222-.565-.734q.311-.242.612-.5a13.532,13.532,0,0,0,1.337-1.348l.7.608a14.2,14.2,0,0,1-1.429,1.44C36.923,32.412,36.7,32.59,36.481,32.763ZM7.587,30.92a2.955,2.955,0,0,1-.258-1.183,3.037,3.037,0,0,1,.7-1.889l.73.569a2.151,2.151,0,0,0-.508,1.32,2.044,2.044,0,0,0,.18.812Zm4.473-2.249c-.4-1-.919-1.579-1.418-1.587l.015-.927c.638.009,1.55.393,2.263,2.169Zm28.21-.158-.777-.506a23.126,23.126,0,0,0,1.346-2.369l.83.412A24.128,24.128,0,0,1,40.27,28.514Zm2.506-5.072-.873-.313a22.886,22.886,0,0,0,.767-2.614l.9.208A23.985,23.985,0,0,1,42.777,23.442Zm1.259-5.52-.921-.091c.069-.688.1-1.383.1-2.063,0-.217,0-.434-.011-.653l.927-.03c.007.228.011.456.011.682C44.145,16.48,44.108,17.2,44.035,17.922Zm-1.1-5.507a19.437,19.437,0,0,0-.647-2.634l.882-.284a20.394,20.394,0,0,1,.678,2.76Zm-1.65-5.157a21.919,21.919,0,0,0-1.327-2.375l.779-.5a22.663,22.663,0,0,1,1.385,2.475ZM38.35,2.68A27.3,27.3,0,0,0,36.515.656L37.169,0c.678.678,1.318,1.383,1.9,2.093Z" transform="translate(241.383)"/><path class="i" d="M43.794,47.418a18.507,18.507,0,0,1-1.887-.095L42,46.4a17.3,17.3,0,0,0,1.819.089l0,.927ZM39.1,46.792a13.56,13.56,0,0,1-2.66-1.075l.437-.816a12.781,12.781,0,0,0,2.48,1Zm-5.027-2.708a13.39,13.39,0,0,1-1.946-2.113l.743-.552a12.646,12.646,0,0,0,1.813,1.967ZM30.65,39.516a17.582,17.582,0,0,1-1.021-2.662l.888-.263a16.907,16.907,0,0,0,.968,2.525Zm-11.78-4.94a28.226,28.226,0,0,1-2.82-.189l.109-.919c.89.1,1.807.167,2.727.182Zm2.821-.082-.069-.925c.914-.069,1.828-.18,2.718-.33l.154.914C23.576,34.309,22.634,34.422,21.69,34.494Zm7.333-.423q-.072-.514-.12-1.031c-.528.184-1.079.354-1.646.51l-.245-.9c.634-.172,1.246-.363,1.826-.575-.013-.284-.019-.565-.019-.845l.927,0c0,.33.009.66.026.992l.172.423-.139.057c.032.412.076.825.135,1.236ZM13.262,33.9a21.589,21.589,0,0,1-2.718-.827l.33-.868a20.42,20.42,0,0,0,2.6.792Zm-5.3-2.037a15.984,15.984,0,0,1-2.349-1.631l.6-.71a14.952,14.952,0,0,0,2.213,1.535ZM32.5,31.346l-.5-.779a6.328,6.328,0,0,0,1.893-1.737l.775.51A7.26,7.26,0,0,1,32.5,31.346Zm-2.538-2.8-.914-.154A9.7,9.7,0,0,1,29.9,25.6l.825.426A8.73,8.73,0,0,0,29.958,28.542ZM3.63,28.151a16.552,16.552,0,0,1-1.539-2.408l.821-.432a15.518,15.518,0,0,0,1.451,2.273Zm30.44-1.472a4.5,4.5,0,0,0-1.62-1.576,1,1,0,0,0-.161-.089l.374-.849a2.293,2.293,0,0,1,.285.156,5.421,5.421,0,0,1,1.943,1.926ZM.971,23.12a18.718,18.718,0,0,1-.7-2.762l.916-.158a17.774,17.774,0,0,0,.66,2.625ZM0,17.525l0-.369a19.441,19.441,0,0,1,.161-2.475l.919.119a18.285,18.285,0,0,0-.154,2.356l0,.347ZM1.616,12.14.723,11.9a21.9,21.9,0,0,1,.931-2.682l.855.361A21.05,21.05,0,0,0,1.616,12.14ZM3.711,7.129,2.9,6.673A27.8,27.8,0,0,1,4.423,4.29l.756.536A26.988,26.988,0,0,0,3.711,7.129ZM6.864,2.667l-.7-.6C6.749,1.375,7.393.68,8.073,0l.656.656C8.066,1.32,7.439,2,6.864,2.667Z" transform="translate(0 2.156)"/></g><g transform="translate(0 231.889)"><path class="i" d="M44.534,161.781a7.573,7.573,0,1,1,5.962-2.888A7.54,7.54,0,0,1,44.534,161.781Zm.017-14.216a6.645,6.645,0,1,0,4.1,1.42A6.638,6.638,0,0,0,44.55,147.564Z" transform="translate(-12.739 -115.732)"/><path class="i" d="M34.495,157.222a10.61,10.61,0,1,1,8.353-4.047h0A10.6,10.6,0,0,1,34.495,157.222Zm.022-20.293a9.686,9.686,0,1,0,7.6,15.673h0a9.682,9.682,0,0,0-7.6-15.673Zm7.967,15.959h0Z" transform="translate(-23.897 -124.811)"/><path class="i" d="M33.1,152.786a7.571,7.571,0,1,1,5.962-2.888A7.532,7.532,0,0,1,33.1,152.786Zm.015-14.216a6.645,6.645,0,1,0,4.1,1.42A6.64,6.64,0,0,0,33.114,138.57Z" transform="translate(-22.498 -123.413)"/><path class="i" d="M35.684,142.829c-.423,1.3-2.465,1.793-4.56,1.109s-3.45-2.288-3.029-3.583,2.465-1.791,4.56-1.109S36.107,141.534,35.684,142.829Z" transform="translate(-20.378 -122.303)"/><path class="i" d="M47.215,151.9c-.423,1.3-2.464,1.791-4.558,1.109s-3.452-2.287-3.029-3.583,2.464-1.793,4.558-1.109S47.638,150.607,47.215,151.9Z" transform="translate(-10.533 -114.557)"/><path class="i" d="M39.669,159.012a.458.458,0,0,1-.332-.141.464.464,0,0,1,0-.641l1.216-1.285A9.688,9.688,0,0,0,27.9,142.68l-1.42,1.051a.464.464,0,0,1-.584-.719,10.748,10.748,0,0,1,1.487-1.1L39.134,133.2a9.172,9.172,0,0,1,12.142,13.751l-10.023,10.6a10.373,10.373,0,0,1-1.275,1.346A.459.459,0,0,1,39.669,159.012Zm-6.74-18.667a10.591,10.591,0,0,1,7.947,3.567h0a10.623,10.623,0,0,1,2.106,10.462l7.65-8.088a8.248,8.248,0,1,0-10.915-12.368l-8.978,6.653A10.771,10.771,0,0,1,32.929,140.345Z" transform="translate(-22.326 -129.153)"/><path class="i" d="M44.529,141.134a.467.467,0,0,1-.463-.452,8.079,8.079,0,0,0-7.005-7.9.466.466,0,0,1-.384-.347.461.461,0,0,1,.174-.484l.68-.506a5.967,5.967,0,0,1,7.889,8.955l-.554.589A.469.469,0,0,1,44.529,141.134Zm-6.306-9.063a8.971,8.971,0,0,1,6.688,7.541,5.042,5.042,0,0,0-6.688-7.541Z" transform="translate(-12.999 -129.965)"/><path class="i" d="M45.922,166.223a10.614,10.614,0,0,1-8.32-17.178h0a10.613,10.613,0,1,1,9.6,17.1A10.973,10.973,0,0,1,45.922,166.223Zm-7.593-16.606a9.687,9.687,0,1,0,13.6-1.624,9.628,9.628,0,0,0-13.6,1.624Zm-.363-.287h0Z" transform="translate(-14.138 -117.131)"/><path class="i" d="M54.363,166.832a.484.484,0,0,1-.2-.044.465.465,0,0,1-.228-.6l.7-1.648a9.7,9.7,0,0,0-4.694-11.488h0a9.708,9.708,0,0,0-12.159,2.571l-.96,1.481a.463.463,0,0,1-.8-.471,10.4,10.4,0,0,1,1-1.552l7.965-12.275a9.173,9.173,0,0,1,16.185,8.637L55.5,164.86a10.71,10.71,0,0,1-.732,1.726A.459.459,0,0,1,54.363,166.832Zm-3.991-14.6a10.641,10.641,0,0,1,5.637,9.048l4.332-10.236a8.247,8.247,0,1,0-14.55-7.769l-6.084,9.374a10.62,10.62,0,0,1,10.664-.417Z" transform="translate(-13.592 -123.134)"/><path class="i" d="M54.286,145.929a.574.574,0,0,1-.43-.291,8.116,8.116,0,0,0-3.745-4.21h0a8.1,8.1,0,0,0-5.583-.742.47.47,0,0,1-.48-.191.462.462,0,0,1-.007-.514l.463-.712a5.967,5.967,0,0,1,10.522,5.63l-.313.745A.466.466,0,0,1,54.286,145.929Zm-3.739-5.32a8.935,8.935,0,0,1,3.724,3.732,5.041,5.041,0,0,0-8.9-4.725,8.948,8.948,0,0,1,5.177.994Z" transform="translate(-6.764 -124.701)"/><path class="i" d="M40.771,149.621a.467.467,0,0,1-.287-.1l-4.328-3.405a.464.464,0,0,1-.052-.682l5.784-6.158a.463.463,0,0,1,.625-.046L45.66,141.7a.466.466,0,0,1,.1.617l-4.6,7.089a.465.465,0,0,1-.311.206A.526.526,0,0,1,40.771,149.621ZM37.127,145.7l3.531,2.781,4.095-6.308-2.482-1.952Z" transform="translate(-13.583 -122.141)"/></g><g transform="translate(263.344 105.808)"><path class="i" d="M162.007,168.146a.42.42,0,0,1-.093-.011.361.361,0,0,1-.214-.167l-11.915-20.92a.355.355,0,0,1,.133-.483l32.058-18.257a.354.354,0,0,1,.483.133l11.913,20.919a.352.352,0,0,1-.133.482L162.183,168.1A.364.364,0,0,1,162.007,168.146ZM150.577,147l11.564,20.3L193.583,149.4l-11.564-20.3Z" transform="translate(-149.739 -125.842)"/><g transform="translate(4.713 7.715)"><rect class="i" width="16.828" height="3.344" transform="translate(12.169 8.328) rotate(-29.662)"/><path class="i" d="M158.224,152.886a.352.352,0,0,1-.307-.178l-4.8-8.427a.347.347,0,0,1-.034-.267.359.359,0,0,1,.167-.215l8.134-4.632a.353.353,0,0,1,.483.133l4.8,8.425a.353.353,0,0,1-.133.483l-8.134,4.632A.353.353,0,0,1,158.224,152.886Zm-4.317-8.647,4.45,7.811,7.518-4.282-4.449-7.811Z" transform="translate(-153.07 -129.05)"/><rect class="i" width="9.361" height="3.344" transform="translate(6.394 25.662) rotate(-29.662)"/><rect class="i" width="16.828" height="1.672" transform="matrix(0.869, -0.495, 0.495, 0.869, 15.189, 13.631)"/><rect class="i" width="16.828" height="1.672" transform="matrix(0.869, -0.495, 0.495, 0.869, 17.113, 17.008)"/><rect class="i" width="16.828" height="1.672" transform="matrix(0.869, -0.495, 0.495, 0.869, 19.036, 20.386)"/><g transform="translate(4.04 13.779)"><path class="i" d="M159.3,145.964a2.26,2.26,0,1,1,.846-3.082A2.262,2.262,0,0,1,159.3,145.964Z" transform="translate(-155.925 -141.741)"/><g transform="translate(1.239 3.477)"><path class="i" d="M163.446,146.758l-1.353-2.374a.368.368,0,0,0-.5-.137l-4.607,2.624a.369.369,0,0,0-.137.5l1.353,2.374Z" transform="translate(-156.8 -144.198)"/></g></g></g><path class="i" d="M159.027,139.456a.346.346,0,0,1-.093-.013.359.359,0,0,1-.215-.167l-1.875-3.293a.355.355,0,0,1,.133-.483l8.333-4.746a.354.354,0,0,1,.483.133l1.875,3.293a.353.353,0,0,1-.133.481l-8.333,4.748A.364.364,0,0,1,159.027,139.456Zm-1.394-3.515,1.525,2.679,7.719-4.4-1.525-2.679Z" transform="translate(-146.81 -124.826)"/><path class="i" d="M158.872,135.732a.353.353,0,0,1-.307-.18l-3.255-5.714a.352.352,0,0,1,.133-.482l4.842-2.758a.354.354,0,0,1,.483.133l3.255,5.714a.355.355,0,0,1-.133.483l-4.844,2.758A.356.356,0,0,1,158.872,135.732ZM156.1,129.8,159,134.9l4.227-2.408-2.9-5.1Z" transform="translate(-147.447 -126.552)"/><path class="i" d="M161.886,133.586a1.059,1.059,0,1,1-1.445-.4A1.059,1.059,0,0,1,161.886,133.586Z" transform="translate(-145.52 -123.854)"/><rect class="i" width="1.115" height="3.542" transform="translate(13.307 7.626) rotate(-29.66)"/></g><g transform="translate(43.648 49.998)"><g transform="translate(72.975 94.444)"><rect class="j" width="62.646" height="86.085"/><rect class="k" width="21.852" height="23.295" transform="translate(5.377 15.655)"/><rect class="l" width="40.031" height="3.991" transform="translate(11.308 43.708)"/><rect class="l" width="45.736" height="2.787" transform="translate(5.491 51.014)"/><rect class="l" width="45.736" height="2.787" transform="translate(5.491 57.592)"/><rect class="l" width="45.736" height="2.787" transform="translate(5.491 64.17)"/><rect class="l" width="45.736" height="2.787" transform="translate(5.491 70.748)"/><rect class="l" width="45.736" height="2.787" transform="translate(5.491 77.326)"/><g transform="translate(53.611 50.797)"><path class="m" d="M110.627,116.525h-3.686V113.3h3.686Zm-3.253-.434h2.819v-2.354h-2.819Z" transform="translate(-106.941 -113.304)"/><path class="m" d="M110.627,119.271h-3.686V116.05h3.686Zm-3.253-.434h2.819v-2.354h-2.819Z" transform="translate(-106.941 -109.473)"/><path class="m" d="M110.627,122.016h-3.686V118.8h3.686Zm-3.253-.431h2.819v-2.354h-2.819Z" transform="translate(-106.941 -105.64)"/><path class="m" d="M110.627,124.764h-3.686v-3.221h3.686Zm-3.253-.434h2.819v-2.354h-2.819Z" transform="translate(-106.941 -101.809)"/><path class="m" d="M110.627,127.509h-3.686V124.29h3.686Zm-3.253-.434h2.819v-2.352h-2.819Z" transform="translate(-106.941 -97.977)"/></g><rect class="l" width="51.589" height="5.212" transform="translate(5.491 4.625)"/><rect class="l" width="17.671" height="2.787" transform="translate(34.059 22.491)"/><rect class="l" width="3.004" height="2.787" transform="translate(52.907 22.491)"/><rect class="l" width="21.852" height="2.787" transform="translate(34.059 29.327)"/><rect class="l" width="10.926" height="2.787" transform="translate(34.059 36.163)"/><rect class="l" width="3.928" height="2.787" transform="translate(46.254 36.163)"/><g transform="translate(5.377 15.655)"><g class="n"><g transform="translate(1.648 1.466)"><path class="o" d="M90,102.541c.036.122-1.749,2.206-1.063,3.9.8,1.971,5.507,2.522,6.39,1.382s-1.416-3.983-1.729-3.978S90,102.541,90,102.541Z" transform="translate(-85.695 -94.644)"/><path class="p" d="M93.25,106.362a1.159,1.159,0,0,1,1.092-.156c1.265.352,1.859,6.089,2.354,10.649h.01c.077,2.275,1.368,10.436,1.368,10.436l-1.21-.093A27.666,27.666,0,0,1,93.751,116.7c-.822-6.841,0,0,0,0C92.649,113.186,92.273,107.135,93.25,106.362Z" transform="translate(-80.242 -89.626)"/><path class="q" d="M99.355,107.282s1.789-3.018,1.267-4.426c-1.114-2.994-4.608-3.708-4.817-3.257-1.919-1.02-4.376.378-5.32,1.451-3.289,3.736-.829,9.734,2.965,9.679C99.243,112.442,99.355,107.282,99.355,107.282Z" transform="translate(-85.456 -99.244)"/><path class="o" d="M92.784,107a4.481,4.481,0,0,1-3.629-3.08,6.292,6.292,0,0,0,3.152-1.993l4.534,4.913A5.265,5.265,0,0,1,92.784,107Z" transform="translate(-85.169 -95.506)"/><path class="r" d="M93.006,116.935c0-.831-5.049-5.368-3.873-9.643h0c.781-.364,1.48-.656,2.153-.9,2.642-.958,4.74-.97,8.261.407.036.374.228,2.354.263,2.723a7.781,7.781,0,0,1,.8,2.963c-.153,1.2-2.975,3.662-2.975,4.608s2.934,6.558,4.263,7.684a21.31,21.31,0,0,1-12.934.024C90.669,119.213,93.006,117.8,93.006,116.935Z" transform="translate(-85.447 -90.219)"/><path class="s" d="M90.261,108.54a20.587,20.587,0,0,0,10.34.01c-.165,1.2-2.972,3.655-2.972,4.6s2.934,6.558,4.263,7.684a21.31,21.31,0,0,1-12.934.024c1.708-5.588,4.045-7,4.045-7.866,0-.469-1.61-2.122-2.8-4.242Z" transform="translate(-85.444 -86.274)"/><path class="t" d="M91.747,106.311c.1.211,1.392,5.075,1.526,6.065.137,1.035-.838,3.111-.8,4.014a39.1,39.1,0,0,0,2.362,8.364c-.069.01-.139.014-.208.024a34.443,34.443,0,0,1-2.362-8.386c-.012-.79.925-3.049.8-3.988-.127-.958-1.5-6.019-1.526-6.069Z" transform="translate(-81.843 -89.384)"/><path class="u" d="M90.253,103.21s1.063,3.832.232,6.51l2.685.431,1.569-.256a11.174,11.174,0,0,1-.491-3.9C94.325,104.348,90.253,103.21,90.253,103.21Z" transform="translate(-83.637 -93.711)"/><path class="t" d="M94.045,106.977l.541,1,1.016-1.931c-.16-.041-.316-.077-.472-.108L93.5,105.7l-2.479.3c-.309.077-.623.168-.941.275l2.666,1.931.45-1.169.6.546Z" transform="translate(-83.884 -90.239)"/><path class="v" d="M90.817,103.3c1.142.4,3.4,1.286,3.341,2.515a8.889,8.889,0,0,0,.046,1.6,7.144,7.144,0,0,1-3.569,2.228l-.228-.036a12.975,12.975,0,0,0-.1-5.95Z" transform="translate(-83.559 -93.591)"/><path class="w" d="M93.475,106.456l-.819,2.022-2.564-1.54.68-1.782Z" transform="translate(-83.862 -90.997)"/><path class="w" d="M91.5,106.369l1.058,1.836.96-1.589-.794-1.407Z" transform="translate(-81.892 -90.92)"/><path class="x" d="M95.191,111.428c.4-.05,1-.781,1.384-1.162a3.564,3.564,0,0,0,1.049-3.921s1.607-5.5-2.908-5.942-5.212,4.033-4.194,7.389A5.068,5.068,0,0,0,95.191,111.428Z" transform="translate(-83.831 -97.67)"/><path class="u" d="M93.576,100.389c-3.162.584-3.552,10.227,1.662,11-.014,0-.034.012-.048.014a5.068,5.068,0,0,1-4.668-3.636C89.6,104.722,90.1,100.765,93.576,100.389Z" transform="translate(-83.83 -97.646)"/><path class="u" d="M93.233,102.047a2.371,2.371,0,0,0-.743,1.887,1.653,1.653,0,0,0,1.061,1.377,1.072,1.072,0,0,1-.96.754c-.711-.017.58-.711.58-.711a1.817,1.817,0,0,1,.062-3.308Z" transform="translate(-80.999 -95.333)"/><path class="o" d="M93.119,102.038c.012.1-.393.074-1.15.213-.692.127-1.207.352-1.226.247s.362-.441,1.171-.6C92.7,101.743,93.1,101.834,93.119,102.038Z" transform="translate(-82.954 -95.65)"/><path class="o" d="M94.49,102.8c-.014.072-.357-.189-.86-.364s-.989-.316-.977-.4.144-.137.378-.117C94.452,102.186,94.514,102.691,94.49,102.8Z" transform="translate(-80.289 -95.525)"/><g transform="translate(9.633 11.214)"><path class="y" d="M91.71,104.049c-.014.036-.122.019-.158,0a.067.067,0,1,1,.055-.122C91.64,103.946,91.724,104.015,91.71,104.049Z" transform="translate(-91.513 -103.926)"/><path class="y" d="M92.758,104.08c.022.031.125,0,.156-.026a.068.068,0,0,0,.014-.093.065.065,0,0,0-.091-.017C92.806,103.965,92.737,104.049,92.758,104.08Z" transform="translate(-89.78 -103.917)"/><path class="z" d="M91.561,103.962l2.932.046a1.808,1.808,0,0,1-1.435.874A1.957,1.957,0,0,1,91.561,103.962Z" transform="translate(-91.445 -103.875)"/><path class="y" d="M91.561,103.962l2.932.046a1.808,1.808,0,0,1-1.435.874A1.957,1.957,0,0,1,91.561,103.962Z" transform="translate(-91.445 -103.875)"/><path class="aa" d="M91.651,104l2.374.034a1.475,1.475,0,0,1-1.257.678A1.452,1.452,0,0,1,91.651,104Z" transform="translate(-91.32 -103.826)"/><path class="ab" d="M91.651,104l2.374.034-.139.175a2.266,2.266,0,0,0-1.032-.144,4.443,4.443,0,0,0-1.095.1S91.68,104.045,91.651,104Z" transform="translate(-91.32 -103.826)"/></g><path class="q" d="M92.047,100.564l.316.24c1.075-.733,2.855-1.171,5.087.172,0,0-.22.886-1.571,1.135-2.726.505-3.8.6-4.683,2.311-.069,1.257.084,2.319-.223,2.371-.2.034-.673-.352-.673-.352S88.806,101.019,92.047,100.564Z" transform="translate(-84.051 -98.039)"/><g transform="translate(5.391 8.488)"><path class="u" d="M89.742,103.718a.96.96,0,1,0,.989-.929A.96.96,0,0,0,89.742,103.718Z" transform="translate(-89.742 -102.788)"/><path class="v" d="M90.525,102.929a.6.6,0,0,1,.359.144.543.543,0,0,0-.163-.041.533.533,0,0,0-.036,1.066.47.47,0,0,0,.129-.022.606.606,0,0,1-.331.1.622.622,0,0,1,.041-1.243Z" transform="translate(-89.545 -102.591)"/></g><g transform="translate(7.952 7.39)"><path class="ac" d="M92.715,102.763s-.077.479-.929.407c-.735-.062-.96-.484-.745-.414A14.01,14.01,0,0,0,92.715,102.763Z" transform="translate(-90.6 -101.745)"/><path class="ac" d="M93.012,103.086l-1.789-.22-.412-.048C91.115,102.271,92.9,101.972,93.012,103.086Z" transform="translate(-90.811 -102.329)"/><path class="aa" d="M92.726,102.989c-.043-.278-.2-.6-.848-.584-.908.029-1.016.608-.857.869C91.3,103.731,92.857,103.849,92.726,102.989Z" transform="translate(-90.603 -102.225)"/><path class="ac" d="M91.213,103.029a.614.614,0,1,0,.606-.64A.622.622,0,0,0,91.213,103.029Z" transform="translate(-90.25 -102.246)"/></g><path class="q" d="M90.121,102.85a2.061,2.061,0,0,0,.939-.156,1.743,1.743,0,0,0,.34-.189,9.146,9.146,0,0,1,4.247-1.274c1.107-.146,1.413-.651,1.492-.862.041-.014.081.038.081.038a2.852,2.852,0,0,0,.278.414,1.94,1.94,0,0,1-1.485.929c-2.726.505-3.8.6-4.683,2.309-.067,1.257.084,2.321-.223,2.374-.2.034-.673-.352-.673-.352C90.107,106.124,89.517,104.474,90.121,102.85Z" transform="translate(-84.186 -97.678)"/><g transform="translate(12.122 7.56)"><path class="ac" d="M92.556,102.785s-.048.484.807.443c.517-.024.711-.407.493-.357A8.949,8.949,0,0,1,92.556,102.785Z" transform="translate(-92.546 -101.863)"/><path class="ac" d="M92.556,103.054l1.437-.1.319-.034C94.046,102.371,92.767,102.045,92.556,103.054Z" transform="translate(-92.546 -102.4)"/><path class="aa" d="M92.574,102.969c.067-.263.3-.546.951-.481a.559.559,0,0,1,.434.848C93.654,103.819,92.37,103.738,92.574,102.969Z" transform="translate(-92.552 -102.292)"/><path class="ac" d="M93.878,103.1a.6.6,0,1,1-.553-.647A.6.6,0,0,1,93.878,103.1Z" transform="translate(-92.379 -102.322)"/></g><path class="ad" d="M92.908,116.5c0-.831-5.015-5.31-3.76-9.643.678-.316,1.246-.613,1.837-.838.026.036,3.217,4.206,3.677,6.268a10.679,10.679,0,0,1,0,4.211c-.18,1.26-.378,6.479.043,8.158a19.106,19.106,0,0,1-5.617-.958C90.767,118.671,92.908,117.337,92.908,116.5Z" transform="translate(-85.461 -89.787)"/><path class="ad" d="M95.92,112.223c-.153,1.2-3,3.662-3,4.608,0,.85,2.5,5.418,3.945,7.15a8.127,8.127,0,0,1-1.327.429s-3.372-6.433-3.193-7.514,1.708-3.035,2.113-4.79c.4-1.732-1.346-6.086-1.375-6.206a11.737,11.737,0,0,1,1.753.594c.036.371.256,2.4.292,2.766A7.781,7.781,0,0,1,95.92,112.223Z" transform="translate(-80.733 -89.957)"/><path class="p" d="M94.621,121.239A19.106,19.106,0,0,1,89,120.281c1.681-5.03,3.823-6.364,3.823-7.2,0-.5-1.794-2.309-2.968-4.611.189.089.338.16.338.16a18.821,18.821,0,0,0,4.441.616,11.205,11.205,0,0,1-.06,3.832C94.4,114.341,94.2,119.56,94.621,121.239Z" transform="translate(-85.38 -86.368)"/><path class="p" d="M95.92,108.561c-.153,1.2-3,3.662-3,4.608,0,.85,2.5,5.418,3.945,7.15a8.126,8.126,0,0,1-1.327.429s-3.372-6.433-3.193-7.514c.165-.994,1.468-2.735,1.99-4.376.7-.12,1.248-.247,1.586-.333A.183.183,0,0,1,95.92,108.561Z" transform="translate(-80.733 -86.295)"/><g transform="translate(0 17.01)"><path class="ad" d="M91.177,106.409c2.2-.592,1.277,3.1.244,6.972-.958,3.6-1.612,6.146-3.166,5.758C85.946,118.562,89.443,106.873,91.177,106.409Z" transform="translate(-87.491 -106.346)"/></g><path class="ae" d="M98.024,101.95c.026-1.224-2.812-3.1-5.322-2.445-2.316.608-4.146,4-3.135,5.008.4.4,1.576-.9,5.128-1.619C96.324,102.563,98.01,102.683,98.024,101.95Z" transform="translate(-84.992 -99.071)"/><path class="o" d="M91.039,104.294c-.2.034-.673-.352-.673-.352-.146.019-.34-.309-.462-.812a5.338,5.338,0,0,0,1.358-1.207C91.193,103.18,91.346,104.242,91.039,104.294Z" transform="translate(-84.124 -95.506)"/><path class="ae" d="M92.743,101.308a4.406,4.406,0,0,1-3.447,2.848l-.17-.474A6.5,6.5,0,0,1,92.743,101.308Z" transform="translate(-85.21 -96.364)"/><path class="ae" d="M94.384,102.417c.951-.649-.833-2.393-1.2-2.213S93.723,102.867,94.384,102.417Z" transform="translate(-79.656 -97.923)"/></g></g></g><rect class="l" width="7.906" height="2.787" transform="translate(34.059 15.655)"/><rect class="l" width="12.698" height="2.787" transform="translate(43.213 15.655)"/><path class="af" d="M106.8,113.986A13.2,13.2,0,0,1,109,117.1a24.33,24.33,0,0,1,2.953-4.69A7.94,7.94,0,0,0,109,115.265,6.779,6.779,0,0,0,106.8,113.986Z" transform="translate(-53.525 -63.751)"/><path class="af" d="M106.8,119.417a13.2,13.2,0,0,1,2.2,3.116,24.252,24.252,0,0,1,2.953-4.69A7.94,7.94,0,0,0,109,120.7,6.779,6.779,0,0,0,106.8,119.417Z" transform="translate(-53.525 -56.174)"/><path class="af" d="M106.8,122.076a13.166,13.166,0,0,1,2.2,3.114,24.27,24.27,0,0,1,2.953-4.687A7.939,7.939,0,0,0,109,123.355,6.735,6.735,0,0,0,106.8,122.076Z" transform="translate(-53.525 -52.464)"/></g><g transform="translate(72.975)"><rect class="j" width="62.646" height="86.085"/><rect class="k" width="21.852" height="23.295" transform="translate(5.377 15.655)"/><rect class="l" width="40.031" height="3.991" transform="translate(11.308 43.708)"/><rect class="l" width="45.736" height="2.787" transform="translate(5.491 51.014)"/><rect class="l" width="45.736" height="2.787" transform="translate(5.491 57.592)"/><rect class="l" width="45.736" height="2.787" transform="translate(5.491 64.17)"/><rect class="l" width="45.736" height="2.787" transform="translate(5.491 70.748)"/><rect class="l" width="45.736" height="2.787" transform="translate(5.491 77.326)"/><g transform="translate(53.611 50.797)"><path class="m" d="M110.627,77.095h-3.686V73.873h3.686Zm-3.253-.434h2.819V74.307h-2.819Z" transform="translate(-106.941 -73.873)"/><path class="m" d="M110.627,79.84h-3.686V76.619h3.686Zm-3.253-.434h2.819V77.053h-2.819Z" transform="translate(-106.941 -70.042)"/><path class="m" d="M110.627,82.588h-3.686V79.366h3.686Zm-3.253-.434h2.819V79.8h-2.819Z" transform="translate(-106.941 -66.209)"/><path class="m" d="M110.627,85.333h-3.686V82.112h3.686Zm-3.253-.434h2.819V82.546h-2.819Z" transform="translate(-106.941 -62.378)"/><path class="m" d="M110.627,88.078h-3.686V84.859h3.686Zm-3.253-.434h2.819V85.293h-2.819Z" transform="translate(-106.941 -58.546)"/></g><rect class="l" width="51.589" height="5.212" transform="translate(5.491 4.625)"/><rect class="l" width="17.671" height="2.787" transform="translate(34.059 22.491)"/><rect class="l" width="3.004" height="2.787" transform="translate(52.907 22.491)"/><rect class="l" width="21.852" height="2.787" transform="translate(34.059 29.327)"/><rect class="l" width="10.926" height="2.787" transform="translate(34.059 36.163)"/><rect class="l" width="3.928" height="2.787" transform="translate(46.254 36.163)"/><rect class="l" width="7.906" height="2.787" transform="translate(34.059 15.655)"/><rect class="l" width="12.698" height="2.787" transform="translate(43.213 15.655)"/><path class="af" d="M106.8,77.179a13.2,13.2,0,0,1,2.2,3.116,24.252,24.252,0,0,1,2.953-4.69A7.94,7.94,0,0,0,109,78.458,6.779,6.779,0,0,0,106.8,77.179Z" transform="translate(-53.525 -20.659)"/><path class="af" d="M106.8,79.986A13.2,13.2,0,0,1,109,83.1a24.252,24.252,0,0,1,2.953-4.69A7.94,7.94,0,0,0,109,81.265,6.735,6.735,0,0,0,106.8,79.986Z" transform="translate(-53.525 -16.743)"/><path class="af" d="M106.8,85.309a13.166,13.166,0,0,1,2.2,3.114,24.33,24.33,0,0,1,2.953-4.69A7.939,7.939,0,0,0,109,86.586,6.743,6.743,0,0,0,106.8,85.309Z" transform="translate(-53.525 -9.319)"/><g transform="translate(5.377 15.655)"><g class="n"><g transform="translate(0.026 1.385)"><path class="ag" d="M95.046,66.818c-3.36-.982-2.208,4.041-.9,9.31,1.217,4.9,2.038,8.362,4.472,7.976C102.238,83.532,97.7,67.592,95.046,66.818Z" transform="translate(-78.401 -50.131)"/><path class="ah" d="M90.468,60.985c-3.107,1.02-.594,9.272,2.307,9.375C95.055,70.441,95.821,59.385,90.468,60.985Z" transform="translate(-83.708 -58.317)"/><path class="ag" d="M103.061,86.605s-2.335-.637-7.346.311a26.236,26.236,0,0,0-7.267,2.594C86.8,85.549,87.7,68.867,89.176,67.9a14.319,14.319,0,0,1,7.03-1.634c2.69-.012,6.151.778,6.711,1.454.678.817.39,4.536-.089,6.608C100.865,82.8,100.846,85.585,103.061,86.605Z" transform="translate(-85.77 -50.733)"/><path class="ai" d="M89.941,66.515a20.48,20.48,0,0,1,2.946-.251,21.448,21.448,0,0,1,4.237.489l-1.895,3.21-.925-1.617-.592-.031-.937,1.638Z" transform="translate(-82.451 -50.733)"/><path class="ad" d="M93.018,67.342A110.2,110.2,0,0,0,94.026,79l-1.272,2.242-1.768-2.136s.6-6.266,1.145-11.868Z" transform="translate(-80.991 -49.374)"/><path class="p" d="M91.412,68.554c.043-.441.084-.881.127-1.317l.886.105s.014.477.05,1.255Z" transform="translate(-80.399 -49.374)"/><path class="ad" d="M92.159,66.375l.89,1.352-.484,1.052-.923-.051-.324-1.054Z" transform="translate(-80.53 -50.576)"/><path class="u" d="M90.573,63.793s.467,4.275-.223,6.194l5.063.084s-.319-.481-.115-3.384C95.548,63.164,90.573,63.793,90.573,63.793Z" transform="translate(-81.88 -54.239)"/><path class="v" d="M95.25,66.686c-.287-3.519-4.726-2.893-4.726-2.893a20.077,20.077,0,0,1-.139,5.921l3.109.326,1.736-.6C95.171,68.967,95.355,67.965,95.25,66.686Z" transform="translate(-81.831 -54.239)"/><path class="aj" d="M94.029,67.492l-1.159,2.422-2.861-2.7.935-1.64Z" transform="translate(-82.356 -51.69)"/><path class="aj" d="M93.466,65.745l-1.779,1.511,1.018,2.262,1.626-2.208Z" transform="translate(-80.015 -51.455)"/><path class="ah" d="M99.2,67.559s0,.034.462-2.826c0,0,.845-.575.932-1.107.319-1.945-5.863-5.964-10.615-2.465C86.626,63.628,99.2,67.559,99.2,67.559Z" transform="translate(-83.193 -59.779)"/><path class="x" d="M90.687,67.925c.366,2.606.534,2.536,2.841,4.16a3.252,3.252,0,0,0,2.362.053c.383-.247.39-.64.886-1.552a6.781,6.781,0,0,0,.853-2.654c.029-.769-.067-1.284-.062-1.828.01-1.049.184-1.99.113-3.186-.069-1.178-1.5-1.885-3.274-1.789C90.337,61.35,90.4,63.053,90.687,67.925Z" transform="translate(-81.573 -57.906)"/><path class="u" d="M94.146,71.486C90.97,69.6,91.162,62.561,92.4,61.5c-2.541.57-2.014,2.965-1.535,6.433.292,1.887.594,2.4,2.934,3.792a3.125,3.125,0,0,0,2.271-.127.612.612,0,0,0,.134-.139A3.245,3.245,0,0,1,94.146,71.486Z" transform="translate(-81.715 -57.371)"/><path class="u" d="M93.1,62.752a1.994,1.994,0,0,0-.465.721c-.534,1.746,1.018,1.839.934,2.263-.122.616-1.334.448-1.334.448.141.41,1.466.254,1.574-.371.127-.738-1.428-.628-1.03-2.278A4.962,4.962,0,0,1,93.1,62.752Z" transform="translate(-79.253 -55.631)"/><path class="ah" d="M90.54,62.632s.5.853,2.381-.007c3.966-1.823,4.762.39,4.762.39S96.734,58.124,90.54,62.632Z" transform="translate(-81.615 -58.462)"/><g transform="translate(11.732 11.44)"><path class="ac" d="M91.921,64.712c-.014.038-.129.024-.165.01a.078.078,0,0,1-.038-.1.066.066,0,0,1,.091-.038C91.844,64.6,91.935,64.673,91.921,64.712Z" transform="translate(-91.712 -64.523)"/><path class="ac" d="M93.021,64.722c.024.034.129-.01.16-.034a.075.075,0,0,0,.014-.1.068.068,0,0,0-.1-.017C93.066,64.6,93,64.689,93.021,64.722Z" transform="translate(-89.892 -64.555)"/><path class="z" d="M91.763,64.629l3.075-.019a1.883,1.883,0,0,1-1.473,1A2.084,2.084,0,0,1,91.763,64.629Z" transform="translate(-91.64 -64.479)"/><path class="ac" d="M91.763,64.629l3.075-.019a1.883,1.883,0,0,1-1.473,1A2.084,2.084,0,0,1,91.763,64.629Z" transform="translate(-91.64 -64.479)"/><path class="aa" d="M91.858,64.668l2.491-.022a1.528,1.528,0,0,1-1.3.786A1.564,1.564,0,0,1,91.858,64.668Z" transform="translate(-91.508 -64.428)"/><path class="ab" d="M91.858,64.668l2.491-.022-.137.2a2.308,2.308,0,0,0-1.09-.137,4.5,4.5,0,0,0-1.145.134S91.892,64.72,91.858,64.668Z" transform="translate(-91.508 -64.428)"/></g><path class="ah" d="M90.478,65.56l.513,1.315.64.041s-.608-3.811.716-5.406C92.346,61.51,89.805,60.612,90.478,65.56Z" transform="translate(-81.86 -57.453)"/><g transform="translate(7.177 8.067)"><path class="u" d="M91.937,64.28a1.064,1.064,0,1,1-.992-1.131A1.064,1.064,0,0,1,91.937,64.28Z" transform="translate(-89.81 -63.147)"/><path class="v" d="M90.8,64.437a.5.5,0,0,1,.1-.994.582.582,0,0,0-.232-.079.591.591,0,0,0-.137,1.174.582.582,0,0,0,.414-.113A.554.554,0,0,1,90.8,64.437Z" transform="translate(-89.531 -62.85)"/></g><path class="ag" d="M90.508,67c3.26-1.277,2.273,3.531,1.437,8.9-.776,4.987-1,8.809-3.459,8.642C84.831,84.291,87.935,68.009,90.508,67Z" transform="translate(-86.814 -49.99)"/><g transform="translate(10.463 7.503)"><path class="ac" d="M93.029,63.715c.419-.472-.141-.826-.661-.8a1.465,1.465,0,0,0-1.186.692l.1.06A9.225,9.225,0,0,0,93.029,63.715Z" transform="translate(-91.182 -62.912)"/><path class="aa" d="M92.956,63.622c.055-.17-.127-.6-.654-.623a1.219,1.219,0,0,0-1.078.587C91.226,63.735,92.479,64.489,92.956,63.622Z" transform="translate(-91.123 -62.79)"/><path class="ac" d="M91.406,63.515a.58.58,0,0,1,.331-.508.828.828,0,0,1,.273-.055.682.682,0,0,1,.316.093c.024.017.048.034.069.05a.886.886,0,0,1,.069.065.613.613,0,0,1,.149.412.589.589,0,0,1-.168.39.853.853,0,0,1-.726.1A.612.612,0,0,1,91.406,63.515Z" transform="translate(-90.87 -62.855)"/><g transform="translate(3.696 0.043)"><path class="ac" d="M94.356,63.69c.4-.446-.129-.781-.618-.759a1.169,1.169,0,0,0-1.013.661l.1.057A7.476,7.476,0,0,0,94.356,63.69Z" transform="translate(-92.725 -62.93)"/><path class="aa" d="M94.29,63.609c.053-.16-.122-.563-.618-.6a.949.949,0,0,0-.908.575C92.766,63.722,93.839,64.428,94.29,63.609Z" transform="translate(-92.671 -62.823)"/><path class="ac" d="M92.882,63.483a.545.545,0,0,1,.156-.366.758.758,0,0,1,.472-.148.623.623,0,0,1,.252.081.58.58,0,0,1,.261.489.558.558,0,0,1-.328.489.839.839,0,0,1-.5-.017A.582.582,0,0,1,92.882,63.483Z" transform="translate(-92.506 -62.878)"/></g></g><path class="ah" d="M91.048,63.6c.117.189.613-.24,1.37-.479s1.363-.151,1.31-.474c-.062-.378-.776-.443-1.531-.2C91.223,62.767,90.916,63.385,91.048,63.6Z" transform="translate(-80.947 -56.253)"/><path class="ah" d="M94.7,63.407c-.108.187-.4-.053-.939-.266s-1.054-.218-.977-.534c.089-.371.6-.376,1.143-.16C94.632,62.727,94.828,63.187,94.7,63.407Z" transform="translate(-78.49 -56.258)"/><path class="ak" d="M92.685,63.154c.69-1.6-2.929-2.565-3.365-1.471C88.826,62.917,91.971,64.807,92.685,63.154Z" transform="translate(-83.391 -57.773)"/><path class="ak" d="M99.225,62.977c.549-.917-3.792-4.163-7.964-2.719-1.7.589-1.643,1.88-.481,2.525,1.047.577,2.831.069,4.314-.134C98.121,62.232,98.811,63.667,99.225,62.977Z" transform="translate(-82.449 -59.619)"/></g></g></g></g><g transform="translate(0 94.444)"><rect class="j" width="62.647" height="86.085"/><rect class="k" width="21.852" height="23.295" transform="translate(5.377 15.655)"/><rect class="l" width="40.031" height="3.991" transform="translate(11.308 43.708)"/><rect class="l" width="45.736" height="2.787" transform="translate(5.491 51.014)"/><rect class="l" width="45.736" height="2.787" transform="translate(5.491 57.592)"/><rect class="l" width="45.736" height="2.787" transform="translate(5.491 64.17)"/><rect class="l" width="45.736" height="2.787" transform="translate(5.491 70.748)"/><rect class="l" width="45.736" height="2.787" transform="translate(5.491 77.326)"/><g transform="translate(53.612 50.797)"><path class="m" d="M80.16,116.525H76.474V113.3H80.16Zm-3.255-.434h2.822v-2.354H76.905Z" transform="translate(-76.474 -113.304)"/><path class="m" d="M80.16,119.271H76.474V116.05H80.16Zm-3.255-.434h2.822v-2.354H76.905Z" transform="translate(-76.474 -109.473)"/><path class="m" d="M80.16,122.016H76.474V118.8H80.16Zm-3.255-.431h2.822v-2.354H76.905Z" transform="translate(-76.474 -105.64)"/><path class="m" d="M80.16,124.764H76.474v-3.221H80.16Zm-3.255-.434h2.822v-2.354H76.905Z" transform="translate(-76.474 -101.809)"/><path class="m" d="M80.16,127.509H76.474V124.29H80.16Zm-3.255-.434h2.822v-2.352H76.905Z" transform="translate(-76.474 -97.977)"/></g><rect class="l" width="51.589" height="5.212" transform="translate(5.491 4.625)"/><rect class="l" width="17.67" height="2.787" transform="translate(34.059 22.491)"/><rect class="l" width="3.004" height="2.787" transform="translate(52.907 22.491)"/><rect class="l" width="21.852" height="2.787" transform="translate(34.059 29.327)"/><rect class="l" width="10.926" height="2.787" transform="translate(34.059 36.163)"/><rect class="l" width="3.928" height="2.787" transform="translate(46.254 36.163)"/><rect class="l" width="7.906" height="2.787" transform="translate(34.059 15.655)"/><rect class="l" width="12.697" height="2.787" transform="translate(43.214 15.655)"/><path class="af" d="M76.334,116.634a13.274,13.274,0,0,1,2.2,3.116,24.391,24.391,0,0,1,2.951-4.69,7.942,7.942,0,0,0-2.951,2.855A6.771,6.771,0,0,0,76.334,116.634Z" transform="translate(-23.057 -60.057)"/><path class="af" d="M76.334,119.417a13.274,13.274,0,0,1,2.2,3.116,24.313,24.313,0,0,1,2.951-4.69A7.945,7.945,0,0,0,78.53,120.7,6.779,6.779,0,0,0,76.334,119.417Z" transform="translate(-23.057 -56.174)"/><path class="af" d="M76.334,122.076a13.24,13.24,0,0,1,2.2,3.114,24.33,24.33,0,0,1,2.951-4.687,7.945,7.945,0,0,0-2.951,2.853A6.734,6.734,0,0,0,76.334,122.076Z" transform="translate(-23.057 -52.464)"/><path class="af" d="M76.334,113.893a13.274,13.274,0,0,1,2.2,3.116,24.313,24.313,0,0,1,2.951-4.69,7.946,7.946,0,0,0-2.951,2.853A6.734,6.734,0,0,0,76.334,113.893Z" transform="translate(-23.057 -63.881)"/><g transform="translate(5.377 15.655)"><g class="n"><g transform="translate(-0.892 1.239)"><path class="al" d="M64.536,106.666c-3.351-1.028-2.163,3.981-.819,9.238,1.25,4.886,2.1,8.34,4.512,8C71.822,123.384,67.177,107.475,64.536,106.666Z" transform="translate(-47.034 -88.85)"/><path class="am" d="M59.928,100.5c-3.1.965-.287,8.948,2.144,9.353C64.306,110.227,65.274,99,59.928,100.5Z" transform="translate(-52.34 -97.458)"/><path class="an" d="M72.605,126.387s-2.326-.668-7.3.2a25.614,25.614,0,0,0-7.2,2.469c-1.674-3.962-.915-20.524.546-21.466a14.033,14.033,0,0,1,6.977-1.519c2.675.029,6.12.867,6.683,1.545.683.822.426,4.517-.034,6.565C70.392,122.574,70.394,125.338,72.605,126.387Z" transform="translate(-54.306 -89.496)"/><path class="ai" d="M59.467,106.275a20.242,20.242,0,0,1,2.927-.206,21.478,21.478,0,0,1,4.216.548l-1.856,3.162-.934-1.619-.587-.043-.917,1.617Z" transform="translate(-51.074 -89.496)"/><path class="ao" d="M58.1,123.939c-.977-2.314-1.126-8.92-.788-14.206a34.612,34.612,0,0,0,14.666.675c-1.578,7.348-1.463,9.875.625,10.865,0,0-2.326-.668-7.3.2A25.614,25.614,0,0,0,58.1,123.939Z" transform="translate(-54.306 -84.382)"/><path class="ap" d="M62.476,107.16a109.714,109.714,0,0,0,1.1,11.6l-1.246,2.208-1.772-2.148s.544-6.218,1.039-11.777Z" transform="translate(-49.556 -88.14)"/><path class="aq" d="M60.941,108.348q.057-.657.115-1.308l.881.12s.019.474.062,1.248Z" transform="translate(-49.018 -88.14)"/><path class="p" d="M60.921,110.212c.759.019,1.461.017,2.1-.007.149,1.406.328,2.841.551,4.136l-1.246,2.208L60.555,114.4S60.706,112.662,60.921,110.212Z" transform="translate(-49.556 -83.724)"/><path class="ap" d="M61.665,106.187l.9,1.357-.472,1.038-.918-.065-.331-1.052Z" transform="translate(-49.159 -89.33)"/><path class="v" d="M65.022,107.023c-.316-3.5-5.332-3.8-5.332-3.8a13.628,13.628,0,0,1,.52,6.74l3.095.371,1.722-.57C64.962,109.288,65.137,108.3,65.022,107.023Z" transform="translate(-50.763 -93.471)"/><path class="aj" d="M63.532,107.324,62.4,109.713l-2.866-2.724.916-1.615Z" transform="translate(-50.981 -90.464)"/><path class="aj" d="M62.959,105.572,61.2,107.047l1.031,2.263,1.6-2.17Z" transform="translate(-48.652 -90.187)"/><path class="am" d="M68.548,107.417s0,.031.5-2.8c0,0,2.453-1.078.18-4.148-.407,1.789-2.2-1.562-6.46-1.3-2.105.129-4.462,1.782-3.717,3.207C60.263,104.679,68.548,107.417,68.548,107.417Z" transform="translate(-51.851 -99.149)"/><path class="x" d="M60.1,107.387c.323,2.594.491,2.529,2.759,4.177a3.212,3.212,0,0,0,2.342.091c.386-.24.4-.63.908-1.528A6.762,6.762,0,0,0,67,107.5c.041-.762-.046-1.277-.031-1.818.026-1.04.216-1.974.163-3.162-.053-1.171-1.461-1.9-3.226-1.83C59.86,100.846,59.891,102.539,60.1,107.387Z" transform="translate(-50.291 -97.002)"/><path class="u" d="M63.47,111c-3.126-1.919-2.822-8.915-1.574-9.945-2.534.525-2.048,2.915-1.629,6.369.261,1.88.553,2.4,2.855,3.816a3.12,3.12,0,0,0,2.261-.091.671.671,0,0,0,.137-.137A3.2,3.2,0,0,1,63.47,111Z" transform="translate(-50.428 -96.493)"/><path class="u" d="M62.573,102.314a1.97,1.97,0,0,0-.472.707c-.56,1.727.98,1.844.891,2.263-.132.611-1.332.424-1.332.424.134.412,1.451.275,1.569-.343.137-.731-1.408-.647-.989-2.28A4.885,4.885,0,0,1,62.573,102.314Z" transform="translate(-48.014 -94.733)"/><path class="am" d="M60.02,102.122s.486.855,2.364.029c3.974-1.748,4.726.465,4.726.465S66.245,97.739,60.02,102.122Z" transform="translate(-50.303 -97.552)"/><g transform="translate(12.388 11.89)"><path class="ac" d="M61.341,104.25c-.014.038-.127.022-.163,0a.074.074,0,0,1-.038-.1.069.069,0,0,1,.093-.038C61.267,104.138,61.356,104.212,61.341,104.25Z" transform="translate(-61.135 -104.111)"/><path class="ac" d="M62.436,104.276c.022.034.129-.007.158-.029a.078.078,0,0,0,.017-.1.065.065,0,0,0-.1-.017C62.484,104.149,62.412,104.245,62.436,104.276Z" transform="translate(-59.327 -104.113)"/><path class="z" d="M61.186,104.154l3.056.029a1.864,1.864,0,0,1-1.48.975A2.064,2.064,0,0,1,61.186,104.154Z" transform="translate(-61.063 -104.056)"/><path class="ac" d="M61.186,104.154l3.056.029a1.864,1.864,0,0,1-1.48.975A2.064,2.064,0,0,1,61.186,104.154Z" transform="translate(-61.063 -104.056)"/><path class="aa" d="M61.279,104.192l2.477.019a1.513,1.513,0,0,1-1.3.759A1.544,1.544,0,0,1,61.279,104.192Z" transform="translate(-60.934 -104.003)"/><path class="ab" d="M61.279,104.192l2.477.019-.139.2a2.265,2.265,0,0,0-1.08-.153,4.4,4.4,0,0,0-1.14.115S61.313,104.245,61.279,104.192Z" transform="translate(-60.934 -104.003)"/></g><path class="am" d="M59.919,105.056l.489,1.315.637.05s-.546-3.8.8-5.36C61.839,101.061,59.327,100.127,59.919,105.056Z" transform="translate(-50.57 -96.58)"/><g transform="translate(7.901 8.43)"><path class="u" d="M61.375,103.812a1.058,1.058,0,1,1-.97-1.14A1.057,1.057,0,0,1,61.375,103.812Z" transform="translate(-59.261 -102.668)"/><path class="v" d="M60.241,103.955a.5.5,0,0,1,.113-.987.615.615,0,0,0-.23-.084.588.588,0,1,0,.259,1.061A.553.553,0,0,1,60.241,103.955Z" transform="translate(-58.985 -102.373)"/></g><path class="am" d="M60.5,103.116c.11.189.613-.228,1.368-.455s1.356-.129,1.31-.45c-.057-.376-.764-.453-1.519-.22C60.688,102.288,60.374,102.9,60.5,103.116Z" transform="translate(-49.667 -95.368)"/><path class="am" d="M64.131,102.992c-.11.187-.4-.057-.929-.275s-1.044-.235-.963-.549c.093-.369.6-.364,1.138-.139C64.069,102.316,64.258,102.779,64.131,102.992Z" transform="translate(-47.219 -95.349)"/><path class="ar" d="M62.133,102.7c.709-1.571-2.872-2.594-3.322-1.516C58.3,102.409,61.4,104.335,62.133,102.7Z" transform="translate(-52.068 -96.927)"/><path class="al" d="M61.91,106.223c.01.022,2.441,5.6,4.833,8.285a57.406,57.406,0,0,0,4.311-7.789,3.426,3.426,0,0,1,1.365.678c.881.745.56,4.462.1,6.512-1.88,8.4-2.014,11.212.2,12.261a13.04,13.04,0,0,1-4.8-.141l-1.145-.723-1.358,1.061c-2.752,1.99-5.43,2.965-7.485,2.637-1.677-3.962-.632-20.692.829-21.633A9.717,9.717,0,0,1,61.91,106.223Z" transform="translate(-54.417 -89.28)"/><path class="as" d="M61.685,109.588a46.566,46.566,0,0,0-.529,9.25,4.39,4.39,0,0,0,.783,2l-.369-.232-.065.05a4.528,4.528,0,0,1-.616-1.8,46.484,46.484,0,0,1,.513-9.209c.046.053.091.11.137.163Z" transform="translate(-49.213 -84.585)"/><path class="at" d="M66.731,106.938l-1.21.917.759,1.756a23.7,23.7,0,0,1-5.221,6.036l.12-1.4a58.451,58.451,0,0,0,4.321-7.839A4.733,4.733,0,0,1,66.731,106.938Z" transform="translate(-48.853 -89.02)"/><path class="at" d="M59.834,106.186a9.237,9.237,0,0,0-1.265.352l1.327,1-.726,1.188a21.829,21.829,0,0,0,5.408,6.685,1.242,1.242,0,0,0,.074-.855S60.674,108.591,59.834,106.186Z" transform="translate(-52.327 -89.331)"/><path class="au" d="M61.046,109.507c.168.259.275.419.275.419l-.074.855-.29-.244Z" transform="translate(-48.995 -84.698)"/><path class="al" d="M60.456,106.689c2.752-.807,2.649,3.744,1.2,8.905-1.387,4.924-1.942,7.947-4.366,7.535C53.681,122.517,58.363,107.913,60.456,106.689Z" transform="translate(-55.963 -88.759)"/><path class="ar" d="M68.638,100.293s1.418,2.467-1.454,1.928c-3.468-.649-4.117.8-6.364.256s-1.885-2.592.671-3.095C65.6,98.578,68.465,102.554,68.638,100.293Z" transform="translate(-51.26 -98.976)"/><g transform="translate(11.104 7.975)"><path class="ac" d="M62.446,103.282c.419-.469-.141-.824-.661-.8a1.472,1.472,0,0,0-1.186.692l.1.062A9.031,9.031,0,0,0,62.446,103.282Z" transform="translate(-60.599 -102.479)"/><path class="aa" d="M62.373,103.188c.055-.168-.129-.6-.654-.62a1.223,1.223,0,0,0-1.078.584C60.643,103.3,61.9,104.055,62.373,103.188Z" transform="translate(-60.54 -102.356)"/><path class="ac" d="M60.823,103.081a.585.585,0,0,1,.328-.508.839.839,0,0,1,.275-.053.7.7,0,0,1,.316.093.464.464,0,0,1,.069.05.555.555,0,0,1,.067.062.608.608,0,0,1,.151.412.579.579,0,0,1-.168.39.867.867,0,0,1-.728.1A.613.613,0,0,1,60.823,103.081Z" transform="translate(-60.287 -102.421)"/><g transform="translate(3.693 0.045)"><path class="ac" d="M63.775,103.256c.4-.443-.129-.781-.62-.757a1.175,1.175,0,0,0-1.013.659l.1.06A7.506,7.506,0,0,0,63.775,103.256Z" transform="translate(-62.141 -102.497)"/><path class="aa" d="M63.707,103.178c.05-.16-.122-.565-.618-.6a.944.944,0,0,0-.908.572C62.183,103.29,63.256,103.994,63.707,103.178Z" transform="translate(-62.085 -102.391)"/><path class="ac" d="M62.3,103.052a.556.556,0,0,1,.156-.369.79.79,0,0,1,.472-.149.638.638,0,0,1,.251.084.574.574,0,0,1,.261.489.554.554,0,0,1-.328.486.837.837,0,0,1-.5-.014A.578.578,0,0,1,62.3,103.052Z" transform="translate(-61.921 -102.447)"/></g></g></g></g></g></g><rect class="j" width="62.647" height="86.085"/><rect class="k" width="21.852" height="23.295" transform="translate(5.377 15.655)"/><rect class="l" width="40.031" height="3.991" transform="translate(11.308 43.708)"/><rect class="l" width="45.736" height="2.787" transform="translate(5.491 51.014)"/><rect class="l" width="45.736" height="2.787" transform="translate(5.491 57.592)"/><rect class="l" width="45.736" height="2.787" transform="translate(5.491 64.17)"/><rect class="l" width="45.736" height="2.787" transform="translate(5.491 70.748)"/><rect class="l" width="45.736" height="2.787" transform="translate(5.491 77.326)"/><g transform="translate(53.612 50.797)"><path class="m" d="M80.16,77.095H76.474V73.873H80.16Zm-3.255-.434h2.822V74.307H76.905Z" transform="translate(-76.474 -73.873)"/><path class="m" d="M80.16,79.84H76.474V76.619H80.16Zm-3.255-.434h2.822V77.053H76.905Z" transform="translate(-76.474 -70.042)"/><path class="m" d="M80.16,82.588H76.474V79.366H80.16Zm-3.255-.434h2.822V79.8H76.905Z" transform="translate(-76.474 -66.209)"/><path class="m" d="M80.16,85.333H76.474V82.112H80.16ZM76.905,84.9h2.822V82.546H76.905Z" transform="translate(-76.474 -62.378)"/><path class="m" d="M80.16,88.078H76.474V84.859H80.16Zm-3.255-.434h2.822V85.293H76.905Z" transform="translate(-76.474 -58.546)"/></g><rect class="l" width="51.589" height="5.212" transform="translate(5.491 4.625)"/><rect class="l" width="17.67" height="2.787" transform="translate(34.059 22.491)"/><rect class="l" width="3.004" height="2.787" transform="translate(52.907 22.491)"/><rect class="l" width="21.852" height="2.787" transform="translate(34.059 29.327)"/><rect class="l" width="10.926" height="2.787" transform="translate(34.059 36.163)"/><rect class="l" width="3.928" height="2.787" transform="translate(46.254 36.163)"/><rect class="l" width="7.906" height="2.787" transform="translate(34.059 15.655)"/><rect class="l" width="12.697" height="2.787" transform="translate(43.214 15.655)"/><path class="af" d="M76.334,82.61a13.239,13.239,0,0,1,2.2,3.114,24.331,24.331,0,0,1,2.951-4.687,7.945,7.945,0,0,0-2.951,2.853A6.734,6.734,0,0,0,76.334,82.61Z" transform="translate(-23.057 -13.082)"/><path class="af" d="M76.334,74.475a13.239,13.239,0,0,1,2.2,3.114A24.33,24.33,0,0,1,81.481,72.9a7.945,7.945,0,0,0-2.951,2.853A6.734,6.734,0,0,0,76.334,74.475Z" transform="translate(-23.057 -24.432)"/><path class="af" d="M76.334,85.309a13.239,13.239,0,0,1,2.2,3.114,24.391,24.391,0,0,1,2.951-4.69,7.945,7.945,0,0,0-2.951,2.853A6.742,6.742,0,0,0,76.334,85.309Z" transform="translate(-23.057 -9.319)"/><g transform="translate(5.377 15.655)"><g class="n"><g transform="translate(0.378 1.142)"><path class="av" d="M63.92,80.8c-3.14-.79-.386-12.393-.386-12.393l1.545-.24S67.378,81.671,63.92,80.8Z" transform="translate(-48.229 -47.831)"/><g transform="translate(15.08 18.533)"><path class="aw" d="M63.879,67.489c2.386,1.236,4.139,18.891,3.214,24.493l-1.341-.093s-1.581-8.077-2.024-11.164S61.778,66.4,63.879,67.489Z" transform="translate(-62.789 -67.415)"/></g><path class="ae" d="M62.38,72.926s-2.309-.632-3.423-4.033-.505-6.611.977-6.762c0,0,.733-3.389,5.827-2.2,4.352,1.018,5.039,3.88,5.14,4.616.139,1.025-1.073,2.544-1.073,2.544Z" transform="translate(-53.854 -59.678)"/><path class="q" d="M64.087,66.128,60.626,62.8a2.3,2.3,0,0,1-2.17-1.126,10.3,10.3,0,0,0,.5,4.436c1.114,3.4,3.423,4.033,3.423,4.033L63.829,69Z" transform="translate(-53.848 -56.894)"/><path class="q" d="M64.711,62.317a2.782,2.782,0,0,0-1.526-.972s-.695,3.408-.165,3.9l.62-.486A4.883,4.883,0,0,0,64.711,62.317Z" transform="translate(-47.665 -57.351)"/><path class="q" d="M62.066,65.182s.113.438-.944,1.02-1.959.52-2.2,1.212a.9.9,0,0,0,.455,1.059s-1.222.886-1.284,1.787.85,1.48.743,2.3-1.19.414-1.19.414.675,1.353,2.536.323,4.093-2.711,3.751-7.631C63.417,63.748,62.066,65.182,62.066,65.182Z" transform="translate(-54.884 -52.717)"/><path class="ax" d="M59.529,64.814l-.275.86,2.149.734.281-.852Z" transform="translate(-52.642 -52.512)"/><path class="ay" d="M67.982,80.709c-1.368-1.837,2.937-5.085,3.092-6.117a9.41,9.41,0,0,0-.8-3.308l-.223-3.027c-4.853-2.029-7.265-1.6-11.557.278,0,0-.532,1.765.623,5.169,1.131,3.341,4.347,5.255,3.384,6.963C62.5,80.666,67.518,83.47,67.982,80.709Z" transform="translate(-53.878 -49.578)"/><path class="az" d="M68.487,80.709a34.727,34.727,0,0,1,3.866,8.663,23.657,23.657,0,0,1-14.347-.115,29.826,29.826,0,0,1,4.865-8.441l.041-.048.053-.06L63,80.666c.963-1.708-2.254-3.622-3.384-6.963-1.154-3.4-.625-5.169-.625-5.169,4.295-1.883,6.706-2.307,11.559-.278l.223,3.027a9.41,9.41,0,0,1,.8,3.308C71.424,75.624,67.12,78.872,68.487,80.709Z" transform="translate(-54.383 -49.578)"/><path class="ba" d="M61.433,67.592c.108.235,1.413,5.665,1.535,6.764.125,1.15-.977,4.232-.982,5.03a16.2,16.2,0,0,0,.486,2.192,60.36,60.36,0,0,1,1.581,7.715c-.077.01-.153.014-.23.024a60.519,60.519,0,0,0-1.574-7.681,14.75,14.75,0,0,1-.5-2.249c.007-.879,1.1-3.959.982-5-.117-1.063-1.509-6.711-1.535-6.769Z" transform="translate(-49.925 -48.636)"/><path class="bb" d="M59.839,64.446s1.329,3.586.089,6.541l3.042.776,1.83-.122a11.223,11.223,0,0,1-.817-5.231C64.244,64.554,59.839,64.446,59.839,64.446Z" transform="translate(-51.825 -53.025)"/><path class="x" d="M65.336,72.968c.429-.067,1.049-.881,1.454-1.308a3.849,3.849,0,0,0,1-4.278s1.542-6.009-3.356-6.328-5.5,4.551-4.278,8.144A5.487,5.487,0,0,0,65.336,72.968Z" transform="translate(-52.141 -57.777)"/><path class="u" d="M63.242,61.09c-3.4.745-3.483,11.19,2.187,11.844-.017,0-.036.014-.05.017a5.539,5.539,0,0,1-5.231-3.77C59.041,65.916,59.494,61.619,63.242,61.09Z" transform="translate(-52.131 -57.707)"/><g transform="translate(6.581 9.666)"><path class="u" d="M59.241,64.753a1.038,1.038,0,1,0,1.039-1.04A1.03,1.03,0,0,0,59.241,64.753Z" transform="translate(-59.241 -63.713)"/><path class="bb" d="M60.067,63.865a.657.657,0,0,1,.393.144.556.556,0,0,0-.177-.036.576.576,0,1,0,0,1.152.678.678,0,0,0,.139-.026.669.669,0,1,1-.354-1.234Z" transform="translate(-59.028 -63.501)"/></g><path class="u" d="M62.944,62.824a2.571,2.571,0,0,0-.738,2.069,1.788,1.788,0,0,0,1.2,1.451s-.237.848-1.011.853.6-.79.6-.79-1.049-.637-1.154-1.49A2.561,2.561,0,0,1,62.944,62.824Z" transform="translate(-49.052 -55.288)"/><path class="q" d="M62.838,62.834c.017.113-.419.1-1.234.273-.745.16-1.293.422-1.317.309s.374-.491,1.243-.692C62.374,62.533,62.807,62.616,62.838,62.834Z" transform="translate(-51.201 -55.576)"/><path class="ae" d="M61.567,61.205l.388.278c7.674-2.695,6.433,3.981,6.433,3.981-.532-3.9-4.249-2.869-6.065-3.478a2.96,2.96,0,0,0-1.437,2.208c-.295,1.828.165,3.7-.259,3.789-.218.046-.743-.354-.743-.354S58.079,61.814,61.567,61.205Z" transform="translate(-52.413 -58.052)"/><path class="q" d="M64.192,63.5c-.014.079-.359-.16-.91-.331s-.946-.266-.934-.362c.031-.287.939-.067,1.2.048C64.118,63.105,64.209,63.414,64.192,63.5Z" transform="translate(-48.325 -55.504)"/><g transform="translate(11.237 12.407)"><path class="y" d="M61.4,65.025c-.017.036-.134.024-.17.01a.072.072,0,1,1,.053-.134C61.322,64.914,61.415,64.986,61.4,65.025Z" transform="translate(-61.185 -64.805)"/><path class="y" d="M62.535,65.022c.024.031.132-.01.165-.034a.073.073,0,0,0-.086-.117C62.58,64.895,62.511,64.99,62.535,65.022Z" transform="translate(-59.308 -64.857)"/><path class="z" d="M61.237,64.967l3.174-.057a1.956,1.956,0,0,1-1.521,1A2.126,2.126,0,0,1,61.237,64.967Z" transform="translate(-61.112 -64.784)"/><path class="y" d="M61.237,64.967l3.174-.057a1.956,1.956,0,0,1-1.521,1A2.126,2.126,0,0,1,61.237,64.967Z" transform="translate(-61.112 -64.784)"/><path class="az" d="M61.335,65l2.57-.048a1.6,1.6,0,0,1-1.337.781A1.586,1.586,0,0,1,61.335,65Z" transform="translate(-60.975 -64.731)"/><path class="ab" d="M61.335,65l2.57-.048-.141.194a2.491,2.491,0,0,0-1.123-.12,4.967,4.967,0,0,0-1.181.144S61.371,65.046,61.335,65Z" transform="translate(-60.975 -64.731)"/></g><path class="q" d="M62.855,61.67a17.229,17.229,0,0,1,4.407.283c1.183,1.353.218,3.356.218,3.356a3.36,3.36,0,0,0-1.224-2.376c-1.382-1.044-5.123-.232-6.187-1.978A5.511,5.511,0,0,0,62.855,61.67Z" transform="translate(-51.504 -57.897)"/><path class="ba" d="M63.97,68.34l.577,1.123,1.176-2.117c-.177-.048-.35-.091-.522-.129l-1.8-.307-2.757.271c-.345.079-.695.17-1.051.283L62.5,69.672l.529-1.284.652.623Z" transform="translate(-52.174 -49.587)"/><path class="q" d="M62.46,61.361a2.95,2.95,0,0,0-1.428,2.2c-.295,1.828.165,3.7-.259,3.789-.218.046-.743-.354-.743-.354a8.381,8.381,0,0,1-.695-3.672,1.554,1.554,0,0,0,1.2-.58C61.616,61.462,62.22,61.136,62.46,61.361Z" transform="translate(-52.558 -57.42)"/><path class="bc" d="M63.372,67.791l-.961,2.22-2.8-1.774.8-1.959Z" transform="translate(-52.148 -50.469)"/><path class="bc" d="M61.179,67.635,62.3,69.7l1.106-1.737-.844-1.581Z" transform="translate(-49.955 -50.325)"/><path class="ad" d="M62.936,80.045C61.9,78.383,66,75.262,66.146,74.3a10.5,10.5,0,0,0-.81-3.459,18.664,18.664,0,0,0-.345-2.994c-.661-.275-1.269-.5-1.851-.687.022.069.917,5,.58,7.248-.338,2.263-1.885,4.671-1.715,5.674s2.424,5.238,2.915,8.879a18.047,18.047,0,0,0,1.823-.508A42.36,42.36,0,0,0,62.936,80.045Z" transform="translate(-48.822 -49.24)"/><path class="ad" d="M59.488,73.271c.989,2.922,3.334,5.478,3.368,6.34s-2.963,3.8-4.757,8.656a22.764,22.764,0,0,0,6.872,1.2,95.668,95.668,0,0,1-.141-9.643,18.308,18.308,0,0,0,.244-4.74c-.29-2.611-4.1-7.756-4.17-7.863a11.4,11.4,0,0,0-2.062.819A10.8,10.8,0,0,0,59.488,73.271Z" transform="translate(-54.253 -49.146)"/><path class="ad" d="M61.082,67.619c2.34-.793,1.245,3.95-.165,8.062-1.193,3.468-1.909,6.41-3.59,5.971C54.826,81,58.509,68.491,61.082,67.619Z" transform="translate(-56.493 -48.72)"/><g transform="translate(9.389 8.434)"><path class="ac" d="M62.449,63.637s-.067.522-.989.472c-.8-.041-1.054-.486-.819-.422A15.2,15.2,0,0,0,62.449,63.637Z" transform="translate(-60.212 -62.588)"/><path class="ac" d="M62.734,63.963l-1.95.019-.371-.2C60.722,63.187,62.573,62.768,62.734,63.963Z" transform="translate(-60.413 -63.199)"/><path class="aa" d="M62.444,63.876c-.055-.3-.23-.647-.934-.6-.98.062-1.032.793-.893.968C60.975,64.695,62.618,64.8,62.444,63.876Z" transform="translate(-60.209 -63.099)"/><path class="ac" d="M60.824,63.965a.662.662,0,1,0,.635-.714A.673.673,0,0,0,60.824,63.965Z" transform="translate(-59.84 -63.126)"/></g><g transform="translate(13.84 8.469)"><path class="ac" d="M62.279,63.64s-.038.525.884.45c.56-.043.754-.465.52-.4A9.278,9.278,0,0,1,62.279,63.64Z" transform="translate(-62.261 -62.618)"/><path class="ac" d="M62.274,63.948l1.547-.163.345-.048C63.857,63.158,62.466,62.851,62.274,63.948Z" transform="translate(-62.268 -63.213)"/><path class="aa" d="M62.289,63.855c.067-.287.309-.6,1.013-.553a.6.6,0,0,1,.5.9C63.487,64.734,62.1,64.693,62.289,63.855Z" transform="translate(-62.272 -63.097)"/><path class="ac" d="M63.7,63.951a.65.65,0,1,1-.62-.678A.648.648,0,0,1,63.7,63.951Z" transform="translate(-62.086 -63.13)"/></g></g></g></g><g transform="translate(127.665 16.653)"><path class="x" d="M116.929,91.4l-2.03-5.918-2.461,1.423.306,6.814Z" transform="translate(-100.35 -23.531)"/><path class="an" d="M133.646,83.433c-3.327,1.262-7.38,11.746-12.038,21.612-5.9,12.486-9.586,23.561-4.862,24.8,4.759,1.245,10.627-7.114,15.006-15.549a78.519,78.519,0,0,0,6.774-19.949Z" transform="translate(-97.346 -26.391)"/><path class="an" d="M122.049,125.024c9.923-3.236-5.138-38.2-5.138-38.2l-4.668,2.781S111.113,128.586,122.049,125.024Z" transform="translate(-100.669 -21.654)"/><g transform="translate(11.546 71.064)"><path class="ai" d="M121.021,118.805c-7.954.628-8.781-21.248-8.809-29.518.01,8.747.764,33.041,8.807,32.407,4.572.034,9.959-7.681,14.052-15.569a73.46,73.46,0,0,0,5.358-13.978C136.4,105.795,127.263,118.853,121.021,118.805Z" transform="translate(-112.212 -89.287)"/></g><g transform="translate(0 54.125)"><path class="x" d="M117.645,90.043a9.077,9.077,0,0,0-1.717-2.826c-.98-1.1-2.486-2.295-3.782-3.631-.754-.781-1.265-1.387-1.418-1.37-.261.029-.58,1,.484,2.268a21.067,21.067,0,0,1,1.983,2.958Z" transform="translate(-103.095 -82.215)"/><path class="x" d="M120.741,93.294a30.087,30.087,0,0,1-8.529-2.63c-3.672-1.954-4.347-3.147-4.115-3.523s.79.177,1.993.908c.989.6,1.943,1.332,2.022,1.142s-1.9-1.547-2.251-1.758-2.738-1.775-2.443-2.414c.285-.613,1.981.517,2.9,1.138,0,0,2.345,1.411,2.41,1.21s-2.11-1.344-2.469-1.55-3.03-1.643-2.812-2.263.915-.462,3.166.834c0,0,2.687,1.645,2.733,1.44.225-.541-4.8-2.412-4.489-3.389.16-.493,1.25.014,2.644.75,1.425.752,3.741,2.16,5.035,2.659,4.189,1.614,5.4,4.158,5.4,4.158S122.9,92.6,120.741,93.294Z" transform="translate(-107.391 -82.18)"/></g><path class="bd" d="M122.359,68.38l3.928.622.746-2.238Z" transform="translate(-86.51 -49.648)"/><path class="bd" d="M145,68.75c7.037,2.072,7.26,10.6,3.049,15.844-3.437,4.285-12.371,7.178-13.562.311C133.514,79.3,145,68.75,145,68.75Z" transform="translate(-69.674 -46.876)"/><g transform="translate(42.057 172.169)"><path class="u" d="M125.761,132.019s-.225,14.867.9,23.573c1.576,12.175,1.471,15.308,3.9,36.117s1.638,34.232,1.638,34.232l2.865.357s9.811-34.56,8.031-46.062-7.147-23.559-7.147-23.559l5.241-25.178Z" transform="translate(-123.846 -131.499)"/><path class="bb" d="M134.093,139.134s1.018,1.147,2.46,2.838l-.843,4.053s1.289,3.8,2.812,8.105a35.753,35.753,0,0,1-11.075-.474c-.273-2.587-.582-5.293-1.025-8.716-.213-1.643-.378-3.5-.505-5.444Z" transform="translate(-123.604 -120.847)"/><path class="x" d="M128.425,132.017s-.05,14.867,1.178,23.573c1.72,12.175,1.65,15.308,4.326,36.117s2.038,34.232,2.038,34.232l2.869.357s9.406-34.56,7.492-46.062-7.425-23.559-7.425-23.559L143.85,131.5Z" transform="translate(-120.103 -131.498)"/><path class="u" d="M136.852,139.134s1.032,1.147,2.493,2.838l-.8,4.053s1.324,2.9,2.9,7.2a55.823,55.823,0,0,1-11.073,1.092c-.3-2.587-.642-5.957-1.126-9.38-.232-1.643-.419-3.5-.568-5.444Z" transform="translate(-119.748 -120.847)"/><g transform="translate(0 94.394)"><path class="be" d="M129.253,183.018s-4.225,1.715-4.3,2.539,5.08.927,8.388.6c1.519-.146,1.66-5.006,3.039-7.7s2.735-2.687-.295-7.411l-2.994,9.578Z" transform="translate(-124.951 -170.709)"/><path class="u" d="M130.855,170.909s-1.135,3.674-1.933,6.285c-.92,3.008-1.37,4.678-2.175,6.024a5.524,5.524,0,0,0,3.59.309c1.564-.6,1.665-4.192,4.3-8.23.944-1.449-1.188-4.271-1.188-4.271Z" transform="translate(-122.444 -170.909)"/><path class="be" d="M133.578,171.052a15.134,15.134,0,0,1-.3,3.593c-.383,1.667-1.813,10.328-6.532,8.374,0,0,1.437,3.226,3.418,2.18s2.58-5.085,3.526-7.181S136.7,175.55,133.578,171.052Z" transform="translate(-122.444 -170.709)"/><path class="be" d="M131.618,173.143a57.552,57.552,0,0,0-1.6,10.108l-.68,0a38.273,38.273,0,0,0,.055-6.738Z" transform="translate(-118.836 -167.792)"/></g><g transform="translate(7.483 94.394)"><path class="be" d="M132.38,183.018s-4.227,1.715-4.3,2.539,5.083.927,8.388.6c1.521-.146,1.662-5.006,3.042-7.7s2.735-2.687-.3-7.411l-2.992,9.578Z" transform="translate(-128.075 -170.709)"/><path class="x" d="M133.98,170.909s-1.135,3.674-1.933,6.285c-.92,3.008-1.372,4.678-2.175,6.024a5.519,5.519,0,0,0,3.588.309c1.564-.6,1.665-4.192,4.3-8.23.944-1.449-1.19-4.271-1.19-4.271Z" transform="translate(-125.567 -170.909)"/><path class="be" d="M136.7,171.052a15.064,15.064,0,0,1-.3,3.593c-.383,1.667-1.813,10.328-6.532,8.374,0,0,1.435,3.226,3.418,2.18s2.577-5.085,3.523-7.181S139.829,175.55,136.7,171.052Z" transform="translate(-125.567 -170.709)"/><path class="be" d="M134.743,173.143a57.548,57.548,0,0,0-1.6,10.108l-.68,0a38.518,38.518,0,0,0,.055-6.738Z" transform="translate(-121.959 -167.792)"/></g></g><path class="ad" d="M165.9,109.35s10.517,21.787-10.8,75.781c-9.547,4.515-22.809,1.744-22.809,1.744-17.966-52.371-12.294-75.582-12.294-75.582Z" transform="translate(-91 9.768)"/><path class="p" d="M127.3,113.562l1.989,9.15,25.062-5.569-2.586-7.558Z" transform="translate(-79.616 10.094)"/><path class="p" d="M166.712,113.35l.062-.29a22.491,22.491,0,0,0-1.171-3.71l-45.908,1.942s-.163.716-.343,2.057C119.374,113.357,129.733,116.785,166.712,113.35Z" transform="translate(-90.705 9.768)"/><path class="p" d="M148.585,199.6c21.322-53.994,10.8-75.781,10.8-75.781-4.719-12.563-15.267-21-17.2-24.845L123.8,101.3s22.6,3.178,27.482,34.076c4.733,29.968-4.033,61.235-25.511,65.973C125.776,201.347,139.52,204.906,148.585,199.6Z" transform="translate(-84.492 -4.704)"/><path class="am" d="M123.625,84.564s3.43-11.636,2.491-16.661c1.387-11.085,28.838-12.577,34.208,5.025,5.712,18.728-12.1,29.616-15.308,29.616S123.625,84.564,123.625,84.564Z" transform="translate(-84.743 -59.617)"/><path class="bf" d="M146.933,121.076c.323-1.808,7.437-7.152,11.255-15.178,4.9-10.287,3.88-16.048,3.88-16.048-12.821-7.521-20.256-9.751-36.287-5.157l-1.828,9.444s-3.866,6.81-3.758,10.117c.743,4.774,9.849,13.487,9.341,18.383Z" transform="translate(-89.531 -27.955)"/><path class="bg" d="M165.4,134.292c-5.286-15.252-17.976-23.331-17.5-26,.3-1.653,7.588-7.111,11.42-15.6-27.554,4.263-38.158-1.224-38.158-1.224l.168,1.341c1.4,4.081,9.624,12.709,9.174,17.042-.508,4.9-8.582,11.868-11.015,26.378C131.624,137.834,150.1,137.077,165.4,134.292Z" transform="translate(-90.505 -15.173)"/><path class="u" d="M144.57,74s-5.181,13.454-3.054,23.391l-9.928.632-5.114-1.451a40.19,40.19,0,0,0,3.111-13.916C129.861,76.711,144.57,74,144.57,74Z" transform="translate(-80.768 -39.555)"/><path class="bb" d="M127.236,89.784a42.373,42.373,0,0,0,1.2-7.3c4.153-3.859,12.134-6.814,14.268-7.514-1.279,4.021-3.626,11.952-2.57,19.125,1.372.52-6.189,4.546-8.56,1.837A29.907,29.907,0,0,1,127.236,89.784Z" transform="translate(-79.705 -38.195)"/><path class="x" d="M131.425,103.278c-1.444-.311-3.384-3.183-4.675-4.707-2.738-3.229-5.186-7.071-2.544-14.68,0,0-4.057-20.644,12.589-20.771s17.727,16.474,12.9,28.4A18.6,18.6,0,0,1,131.425,103.278Z" transform="translate(-85.513 -54.731)"/><path class="u" d="M123.457,70.381s1.622-2.592,10.5-1.77,13.518,4.6,13.518,4.6l.927-2.539s-9.823-3.763-14.323-4.1a34,34,0,0,0-10.148,1.339S123.558,69.5,123.457,70.381Z" transform="translate(-84.977 -49.977)"/><path class="u" d="M136.2,63.293c11.37,3.181,9.612,38.567-9.708,39.674a1.7,1.7,0,0,0,.17.069,18.6,18.6,0,0,0,18.268-11.753C149.313,80.452,148.783,65.81,136.2,63.293Z" transform="translate(-80.747 -54.489)"/><path class="u" d="M127.5,69.01s2.98,3.207,2.1,7.152a6.082,6.082,0,0,1-4.333,4.683s.644,2.91,3.255,3.08-1.885-2.8-1.885-2.8,3.669-1.95,4.2-4.814C131.578,72.236,127.5,69.01,127.5,69.01Z" transform="translate(-82.459 -46.513)"/><path class="am" d="M129.383,69.343c-.1.436,1.4.407,4.127,1.164,2.489.692,4.278,1.748,4.4,1.317s-1.114-1.935-4.022-2.786C131.073,68.215,129.567,68.5,129.383,69.343Z" transform="translate(-76.716 -47.16)"/><path class="am" d="M123.275,70.868c.127.513.441-.2,2.747-.788,1.856-.477,3.9-.508,3.88-.867-.067-1.08-2.328-1-4.017-.426C123.577,69.574,123.191,70.53,123.275,70.868Z" transform="translate(-85.246 -47.403)"/><g transform="translate(41.482 38.85)"><path class="y" d="M129.232,76.642c.043.129.446.11.575.067a.247.247,0,0,0-.158-.467C129.52,76.286,129.189,76.513,129.232,76.642Z" transform="translate(-118.407 -75.291)"/><path class="y" d="M125.351,76.418c-.086.1-.45-.062-.553-.149a.245.245,0,0,1,.316-.374C125.217,75.982,125.44,76.315,125.351,76.418Z" transform="translate(-124.71 -75.838)"/><path class="z" d="M135.611,76.826l-10.733-.8s1.528,3.346,4.953,3.672S135.611,76.826,135.611,76.826Z" transform="translate(-124.476 -75.582)"/><path class="y" d="M135.611,76.826l-10.733-.8s1.528,3.346,4.953,3.672S135.611,76.826,135.611,76.826Z" transform="translate(-124.476 -75.582)"/><path class="az" d="M134.083,76.841l-8.69-.663s1.48,2.91,4.371,2.9A5.364,5.364,0,0,0,134.083,76.841Z" transform="translate(-123.758 -75.363)"/><path class="ab" d="M134.083,76.841l-8.69-.663.443.69s.972-.46,3.823-.189a16.483,16.483,0,0,1,3.969.716S133.956,77.007,134.083,76.841Z" transform="translate(-123.758 -75.363)"/></g><path class="am" d="M144.059,66.045c11.159,6.79,5.681,21.293,5.681,21.293s-1.854,1.257-2.584,1.063c-1.1-.292-.378-1.241-.216-5.859-.424-8.817-7.739-9.576-17.425-12.7-5.526-1.784-4.881-6.558-4.881-6.558S130.9,58.327,144.059,66.045Z" transform="translate(-83.367 -56.688)"/><g transform="translate(52.057 26.358)"><path class="ac" d="M129.134,71.73s-.364,2.941,3.66,2.723c2.412-.261,2.834-1.916,2.582-2.029S129.134,71.73,129.134,71.73Z" transform="translate(-129.125 -69.076)"/><path class="ac" d="M129.129,73.276l6.029.884,1.533-.386a6.441,6.441,0,0,0-3.212-2.958C131.584,70.215,129.189,71,129.129,73.276Z" transform="translate(-129.12 -70.622)"/><path class="az" d="M129.13,72.876c.108-1.016,1.186-2.263,3.336-1.847,2.117.41,3,2.077,2.534,3.085C134.23,75.8,129,75.932,129.13,72.876Z" transform="translate(-129.122 -70.169)"/><path class="ac" d="M134.393,73.211a2.308,2.308,0,1,1-2.278-2.338A2.309,2.309,0,0,1,134.393,73.211Z" transform="translate(-128.216 -70.272)"/></g><g transform="translate(38.499 25.489)"><path class="ac" d="M129.233,71.672s-.323,2.139-3.31,1.614c-2.266-.4-2.433-1.887-1.645-1.588S129.233,71.672,129.233,71.672Z" transform="translate(-122.928 -68.307)"/><path class="ac" d="M129.822,73.018l-5.289-.223-1.068-.5C124.758,69.643,129.247,69.284,129.822,73.018Z" transform="translate(-123.465 -70.259)"/><path class="az" d="M129.266,72.659a2.6,2.6,0,0,0-3.133-2.062c-2.115.216-2.558,2.045-2.2,2.7C124.965,75.176,129.309,75.452,129.266,72.659Z" transform="translate(-122.965 -69.822)"/><path class="ac" d="M128.6,72.715a2.127,2.127,0,1,1-2.1-2.153A2.128,2.128,0,0,1,128.6,72.715Z" transform="translate(-122.235 -69.837)"/></g><path class="bg" d="M125.18,83.068l2.98,9.435,5.715-5.741,3.542,6.872,10.3-7.844a25.194,25.194,0,0,0-4.726-1.923c-2.568-.862-5.926.292-8.63.115-1.71-.113-2.668-1.77-4.558-1.6C128.013,82.551,125.18,83.068,125.18,83.068Z" transform="translate(-82.573 -27.87)"/><path class="an" d="M137.893,81.348l3.369,5.373-8.757,6.155-3.493-7.467Z" transform="translate(-77.227 -29.299)"/><path class="an" d="M125.425,84.721l2.983,7.425,5.609-5.867-5.188-5.554Z" transform="translate(-82.232 -30.168)"/><path class="am" d="M122.368,75.925s11.983-4.673,29.128,3.48c0,0,3.36-15.485-12.479-17.8C122.15,59.137,122.268,75.8,122.368,75.925Z" transform="translate(-86.518 -57.193)"/><g transform="translate(62.133 30.92)"><path class="u" d="M140.368,76.252a3.521,3.521,0,1,1-3.313-3.72A3.521,3.521,0,0,1,140.368,76.252Z" transform="translate(-133.332 -72.527)"/><path class="bb" d="M135.7,73.047a2.244,2.244,0,0,0-1.36.4,1.983,1.983,0,0,1,.611-.086,1.957,1.957,0,0,1-.225,3.907,1.9,1.9,0,0,1-.465-.122,2.228,2.228,0,0,0,1.178.46,2.284,2.284,0,0,0,.261-4.56Z" transform="translate(-132.044 -71.805)"/></g><path class="ar" d="M123.282,72.4s8.108-2.352,19.363,1.468c0,0,1.856-11.344-7.626-12.088C123.718,60.888,123.282,72.4,123.282,72.4Z" transform="translate(-85.221 -56.674)"/><path class="ar" d="M134.1,74.461l2.4,1.1s1.255-8.189-4.314-12.814C132.195,62.746,135.189,69.709,134.1,74.461Z" transform="translate(-72.786 -55.253)"/><path class="u" d="M124.469,69.767a12.144,12.144,0,0,1,.728-4.426,23.216,23.216,0,0,0,.165,4.426Z" transform="translate(-83.572 -51.632)"/><path class="u" d="M129.284,70.447a14.159,14.159,0,0,0,1.4-5.291,35.679,35.679,0,0,1,.057,5.684Z" transform="translate(-76.848 -51.89)"/><path class="u" d="M132.141,70.765a44.645,44.645,0,0,0,.936-4.489,28.329,28.329,0,0,1,.292,4.877Z" transform="translate(-72.862 -50.328)"/><path class="ar" d="M125.846,63.531c6.314-5.681,23.746-4.582,24.364,3.485.244,3.166-2.175,6.16-3.008,6.278C147.2,73.293,143.314,60.089,125.846,63.531Z" transform="translate(-81.644 -59.12)"/><g transform="translate(40.43 61.57)"><path class="ai" d="M139.7,85.342c-8.309-.592-2.819,12.85,3.583,26.028,5.952,12.251,10.072,20.939,15.377,18.464C166.546,126.153,146.25,85.807,139.7,85.342Z" transform="translate(-108.624 -85.323)"/><g transform="translate(0 14.136)"><path class="ba" d="M133.4,142.062l34.324-7.5-9.47-43.336-28.475,6.222-4.854.582Z" transform="translate(-123.358 -91.225)"/><rect class="bh" width="35.134" height="44.001" transform="translate(44.366 43.336) rotate(167.673)"/><rect class="bi" width="36.891" height="45.144" transform="translate(45.678 44.78) rotate(167.673)"/><path class="bj" d="M169.949,135.611l-9.637-44.1-36.041,7.876Z" transform="translate(-124.271 -90.83)"/><rect class="bk" width="13.05" height="3.586" transform="translate(24.89 5.4) rotate(167.673)"/><path class="bl" d="M129.786,98.307l12.75-2.786-.766-3.5s-.481,3.032-5.686,4.043S129.02,94.8,129.02,94.8Z" transform="translate(-117.645 -90.12)"/><path class="bm" d="M133.692,92.813a.39.39,0,1,0,.414-.366A.389.389,0,0,0,133.692,92.813Z" transform="translate(-111.129 -89.522)"/><path class="bm" d="M129.551,93.731a.391.391,0,1,0,.414-.364A.391.391,0,0,0,129.551,93.731Z" transform="translate(-116.905 -88.238)"/><path class="bk" d="M130.1,96.391a.216.216,0,0,0,.067,0,.234.234,0,0,0,.177-.278l-.426-1.914,9.509-2.079.424,1.916a.234.234,0,0,0,.457-.1l-.477-2.144a.231.231,0,0,0-.278-.177l-9.964,2.177a.238.238,0,0,0-.146.1.226.226,0,0,0-.031.175l.474,2.144A.231.231,0,0,0,130.1,96.391Z" transform="translate(-117.102 -90.695)"/></g><path class="bn" d="M163.1,101.977c-6.393,2.144-25.518,2.848-25.518,2.848l-.019.563-3.816-.168a41.933,41.933,0,0,0-3.612-2.63c-1.1-.956-1.792-1.557-2.033-1.3-1.15,1.243,2.913,2.577,1.054,3.351a9.357,9.357,0,0,1-3.119.522l.263,1.2c.108.007.271,0,.285.036s-.141.065-.259.089l.244,1.114c.184-.024.323-.034.331.007s-.16.06-.311.081l.271,1.245c.187-.031.352-.06.359-.031.014.086-.132.134-.326.177l.23,1.054a16.411,16.411,0,0,0,6.244-1.875l0,.038,4.06,1.044-.041,1.123s17.411,4.036,28.2,2.874Z" transform="translate(-121.807 -63.125)"/><g transform="translate(1.891 37.061)"><path class="x" d="M135.033,104.463a37.981,37.981,0,0,0-3.593-2.419c-1.095-.891-1.782-1.454-2.022-1.176-1.142,1.313,2.9,2.407,1.049,3.291-2.136,1.025-5.217.532-5.353,1.356-.206,1.236,2.7.285,2.8.565s-2.8.211-2.85.992c-.072,1.193,3.13-.014,3.164.2s-2.8.175-2.539,1.262c.216.893,2.831-.127,2.855.017.055.3-1.787.242-1.43,1.092s6.75-1.075,7.835-2.33A2.24,2.24,0,0,0,135.033,104.463Z" transform="translate(-125.061 -100.796)"/></g><path class="x" d="M129.446,102.376l5.423-.085-.109,4.336-5.695-1.136Z" transform="translate(-117.582 -61.65)"/><path class="ai" d="M166.483,107.709c-4.723,7.978-35.75,2.589-35.75,2.589l.2-5.669s19.161-1.859,25.446-4.4Z" transform="translate(-115.256 -64.527)"/></g></g><g transform="translate(22.962 125.725)"><g transform="translate(0.946 0.96)"><g class="bo"><g transform="translate(-45.106 -64.052)"><rect class="bp" width="86.27" height="118.547"/><rect class="k" width="30.092" height="32.08" transform="translate(7.404 21.558)"/><rect class="l" width="55.126" height="5.495" transform="translate(15.572 60.19)"/><rect class="l" width="62.983" height="3.838" transform="translate(7.562 70.251)"/><rect class="l" width="62.983" height="3.838" transform="translate(7.562 79.31)"/><rect class="l" width="62.983" height="3.838" transform="translate(7.562 88.369)"/><rect class="l" width="62.983" height="3.838" transform="translate(7.562 97.427)"/><rect class="l" width="62.983" height="3.838" transform="translate(7.562 106.486)"/><g transform="translate(73.912 70.034)"><path class="m" d="M81.009,112.325H76.1v-4.271h4.91Zm-4.479-.431h4.048v-3.406H76.53Z" transform="translate(-76.099 -108.054)"/><path class="m" d="M81.009,116.109H76.1v-4.273h4.91Zm-4.479-.434h4.048V112.27H76.53Z" transform="translate(-76.099 -102.777)"/><path class="m" d="M81.009,119.89H76.1v-4.271h4.91Zm-4.479-.434h4.048V116.05H76.53Z" transform="translate(-76.099 -97.499)"/><path class="m" d="M81.009,123.671H76.1V119.4h4.91Zm-4.479-.431h4.048v-3.406H76.53Z" transform="translate(-76.099 -92.224)"/><path class="m" d="M81.009,127.455H76.1v-4.273h4.91Zm-4.479-.434h4.048v-3.406H76.53Z" transform="translate(-76.099 -86.948)"/></g><rect class="l" width="71.044" height="7.178" transform="translate(7.562 6.369)"/><rect class="l" width="24.334" height="3.838" transform="translate(46.903 30.972)"/><rect class="l" width="4.137" height="3.838" transform="translate(72.857 30.972)"/><rect class="l" width="30.092" height="3.838" transform="translate(46.903 40.386)"/><rect class="l" width="15.046" height="3.838" transform="translate(46.903 49.8)"/><rect class="l" width="5.41" height="3.838" transform="translate(63.696 49.8)"/><rect class="l" width="10.888" height="3.838" transform="translate(46.903 21.558)"/><rect class="l" width="17.485" height="3.838" transform="translate(59.509 21.558)"/><path class="af" d="M75.872,112.607A18.256,18.256,0,0,1,78.9,116.9a33.411,33.411,0,0,1,4.065-6.457,10.927,10.927,0,0,0-4.065,3.928A9.291,9.291,0,0,0,75.872,112.607Z" transform="translate(-2.504 -34.692)"/><path class="af" d="M75.872,116.438A18.29,18.29,0,0,1,78.9,120.73a33.471,33.471,0,0,1,4.065-6.46A10.95,10.95,0,0,0,78.9,118.2,9.326,9.326,0,0,0,75.872,116.438Z" transform="translate(-2.504 -29.347)"/><path class="af" d="M75.872,120.1a18.255,18.255,0,0,1,3.025,4.29,33.411,33.411,0,0,1,4.065-6.457A10.927,10.927,0,0,0,78.9,121.86,9.29,9.29,0,0,0,75.872,120.1Z" transform="translate(-2.504 -24.238)"/><path class="af" d="M75.872,108.831a18.312,18.312,0,0,1,3.025,4.29,33.488,33.488,0,0,1,4.065-6.457,10.95,10.95,0,0,0-4.065,3.93A9.326,9.326,0,0,0,75.872,108.831Z" transform="translate(-2.504 -39.96)"/><g transform="translate(7.404 21.558)"><g class="bq"><g transform="translate(-1.23 1.707)"><path class="al" d="M59.624,98.878c-4.613-1.416-2.98,5.483-1.126,12.721,1.72,6.73,2.884,11.487,6.211,11.011C69.657,121.9,63.262,99.992,59.624,98.878Z" transform="translate(-35.521 -74.346)"/><path class="am" d="M53.28,90.387c-4.275,1.327-.4,12.321,2.953,12.881C59.308,103.781,60.64,88.315,53.28,90.387Z" transform="translate(-42.828 -86.2)"/><path class="an" d="M70.737,126.036s-3.2-.92-10.053.273a35.169,35.169,0,0,0-9.918,3.4c-2.309-5.456-1.26-28.265.752-29.561,1.976-1.274,5.808-2.134,9.607-2.091,3.684.041,8.429,1.2,9.2,2.129.937,1.131.584,6.218-.05,9.039C67.691,120.786,67.693,124.594,70.737,126.036Z" transform="translate(-45.536 -75.236)"/><path class="ai" d="M52.644,98.338a28.525,28.525,0,0,1,4.031-.283,29.465,29.465,0,0,1,5.806.757l-2.558,4.354-1.284-2.232-.81-.057L56.565,103.1Z" transform="translate(-41.085 -75.236)"/><path class="ao" d="M50.766,122.666c-1.348-3.186-1.55-12.282-1.085-19.564,10.709,2.616,18.433,1.3,20.194.932-2.172,10.117-2.012,13.6.862,14.96,0,0-3.2-.92-10.053.273A35.169,35.169,0,0,0,50.766,122.666Z" transform="translate(-45.535 -68.194)"/><path class="ap" d="M56.789,99.557A151.146,151.146,0,0,0,58.3,115.53l-1.717,3.039-2.441-2.958s.75-8.563,1.432-16.218Z" transform="translate(-38.995 -73.367)"/><path class="aq" d="M54.673,101.193l.16-1.8,1.214.163s.026.654.084,1.72Z" transform="translate(-38.254 -73.367)"/><path class="p" d="M54.65,103.76c1.042.026,2.01.022,2.893-.007.2,1.935.45,3.909.757,5.7l-1.717,3.039-2.441-2.958S54.353,107.137,54.65,103.76Z" transform="translate(-38.995 -67.286)"/><path class="ap" d="M55.671,98.219l1.234,1.869-.651,1.429-1.264-.09-.456-1.45Z" transform="translate(-38.447 -75.007)"/><path class="v" d="M60.295,99.37c-.436-4.819-7.344-5.238-7.344-5.238a18.74,18.74,0,0,1,.716,9.281l4.261.51,2.371-.783C60.211,102.489,60.453,101.124,60.295,99.37Z" transform="translate(-40.657 -80.709)"/><path class="aj" d="M58.242,99.784l-1.56,3.29-3.947-3.751L54,97.1Z" transform="translate(-40.957 -76.568)"/><path class="aj" d="M57.454,97.373,55.035,99.4l1.419,3.116,2.2-2.987Z" transform="translate(-37.75 -76.187)"/><path class="am" d="M65.148,99.913s-.007.046.692-3.859c0,0,3.377-1.485.247-5.712-.56,2.465-3.03-2.151-8.9-1.794-2.9.175-6.148,2.453-5.118,4.414C53.74,96.145,65.148,99.913,65.148,99.913Z" transform="translate(-42.154 -88.528)"/><path class="x" d="M53.518,99.872c.448,3.571.678,3.483,3.8,5.753a4.45,4.45,0,0,0,3.229.125c.532-.328.551-.867,1.248-2.1a9.322,9.322,0,0,0,1.226-3.614c.055-1.051-.065-1.758-.046-2.505.036-1.432.3-2.719.225-4.354-.072-1.614-2.01-2.613-4.443-2.52C53.185,90.866,53.23,93.2,53.518,99.872Z" transform="translate(-40.007 -85.572)"/><path class="u" d="M58.159,104.845c-4.3-2.644-3.89-12.278-2.17-13.7-3.487.723-2.822,4.014-2.242,8.771.359,2.589.762,3.3,3.933,5.253a4.292,4.292,0,0,0,3.111-.122.873.873,0,0,0,.187-.189A4.408,4.408,0,0,1,58.159,104.845Z" transform="translate(-40.196 -84.871)"/><path class="u" d="M56.921,92.885a2.721,2.721,0,0,0-.651.975C55.5,96.236,57.621,96.4,57.5,96.978c-.18.841-1.835.582-1.835.582.184.565,2,.381,2.158-.472.192-1.006-1.938-.889-1.358-3.14A6.733,6.733,0,0,1,56.921,92.885Z" transform="translate(-36.872 -82.449)"/><path class="am" d="M53.406,92.619s.668,1.178,3.255.041c5.471-2.407,6.51.64,6.51.64S61.978,86.586,53.406,92.619Z" transform="translate(-40.022 -86.329)"/><g transform="translate(17.061 16.372)"><path class="ac" d="M55.226,95.552c-.022.053-.177.031-.225.007a.105.105,0,0,1-.053-.134.1.1,0,0,1,.127-.053C55.123,95.4,55.247,95.5,55.226,95.552Z" transform="translate(-54.941 -95.361)"/><path class="ac" d="M56.731,95.588c.031.046.177-.01.22-.041a.1.1,0,0,0,.022-.141.092.092,0,0,0-.134-.024C56.8,95.413,56.7,95.543,56.731,95.588Z" transform="translate(-52.452 -95.363)"/><path class="z" d="M55.011,95.42l4.211.041A2.578,2.578,0,0,1,57.183,96.8,2.846,2.846,0,0,1,55.011,95.42Z" transform="translate(-54.844 -95.283)"/><path class="ac" d="M55.011,95.42l4.211.041A2.578,2.578,0,0,1,57.183,96.8,2.846,2.846,0,0,1,55.011,95.42Z" transform="translate(-54.844 -95.283)"/><path class="aa" d="M55.14,95.472l3.411.026a2.091,2.091,0,0,1-1.792,1.047A2.139,2.139,0,0,1,55.14,95.472Z" transform="translate(-54.664 -95.211)"/><path class="ab" d="M55.14,95.472l3.411.026-.194.271a3.1,3.1,0,0,0-1.485-.211,6.1,6.1,0,0,0-1.569.158S55.185,95.544,55.14,95.472Z" transform="translate(-54.664 -95.211)"/></g><path class="am" d="M53.266,96.661l.673,1.813.874.069s-.75-5.229,1.1-7.384C55.913,91.159,52.452,89.876,53.266,96.661Z" transform="translate(-40.39 -84.991)"/><g transform="translate(10.883 11.608)"><path class="u" d="M55.27,94.948a1.456,1.456,0,1,1-1.334-1.569A1.455,1.455,0,0,1,55.27,94.948Z" transform="translate(-52.362 -93.374)"/><path class="v" d="M53.712,95.144a.682.682,0,0,1,.153-1.356.783.783,0,0,0-.316-.115.808.808,0,0,0-.213,1.6.789.789,0,0,0,.57-.146A.582.582,0,0,1,53.712,95.144Z" transform="translate(-51.983 -92.967)"/></g><path class="am" d="M54.071,93.991c.153.263.843-.314,1.883-.628s1.868-.177,1.8-.618c-.077-.517-1.051-.625-2.089-.307C54.325,92.85,53.894,93.689,54.071,93.991Z" transform="translate(-39.147 -83.322)"/><path class="am" d="M59.067,93.82c-.151.256-.541-.079-1.279-.383s-1.437-.321-1.327-.752c.129-.508.831-.5,1.569-.194C58.983,92.888,59.242,93.525,59.067,93.82Z" transform="translate(-35.776 -83.295)"/><path class="ar" d="M56.314,93.423c.98-2.165-3.952-3.574-4.572-2.086C51.039,93.016,55.3,95.667,56.314,93.423Z" transform="translate(-42.453 -85.468)"/><path class="al" d="M56.006,98.269c.012.029,3.363,7.71,6.656,11.408,0,0,4.335-6.613,5.94-10.728a4.787,4.787,0,0,1,1.88.937c1.212,1.023.771,6.146.139,8.968-2.592,11.562-2.776,15.442.268,16.884,0,0-1.892.527-6.606-.194l-1.576-1-1.871,1.466c-3.789,2.738-7.48,4.081-10.309,3.629-2.307-5.456-.869-28.5,1.143-29.791A13.362,13.362,0,0,1,56.006,98.269Z" transform="translate(-45.688 -74.937)"/><path class="as" d="M55.7,102.9c-.28,1.978-1.166,8.735-.726,12.738a6.05,6.05,0,0,0,1.075,2.762l-.505-.321-.091.072a6.23,6.23,0,0,1-.846-2.479c-.434-3.947.4-10.52.7-12.682.062.072.125.151.187.223C55.5,103.213,55.569,103.1,55.7,102.9Z" transform="translate(-38.521 -68.473)"/><path class="at" d="M62.648,99.255l-1.665,1.265,1.042,2.417a32.573,32.573,0,0,1-7.188,8.311L55,109.321a80.583,80.583,0,0,0,5.952-10.8A6.611,6.611,0,0,1,62.648,99.255Z" transform="translate(-38.026 -74.581)"/><path class="at" d="M53.147,98.218a12.643,12.643,0,0,0-1.739.486l1.828,1.382-1,1.633a30.017,30.017,0,0,0,7.447,9.207,1.7,1.7,0,0,0,.1-1.178S54.306,101.531,53.147,98.218Z" transform="translate(-42.81 -75.008)"/><path class="au" d="M54.818,102.791l.378.577-.1,1.178-.4-.335Z" transform="translate(-38.222 -68.628)"/><path class="al" d="M54.007,98.911c3.789-1.111,3.648,5.157,1.648,12.263-1.911,6.781-2.678,10.944-6.017,10.376C44.675,120.7,51.125,100.6,54.007,98.911Z" transform="translate(-47.818 -74.221)"/><path class="ar" d="M65.274,90.1s1.952,3.4-2,2.654c-4.778-.9-5.672,1.109-8.766.352s-2.6-3.566.925-4.259C61.085,87.741,65.037,93.216,65.274,90.1Z" transform="translate(-41.342 -88.289)"/><g transform="translate(15.293 10.981)"><path class="ac" d="M56.744,94.218c.58-.647-.192-1.135-.908-1.1a2.024,2.024,0,0,0-1.634.953l.144.086A12.474,12.474,0,0,0,56.744,94.218Z" transform="translate(-54.203 -93.112)"/><path class="aa" d="M56.647,94.09c.074-.232-.18-.826-.9-.855-.74-.029-1.487.587-1.483.807C54.263,94.245,55.988,95.285,56.647,94.09Z" transform="translate(-54.122 -92.943)"/><path class="ac" d="M54.511,93.943a.8.8,0,0,1,.455-.7,1.207,1.207,0,0,1,.378-.074.958.958,0,0,1,.434.127,1,1,0,0,1,.1.072,1.079,1.079,0,0,1,.093.086.847.847,0,0,1,.208.568.808.808,0,0,1-.232.537,1.192,1.192,0,0,1-1,.137A.847.847,0,0,1,54.511,93.943Z" transform="translate(-53.773 -93.034)"/><g transform="translate(5.087 0.06)"><path class="ac" d="M58.576,94.185c.544-.613-.177-1.075-.855-1.047a1.623,1.623,0,0,0-1.394.91l.134.081A10.369,10.369,0,0,0,58.576,94.185Z" transform="translate(-56.327 -93.137)"/><path class="aa" d="M58.48,94.075c.072-.223-.168-.778-.85-.829a1.3,1.3,0,0,0-1.248.788C56.384,94.229,57.862,95.2,58.48,94.075Z" transform="translate(-56.25 -92.989)"/><path class="ac" d="M56.544,93.9a.752.752,0,0,1,.216-.505,1.047,1.047,0,0,1,.647-.206.873.873,0,0,1,.35.113.8.8,0,0,1,.357.673.761.761,0,0,1-.45.673,1.178,1.178,0,0,1-.69-.022A.8.8,0,0,1,56.544,93.9Z" transform="translate(-56.024 -93.067)"/></g></g></g></g></g></g></g></g><rect class="br" width="5.673" height="4.412" transform="translate(41.857 41.123) rotate(-52.519)"/><rect class="bs" width="11.346" height="4.412" transform="translate(37.13 41.072) rotate(-52.519)"/><path class="bt" d="M86.974,151.817A23.329,23.329,0,1,1,101.2,109.978h0a23.325,23.325,0,0,1-14.227,41.839Zm.072-44.747a21.982,21.982,0,0,0-2.848.187,21.426,21.426,0,1,0,15.837,4.239h0A21.248,21.248,0,0,0,87.046,107.07Z" transform="translate(-63.677 -105.156)"/><g transform="translate(0.946 0.96)"><path class="bu" d="M100.068,110.178a22.377,22.377,0,1,1-31.374,4.141A22.375,22.375,0,0,1,100.068,110.178Z" transform="translate(-64.073 -105.557)"/><g transform="translate(42.743 36.439)"><path class="bt" d="M118.442,149.055l-1.231,1.607c-1.514,1.976-4.671,2.077-6.992.228l-28.3-22.57,5.789-7.55,29.14,21.475C119.237,144.006,119.956,147.081,118.442,149.055Z" transform="translate(-81.918 -120.77)"/><path class="bv" d="M83.363,123.921c1.564-2.3,31.094,18.486,28.637,21.959-1.068,1.511-9.6-5.365-16.1-10.345S82.542,125.128,83.363,123.921Z" transform="translate(-79.996 -116.62)"/><path class="bw" d="M116.432,145.462a7.778,7.778,0,0,1-.022,5.952,3.713,3.713,0,0,0,.8-.752l1.231-1.607c1.514-1.974.8-5.049-1.6-6.809L87.707,120.77l-5.789,7.55L88.011,124S114.986,142.686,116.432,145.462Z" transform="translate(-81.918 -120.77)"/></g></g><path class="bt" d="M85.88,148.894a21.556,21.556,0,1,1,2.855-.189A21.62,21.62,0,0,1,85.88,148.894Zm.069-42.457a20.963,20.963,0,1,0,12.74,4.323A20.96,20.96,0,0,0,85.949,106.437Z" transform="translate(-62.6 -104.07)"/></g></g><g transform="translate(4.189 0)"><g transform="translate(145.061 8.415)"><g transform="translate(4.311 5.948)"><path class="bx" d="M1681.984,348.926l-2.289-3.748a.652.652,0,0,1,1.113-.68l1.619,2.651,4.3-2.547a.652.652,0,0,1,.664,1.122Z" transform="translate(-1679.599 -344.186)"/></g><g transform="translate(0)"><path class="bx" d="M1654.691,314.929a8.233,8.233,0,1,1,8.233-8.233A8.242,8.242,0,0,1,1654.691,314.929Zm0-15.29a7.057,7.057,0,1,0,7.057,7.057A7.065,7.065,0,0,0,1654.691,299.639Z" transform="translate(-1646.458 -298.463)"/></g></g><g transform="translate(196.533 20.692)"><g transform="translate(6.613 9.124)"><path class="bx" d="M1348.01,225.645l-3.512-5.75a1,1,0,0,1,1.708-1.043l2.483,4.066,6.6-3.907a1,1,0,0,1,1.019,1.722Z" transform="translate(-1344.351 -218.373)"/></g><path class="bx" d="M1306.144,173.493a12.63,12.63,0,1,1,12.63-12.629A12.644,12.644,0,0,1,1306.144,173.493Zm0-23.455a10.825,10.825,0,1,0,10.825,10.825A10.837,10.837,0,0,0,1306.144,150.038Z" transform="translate(-1293.514 -148.234)"/></g><g transform="translate(11.493 130.671)"><g transform="translate(4.37 6.029)"><path class="bx" d="M1070.763,348.09l-2.321-3.8a.661.661,0,1,1,1.128-.689l1.641,2.687,4.362-2.582a.661.661,0,0,1,.673,1.138Z" transform="translate(-1068.345 -343.285)"/></g><path class="bx" d="M1043.1,313.63a8.345,8.345,0,1,1,8.345-8.345A8.355,8.355,0,0,1,1043.1,313.63Zm0-15.5a7.153,7.153,0,1,0,7.153,7.153A7.161,7.161,0,0,0,1043.1,298.131Z" transform="translate(-1034.753 -296.939)"/></g><g transform="translate(89.03 6.523)"><g transform="translate(5.47 7.547)"><path class="j" d="M816.077,199.7l-2.9-4.756a.827.827,0,0,1,1.412-.863l2.054,3.363,5.461-3.232a.827.827,0,1,1,.843,1.424Z" transform="translate(-813.05 -193.688)"/></g><path class="j" d="M781.446,156.565a10.447,10.447,0,1,1,10.447-10.447A10.459,10.459,0,0,1,781.446,156.565Zm0-19.4a8.954,8.954,0,1,0,8.954,8.954A8.965,8.965,0,0,0,781.446,137.163Z" transform="translate(-770.999 -135.671)"/></g><g transform="translate(0 87.51)"><g transform="translate(6.065 8.367)"><path class="j" d="M529.413,377.094l-3.221-5.273a.917.917,0,1,1,1.566-.956l2.277,3.729,6.055-3.583a.917.917,0,1,1,.934,1.579Z" transform="translate(-526.058 -370.425)"/></g><path class="j" d="M491.019,329.268A11.582,11.582,0,1,1,502.6,317.686,11.6,11.6,0,0,1,491.019,329.268Zm0-21.509a9.927,9.927,0,1,0,9.927,9.927A9.939,9.939,0,0,0,491.019,307.759Z" transform="translate(-479.437 -306.104)"/></g><g transform="translate(292.602)"><g transform="translate(3.448 4.758)"><path class="bx" d="M1897.375,229.666l-1.831-3a.522.522,0,0,1,.891-.544l1.295,2.12,3.443-2.038a.522.522,0,1,1,.532.9Z" transform="translate(-1895.468 -225.874)"/></g><path class="bx" d="M1875.544,202.471a6.586,6.586,0,1,1,6.586-6.586A6.593,6.593,0,0,1,1875.544,202.471Zm0-12.231a5.645,5.645,0,1,0,5.645,5.645A5.652,5.652,0,0,0,1875.544,190.24Z" transform="translate(-1868.958 -189.299)"/></g></g></g><g transform="translate(273.996 191.597)"><path class="by" d="M417.536,1038.8c-2.913-1.393-5.812,7.88-5.812,7.88-4.951,6.542-11.87-2.161-11.193,7.618,1.184,17.113-19.7,5.382-10.064,23.248s-8.506,10.1-2.519,24.508-1.773,31.589,7.235,24.527c0,0,7.931-17.393,16.111-22.774s-4.9-11.767-2.341-19.076c3.717-10.616,12.674-10.2,6.216-21.608S427.438,1043.538,417.536,1038.8Z" transform="translate(-365.157 -1038.66)"/><g transform="translate(26.801 18.143)"><path class="j" d="M421.189,1219.73c3.9-2.746,8.474-21.882,8.747-33.28.14-5.839,1.866-8.271,3.388-10.417,1.455-2.051,2.713-3.823,1.98-7.891-1.4-7.774,2.28-11.13,2.317-11.163l-.426-.485c-.164.143-4,3.6-2.527,11.763.684,3.8-.444,5.39-1.871,7.4-1.5,2.111-3.363,4.739-3.507,10.775-.293,12.232-4.965,30.3-8.473,32.767Z" transform="translate(-420.818 -1156.494)"/></g><g transform="translate(0 44.466)"><path class="by" d="M265.736,1358.791c-.368-.835-.75-1.7-1.182-2.611-2.231-4.709-4.206-5.484-7.48-6.769-.8-.314-1.707-.67-2.7-1.117-4.689-2.107-3.781-5.213-2.98-7.953.112-.383.224-.766.321-1.144.412-1.611-.38-2.42-1.579-3.643a13.681,13.681,0,0,1-2.856-3.83c-.936-1.956-.459-3.005.106-3.541,1.19-1.127,3.933-.92,6.522.494h0a9.439,9.439,0,0,1,2.168,1.867c1.651,1.729,3.706,3.881,8.9,3.905,2.963.014,4.586.423,5.427,1.367.954,1.072.774,2.677.525,4.9-.086.768-.184,1.639-.243,2.579a15.05,15.05,0,0,0,2.992,9.7c1.98,2.357,4.418,7.247,3.366,10.257a3.6,3.6,0,0,1-2.933,2.36,8.348,8.348,0,0,1-1.651.179C268.826,1365.791,267.495,1362.776,265.736,1358.791ZM253.6,1329.244c-2.313-1.262-4.793-1.517-5.769-.592-.742.7-.392,1.907.032,2.794a12.947,12.947,0,0,0,2.735,3.656c1.255,1.28,2.246,2.292,1.744,4.256-.1.385-.212.774-.326,1.165-.8,2.728-1.551,5.306,2.625,7.183.981.441,1.88.794,2.673,1.1,3.3,1.3,5.487,2.153,7.828,7.093.435.92.819,1.787,1.189,2.627,2.02,4.578,3.239,7.341,7.655,6.449a3,3,0,0,0,2.451-1.94c.927-2.653-1.292-7.3-3.251-9.63a15.424,15.424,0,0,1-3.142-10.156c.06-.956.159-1.835.246-2.611.23-2.055.4-3.54-.366-4.4-.7-.783-2.223-1.138-4.947-1.151-5.471-.026-7.631-2.287-9.366-4.1a8.838,8.838,0,0,0-2.01-1.746Z" transform="translate(-246.748 -1327.459)"/></g><g transform="translate(5.009 49.622)"><path class="by" d="M301.562,1397.854l.645-.034c-.032-.606-.845-14.887-6.579-19.066-6.291-4.585-8.274-9.513-9.219-12.821-1.113-3.9-6.778-4.939-7.019-4.981l-.112.635c.055.01,5.508,1.015,6.51,4.523.971,3.4,3.008,8.463,9.459,13.165C300.736,1383.276,301.555,1397.709,301.562,1397.854Z" transform="translate(-279.278 -1360.952)"/></g><path class="i" d="M313.212,1132.29c4.076-1.4,3.229,6.458,4.951,12.27s19.158,2.535,11.839,17.089,9.256,4.867,4.305,17.567-.43,26.283-5.812,22.828-3.023-19.448-8.62-21.348-6.51-4.117-.969-9.283-14.52-10.295-9.569-20.726S308.5,1133.9,313.212,1132.29Z" transform="translate(-299.03 -1117.736)"/><g transform="translate(16.232 32.772)"><path class="j" d="M362.91,1302.44c.512-2.174,4.89-21.307.806-23.62-3.6-2.039-3.511-9.967-2.949-17.454.5-6.627-8.014-9.725-8.377-9.854l-.216.609c.084.03,8.409,3.062,7.949,9.2-.577,7.688-.638,15.847,3.275,18.064,3.1,1.756.246,17.133-1.116,22.91Z" transform="translate(-352.173 -1251.513)"/></g><path class="bz" d="M386.377,1538.03l-5.819,22.075h-13l-5.819-22.075Z" transform="translate(-344.032 -1461.143)"/><path class="ca" d="M386.377,1538.029s-12.81,2.405-12.81,22.076h-6.013l-5.819-22.076Z" transform="translate(-344.031 -1461.142)"/></g></g></g></svg>