<svg xmlns="http://www.w3.org/2000/svg" width="75" height="75" viewBox="0 0 75 75"><defs><style>.a{fill:#fff;}.b{fill:#ffc03f;}.c{fill:#2c2f33;}</style></defs><g transform="translate(-27 -207)"><rect class="a" width="75" height="75" rx="37.5" transform="translate(27 207)"/><g transform="translate(-281.418 -42.745)"><rect class="a" width="21.285" height="26.607" transform="translate(327.514 270.52)"/><path class="a" d="M321.366,272.351a2.66,2.66,0,0,1,2.66-2.66h.887V296.3h-.887a4.488,4.488,0,0,0-.822.083c-.088.015-.165.041-.249.062a4.759,4.759,0,0,0-.527.165c-.088.036-.188.073-.266.114a4.408,4.408,0,0,0-.463.25c-.077.049-.154.09-.227.146-.036.024-.075.043-.109.068Z" transform="translate(0.827 0.829)"/><path class="a" d="M321.364,287.482a2.66,2.66,0,0,1,2.66-2.662h24.045v1.775H324.02v1.773h24.048v1.775H324.02A2.66,2.66,0,0,1,321.364,287.482Z" transform="translate(0.829 14.079)"/><path class="b" d="M356.107,289.2h-4.956a.887.887,0,0,0-.85.634,11.356,11.356,0,0,1-.9,2.189.887.887,0,0,0,.152,1.051l3.5,3.5-3.763,3.763-3.5-3.5a.884.884,0,0,0-1.049-.152,11.427,11.427,0,0,1-2.191.9.889.889,0,0,0-.634.852v4.954H336.6v-5.322a3.912,3.912,0,0,1-.1-.887v-4.063a7.012,7.012,0,0,0,2.559.516,7.095,7.095,0,1,0,0-14.189,7.016,7.016,0,0,0-2.559.516V269.691h5.423v4.954a.889.889,0,0,0,.634.852,11.438,11.438,0,0,1,2.191.9.883.883,0,0,0,1.049-.152l3.5-3.5,3.763,3.763-3.5,3.5a.884.884,0,0,0-.152,1.049,11.679,11.679,0,0,1,.9,2.191.887.887,0,0,0,.85.634h4.956Z" transform="translate(14.079 0.829)"/><g transform="translate(320.418 268.745)"><path class="c" d="M340.7,271.582H326.506a.887.887,0,0,0-.887.887v5.322a.885.885,0,0,0,.887.885H340.7a.885.885,0,0,0,.887-.885v-5.322a.887.887,0,0,0-.887-.887Zm-.885,5.322H327.394v-3.547H339.81Z" transform="translate(-315.863 -266.26)"/><path class="c" d="M371.074,282.936h-5.2a13.046,13.046,0,0,0-.533-1.3l3.673-3.671a.886.886,0,0,0,0-1.255L364,271.692a.915.915,0,0,0-1.255,0l-3.671,3.673a13.517,13.517,0,0,0-1.3-.533v-5.2a.885.885,0,0,0-.885-.887H324.853a4.44,4.44,0,0,0-4.435,4.435v28.382a4.429,4.429,0,0,0,4.434,4.433h32.03a.885.885,0,0,0,.887-.885v-5.2a13.988,13.988,0,0,0,1.3-.533l3.671,3.673a.889.889,0,0,0,1.255,0l5.018-5.018a.886.886,0,0,0,0-1.255l-3.673-3.673a12.8,12.8,0,0,0,.531-1.3h5.2a.887.887,0,0,0,.887-.887v-7.1a.887.887,0,0,0-.887-.887Zm-20.5-.229a6.718,6.718,0,0,1,2.559-.659,5.322,5.322,0,0,1,0,10.644,9.749,9.749,0,0,1-2.559-.463Zm-23.058-12.193H348.8v26.607H327.513Zm-5.322,2.66a2.66,2.66,0,0,1,2.66-2.66h.887v26.607h-.887a4.484,4.484,0,0,0-.822.083c-.088.015-.165.041-.249.062a4.759,4.759,0,0,0-.527.165c-.088.036-.188.073-.266.114a4.419,4.419,0,0,0-.463.249c-.077.049-.154.09-.227.146-.036.024-.075.043-.109.068Zm0,28.382a2.66,2.66,0,0,1,2.66-2.662H348.9v1.775H324.849v1.773H348.9v1.775H324.849a2.66,2.66,0,0,1-2.656-2.654Zm47.994-11.531H365.23a.887.887,0,0,0-.85.634,11.357,11.357,0,0,1-.9,2.189.887.887,0,0,0,.152,1.051l3.5,3.5-3.763,3.763-3.5-3.5a.884.884,0,0,0-1.049-.152,11.432,11.432,0,0,1-2.191.9.889.889,0,0,0-.634.852v4.954h-5.32V298.9a3.913,3.913,0,0,1-.1-.887v-4.063a7.012,7.012,0,0,0,2.559.516,7.095,7.095,0,1,0,0-14.189,7.016,7.016,0,0,0-2.559.516V270.52H356v4.954a.889.889,0,0,0,.634.852,11.438,11.438,0,0,1,2.191.9.883.883,0,0,0,1.049-.152l3.5-3.5,3.763,3.763-3.5,3.5a.883.883,0,0,0-.152,1.049,11.677,11.677,0,0,1,.9,2.191.887.887,0,0,0,.85.634h4.956Z" transform="translate(-320.418 -268.745)"/></g></g></g></svg>