<svg xmlns="http://www.w3.org/2000/svg" xmlns:xlink="http://www.w3.org/1999/xlink" width="45.86" height="44" viewBox="0 0 45.86 44"><defs><style>.a{fill:#ffecee;}.b{fill:url(#a);}.c{fill:url(#d);}.d{fill:#fff;}.e{filter:url(#e);}.f{filter:url(#b);}</style><linearGradient id="a" x1="0.084" y1="0.183" x2="0.945" y2="0.722" gradientUnits="objectBoundingBox"><stop offset="0" stop-color="#ff8499"/><stop offset="1" stop-color="#fe7221"/></linearGradient><filter id="b" x="0" y="6" width="45.86" height="36.916" filterUnits="userSpaceOnUse"><feOffset dy="2" input="SourceAlpha"/><feGaussianBlur stdDeviation="2" result="c"/><feFlood flood-color="#ff9170"/><feComposite operator="in" in2="c"/><feComposite in="SourceGraphic"/></filter><linearGradient id="d" x1="0.5" x2="0.5" y2="1" gradientUnits="objectBoundingBox"><stop offset="0" stop-color="#fff"/><stop offset="1" stop-color="#ffceb8"/></linearGradient><filter id="e" x="6.083" y="7.5" width="33.833" height="33.833" filterUnits="userSpaceOnUse"><feOffset dy="3" input="SourceAlpha"/><feGaussianBlur stdDeviation="3" result="f"/><feFlood flood-opacity="0.22"/><feComposite operator="in" in2="f"/><feComposite in="SourceGraphic"/></filter></defs><g transform="translate(1)"><rect class="a" width="44" height="44" rx="6"/><g transform="translate(4.852 9.704)"><g transform="translate(0 0)"><g class="f" transform="matrix(1, 0, 0, 1, -5.85, -9.7)"><path class="b" d="M12.458,0H21.4a12.458,12.458,0,0,1,0,24.916H12.458A12.458,12.458,0,1,1,12.458,0Z" transform="translate(6 10)"/></g></g><g transform="translate(7.231 3.796)"><g class="e" transform="matrix(1, 0, 0, 1, -13.08, -13.5)"><path class="c" d="M17.342,13.389a5.3,5.3,0,0,1-1.883-4.057V7.125a5.546,5.546,0,0,0-4.75-5.478V.792a.792.792,0,1,0-1.583,0v.855a5.545,5.545,0,0,0-4.75,5.478V9.332A5.308,5.308,0,0,1,2.484,13.4a1.385,1.385,0,0,0,.9,2.438H16.448a1.385,1.385,0,0,0,.894-2.444Z" transform="translate(13.08 13.5)"/></g><path class="d" d="M11.235,23.375A2.973,2.973,0,0,0,14.143,21H8.326A2.973,2.973,0,0,0,11.235,23.375Z" transform="translate(-1.318 -4.375)"/></g></g></g></svg>