<svg id="Layer_2" data-name="Layer 2" xmlns="http://www.w3.org/2000/svg" viewBox="0 0 37.89 37.89"><defs><style>.cls-1{fill:#a8474f;}</style></defs><title>Username</title><path class="cls-1" d="M35.06,38.94v-.5a15.06,15.06,0,0,0-30.12,0v.5H1.06v-.5A18.8,18.8,0,0,1,6.61,25.05a18.52,18.52,0,0,1,6.33-4.19,11.16,11.16,0,1,1,14.12,0A18.94,18.94,0,0,1,38.94,38.44v.5ZM20,4.94a7.28,7.28,0,1,0,7.28,7.28A7.29,7.29,0,0,0,20,4.94Z" transform="translate(-1.06 -1.06)"/><path class="cls-1" d="M33,25.4A18.35,18.35,0,0,0,26,21,10.66,10.66,0,1,0,14,21,18.45,18.45,0,0,0,1.56,38.44H4.44a15.56,15.56,0,0,1,31.12,0h2.88A18.31,18.31,0,0,0,33,25.4ZM20,20a7.78,7.78,0,1,1,7.78-7.78A7.79,7.79,0,0,1,20,20Z" transform="translate(-1.06 -1.06)"/></svg>