<svg xmlns="http://www.w3.org/2000/svg" width="14.151" height="15.627" viewBox="0 0 14.151 15.627">
  <g id="Group_4733" data-name="Group 4733" transform="translate(-19 -628)">
    <ellipse id="Ellipse_171" data-name="Ellipse 171" cx="7" cy="6.5" rx="7" ry="6.5" transform="translate(19 630)" fill="#fff"/>
    <g id="Group_4730" data-name="Group 4730" transform="translate(-557.618 -580.546)">
      <path id="Path_14321" data-name="Path 14321" d="M583.687,1224.173a7.076,7.076,0,0,1-.438-14.137l.09-.006v-.772h-.644a.356.356,0,0,1,0-.712h2a.365.365,0,0,1,.378.372.356.356,0,0,1-.356.341h-.666v.772l.09.006a7.03,7.03,0,0,1,3.949,1.517l.067.052,1.039-1.039a.359.359,0,0,1,.159-.091h.039a.366.366,0,0,1,.4.252l.921,3.433a.389.389,0,0,1,.02.116.357.357,0,0,1-.353.361l-.1-.012-3.1-.83s.285.345.33.4a4.807,4.807,0,0,1-.922,6.729,4.8,4.8,0,0,1-6.729-.922,4.808,4.808,0,0,1,.922-6.729.371.371,0,0,1,.447.591,4.06,4.06,0,1,0,6.494,3.705l.012-.107h-4.05a.37.37,0,0,1-.37-.369v-4.431a.371.371,0,0,1,.37-.369,4.756,4.756,0,0,1,2.78.887l.066.047,1.117-1.118-.087-.067a6.362,6.362,0,1,0,2.489,5.052.356.356,0,1,1,.711,0,7.09,7.09,0,0,1-6.63,7.06c-.153.01-.3.014-.453.014Zm.381-11.013v3.567h3.657v-.1l-.021-.172a1.386,1.386,0,0,0-.03-.183l-.033-.154-.047-.168a1.028,1.028,0,0,0-.064-.181l-.112-.3-.074-.159c-.053-.11-.1-.2-.157-.291l-.09-.142-.1-.145-.2-.259c-.041-.051-.075-.09-.111-.128-.08-.089-.155-.163-.231-.233l-.278-.239c-.041-.033-.084-.067-.127-.1l-.279-.18c-.1-.062-.2-.113-.291-.159l-.154-.073-.163-.069-.153-.052-.33-.094-.173-.041-.154-.028-.175-.021h-.1Zm3.536.006,2.267.608-.609-2.267Z" transform="translate(0)"/>
      <path id="Path_14322" data-name="Path 14322" d="M584.423,1213.375v3.567h3.657v-.1l-.021-.172a1.372,1.372,0,0,0-.03-.183l-.033-.154-.047-.168a1.025,1.025,0,0,0-.064-.181l-.112-.3-.074-.159c-.053-.11-.1-.2-.157-.291l-.09-.142-.1-.145-.2-.259c-.041-.051-.075-.09-.111-.128-.08-.089-.155-.163-.231-.233l-.278-.239c-.041-.033-.084-.067-.127-.1l-.279-.18c-.1-.062-.2-.113-.291-.159l-.154-.073-.163-.069-.153-.052-.33-.094-.173-.041-.154-.028-.175-.021h-.1Z" transform="translate(-0.356 -0.216)" fill="#ffc03f"/>
      <path id="Path_14323" data-name="Path 14323" d="M588.128,1213.307l2.267.608-.609-2.267Z" transform="translate(-0.524 -0.141)" fill="#fff"/>
    </g>
  </g>
</svg>
