<svg xmlns="http://www.w3.org/2000/svg" width="79.533" height="23.212" viewBox="0 0 79.533 23.212"><defs><style>.a{fill:#002d64;}.b{fill:#e71623;}</style></defs><g transform="translate(-20.1 -232.9)"><path class="a" d="M40.871,303.449c.915-.053,1.246.689,1.007,2.068H39.214v-.04a2.031,2.031,0,0,1,1.657-2.028m-2,4.295h7c.371-2.744.451-4.255-.663-5.435-.9-.954-2.2-1.246-3.99-1.246-3.168,0-5.66,1.286-6.681,3.712a6.713,6.713,0,0,0-.451,1.776c-.4,2.9.265,5.5,6.071,5.461a19.468,19.468,0,0,0,4.348-.623l.424-2.638c-4.149,1.18-6.363.636-6.058-1.007M34.6,302.018l.809-4.308h-12.7l-.557,3.645H28.7l-7.94,6.1L20.1,311.8H33.143l.65-3.738H26.807ZM51.966,303l.292-1.736H47.446L45.6,311.8h5.13l1.074-6.575a1.241,1.241,0,0,1,1.113-.954.719.719,0,0,1,.729.822L52.483,311.8H57.6l1.246-7.41c.994-4.467-5.554-3.977-6.88-1.392m26.14,6.23c-.782.252-1.392.093-1.577-.384a1.18,1.18,0,0,1,.782-1.432,4.183,4.183,0,0,1,2.081-.225,2.235,2.235,0,0,1-1.286,2.041m5.66-6.88c-1.326-1.445-5.806-1.8-9.5-.716l-.53,2.982c1.273-.623,6.177-2.068,6.124.583a17.654,17.654,0,0,0-3.645-.013,5.1,5.1,0,0,0-3.884,2.24,3.529,3.529,0,0,0-.543,2.492c.3,1.644,2.121,2.147,3.566,2.108A4.477,4.477,0,0,0,78.8,310.3l-.212,1.511h4.692l1.219-6.774a3.466,3.466,0,0,0-.729-2.691m6.694,1.3.424-2.373H86.072L84.243,311.8h5.13l.636-3.9c.9-2.585,2.625-2.956,4.242-2.6l.756-4.242c-2.214-.424-3.871,1.273-4.547,2.585m-18.69,1.909a2.419,2.419,0,0,0-.557-1.087,6.837,6.837,0,0,0-4.136-1.7c-.663-.119-2.174-.371-1.551-1.286.954-1.418,5.156-.345,6.4.093l.636-3.632c-3.248-.7-6.827-.994-9.782.384a4.869,4.869,0,0,0-2.89,3.393c-.65,3.274,1.458,4.043,4.494,4.8.742.2,1.988.252,2.028,1.087-.013,1.272-4.613,1.445-7.317.093l-.65,3.645c3.632.994,9.093.981,11.439-.848a4.858,4.858,0,0,0,1.882-4.944" transform="translate(0 -55.915)"/><path class="b" d="M467.623,232.979h.066V232.9h-.066Zm-.331.265h.066v-.133h-.066Zm-.066.133h.066v-.066h-.066Zm-.331.066h.066v-.066h-.066Zm.265-.027a.347.347,0,0,1-.04-.106.451.451,0,0,0,.013.133c.013.013.026.026.026.04h.133a.65.65,0,0,1-.093-.04c-.013-.013-.026-.013-.04-.027m-.3.172c.013.013.026.027.026.04s-.026.027-.026.04.026.026.026.04l.04-.04V233.6l-.04-.04c-.026-.026-.026-.026-.026.026m-.371.066h.079v-.066h-.079Zm.6.079h.08v-.066h-.08Zm-1.06.066h-.066v.066h.066Zm.437.066c.013.013.027.027.027.04l.04-.04-.04-.04c-.013.013-.027.027-.027.04m-.106.066h-.066V234h.066Zm.477.133h.066v-.133h-.066Zm-.411,0h.066V234h-.066Zm-.663-.066h-.066v.066h.066Zm.159.066.04.04.04-.04c.026-.013.066-.027.093-.04h-.133l-.04.04m.848.146h.066v-.08h-.066Zm-.345-.08h-.066v.08h.066Zm-.292.146.04.04c.013-.013.026-.026.026-.04l.04-.119a.421.421,0,0,0-.066.079c-.027.013-.027.027-.04.04m-.5.066h.066v-.066h-.066Zm-.133-.093c-.026.04-.04.066-.066.106h.133a1.227,1.227,0,0,1-.066-.106m-.146.027h-.066v.066h.066Zm-.53,0h-.08v.066h.08Zm1.1.066-.04-.04c-.026-.04-.066-.066-.093-.106l-.04-.04c-.027-.027-.027-.027-.027.04.013.013.027.026.027.04a.668.668,0,0,1,.093.106c.013.013.027.027.027.04a.183.183,0,0,0,.053-.04m.716.133h.066v-.066h-.066Zm-.875,0h.066v-.066h-.066Zm-.133,0h.066v-.066h-.066Zm.265.08h.08v-.066h-.08Zm-1.074-.08h-.08v.066h.08Zm.53,0h-.066v.133h.066Zm1.074.212h.066v-.066h-.066Zm-.265,0h.066v-.066h-.066Zm-1.365,0c-.026.04-.026.04.027.04.013-.013.026-.027.026-.04l.04-.04c.013-.013.027-.027.027-.04l.04.04c.04.013.093.027.133.04a.471.471,0,0,1-.026-.133l-.04-.04.04-.04c.026-.013.066-.026.093-.04h-.133c-.013.013-.027.027-.027.04s-.026.026-.026.04l-.04.04c-.013.013-.027.026-.027.04l-.04.04c-.013.013-.027.026-.027.04-.013-.013-.026,0-.04.013m.835-.066h-.066v.146h.066Zm-.941.066h-.066v.08h.066Zm-.3.08a.164.164,0,0,0-.026-.04l-.04.04.04.04c.013-.026.026-.026.026-.04m.769.066h.066v-.066h-.066Zm.477.066h.066v-.066h-.066Zm-.239-.212a.779.779,0,0,0-.027.186l-.04.04c-.013.013-.026.026-.026.04l-.04.04c-.013.013-.026.027-.026.04l-.04.04c-.027.053-.066.106-.093.172-.013.013-.026.027-.026.04l-.04-.04h-.066l-.04.04.04.04c.013-.013.026-.027.026-.04.013.013.027.026.027.04h.066l.04-.04c.04.04.04.04.133-.04a.471.471,0,0,1-.026-.133c.013-.013.026-.026.026-.04l.04-.04c.013-.013.026-.027.026-.04l.04-.04.04-.04c.026-.04.04-.066.066-.106a.889.889,0,0,1-.079-.119m-.3.278h.066V234.9h-.066Zm-.9,0,.04.04c.013.04.027.066.04.106a.312.312,0,0,0,.027-.106c.013-.013.026-.026.026-.04s-.026-.027-.026-.04c-.013.013-.027.027-.027.04l-.04-.04h-.079l-.04.04.04.04.04-.04m.769.066h.066V234.9h-.066Zm-.239,0a1.448,1.448,0,0,1,.146-.133c-.066-.026-.119-.04-.172-.066v.172l-.04.04c-.013-.013-.027-.027-.027-.04l-.066-.066.04-.04-.04-.04c-.013.013-.026.027-.026.04a.619.619,0,0,0-.053.186.214.214,0,0,1,.119-.04c.013.013.027.026.027.04a.312.312,0,0,1,.027.106c.013-.04.026-.066.04-.106s.013-.04.027-.053m-1.166,0h-.066v.066h.066Zm.6.066h-.066v.066h.066Zm1.511.066c-.013-.013-.027-.026-.027-.04v-.172c-.066,0-.066,0-.04.2l.04.04c.013,0,.013-.013.027-.027m-.225.066h.066v-.066h-.066Zm-.941-.066h-.066v.066h.066Zm-.8.066h-.066v.066h.066Zm-.212,0h-.066v.066h.066Zm2.147.146h.066v-.08h-.066Zm-.941,0h.066v-.146h-.066Zm.6.066h.066v-.066h-.066Zm-.331-.066h-.066v.066h.066Zm-.464,0h-.066v.066h.066Zm-.265.146h.133v-.066h-.133Zm-.742-.08h-.066v.066h.066Zm-.265,0h-.066v.066h.066Zm1.67.146h.133v-.066h-.133Zm-.2.066h.066v-.2h-.066Zm-.2,0a.559.559,0,0,0,.093-.066.563.563,0,0,1-.093-.066Zm-.3,0,.04.04.04-.04-.04-.04c-.04-.013-.04-.013-.04.04m-.9,0h.133v-.066h-.133Zm-.7,0v-.133a.312.312,0,0,0-.026.106l-.04.04.04.04c0-.04.013-.04.026-.053m1.047.066h.066v-.133h-.066Zm-.848,0,.04.04c.106.04.106.04.066,0,.013-.013.027-.027.027-.04.066-.027.133-.04.212-.066a1.061,1.061,0,0,1-.172-.172c.013-.013.027-.026.027-.04.04.04.04.04.106-.04.013-.013.027-.027.027-.04h.159v.133c.066,0,.066,0,.013-.239-.159,0-.159,0-.212.053l-.04.04-.08-.08c-.013-.013-.026-.027-.026-.04l-.04.04.04.04v.08l-.04.04a1.468,1.468,0,0,0-.026.239l-.04.04c-.013-.013-.026-.026-.026-.04l-.04-.04-.04-.04.04-.04-.04-.04c-.013.013-.027.027-.027.04v.066c.013.013.027.027.027.04l.066.066m1.3-.04c-.026-.066-.04-.133-.066-.2l-.066.066c-.013.013-.026.026-.026.04a.66.66,0,0,1-.093-.106l.04-.04c.013-.013.027-.026.027-.04l.04-.04a.162.162,0,0,1,.026-.04l.04-.04c.013.013.027.026.027.04.066.013.133.027.212.04-.027-.04-.04-.093-.066-.133a.785.785,0,0,0-.106.053c-.013-.013-.026-.027-.026-.04s-.027-.026-.027-.04l-.04-.04a.312.312,0,0,1-.027-.106l-.04-.04.04-.04c.013-.013.027-.027.027-.04l.04-.04-.04-.04c-.013.013-.027.027-.027.04l-.04.04c-.013.013-.027.027-.027.04v.066c.013.013.027.026.027.04l-.066.066c-.013.013-.027.026-.027.04s.027.026.027.04l.04-.04h.066c.013.013.027.026.027.04s-.027.027-.027.04l-.04.04c-.013.013-.027.027-.027.04l-.04.04c-.013.013-.027.027-.027.04l-.159-.04q-.04.02-.04.04l.04.04.04-.04c.027.066.066.133.093.2h.159c.013.013.027.026.027.04a.65.65,0,0,1,.093.04l.04.04c.093.133.093.133.172.106-.053-.04-.093-.093-.146-.133a.185.185,0,0,1-.053-.04m.278.106h.066v-.066h-.066Zm-.371.066-.04-.04c-.013.013-.026.026-.026.04s.026.026.026.04l.04-.04m.835.066h.066v-.066h-.066Zm-3.089-.066h-.066v.066h.066Zm2.558.146h.066v-.08h-.066Zm-3.089-.08h-.066V236h.066ZM464,236h-.066v.066H464Zm-2.28,0h-.066v.066h.066Zm2.558.133h.066v-.066h-.066Zm-.411-.133a1.255,1.255,0,0,0-.119.04,1.107,1.107,0,0,0,.053.159c.066,0,.066,0,.066-.2m-2.6.133h-.08v.066h.08Zm2.731.106c-.013.013-.026.027-.026.04v.133a.314.314,0,0,0,.026-.106c.013-.013.027-.027.027-.04h.172c.013-.066.013-.066-.2-.027m-.318.027h.066V236.2h-.066Zm-.146-.345c0-.066,0-.066.278-.066a.845.845,0,0,1-.053-.119c-.08.013-.159.04-.225.053v-.2c-.066,0-.066,0-.066.133-.159.04-.3.066-.464.106.066.027.133.04.2.066-.013.013-.026.027-.026.04-.027.013-.066.027-.093.04h.133l.04-.04c.093-.133.093-.133.225-.133a2.476,2.476,0,0,0-.053.331c-.053.013-.093.04-.146.053-.013.013-.026.026-.026.04a2.264,2.264,0,0,1-.3-.172c.013-.013.026-.027.026-.04a.164.164,0,0,0-.026-.04l-.04.04a.165.165,0,0,0-.026-.04h-.066l-.04.04q-.02-.04-.04-.04a.312.312,0,0,1-.026-.106c-.08-.013-.159-.027-.225-.04.106.08.106.08.066.133l-.04.04c-.04.04-.04.04-.172-.04a1.463,1.463,0,0,0-.133.146c-.04-.026-.093-.04-.133-.066.013-.013.026-.027.026-.04v-.08c-.013-.013-.026-.027-.026-.04h-.066l-.04.04V236l.04.04c-.08.013-.146.027-.212.04a.84.84,0,0,0,.053.119.546.546,0,0,1,.159-.013l-.04.04.04.04c.013-.013.026-.027.026-.04.159.04.411-.04.477,0l.04.04-.04.04.04.04c.013-.013.027-.027.027-.04.053.04.053.04.04.265a.656.656,0,0,1,.172-.053.345.345,0,0,1-.04-.146c.04-.013.093-.026.133-.04.013-.013.026-.027.026-.04.04.04.04.04.106-.04l.04-.04c.053.04.106.066.159.106l.066-.066.04-.04c.027.013.066.027.093.04-.013.013-.026.027-.026.04-.013.04-.027.093-.04.133h-.265c0,.066,0,.066.2.066v.146c.066,0,.066,0,.106-.133.013.013.026.04.053.053s.026.026.026.04c.013.04.027.066.04.106.013.013.027.026.027.04l.04-.04-.04-.04c.04-.053.04-.053-.027-.119l-.04-.04c-.026-.066-.04-.133-.066-.2l.04-.04h.172c-.026-.053-.04-.106-.066-.159a.935.935,0,0,1,.093-.119.289.289,0,0,1-.106-.066m-1.816.278h-.066v.066h.066Zm-.729,0h-.066v.066H461Zm-.133,0H460.8v.066h.066Zm.57.146c.013.013.026.026.026.04l.159-.04h-.133l-.04-.04a.313.313,0,0,1-.026-.106l-.04-.04.04-.04-.04-.04c-.013.013-.026.027-.026.04v.066c.013.013.026.027.026.04a.473.473,0,0,1,.053.119m-.239,0h.08v-.066h-.08Zm2.346.133h.079v-.066h-.079Zm-2.943-.066h-.133v.066h.133Zm3.208.133h.133v-.066h-.133Zm-.663,0h-.066v.08h.066Zm-.212-.133c-.066,0-.066,0-.066.212a.957.957,0,0,1,.119-.066.875.875,0,0,0-.053-.146m-.451.292a1.168,1.168,0,0,1,.026-.225c-.053.066-.093.133-.146.212-.013-.013-.026-.026-.026-.04.026-.119.026-.119-.04-.384-.04.066-.093.133-.133.2l-.04-.04c-.066-.027-.133-.04-.2-.066.053.04.106.066.159.106l.04.04a2.316,2.316,0,0,1,.159.186l.04.04-.04.04c-.013.013-.027.027-.027.04l-.04.04.04.04c.013-.013.027-.027.027-.04l.04.04v.066l-.04.04v.066l.04.04.026-.04c-.013-.013-.026-.027-.026-.04s.026-.027.026-.04c.04,0,.04-.133,0-.133-.013-.013-.026-.026-.026-.04s.026-.027.026-.04a.409.409,0,0,1,.133-.066m-1.75-.013h-.066v.066h.066Zm2.545.133h.066v-.066h-.066Zm-.2,0h.066v-.066h-.066Zm-2.678-.066h-.066v.066h.066Zm-.676.04c-.026.04-.04.066-.066.106h.133a.287.287,0,0,0-.066-.106m2.32.093c-.013-.146-.026-.278-.026-.411-.066,0-.066,0-.066.212a1.1,1.1,0,0,0-.2-.053c.027-.08.04-.146.066-.212a.866.866,0,0,0-.106.119c-.013-.013-.026-.026-.026-.04-.159.013-.265.119-.477.119a1.2,1.2,0,0,1,.146-.212h-.278v.186l-.04.04a.685.685,0,0,1-.027-.146c-.066,0-.066,0-.066.186-.013.013-.027.027-.027.04l-.04-.04c-.013.013-.026.027-.026.04s.026.026.026.04h.066c.013-.013.027-.027.027-.04a.648.648,0,0,0,.093-.04l.04-.04c.013.119.026.225.04.345a.806.806,0,0,1,.133.093c-.053.026-.093.04-.146.066-.013.013-.026.027-.026.04h-.093v.146h.093c.013.013.026.027.026.04v.2c-.013.013-.026.026-.026.04v.133c.013.013.026.026.026.04.04.013.093.027.146.04a.96.96,0,0,0-.066-.119.071.071,0,0,0-.04.053l-.04-.04v-.066l.04-.04a1.954,1.954,0,0,1,.172-.106l.04-.04c.093-.026.172-.04.265-.066.013.013.026.027.026.04l-.066.066-.04.04.04.04.04-.04h.159v-.133h-.093c-.013-.013-.026-.027-.026-.04-.159-.186-.186-.318-.331-.345l.04-.04c.066-.027.133-.04.2-.066l.04.04c-.013.053-.026.119-.04.172.066.04.066.04.225-.04-.119-.093-.119-.093-.066-.133.013-.013.027-.026.027-.04h.146c.013.013.027.027.027.04.013.053.026.119.04.172l.04.04c.013-.013.027-.027.027-.04s-.027-.027-.027-.04v-.133a.053.053,0,0,1,.013-.066m1.1.066h.066v-.066h-.066Zm-.265-.093a.572.572,0,0,1,.053.093.744.744,0,0,1,.106-.066.667.667,0,0,0-.159-.027m-.331,0-.04.04v.133c.013-.04.027-.066.04-.106.013-.013.026-.027.026-.04a.593.593,0,0,1,.146.013c-.026-.08-.053-.146-.08-.212-.026.053-.066.106-.093.172m-2.015.027h-.2v.066h.2Zm-1.471.066h-.066v.066h.066Zm-.345,0h-.066v.066h.066Zm-.2,0h-.066v.066h.066Zm3.685.066h-.066v.066h.066Zm-2.969-.053a.854.854,0,0,0-.106.119h.265c0-.066,0-.066-.159-.119m3.38.2h.066V237.1h-.066Zm-4.295-.08h-.08v.066h.08Zm.172.08c.013.013.026.026.026.04a.452.452,0,0,1,.133-.013.642.642,0,0,1-.093-.04l-.04-.04a.069.069,0,0,1-.026.053m4.52.066h.066v-.079h-.066Zm-.809,0h.066v-.079H462.2Zm-4.215-.066h-.066v.079h.066Zm3.99.146-.04-.04c-.013-.013-.026-.027-.026-.04s-.026-.026-.026-.04c-.04-.026-.04-.026-.04.04l.04.04c.013.013.026.027.026.04s.026.027.026.04H462c.013-.013.026-.027.026-.04s-.026-.027-.026-.04c-.013.013-.027.027-.027.04m-4.467.133h-.066v.066h.066Zm-.8.066h-.066v.066h.066Zm5.01.2h.066v-.066h-.066Zm-4.812-.066h-.066v.066h.066Zm-.2.066h.066v-.066h-.066Zm4.851,0c-.013-.013-.027-.027-.027-.04s-.026-.027-.026-.04l-.04-.04c-.013.013-.026.026-.026.04s.026.027.026.04l.04.04c.013.013.026.026.026.04v.119c.066,0,.066,0,.066-.119l.04-.04-.04-.04-.04.04m-.6.066c-.013-.013-.027-.027-.027-.04s.027-.026.027-.04v-.066c-.013-.013-.027-.026-.027-.04s-.027-.027-.027-.04l-.04-.04c.04-.04.04-.04-.133-.133l.04-.04c.026-.013.066-.027.093-.04a1.691,1.691,0,0,1,.013-.265.12.12,0,0,1,.093-.04l.04.04.027-.04c-.013-.013-.027-.026-.027-.04l-.159-.04-.04-.04c.2-.066.2-.066-.066,0-.013.013-.027.026-.027.04l-.04-.04c-.04-.013-.04-.013-.026.04.013.013.026.027.026.04l.04.04.027.04h-.345c-.013.013-.027.027-.027.04l-.04-.04c-.027-.013-.066-.027-.093-.04l-.04-.04.04-.04a.473.473,0,0,0,.026-.133h-.159c-.013-.013-.027-.026-.027-.04h-.146l-.04.04.04.04c.013-.013.026-.027.026-.04h.066l.04.04a.176.176,0,0,0-.04.106,1.534,1.534,0,0,0,.146.066l.026.04v.066c-.013.013-.026.027-.026.04l-.04-.04c-.159-.04-.292-.066-.437-.106-.013-.013-.026-.026-.026-.04h-.133a.647.647,0,0,1,.093.04l.04.04c.026.04.026.04-.133.212-.013.013-.027.026-.027.04a.8.8,0,0,1-.093-.133l-.265.04a.471.471,0,0,0,.053.119l-.04.04-.066-.066-.04-.04v-.186c-.066,0-.066,0-.066.186l-.04.04H458.9c-.013-.013-.027-.026-.027-.04s.027-.027.027-.04-.027-.027-.027-.04q-.04.02-.04.04l-.04-.04v-.08l.04-.04-.04-.04-.04.04v.146l.04.04.04.04.04.04c-.026.013-.04.027-.04.04l.04.04c.013-.013.027-.026.027-.04.013.093.026.186.04.265-.066,0-.066,0-.066-.133-.159-.053-.159-.053-.239-.2-.027.106-.066.2-.093.3-.013.013-.027.026-.027.04h-.159V237.5a.656.656,0,0,1,.172-.053,2.179,2.179,0,0,1-.08-.212.811.811,0,0,0-.093.186c-.172,0-.172,0-.212.053l-.04.04-.04-.04c-.013-.013-.027-.027-.027-.04l-.04-.04c-.026-.013-.066-.026-.093-.04s-.026-.027-.026-.04h-.066c-.013.013-.026.027-.026.04v.066c.013.013.026.026.026.04h.066c.013-.013.026-.026.026-.04h.066c.013.013.026.026.026.04s-.026.027-.026.04v.133c.013.013.026.027.026.04l-.159.04-.04-.04c-.027-.04-.053-.093-.08-.133l-.133.133-.04.04-.04-.04c-.013.013-.027.026-.027.04s.027.026.027.04h.066c.013-.013.026-.027.026-.04h.146c.013.013.026.026.026.04-.133.212-.371.093-.49.04a.7.7,0,0,0-.08.133l-.04-.04H457.1c-.013.013-.027.026-.027.04q-.04-.02-.04-.04c-.013.013-.027.026-.027.04l.027.04c-.013.013-.027.027-.027.04a.667.667,0,0,0-.093.106l-.04.04c-.013-.013-.026-.027-.026-.04-.093-.106-.093-.106-.331-.106a1.681,1.681,0,0,0-.08.239l-.04.04h-.066c-.013-.013-.026-.026-.026-.04l-.159-.04c-.013-.013-.027-.027-.027-.04l-.04-.04c-.013-.013-.026-.027-.026-.04h-.066c-.013.013-.027.027-.027.04-.08.027-.146.04-.212.066l.066.066c.013.013.027.027.027.04a1.541,1.541,0,0,0-.066.146c-.013.013-.026.027-.026.04a1.543,1.543,0,0,0-.066-.146.732.732,0,0,0-.093.119c-.04-.053-.04-.053.026-.186-.119.027-.225.04-.345.066.093.08.172.159.278.252-.026.053-.04.119-.066.172a2.685,2.685,0,0,1-.172-.239l-.066.066c-.026-.04-.04-.066-.066-.106l-.159.04a1.139,1.139,0,0,0-.04.225c-.159-.04-.159-.04-.411.04-.013.013-.026.027-.026.04-.225-.027-.225-.027-.159.04l-.04.04h-.133c-.013-.013-.026-.027-.026-.04a.42.42,0,0,1-.08-.066l.04-.04c.027-.04.04-.066.066-.106-.026-.053-.053-.119-.079-.172-.066.172-.066.172-.027.239l-.04.04h-.133c-.013-.013-.026-.026-.026-.04l-.159.04c-.013-.013-.027-.026-.027-.04-.172.04-.172.106-.437.172-.013-.013-.026-.027-.026-.04a.643.643,0,0,1-.093-.04l.066.066.04.04v.066l-.04.04c-.04-.04-.04-.04-.093.04l-.04.04c-.04.04-.04.04-.239-.146H453v-.172c.013-.013.027-.027.027-.04a.644.644,0,0,0,.093-.04h-.133c-.026.013-.026.027-.04.04-.08.04-.159.093-.225.133a.471.471,0,0,1-.026-.133l-.04-.04c-.013.013-.027.027-.027.04s.027.026.027.04c-.027.04-.04.093-.066.133-.013.013-.026.026-.026.04l-.066-.066c-.013-.013-.026-.027-.026-.04h-.066q-.04.02-.04.04l-.04-.04h-.133c-.013.013-.026.027-.026.04a.664.664,0,0,1-.093-.106v.133c-.013.013-.027.026-.027.04a.477.477,0,0,0-.026.146l-.159.04a.669.669,0,0,1,.026-.159l.04-.04-.04-.04c-.013.013-.026.027-.026.04a.909.909,0,0,1-.106-.04,1.554,1.554,0,0,0-.066.146l-.04.04-.04-.04h-.066c-.013.013-.026.026-.026.04l-.066.066-.04-.04c-.013-.013-.026-.026-.026-.04s-.027-.026-.027-.04v-.119c-.066,0-.066,0-.066.119l-.04.04c-.026.027-.053.04-.08.066-.013-.013-.026-.027-.026-.04h-.133l-.04.04c-.053.04-.106.066-.159.106.04.027.093.04.133.066l-.04.04h-.133c-.013-.013-.027-.027-.027-.04v-.106c-.053.013-.093.027-.146.04l-.04.04c-.04-.04-.04-.04,0,.066l.04.04a.859.859,0,0,1-.49.04c-.013-.013-.027-.027-.027-.04v-.172h-.08v.172l-.04.04c-.027.053-.066.119-.093.186-.04-.04-.08-.066-.106-.093a1.482,1.482,0,0,1-.769.106v.133h-.133v-.133h-.146v.133c-.066,0-.066,0-.119-.119a.071.071,0,0,0-.04.053c-.013-.013-.027-.026-.027-.04l-.04-.04c-.013-.026-.027-.04-.04-.04l.04-.04.04-.04c.013-.013.027-.027.027-.04s-.027-.027-.027-.04l-.04.04-.04.04c-.013.013-.027.027-.027.04l-.04.04c-.013.013-.026.027-.026.04v.066c.013.013.026.026.026.04s-.026.027-.026.04h-.239c.04.146.04.146-.04.2-.013-.013-.027-.027-.027-.04v-.106h-.2v.2c-.079-.04-.146-.093-.212-.133v.133c-.066,0-.066,0-.093-.133-.013-.013-.026-.026-.026-.04s.026-.027.026-.04v-.066c-.013-.013-.026-.027-.026-.04l-.04.04.04.04-.04.04c-.265.04-.212-.013-.331.2l-.04-.04c0-.053,0-.053-.172-.172l-.04-.04c-.013-.013-.027-.027-.027-.04l-.04-.04-.066-.066a.312.312,0,0,1,.027.106l.04.04-.04.04-.159.04v.133a.25.25,0,0,0-.106.027l-.04-.04a.347.347,0,0,1-.04-.106l-.04-.04c-.013.013-.026.026-.026.04s.026.026.026.04v.066c-.013.013-.026.027-.026.04-.133-.04-.133-.04-.292.04-.013.013-.026.027-.026.04s.026.026.026.04l.04-.04c.04,0,.04,0,.04.159a.781.781,0,0,0-.106.053l-.04-.04-.212-.212-.066.066c-.013.013-.026.027-.026.04l-.04-.04c-.013.013-.026.027-.026.04s.026.027.026.04l.04.04c.013.013.026.027.026.04l.04.04c.013.013.026.026.026.04a.312.312,0,0,0-.026.106l-.04-.04h-.066c-.013.013-.026.027-.026.04-.04-.013-.093-.027-.133-.04-.027.04-.04.066-.066.106.08-.013.159-.027.225-.04l.04-.04c.013.013.026.026.026.04v.066c-.013.013-.026.026-.026.04l-.04.04c-.013.013-.026.027-.026.04H445.5c-.053.08-.093.159-.146.252-.013-.133-.013-.133-.159-.239,0,.146.013.292.026.437l-.04.04a.473.473,0,0,0-.026.133h.133c0,.066,0,.066-.133.066,0,.066.146.119.212.252l-.04.04c-.093-.026-.159-.04-.239-.066a1.953,1.953,0,0,1,.133.172l-.04.04v.066l.04.04-.066.066c-.026-.04-.04-.066-.066-.106-.066,0-.066,0-.066.212.053.04.106.093.159.133l.04.04.066.066-.04.04c-.027.013-.066.027-.093.04.026.013.066.027.093.04l.04.04-.2.066c.04.027.093.04.146.08a1.452,1.452,0,0,1,.133-.146c.013-.013.027-.027.027-.04v-.106c-.013-.013-.027-.027-.027-.04l.292-.04c.013.013.026.027.026.04v.265c-.013.013-.026.026-.026.04a1.027,1.027,0,0,0-.026.212c.053.026.106.04.159.066.013.013.026.027.026.04s-.026.026-.026.04.026.027.026.04l.04-.04.04-.04.04-.04c.04-.027.093-.04.133-.066.013.013.026.026.026.04.027.133.04.265.066.411l-.04.04.04.04c.013-.013.026-.027.026-.04.08-.106.159-.212.225-.318l.04-.04a.8.8,0,0,0,.106.106c-.013.013-.026.027-.026.04a.945.945,0,0,0,.013.186.1.1,0,0,1,.053-.053c.013.013.026.027.026.04a.165.165,0,0,1,.027-.04c-.013-.013-.027-.026-.027-.04s.027-.027.027-.04c.013-.04.026-.066.04-.106l.04-.04h.066l.04.04c-.066.318,0,.318,0,.106.08-.027.159-.04.239-.066.013.013.027.027.027.04h.066l.04-.04a.312.312,0,0,0,.027-.106l.04-.04h.093a1.029,1.029,0,0,1,.026.2l.04.04.04.119a2.255,2.255,0,0,1,.292-.053c-.053-.027-.093-.04-.146-.066l.04-.04v-.066c-.027-.013-.027-.026-.04-.04.093-.04.2-.066.3-.106.013.013.026.026.026.04.026.066.04.133.066.2l-.04.04.04.04a.164.164,0,0,1,.026-.04l.066-.066.04.04a.636.636,0,0,1,.04.093c.053-.053.053-.053-.013-.119-.013-.013-.027-.027-.027-.04l-.066-.066c.013-.013.026-.027.026-.04v-.066c-.013-.013-.026-.026-.026-.04.026-.013.066-.027.093-.04l.04.04a1.98,1.98,0,0,0,.172.106c.013.013.026.026.026.04s-.026.026-.026.04.026.027.026.04l.04-.04.066.066.04.04-.04.04v.146c.013-.04.026-.066.04-.106a.163.163,0,0,1,.026-.04l.04.04h.066a.163.163,0,0,1,.026-.04l.04-.04c.013-.013.027-.027.027-.04l.04-.04.04-.04c.013.013.027.027.027.04l.04-.04-.04-.04.066-.066.04-.04c.066-.027.133-.04.2-.066.013.013.026.027.026.04h.133a.643.643,0,0,1-.093-.04l-.04-.04c.04-.04.04-.04-.093-.106-.013-.013-.026-.026-.026-.04.08-.04.159-.08.225-.106l.04.04a1.1,1.1,0,0,0,.053.159.388.388,0,0,1,.119.026c.013.013.026.027.026.04a.475.475,0,0,0-.026.146c.225-.146.119-.186.252-.318.013.013.026.027.026.04.027.04.04.093.066.133a.317.317,0,0,1,.119-.027,1.017,1.017,0,0,1-.119-.119c.013-.013.026-.027.026-.04.186-.066.186-.066.278-.212.013.013.026.027.026.04l.04-.04-.04-.04a.713.713,0,0,0,.093-.172c.026.119.04.252.08.4a.872.872,0,0,0,.278-.517c.053.013.119.04.186.053-.053.027-.106.04-.159.066,0,.066,0,.066.133.106l-.04.04a.647.647,0,0,0-.093.04l-.04.04.04.04c.013-.013.026-.026.026-.04.278.013.278.013.225-.04.013-.013.026-.026.026-.04.119-.04.239-.066.371-.106l.04-.04c.013.013.026.026.026.04l.04.04c.013.013.026.027.026.04h.066l.04-.04a.647.647,0,0,0,.093-.04c.013-.013.026-.026.026-.04l.04-.04.04-.04a2.079,2.079,0,0,1,.3-.053.666.666,0,0,1,.027-.159l-.04-.04.04-.04a.311.311,0,0,0,.026-.106c.013-.013.027-.027.027-.04.04-.027.093-.04.133-.066l.04.04c.093.04.172.093.278.146.159-.159.146-.186.424-.186l.04.04.2.04c0-.066,0-.066-.159-.066-.013-.013-.026-.027-.026-.04l-.066-.066c.013-.013.027-.027.027-.04l.04-.04c.013-.013.026-.027.026-.04l.04.04a.312.312,0,0,1,.026.106c.013-.04.027-.066.04-.106.013-.013.026-.027.026-.04.013-.053.026-.106.04-.146h.093c.013.013.027.026.027.04s-.027.027-.027.04.027.027.027.04a.164.164,0,0,1,.026-.04l.04.04c.146-.066.146-.066.239-.3l.04.04v.172c.04-.013.093-.027.133-.04.013-.013.027-.026.027-.04v-.066c-.013-.013-.027-.027-.027-.04l.066-.066c.027.053.066.119.093.172l.04.04.04-.04q-.04-.02-.04-.04a.748.748,0,0,1,.053-.159c.013.013.027.04.053.053l.04.04c.013-.013.027-.027.027-.04s-.027-.026-.027-.04c-.053-.04-.093-.066-.146-.106.026-.04.04-.066.066-.106.08,0,.08,0,.172.172a2.369,2.369,0,0,1-.026-.3.12.12,0,0,1,.093-.04c.013.013.026.027.026.04v.252c.066,0,.066,0,.066-.252l.04-.04a1.157,1.157,0,0,1,.159.186c-.013.013-.026.027-.026.04a.645.645,0,0,0-.093.04.654.654,0,0,1,.093.04c.013.013.026.027.026.04h.146c-.026-.013-.066-.027-.093-.04s-.04-.027-.04-.04l.04-.04a1.907,1.907,0,0,1,.146-.2c.066.04.146.093.212.133-.027-.318-.027-.318.04-.477.08.013.159.04.225.053.026-.04.04-.066.066-.106l.066.066-.04.04c-.013.013-.026.027-.026.04l-.04.04c-.013.013-.026.027-.026.04s-.027.027-.027.04h-.106c0,.066,0,.066.146.04.013-.013.027-.027.027-.04l.04-.04c.013-.013.026-.027.026-.04l.04-.04c.013-.013.027-.027.027-.04a.805.805,0,0,1,.093.133c.066,0,.066,0,.066-.133.066-.013.133-.027.212-.04l.04-.04-.04-.04c-.026.013-.026.027-.04.04-.013-.08-.026-.146-.04-.212h-.2c0-.066,0-.066.172-.119a.856.856,0,0,1-.106-.119l.04-.04c.026-.013.066-.026.093-.04.119.3.119.3.172.3.013.013.026.027.026.04a.163.163,0,0,1,.026-.04c-.013-.013-.026-.027-.026-.04s.026-.027.026-.04l.159.04-.04.04a.316.316,0,0,0-.027.119l-.04.04.04.04c.013-.013.027-.026.027-.04h.133l.04.04h.066l.04-.04c.04.04.04.04.08-.146-.013-.013-.026-.026-.026-.04.04-.026.093-.04.133-.066.013-.013.026-.027.026-.04s-.026-.026-.026-.04l-.04.04c-.079.027-.146.04-.212.066l.066.066.04.04a.421.421,0,0,0-.08.066l-.04.04c-.013-.013-.026-.027-.026-.04-.04-.026-.093-.04-.133-.066a.164.164,0,0,1,.027-.04c.013-.04.026-.066.04-.106.013-.013.026-.027.026-.04l.04-.172c.013-.013.026-.027.026-.04l.5.04-.04.04.04.04c.013-.013.026-.027.026-.04.04-.026.093-.04.133-.066a1.241,1.241,0,0,0-.159-.119.758.758,0,0,1,.053-.186l.04-.04h.278l.04.04a1.573,1.573,0,0,1,.066.146c.013-.239.013-.239-.04-.186-.013-.013-.026-.027-.026-.04-.04-.04-.04-.04.026-.133.066.04.133.066.2.106l.04.04c.093.013.172.027.278.04,0-.066,0-.066-.133-.066.013-.04.026-.093.04-.133.013.013.026.026.026.04l.2.04v.133c.066,0,.066,0,.066-.3l.04-.04.04.04c.013.013.026.026.026.04s.027.027.027.04c.04.013.093.027.146.04,0-.066,0-.066-.106-.066l-.04-.04c-.013-.013-.027-.027-.027-.04s-.026-.027-.026-.04c.026-.08.04-.146.066-.212l.04-.04-.04-.04c-.013.013-.026.027-.026.04-.04.04-.04.04-.093-.133.093.027.2.04.3.066a.7.7,0,0,0-.08.133.41.41,0,0,1,.119.013.55.55,0,0,1,.093-.146c.013.013.026.027.026.04l.066.066c.026-.04.04-.066.066-.106.066,0,.066,0,.093.212l.04.04-.04.04c-.119.04-.239.066-.358.106.159.106.159.106.292.106l.04.04c.013.013.026.027.026.04l.04.04-.04.04.04.04.04-.04v-.066l-.04-.04-.04-.04c-.013-.013-.026-.027-.026-.04a.312.312,0,0,0,.026-.106l.04.04.04-.04-.04-.04.04-.04v-.066q-.02-.04-.04-.04c.066-.04.133-.093.212-.133-.04-.026-.093-.04-.133-.066.013-.013.027-.027.027-.04a.65.65,0,0,0,.093-.04h-.133q-.04.02-.04.04l-.159-.04c.013-.013.026-.026.026-.04l.04-.04c.013-.013.026-.027.026-.04.04-.013.066-.026.106-.04.013-.013.026-.027.026-.04a.661.661,0,0,0,.093-.106l.066.066-.04.04.04.04.04-.04c.013.013.026.026.026.04.093.04.2.066.292.106l.04.04.04.04c.013.013.026.027.026.04h.133a.646.646,0,0,1-.093-.04l-.04-.04c-.013-.013-.026-.027-.026-.04l-.04-.04.04-.04c.04-.119.093-.239.133-.345l-.04-.04.04-.04c.04.026.093.04.133.066l.04.04c.013.013.026.027.026.04l.04.04c-.04.106-.04.106.027.186l.04.04-.04.04.04.04c.013-.013.027-.027.027-.04l.04-.04c.013-.013.026-.027.026-.04s-.026-.027-.026-.04l-.04.04c-.013-.013-.027-.027-.027-.04a1.982,1.982,0,0,1,.172-.106c.013.013.027.026.027.04.013.04.026.066.04.106.013.013.027.027.027.04l.04.04c.013.013.026.027.026.04l.04-.04-.04-.04c-.013-.013-.026-.027-.026-.04l-.04-.04a.311.311,0,0,1-.027-.106q-.02-.04-.04-.04c-.027-.04-.027-.04-.239-.04-.013-.013-.027-.027-.027-.04l-.04-.04c-.013-.013-.026-.027-.026-.04.04-.026.093-.04.132-.066l-.159-.106c-.013-.013-.027-.026-.027-.04.08-.013.159-.027.225-.04l.04.04v.172c.159.04.159.04.212-.04l.04-.04a.472.472,0,0,0,.026-.133h.093c.013.013.026.026.026.04h.066c.013-.013.027-.027.027-.04h.066c.013.013.027.026.027.04l.04-.04c-.026-.013-.04-.027-.04-.04l.04-.04c.08-.04.159-.066.225-.106q.02-.04.04-.04c.013.013.027.027.027.04.04.146.053.132.066.119m-4.6,0H456.3v.079h.066Zm5.037.146h.066v-.066h-.066Zm-4.825-.066h-.066v.066h.066Zm-1.286,0h-.066v.066h.066Zm5.766.04-.04.04c-.026.013-.066.027-.093.04.026.013.066.026.093.04l.04.04.04-.04-.04-.04.04-.04c-.013-.026-.027-.026-.04-.04m-5.077.027h-.066v.066h.066Zm-1.14.066h-.066v.066h.066Zm5.885.146h.066V238h-.066Zm-4.361-.212H456.3v.2h.066Zm-.119.133h-.066v.066h.066Zm-1.683,0H454.5v.066h.066Zm5.766.146h.066v-.066h-.066Zm-5.488-.066h-.066v.066h.066Zm5.793.066c-.027-.013-.04-.027-.04-.04h-.066l-.04.04v.133c.013-.04.027-.066.04-.106.013-.013.027-.026.027-.04.013.013.026.026.026.04a.069.069,0,0,1,.053-.026m-5.5.066c.026-.013.066-.027.093-.04H455.1c-.013.013-.027.027-.027.04s.027.027.027.04c.013-.026.026-.026.04-.04m-.2,0-.04-.04c-.013.013-.026.027-.026.04s.026.027.026.04l.04-.04m5.329.066h.133v-.066h-.133Zm-5.9-.066H454.3v.066h.066Zm-.4,0H453.9v.066h.066Zm-.477,0h-.066v.066h.066Zm7.1.146h.08v-.08h-.08Zm-5.9-.146h-.133v.146h.133Zm-.53.066h-.146v.08h.146Zm.742.146h.066v-.066h-.066Zm-.066-.066h-.066v.066h.066Zm5.62.133h.066v-.066h-.066Zm-6.866,0c-.013-.013-.026-.027-.026-.04-.027.013-.027.026-.04.04l.04.04c.013-.013.026-.026.026-.04m6.058-.04c-.027.04-.04.066-.066.106a.654.654,0,0,1,.172-.053.4.4,0,0,0-.106-.053m-4.812.04h-.066v.066h.066Zm-1.074-.066h-.066v.133h.066Zm-.411,0h-.066v.133h.066Zm1.339.133h-.066v.066h.066Zm-.331.066c.053-.027.106-.04.159-.066l-.159-.2Zm-1.6-.066H452.7v.066h.066Zm7.224.133h.08v-.066h-.08Zm-7.556-.093c-.027.04-.04.066-.066.106h.133a.735.735,0,0,0-.066-.106m7.29.225h.066v-.066h-.066Zm-.53,0h.066v-.133h-.066Zm.729.08h.066v-.08h-.066Zm-9.159-.08H450.7v.066h.066Zm8.629.146a.513.513,0,0,1,.079-.146c-.04.013-.093.027-.133.04a.164.164,0,0,0,.053.106m-.239,0,.04.04-.04.04h-.066l-.04-.04-.04-.04a.167.167,0,0,0-.026-.04l-.04.04.04.04c.013.013.026.027.026.04l.04.04h.133c.013-.013.027-.027.027-.04v-.066a.165.165,0,0,0-.027-.04l-.026.027m-.9.146h.08V239.1h-.08Zm-7.489,0h.066V239.1h-.066Zm-.066-.066h-.066v.066h.066Zm8.629.133h.066v-.066h-.066Zm-.4,0h.066v-.066h-.066Zm-9.173-.066h-.066v.066h.066Zm.53.066h-.066v.066h.066Zm-.862,0h-.08v.066h.08Zm-.278.133h-.066v.066h.066Zm9.438.133h.066v-.066h-.066Zm-.437,0a.475.475,0,0,0-.026.146c.066,0,.066,0,.066-.106l.04-.04-.04-.04-.04.04m-8.762,0,.04.04h.066l.04-.04-.04-.04c-.013.013-.027.027-.027.04l-.04-.04q-.04.02-.04.04m9.067,0h-.066v.066h.066Zm-9.173-.066h-.066v.133h.066Zm-.2.066h-.066v.066h.066Zm-.133,0h-.133v.066h.133Zm-.265,0h-.066v.066h.066Zm9.173.146h.133v-.08h-.133Zm-10.578-.08h-.066v.08h.066Zm11.174.146h.066v-.066h-.066Zm-.663-.146c-.066,0-.066,0-.027.146.013.013.027.027.027.04l.04-.04-.04-.04Zm-.53.08h-.066v.066h.066Zm-9.186,0h-.066v.066h.066Zm-.265.066h-.212v.066h.212Zm-.53.066h.066v-.066h-.066Zm-.066-.066h-.066v.066h.066Zm10.8.066c.013.013.027.027.027.04s-.027.026-.027.04.027.026.027.04l.04-.04v-.066l-.04-.04a.028.028,0,0,1-.027.027m.371.066h.066v-.066h-.066Zm-1.007-.066h-.066v.066h.066Zm-10.3,0H447v.066h.079Zm-.941,0h-.066v.066h.066Zm11.413.066.04.04c.013-.013.026-.026.026-.04v-.133c-.013-.013-.026-.026-.026-.04s.026-.027.026-.04a.165.165,0,0,0-.026-.04l-.04.04-.04.04c-.013.013-.027.027-.027.04s.027.026.027.04l.04-.04.04.04v.066c-.027.013-.027.026-.04.026m.3.08h.066v-.066h-.066Zm-.133,0h.066v-.066h-.066Zm-.53,0h.066v-.066h-.066Zm-11.784-.08h-.066v.066h.066Zm.358.146-.04-.04c-.013.013-.026.027-.026.04s.026.026.026.04c.013-.027.026-.04.04-.04m11.612.066h.133v-.066h-.133Zm-.119,0h.066v-.066h-.066Zm-.133,0h.066v-.066h-.066Zm-.119-.066v.133c.013.013.026.027.026.04l.04-.04q-.04-.02-.04-.04Zm.636.2h.08v-.066h-.08Zm-.384,0h.066v-.066h-.066Zm-.543,0h.066v-.066h-.066Zm.543.146h.066v-.066h-.066Zm-11.718-.066h-.066v.066h.066Zm12.036.133h.066v-.066h-.066Zm-.769,0,.04.04c.013-.013.027-.027.027-.04s-.027-.027-.027-.04l-.04.04m-12.155,0h-.066v.066h.066Zm12.062.133h.066v-.066h-.066Zm-.769,0c.013.013.027.027.027.04l.04-.04c.026-.013.066-.027.093-.04h-.133c0,.026-.013.026-.027.04m.49.066h.08v-.066h-.08Zm-.252.066h.066V240.6h-.066Zm-10.843-.066h-.08v.066h.08Zm-.345,0h-.066v.066H445Zm10.512.146h.133v-.066h-.133Zm-10.856-.079h-.066v.066h.066Zm11.188.146h.08v-.133h-.08Zm-.61,0h.146v-.066h-.146Zm-10.167.146H445v.066h.066Zm9.915.133h.066v-.066h-.066Zm-.411.066h.066v-.066h-.066Zm-9.57,0h.066v-.066H445Zm9.372.066h.066v-.066h-.066Zm-9.743.133c.013.013.027.027.027.04l.04-.04c-.026-.013-.026-.027-.04-.04,0,.027-.013.027-.027.04m9.345.066h.066v-.066h-.066Zm-8.974.053a.165.165,0,0,1,.027-.04c-.013-.013-.027-.026-.027-.04v-.172c-.04.013-.093.027-.119.04.027.04.053.106.093.159,0,.013.013.026.026.053m8.431.133c-.013.013-.027.027-.027.04s.027.027.027.04c.013-.013.026-.027.026-.04h.106c.013-.08.013-.08-.133-.04m-8.5.027H445v-.066h-.066Zm-.53,0h.066v-.066H444.4Zm.119.212h.066v-.066h-.066Zm7.847,0h-.146v.066h.146Zm.663.133h.066v-.066h-.066Zm-.265.08h.066v-.08h-.066Zm-.225-.133a.508.508,0,0,0-.04.133h.2c0-.08,0-.08-.159-.133m-7.609.053h-.066v.08h.066Zm7.29.146h.066v-.146h-.066Zm.146.066h.066v-.066h-.066Zm-.146.066h.066v-.066h-.066Zm-7.357,0h-.133v.066h.133Zm.066.133h-.066v.066h.066Zm6.628.146h.066v-.08h-.066Zm-.265,0h.066v-.08h-.066Zm-.212.066h.146v-.066h-.146Zm-5.607-.212v.278c.066,0,.066,0,.106-.239a.914.914,0,0,1-.106-.04m-.172.358.04.04c.013-.013.027-.026.027-.04s-.027-.027-.027-.04c-.053-.013-.053-.013-.04.04m-.4.066.04.04c.013-.013.026-.026.026-.04a.645.645,0,0,0,.093-.04h-.133c-.013.013-.026.027-.026.04m5.315.2h.066v-.066h-.066Zm-5.024-.066h-.066v.066h.066Zm4.52.066c-.013.013-.026.027-.026.04s-.027.027-.027.04.027.026.027.04c.013-.013.026-.027.026-.04l.04-.04.04-.04-.04-.04-.04.04m.225.066h.08v-.066h-.08Zm-.8,0h.066v-.066h-.066Zm-3.274,0h.066v-.066h-.066Zm2,0h-.066v.066h.066Zm-2.147.066h.066v-.066h-.066Zm-.252-.133c.04.119.04.119.093.066l.04.04c.013-.013.027-.026.027-.04s-.027-.027-.027-.04a.392.392,0,0,1-.133-.027m-.278.133h.146v-.066H445.2Zm3.818.066h.066v-.066h-.066Zm-3.142,0h.066v-.066h-.066Zm2.943.08h.066v-.08h-.066Zm-.464,0h.066v-.08h-.066Zm-.543,0h.066v-.08h-.066Zm-2.333,0h.066v-.08h-.066Zm.928-.08h-.066v.146h.066Zm.968.146c-.013-.013-.026-.027-.026-.04V243.2c-.066,0-.066,0-.04.146l.04.04c.013,0,.013-.013.026-.026m-.7,0H446.6v.066h.066Zm-.8.066h.066v-.066h-.066Zm1.007-.146v.172a1.058,1.058,0,0,0,.119.053l.04-.2c.013.013.026.027.026.04.013.04.027.066.04.106v-.133l-.04-.04a.438.438,0,0,0-.186,0m-.4.146h-.08v.066h.08Zm1.365.08c.013.013.026.027.026.04l.04-.04c.026-.013.066-.027.093-.04h-.133Zm-.278,0,.04.04.04-.04c-.027-.013-.027-.027-.04-.04Zm.57.066h.066V243.5h-.066Zm-.8,0h.066V243.5h-.066Zm-.676,0h.066V243.5h-.066Zm-.464,0h.066V243.5H446.2Zm.225.133.04.04.04-.04-.04-.04-.04.04" transform="translate(-368.057)"/></g></svg>