<svg xmlns="http://www.w3.org/2000/svg" xmlns:xlink="http://www.w3.org/1999/xlink" width="58" height="58" viewBox="0 0 58 58"><defs><style>.a{fill:url(#a);}.b{fill:#fff;}.c{filter:url(#b);}</style><linearGradient id="a" x1="1" y1="1" x2="0" gradientUnits="objectBoundingBox"><stop offset="0" stop-color="#e15b7f"/><stop offset="1" stop-color="#f9b1e2"/></linearGradient><filter id="b" x="0" y="0" width="58" height="58" filterUnits="userSpaceOnUse"><feOffset dy="3" input="SourceAlpha"/><feGaussianBlur stdDeviation="3" result="c"/><feFlood flood-color="#e66f96" flood-opacity="0.471"/><feComposite operator="in" in2="c"/><feComposite in="SourceGraphic"/></filter></defs><g transform="translate(-84 -86)"><g class="c" transform="matrix(1, 0, 0, 1, 84, 86)"><rect class="a" width="40" height="40" rx="12" transform="translate(9 6)"/></g><g transform="translate(-336.007 -284.009)"><g transform="translate(438.007 385.009)"><path class="b" d="M460.362,394.524a.57.57,0,0,0-.09-.14l-3.639-3.639a.584.584,0,0,0-.808,0,.569.569,0,0,0,0,.808l2.666,2.666h-7.844a.571.571,0,0,0,0,1.143h7.842l-2.664,2.664a.57.57,0,0,0,0,.808.584.584,0,0,0,.808,0l3.637-3.638a.563.563,0,0,0,.124-.188.571.571,0,0,0,0-.439A.249.249,0,0,1,460.362,394.524Z" transform="translate(-437.438 -384.748)"/><path class="b" d="M460.395,395.007a.563.563,0,0,1-.124.188l-3.637,3.638a.584.584,0,0,1-.808,0,.57.57,0,0,1,0-.808l2.664-2.664h-7.842a.571.571,0,0,1,0-1.143h7.844l-2.666-2.666a.569.569,0,0,1,0-.808.584.584,0,0,1,.808,0l3.639,3.639a.57.57,0,0,1,.09.14.249.249,0,0,0,.031.044A.571.571,0,0,1,460.395,395.007Z" transform="translate(-437.438 -384.748)"/><path class="b" d="M452.651,397.638a.572.572,0,0,0-.571.572v4.372a1.372,1.372,0,0,1-1.371,1.371H447.4V388.738a1.8,1.8,0,0,0-1.079-1.625.748.748,0,0,1-.085-.046.28.28,0,0,0-.053-.029l-2.656-.885h7.185a1.372,1.372,0,0,1,1.371,1.371V391.9a.571.571,0,1,0,1.142,0v-4.372a2.516,2.516,0,0,0-2.512-2.514h-10.92a1.682,1.682,0,0,0-.284.027l-.052.007a1.762,1.762,0,0,0-.715.317l-.126-.1.1.123a1.9,1.9,0,0,0-.247.23c-.019.022-.04.047-.06.073a1.677,1.677,0,0,0-.159.234c-.031.057-.045.078-.055.1a1.95,1.95,0,0,0-.1.261l-.017.049c-.006.021-.014.042-.019.064a1.754,1.754,0,0,0-.047.4v17.487a1.8,1.8,0,0,0,1.075,1.623.566.566,0,0,1,.086.046.508.508,0,0,0,.057.031l5.838,1.945a1.813,1.813,0,0,0,.552.082,1.785,1.785,0,0,0,1.784-1.785v-1.129h3.312a2.515,2.515,0,0,0,2.512-2.513V398.21A.573.573,0,0,0,452.651,397.638Zm-6.395,8.586a.634.634,0,0,1-.073.287l-.021.034a.638.638,0,0,1-.454.307l-.094.016a.665.665,0,0,1-.206-.028l-5.817-1.939a.665.665,0,0,1-.443-.617V386.8a.642.642,0,0,1,.642-.642.687.687,0,0,1,.207.028l5.816,1.94a.672.672,0,0,1,.411.419.609.609,0,0,1,.032.2Z" transform="translate(-438.007 -385.009)"/></g></g></g></svg>