<svg xmlns="http://www.w3.org/2000/svg" width="22" height="22" viewBox="0 0 22 22"><defs><style>.a{fill:#2c2f33;}.b{fill:#ffc03f;}</style></defs><g transform="translate(-438.007 -385.009)"><g transform="translate(438.007 385.009)"><path class="a" d="M459.915,394.353a.546.546,0,0,0-.086-.134l-3.481-3.481a.559.559,0,0,0-.773,0,.544.544,0,0,0,0,.773l2.55,2.55h-7.5a.546.546,0,0,0,0,1.093h7.5l-2.548,2.548a.546.546,0,0,0,0,.773.559.559,0,0,0,.773,0l3.479-3.48a.539.539,0,0,0,.119-.18.546.546,0,0,0,0-.42A.238.238,0,0,1,459.915,394.353Z" transform="translate(-437.988 -385.001)"/><path class="a" d="M459.946,394.815a.539.539,0,0,1-.119.18l-3.479,3.48a.559.559,0,0,1-.773,0,.546.546,0,0,1,0-.773l2.548-2.548h-7.5a.546.546,0,0,1,0-1.093h7.5l-2.55-2.55a.544.544,0,0,1,0-.773.559.559,0,0,1,.773,0l3.481,3.481a.546.546,0,0,1,.086.134.238.238,0,0,0,.03.042A.546.546,0,0,1,459.946,394.815Z" transform="translate(-437.988 -385.001)"/><path class="a" d="M452.015,397.089a.547.547,0,0,0-.546.547v4.182a1.313,1.313,0,0,1-1.311,1.311H446.99V388.576a1.72,1.72,0,0,0-1.032-1.554.71.71,0,0,1-.081-.044.272.272,0,0,0-.051-.028l-2.541-.847h6.873a1.312,1.312,0,0,1,1.311,1.311V391.6a.546.546,0,1,0,1.092,0v-4.182a2.407,2.407,0,0,0-2.4-2.405H439.713a1.606,1.606,0,0,0-.272.026l-.05.007a1.685,1.685,0,0,0-.684.3l-.121-.094.092.118a1.821,1.821,0,0,0-.236.22c-.018.021-.038.045-.057.07a1.607,1.607,0,0,0-.152.224c-.03.054-.043.075-.053.1a1.875,1.875,0,0,0-.094.249l-.016.047c-.006.02-.013.04-.018.061a1.677,1.677,0,0,0-.045.378v16.727A1.723,1.723,0,0,0,439.035,405a.538.538,0,0,1,.082.044.492.492,0,0,0,.055.03l5.584,1.861a1.733,1.733,0,0,0,.528.078,1.707,1.707,0,0,0,1.706-1.708v-1.08h3.168a2.406,2.406,0,0,0,2.4-2.4v-4.182A.548.548,0,0,0,452.015,397.089ZM445.9,405.3a.607.607,0,0,1-.07.274l-.02.032a.611.611,0,0,1-.434.293l-.09.015a.637.637,0,0,1-.2-.027l-5.564-1.855a.636.636,0,0,1-.424-.591V386.718a.614.614,0,0,1,.614-.615.658.658,0,0,1,.2.027l5.563,1.856a.642.642,0,0,1,.393.4.583.583,0,0,1,.031.19Z" transform="translate(-438.007 -385.009)"/></g><path class="b" d="M445.9,405.3a.607.607,0,0,1-.07.274l-.02.032a.611.611,0,0,1-.434.293l-.09.015a.637.637,0,0,1-.2-.027l-5.564-1.855a.636.636,0,0,1-.424-.591V386.717a.614.614,0,0,1,.614-.615.658.658,0,0,1,.2.027l5.563,1.856a.642.642,0,0,1,.393.4.583.583,0,0,1,.031.19Z"/></g></svg>