<svg xmlns="http://www.w3.org/2000/svg" width="22" height="22" viewBox="0 0 22 22"><defs><style>.a{fill:#fff;}.b{fill:#ff7756;}</style></defs><g transform="translate(2 3)"><g transform="translate(-2 -3)"><rect class="a" width="22" height="22" rx="4"/></g><g transform="translate(-5.239 -1)"><g transform="translate(5.239 0)"><g transform="translate(0 0)"><path class="b" d="M21.166,3.1A7.307,7.307,0,0,0,12.674.446,7.342,7.342,0,0,0,9.913,2.254a1.638,1.638,0,0,0-2.222-.328l-.746.521A3.391,3.391,0,0,0,5.268,4.5a2.861,2.861,0,0,0,.677,2.139l6.717,9.572a2.635,2.635,0,0,0,2.116,1.395,4.012,4.012,0,0,0,2.174-.9l.746-.521a1.63,1.63,0,0,0,.424-2.239,7.279,7.279,0,0,0,4.253-5.4A7.223,7.223,0,0,0,21.166,3.1ZM17.693,15.016a.937.937,0,0,1-.389.609l-.746.521c-1.6,1.115-2.375,1.039-3.333-.327L6.508,6.247a2.251,2.251,0,0,1-.563-1.624c.089-.5.518-1,1.394-1.612l.746-.521A.949.949,0,0,1,9.4,2.722l1.658,2.363a.416.416,0,0,1-.151.609l-1.593.817a.344.344,0,0,0-.125.5L10.43,8.786a.344.344,0,1,0,.564-.394L9.982,6.943l1.242-.638a1.1,1.1,0,0,0,.4-1.616l-.365-.52a5.013,5.013,0,1,1,5.517,7.862l-.336-.478a1.107,1.107,0,0,0-1.657-.177l-1.027.949-.987-1.385a.344.344,0,1,0-.56.4l1.214,1.7a.344.344,0,0,0,.514.053l1.314-1.214a.419.419,0,0,1,.627.067l1.658,2.363a.936.936,0,0,1,.157.7Zm4-6.59a6.634,6.634,0,0,1-3.979,4.948l-.532-.758a5.739,5.739,0,0,0,2.231-1.511,5.7,5.7,0,0,0-6.377-9.1A5.739,5.739,0,0,0,10.85,3.586l-.532-.758A6.651,6.651,0,0,1,16.338.789,6.594,6.594,0,0,1,21.7,8.426Z" transform="translate(-5.239 0)"/><path class="b" d="M199.848,180.382a.836.836,0,0,0-.629-.918c-.22-.081-.425-.169-.507-.2a.037.037,0,0,1,0-.027c0-.032.035-.059.084-.073a.547.547,0,0,1,.442.106.264.264,0,0,0,.254-.063l.068-.065a.263.263,0,0,0-.039-.412,1.189,1.189,0,0,0-.924-.223.784.784,0,0,0-.566.634.718.718,0,0,0,.32.71.334.334,0,0,0,.048.026c.011.005.282.126.587.238.118.044.2.108.19.152a.233.233,0,0,1-.24.138.574.574,0,0,1-.422-.175.344.344,0,0,0-.5-.015.358.358,0,0,0,0,.5,1.258,1.258,0,0,0,.914.382A.9.9,0,0,0,199.848,180.382Z" transform="translate(-191.288 -172.333)"/><path class="b" d="M344.259,181.006a.9.9,0,0,0,.917-.7.836.836,0,0,0-.63-.918c-.22-.081-.425-.169-.507-.2a.036.036,0,0,1,0-.027c0-.032.035-.059.084-.073a.547.547,0,0,1,.442.106.317.317,0,0,0,.354-.1l.016-.02a.316.316,0,0,0-.1-.476,1.276,1.276,0,0,0-.914-.167.784.784,0,0,0-.566.634.718.718,0,0,0,.32.71.341.341,0,0,0,.048.026c.011.005.282.126.586.238.118.044.2.108.19.152a.233.233,0,0,1-.24.138.574.574,0,0,1-.422-.175.344.344,0,0,0-.5-.015.358.358,0,0,0,0,.5A1.258,1.258,0,0,0,344.259,181.006Z" transform="translate(-331.617 -172.252)"/><path class="b" d="M262.826,180.632a1.316,1.316,0,1,0-1.316-1.316A1.317,1.317,0,0,0,262.826,180.632Zm0-1.944a.628.628,0,1,1-.628.628A.629.629,0,0,1,262.826,178.688Z" transform="translate(-252.696 -171.878)"/><path class="b" d="M181,277.176a.344.344,0,1,0-.136.424A.347.347,0,0,0,181,277.176Z" transform="translate(-174.319 -267.438)"/></g></g></g></g></svg>