<svg xmlns="http://www.w3.org/2000/svg" width="27.23" height="27.23" viewBox="0 0 27.23 27.23"><defs><style>.a{fill:#1586c7;}</style></defs><path class="a" d="M13.615,0A13.615,13.615,0,1,0,27.23,13.615,13.631,13.631,0,0,0,13.615,0Zm0,26.183A12.568,12.568,0,1,1,26.183,13.615,12.583,12.583,0,0,1,13.615,26.183Z"/><path class="a" d="M26.115,19.284H20.093v-5.76a.524.524,0,0,0-1.047,0v5.76H13.024a.524.524,0,1,0,0,1.047h6.022v6.284a.524.524,0,0,0,1.047,0V20.331h6.022a.524.524,0,0,0,0-1.047Z" transform="translate(-5.954 -6.192)"/></svg>