<svg xmlns="http://www.w3.org/2000/svg" xmlns:xlink="http://www.w3.org/1999/xlink" width="58" height="58" viewBox="0 0 58 58"><defs><style>.a{fill:url(#a);}.b{fill:#fff;}.c{filter:url(#b);}</style><linearGradient id="a" x2="1" y2="1" gradientUnits="objectBoundingBox"><stop offset="0" stop-color="#f6d465"/><stop offset="1" stop-color="#ff7a58"/></linearGradient><filter id="b" x="0" y="0" width="58" height="58" filterUnits="userSpaceOnUse"><feOffset dy="3" input="SourceAlpha"/><feGaussianBlur stdDeviation="3" result="c"/><feFlood flood-color="#fdb487" flood-opacity="0.522"/><feComposite operator="in" in2="c"/><feComposite in="SourceGraphic"/></filter></defs><g transform="translate(-84 -86)"><g class="c" transform="matrix(1, 0, 0, 1, 84, 86)"><rect class="a" width="40" height="40" rx="12" transform="translate(9 6)"/></g><g transform="translate(-279.071 -286.242)"><g transform="translate(379.071 387.242)"><path class="b" d="M397.927,387.294,384.3,394.58h-4.68a.548.548,0,0,0-.551.546v5.31a.548.548,0,0,0,.551.544H382l-.018.232a4.886,4.886,0,0,0,3.049,4.879,5.418,5.418,0,0,0,5.778-1.464l.116-.121,7.025,3.769a.553.553,0,0,0,.815-.476V387.76a.6.6,0,0,0-.234-.433A.678.678,0,0,0,397.927,387.294Zm-17.754,12.6v-4.231h3.78V399.9Zm9.575,4.291a3.932,3.932,0,0,1-2.826,1.191,3.876,3.876,0,0,1-1.464-.286,3.821,3.821,0,0,1-2.36-3.911l.02-.194,1.3.026,5.527,2.971Zm7.915,2.7-12.613-6.766v-4.669l12.613-6.78Z" transform="translate(-379.071 -387.241)"/><path class="b" d="M399.62,394.172l2.212-2.1a.524.524,0,0,0,.02-.746.54.54,0,0,0-.386-.165.52.52,0,0,0-.36.146l-2.209,2.108a.565.565,0,0,0-.17.406.458.458,0,0,0,.14.332A.673.673,0,0,0,399.62,394.172Z" transform="translate(-377.321 -386.904)"/><path class="b" d="M403.638,396.494H400.6a.528.528,0,1,0,0,1.056h3.043a.528.528,0,0,0,0-1.056Z" transform="translate(-377.258 -386.483)"/><path class="b" d="M401.832,402.074l-2.208-2.1a.521.521,0,0,0-.363-.148h-.011a.529.529,0,0,0-.372.164.525.525,0,0,0,.018.748l2.209,2.1a.679.679,0,0,0,.751-.023.505.505,0,0,0,.146-.365.534.534,0,0,0-.168-.378Z" transform="translate(-377.321 -386.157)"/></g></g></g></svg>