<svg xmlns="http://www.w3.org/2000/svg" xmlns:xlink="http://www.w3.org/1999/xlink" width="65" height="65" viewBox="0 0 65 65"><defs><style>.a{stroke:#90bfff;fill:url(#a);}.b{fill:url(#b);}.c{clip-path:url(#c);}.d{fill:#70b9b8;}.e{fill:#5eb89e;}.f,.h{fill:#fff;}.g{fill:url(#d);}.h,.i{stroke:#028b98;stroke-width:0.3px;}.i{fill:#028b98;}</style><linearGradient id="a" x1="0.187" y1="0.802" x2="0.879" y2="0.253" gradientUnits="objectBoundingBox"><stop offset="0" stop-color="#81b6ff"/><stop offset="1" stop-color="#a997ff"/></linearGradient><linearGradient id="b" x1="0.187" y1="0.802" x2="0.879" y2="0.253" gradientUnits="objectBoundingBox"><stop offset="0" stop-color="#7ac1c7"/><stop offset="1" stop-color="#89ceb5"/></linearGradient><clipPath id="c"><circle class="a" cx="32.5" cy="32.5" r="32.5"/></clipPath><linearGradient id="d" x1="0.5" x2="0.5" y2="1" gradientUnits="objectBoundingBox"><stop offset="0" stop-color="#038d9c"/><stop offset="1" stop-color="#025428"/></linearGradient></defs><g transform="translate(-41 -91)"><g transform="translate(-1611 -1824)"><circle class="b" cx="32.5" cy="32.5" r="32.5" transform="translate(1652 1915)"/><g class="c" transform="translate(1652 1915)"><path class="d" d="M20,40A20.005,20.005,0,0,1,12.215,1.572a20.005,20.005,0,0,1,15.57,36.857A19.875,19.875,0,0,1,20,40ZM20,8.571A11.429,11.429,0,1,0,31.429,20,11.442,11.442,0,0,0,20,8.571Z" transform="translate(-11 -7)"/><path class="e" d="M38,42H6a6.007,6.007,0,0,1-6-6V6A6.007,6.007,0,0,1,6,0H38a6.007,6.007,0,0,1,6,6V36A6.007,6.007,0,0,1,38,42ZM11.656,8.542a3,3,0,0,0-3,3V30.458a3,3,0,0,0,3,3H32.344a3,3,0,0,0,3-3V11.543a3,3,0,0,0-3-3Z" transform="translate(27 36)"/></g></g><g transform="translate(52.219 102.219)"><path class="f" d="M33,184H15a5,5,0,0,0-5,5v12.833a5,5,0,0,0,5,5h5.415l-.075.007L24,210.5l0-3.667h9a5,5,0,0,0,5-5V189A5,5,0,0,0,33,184Z" transform="translate(-9.219 -168.719)"/><path class="g" d="M219.388,10h-2.109A11.279,11.279,0,0,0,206,21.279h0a11.279,11.279,0,0,0,11.279,11.279h2.109a11.276,11.276,0,0,0,3.317-.5l3.462,3.46V30.294a11.261,11.261,0,0,0,4.5-9.015h0A11.279,11.279,0,0,0,219.388,10Z" transform="translate(-188.885 -9.219)"/><path class="h" d="M317.99,79.789a.833.833,0,0,1-.833-.833v-2a1.577,1.577,0,0,1,1.242-1.546,1.862,1.862,0,1,0-2.271-1.817.833.833,0,1,1-1.667,0,3.54,3.54,0,0,1,1.121-2.579,3.5,3.5,0,0,1,2.655-.94,3.529,3.529,0,0,1,.585,6.948v1.936A.833.833,0,0,1,317.99,79.789Z" transform="translate(-288.309 -64.277)"/><path class="h" d="M347.633,208a.832.832,0,1,1,.589-.243A.839.839,0,0,1,347.633,208Z" transform="translate(-317.952 -189.188)"/><path class="i" d="M72.417,311.667H54.833a.833.833,0,1,1,0-1.667H72.417a.833.833,0,1,1,0,1.667Z" transform="translate(-49.552 -284.219)"/><path class="i" d="M265.833,367.667a.834.834,0,1,1,.589-.244A.84.84,0,0,1,265.833,367.667Z" transform="translate(-242.969 -335.552)"/><path class="i" d="M69.139,367.667H54.833a.833.833,0,0,1,0-1.667H69.139a.833.833,0,0,1,0,1.667Z" transform="translate(-49.552 -335.552)"/><path class="i" d="M67,255.667H54.833a.833.833,0,1,1,0-1.667H67a.833.833,0,1,1,0,1.667Z" transform="translate(-49.552 -232.885)"/></g></g></svg>