<svg xmlns="http://www.w3.org/2000/svg" width="14.013" height="14.051" viewBox="0 0 14.013 14.051"><defs><style>.a{fill:#333;}</style></defs><g transform="translate(-0.08 -0.001)"><path class="a" d="M28.7,18.536H26.975a.965.965,0,0,0-.691-.691V15.395a.242.242,0,0,0-.483,0v2.451a.964.964,0,1,0,1.174,1.174H28.7a.242.242,0,0,0,0-.483Zm-2.658.725a.483.483,0,1,1,.483-.483A.484.484,0,0,1,26.043,19.261Z" transform="translate(-18.956 -11.491)"/><path class="a" d="M12.187,2.36l.99.99a.242.242,0,0,0,.342,0A1.962,1.962,0,1,0,10.744.574a.242.242,0,0,0,0,.342l1.1,1.1-.411.411a6.508,6.508,0,0,0-8.7,0l-.411-.411,1.1-1.1a.242.242,0,0,0,0-.342A1.962,1.962,0,0,0,.654,3.349a.242.242,0,0,0,.342,0l.99-.99.4.4A6.513,6.513,0,0,0,3.781,12.908l-.732.732a.242.242,0,1,0,.342.342l.834-.834a6.509,6.509,0,0,0,5.723,0l.834.834a.242.242,0,0,0,.342-.342l-.732-.732A6.513,6.513,0,0,0,11.782,2.765ZM13.177.916a1.482,1.482,0,0,1,.157,1.907L11.27.759A1.481,1.481,0,0,1,13.177.916ZM.839,2.823A1.479,1.479,0,0,1,2.9.759Zm6.248,10.5a6.041,6.041,0,1,1,6.041-6.041A6.048,6.048,0,0,1,7.086,13.327Z" transform="translate(0 0)"/><path class="a" d="M28.318,7.757a.242.242,0,0,0,.242-.242V7.274a.242.242,0,0,0-.483,0v.242A.242.242,0,0,0,28.318,7.757Z" transform="translate(-21.231 -5.332)"/><path class="a" d="M28.318,50.032a.242.242,0,0,0-.242.242v.242a.242.242,0,0,0,.483,0v-.242A.241.241,0,0,0,28.318,50.032Z" transform="translate(-21.231 -37.942)"/><path class="a" d="M49.318,29.515h.242a.242.242,0,0,0,0-.483h-.242a.242.242,0,0,0,0,.483Z" transform="translate(-37.157 -22.017)"/><path class="a" d="M6.559,29.032H6.318a.242.242,0,0,0,0,.483h.242a.242.242,0,0,0,0-.483Z" transform="translate(-4.547 -22.017)"/><path class="a" d="M43.167,13.546,43,13.716a.242.242,0,1,0,.342.342l.171-.171a.242.242,0,1,0-.342-.342Z" transform="translate(-32.493 -10.218)"/><path class="a" d="M12.761,43.952l-.171.171a.242.242,0,1,0,.342.342l.171-.171a.242.242,0,1,0-.342-.342Z" transform="translate(-9.434 -33.278)"/><path class="a" d="M43.338,43.952a.242.242,0,0,0-.342.342l.171.171a.242.242,0,1,0,.342-.342Z" transform="translate(-32.493 -33.277)"/><path class="a" d="M12.932,13.546a.242.242,0,1,0-.342.342l.171.171a.242.242,0,0,0,.342-.342Z" transform="translate(-9.434 -10.218)"/></g></svg>