<svg xmlns="http://www.w3.org/2000/svg" xmlns:xlink="http://www.w3.org/1999/xlink" width="81.646" height="81.646" viewBox="0 0 81.646 81.646"><defs><style>.a{fill:#fff;}.b{fill:#ffc10d;}.c{fill:#194f82;}.d{filter:url(#a);}</style><filter id="a" x="0" y="0" width="81.646" height="81.646" filterUnits="userSpaceOnUse"><feOffset dy="5" input="SourceAlpha"/><feGaussianBlur stdDeviation="2" result="b"/><feFlood flood-opacity="0.031"/><feComposite operator="in" in2="b"/><feComposite in="SourceGraphic"/></filter></defs><g transform="translate(-20 -541)"><g class="d" transform="matrix(1, 0, 0, 1, 20, 541)"><circle class="a" cx="34.823" cy="34.823" r="34.823" transform="translate(6 1)"/></g><g transform="translate(43 559)"><path class="a" d="M99.473,21.786H74.415a1,1,0,0,0-1.007,1.007V52.4a3.511,3.511,0,0,1-.357,1.537H98.937a1.541,1.541,0,0,0,1.537-1.537V22.793A1,1,0,0,0,99.473,21.786Z" transform="translate(-66.32 -19.779)"/><path class="b" d="M99.787,71.769h21.038a1,1,0,0,0,1.007-1.007V44.644a1,1,0,0,0-1.007-1.007H99.787a1,1,0,0,0-1.007,1.007V70.768A1.016,1.016,0,0,0,99.787,71.769Z" transform="translate(-89.679 -39.616)"/><path class="c" d="M129.684,153.028H110.648a1.007,1.007,0,0,1,0-2.013h19.037a1.007,1.007,0,0,1,0,2.013Z" transform="translate(-99.539 -137.101)"/><path class="c" d="M129.684,204.939H110.648a1.007,1.007,0,1,1,0-2.013h19.037a1.007,1.007,0,0,1,0,2.013Z" transform="translate(-99.539 -184.229)"/><path class="c" d="M129.684,256.85H110.648a1.007,1.007,0,0,1,0-2.013h19.037a1.007,1.007,0,0,1,0,2.013Z" transform="translate(-99.539 -231.357)"/><path class="c" d="M129.684,308.826H110.648a1.007,1.007,0,1,1,0-2.013h19.037a1.007,1.007,0,1,1,0,2.013Z" transform="translate(-99.539 -278.544)"/><path class="c" d="M33.153,0H8.095A3.017,3.017,0,0,0,5.081,3.014V32.623a1.537,1.537,0,1,1-3.074,0v-17.1a1,1,0,1,0-2.007,0v17.1a3.545,3.545,0,0,0,3.544,3.544H32.623a3.545,3.545,0,0,0,3.544-3.544V3.014A3.018,3.018,0,0,0,33.153,0ZM34.16,32.623a1.541,1.541,0,0,1-1.537,1.537H6.737a3.51,3.51,0,0,0,.357-1.537V3.014A1,1,0,0,1,8.1,2.007H33.153A1,1,0,0,1,34.16,3.014V32.623Z"/><path class="c" d="M123.5,64.289h1.459V66.6c0,.649-.405.721-.56.721a1.281,1.281,0,0,1-.935-.477l-.572.792a2.107,2.107,0,0,0,1.555.685,1.545,1.545,0,0,0,1.626-1.751V63.354h-2.561V64.3H123.5Z" transform="translate(-111.57 -57.517)"/><path class="c" d="M236.111,65.654a1.069,1.069,0,0,0,.727-1.06c0-1.3-1.412-1.3-1.739-1.3H233.18v4.92h2.156c.679,0,1.727-.161,1.775-1.364A1.165,1.165,0,0,0,236.111,65.654Zm-1.835-1.441h.524a1.593,1.593,0,0,1,.691.107.443.443,0,0,1,.208.435.416.416,0,0,1-.22.429,1.779,1.779,0,0,1-.685.1h-.518V64.212Zm1.459,2.948a1.655,1.655,0,0,1-.7.113h-.756V66.142h.649a2.181,2.181,0,0,1,.8.107.427.427,0,0,1,.25.447A.435.435,0,0,1,235.735,67.161Z" transform="translate(-211.695 -57.458)"/><path class="c" d="M169.566,62.061a2.544,2.544,0,1,0,2.585,2.543A2.518,2.518,0,0,0,169.566,62.061Zm1.459,2.537a1.465,1.465,0,1,1-2.919,0h.006a1.465,1.465,0,1,1,2.919,0Z" transform="translate(-151.596 -56.343)"/><path class="c" d="M284.69,64.216c-.453-.137-1.09-.214-1.09-.643,0-.143.107-.477.59-.477a2.169,2.169,0,0,1,1.322.482l.554-.8a3.017,3.017,0,0,0-1.852-.649c-.506,0-1.763.191-1.763,1.465,0,1.3,1.2,1.358,1.662,1.567.34.149.911.149.911.619,0,.429-.447.482-.649.482a2.337,2.337,0,0,1-1.471-.7l-.655.8a3.043,3.043,0,0,0,2.109.87c.542,0,1.811-.244,1.811-1.489C286.167,64.579,285.149,64.359,284.69,64.216Z" transform="translate(-256.242 -56.401)"/></g></g></svg>