<svg id="Layer_1" data-name="Layer 1" xmlns="http://www.w3.org/2000/svg" viewBox="0 0 1300.13 1408"><defs><style>.cls-1{fill:#ef001d;}</style></defs><title>asterisk</title><path class="cls-1" d="M832,1600c-17.39,0-31.61-6.12-44.75-19.25S768,1553.39,768,1536V1118.36L406.27,1326.42c-10.26,5.77-20.76,8.69-31.21,8.69a72.32,72.32,0,0,1-18.33-2.52c-17.28-4.53-29.36-13.77-38-29.08l-.31-.54-63.88-109.79c-8.87-15.84-10.81-31.56-6.12-49.45,4.53-17.28,13.77-29.36,29.08-38L639.74,896,277.53,686.31c-15.34-8.67-24.59-20.76-29.12-38-4.69-17.9-2.74-33.64,6.15-49.51l64-109.95.15-.27c8.67-15.35,20.76-24.6,38-29.13a72.32,72.32,0,0,1,18.33-2.52c10.6,0,20.83,2.86,31.29,8.74L768,673.64V256c0-17.39,6.12-31.61,19.25-44.74S814.61,192,832,192H960c17.39,0,31.61,6.12,44.74,19.25S1024,238.61,1024,256V673.64l361.72-208c10.26-5.78,20.77-8.7,31.22-8.7a72.46,72.46,0,0,1,18.34,2.52c17.27,4.53,29.35,13.77,38,29.08l.31.54,63.87,109.77c8.88,15.85,10.82,31.57,6.13,49.47-4.53,17.28-13.77,29.36-29.08,38L1152.26,896l362.21,209.7c15.34,8.66,24.59,20.75,29.12,38,4.69,17.89,2.74,33.63-6.14,49.49l-64,110-.15.27c-8.67,15.35-20.76,24.6-38,29.13a72.32,72.32,0,0,1-18.33,2.52c-10.6,0-20.83-2.86-31.29-8.74l-361.65-208V1536c0,17.39-6.12,31.61-19.25,44.74S977.39,1600,960,1600Z" transform="translate(-245.93 -192)"/></svg>