<svg xmlns="http://www.w3.org/2000/svg" width="29.538" height="31.335" viewBox="0 0 29.538 31.335">
  <g id="Group_2581" data-name="Group 2581" transform="translate(-14.376)">
    <path id="Path_9935" data-name="Path 9935" d="M261.909,37.163h-3.02v-3.02l1.51,1.51Z" transform="translate(-229.255 -32.012)" fill="#fff"/>
    <path id="Path_9936" data-name="Path 9936" d="M52.289,43.494v1.957H34.371V20H47.137v4.527a.624.624,0,0,0,.624.624h4.527v5.971h0a6.635,6.635,0,1,0,0,12.369Z" transform="translate(-18.752 -18.752)" fill="#fff"/>
    <path id="Path_9937" data-name="Path 9937" d="M204.893,220.935l-.161.1a5.386,5.386,0,1,1,1.845-1.782,5.446,5.446,0,0,1-1.684,1.682Z" transform="translate(-170.886 -197.822)" fill="#dcf8ff"/>
    <g id="Group_2873" data-name="Group 2873" transform="translate(14.371)">
      <g id="Group_2872" data-name="Group 2872">
        <path id="Path_9938" data-name="Path 9938" d="M43.341,28,37,21.66a6.635,6.635,0,0,0-2.214-8.643V5.776a.624.624,0,0,0-.183-.441L29.451.183A.624.624,0,0,0,29.01,0H15a.624.624,0,0,0-.624.624v26.7a.624.624,0,0,0,.624.624H34.161a.624.624,0,0,0,.624-.624V24.969l5.794,5.794A1.953,1.953,0,0,0,43.341,28ZM32.654,5.152h-3.02V2.131l1.51,1.51Zm.883,19.59V26.7H15.619V1.248H28.385V5.776a.624.624,0,0,0,.624.624h4.527v5.971h0a6.635,6.635,0,1,0,0,12.369Zm.47-1.628-.161.1a5.386,5.386,0,1,1,1.845-1.782A5.446,5.446,0,0,1,34.007,23.114Zm8.451,6.767a.7.7,0,0,1-1,0L35.3,23.719h0a6.735,6.735,0,0,0,1-1h0l6.161,6.161a.7.7,0,0,1,0,1Z" transform="translate(-14.371)" fill="#0ea2c8"/>
        <path id="Path_9939" data-name="Path 9939" d="M215.932,237.016a4.285,4.285,0,0,0-2.058,3.675.624.624,0,0,0,1.248,0,3.045,3.045,0,0,1,1.462-2.612.624.624,0,0,0-.653-1.064Z" transform="translate(-201.421 -222.135)" fill="#0ea2c8"/>
        <path id="Path_9940" data-name="Path 9940" d="M275.722,228.818a4.308,4.308,0,0,0-2.171-.586.624.624,0,1,0,0,1.248,3.058,3.058,0,0,1,1.541.416.624.624,0,1,0,.63-1.078Z" transform="translate(-256.788 -213.986)" fill="#0ea2c8"/>
      </g>
    </g>
    <path id="Path_9941" data-name="Path 9941" d="M356.828,371.187a.7.7,0,0,1-1,0l-6.161-6.161h0a6.739,6.739,0,0,0,1-1h0l6.161,6.161a.7.7,0,0,1,0,1Z" transform="translate(-314.37 -341.306)" fill="#dcf8ff"/>
  </g>
</svg>
