<svg xmlns="http://www.w3.org/2000/svg" width="22.09" height="22.648" viewBox="0 0 22.09 22.648"><defs><style>.a{fill:#fff;}.b{fill:#ffc03f;}.c{fill:#2c2f33;}</style></defs><g transform="translate(-34.75 -179.75)"><g transform="translate(34.75 179.75)"><path class="a" d="M27.917,29.474c.087-.119.26-.337.26-.337a27.378,27.378,0,0,0,2.178-2.694,6.889,6.889,0,0,0-.5-.881c-.108-.152-.338-.444-.338-.444a30.744,30.744,0,0,1-5.357-7.474,30.842,30.842,0,0,1-5.381,7.5s-.211.269-.314.414a6.989,6.989,0,0,0-1.217,4.685,6.948,6.948,0,0,0,10.429,5.289A5.637,5.637,0,0,1,27.917,29.474Zm-4.03,5a1.662,1.662,0,0,1-1.045.341,2.555,2.555,0,0,1-.993-.215c-5.294-2.691-2.729-7.9-2.7-7.956a.444.444,0,0,1,.48-.23.438.438,0,0,1,.347.4,5.9,5.9,0,0,0,3.145,4.71A1.923,1.923,0,0,1,24.449,33,1.551,1.551,0,0,1,23.887,34.47Z" transform="translate(-16.089 -15.703)"/><path class="b" d="M22.374,30.161a6.69,6.69,0,0,1-3.354-3.8,4.624,4.624,0,0,0,2.767,5.265,1.134,1.134,0,0,0,1.129-.022.671.671,0,0,0,.24-.644A1.093,1.093,0,0,0,22.374,30.161Z" transform="translate(-15.66 -13.524)"/><path class="c" d="M22.86,29.772a5.9,5.9,0,0,1-3.145-4.71.438.438,0,0,0-.347-.4.444.444,0,0,0-.48.23c-.026.052-2.591,5.265,2.7,7.956a2.555,2.555,0,0,0,.993.215,1.662,1.662,0,0,0,1.045-.341,1.551,1.551,0,0,0,.562-1.471A1.923,1.923,0,0,0,22.86,29.772Zm.228,2.258a1.134,1.134,0,0,1-1.129.022,4.624,4.624,0,0,1-2.768-5.265,6.69,6.69,0,0,0,3.354,3.8,1.093,1.093,0,0,1,.783.8A.671.671,0,0,1,23.088,32.03Z" transform="translate(-15.831 -13.952)"/><path class="a" d="M34.3,28.785l-.1-.141c-.044-.064-.121-.161-.174-.229l-.1-.131a22.214,22.214,0,0,1-3.27-4.46,5.32,5.32,0,0,1-.261-.546,19.308,19.308,0,0,1-3.6,5.1l-.211.276a4.638,4.638,0,0,0,3.286,7.261,4.733,4.733,0,0,0,.549.03,4.562,4.562,0,0,0,3.07-1.182A4.644,4.644,0,0,0,34.3,28.785Zm-3.9,6a1.231,1.231,0,0,1-.774.255,1.806,1.806,0,0,1-.7-.153,3.86,3.86,0,0,1-1.83-5.369.438.438,0,0,1,.827.173,3.712,3.712,0,0,0,1.944,2.92,1.411,1.411,0,0,1,.956,1.074A1.165,1.165,0,0,1,30.4,34.784Z" transform="translate(-13.952 -14.295)"/><path class="c" d="M37.388,29.868l-.2-.283-.107-.106A21.939,21.939,0,0,1,33.9,25.138a4.726,4.726,0,0,1-.354-.835.815.815,0,0,0-1.56,0,7.528,7.528,0,0,1-.715,1.478c-.054-.09-.089-.186-.146-.274h.006l-.137-.2c-.123-.173-.379-.5-.405-.526-4.324-4.756-5.394-7.521-5.62-8.255a.611.611,0,0,0-.76-.409.6.6,0,0,0-.41.409c-.226.735-1.3,3.505-5.644,8.283,0,0-.261.327-.381.5A8.065,8.065,0,0,0,23.463,37.94a7.22,7.22,0,0,0,.952.05,7.938,7.938,0,0,0,4.135-1.16,5.554,5.554,0,0,0,.974.887,5.63,5.63,0,0,0,2.6.985c.221.025.442.028.662.037a5.564,5.564,0,0,0,3.738-1.44A5.642,5.642,0,0,0,37.388,29.868ZM24,36.866a6.945,6.945,0,0,1-6.53-6.234,6.989,6.989,0,0,1,1.217-4.685c.1-.145.315-.414.314-.414a30.842,30.842,0,0,0,5.381-7.5,30.744,30.744,0,0,0,5.357,7.474s.23.291.338.444a6.889,6.889,0,0,1,.5.881A27.378,27.378,0,0,1,28.4,29.525s-.173.219-.26.337a5.637,5.637,0,0,0-.245,6.059A6.908,6.908,0,0,1,24,36.866Zm11.86-.31a4.562,4.562,0,0,1-3.07,1.182,4.733,4.733,0,0,1-.549-.03,4.638,4.638,0,0,1-3.286-7.261l.211-.276a19.308,19.308,0,0,0,3.6-5.1,5.32,5.32,0,0,0,.261.546,22.213,22.213,0,0,0,3.27,4.46l.1.131c.053.067.13.165.174.229l.1.141A4.644,4.644,0,0,1,35.857,36.556Z" transform="translate(-16.313 -16.091)"/><path class="b" d="M29.2,31.8a4.357,4.357,0,0,1-2.024-2.007,2.847,2.847,0,0,0,1.766,2.675.59.59,0,0,0,.566,0,.281.281,0,0,0,.1-.272A.56.56,0,0,0,29.2,31.8Z" transform="translate(-13.598 -12.667)"/><path class="c" d="M29.689,31.41a3.712,3.712,0,0,1-1.944-2.92.438.438,0,0,0-.827-.173,3.86,3.86,0,0,0,1.83,5.369,1.806,1.806,0,0,0,.7.153,1.231,1.231,0,0,0,.774-.255,1.165,1.165,0,0,0,.421-1.1A1.411,1.411,0,0,0,29.689,31.41ZM29.683,32.9a.59.59,0,0,1-.566,0,2.847,2.847,0,0,1-1.766-2.675,4.357,4.357,0,0,0,2.024,2.008.56.56,0,0,1,.408.4A.281.281,0,0,1,29.683,32.9Z" transform="translate(-13.774 -13.095)"/></g></g></svg>