<svg xmlns="http://www.w3.org/2000/svg" width="15.299" height="18.438" viewBox="0 0 15.299 18.438"><g transform="translate(-38.8)"><path d="M179.894,4.479a1.83,1.83,0,0,0,1.34-.575,1.955,1.955,0,0,0,0-2.713L180.188.124a.419.419,0,0,0-.6,0L178.546,1.2a1.953,1.953,0,0,0,0,2.709A1.878,1.878,0,0,0,179.894,4.479Zm-.749-2.709.749-.765.745.761a1.124,1.124,0,0,1,0,1.563,1.029,1.029,0,0,1-1.489,0h0A1.123,1.123,0,0,1,179.146,1.77Z" transform="translate(-133.443)"/><path d="M52.052,114.429H48.52v-2.68a1.241,1.241,0,0,0-1.228-1.249H45.612a1.238,1.238,0,0,0-1.228,1.249v2.68H40.852a2.064,2.064,0,0,0-2.051,2.076v4.756a.394.394,0,0,0,.4.405h.467l.4,1.3a2.066,2.066,0,0,0,1.977,1.468h8.822a2.079,2.079,0,0,0,1.977-1.468l.4-1.3H53.7a.394.394,0,0,0,.4-.405v-4.756A2.058,2.058,0,0,0,52.052,114.429Zm-6.841-2.68a.412.412,0,0,1,.4-.422h1.679a.412.412,0,0,1,.4.422v2.68H45.211Zm-4.359,3.507h11.2a1.235,1.235,0,0,1,1.224,1.249v2.258a3.351,3.351,0,0,1-1.22-.36,4.579,4.579,0,0,0-3.962,0,3.77,3.77,0,0,1-3.284,0,4.579,4.579,0,0,0-3.962,0,3.351,3.351,0,0,1-1.22.36v-2.258A1.241,1.241,0,0,1,40.852,115.257Zm-1.224,5.584v-1.249a4.307,4.307,0,0,0,1.563-.434,3.752,3.752,0,0,1,3.276,0,4.6,4.6,0,0,0,3.971,0,3.345,3.345,0,0,1,1.642-.376,3.309,3.309,0,0,1,1.634.376,4.225,4.225,0,0,0,1.563.434v1.249Zm12.421,1.882a1.25,1.25,0,0,1-1.187.889H42.039a1.252,1.252,0,0,1-1.187-.889l-.323-1.055H52.366Z" transform="translate(0 -106)"/></g></svg>