<svg xmlns="http://www.w3.org/2000/svg" xmlns:xlink="http://www.w3.org/1999/xlink" width="46.819" height="46.819" viewBox="0 0 46.819 46.819"><defs><style>.a{fill:#ffe6f1;}.b{fill:url(#a);}.c{fill:url(#b);}.d{fill:#fff9f0;}.e{fill:#fff;}.f{filter:url(#c);}</style><linearGradient id="a" x1="0.132" y1="0.172" x2="0.877" y2="0.885" gradientUnits="objectBoundingBox"><stop offset="0" stop-color="#f81"/><stop offset="1" stop-color="#ff61c0"/></linearGradient><linearGradient id="b" x1="0.5" x2="0.5" y2="1" gradientUnits="objectBoundingBox"><stop offset="0" stop-color="#ffecf2"/><stop offset="1" stop-color="#ff8eb7"/></linearGradient><filter id="c" x="12.555" y="13.637" width="21.709" height="21.408" filterUnits="userSpaceOnUse"><feOffset dy="1" input="SourceAlpha"/><feGaussianBlur stdDeviation="1" result="d"/><feFlood flood-color="#6c0170" flood-opacity="0.161"/><feComposite operator="in" in2="d"/><feComposite in="SourceGraphic"/></filter></defs><g transform="translate(-9 -89)"><rect class="a" width="46.819" height="46.819" rx="16" transform="translate(9 89)"/><g transform="translate(15.884 100.186)"><rect class="b" width="32.698" height="24.954" rx="12.477" transform="translate(0)"/></g><g transform="translate(24.555 104.637)"><g class="f" transform="matrix(1, 0, 0, 1, -15.55, -15.64)"><path class="c" d="M7.855,15.408H4.6L0,10.9V4.513L4.6,0h6.507l4.6,4.513V10.9l-4.6,4.513Z" transform="translate(15.55 15.64)"/></g><path class="d" d="M3.285,4.49l-.073-.156V4.49L1.276,6.426,0,5.149,1.936,3.212,0,1.276,1.276,0,3.212,1.937v.156l.073-.156L5.222,0,6.5,1.276,4.563,3.212,6.5,5.149,5.222,6.426Z" transform="translate(4.602 4.491)"/><path class="e" d="M6.651,12.7l-.3-.227V12.7H3.719L0,8.979V3.72L3.719,0h2.63V.226L6.651,0h2.63L13,3.72v5.26L9.281,12.7ZM.9,4.093V8.606L4.093,11.8H6.349v.227l.3-.227H8.907L12.1,8.606V4.093L8.907.9H6.651l-.3-.227V.9H4.093Z" transform="translate(1.355 1.355)"/></g></g></svg>