<svg xmlns="http://www.w3.org/2000/svg" width="13.512" height="13.512" viewBox="0 0 13.512 13.512"><defs><style>.a{fill:#0051bc;}</style></defs><g transform="translate(0)"><path class="a" d="M13.116,6.387h-.609a1.573,1.573,0,0,0,.213-.792V4.407a.4.4,0,0,0-.4-.4h-.75A2.8,2.8,0,0,1,12.9,2.357a.4.4,0,0,0-.364-.7,3.913,3.913,0,0,0-1.006.8V1.214a.4.4,0,0,0-.792,0v1.24a3.913,3.913,0,0,0-1.006-.8.4.4,0,0,0-.363.7A2.767,2.767,0,0,1,10.7,4.011h-.75a.4.4,0,0,0-.4.4V5.595a1.573,1.573,0,0,0,.213.792H6.209l-.4-.792H7.574a.4.4,0,0,0,.4-.4V.4a.4.4,0,0,0-.4-.4H1.188a.4.4,0,0,0-.4.4V5.2a.4.4,0,0,0,.4.4H2.949l-.4.792H.4a.4.4,0,1,0,0,.792h.4v5.938a.4.4,0,1,0,.792,0V11.929H7.178v1.188a.4.4,0,0,0,.4.4h4.75a.4.4,0,0,0,.4-.4V7.178h.4a.4.4,0,1,0,0-.792Zm-2.771-.792V4.8h1.583v.792a.792.792,0,1,1-1.583,0ZM1.583.792H7.178V4.8H1.583Zm2.25,4.8H4.928l.4.792H3.438Zm-2.25,5.542V7.178H7.178v3.959Zm6.387-.792h3.959v2.375H7.97Zm3.959-.792H7.97V7.178h3.959Z" transform="translate(0)"/><circle class="a" cx="0.507" cy="0.507" r="0.507" transform="translate(9.796 7.77)"/><circle class="a" cx="0.507" cy="0.507" r="0.507" transform="translate(9.796 10.81)"/></g></svg>