<svg xmlns="http://www.w3.org/2000/svg" xmlns:xlink="http://www.w3.org/1999/xlink" width="176" height="95" viewBox="0 0 176 95"><defs><style>.a{fill:#d5f1f8;}.b{fill:#27e2c6;}.c{clip-path:url(#a);}.d{fill:url(#b);}.e{clip-path:url(#c);}.f,.g,.h,.l{fill:none;}.f,.g,.h{stroke:#fff;}.f{stroke-width:50px;opacity:0.04;}.g,.h{stroke-width:30px;}.g{opacity:0.16;}.h{opacity:0.08;}.i{opacity:0.41;}.i,.j{fill:url(#d);}.j{opacity:0.39;}.k{stroke:none;}</style><clipPath id="a"><rect class="a" width="176" height="95" rx="5"/></clipPath><linearGradient id="b" x1="0.016" y1="0.938" x2="1" y2="0.931" gradientUnits="objectBoundingBox"><stop offset="0" stop-color="#8066ff"/><stop offset="1" stop-color="#607bfd"/></linearGradient><clipPath id="c"><rect class="b" width="355" height="160" rx="6" transform="translate(0 0)"/></clipPath><linearGradient id="d" x1="0.452" y1="-0.974" x2="0.494" y2="1.012" gradientUnits="objectBoundingBox"><stop offset="0" stop-color="#fff"/><stop offset="1" stop-color="#fff" stop-opacity="0"/></linearGradient></defs><g class="c"><g transform="translate(-12 -97)"><path class="d" d="M5.839,0H349.161A6,6,0,0,1,355,6.154V153.846A6,6,0,0,1,349.161,160H5.839A6,6,0,0,1,0,153.846V6.154A6,6,0,0,1,5.839,0Z" transform="translate(9 83)"/><g class="e" transform="translate(9 83)"><g class="f" transform="translate(249.703 -57.219)"><ellipse class="k" cx="77.218" cy="81.589" rx="77.218" ry="81.589"/><ellipse class="l" cx="77.218" cy="81.589" rx="52.218" ry="56.589"/></g><g class="g" transform="translate(-59.167 93.245)"><ellipse class="k" cx="75.713" cy="79.47" rx="75.713" ry="79.47"/><ellipse class="l" cx="75.713" cy="79.47" rx="60.713" ry="64.47"/></g><g class="h" transform="translate(-117.331 31.788)"><ellipse class="k" cx="134.379" cy="141.457" rx="134.379" ry="141.457"/><ellipse class="l" cx="134.379" cy="141.457" rx="119.379" ry="126.457"/></g><path class="i" d="M191.49.254l177.98,247.4L.341,257.118Z" transform="matrix(0.574, -0.819, 0.819, 0.574, -66.66, 147.224)"/><path class="j" d="M191.561.251,369.793,247.489.336,256.823Z" transform="matrix(0.559, -0.829, 0.829, 0.559, 29.397, 91.643)"/></g></g></g></svg>