<svg xmlns="http://www.w3.org/2000/svg" width="98" height="98" viewBox="0 0 98 98"><defs><style>.a{fill:#019b8f;opacity:0.14;}.b{fill:#02afa1;opacity:0.53;}.c{fill:#fff;}.d{fill:#ffc03f;}.e{fill:#f5f4f9;}.f,.g{fill:#2c2f33;}.g{stroke:#2c2f33;stroke-width:0.4px;}</style></defs><g transform="translate(-17.333 -162.333)"><circle class="a" cx="49" cy="49" r="49" transform="translate(17.333 162.333)"/><circle class="b" cx="38" cy="38" r="38" transform="translate(28.333 173.333)"/><circle class="c" cx="31" cy="31" r="31" transform="translate(35.333 180.333)"/><g transform="translate(44.333 191.333)"><path class="d" d="M95.37,92.369V88.716a.748.748,0,0,0-.543-.72l-3.78-1.076A15.066,15.066,0,0,0,89.3,82.7l1.912-3.434a.749.749,0,0,0-.125-.893L88.5,75.787a.748.748,0,0,0-.893-.125l-3.434,1.912a15.065,15.065,0,0,0-4.222-1.749l-1.077-3.78a.748.748,0,0,0-.72-.543H74.5a.749.749,0,0,0-.72.543l-1.077,3.78a15.065,15.065,0,0,0-4.222,1.749l-3.434-1.912a.748.748,0,0,0-.893.125L61.573,78.37a.748.748,0,0,0-.125.893L63.36,82.7A15.065,15.065,0,0,0,61.61,86.92L57.83,88a.748.748,0,0,0-.543.72v3.653a.749.749,0,0,0,.543.72l3.78,1.076a15.065,15.065,0,0,0,1.749,4.222l-1.912,3.434a.748.748,0,0,0,.125.893l2.583,2.583a.748.748,0,0,0,.893.125l3.434-1.912a15.066,15.066,0,0,0,4.222,1.749l1.077,3.78a.748.748,0,0,0,.72.543h3.653a.748.748,0,0,0,.72-.543l1.077-3.78a15.066,15.066,0,0,0,4.222-1.749l3.434,1.912a.749.749,0,0,0,.893-.125l2.583-2.583a.748.748,0,0,0,.125-.893L89.3,98.388a15.066,15.066,0,0,0,1.749-4.222l3.78-1.077a.748.748,0,0,0,.544-.72Z" transform="translate(-54.381 -71.013)"/><circle class="d" cx="9.179" cy="9.179" r="9.179" transform="translate(12.768 10.351)"/><circle class="e" cx="7.557" cy="7.557" r="7.557" transform="translate(14.391 11.973)"/><path class="f" d="M142.2,273.9a11.927,11.927,0,0,1-11.913-11.913.488.488,0,1,1,.977,0A10.949,10.949,0,0,0,142.2,272.925a.488.488,0,0,1,0,.977Z" transform="translate(-120.253 -242.459)"/><path class="f" d="M259.2,156.9a.488.488,0,0,1-.488-.488,10.949,10.949,0,0,0-10.937-10.937.488.488,0,0,1,0-.977,11.927,11.927,0,0,1,11.913,11.913A.488.488,0,0,1,259.2,156.9Z" transform="translate(-225.828 -136.883)"/><g transform="translate(0.488 0.553)"><path class="f" d="M214.2,254.132a.682.682,0,0,1-.484-.2l-1.648-1.648a.685.685,0,0,1,0-.968l1.648-1.648a.685.685,0,0,1,.968.968l-1.164,1.164,1.164,1.164a.685.685,0,0,1-.484,1.169Z" transform="translate(-195.947 -232.823)"/><path class="f" d="M271.352,254.131a.685.685,0,0,1-.484-1.169l1.164-1.164-1.164-1.164a.685.685,0,0,1,.968-.968l1.648,1.648a.685.685,0,0,1,0,.968l-1.648,1.648A.682.682,0,0,1,271.352,254.131Z" transform="translate(-246.69 -232.822)"/><path class="f" d="M241.174,254.13a.685.685,0,0,1-.6-1.022l1.862-3.3a.685.685,0,1,1,1.193.673l-1.862,3.3A.685.685,0,0,1,241.174,254.13Z" transform="translate(-220.646 -232.821)"/><path class="e" d="M45.451,83.625H33.507a.979.979,0,0,1-.979-.979v-9.5a.979.979,0,0,1,.979-.979H45.451a.979.979,0,0,1,.979.979v9.5A.979.979,0,0,1,45.451,83.625Z" transform="translate(-32.528 -72.168)"/></g><path class="e" d="M134.049,72.168h-3.336V83.625h3.336a.979.979,0,0,0,.979-.979v-9.5A.979.979,0,0,0,134.049,72.168Z" transform="translate(-120.637 -71.615)"/><path class="e" d="M46.43,75.366V73.147a.979.979,0,0,0-.979-.979H33.507a.979.979,0,0,0-.979.979v2.219Z" transform="translate(-32.04 -71.615)"/><path class="f" d="M61.189,157.046H56.334a.489.489,0,0,1,0-.979h4.855a.489.489,0,1,1,0,.979Z" transform="translate(-53.08 -147.321)"/><path class="f" d="M58.546,136.242H56.334a.489.489,0,1,1,0-.979h2.212a.489.489,0,1,1,0,.979Z" transform="translate(-53.08 -128.548)"/><path class="e" d="M322.955,332.4H308.081a.979.979,0,0,1-.979-.979v-9.5a.979.979,0,0,1,.979-.979h14.874a.979.979,0,0,1,.979.979v9.5A.979.979,0,0,1,322.955,332.4Z" transform="translate(-279.802 -296.099)"/><path class="e" d="M323.934,324.142v-2.219a.979.979,0,0,0-.979-.979H308.081a.979.979,0,0,0-.979.979v2.219Z" transform="translate(-279.802 -296.099)"/><path class="g" d="M70.681,90.859H64.357c.087-.269.168-.54.24-.813l3.51-1a1.242,1.242,0,0,0,.9-1.189V84.2a1.242,1.242,0,0,0-.9-1.189l-3.51-1a15.537,15.537,0,0,0-1.59-3.838l1.775-3.189a1.242,1.242,0,0,0-.206-1.476L61.994,70.93a1.242,1.242,0,0,0-1.476-.206L57.328,72.5a15.537,15.537,0,0,0-3.838-1.59l-1-3.51a1.242,1.242,0,0,0-1.189-.9H47.649a1.242,1.242,0,0,0-1.189.9l-1,3.51a15.559,15.559,0,0,0-3.053,1.165V68.033a1.469,1.469,0,0,0-1.467-1.467H29a1.469,1.469,0,0,0-1.467,1.467v2.219a.488.488,0,0,0,.488.488H41.43v6.792a.491.491,0,0,1-.491.491H29a.491.491,0,0,1-.491-.491V72.941a.488.488,0,1,0-.976,0v4.591A1.469,1.469,0,0,0,29,79H35.5a15.564,15.564,0,0,0-1.147,3.016l-3.51,1a1.242,1.242,0,0,0-.9,1.189v3.653a1.242,1.242,0,0,0,.9,1.189l3.51,1a15.54,15.54,0,0,0,1.59,3.838l-1.775,3.189a1.242,1.242,0,0,0,.206,1.476l2.583,2.583a1.242,1.242,0,0,0,1.476.206l3.189-1.775a15.539,15.539,0,0,0,3.838,1.59l1,3.51a1.242,1.242,0,0,0,1.189.9H51.3a1.242,1.242,0,0,0,1.189-.9l1-3.51c.285-.075.568-.16.849-.252v.924a1.469,1.469,0,0,0,1.467,1.467H70.681a1.469,1.469,0,0,0,1.467-1.467v-9.5a1.469,1.469,0,0,0-1.467-1.467ZM28.5,69.764v-1.73A.491.491,0,0,1,29,67.543H40.94a.491.491,0,0,1,.491.491v1.73Zm24.477,30.511a.488.488,0,0,0-.353.34l-1.076,3.78a.261.261,0,0,1-.25.189H47.649a.261.261,0,0,1-.25-.189l-1.076-3.78a.488.488,0,0,0-.353-.34,14.569,14.569,0,0,1-4.086-1.693.488.488,0,0,0-.491-.009l-3.434,1.912a.261.261,0,0,1-.311-.043l-2.583-2.583a.261.261,0,0,1-.043-.311l1.912-3.434a.488.488,0,0,0-.009-.491,14.567,14.567,0,0,1-1.693-4.086.488.488,0,0,0-.34-.353l-3.78-1.076a.261.261,0,0,1-.189-.25V84.2a.261.261,0,0,1,.189-.25l3.78-1.076a.488.488,0,0,0,.34-.353A14.588,14.588,0,0,1,36.6,79H40.94a1.469,1.469,0,0,0,1.467-1.467V73.178a14.583,14.583,0,0,1,3.562-1.391.488.488,0,0,0,.353-.34l1.076-3.78a.261.261,0,0,1,.25-.189H51.3a.261.261,0,0,1,.25.189l1.076,3.78a.488.488,0,0,0,.353.34,14.572,14.572,0,0,1,4.086,1.693.488.488,0,0,0,.491.009l3.434-1.912a.261.261,0,0,1,.311.043L63.886,74.2a.261.261,0,0,1,.043.311l-1.912,3.434a.488.488,0,0,0,.009.491,14.567,14.567,0,0,1,1.693,4.086.488.488,0,0,0,.34.353l3.78,1.076a.261.261,0,0,1,.189.25v3.653a.261.261,0,0,1-.189.25l-3.78,1.076a.488.488,0,0,0-.34.353c-.109.445-.242.888-.393,1.322H61.333a.488.488,0,1,0,0,.976h9.347a.491.491,0,0,1,.491.491v1.73H55.316v-1.73a.491.491,0,0,1,.491-.491h2.837a.488.488,0,1,0,0-.976H55.807a1.469,1.469,0,0,0-1.467,1.467v7.543C53.895,100.026,53.439,100.162,52.982,100.275Zm17.7,2.041H55.807a.491.491,0,0,1-.491-.491V95.033H71.171v6.792A.491.491,0,0,1,70.681,102.316Z" transform="translate(-27.528 -66.501)"/><path class="f" d="M332.41,383.007l-.045,0a.488.488,0,0,1-.42-.335l-.67-2.052a.488.488,0,1,1,.928-.3l.318.975.178-.328a.488.488,0,0,1,.858,0l.178.328.318-.975a.488.488,0,1,1,.928.3l-.67,2.052a.488.488,0,0,1-.893.082l-.291-.535-.291.535A.488.488,0,0,1,332.41,383.007Z" transform="translate(-301.593 -349.368)"/><path class="f" d="M375.212,383.007l-.045,0a.488.488,0,0,1-.42-.335l-.67-2.052a.488.488,0,1,1,.928-.3l.318.975.178-.328a.488.488,0,0,1,.858,0l.178.328.318-.975a.488.488,0,0,1,.928.3l-.67,2.052a.488.488,0,0,1-.893.082l-.291-.535-.291.535A.488.488,0,0,1,375.212,383.007Z" transform="translate(-340.216 -349.368)"/><path class="f" d="M419.453,383.007a.488.488,0,0,1-.429-.255l-.291-.535-.291.535a.488.488,0,0,1-.893-.082l-.67-2.052a.488.488,0,1,1,.928-.3l.318.975.178-.328a.488.488,0,0,1,.858,0l.178.328.318-.975a.488.488,0,1,1,.928.3l-.67,2.052a.488.488,0,0,1-.419.335Z" transform="translate(-378.838 -349.368)"/></g></g></svg>