<svg id="Layer_2" data-name="Layer 2" xmlns="http://www.w3.org/2000/svg" viewBox="0 0 27.68 33.88"><defs><style>.cls-1{fill:#fff;}</style></defs><title>Delete</title><path class="cls-1" d="M24.56,31.29a1.2,1.2,0,0,1-1.2-1.2V15.47a1.21,1.21,0,0,1,2.41,0V30.09A1.21,1.21,0,0,1,24.56,31.29Z" transform="translate(-6.16 -2.31)"/><path class="cls-1" d="M24.56,14.7a.78.78,0,0,0-.77.77V30.09a.78.78,0,1,0,1.55,0V15.47A.78.78,0,0,0,24.56,14.7Z" transform="translate(-6.16 -2.31)"/><path class="cls-1" d="M15.44,31.29a1.2,1.2,0,0,1-1.2-1.2V15.47a1.2,1.2,0,0,1,2.4,0V30.09A1.2,1.2,0,0,1,15.44,31.29Z" transform="translate(-6.16 -2.31)"/><path class="cls-1" d="M15.44,14.7a.78.78,0,0,0-.78.77V30.09a.78.78,0,1,0,1.55,0V15.47A.78.78,0,0,0,15.44,14.7Z" transform="translate(-6.16 -2.31)"/><path class="cls-1" d="M12.68,36.19a4.25,4.25,0,0,1-3.07-1.33,4.7,4.7,0,0,1-1.25-3.24V12.88A3.38,3.38,0,0,1,9.54,6.33h3.54V5.79a3.45,3.45,0,0,1,3.46-3.48h6.9a3.47,3.47,0,0,1,3.49,3.48v.54h3.53a3.38,3.38,0,0,1,1.18,6.55V31.62a4.7,4.7,0,0,1-1.25,3.24,4.24,4.24,0,0,1-3.07,1.33Zm-1.92-4.57a2,2,0,0,0,1.92,2.17H27.32a2,2,0,0,0,1.92-2.17V13.06H10.76ZM9.54,8.73a1,1,0,0,0,0,1.93H30.46a1,1,0,0,0,0-1.93Zm15-2.4V5.79A1,1,0,0,0,24.21,5a1.06,1.06,0,0,0-.75-.31H16.54a1.06,1.06,0,0,0-.75.31,1.08,1.08,0,0,0-.31.76v.55Z" transform="translate(-6.16 -2.31)"/><path class="cls-1" d="M8.79,12.57V31.62a4.28,4.28,0,0,0,1.13,2.95,3.81,3.81,0,0,0,2.76,1.19H27.32a3.81,3.81,0,0,0,2.76-1.19,4.29,4.29,0,0,0,1.14-2.95v-19a3,3,0,0,0-.76-5.81h-4v-1a3,3,0,0,0-3.06-3.06H16.57A3.06,3.06,0,0,0,13.5,5.79v1h-4a3,3,0,0,0-.75,5.81ZM27.32,34.22H12.68a2.46,2.46,0,0,1-2.35-2.6v-19H29.67v19A2.46,2.46,0,0,1,27.32,34.22ZM15.05,5.79a1.48,1.48,0,0,1,.44-1.07,1.46,1.46,0,0,1,1.08-.44h6.87A1.5,1.5,0,0,1,25,5.79v1h-9.9ZM9.54,8.3H30.46a1.4,1.4,0,0,1,0,2.79H9.54a1.4,1.4,0,0,1,0-2.79Z" transform="translate(-6.16 -2.31)"/><path class="cls-1" d="M20,31.29a1.2,1.2,0,0,1-1.2-1.2V15.47a1.2,1.2,0,1,1,2.4,0V30.09A1.2,1.2,0,0,1,20,31.29Z" transform="translate(-6.16 -2.31)"/><path class="cls-1" d="M20,14.7a.77.77,0,0,0-.77.77V30.09a.77.77,0,1,0,1.54,0V15.47A.77.77,0,0,0,20,14.7Z" transform="translate(-6.16 -2.31)"/></svg>