<svg xmlns="http://www.w3.org/2000/svg" width="13.069" height="15.17" viewBox="0 0 13.069 15.17"><defs><style>.a{fill:#fff;}</style></defs><g transform="translate(0 0)"><path class="a" d="M384.408,329.861c0-1.629-1.855-2.907-3.448-2.967l-.811-.729a3.866,3.866,0,0,0,1.588-3.111V321.1a3.269,3.269,0,0,0-3.268-3.259h-1.186a3.249,3.249,0,0,0-3.249,3.249v1.966a3.871,3.871,0,0,0,1.568,3.106l-.816.736c-1.587.06-3.448,1.333-3.448,2.967v2.85a.3.3,0,0,0,.3.3h12.476a.3.3,0,0,0,.3-.3h0Zm-7.191,1.192h1.311l.311,1.363H376.9Zm1.336-.593H377.2l-.227-.708.9-.451.922.46Zm-.68-2.049-1.03-1.647a3.846,3.846,0,0,0,2.058,0Zm.424.44,1.423-2.279.767.69-.976,2.194Zm-1.014-10.42h1.185a2.675,2.675,0,0,1,2.677,2.666v.245l-.556-.8a.3.3,0,0,0-.413-.074.316.316,0,0,0-.042.036,3.315,3.315,0,0,1-4.521,0,.3.3,0,0,0-.457.04l-.53.772V321.1A2.666,2.666,0,0,1,377.284,318.431Zm-2.656,4.622v-.685l.823-1.206a3.97,3.97,0,0,0,4.848,0l.848,1.221v.672a3.259,3.259,0,1,1-6.519,0Zm1.4,3.519,1.423,2.276-1.214.607-.977-2.193Zm-4.1,3.287c0-1.22,1.484-2.275,2.78-2.37l1.108,2.491a.3.3,0,0,0,.392.15l.011-.006.211-.106.24.748-.386,1.647h-4.358Zm11.884,2.555h-4.367l-.374-1.642.258-.744.193.1a.3.3,0,0,0,.4-.133l.006-.012,1.106-2.488c1.3.1,2.78,1.149,2.78,2.37Z" transform="translate(-371.339 -317.839)"/></g></svg>