<svg xmlns="http://www.w3.org/2000/svg" width="16" height="16" viewBox="0 0 16 16"><defs><style>.a{fill:#fff;}.b{fill:#ffc03f;}</style></defs><g transform="translate(-61.051 -206.051)"><g transform="translate(61.051 206.051)"><path class="a" d="M33.524,72A1.572,1.572,0,0,0,32,73.614V84.1a1.572,1.572,0,0,0,1.524,1.614H44.7A1.572,1.572,0,0,0,46.219,84.1V73.614A1.572,1.572,0,0,0,44.7,72H43.617v.941a.382.382,0,1,1-.762,0V72h-3.4v.941a.382.382,0,1,1-.762,0V72H35.333v.941a.382.382,0,1,1-.762,0V72Z" transform="translate(-31.11 -70.609)"/><path d="M288.187,289.118A1.188,1.188,0,0,1,287,287.931v-1.743A1.188,1.188,0,0,1,288.187,285h1.743a1.188,1.188,0,0,1,1.187,1.187v1.743a1.188,1.188,0,0,1-1.187,1.187Zm-.3-.89h2.059l.279-.035v-2.3H287.89Z" transform="translate(-278.389 -276.451)"/><path d="M10.323,24A2.325,2.325,0,0,1,8,21.677V11.613A2.325,2.325,0,0,1,10.323,9.29h1.065v-.9a.387.387,0,1,1,.774,0v.9h3.419v-.9a.387.387,0,1,1,.774,0v.9h3.452v-.9a.387.387,0,0,1,.774,0v.9h1.1A2.325,2.325,0,0,1,24,11.613V21.774a.4.4,0,0,1-.005.058v.019A2.331,2.331,0,0,1,21.677,24Zm0-13.935a1.55,1.55,0,0,0-1.548,1.548V21.677a1.55,1.55,0,0,0,1.548,1.548H21.677a1.55,1.55,0,0,0,1.548-1.548V11.613a1.55,1.55,0,0,0-1.548-1.548h-1.1v.9a.387.387,0,0,1-.774,0v-.9H16.355v.9a.387.387,0,1,1-.774,0v-.9H12.161v.9a.387.387,0,0,1-.774,0v-.9Z" transform="translate(-8 -8)"/><circle cx="0.812" cy="0.812" r="0.812" transform="translate(2.783 11.594)"/><circle cx="0.812" cy="0.812" r="0.812" transform="translate(2.783 8.348)"/><circle cx="0.812" cy="0.812" r="0.812" transform="translate(2.783 5.101)"/><circle cx="0.812" cy="0.812" r="0.812" transform="translate(8.811 5.101)"/><circle cx="0.812" cy="0.812" r="0.812" transform="translate(6.029 8.348)"/><circle cx="0.812" cy="0.812" r="0.812" transform="translate(6.029 5.101)"/><circle cx="0.812" cy="0.812" r="0.812" transform="translate(11.898 5.101)"/><circle cx="0.812" cy="0.812" r="0.812" transform="translate(6.029 11.594)"/><path class="b" d="M311,311.337h2.059l.279-.035V309H311Z" transform="translate(-301.439 -299.502)"/></g></g></svg>