<svg id="Layer_2" data-name="Layer 2" xmlns="http://www.w3.org/2000/svg" viewBox="0 0 30 30.86"><defs><style>.cls-1{fill:#383838;}</style></defs><title>dislike</title><path class="cls-1" d="M5.9,14.45A3.84,3.84,0,0,0,5,17a4,4,0,0,0,.84,2.22,3.45,3.45,0,0,0,.82,4c1,.94,2.77,1.36,5.18,1.24A19.52,19.52,0,0,0,15,24h0c.32-.05.66-.13,1-.2a11.55,11.55,0,0,1-.81,3.75c-.9,2.75-.85,4.85.17,6.26a4.12,4.12,0,0,0,3.29,1.59,1.62,1.62,0,0,0,1.24-.57,4.32,4.32,0,0,0,.54-3.08c.85-2.28,3.24-7.88,5.26-9.44a.87.87,0,0,0,.11-.09,6.8,6.8,0,0,0,1.26-1.9,2.62,2.62,0,0,0,1.28.33h3.94A2.69,2.69,0,0,0,35,18V7.51a2.69,2.69,0,0,0-2.68-2.69H28.38a2.67,2.67,0,0,0-1.55.49l-1.52-.18a66.2,66.2,0,0,0-8.6-.47q-1.16-.09-2.16-.09a14.5,14.5,0,0,0-3,.27,5.61,5.61,0,0,0-4,2.49A4,4,0,0,0,7.1,9.8a4.11,4.11,0,0,0-1.46,3.35A4.25,4.25,0,0,0,5.9,14.45ZM32.32,6.56a1,1,0,0,1,.94,1V18a1,1,0,0,1-.94.94H28.38a.94.94,0,0,1-.94-.94V7.51a.94.94,0,0,1,.94-.94h3.94ZM7.55,15.2a.86.86,0,0,0,.12-1,2.46,2.46,0,0,1,.92-3.31.87.87,0,0,0,.29-1,2.26,2.26,0,0,1,.18-1.67,4,4,0,0,1,2.85-1.64,17.24,17.24,0,0,1,4.7-.14h.09a62.83,62.83,0,0,1,8.39.46h0l.65.08a2.62,2.62,0,0,0-.06.57V18a2.63,2.63,0,0,0,.13.8A5.47,5.47,0,0,1,24.62,21c-2.9,2.3-5.73,10-5.86,10.39a.88.88,0,0,0,0,.43,4.1,4.1,0,0,1-.08,1.87,2.31,2.31,0,0,1-1.82-.87c-.66-.91-.63-2.54.08-4.69,1.08-3.29,1.17-5,.31-5.78a1.39,1.39,0,0,0-1.4-.25c-.4.09-.77.17-1.13.23l-.08,0c-2,.43-5.53.69-6.76-.43a1.85,1.85,0,0,1-.22-2.36.86.86,0,0,0-.16-1.12A2.47,2.47,0,0,1,6.75,17,2.4,2.4,0,0,1,7.55,15.2Z" transform="translate(-5 -4.57)"/></svg>