<svg xmlns="http://www.w3.org/2000/svg" width="22" height="22" viewBox="0 0 22 22"><defs><style>.a{fill:#21a366;}.b,.g{fill:#107c41;}.b,.i{fill-rule:evenodd;}.c{fill:#33c481;}.d{fill:#185c37;}.e{fill:rgba(0,0,0,0.09);}.f{fill:rgba(0,0,0,0.2);}.h{fill:#fff;}.i{fill:none;}</style></defs><path class="a" d="M233.249,103.75h-7.333a.921.921,0,0,0-.917.917v3.9l8.25,4.813,4.125,1.741,4.125-1.741v-4.812Z" transform="translate(-219.499 -102.375)"/><path class="b" d="M225,151.875h8.25v4.813H225Z" transform="translate(-219.499 -145.688)"/><path class="c" d="M314.833,103.75H307.5v4.813h8.25v-3.9A.921.921,0,0,0,314.833,103.75Z" transform="translate(-293.75 -102.375)"/><path class="d" d="M233.249,200H225v8.708a.921.921,0,0,0,.917.917h14.667a.921.921,0,0,0,.917-.917v-3.9Z" transform="translate(-219.499 -189)"/><path class="b" d="M307.5,200h8.25v4.813H307.5Z" transform="translate(-293.75 -189)"/><g transform="translate(0 4.812)"><path class="e" d="M230.958,138.125H225v13.063h5.958a.924.924,0,0,0,.917-.917V139.042A.924.924,0,0,0,230.958,138.125Z" transform="translate(-219.5 -138.125)"/><g transform="translate(5.5 0.688)"><path class="f" d="M230.271,145H225v13.063h5.271a.924.924,0,0,0,.917-.917V145.917A.924.924,0,0,0,230.271,145Z" transform="translate(-225 -145)"/><path class="f" d="M230.271,145H225v11.688h5.271a.924.924,0,0,0,.917-.917v-9.854A.924.924,0,0,0,230.271,145Z" transform="translate(-225 -145)"/><path class="f" d="M229.583,145H225v11.688h4.583a.924.924,0,0,0,.917-.917v-9.854A.924.924,0,0,0,229.583,145Z" transform="translate(-225 -145)"/></g><path class="g" d="M170.917,145h9.167a.921.921,0,0,1,.917.917v9.167a.921.921,0,0,1-.917.917h-9.167a.921.921,0,0,1-.917-.917v-9.167A.921.921,0,0,1,170.917,145Z" transform="translate(-170 -144.313)"/><path class="h" d="M194.292,172.5l2.225-3.447-2.038-3.428h1.64l1.112,2.191q.153.312.211.465h.014q.11-.249.23-.484l1.189-2.172h1.505l-2.09,3.409,2.143,3.466h-1.6l-1.285-2.407a2.023,2.023,0,0,1-.153-.321h-.019a1.52,1.52,0,0,1-.149.312L195.9,172.5Z" transform="translate(-191.863 -162.875)"/></g><path class="i" d="M170,90h22v22H170Z" transform="translate(-170 -90)"/></svg>