<svg xmlns="http://www.w3.org/2000/svg" width="23.938" height="21.088" viewBox="0 0 23.938 21.088"><defs><style>.a{fill:#605f5f;stroke:#fff;stroke-width:0.4px;}</style></defs><path class="a" d="M22.853,43.759H16.6v-.69A2.071,2.071,0,0,0,14.528,41H9.011a2.071,2.071,0,0,0-2.069,2.069v.69H.69a.691.691,0,0,0-.69.69V59.619a2.071,2.071,0,0,0,2.069,2.069h19.4a2.071,2.071,0,0,0,2.069-2.069V44.46A.669.669,0,0,0,22.853,43.759Zm-14.532-.69a.69.69,0,0,1,.69-.69h5.517a.69.69,0,0,1,.69.69v.69h-6.9Zm13.571,2.069L19.75,51.562a.688.688,0,0,1-.654.472H15.217v-.69a.69.69,0,0,0-.69-.69H9.011a.69.69,0,0,0-.69.69v.69H4.442a.688.688,0,0,1-.654-.472L1.646,45.138Zm-8.054,6.9v1.379H9.7V52.034Zm8.321,7.586a.69.69,0,0,1-.69.69H2.069a.69.69,0,0,1-.69-.69V48.7L2.48,52a2.066,2.066,0,0,0,1.962,1.415H8.321v.69a.69.69,0,0,0,.69.69h5.517a.69.69,0,0,0,.69-.69v-.69H19.1A2.066,2.066,0,0,0,21.059,52l1.1-3.3Z" transform="translate(0.2 -40.8)"/></svg>