<svg xmlns="http://www.w3.org/2000/svg" xmlns:xlink="http://www.w3.org/1999/xlink" width="362.999" height="586" viewBox="0 0 362.999 586"><defs><style>.a{fill:url(#a);}.b,.c{fill:none;}.b{stroke:#fff;stroke-linecap:round;stroke-dasharray:2 3;}.c{stroke:#01c1b3;}.d{filter:url(#b);}</style><linearGradient id="a" y1="0.414" x2="1.613" y2="0.519" gradientUnits="objectBoundingBox"><stop offset="0" stop-color="#01c2b3"/><stop offset="1" stop-color="#498cfc"/></linearGradient><filter id="b" x="0" y="0" width="362.999" height="586" filterUnits="userSpaceOnUse"><feOffset dy="1" input="SourceAlpha"/><feGaussianBlur stdDeviation="1.5" result="c"/><feFlood flood-opacity="0.161"/><feComposite operator="in" in2="c"/><feComposite in="SourceGraphic"/></filter></defs><g transform="translate(-6.5 -76.501)"><g class="d" transform="matrix(1, 0, 0, 1, 6.5, 76.5)"><path class="a" d="M344,577H10A10.1,10.1,0,0,1,0,566.825V155.54a7.02,7.02,0,0,0,7-7.024,7.02,7.02,0,0,0-7-7.024V10.177A10.1,10.1,0,0,1,10,0H344a10.1,10.1,0,0,1,10,10.176V141.563a7.024,7.024,0,1,0,0,13.906V566.825A10.1,10.1,0,0,1,344,577Z" transform="translate(4.5 3.5)"/></g><g transform="translate(22.5 228.515)"><path class="b" d="M649,4226H979" transform="translate(-648.5 -4226)"/></g><g transform="translate(18 229.515)"><path class="c" d="M649,4226H981" transform="translate(-644.5 -4226)"/></g></g></svg>