<svg xmlns="http://www.w3.org/2000/svg" width="15.886" height="15.886" viewBox="0 0 15.886 15.886"><defs><style>.a{fill:#ffc03f;}</style></defs><g transform="translate(-4 -4)"><circle class="a" cx="3.236" cy="3.236" r="3.236" transform="translate(7.366 11.943) rotate(-45)"/><path d="M156.569,159.8a3.236,3.236,0,1,1,3.236-3.236A3.24,3.24,0,0,1,156.569,159.8Zm0-5.715a2.48,2.48,0,1,0,2.48,2.48A2.482,2.482,0,0,0,156.569,154.089Z" transform="translate(-144.626 -144.626)"/><path d="M53.265,59.863a6.6,6.6,0,1,1,6.6-6.6A6.605,6.605,0,0,1,53.265,59.863Zm0-12.44a5.842,5.842,0,1,0,5.842,5.842A5.848,5.848,0,0,0,53.265,47.423Z" transform="translate(-41.322 -41.322)"/><path d="M244.378,7.11A.379.379,0,0,1,244,6.732V4.378a.378.378,0,0,1,.756,0V6.732A.379.379,0,0,1,244.378,7.11Z" transform="translate(-232.435)"/><path d="M244.378,412.443a.379.379,0,0,1-.378-.378v-2.353a.378.378,0,0,1,.756,0v2.353A.379.379,0,0,1,244.378,412.443Z" transform="translate(-232.435 -392.557)"/><path d="M4.378,244.756a.378.378,0,0,1,0-.756H6.732a.378.378,0,0,1,0,.756Z" transform="translate(0 -232.435)"/><path d="M409.711,244.756a.378.378,0,1,1,0-.756h2.353a.378.378,0,0,1,0,.756Z" transform="translate(-392.557 -232.435)"/></g></svg>