<svg xmlns="http://www.w3.org/2000/svg" width="19.396" height="23.883" viewBox="0 0 19.396 23.883"><defs><style>.a{fill:#fff;}</style></defs><g transform="translate(-48.096 0)"><path class="a" d="M200.4,208.769v.374a.35.35,0,0,0,.7,0v-.374a.35.35,0,0,0-.7,0Z" transform="translate(-145.203 -198.697)"/><path class="a" d="M296.6,208.769v.374a.35.35,0,0,0,.7,0v-.374a.35.35,0,0,0-.7,0Z" transform="translate(-236.909 -198.697)"/><path class="a" d="M178.538,176.618a.35.35,0,0,0-.424-.255l-1.5.374a.35.35,0,1,0,.17.679l1.5-.374A.35.35,0,0,0,178.538,176.618Z" transform="translate(-122.275 -168.127)"/><path class="a" d="M290.425,177.427a.35.35,0,0,0,.085-.689l-1.5-.374a.35.35,0,0,0-.17.679l1.5.374A.35.35,0,0,0,290.425,177.427Z" transform="translate(-229.266 -168.127)"/><path class="a" d="M66.2,21l-3.884-1.214a1.141,1.141,0,0,1-.8-1.094v-.77a.35.35,0,0,0-.7,0v.77a1.837,1.837,0,0,0,.7,1.452,5.258,5.258,0,0,1-7.439,0,1.837,1.837,0,0,0,.7-1.452V16.706A5.954,5.954,0,0,0,63.7,12.291h.448a1.478,1.478,0,0,0,1.068-.459,1.454,1.454,0,0,0-.344-2.277V4.089A4.094,4.094,0,0,0,60.785,0H55.924a1.841,1.841,0,0,0-1.692,1.122h-.551a2.971,2.971,0,0,0-2.967,2.967V8.356a.35.35,0,1,0,.7,0V4.089a2.27,2.27,0,0,1,2.268-2.268h.8a.35.35,0,0,0,.339-.262,1.143,1.143,0,0,1,1.1-.86h4.861a3.393,3.393,0,0,1,3.389,3.389V9.351l-.088,0h-.31A.773.773,0,0,1,63,8.576V6.707a1.848,1.848,0,0,0-1.846-1.846.35.35,0,0,0,0,.7A1.147,1.147,0,0,1,62.3,6.707v1.87a1.472,1.472,0,0,0,.748,1.281v.963a.773.773,0,0,1-.772.772H53.307a.773.773,0,0,1-.772-.772V9.857a1.472,1.472,0,0,0,.748-1.281V6.707a1.147,1.147,0,0,1,1.146-1.146h5.235a.35.35,0,0,0,0-.7H54.429a1.848,1.848,0,0,0-1.846,1.846v1.87a.773.773,0,0,1-.772.772H51.5a1.5,1.5,0,0,0-1.533,1.393,1.46,1.46,0,0,0,.4,1.092,1.478,1.478,0,0,0,1.068.459h.448a5.94,5.94,0,0,0,1.832,3.618q.175.165.362.314v2.471a1.141,1.141,0,0,1-.8,1.094L49.391,21a1.838,1.838,0,0,0-1.3,1.762v.77a.35.35,0,1,0,.7,0v-.77a1.141,1.141,0,0,1,.8-1.094l2.274-.711a7.45,7.45,0,0,0,11.839,0l2.275.711a1.141,1.141,0,0,1,.8,1.094v.77a.35.35,0,1,0,.7,0v-.77A1.838,1.838,0,0,0,66.2,21ZM63.753,10.047Zm0,.773v-.772h.335a.816.816,0,0,1,.834.73.772.772,0,0,1-.771.814h-.617A1.463,1.463,0,0,0,63.753,10.82Zm-12.315.772a.772.772,0,0,1-.771-.814.816.816,0,0,1,.834-.73h.335v.772a1.463,1.463,0,0,0,.219.772h-.617ZM60.89,22.433a6.68,6.68,0,0,1-3.1.75,6.783,6.783,0,0,1-5.2-2.448l.831-.26a5.958,5.958,0,0,0,8.747,0l.83.259a6.82,6.82,0,0,1-2.108,1.7Z"/></g></svg>