<svg xmlns="http://www.w3.org/2000/svg" xmlns:xlink="http://www.w3.org/1999/xlink" width="46.923" height="46.923" viewBox="0 0 46.923 46.923"><defs><style>.a{fill:#fffbc4;}.b{fill:url(#a);}.c{fill:url(#b);}.d{fill:#fff;}.e{fill:#f3cf8c;}.f{fill:url(#f);}.g{fill:#fff1d1;}.h{fill:#e4980c;}.i{fill:url(#g);}.j{filter:url(#h);}.k{filter:url(#c);}</style><linearGradient id="a" x1="0.132" y1="0.172" x2="0.877" y2="0.885" gradientUnits="objectBoundingBox"><stop offset="0" stop-color="#ffdb1b"/><stop offset="1" stop-color="#f8a617"/></linearGradient><linearGradient id="b" x1="0.5" x2="0.5" y2="1" gradientUnits="objectBoundingBox"><stop offset="0" stop-color="#fffefd"/><stop offset="1" stop-color="#fff3de"/></linearGradient><filter id="c" x="9.936" y="14.132" width="26.591" height="20.229" filterUnits="userSpaceOnUse"><feOffset dy="1" input="SourceAlpha"/><feGaussianBlur stdDeviation="1" result="d"/><feFlood flood-opacity="0.161"/><feComposite operator="in" in2="d"/><feComposite in="SourceGraphic"/></filter><linearGradient id="f" x1="0.5" x2="0.5" y2="1" gradientUnits="objectBoundingBox"><stop offset="0" stop-color="#fffaeb"/><stop offset="1" stop-color="#fccf75"/></linearGradient><linearGradient id="g" x1="0.818" y1="0.11" x2="0.149" y2="0.909" gradientUnits="objectBoundingBox"><stop offset="0" stop-color="#fffefd"/><stop offset="1" stop-color="#fff3df"/></linearGradient><filter id="h" x="13.445" y="14.131" width="12.123" height="13.826" filterUnits="userSpaceOnUse"><feOffset dy="1" input="SourceAlpha"/><feGaussianBlur stdDeviation="1" result="i"/><feFlood flood-color="#9a5303" flood-opacity="0.161"/><feComposite operator="in" in2="i"/><feComposite in="SourceGraphic"/></filter></defs><g transform="translate(-13 -127.295)"><g transform="translate(13 127.295)"><rect class="a" width="46.923" height="46.923" rx="16" transform="translate(0 0)"/><g transform="translate(6.899 10.957)"><rect class="b" width="32" height="25" rx="12.5" transform="translate(0.357 0.005)"/></g></g><g transform="translate(25.936 143.426)"><g transform="translate(0 0.001)"><g class="k" transform="matrix(1, 0, 0, 1, -12.94, -16.13)"><path class="c" d="M0,8.517,2.233,7.309,5.445,13l-2.23,1.228Zm14.99,4.362L18.4,7.3l2.188,1.284-3.415,5.6ZM2.235,7.3l1.31-.708a1.016,1.016,0,0,1,.113-.8,1.042,1.042,0,0,1,.59-.454,2.724,2.724,0,0,1,.406-.415,1.014,1.014,0,0,1,.08-.9,1.054,1.054,0,0,1,.9-.5,1.041,1.041,0,0,1,.535.147,1.019,1.019,0,0,1-.356-1.412,1.058,1.058,0,0,1,1.436-.353A1.019,1.019,0,0,1,6.89.5,1.058,1.058,0,0,1,8.326.147l.8.471A1.057,1.057,0,0,1,9.3.744c.31.179.791.457,1.375.8C11.854.9,12.69.46,12.69.46a1.078,1.078,0,0,1,.8-.091,1.04,1.04,0,0,1,.629.492,1.026,1.026,0,0,1-.412,1.406l.407-.222a1.067,1.067,0,0,1,.8-.091,1.028,1.028,0,0,1,.2,1.909l-.183.1a1.066,1.066,0,0,1,.8-.091,1.042,1.042,0,0,1,.629.492,1.017,1.017,0,0,1,.068.854,1.968,1.968,0,0,1,.186.294,1.768,1.768,0,0,1,.145.434,1.035,1.035,0,0,1,.46.65L18.4,7.29l-2.747,4.5-1.587-.95,1.57-2.566-1.57,2.566a3.975,3.975,0,0,1-3.529.09l-.064.033A4.038,4.038,0,0,1,6.441,11l-2-3.534,2,3.534-1.621.9Z" transform="translate(12.94 16.13)"/></g></g><g transform="translate(0 0)"><path class="c" d="M130.969,102.483a2.96,2.96,0,0,1,1.056,1.059,2.346,2.346,0,0,1,.2.846l-2.743,4.483a4.043,4.043,0,0,1-4.03-.17l-5.432-3.086,4.311-7.061S128.14,100.739,130.969,102.483Z" transform="translate(-115.415 -98.03)"/><path class="d" d="M348.855,237.939l-2.743,4.483,1.588.95,2.747-4.5Z" transform="translate(-332.045 -231.58)"/><path class="e" d="M371.6,260.455l-3.411,5.579,2.185,1.3,3.415-5.6Z" transform="translate(-353.195 -253.154)"/><path class="f" d="M103.512,98.143a2.964,2.964,0,0,0-1.093,1.023,2.348,2.348,0,0,0-.23.839l2.582,4.574a4.043,4.043,0,0,0,4.034-.031l6.222-3.242a1.027,1.027,0,0,0,.412-1.406,1.042,1.042,0,0,0-.629-.492,1.066,1.066,0,0,0-.8.091l.266-.143a1.027,1.027,0,0,0,.412-1.406,1.042,1.042,0,0,0-.629-.492,1.066,1.066,0,0,0-.8.091l.183-.1a1.028,1.028,0,0,0-.2-1.909,1.065,1.065,0,0,0-.8.091l-.407.222a1.027,1.027,0,0,0,.412-1.406,1.042,1.042,0,0,0-.629-.492,1.066,1.066,0,0,0-.8.091S106.4,96.5,103.512,98.143Z" transform="translate(-98.331 -93.582)"/><path class="g" d="M65.013,239.445l2.582,4.574-1.62.9-2.585-4.593Z" transform="translate(-61.155 -233.023)"/><path class="h" d="M12.233,260.64l3.211,5.693-2.23,1.228L10,261.849Z" transform="translate(-10 -253.331)"/><g transform="translate(3.509)"><g class="j" transform="matrix(1, 0, 0, 1, -16.45, -16.13)"><path class="i" d="M1.3,7.679l-.8-.471A1.02,1.02,0,0,1,.15,5.795a1.058,1.058,0,0,1,1.436-.353A1.02,1.02,0,0,1,1.227,4.03a1.057,1.057,0,0,1,1.436-.353,1.02,1.02,0,0,1-.357-1.412,1.058,1.058,0,0,1,1.436-.353A1.02,1.02,0,0,1,3.382.5a1.05,1.05,0,0,1,.9-.5,1.068,1.068,0,0,1,.539.147l.8.471a1.021,1.021,0,0,1,.357,1.414,1.056,1.056,0,0,1-1.391.377l.553.328A1.019,1.019,0,0,1,5.494,4.15a1.057,1.057,0,0,1-1.4.371l.008,0a1.021,1.021,0,0,1,.359,1.412,1.055,1.055,0,0,1-1.436.353l-.638-.378A1.022,1.022,0,0,1,2.74,7.327,1.056,1.056,0,0,1,1.3,7.679ZM4.089,4.521,4.058,4.5Z" transform="translate(16.45 16.13)"/></g></g></g></g></g></svg>