<svg xmlns="http://www.w3.org/2000/svg" viewBox="0 0 38.64 39.69"><defs><style>.cls-1{fill:#a8474f;}.cls-2{fill:none;stroke:#a8474f;stroke-linecap:round;stroke-miterlimit:10;stroke-width:3px;}</style></defs><title>hide_01</title><g id="Layer_3" data-name="Layer 3"><path class="cls-1" d="M20,32.39c-8.66,0-16.37-4.72-19.19-11.75a1.67,1.67,0,0,1,0-1.28C3.63,12.33,11.34,7.61,20,7.61s16.37,4.72,19.19,11.75a1.67,1.67,0,0,1,0,1.28C36.37,27.67,28.66,32.39,20,32.39ZM4.29,20c2.5,5.36,8.78,8.94,15.71,8.94S33.21,25.36,35.71,20c-2.5-5.36-8.78-8.94-15.71-8.94S6.79,14.64,4.29,20Z" transform="translate(-0.68 -0.16)"/><path class="cls-1" d="M1.27,20.46C4,27.29,11.54,31.89,20,31.89s16-4.6,18.73-11.43a1.22,1.22,0,0,0,0-.92C36,12.7,28.45,8.11,20,8.11S4,12.7,1.27,19.54A1.22,1.22,0,0,0,1.27,20.46ZM20,10.56c7.27,0,13.73,3.77,16.26,9.44-2.53,5.67-9,9.44-16.26,9.44S6.26,25.67,3.74,20C6.27,14.33,12.73,10.56,20,10.56Z" transform="translate(-0.68 -0.16)"/><path class="cls-1" d="M20.07,27.65A7.65,7.65,0,1,1,27.72,20,7.66,7.66,0,0,1,20.07,27.65Zm0-11.85a4.2,4.2,0,1,0,4.2,4.2A4.2,4.2,0,0,0,20.07,15.8Z" transform="translate(-0.68 -0.16)"/><path class="cls-1" d="M20.07,27.15A7.15,7.15,0,1,0,12.92,20,7.16,7.16,0,0,0,20.07,27.15Zm0-11.85a4.7,4.7,0,1,1-4.7,4.7A4.71,4.71,0,0,1,20.07,15.3Z" transform="translate(-0.68 -0.16)"/></g><g id="Layer_4" data-name="Layer 4"><line class="cls-2" x1="8.97" y1="38.19" x2="29.67" y2="1.5"/></g></svg>