<svg xmlns="http://www.w3.org/2000/svg" width="6.937" height="8.479" viewBox="0 0 6.937 8.479"><defs><style>.a{fill:#fff;}</style></defs><path class="a" d="M53.508,4.815l-.037-.668-.408.531a1.12,1.12,0,0,1-.19.185,2.643,2.643,0,0,0,.087-.393,2.787,2.787,0,0,0-.589-2.1l-.258-.345-.169.4c-.2.457-.511.687-.8.584a.946.946,0,0,1-.5-.71A3.765,3.765,0,0,1,50.751.4L50.86,0l-.4.091a3.472,3.472,0,0,0-2.65,2.793,6.762,6.762,0,0,0-.182,1.655,2.711,2.711,0,0,1-.486-.494l-.306-.45-.139.527A3.47,3.47,0,0,0,50,8.479h.086a3.472,3.472,0,0,0,3.426-3.468C53.514,4.948,53.512,4.882,53.508,4.815ZM50.045,7.982Zm1.469-.389a1.66,1.66,0,0,0-.36-2.01l-.2-.183-.162.221c-.041.056-.123.149-.2.14-.064-.007-.158-.081-.223-.229a.83.83,0,0,1,.109-.821l.344-.466-.575.072a2.156,2.156,0,0,0-.937.407,2.534,2.534,0,0,0-.918,2.1,1.65,1.65,0,0,0,.192.774,2.973,2.973,0,0,1-1.5-2.582q0-.141.013-.282a3.865,3.865,0,0,0,.684.516L48.2,5.5,48.146,5a6.366,6.366,0,0,1,.147-2.013A3.013,3.013,0,0,1,50.17.691a3.965,3.965,0,0,0-.019,1.728,1.417,1.417,0,0,0,.823,1.057.948.948,0,0,0,.816-.1,1.376,1.376,0,0,0,.4-.379,2.187,2.187,0,0,1,.282,1.379,1.987,1.987,0,0,1-.243.74l-.213.326L52.4,5.5a.945.945,0,0,0,.595-.124A2.977,2.977,0,0,1,51.514,7.593Z" transform="translate(-46.577)"/></svg>