<svg xmlns="http://www.w3.org/2000/svg" width="7.922" height="12.147" viewBox="0 0 7.922 12.147"><defs><style>.a{fill:#2c2f33;}</style></defs><g transform="translate(0)"><g transform="translate(0)"><path class="a" d="M71.658,2.112H69.281V.264A.264.264,0,0,0,69.017,0H66.9a.264.264,0,0,0-.264.264V2.112H64.264A.264.264,0,0,0,64,2.377v9.506a.264.264,0,0,0,.264.264h7.394a.264.264,0,0,0,.264-.264V2.377A.264.264,0,0,0,71.658,2.112ZM67.169.528h1.584V3.7H67.169Zm4.225,11.091H64.528V10.562h6.866Zm0-1.584H64.528V2.641h2.112v1.32a.264.264,0,0,0,.264.264h2.112a.264.264,0,0,0,.264-.264V2.641h2.112Z" transform="translate(-64 0)"/></g></g><g transform="translate(2.112 5.281)"><g transform="translate(0)"><path class="a" d="M131.433,160h-3.169a.264.264,0,0,0-.264.264v3.169a.264.264,0,0,0,.264.264h3.169a.264.264,0,0,0,.264-.264v-3.169A.264.264,0,0,0,131.433,160Zm-.264,3.169h-2.641v-2.641h2.641Z" transform="translate(-128 -160)"/></g></g></svg>