<svg xmlns="http://www.w3.org/2000/svg" xmlns:xlink="http://www.w3.org/1999/xlink" width="375" height="202" viewBox="0 0 375 202"><defs><style>.a{fill:#27e2c6;}.b{fill:url(#a);}.c{opacity:0.47;clip-path:url(#b);}.d{opacity:0.39;}.d,.h{fill:url(#c);}.e,.f,.g,.j{fill:none;}.e,.f,.g{stroke:#fff;}.e,.f{stroke-width:50px;}.e{opacity:0.04;}.f{opacity:0.16;}.g{stroke-width:60px;opacity:0.08;}.h{opacity:0.41;}.i{stroke:none;}</style><linearGradient id="a" x1="0.719" y1="0.639" x2="1" y2="0.59" gradientUnits="objectBoundingBox"><stop offset="0" stop-color="#0ea2c8"/><stop offset="1" stop-color="#0e7ac7"/></linearGradient><clipPath id="b"><rect class="a" width="375" height="202" transform="translate(57.759 119.219)"/></clipPath><linearGradient id="c" x1="0.452" y1="-0.974" x2="0.494" y2="1.012" gradientUnits="objectBoundingBox"><stop offset="0" stop-color="#fff"/><stop offset="1" stop-color="#fff" stop-opacity="0"/></linearGradient></defs><g transform="translate(0 -354)"><path class="b" d="M375,0H0V202H375Z" transform="translate(0 354)"/></g><g class="c" transform="translate(-57.759 -119.219)"><path class="d" d="M212.793,2.976,429.728,305.521,4.142,299.57Z" transform="matrix(0.559, -0.829, 0.829, 0.559, 59.397, 241.851)"/><g class="e" transform="translate(318.759 78.219)"><ellipse class="i" cx="93.5" cy="91.5" rx="93.5" ry="91.5"/><ellipse class="j" cx="93.5" cy="91.5" rx="68.5" ry="66.5"/></g><g class="f" transform="translate(-57.241 246.219)"><ellipse class="i" cx="92" cy="90.5" rx="92" ry="90.5"/><ellipse class="j" cx="92" cy="90.5" rx="67" ry="65.5"/></g><g class="g" transform="translate(-128.241 177.219)"><ellipse class="i" cx="163" cy="159.5" rx="163" ry="159.5"/><ellipse class="j" cx="163" cy="159.5" rx="133" ry="129.5"/></g><path class="h" d="M221.526-15.934,439.9,301.16,4.2,299.424Z" transform="matrix(0.574, -0.819, 0.819, 0.574, -57.751, 304.322)"/></g></svg>