<svg xmlns="http://www.w3.org/2000/svg" xmlns:xlink="http://www.w3.org/1999/xlink" width="45.86" height="44" viewBox="0 0 45.86 44"><defs><style>.a{fill:#fffad8;}.b{fill:url(#a);}.c{fill:url(#d);}.d{fill:#f2a403;}.e{fill:#ffdf70;}.f{fill:#feb926;}.g{fill:#fff;}.h{filter:url(#g);}.i{filter:url(#e);}.j{filter:url(#b);}</style><linearGradient id="a" x1="0.084" y1="0.183" x2="0.881" y2="0.864" gradientUnits="objectBoundingBox"><stop offset="0" stop-color="#ffdf60"/><stop offset="1" stop-color="#feb31d"/></linearGradient><filter id="b" x="0" y="6" width="45.86" height="36.916" filterUnits="userSpaceOnUse"><feOffset dy="2" input="SourceAlpha"/><feGaussianBlur stdDeviation="2" result="c"/><feFlood flood-color="#ffd477"/><feComposite operator="in" in2="c"/><feComposite in="SourceGraphic"/></filter><linearGradient id="d" x1="0.5" x2="0.5" y2="1" gradientUnits="objectBoundingBox"><stop offset="0" stop-color="#fff"/><stop offset="1" stop-color="#ffebaa"/></linearGradient><filter id="e" x="12.52" y="9" width="20.959" height="26.59" filterUnits="userSpaceOnUse"><feOffset input="SourceAlpha"/><feGaussianBlur stdDeviation="1" result="f"/><feFlood flood-color="#9c6e08" flood-opacity="0.6"/><feComposite operator="in" in2="f"/><feComposite in="SourceGraphic"/></filter><filter id="g" x="21.734" y="19.318" width="8.603" height="6.397" filterUnits="userSpaceOnUse"><feOffset input="SourceAlpha"/><feGaussianBlur stdDeviation="0.5" result="h"/><feFlood flood-opacity="0.161"/><feComposite operator="in" in2="h"/><feComposite in="SourceGraphic"/></filter></defs><g transform="translate(1)"><rect class="a" width="44" height="44" rx="6"/><g transform="translate(4.852 9.704)"><g transform="translate(0 0)"><g class="j" transform="matrix(1, 0, 0, 1, -5.85, -9.7)"><path class="b" d="M12.458,0H21.4a12.458,12.458,0,0,1,0,24.916H12.458A12.458,12.458,0,1,1,12.458,0Z" transform="translate(6 10)"/></g></g><g transform="translate(-55.454 -33.46)"><g class="i" transform="matrix(1, 0, 0, 1, 49.6, 23.76)"><path class="c" d="M79.3,56.346H65.908a.786.786,0,0,1-.786-.786V36.542a.786.786,0,0,1,.786-.786H79.3a.786.786,0,0,1,.786.786V55.561A.786.786,0,0,1,79.3,56.346Z" transform="translate(-49.6 -23.76)"/></g><g transform="translate(73.499 38.702)"><g transform="translate(0 0)"><path class="d" d="M263.51,104.517h-4.319a.311.311,0,0,1,0-.621h4.319a.311.311,0,1,1,0,.621Z" transform="translate(-258.88 -103.896)"/></g><g transform="translate(0 1.454)"><path class="d" d="M263.51,138.137h-4.319a.311.311,0,0,1,0-.621h4.319a.311.311,0,1,1,0,.621Z" transform="translate(-258.88 -137.516)"/></g><g transform="translate(0 2.907)"><path class="d" d="M263.51,171.756h-4.319a.311.311,0,0,1,0-.621h4.319a.311.311,0,0,1,0,.621Z" transform="translate(-258.88 -171.135)"/></g></g><g transform="translate(73.803 49.721)"><path class="d" d="M270.237,359.384h-4.015a.311.311,0,0,1,0-.621h4.015a.311.311,0,0,1,0,.621Z" transform="translate(-265.911 -358.763)"/></g><g transform="translate(66.764 46.689)"><path class="d" d="M107.728,289.256h-4.319a.311.311,0,0,1,0-.621h4.319a.311.311,0,0,1,0,.621Z" transform="translate(-103.098 -288.635)"/></g><g transform="translate(66.764 45.236)"><path class="d" d="M107.728,255.636h-4.319a.311.311,0,1,1,0-.621h4.319a.311.311,0,0,1,0,.621Z" transform="translate(-103.098 -255.015)"/></g><path class="e" d="M169.859,74.888v2.886h2.886A2.886,2.886,0,0,0,169.859,74.888Z" transform="translate(-100.209 -37.44)"/><path class="f" d="M105.988,74.888a2.886,2.886,0,1,0,2.886,2.886h-2.886Z" transform="translate(-36.338 -37.44)"/><g class="h" transform="matrix(1, 0, 0, 1, 49.6, 23.76)"><path class="g" d="M248.948,243.122h-5.189a.207.207,0,0,1-.207-.207v-2.983a.207.207,0,0,1,.207-.207h5.189a.207.207,0,0,1,.207.207v2.983A.207.207,0,0,1,248.948,243.122Z" transform="translate(-220.32 -218.91)"/></g><path class="f" d="M104.213,351.171h-.908a.207.207,0,0,1-.207-.207v-4.531a.207.207,0,0,1,.207-.207h.908a.207.207,0,0,1,.207.207v4.531A.207.207,0,0,1,104.213,351.171Z" transform="translate(-36.334 -297.046)"/><path class="f" d="M161.254,377.481h-.908a.207.207,0,0,1-.207-.207v-3.342a.207.207,0,0,1,.207-.207h.908a.207.207,0,0,1,.207.207v3.342A.207.207,0,0,1,161.254,377.481Z" transform="translate(-90.909 -323.356)"/><path class="f" d="M218.3,410.259h-.908a.207.207,0,0,1-.207-.207v-1.861a.207.207,0,0,1,.207-.207h.908a.207.207,0,0,1,.207.207v1.861A.207.207,0,0,1,218.3,410.259Z" transform="translate(-145.485 -356.135)"/><g transform="translate(73.803 51.248)"><path class="d" d="M270.237,394.7h-4.015a.311.311,0,0,1,0-.621h4.015a.311.311,0,1,1,0,.621Z" transform="translate(-265.911 -394.074)"/></g><g transform="translate(73.803 52.774)"><path class="d" d="M270.237,430.007h-4.015a.311.311,0,0,1,0-.621h4.015a.311.311,0,1,1,0,.621Z" transform="translate(-265.911 -429.386)"/></g></g></g></g></svg>