<svg xmlns="http://www.w3.org/2000/svg" width="15.931" height="15.931" viewBox="0 0 15.931 15.931"><defs><style>.a{fill:#d98804;}</style></defs><path class="a" d="M7.965,0a7.965,7.965,0,1,0,7.965,7.965A7.965,7.965,0,0,0,7.965,0Zm0,15.4A7.434,7.434,0,1,1,15.4,7.965,7.434,7.434,0,0,1,7.965,15.4Zm0,0"/><path class="a" d="M121.818,123.736l-3.012-.6L117.3,120.42a.328.328,0,0,0-.552,0l-1.507,2.714-3.015.6a.315.315,0,0,0-.161.532l2.089,2.089-.6,2.988a.315.315,0,0,0,.45.347l3.014-1.509,3.014,1.509a.317.317,0,0,0,.45-.347l-.6-2.989,2.089-2.089a.316.316,0,0,0-.16-.531Zm-2.493,2.295a.316.316,0,0,0-.086.284l.5,2.524-2.581-1.291a.315.315,0,0,0-.282,0l-2.578,1.289.5-2.524a.315.315,0,0,0-.086-.284l-1.792-1.792,2.578-.513a.315.315,0,0,0,.214-.156l1.3-2.343,1.3,2.343a.315.315,0,0,0,.214.156l2.577.516Zm0,0" transform="translate(-109.057 -117.027)"/></svg>