<svg xmlns="http://www.w3.org/2000/svg" width="50" height="50" viewBox="0 0 50 50"><defs><style>.a{fill:#f5f5f5;}.b{fill:#fff;}.c{fill:#42c147;}.d{fill:#2c2f33;}</style></defs><g transform="translate(-124.701 -100.143)"><circle class="a" cx="25" cy="25" r="25" transform="translate(124.701 100.143)"/><rect class="b" width="21.804" height="28.657" rx="5" transform="translate(139.193 108.119)"/><circle class="c" cx="6.54" cy="6.54" r="6.54" transform="translate(150.035 125.058)"/><path class="d" d="M142.482,136.776a4.328,4.328,0,0,1-4.316-4.318V111.711a4.328,4.328,0,0,1,4.316-4.316h14.494a4.328,4.328,0,0,1,4.315,4.317v12.5a.779.779,0,0,1-.213.567.769.769,0,0,1-.545.243h0a.779.779,0,0,1-.8-.757v-12.55a2.766,2.766,0,0,0-2.757-2.757h-14.5a2.764,2.764,0,0,0-2.758,2.757v20.748a2.764,2.764,0,0,0,2.757,2.757h6.779a.78.78,0,0,1,0,1.56Zm1.172-11.318a.779.779,0,0,1,.011-1.558h7.364a.78.78,0,0,1-.006,1.558Zm-.045-4.713a.78.78,0,0,1,.013-1.559H155.8a.78.78,0,0,1,.779.778v.048a.779.779,0,0,1-.777.731H143.609Zm.045-4.719a.779.779,0,0,1-.534-1.314.769.769,0,0,1,.545-.243H155.8a.8.8,0,0,1,.6.243.779.779,0,0,1-.565,1.315Zm12.823,22.717a7.167,7.167,0,1,1,7.168-7.167A7.175,7.175,0,0,1,156.477,138.743Zm0-13.035a5.868,5.868,0,1,0,5.868,5.868A5.875,5.875,0,0,0,156.477,125.708Z"/><path class="d" d="M155.958,134.692a1.663,1.663,0,0,1-1.147-.459l-2.1-2.012a.675.675,0,0,1-.205-.466.616.616,0,0,1,.186-.454.631.631,0,0,1,.9.007l2.093,2.01a.406.406,0,0,0,.272.107.394.394,0,0,0,.3-.137l3.235-4.518a.635.635,0,0,1,.515-.265.628.628,0,0,1,.33.093.659.659,0,0,1,.295.44.625.625,0,0,1-.11.471l-3.247,4.535a1.676,1.676,0,0,1-1.206.644l-.109,0Z"/><path class="d" d="M155.959,134.492a1.463,1.463,0,0,1-1.011-.4l-2.094-2.011a.44.44,0,0,1-.017-.634.432.432,0,0,1,.613.005l2.1,2.014a.613.613,0,0,0,.41.164.6.6,0,0,0,.452-.207l3.246-4.533a.435.435,0,0,1,.353-.181.426.426,0,0,1,.225.064l.026.019a.435.435,0,0,1,.176.282.429.429,0,0,1-.076.323l-3.246,4.535a1.49,1.49,0,0,1-1.057.561Q156.007,134.492,155.959,134.492Z"/></g></svg>