<svg xmlns="http://www.w3.org/2000/svg" xmlns:xlink="http://www.w3.org/1999/xlink" width="45.86" height="44" viewBox="0 0 45.86 44"><defs><style>.a{fill:#fff5d2;}.b{fill:url(#a);}.c{fill:url(#d);}.d{fill:#fff;}.e{filter:url(#g);}.f{filter:url(#e);}.g{filter:url(#b);}</style><linearGradient id="a" x1="0.084" y1="0.183" x2="0.881" y2="0.864" gradientUnits="objectBoundingBox"><stop offset="0" stop-color="#feca62"/><stop offset="1" stop-color="#f8746f"/></linearGradient><filter id="b" x="0" y="5.704" width="45.86" height="36.916" filterUnits="userSpaceOnUse"><feOffset dy="2" input="SourceAlpha"/><feGaussianBlur stdDeviation="2" result="c"/><feFlood flood-color="#f9b36c"/><feComposite operator="in" in2="c"/><feComposite in="SourceGraphic"/></filter><linearGradient id="d" x1="0.5" x2="0.5" y2="1.469" gradientUnits="objectBoundingBox"><stop offset="0" stop-color="#fff"/><stop offset="1" stop-color="#ffd4c7"/></linearGradient><filter id="e" x="5.282" y="8" width="34" height="32.4" filterUnits="userSpaceOnUse"><feOffset dy="3" input="SourceAlpha"/><feGaussianBlur stdDeviation="3" result="f"/><feFlood flood-opacity="0.051"/><feComposite operator="in" in2="f"/><feComposite in="SourceGraphic"/></filter><filter id="g" x="15.682" y="6.4" width="26" height="26" filterUnits="userSpaceOnUse"><feOffset dy="3" input="SourceAlpha"/><feGaussianBlur stdDeviation="3" result="h"/><feFlood flood-opacity="0.161"/><feComposite operator="in" in2="h"/><feComposite in="SourceGraphic"/></filter></defs><g transform="translate(1.148)"><rect class="a" width="44" height="44" rx="6"/><g transform="translate(4.852 9.704)"><g transform="translate(0 0)"><g class="g" transform="matrix(1, 0, 0, 1, -6, -9.7)"><path class="b" d="M12.458,0H21.4a12.458,12.458,0,0,1,0,24.916H12.458A12.458,12.458,0,1,1,12.458,0Z" transform="translate(6 9.7)"/></g><g transform="translate(8.282 2.696)"><g class="f" transform="matrix(1, 0, 0, 1, -14.28, -12.4)"><path class="c" d="M13.607,50.6A5.587,5.587,0,0,1,9.275,42.82,5.581,5.581,0,0,0,2.4,48.268V50.5A5.364,5.364,0,0,1,.49,54.6a1.4,1.4,0,0,0,.91,2.463H14.6a1.4,1.4,0,0,0,.9-2.471,5.357,5.357,0,0,1-1.9-3.993Zm0,0" transform="translate(14.28 -28.67)"/></g><g class="e" transform="matrix(1, 0, 0, 1, -14.28, -12.4)"><path class="d" d="M285.332,4a4,4,0,1,1-4-4A4,4,0,0,1,285.332,4Zm0,0" transform="translate(-252.65 12.4)"/></g><path class="d" d="M11.235,23.375A2.973,2.973,0,0,0,14.143,21H8.326A2.973,2.973,0,0,0,11.235,23.375Z" transform="translate(-3.368 -4.275)"/></g></g></g></g></svg>