<svg xmlns="http://www.w3.org/2000/svg" width="23.458" height="26" viewBox="0 0 23.458 26"><defs><style>.a{fill:#545454;}</style></defs><g transform="translate(-878 -450.002)"><path class="a" d="M900.019,460.521l-17.742-10.142A2.858,2.858,0,0,0,878,452.86v20.284a2.858,2.858,0,0,0,4.276,2.482l17.742-10.142a2.858,2.858,0,0,0,0-4.963Zm-7.689-2.4-2.436,3.393-5.827-8.116Zm-11.584,16.136a1.109,1.109,0,0,1-.453-.142,1.128,1.128,0,0,1-.56-.973V452.86a1.12,1.12,0,0,1,1.011-1.117L888.827,463Zm3.321-1.654,5.827-8.117,2.436,3.393Zm15.091-8.626-5.315,3.038L890.961,463l2.882-4.015,5.315,3.038a1.125,1.125,0,0,1,0,1.953Zm0,0" transform="translate(0)"/></g></svg>