<svg xmlns="http://www.w3.org/2000/svg" width="25.359" height="26.986" viewBox="0 0 25.359 26.986"><defs><style>.a,.c{fill:#1586c7;}.b{fill:#edf9fc;}.c{stroke:#edf9fc;stroke-width:0.2px;}</style></defs><g transform="translate(-73.193 -296.566)"><g transform="translate(12.193 296.566)"><path class="a" d="M79.793,6.062,73.945.214A.732.732,0,0,0,73.428,0H63.193A2.2,2.2,0,0,0,61,2.193V22.76a2.2,2.2,0,0,0,2.193,2.193H77.814a2.2,2.2,0,0,0,2.193-2.193V6.579A.738.738,0,0,0,79.793,6.062ZM74.159,2.5l3.352,3.352H74.89a.732.732,0,0,1-.731-.731Zm3.655,21H63.193a.732.732,0,0,1-.731-.731V2.193a.732.732,0,0,1,.731-.731h9.5V5.117A2.2,2.2,0,0,0,74.89,7.311h3.655V22.76A.732.732,0,0,1,77.814,23.491Z" transform="translate(0 0)"/><path class="a" d="M160.5,212h-8.773a.731.731,0,0,0,0,1.462H160.5a.731.731,0,0,0,0-1.462Z" transform="translate(-85.614 -201.668)"/><path class="a" d="M160.5,272h-8.773a.731.731,0,0,0,0,1.462H160.5a.731.731,0,0,0,0-1.462Z" transform="translate(-85.614 -258.744)"/><path class="a" d="M160.5,332h-8.773a.731.731,0,1,0,0,1.462H160.5a.731.731,0,1,0,0-1.462Z" transform="translate(-85.614 -315.819)"/><path class="a" d="M157.579,392h-5.848a.731.731,0,0,0,0,1.462h5.848a.731.731,0,0,0,0-1.462Z" transform="translate(-85.614 -372.895)"/></g><g transform="translate(39 111)"><circle class="b" cx="7.5" cy="7.5" r="7.5" transform="translate(44 197)"/><g transform="translate(44 197)"><path class="a" d="M7.776,0a7.776,7.776,0,1,0,7.776,7.776A7.785,7.785,0,0,0,7.776,0Zm0,13.914a6.138,6.138,0,1,1,6.138-6.138A6.145,6.145,0,0,1,7.776,13.914Z"/><path class="c" d="M328.365,288.75a5.772,5.772,0,0,1-1.442-.665.328.328,0,0,1-.032-.259.466.466,0,0,1,.3-.369.847.847,0,0,1,.866.093.84.84,0,0,0,1.2-1.178,2.219,2.219,0,0,0-.976-.561v-.047a.84.84,0,0,0-1.68,0v.122a2.1,2.1,0,0,0-.708,3.521,6.953,6.953,0,0,0,1.919.927.56.56,0,0,1,.421.67.8.8,0,0,1-.8.678,1.489,1.489,0,0,1-1.1-.285.84.84,0,1,0-.919,1.405,3.044,3.044,0,0,0,1.187.5v.081a.84.84,0,1,0,1.68,0v-.176A2.359,2.359,0,0,0,328.365,288.75Z" transform="translate(-319.695 -281.8)"/></g></g></g></svg>