<svg xmlns="http://www.w3.org/2000/svg" width="25.178" height="21.884" viewBox="0 0 25.178 21.884"><defs><style>.a{fill:#1586c7;}</style></defs><path class="a" d="M25.162,34.386a.738.738,0,0,0-.984-.845L.476,42.589a.738.738,0,0,0,0,1.377l6.658,2.572v8.1a.738.738,0,0,0,1.4.332l2.754-5.465L18,54.493a.738.738,0,0,0,1.145-.377C25.422,33.543,25.15,34.437,25.162,34.386Zm-5.851,2.592L7.764,45.2,2.8,43.282Zm-10.7,9.434,10.065-7.168c-8.66,9.136-8.208,8.655-8.246,8.706-.056.075.1-.219-1.819,3.584Zm9.435,6.272-5.916-4.39,10.7-11.284Z" transform="translate(-0.001 -33.492)"/></svg>