<svg xmlns="http://www.w3.org/2000/svg" xmlns:xlink="http://www.w3.org/1999/xlink" width="81.646" height="81.646" viewBox="0 0 81.646 81.646"><defs><style>.a{fill:#fff;}.b{fill:#56ace0;}.c{fill:#194f82;}.d{fill:#ffc10d;}.e{filter:url(#a);}</style><filter id="a" x="0" y="0" width="81.646" height="81.646" filterUnits="userSpaceOnUse"><feOffset dy="5" input="SourceAlpha"/><feGaussianBlur stdDeviation="2" result="b"/><feFlood flood-opacity="0.031"/><feComposite operator="in" in2="b"/><feComposite in="SourceGraphic"/></filter></defs><g transform="translate(-238 -541)"><g class="e" transform="matrix(1, 0, 0, 1, 238, 541)"><circle class="a" cx="34.823" cy="34.823" r="34.823" transform="translate(6 1)"/></g><g transform="translate(261 558.984)"><g transform="translate(1.961 1.989)"><path class="a" d="M37.564,47.294a10.24,10.24,0,1,1,6.984-17.71V22.8a.869.869,0,0,0-.867-.867H27.629V26.8a.982.982,0,0,1-.984.984h-4.86V52.468a.869.869,0,0,0,.867.867H43.669a.869.869,0,0,0,.867-.867V46.4L43.3,45.525A10.1,10.1,0,0,1,37.564,47.294Z" transform="translate(-21.786 -21.931)"/><path class="a" d="M113.391,98.02a8.276,8.276,0,1,0,8.276,8.276A8.286,8.286,0,0,0,113.391,98.02Z" transform="translate(-97.613 -91.17)"/><path class="a" d="M39.727,37.252l-2.491,2.491h2.491Z" transform="translate(-35.845 -35.873)"/></g><g transform="translate(11.331 10.707)"><path class="b" d="M285.832,244.573l-5.8-4.138a10.108,10.108,0,0,1-1.857,2.613l5.8,4.132a1.606,1.606,0,0,0,2.241-.378h0A1.6,1.6,0,0,0,285.832,244.573Z" transform="translate(-264.461 -229.482)"/><circle class="b" cx="6.408" cy="6.408" r="6.408"/></g><g transform="translate(0 0.016)"><path class="c" d="M142.548,164.316a1.715,1.715,0,0,0,1.4-.681l.745.774a2.717,2.717,0,0,1-2.1,1,2.745,2.745,0,0,1-1.99-.757,2.553,2.553,0,0,1-.78-1.921,2.6,2.6,0,0,1,.792-1.938,2.832,2.832,0,0,1,4.1.2l-.722.821a1.692,1.692,0,0,0-1.379-.687,1.628,1.628,0,0,0-1.129.431,1.484,1.484,0,0,0-.466,1.152,1.581,1.581,0,0,0,.436,1.17A1.54,1.54,0,0,0,142.548,164.316Z" transform="translate(-127.242 -145.611)"/><path class="c" d="M199.133,164.632l1.327-3.323h1.257l-2.1,5.215h-.989l-2.1-5.215h1.257Z" transform="translate(-178.833 -146.788)"/><path class="c" d="M33.843,24.2l-6.227-4.441a10.48,10.48,0,0,0,.355-2.642,10.2,10.2,0,0,0-1.292-4.976V2.856a2.844,2.844,0,0,0-2.84-2.84H7.589a2.808,2.808,0,0,0-2,.826L.826,5.6a2.808,2.808,0,0,0-.826,2V32.514a2.844,2.844,0,0,0,2.84,2.84H23.856a2.844,2.844,0,0,0,2.84-2.84V27.853L29.71,30a3.562,3.562,0,1,0,4.132-5.8Zm-.762,3.841h0a1.61,1.61,0,0,1-2.241.378l-5.8-4.132A10.4,10.4,0,0,0,26.9,21.672l5.8,4.138A1.593,1.593,0,0,1,33.08,28.039Zm-8.357,4.475a.869.869,0,0,1-.867.867H2.84a.869.869,0,0,1-.867-.867V7.82H6.838a.982.982,0,0,0,.984-.984V1.971h16.04a.869.869,0,0,1,.867.867V9.63a10.239,10.239,0,1,0-1.234,15.941l1.234.879-.006,6.064ZM5.843,3.368V5.859H3.352Zm11.9,22.017a8.276,8.276,0,1,1,8.276-8.276A8.286,8.286,0,0,1,17.739,25.385Z" transform="translate(0 -0.016)"/></g><path class="d" d="M43.572,63.19h3.277a.984.984,0,1,1,0,1.967H43.572v1.967h1.315a.984.984,0,0,1,0,1.967H43.572v1.129a.982.982,0,0,0,.984.984H61.427a.982.982,0,0,0,.984-.984V65.809a10.246,10.246,0,1,1,0-17.826V44.7a.982.982,0,0,0-.984-.984H48.1a.964.964,0,0,0-.646.25v2.648a.982.982,0,0,1-.984.984H43.822a1,1,0,0,0-.25.646Z" transform="translate(-39.649 -39.767)"/></g></g></svg>