<svg xmlns="http://www.w3.org/2000/svg" xmlns:xlink="http://www.w3.org/1999/xlink" width="81.646" height="81.646" viewBox="0 0 81.646 81.646"><defs><style>.a{fill:#fff;}.b{fill:#56ace0;}.c{fill:#ffc10d;}.d{fill:#194f82;}.e{filter:url(#a);}</style><filter id="a" x="0" y="0" width="81.646" height="81.646" filterUnits="userSpaceOnUse"><feOffset dy="5" input="SourceAlpha"/><feGaussianBlur stdDeviation="2" result="b"/><feFlood flood-opacity="0.031"/><feComposite operator="in" in2="b"/><feComposite in="SourceGraphic"/></filter></defs><g transform="translate(6 -2.906)"><g class="e" transform="matrix(1, 0, 0, 1, -6, 2.91)"><circle class="a" cx="34.823" cy="34.823" r="34.823" transform="translate(6 1)"/></g><g transform="translate(-31.786 20.906)"><path class="a" d="M96.174,84.558H86.15v2.8a2.8,2.8,0,1,1-5.6,0v-2.8h-4a.975.975,0,0,0-.976.976v23.623a.975.975,0,0,0,.976.976h19.62a.975.975,0,0,0,.976-.976V85.529A.976.976,0,0,0,96.174,84.558Z" transform="translate(-19.839 -77.001)"/><path class="b" d="M97.358,127.946v-21.4a.141.141,0,0,1,.139-.139h17.4a.141.141,0,0,1,.139.139v21.4a.141.141,0,0,1-.139.139H97.5A.141.141,0,0,1,97.358,127.946Z" transform="translate(-39.678 -96.899)"/><g transform="translate(66.155 12.693)"><path class="c" d="M214.167,144.213a1.092,1.092,0,1,0-1.092-1.092A1.106,1.106,0,0,0,214.167,144.213Z" transform="translate(-211.209 -142.029)"/><path class="c" d="M195.152,220.832a3.241,3.241,0,0,0-2.958,1.947h5.91A3.221,3.221,0,0,0,195.152,220.832Z" transform="translate(-192.194 -213.79)"/></g><path class="a" d="M153.874,88.215a.861.861,0,0,0,.855-.855v-2.8h-1.71v2.8A.857.857,0,0,0,153.874,88.215Z" transform="translate(-90.365 -77.001)"/><g transform="translate(53.786)"><path class="d" d="M194.328,126.321a3.039,3.039,0,1,0-3.039-3.039A3.039,3.039,0,0,0,194.328,126.321Zm0-4.125a1.092,1.092,0,1,1-1.092,1.092A1.106,1.106,0,0,1,194.328,122.2Z" transform="translate(-179.001 -109.497)"/><path class="d" d="M172.747,199.046a5.184,5.184,0,0,0-5.153,4.8.979.979,0,0,0,.971,1.046h8.366a.945.945,0,0,0,.711-.312.985.985,0,0,0,.26-.734A5.176,5.176,0,0,0,172.747,199.046ZM169.8,202.94a3.22,3.22,0,0,1,5.916,0Z" transform="translate(-157.42 -181.258)"/><path class="d" d="M127.521,317.091H114.3a.976.976,0,1,0,0,1.953h13.219a.976.976,0,1,0,0-1.953Z" transform="translate(-108.005 -288.753)"/><path class="d" d="M127.521,278.432H114.3a.976.976,0,0,0,0,1.953h13.219a.976.976,0,0,0,0-1.953Z" transform="translate(-108.005 -253.549)"/><path class="d" d="M114.237,234.1h1.479a.976.976,0,0,0,0-1.953h-1.479a.976.976,0,0,0,0,1.953Z" transform="translate(-107.946 -211.4)"/><path class="d" d="M114.172,187.941h3a.976.976,0,1,0,0-1.953h-3a.976.976,0,1,0,0,1.953Z" transform="translate(-107.887 -169.367)"/><path class="d" d="M76.335,5.61H66.311V4.518a4.518,4.518,0,1,0-9.036,0V5.61h-.566a2.927,2.927,0,0,0-2.923,2.923V32.157a2.927,2.927,0,0,0,2.923,2.923h19.62a2.927,2.927,0,0,0,2.923-2.923V8.527A2.924,2.924,0,0,0,76.335,5.61ZM59.228,4.518a2.571,2.571,0,0,1,5.142,0V5.61H62.66V5.465a.976.976,0,1,0-1.953,0V5.61H59.228S59.228,4.518,59.228,4.518Zm5.136,3.039v2.8a.855.855,0,1,1-1.71,0v-2.8Zm12.941,24.6a.975.975,0,0,1-.976.976H56.7a.975.975,0,0,1-.976-.976V8.527a.975.975,0,0,1,.976-.976h4v2.8a2.8,2.8,0,0,0,5.6,0v-2.8H76.323a.975.975,0,0,1,.976.976V32.157Z" transform="translate(-53.786)"/></g></g></g></svg>