<svg xmlns="http://www.w3.org/2000/svg" xmlns:xlink="http://www.w3.org/1999/xlink" width="45.86" height="44" viewBox="0 0 45.86 44"><defs><style>.a{fill:#e4fff4;}.b{fill:url(#a);}.c{fill:#eef;}.d{fill:#fff;}.e{fill:#643daf;}.f{fill:#9975ff;}.g{fill:#6221e9;}.h{fill:#9464ff;}.i{fill:url(#f);}.j{fill:#e5e5ff;}.k{filter:url(#d);}.l{filter:url(#b);}</style><linearGradient id="a" x1="0.084" y1="0.183" x2="0.881" y2="0.864" gradientUnits="objectBoundingBox"><stop offset="0" stop-color="#9499ff"/><stop offset="1" stop-color="#945aff"/></linearGradient><filter id="b" x="0" y="6" width="45.86" height="36.916" filterUnits="userSpaceOnUse"><feOffset dy="2" input="SourceAlpha"/><feGaussianBlur stdDeviation="2" result="c"/><feFlood flood-color="#5acfc7"/><feComposite operator="in" in2="c"/><feComposite in="SourceGraphic"/></filter><filter id="d" x="13.024" y="11.299" width="16.348" height="20.74" filterUnits="userSpaceOnUse"><feOffset input="SourceAlpha"/><feGaussianBlur stdDeviation="0.5" result="e"/><feFlood flood-opacity="0.38"/><feComposite operator="in" in2="e"/><feComposite in="SourceGraphic"/></filter><linearGradient id="f" x1="0.5" x2="0.5" y2="1" gradientUnits="objectBoundingBox"><stop offset="0" stop-color="#fff"/><stop offset="1" stop-color="#c2beff"/></linearGradient></defs><g transform="translate(1)"><rect class="a" width="44" height="44" rx="6"/><g transform="translate(4.852 9.704)"><g transform="translate(0 0)"><g class="l" transform="matrix(1, 0, 0, 1, -5.85, -9.7)"><path class="b" d="M12.458,0H21.4a12.458,12.458,0,0,1,0,24.916H12.458A12.458,12.458,0,1,1,12.458,0Z" transform="translate(6 10)"/></g></g><g transform="translate(-52.328 -13.905)"><path class="c" d="M117.429,98,106,112.286v1.365h11.6l1.279-2.388V98Z" transform="translate(-43.081 -77.546)"/><g class="k" transform="matrix(1, 0, 0, 1, 46.48, 4.2)"><path class="d" d="M71.235,17H61V34.74H73.154l1.194-2.473V20.028Z" transform="translate(-46.48 -4.2)"/></g><path class="e" d="M338.991,381.376l1.451,1.452a1.3,1.3,0,1,1-1.836,1.838l-.893-.894-1.353-1.355-.429-.429,1.837-1.839Z" transform="translate(-263.206 -347.664)"/><path class="f" d="M316.36,358.715l-.724-.725-1.836,1.839.944.945,1.837-1.839Z" transform="translate(-242.019 -326.449)"/><path class="g" d="M307.584,351.07l-.7.706-.895-.9,0-.006c.126-.106.249-.219.367-.338s.231-.241.337-.367l.006,0Z" transform="translate(-234.533 -318.962)"/><path class="h" d="M88.144,123.875a5.918,5.918,0,0,1,.337,8c-.106.126-.218.249-.337.367s-.241.232-.367.338a5.91,5.91,0,1,1,.367-8.7Z" transform="translate(-16.33 -100.662)"/><path class="i" d="M107.411,144.456a5.024,5.024,0,1,1-7.1,0,5.024,5.024,0,0,1,7.1,0Z" transform="translate(-36.223 -120.617)"/><path class="j" d="M304.125,20.011v.006h-3.1V17Z" transform="translate(-229.784)"/></g></g></g></svg>