<svg xmlns="http://www.w3.org/2000/svg" width="326.604" height="209.667" viewBox="0 0 326.604 209.667"><defs><style>.a{fill:#e0eaf3;opacity:0.34;}.b{fill:#cde0fb;}.c{fill:#afcdfb;}.d{fill:#6bb7bf;}.e{fill:#86d1cd;}.f{fill:#f99746;}.g{fill:#5685d8;}.h{fill:#739af0;}.i{fill:#f1a34f;}.j{fill:#ffa412;}.k{fill:#ffb93e;}.l{fill:#fa9712;}.m{fill:#ed7d2b;}.n{fill:#ffc261;}.o{fill:#f69b34;}.p{fill:#ffa15a;}.q{fill:#f78639;}.r{fill:#ffbe55;}.s{fill:#4a75cb;}.t{fill:#88b3ff;}.u{fill:#72a9f7;}.v{fill:#3969b7;}.w{fill:#2e3552;}</style></defs><g transform="translate(-202.305 -162.103)"><g transform="translate(220.908 162.103)"><path class="a" d="M199.674,534.248s-40.127-44.145-6.786-91.939c29.582-42.406,64.072-39.507,89.377-22.3,10.778,7.329,41.851.9,68.3-42.246,36.067-58.844,161.087-23.155,138.292,67.378-11.031,43.811,33.573,45.4,10.845,89.2Z" transform="translate(-198.249 -325.025)"/><path class="b" d="M2457.138,1284.567c-2.9-10.69-20.934-7.349-20.934-7.349s-12.249,18.707-15.812,19.152,7.349-18.039,7.349-18.039c-6.9-.668-24.5,7.795-24.5,7.795s1.114,21.825-2.45,21.379,0-19.375,0-19.375c-6.681,2-12.917,9.8-12.917,9.8-7.795,12.694,8.908,22.047,8.908,22.047a35.531,35.531,0,0,1-4.454,16.257h0a25.73,25.73,0,0,0-2.128,4.329h1.821c.148-.488.313-.96.494-1.414a.011.011,0,0,1,0-.008l.008-.02c.125-.281.3-.682.527-1.17v0s0,0,0,0c.557-1.089.933-1.894,1.17-2.475l0-.006c1.667-3.42,4.069-7.875,5.671-8.81a3.528,3.528,0,0,1-.39-.835l.39.835c3.118,6.681,18.707,7.795,27.393,6.013s4.9-4.232.223-8.208-14.476-2.928-17.371-4.487,1.336-3.118,7.126-2.672,8.686,6.236,18.039,7.126,16.48-16.7,16.48-16.7c-6.458,2-18.039-1.559-18.484-3.786s16.7-2,19.375-2.672S2460.033,1295.257,2457.138,1284.567Z" transform="translate(-2168.438 -1133.94)"/><path class="c" d="M893.84,1329.069s.8,6.35-.395,6.426-.377-7.14-.377-7.14-5.662-3.165-7.965-3.084c0,0,3.242,6.352,2.07,6.132s-4.854-6.674-4.854-6.674-5.914-1.475-7.092,2.011.264,5.354,1.137,5.63,6.564.552,6.371,1.281-4.106,1.675-6.207.879c0,0,2.005,5.98,5.125,5.875s4.2-1.966,6.128-2,3.3.573,2.309,1.031-4.22-.089-5.852,1.134-2.937,1.958-.093,2.726,8.037.716,9.207-1.436l.146-.269a1.173,1.173,0,0,1-.146.269,9.3,9.3,0,0,1,1.7,3.038c.067.2.175.473.338.847h0c.065.168.117.306.153.4.859,2.6.052,6.957.052,6.957l.605.2a10.249,10.249,0,0,0-.534-8.117,11.805,11.805,0,0,1-1.146-5.482s5.73-2.762,3.4-7.13C897.924,1332.582,896.015,1329.87,893.84,1329.069Z" transform="translate(-850.978 -1175.526)"/><path class="b" d="M688.965,1500.631c-.513-7.833,12.35-9.735,12.35-9.735s12.509,9.732,15,9.212-9.07-10.409-9.07-10.409c4.476-2.033,18.216-.4,18.216-.4s4.264,14.89,6.552,13.774-4.449-12.992-4.449-12.992c4.94-.19,10.911,3.6,10.911,3.6,8.141,6.722-.911,16.829-.911,16.829a25.182,25.182,0,0,0,6.719,9.879h0a18.27,18.27,0,0,1,2.421,2.414l-1.221.418q-.318-.44-.656-.835a.008.008,0,0,0,0,0l-.01-.011c-.148-.16-.36-.387-.622-.663h0c-.623-.6-1.06-1.056-1.353-1.391l0,0c-1.9-1.91-4.537-4.346-5.826-4.6a2.506,2.506,0,0,0,.07-.65c-.022.207-.045.423-.07.65-.557,5.2-10.754,9.522-16.987,10.322s-4.257-1.713-2.034-5.452,9.035-5.287,10.618-7-1.612-1.784-5.392-.156-4.392,6.176-10.46,8.92-14.886-7.416-14.886-7.416c4.791-.139,11.738-5.187,11.525-6.783s-11.66,2.491-13.606,2.656S689.478,1508.464,688.965,1500.631Z" transform="translate(-688.95 -1318.745)"/><g transform="translate(237.643 35.8)"><path class="d" d="M2547.358,447.171a5.1,5.1,0,0,1-1.725-2.582,4.615,4.615,0,0,1,.45-2.654l-1.837-.366a6.686,6.686,0,0,0,.377,4.059,4.652,4.652,0,0,0,1.628,1.436A1.587,1.587,0,0,0,2547.358,447.171Z" transform="translate(-2544.086 -441.569)"/><path class="e" d="M2555.386,475.383l1.671,1.913s-4.725,1.255-7.425-2.088C2549.632,475.208,2553.61,476.553,2555.386,475.383Z" transform="translate(-2548.922 -470.899)"/></g><g transform="translate(156.255 13.125)"><path class="f" d="M1919.32,267.717a3.368,3.368,0,0,1,4.714-1.1l1.648-1.793s-1.722-1.14-5.363,1.339C1917.937,267.787,1919.32,267.717,1919.32,267.717Z" transform="translate(-1917.616 -264.564)"/><path class="f" d="M1908.754,274.355s-.573-3.085,4.506-5.361c0,0-1.822,1.033-2.2,4.17Z" transform="translate(-1908.734 -268.426)"/></g><g transform="translate(49.115 102.872)"><path class="g" d="M1076.01,970.42a3.059,3.059,0,0,1-1.7-4.056l-1.855-1.205s-.761,1.714,2.009,4.6C1076.281,971.648,1076.01,970.42,1076.01,970.42Z" transform="translate(-1072.363 -965.159)"/><path class="h" d="M1084.905,992.779s-2.677.979-5.482-3.226a4.947,4.947,0,0,0,4.067,1.343Z" transform="translate(-1078.519 -986.428)"/></g><path class="i" d="M1163.644,689.331s1.541-.973,1.7-2.149c0,0,1.5.081,1.825.568,0,0-.689,1.947-1.5,2.312C1165.672,690.061,1163.847,690.182,1163.644,689.331Z" transform="translate(-1102.836 -619.918)"/><path class="e" d="M1776.314,515.726s-2.3-1.45-2.538-3.2c0,0-2.236.121-2.719.846,0,0,1.027,2.9,2.236,3.445C1773.292,516.814,1776.011,517,1776.314,515.726Z" transform="translate(-1632.438 -467.634)"/><g transform="translate(62.573 0)"><rect class="j" width="44.642" height="128.585" transform="translate(121.514 80.158)"/><rect class="k" width="117.938" height="128.585" transform="translate(3.576 80.158)"/><rect class="j" width="9" height="117.938" transform="translate(121.514 143.06) rotate(90)"/><rect class="l" width="9" height="44.642" transform="translate(166.156 143.06) rotate(90)"/><path class="f" d="M1836.353,711.12S1863,693.806,1881.11,699.37l-3.737,3.49,1.684,5.864s-20.14-6.559-43.255,3.383Z" transform="translate(-1751.463 -629.585)"/><path class="f" d="M1326.334,359.271s-4.7-.568-11.708-1.532c-18.6-2.559-53.444-7.912-59.7-12.865-9.827-7.782,13.459-40.831,23.538-45.418S1326.334,359.271,1326.334,359.271Z" transform="translate(-1242.933 -281.657)"/><path class="f" d="M1897.478,198.562c1.68,8.188-74.41,43.559-74.41,43.559s1.385-3.743,3.636-9.6l.007-.01c8.226-21.407,28.044-71.085,34.556-70.4a7.9,7.9,0,0,1,2.274.676C1873.543,167.187,1895.931,191.022,1897.478,198.562Z" transform="translate(-1740.36 -162.103)"/><path class="m" d="M1887.693,170.067c-4.647,8.072-35.7,61.606-36.188,62.44,8.226-21.407,28.044-71.085,34.556-70.4a4.141,4.141,0,0,1,2.274.676C1889.522,163.651,1890.259,165.609,1887.693,170.067Z" transform="translate(-1765.154 -162.103)"/><path class="m" d="M1326.494,606.034h-.012c-18.6-2.559-53.444-7.912-59.7-12.865-2.824-7.954,4.5-8.6,9.835-9.162S1326.494,606.034,1326.494,606.034Z" transform="translate(-1254.789 -529.951)"/><path class="m" d="M1717.69,717.92s4.266-9.7,12.66-10.241c8.768-.561,13.748,10.241,13.748,10.241Z" transform="translate(-1648.481 -637.772)"/><rect class="n" width="123.406" height="17.686" transform="translate(0 80.158)"/><rect class="l" width="46.513" height="17.686" transform="translate(123.406 80.158)"/><path class="f" d="M1355.45,746.848s-24.17-7.656-40.48-2.594c-18.8,5.835-17.686,29.032-17.686,29.032l4.421-1.818,5.969,2.8s1.007-24.563,16.334-28C1337.262,743.293,1355.45,746.848,1355.45,746.848Z" transform="translate(-1281.918 -668.172)"/><rect class="j" width="9" height="128.572" transform="translate(52.132 80.158)"/></g><g transform="translate(10.329 29.485)"><rect class="m" width="8.714" height="25.101" transform="matrix(0.948, -0.318, 0.318, 0.948, 22.491, 14.841)"/><rect class="f" width="23.022" height="25.1" transform="translate(0.662 22.157) rotate(-18.529)"/><rect class="k" width="1.757" height="23.022" transform="translate(26.392 26.483) rotate(71.47)"/><rect class="o" width="1.757" height="8.714" transform="translate(34.655 23.714) rotate(71.47)"/><path class="k" d="M897.594,481.995s5.674-5.28,10.726-5.69l-.723.935.838.943a24.192,24.192,0,0,0-10.916,4.036Z" transform="translate(-881.132 -465.541)"/><g transform="translate(0.187)"><path class="k" d="M786.139,466.718s-.905.186-2.262.443c-3.6.68-10.383,1.851-11.847,1.322-2.3-.831-.042-8.392,1.539-9.867S786.139,466.718,786.139,466.718Z" transform="translate(-771.048 -449.984)"/><g transform="translate(15.112)"><path class="k" d="M900.089,396.944c.819,1.411-11.07,12.678-11.07,12.678s.024-.779.077-2v0c.195-4.473.781-14.9,2.029-15.173a1.548,1.548,0,0,1,.463-.016C893.713,392.621,899.335,395.644,900.089,396.944Z" transform="translate(-889.019 -392.399)"/><path class="o" d="M892.451,393.689c-.359,1.782-2.786,13.617-2.825,13.8.195-4.472.781-14.9,2.029-15.173a.808.808,0,0,1,.463-.016C892.391,392.389,892.649,392.705,892.451,393.689Z" transform="translate(-889.548 -392.274)"/></g><path class="o" d="M788.062,519.107h0c-3.6.68-10.383,1.851-11.847,1.322-1.016-1.3.3-1.872,1.252-2.306S788.062,519.107,788.062,519.107Z" transform="translate(-775.231 -501.931)"/><path class="o" d="M869.577,514.19s.188-2.061,1.708-2.681c1.588-.648,3.18,1.043,3.18,1.043Z" transform="translate(-856.955 -496.106)"/></g><rect class="p" width="24.089" height="3.452" transform="translate(0 22.379) rotate(-18.529)"/><rect class="q" width="9.08" height="3.452" transform="translate(22.841 14.724) rotate(-18.529)"/><path class="r" d="M810.045,529.225s-4.949.082-7.653,2.031c-3.118,2.246-1.472,6.471-1.472,6.471l.706-.611,1.278.148s-1.337-4.609,1.286-6.2A18.155,18.155,0,0,1,810.045,529.225Z" transform="translate(-796.527 -511.682)"/><rect class="k" width="1.757" height="25.317" transform="matrix(0.948, -0.318, 0.318, 0.948, 9.649, 19.145)"/></g><g transform="translate(260.925 44.917) rotate(43)"><rect class="m" width="7.927" height="22.832" transform="matrix(0.948, -0.318, 0.318, 0.948, 20.458, 13.5)"/><rect class="f" width="20.942" height="22.832" transform="translate(0.602 20.155) rotate(-18.529)"/><rect class="k" width="1.598" height="20.942" transform="translate(24.007 24.09) rotate(71.47)"/><rect class="o" width="1.598" height="7.927" transform="translate(31.523 21.571) rotate(71.47)"/><path class="k" d="M.068,5.176S5.229.372,9.824,0L9.167.851l.762.858A22.005,22.005,0,0,0,0,5.38Z" transform="translate(14.907 9.792)"/><g transform="translate(0.17 0)"><path class="k" d="M13.727,7.51s-.823.17-2.058.4C8.393,8.531,2.225,9.6.893,9.115-1.2,8.359.855,1.481,2.293.14S13.727,7.51,13.727,7.51Z" transform="translate(0 7.712)"/><g transform="translate(13.746 0)"><path class="k" d="M10.069,4.117C10.814,5.4,0,15.649,0,15.649s.022-.708.07-1.822v0C.248,9.757.781.275,1.916.023A1.409,1.409,0,0,1,2.337.009C4.269.185,9.384,2.935,10.069,4.117Z" transform="translate(0 0.017)"/><path class="o" d="M2.569,1.287C2.243,2.908.035,13.674,0,13.842.177,9.774.71.292,1.845.04A.735.735,0,0,1,2.266.025C2.515.1,2.75.392,2.569,1.287Z" transform="translate(0.071 0)"/></g><path class="o" d="M11.113.969h0C7.834,1.589,1.666,2.654.334,2.173-.59.993.607.47,1.473.075S11.113.969,11.113.969Z" transform="translate(0.559 14.655)"/><path class="o" d="M0,2.573A3.1,3.1,0,0,1,1.554.135C3-.455,4.446,1.083,4.446,1.083Z" transform="translate(11.481 13.876)"/></g><rect class="p" width="21.912" height="3.14" transform="translate(0 20.357) rotate(-18.529)"/><rect class="q" width="8.259" height="3.14" transform="translate(20.777 13.393) rotate(-18.529)"/><path class="r" d="M8.7,0s-4.5.075-6.962,1.847C-1.1,3.89.395,7.733.395,7.733l.642-.555L2.2,7.312S.983,3.12,3.369,1.676A16.515,16.515,0,0,1,8.7,0Z" transform="translate(3.601 15.958)"/><rect class="k" width="1.598" height="23.029" transform="matrix(0.948, -0.318, 0.318, 0.948, 8.777, 17.415)"/></g><g transform="translate(244.22 140.322)"><path class="k" d="M2618.156,1285.23q-.276.169-.562.326c-.065.036-.129.071-.193.1-.147.079-.294.154-.443.228a14.949,14.949,0,0,1-13.8-26.515q.287-.158.579-.3c.188-.094.379-.184.57-.268a14.924,14.924,0,0,1,4.487-1.206,14.951,14.951,0,0,1,9.359,27.634Z" transform="translate(-2595.427 -1257.514)"/><g transform="translate(1.411 1.484)"><path class="j" d="M2620.077,1296.342a13.627,13.627,0,1,1,6.563-1.695A13.632,13.632,0,0,1,2620.077,1296.342Zm-.024-26.432a12.81,12.81,0,1,0,11.228,6.627A12.82,12.82,0,0,0,2620.053,1269.911Z" transform="translate(-2606.439 -1269.098)"/></g><path class="j" d="M2646.651,1297.152l3,6.086,6.716.976-4.86,4.737,1.147,6.689-6.007-3.158-6.007,3.158,1.147-6.689-4.86-4.737,6.716-.976Z" transform="translate(-2631.615 -1292.075)"/></g><g transform="translate(263.079 116.018)"><path class="k" d="M2755.477,1083.424q-.156.1-.316.184l-.109.059c-.083.044-.167.087-.25.128a8.437,8.437,0,0,1-7.787-14.965c.108-.06.217-.117.326-.171s.214-.1.322-.151a8.424,8.424,0,0,1,2.532-.681,8.438,8.438,0,0,1,5.282,15.6Z" transform="translate(-2742.649 -1067.781)"/><g transform="translate(0.796 0.837)"><path class="j" d="M2756.561,1089.694a7.692,7.692,0,1,1,3.7-.957A7.693,7.693,0,0,1,2756.561,1089.694Zm-.014-14.918a7.23,7.23,0,1,0,6.337,3.74A7.233,7.233,0,0,0,2756.547,1074.777Z" transform="translate(-2748.863 -1074.318)"/></g><path class="j" d="M2771.559,1090.152l1.7,3.435,3.791.551-2.743,2.674.647,3.775-3.39-1.782-3.39,1.782.647-3.775-2.743-2.674,3.791-.551Z" transform="translate(-2763.073 -1087.287)"/></g><g transform="translate(119.205 11.309)"><path class="b" d="M1631.506,261.414q-.093.113-.19.224l-.067.074c-.051.056-.1.11-.155.164a6.759,6.759,0,0,1-9.872-9.23q.1-.111.2-.216t.2-.2a6.741,6.741,0,0,1,1.732-1.189,6.76,6.76,0,0,1,8.148,10.374Z" transform="translate(-1619.51 -250.383)"/><g transform="translate(0.66 0.653)"><path class="c" d="M1630.814,267.8a6.17,6.17,0,1,1,.363-.011Q1630.995,267.8,1630.814,267.8Zm.016-11.949c-.114,0-.227,0-.341.01a5.785,5.785,0,1,0,.341-.01Z" transform="translate(-1624.664 -255.483)"/></g><path class="c" d="M1639.983,270.18l2.2,2.143,3.01-.594-1.359,2.751,1.5,2.679-3.036-.443-2.086,2.25-.517-3.025-2.785-1.289,2.717-1.427Z" transform="translate(-1634.674 -267.644)"/></g><g transform="translate(47.502 102.714)"><rect class="s" width="22.703" height="65.393" transform="translate(61.797 40.798)"/><rect class="h" width="59.979" height="65.393" transform="translate(1.818 40.798)"/><rect class="c" width="4.577" height="59.979" transform="translate(61.797 72.787) rotate(90)"/><rect class="t" width="4.577" height="22.703" transform="translate(84.5 72.787) rotate(90)"/><path class="s" d="M1413.008,1234.448s18.388-8.346,31.206-5.175l-2.559,1.712,1.29,3.024a63.028,63.028,0,0,0-30.305.932Z" transform="translate(-1367.436 -1194.656)"/><g transform="translate(4.903)"><path class="u" d="M1135.561,1064.2s-2.391-.289-5.954-.779c-9.46-1.3-27.179-4.024-30.36-6.543-5-3.957,6.845-20.765,11.971-23.1S1135.561,1064.2,1135.561,1064.2Z" transform="translate(-1098.042 -1024.732)"/><path class="u" d="M1426.023,982.473c.854,4.164-37.842,22.152-37.842,22.152s.7-1.9,1.849-4.884l0-.005c4.184-10.887,14.262-36.151,17.574-35.8a4.015,4.015,0,0,1,1.156.344C1413.85,966.517,1425.236,978.638,1426.023,982.473Z" transform="translate(-1351.014 -963.931)"/><path class="s" d="M1421.047,967.981c-2.363,4.105-18.157,31.33-18.4,31.755,4.183-10.887,14.262-36.151,17.574-35.8a2.106,2.106,0,0,1,1.156.344C1421.977,964.718,1422.352,965.714,1421.047,967.981Z" transform="translate(-1363.624 -963.931)"/><path class="s" d="M1135.643,1189.7h-.006c-9.46-1.3-27.179-4.024-30.36-6.543-1.436-4.045,2.29-4.375,5-4.659S1135.643,1189.7,1135.643,1189.7Z" transform="translate(-1104.072 -1151.003)"/><path class="s" d="M1334.59,1246.6s2.169-4.935,6.439-5.208c4.459-.285,6.992,5.208,6.992,5.208Z" transform="translate(-1304.288 -1205.838)"/></g><rect class="t" width="62.759" height="8.994" transform="translate(0 40.798)"/><rect class="v" width="23.655" height="8.994" transform="translate(62.759 40.798)"/><path class="s" d="M1150.31,1261.565s-12.292-3.894-20.587-1.319c-9.561,2.967-8.994,14.765-8.994,14.765l2.249-.924,3.036,1.424s.512-12.492,8.307-14.241C1141.06,1259.757,1150.31,1261.565,1150.31,1261.565Z" transform="translate(-1112.914 -1221.52)"/><rect class="c" width="4.577" height="65.957" transform="translate(26.512 40.798)"/><g transform="translate(42.509 81.883)"><path class="b" d="M1413.036,1622.848q-.165.2-.341.4c-.039.044-.079.088-.119.131-.091.1-.183.2-.276.293a12.073,12.073,0,0,1-17.633-16.486c.118-.132.238-.261.36-.386s.239-.242.362-.358a12.04,12.04,0,0,1,3.093-2.125,12.075,12.075,0,0,1,14.555,18.531Z" transform="translate(-1391.609 -1603.143)"/><g transform="translate(1.179 1.167)"><path class="c" d="M1411.8,1634.256a11.015,11.015,0,1,1,.648-.019Q1412.124,1634.256,1411.8,1634.256Zm.028-21.343c-.2,0-.405.006-.609.017a10.33,10.33,0,1,0,.609-.017Z" transform="translate(-1400.816 -1612.255)"/></g><path class="c" d="M1428.179,1638.506l3.923,3.828,5.377-1.062-2.428,4.914,2.672,4.786-5.424-.791-3.726,4.02-.924-5.4-4.974-2.3,4.853-2.548Z" transform="translate(-1418.695 -1633.976)"/></g></g><path class="w" d="M.469,0H282.841a.469.469,0,0,1,.469.469v0a.469.469,0,0,1-.469.469H.469A.469.469,0,0,1,0,.469v0A.469.469,0,0,1,.469,0Z" transform="translate(0.101 208.73)"/><g transform="translate(141.842 121.342)"><path class="d" d="M1803.648,1145.636a6,6,0,0,1-3.53.953,5.435,5.435,0,0,1-2.792-1.5l-1.1,1.912s2.515,1.525,4.67,1.107a5.473,5.473,0,0,0,2.215-1.276A1.869,1.869,0,0,0,1803.648,1145.636Z" transform="translate(-1796.226 -1140.509)"/><path class="e" d="M1837.735,1110.491l2.763-1.145s-.379,5.743-5.125,7.5C1835.373,1116.844,1838.371,1112.913,1837.735,1110.491Z" transform="translate(-1830.358 -1109.346)"/></g><path class="f" d="M2001.735,1654.2a3.964,3.964,0,0,0,2.393,1.34s.158,1.495-.271,1.892c0,0-2.032-.371-2.521-1.114C2001.337,1656.318,2000.926,1654.536,2001.735,1654.2Z" transform="translate(-1833.129 -1463.062)"/><g transform="translate(147.235 166.175)"><path class="b" d="M1840.761,1465.5a5.1,5.1,0,0,1-1.077-2.913,4.616,4.616,0,0,1,1.055-2.476l-1.7-.783a6.687,6.687,0,0,0-.578,4.036,4.652,4.652,0,0,0,1.249,1.776A1.589,1.589,0,0,0,1840.761,1465.5Z" transform="translate(-1838.32 -1459.327)"/><path class="b" d="M1845.828,1494.552l1.18,2.249s-4.887.121-6.736-3.758C1840.273,1493.042,1843.828,1495.276,1845.828,1494.552Z" transform="translate(-1840.023 -1488.723)"/></g></g></g></svg>