<svg xmlns="http://www.w3.org/2000/svg" width="41.2" height="41.2" viewBox="0 0 41.2 41.2">
  <g id="checked_2_" data-name="checked (2)" transform="translate(0 0)">
    <circle id="Ellipse_1081" data-name="Ellipse 1081" cx="20.6" cy="20.6" r="20.6" transform="translate(0 0)" fill="#1bdb62"/>
    <g id="Group_9323" data-name="Group 9323" transform="translate(6.921 10.17)">
      <path id="Union_14" data-name="Union 14" d="M-8429.984-51.862l-8.254-8.319a2.429,2.429,0,0,1,0-3.378l1.883-1.885a2.436,2.436,0,0,1,3.38,0l4.669,4.705,10.8-10.748a2.43,2.43,0,0,1,3.378,0l1.885,1.885a2.429,2.429,0,0,1,0,3.378l-12.207,12.152a2.321,2.321,0,0,1-.27.325l-1.885,1.885a2.388,2.388,0,0,1-1.69.681A2.381,2.381,0,0,1-8429.984-51.862Z" transform="translate(8438.921 72.17)" fill="#fff" stroke="#1bdb62" stroke-width="4"/>
    </g>
  </g>
</svg>
