<svg xmlns="http://www.w3.org/2000/svg" width="33" height="33" viewBox="0 0 33 33"><defs><style>.a{fill:#fff;stroke:#1586c7;}.b{fill:#1586c7;stroke:#fff;stroke-width:0.2px;}.c{stroke:none;}.d{fill:none;}</style></defs><g transform="translate(-120 -590)"><g class="a" transform="translate(120 590)"><rect class="c" width="33" height="33" rx="6"/><rect class="d" x="0.5" y="0.5" width="32" height="32" rx="5.5"/></g><g transform="translate(126.557 567.676)"><g transform="translate(2.516 36.388)"><g transform="translate(0 0)"><path class="b" d="M76.373,211.786v9.728H72.7v-4.207a.668.668,0,0,0-.668-.668h-4.7a.668.668,0,0,0-.668.668v4.207H63.017v-9.728H61.681v10.4a.668.668,0,0,0,.668.668h4.986a.668.668,0,0,0,.668-.668v-4.207h3.361v4.207a.668.668,0,0,0,.668.668h5.009a.668.668,0,0,0,.668-.668v-10.4Z" transform="translate(-61.681 -211.786)"/></g></g><g transform="translate(0 28.931)"><g transform="translate(0 0)"><path class="b" d="M20.669,38.171l-9.683-9.06a.668.668,0,0,0-.908,0L.216,38.167a.668.668,0,0,0,.9.983l9.405-8.641,9.231,8.637a.668.668,0,0,0,.912-.975Z" transform="translate(0 -28.931)"/></g></g></g></g></svg>