<svg xmlns="http://www.w3.org/2000/svg" width="113.114" height="81.604" viewBox="0 0 113.114 81.604"><defs><style>.a,.c{fill:#0ea2c8;}.a{fill-rule:evenodd;}.b{fill:#1586c7;}</style></defs><path class="a" d="M43.306,15.163l.7-.109.109-.695.318.629.7-.11-.5.5.319.629-.627-.323-.5.5.114-.694Zm-3.279-2.418,1.167-.178L41.38,11.4l.529,1.053,1.167-.184-.838.831.536,1.051-1.05-.54-.833.833.187-1.164Zm-2.754-1.968.544-3.358L34.793,5.877v0l3.358-.517L38.681,2l1.533,3.036L43.572,4.5,41.159,6.9,42.7,9.929,39.678,8.373Zm9.288.686.12-.745-.671-.339.744-.116.118-.744.339.671.745-.116-.535.528.342.672-.67-.345Zm38.4.929a4.191,4.191,0,1,1,3.5-4.788A4.2,4.2,0,0,1,84.96,12.392Zm4.592,10.491h0l0-.016c-.012-.114-.025-.229-.039-.345l0-.032c-.014-.119-.031-.236-.049-.353l0-.022c-.017-.116-.037-.231-.056-.346l-.006-.026c-.021-.113-.043-.227-.067-.341l-.01-.045c-.023-.108-.048-.218-.075-.327L89.232,21c-.026-.114-.055-.227-.087-.341l-.011-.034c-.03-.113-.063-.224-.1-.336l-.007-.019c-.036-.114-.074-.228-.114-.342l-.009-.025c-.038-.113-.079-.225-.121-.338l0-.009,0-.013c-.044-.11-.089-.222-.134-.332l-.012-.026q-.071-.17-.149-.338l0-.012-.161-.333-.01-.019c-.055-.11-.114-.22-.172-.329l-.016-.028c-.057-.107-.118-.213-.181-.319l-.011-.018c-.065-.109-.133-.219-.2-.328l-.01-.014c-.142-.224-.291-.444-.452-.662l-.01-.013c-.079-.11-.165-.219-.248-.328a14.907,14.907,0,0,1,5.335,2.674c7.917,5.946,10.219,17.163,17.9,13.491-3.508,2.844-8.319.856-11.39-.832-4.308-2.367-3.3-3-5.538.245-3.113,4.507-7.273,14.8-8.034,16.457a10.427,10.427,0,0,0-2.676-1.672c.715-2.076,1.462-4.037,2.172-5.813C87.112,35.179,90.109,28.7,89.552,22.883ZM81.606,41.318c.92-2.776,1.9-5.649,2.81-8.784,2.8-9.677,1.946-18.7-10.293-18.926-6.256-.119-13.515,1.984-18.092,2.088-4.3.1-8.6-1.019-13.014-5.357,8.066,11.86,17.037,8.481,27.854,9.6h.006c.179.017.353.04.525.063,12.236,1.587,5.707,16.789,4.981,26.168a10.531,10.531,0,0,1,1.795-.209,10.33,10.33,0,0,1,1.91.117c.469-1.578.984-3.154,1.516-4.762ZM45.474,7.613l-.764.762.174-1.065-.963-.489,1.068-.168.168-1.065.487.964,1.067-.169-.766.76.489.963Z" transform="translate(2.868 -2)"/><path class="b" d="M11.785,46.322H7.8V56.858H4V46.322H0V43H11.785Z" transform="translate(0 1.38)"/><path class="b" d="M16.518,46.966,15.23,51.609h2.517ZM9.806,56.858l5.171-13.853h3.083l5.151,13.853h-4.02l-.839-2.711H14.664l-.819,2.711Z" transform="translate(0.808 1.38)"/><path class="b" d="M23.145,56.858V43h3.8V53.541h6.283v3.317Z" transform="translate(1.908 1.38)"/><path class="b" d="M43.617,53.541v3.317H33.744V43h9.7v3.317H37.549v1.951h5.034v3.083H37.549v2.186Z" transform="translate(2.781 1.38)"/><path class="b" d="M48.311,50.049v6.809h-3.8V43h2.966l5.561,7.044V43h3.805V56.858H53.813Z" transform="translate(3.668 1.38)"/><path class="b" d="M68.963,46.322h-3.98V56.858h-3.8V46.322h-4V43H68.963Z" transform="translate(4.713 1.38)"/><path class="b" d="M76.47,52.6a6.916,6.916,0,0,0-1.019-.061c-2.5.048-2.952,3.366.409,2.416.868-.246,1.413-.549,1.584-1.331.142-.651-.171-.908-.974-1.024m-.51-7.666a8.89,8.89,0,0,1,2.771.438,6.841,6.841,0,0,1,2.39,1.347,6.507,6.507,0,0,1,1.668,2.312,8.212,8.212,0,0,1,.625,3.356q0,.274-.029.722a7.78,7.78,0,0,1-.127.957,5.879,5.879,0,0,1-.3,1.034,3.49,3.49,0,0,1-.555.956,2.629,2.629,0,0,1-.879.693,2.807,2.807,0,0,1-1.268.264,2.643,2.643,0,0,1-.917-.137,1.783,1.783,0,0,1-.605-.351,1.47,1.47,0,0,1-.352-.469,1.971,1.971,0,0,1-.156-.468,5.252,5.252,0,0,1-1.512.995,4.691,4.691,0,0,1-1.9.371,3.925,3.925,0,0,1-1.4-.225,2.935,2.935,0,0,1-.517-5.1,3.6,3.6,0,0,1,1.22-.526,5.987,5.987,0,0,1,1.356-.156,4.342,4.342,0,0,1,1.287.156,5.528,5.528,0,0,1,.761.292,2.559,2.559,0,0,0-.1-.722,1.316,1.316,0,0,0-.331-.566,1.544,1.544,0,0,0-.634-.36,3.387,3.387,0,0,0-1.006-.127A4.528,4.528,0,0,0,74,49.831a2.744,2.744,0,0,0-1.025.586l-.625-1.893a5.083,5.083,0,0,1,1.619-.731,7.425,7.425,0,0,1,1.854-.225,4.1,4.1,0,0,1,2.067.613,2.805,2.805,0,0,1,1.151,1.035c.854,1.439.474,2.273.474,3.9,0,.286.013.572.019.858.02.907.477,1.476,1.088,1.476a.848.848,0,0,0,.732-.371,2.835,2.835,0,0,0,.41-.888,5.262,5.262,0,0,0,.185-1.045q.039-.526.039-.839a6.594,6.594,0,0,0-.429-2.409,5.459,5.459,0,0,0-1.23-1.9A5.637,5.637,0,0,0,78.4,46.748a6.893,6.893,0,0,0-2.556-.448,6.761,6.761,0,0,0-2.526.448,5.42,5.42,0,0,0-1.893,1.239,5.357,5.357,0,0,0-1.18,1.873,6.632,6.632,0,0,0-.41,2.371,6.908,6.908,0,0,0,.381,2.312,5.508,5.508,0,0,0,1.112,1.893,5.258,5.258,0,0,0,1.785,1.278,5.913,5.913,0,0,0,2.42.468,5.62,5.62,0,0,0,.917-.068c.273-.045.53-.1.771-.166a5.852,5.852,0,0,0,.693-.234c.221-.091.455-.183.7-.274L79,58.767a8.241,8.241,0,0,1-1.746.586,8.492,8.492,0,0,1-1.785.195,7.3,7.3,0,0,1-2.752-.517,6.728,6.728,0,0,1-2.254-1.473,6.854,6.854,0,0,1-1.522-2.312,7.991,7.991,0,0,1-.556-3.054,7.474,7.474,0,0,1,.625-3.151,6.729,6.729,0,0,1,1.668-2.273,6.979,6.979,0,0,1,2.409-1.376A8.97,8.97,0,0,1,75.96,44.934Z" transform="translate(5.637 1.539)"/><path class="c" d="M0,74.79,8.7,64.442H.394V59.988h14.2v3.8L6.419,74.135H14.75v4.454H0Z" transform="translate(0 2.779)"/><path class="c" d="M29.134,74.135v4.454H15.878v-18.6H28.9v4.454H20.986v2.62h6.759V71.2H20.986v2.934Z" transform="translate(1.309 2.779)"/><path class="c" d="M35.436,69.445v9.143H30.327v-18.6h3.982l7.466,9.457V59.988h5.108v18.6h-4.06Z" transform="translate(2.5 2.779)"/><path class="c" d="M59.938,66.078a14.486,14.486,0,0,0-1.625-.838,14.736,14.736,0,0,0-1.585-.59,5.738,5.738,0,0,0-1.717-.275,2.384,2.384,0,0,0-1.087.21.732.732,0,0,0-.406.707.813.813,0,0,0,.236.6,2.238,2.238,0,0,0,.681.432,8.549,8.549,0,0,0,1.087.38c.429.122.912.271,1.455.446a19.033,19.033,0,0,1,2.319.864,7.2,7.2,0,0,1,1.769,1.114,4.287,4.287,0,0,1,1.126,1.559,5.644,5.644,0,0,1,.393,2.227,5.856,5.856,0,0,1-.616,2.816,5.041,5.041,0,0,1-1.624,1.821,6.866,6.866,0,0,1-2.28.983,11.071,11.071,0,0,1-2.555.3,14.43,14.43,0,0,1-2.1-.157,18.328,18.328,0,0,1-2.135-.445,18.769,18.769,0,0,1-2.044-.682,12.989,12.989,0,0,1-1.821-.891l2.2-4.48A15.327,15.327,0,0,0,51.527,73.2a13.681,13.681,0,0,0,1.9.708,7.558,7.558,0,0,0,2.162.314A2.2,2.2,0,0,0,56.754,74a.683.683,0,0,0,.327-.59.84.84,0,0,0-.327-.668,2.984,2.984,0,0,0-.9-.485q-.576-.209-1.323-.419t-1.586-.5a13.764,13.764,0,0,1-2.122-.9,5.738,5.738,0,0,1-1.467-1.1,3.92,3.92,0,0,1-.852-1.4,5.479,5.479,0,0,1-.275-1.808,6.245,6.245,0,0,1,.563-2.724,5.591,5.591,0,0,1,1.533-1.966,6.859,6.859,0,0,1,2.214-1.192,8.44,8.44,0,0,1,2.634-.406,10,10,0,0,1,1.991.2,15.984,15.984,0,0,1,1.873.5q.9.3,1.691.655t1.415.668Z" transform="translate(3.908 2.767)"/><path class="c" d="M70.513,65.306l-1.73,6.236h3.379ZM61.5,78.588l6.942-18.6h4.14l6.916,18.6H74.1l-1.126-3.641H68.024l-1.1,3.641Z" transform="translate(5.069 2.779)"/><path class="c" d="M84.52,68.423h3.221a1.129,1.129,0,0,0,.878-.524,2.336,2.336,0,0,0,.407-1.467,2.107,2.107,0,0,0-.472-1.48,1.322,1.322,0,0,0-.943-.511H84.52ZM79.411,78.588v-18.6h8.54a5.652,5.652,0,0,1,2.516.564,6.5,6.5,0,0,1,1.978,1.467,6.839,6.839,0,0,1,1.3,2.07,6.218,6.218,0,0,1,.472,2.345,6.615,6.615,0,0,1-.708,3.025,6.147,6.147,0,0,1-1.965,2.293l4.192,6.838H89.969l-3.537-5.711H84.52v5.711Z" transform="translate(6.545 2.779)"/></svg>