<svg xmlns="http://www.w3.org/2000/svg" xmlns:xlink="http://www.w3.org/1999/xlink" width="1265.331" height="640.655" viewBox="0 0 1265.331 640.655"><defs><style>.a{fill:url(#a);}.b{fill:#cae5f0;}.c{fill:#89bfec;}.d{opacity:0.34;}</style><linearGradient id="a" x1="0.5" x2="0.5" y2="1" gradientUnits="objectBoundingBox"><stop offset="0" stop-color="#cae5f0"/><stop offset="0.281" stop-color="#f3f9fc"/><stop offset="1" stop-color="#fff"/></linearGradient></defs><g transform="translate(42.274)"><rect class="a" width="1200" height="600"/><g transform="translate(742.966 -13.973)"><path class="b" d="M469.3,67.854c1.762.793,3.518,1.622,5.311,2.351a2.229,2.229,0,1,0,.931-1.828c-1.761-.878-3.576-1.658-5.367-2.466q-.45-.2-.9-.414a13.529,13.529,0,0,0,.672-3.707c1.813.048,3.622.081,5.432.115a2.61,2.61,0,1,0-.276-2.615,2.557,2.557,0,0,0-.185.6q-2.526-.157-5.057-.3a13.7,13.7,0,0,0-.727-3.023q1.895-.671,3.779-1.354a2.646,2.646,0,1,0-.476-2.89,2.662,2.662,0,0,0-.231.988c-1.328.416-2.657.832-3.986,1.257a13.551,13.551,0,0,0-1.189-1.78q1.154-.961,2.3-1.93a1.9,1.9,0,1,0-1.554-1.241c-.725.537-1.451,1.073-2.175,1.616a13.575,13.575,0,0,0-2.633-1.911q1.554-3.073,3.086-6.158a2.611,2.611,0,1,0-1.642-.949q-1.62,3.134-3.234,6.27a13.692,13.692,0,0,0-1.635-.508c-.027-1.035-.1-2.064-.207-3.079a2.091,2.091,0,1,0-2.025-.723c.093,1.167.137,2.318.142,3.46a13.617,13.617,0,0,0-3.5.16c-.608-1.622-1.234-3.237-1.89-4.837a2.61,2.61,0,1,0-1.747.84q.78,2.266,1.63,4.513a13.674,13.674,0,0,0-2.855,1.349q-1.324-1.4-2.645-2.806c.007-.015.016-.029.023-.045a2.235,2.235,0,1,0-1.5,1.248q1.246,1.4,2.492,2.8a13.552,13.552,0,0,0-2.785,3.274c-1.836-.826-3.693-1.614-5.536-2.4a2.616,2.616,0,1,0-1.243,1.661c1.9.941,3.817,1.893,5.748,2.8a13.577,13.577,0,0,0-.964,4.732c-.5.126-1,.259-1.5.4a2.228,2.228,0,1,0,.207,2.191c.02-.044.035-.089.052-.133.455-.1.91-.2,1.364-.3a13.684,13.684,0,0,0,1.3,4.23q-2.646,1.485-5.284,2.972a2.236,2.236,0,1,0,.927,1.727q2.723-1.439,5.451-2.874a13.559,13.559,0,0,0,3.276,3.259c-1.021,2.225-1.985,4.473-2.846,6.73a2.611,2.611,0,1,0,1.93.683c1.053-2.023,2.041-4.11,2.979-6.221.059.027.116.058.176.084a13.588,13.588,0,0,0,3.779,1.082c-.014,1.787,0,3.569.036,5.343a2.61,2.61,0,1,0,2.679-.324,2.64,2.64,0,0,0-.623-.189c.087-1.566.162-3.138.213-4.716a13.611,13.611,0,0,0,3.31-.532q.435,1.137.89,2.262a2.1,2.1,0,1,0,1.76-.838q-.357-1.071-.732-2.14a13.647,13.647,0,0,0,3.339-2.177q1.755,2.314,3.535,4.6a2.612,2.612,0,1,0,1.4-1.438q-1.691-2.383-3.406-4.758a13.63,13.63,0,0,0,1.547-2.367C468.726,67.6,469.011,67.726,469.3,67.854Z"/><path class="c" d="M458.982,53.186a1.737,1.737,0,1,1-.871-2.3A1.737,1.737,0,0,1,458.982,53.186Z"/><path class="c" d="M458.667,57.863a.919.919,0,1,1-.46-1.216A.919.919,0,0,1,458.667,57.863Z"/><path class="c" d="M466.058,59.12a1.788,1.788,0,1,1-.9-2.365A1.788,1.788,0,0,1,466.058,59.12Z"/><path class="c" d="M458.989,68.094a1.124,1.124,0,1,1-.563-1.487A1.124,1.124,0,0,1,458.989,68.094Z"/><path class="c" d="M464.671,66.675a2.3,2.3,0,1,1-1.152-3.04A2.3,2.3,0,0,1,464.671,66.675Z"/><path class="c" d="M451.862,68.305a2.069,2.069,0,1,1-1.037-2.736A2.069,2.069,0,0,1,451.862,68.305Z"/><path class="c" d="M455.85,61.877a.766.766,0,1,1-.383-1.013A.765.765,0,0,1,455.85,61.877Z"/><path class="c" d="M450.254,57.883a1.226,1.226,0,1,1-.614-1.622A1.226,1.226,0,0,1,450.254,57.883Z"/></g><g class="d" transform="translate(-468.871 281.994)"><path class="b" d="M548.56,134.918c5.717,2.573,11.414,5.262,17.231,7.628a7.232,7.232,0,1,0,3.021-5.931c-5.713-2.849-11.6-5.379-17.413-8q-1.46-.662-2.92-1.343a43.89,43.89,0,0,0,2.18-12.027c5.882.156,11.751.263,17.623.373a8.469,8.469,0,1,0-.9-8.484,8.29,8.29,0,0,0-.6,1.943q-8.2-.511-16.407-.97a44.458,44.458,0,0,0-2.359-9.808q6.146-2.175,12.26-4.393a8.586,8.586,0,1,0-1.544-9.376,8.637,8.637,0,0,0-.75,3.205c-4.309,1.35-8.62,2.7-12.932,4.078a43.946,43.946,0,0,0-3.858-5.775q3.742-3.119,7.449-6.262a6.153,6.153,0,1,0-5.042-4.026c-2.352,1.742-4.708,3.481-7.057,5.243a44.047,44.047,0,0,0-8.542-6.2q5.042-9.972,10.012-19.979a8.47,8.47,0,1,0-5.327-3.079Q527.435,61.9,522.2,72.077a44.428,44.428,0,0,0-5.3-1.648c-.088-3.358-.321-6.7-.672-9.989a6.782,6.782,0,1,0-6.57-2.346c.3,3.786.445,7.52.461,11.226a44.176,44.176,0,0,0-11.346.519c-1.973-5.262-4-10.5-6.132-15.693a8.468,8.468,0,1,0-5.668,2.725q2.531,7.353,5.288,14.642a44.363,44.363,0,0,0-9.263,4.377q-4.3-4.555-8.581-9.1c.023-.049.052-.094.075-.146a7.251,7.251,0,1,0-4.883,4.049q4.044,4.531,8.085,9.087A43.967,43.967,0,0,0,468.654,90.4c-5.957-2.68-11.981-5.236-17.961-7.787A8.486,8.486,0,1,0,446.66,88c6.174,3.053,12.384,6.142,18.649,9.1a44.047,44.047,0,0,0-3.128,15.352c-1.625.409-3.241.84-4.854,1.282A7.227,7.227,0,1,0,458,120.84c.065-.143.114-.289.169-.432,1.476-.315,2.952-.639,4.425-.986a44.394,44.394,0,0,0,4.224,13.724q-8.585,4.818-17.143,9.642a7.256,7.256,0,1,0,3.008,5.6q8.833-4.667,17.685-9.324A43.989,43.989,0,0,0,481,149.641c-3.312,7.219-6.44,14.512-9.234,21.835a8.47,8.47,0,1,0,6.262,2.216c3.416-6.563,6.622-13.334,9.665-20.183.192.088.376.188.571.273a44.082,44.082,0,0,0,12.26,3.51c-.045,5.8.01,11.579.117,17.335a8.469,8.469,0,1,0,8.692-1.051,8.566,8.566,0,0,0-2.021-.613c.282-5.081.526-10.181.691-15.3a44.161,44.161,0,0,0,10.739-1.726q1.411,3.689,2.887,7.339a6.816,6.816,0,1,0,5.71-2.719q-1.158-3.475-2.375-6.943a44.279,44.279,0,0,0,10.833-7.063q5.694,7.509,11.469,14.924a8.475,8.475,0,1,0,4.555-4.665q-5.485-7.733-11.05-15.437a44.221,44.221,0,0,0,5.019-7.679C546.714,134.1,547.638,134.5,548.56,134.918Z" transform="translate(0 0)"/><path class="c" d="M466.437,58.686a5.636,5.636,0,1,1-2.826-7.452A5.634,5.634,0,0,1,466.437,58.686Z" transform="translate(48.663 28.643)"/><path class="c" d="M462.612,60.774a2.982,2.982,0,1,1-1.492-3.945A2.982,2.982,0,0,1,462.612,60.774Z" transform="translate(51.466 41.729)"/><path class="c" d="M473.731,64.784a5.8,5.8,0,1,1-2.907-7.673A5.8,5.8,0,0,1,473.731,64.784Z" transform="translate(64.326 41.798)"/><path class="c" d="M463.811,71.655a3.646,3.646,0,1,1-1.827-4.824A3.647,3.647,0,0,1,463.811,71.655Z" transform="translate(51.312 64.042)"/><path class="c" d="M474.536,73.955a7.458,7.458,0,1,1-3.737-9.863A7.459,7.459,0,0,1,474.536,73.955Z" transform="translate(59.021 57.138)"/><path class="c" d="M460.741,74.856a6.712,6.712,0,1,1-3.364-8.877A6.712,6.712,0,0,1,460.741,74.856Z" transform="translate(31.26 61.525)"/><path class="c" d="M459.138,64.3a2.485,2.485,0,1,1-1.242-3.287A2.483,2.483,0,0,1,459.138,64.3Z" transform="translate(45.801 51.223)"/><path class="c" d="M455.516,61.767a3.978,3.978,0,1,1-1.992-5.262A3.977,3.977,0,0,1,455.516,61.767Z" transform="translate(31.268 40.801)"/></g><g transform="translate(-476.252 -7.762)"><path class="b" d="M498.733,92.761c3.231,1.454,6.45,2.974,9.738,4.311a4.087,4.087,0,1,0,1.707-3.352c-3.229-1.61-6.557-3.04-9.841-4.521q-.825-.374-1.65-.759a24.8,24.8,0,0,0,1.232-6.8c3.324.088,6.641.149,9.96.211a4.786,4.786,0,1,0-.506-4.795,4.688,4.688,0,0,0-.339,1.1q-4.632-.289-9.272-.548a25.123,25.123,0,0,0-1.333-5.543q3.474-1.229,6.929-2.483a4.852,4.852,0,1,0-.873-5.3,4.882,4.882,0,0,0-.424,1.812c-2.435.763-4.872,1.525-7.308,2.3a24.843,24.843,0,0,0-2.18-3.264q2.115-1.763,4.21-3.539a3.477,3.477,0,1,0-2.849-2.275c-1.329.985-2.66,1.967-3.988,2.963a24.892,24.892,0,0,0-4.828-3.5q2.849-5.635,5.658-11.291a4.787,4.787,0,1,0-3.011-1.74q-2.97,5.745-5.93,11.5a25.109,25.109,0,0,0-3-.931c-.05-1.9-.182-3.784-.38-5.645a3.833,3.833,0,1,0-3.713-1.326c.171,2.14.251,4.25.26,6.344a24.966,24.966,0,0,0-6.412.293c-1.115-2.974-2.263-5.935-3.465-8.869a4.786,4.786,0,1,0-3.2,1.54q1.43,4.156,2.989,8.275a25.072,25.072,0,0,0-5.235,2.473q-2.429-2.574-4.85-5.145c.013-.028.029-.053.042-.083a4.1,4.1,0,1,0-2.759,2.288q2.285,2.561,4.569,5.136a24.848,24.848,0,0,0-5.106,6c-3.366-1.515-6.771-2.959-10.15-4.4a4.8,4.8,0,1,0-2.279,3.046c3.489,1.725,7,3.471,10.539,5.141a24.893,24.893,0,0,0-1.768,8.676c-.919.231-1.832.475-2.743.724a4.084,4.084,0,1,0,.38,4.017c.037-.081.064-.163.1-.244.834-.178,1.669-.361,2.5-.557a25.089,25.089,0,0,0,2.387,7.756q-4.852,2.723-9.688,5.449a4.1,4.1,0,1,0,1.7,3.167q4.992-2.638,9.995-5.27a24.861,24.861,0,0,0,6.007,5.975c-1.872,4.08-3.64,8.2-5.218,12.34a4.787,4.787,0,1,0,3.539,1.252c1.931-3.709,3.742-7.536,5.462-11.406.108.049.213.106.323.154a24.913,24.913,0,0,0,6.929,1.984c-.026,3.277.005,6.544.066,9.8a4.786,4.786,0,1,0,4.912-.594,4.84,4.84,0,0,0-1.142-.347c.16-2.871.3-5.754.391-8.647a24.957,24.957,0,0,0,6.069-.975q.8,2.085,1.632,4.147a3.852,3.852,0,1,0,3.227-1.537q-.655-1.964-1.342-3.924a25.024,25.024,0,0,0,6.122-3.992q3.218,4.244,6.482,8.434a4.789,4.789,0,1,0,2.574-2.637q-3.1-4.37-6.245-8.724a24.99,24.99,0,0,0,2.836-4.34C497.69,92.3,498.212,92.526,498.733,92.761Z"/><path class="c" d="M461.751,55.229a3.185,3.185,0,1,1-1.6-4.212A3.184,3.184,0,0,1,461.751,55.229Z" transform="translate(18.073 10.638)"/><path class="c" d="M460.132,58.944a1.685,1.685,0,1,1-.843-2.23A1.685,1.685,0,0,1,460.132,58.944Z" transform="translate(19.114 15.498)"/><path class="c" d="M468.908,61.223a3.279,3.279,0,1,1-1.643-4.336A3.279,3.279,0,0,1,468.908,61.223Z" transform="translate(23.89 15.523)"/><path class="c" d="M460.78,69.416a2.061,2.061,0,1,1-1.032-2.726A2.061,2.061,0,0,1,460.78,69.416Z" transform="translate(19.057 23.784)"/><path class="c" d="M468.335,69.379a4.215,4.215,0,1,1-2.112-5.574A4.215,4.215,0,0,1,468.335,69.379Z" transform="translate(21.92 21.22)"/><path class="c" d="M455.159,70.738a3.794,3.794,0,1,1-1.9-5.017A3.793,3.793,0,0,1,455.159,70.738Z" transform="translate(11.61 22.85)"/><path class="c" d="M457.071,62.778a1.4,1.4,0,1,1-.7-1.857A1.4,1.4,0,0,1,457.071,62.778Z" transform="translate(17.01 19.024)"/><path class="c" d="M452.208,59.325a2.248,2.248,0,1,1-1.126-2.974A2.248,2.248,0,0,1,452.208,59.325Z" transform="translate(11.612 15.153)"/></g><g transform="translate(680.022 148.738)"><path class="b" d="M466.356,65.367c1.615.727,3.225,1.487,4.869,2.155a2.044,2.044,0,1,0,.854-1.676c-1.614-.8-3.278-1.52-4.92-2.261q-.413-.187-.825-.38a12.4,12.4,0,0,0,.616-3.4c1.662.044,3.321.074,4.98.105a2.393,2.393,0,1,0-.253-2.4,2.345,2.345,0,0,0-.17.549q-2.316-.144-4.636-.274a12.563,12.563,0,0,0-.667-2.771q1.737-.615,3.464-1.241a2.426,2.426,0,1,0-.436-2.649,2.442,2.442,0,0,0-.212.906c-1.217.381-2.436.763-3.654,1.152a12.418,12.418,0,0,0-1.09-1.632q1.058-.881,2.1-1.769a1.739,1.739,0,1,0-1.425-1.138c-.665.492-1.33.984-1.994,1.481a12.447,12.447,0,0,0-2.414-1.752q1.425-2.818,2.829-5.645a2.393,2.393,0,1,0-1.505-.87q-1.485,2.873-2.965,5.748a12.556,12.556,0,0,0-1.5-.466c-.025-.949-.091-1.892-.19-2.823a1.917,1.917,0,1,0-1.856-.663c.085,1.07.126,2.125.13,3.172a12.483,12.483,0,0,0-3.206.147c-.557-1.487-1.131-2.968-1.733-4.434a2.393,2.393,0,1,0-1.6.77q.715,2.078,1.494,4.137a12.534,12.534,0,0,0-2.617,1.237q-1.214-1.287-2.425-2.572c.006-.014.015-.027.021-.041a2.049,2.049,0,1,0-1.38,1.144q1.143,1.28,2.285,2.568a12.424,12.424,0,0,0-2.553,3c-1.683-.757-3.386-1.48-5.075-2.2a2.4,2.4,0,1,0-1.14,1.523c1.745.863,3.5,1.735,5.27,2.571a12.448,12.448,0,0,0-.884,4.338c-.459.116-.916.237-1.371.362a2.042,2.042,0,1,0,.19,2.009c.018-.04.032-.082.048-.122.417-.089.834-.181,1.25-.279a12.544,12.544,0,0,0,1.194,3.878q-2.426,1.361-4.844,2.725a2.05,2.05,0,1,0,.85,1.583q2.5-1.319,5-2.635a12.431,12.431,0,0,0,3,2.988c-.936,2.04-1.82,4.1-2.609,6.17a2.393,2.393,0,1,0,1.769.626c.965-1.855,1.871-3.768,2.731-5.7.054.025.106.053.161.077a12.456,12.456,0,0,0,3.464.992c-.013,1.638,0,3.272.033,4.9a2.393,2.393,0,1,0,2.456-.3,2.421,2.421,0,0,0-.571-.173c.08-1.436.148-2.877.2-4.323a12.479,12.479,0,0,0,3.035-.488q.4,1.042.816,2.074a1.926,1.926,0,1,0,1.613-.768q-.327-.982-.671-1.962a12.511,12.511,0,0,0,3.061-2q1.609,2.122,3.241,4.217a2.395,2.395,0,1,0,1.287-1.318q-1.55-2.185-3.122-4.362a12.5,12.5,0,0,0,1.418-2.17C465.834,65.135,466.1,65.25,466.356,65.367Z" transform="translate(0 0)"/><path class="c" d="M458.706,52.982a1.593,1.593,0,1,1-.8-2.106A1.592,1.592,0,0,1,458.706,52.982Z" transform="translate(-1.805 -1.062)"/><path class="c" d="M458.521,57.755a.843.843,0,1,1-.422-1.115A.843.843,0,0,1,458.521,57.755Z" transform="translate(-1.909 -1.548)"/><path class="c" d="M465.773,58.91a1.639,1.639,0,1,1-.821-2.168A1.639,1.639,0,0,1,465.773,58.91Z" transform="translate(-2.386 -1.55)"/><path class="c" d="M458.81,67.962a1.03,1.03,0,1,1-.516-1.363A1.031,1.031,0,0,1,458.81,67.962Z" transform="translate(-1.903 -2.375)"/><path class="c" d="M464.305,66.405a2.107,2.107,0,1,1-1.056-2.787A2.108,2.108,0,0,1,464.305,66.405Z" transform="translate(-2.189 -2.119)"/><path class="c" d="M451.533,68.062a1.9,1.9,0,1,1-.951-2.508A1.9,1.9,0,0,1,451.533,68.062Z" transform="translate(-1.159 -2.282)"/><path class="c" d="M455.728,61.787a.7.7,0,1,1-.351-.929A.7.7,0,0,1,455.728,61.787Z" transform="translate(-1.699 -1.9)"/><path class="c" d="M450.059,57.739a1.124,1.124,0,1,1-.563-1.487A1.124,1.124,0,0,1,450.059,57.739Z" transform="translate(-1.16 -1.513)"/></g><g transform="translate(648.748 516.894)"><path class="b" d="M498.733,92.761c3.231,1.454,6.45,2.974,9.738,4.311a4.087,4.087,0,1,0,1.707-3.352c-3.229-1.61-6.557-3.04-9.841-4.521q-.825-.374-1.65-.759a24.8,24.8,0,0,0,1.232-6.8c3.324.088,6.641.149,9.96.211a4.786,4.786,0,1,0-.506-4.795,4.688,4.688,0,0,0-.339,1.1q-4.632-.289-9.272-.548a25.123,25.123,0,0,0-1.333-5.543q3.474-1.229,6.929-2.483a4.852,4.852,0,1,0-.873-5.3,4.882,4.882,0,0,0-.424,1.812c-2.435.763-4.872,1.525-7.308,2.3a24.843,24.843,0,0,0-2.18-3.264q2.115-1.763,4.21-3.539a3.477,3.477,0,1,0-2.849-2.275c-1.329.985-2.66,1.967-3.988,2.963a24.892,24.892,0,0,0-4.828-3.5q2.849-5.635,5.658-11.291a4.787,4.787,0,1,0-3.011-1.74q-2.97,5.745-5.93,11.5a25.109,25.109,0,0,0-3-.931c-.05-1.9-.182-3.784-.38-5.645a3.833,3.833,0,1,0-3.713-1.326c.171,2.14.251,4.25.26,6.344a24.966,24.966,0,0,0-6.412.293c-1.115-2.974-2.263-5.935-3.465-8.869a4.786,4.786,0,1,0-3.2,1.54q1.43,4.156,2.989,8.275a25.072,25.072,0,0,0-5.235,2.473q-2.429-2.574-4.85-5.145c.013-.028.029-.053.042-.083a4.1,4.1,0,1,0-2.759,2.288q2.285,2.561,4.569,5.136a24.848,24.848,0,0,0-5.106,6c-3.366-1.515-6.771-2.959-10.15-4.4a4.8,4.8,0,1,0-2.279,3.046c3.489,1.725,7,3.471,10.539,5.141a24.893,24.893,0,0,0-1.768,8.676c-.919.231-1.832.475-2.743.724a4.084,4.084,0,1,0,.38,4.017c.037-.081.064-.163.1-.244.834-.178,1.669-.361,2.5-.557a25.089,25.089,0,0,0,2.387,7.756q-4.852,2.723-9.688,5.449a4.1,4.1,0,1,0,1.7,3.167q4.992-2.638,9.995-5.27a24.861,24.861,0,0,0,6.007,5.975c-1.872,4.08-3.64,8.2-5.218,12.34a4.787,4.787,0,1,0,3.539,1.252c1.931-3.709,3.742-7.536,5.462-11.406.108.049.213.106.323.154a24.913,24.913,0,0,0,6.929,1.984c-.026,3.277.005,6.544.066,9.8a4.786,4.786,0,1,0,4.912-.594,4.84,4.84,0,0,0-1.142-.347c.16-2.871.3-5.754.391-8.647a24.957,24.957,0,0,0,6.069-.975q.8,2.085,1.632,4.147a3.852,3.852,0,1,0,3.227-1.537q-.655-1.964-1.342-3.924a25.024,25.024,0,0,0,6.122-3.992q3.218,4.244,6.482,8.434a4.789,4.789,0,1,0,2.574-2.637q-3.1-4.37-6.245-8.724a24.99,24.99,0,0,0,2.836-4.34C497.69,92.3,498.212,92.526,498.733,92.761Z"/><path class="c" d="M461.751,55.229a3.185,3.185,0,1,1-1.6-4.212A3.184,3.184,0,0,1,461.751,55.229Z" transform="translate(18.073 10.638)"/><path class="c" d="M460.132,58.944a1.685,1.685,0,1,1-.843-2.23A1.685,1.685,0,0,1,460.132,58.944Z" transform="translate(19.114 15.498)"/><path class="c" d="M468.908,61.223a3.279,3.279,0,1,1-1.643-4.336A3.279,3.279,0,0,1,468.908,61.223Z" transform="translate(23.89 15.523)"/><path class="c" d="M460.78,69.416a2.061,2.061,0,1,1-1.032-2.726A2.061,2.061,0,0,1,460.78,69.416Z" transform="translate(19.057 23.784)"/><path class="c" d="M468.335,69.379a4.215,4.215,0,1,1-2.112-5.574A4.215,4.215,0,0,1,468.335,69.379Z" transform="translate(21.92 21.22)"/><path class="c" d="M455.159,70.738a3.794,3.794,0,1,1-1.9-5.017A3.793,3.793,0,0,1,455.159,70.738Z" transform="translate(11.61 22.85)"/><path class="c" d="M457.071,62.778a1.4,1.4,0,1,1-.7-1.857A1.4,1.4,0,0,1,457.071,62.778Z" transform="translate(17.01 19.024)"/><path class="c" d="M452.208,59.325a2.248,2.248,0,1,1-1.126-2.974A2.248,2.248,0,0,1,452.208,59.325Z" transform="translate(11.612 15.153)"/></g><g transform="translate(-83.143 148.738)"><path class="b" d="M463.634,63.064c1.48.666,2.954,1.362,4.46,1.974a1.872,1.872,0,1,0,.782-1.535c-1.479-.737-3-1.392-4.507-2.071q-.378-.171-.756-.348a11.362,11.362,0,0,0,.564-3.113c1.522.04,3.041.068,4.561.1a2.192,2.192,0,1,0-.232-2.2,2.147,2.147,0,0,0-.155.5q-2.121-.132-4.246-.251a11.5,11.5,0,0,0-.61-2.538q1.591-.563,3.173-1.137a2.222,2.222,0,1,0-.4-2.427,2.235,2.235,0,0,0-.194.83c-1.115.349-2.231.7-3.347,1.056a11.383,11.383,0,0,0-1-1.495q.969-.807,1.928-1.621a1.593,1.593,0,1,0-1.3-1.042c-.609.451-1.218.9-1.826,1.357a11.4,11.4,0,0,0-2.211-1.6q1.3-2.581,2.591-5.171a2.192,2.192,0,1,0-1.379-.8q-1.36,2.631-2.716,5.265a11.5,11.5,0,0,0-1.373-.427c-.023-.869-.083-1.733-.174-2.585a1.755,1.755,0,1,0-1.7-.607c.078.98.115,1.946.119,2.905a11.434,11.434,0,0,0-2.936.134c-.51-1.362-1.036-2.718-1.587-4.062a2.192,2.192,0,1,0-1.467.705q.655,1.9,1.369,3.79a11.483,11.483,0,0,0-2.4,1.133q-1.112-1.179-2.221-2.356c.006-.013.013-.024.019-.038a1.877,1.877,0,1,0-1.264,1.048q1.047,1.173,2.093,2.352a11.378,11.378,0,0,0-2.339,2.749c-1.542-.694-3.1-1.355-4.649-2.015a2.2,2.2,0,1,0-1.044,1.395c1.6.79,3.205,1.59,4.827,2.355a11.4,11.4,0,0,0-.809,3.973c-.421.106-.839.217-1.256.332a1.87,1.87,0,1,0,.174,1.84c.017-.037.029-.075.044-.112.382-.081.764-.165,1.145-.255a11.493,11.493,0,0,0,1.093,3.552q-2.222,1.247-4.437,2.5a1.878,1.878,0,1,0,.778,1.45q2.286-1.208,4.577-2.413a11.385,11.385,0,0,0,2.751,2.737c-.857,1.868-1.667,3.756-2.39,5.651a2.192,2.192,0,1,0,1.621.574c.884-1.7,1.714-3.451,2.5-5.224.05.023.1.049.148.071a11.409,11.409,0,0,0,3.173.909c-.012,1.5,0,3,.03,4.487a2.192,2.192,0,1,0,2.25-.272,2.217,2.217,0,0,0-.523-.159c.073-1.315.136-2.635.179-3.96a11.429,11.429,0,0,0,2.779-.447q.365.955.747,1.9a1.764,1.764,0,1,0,1.478-.7q-.3-.9-.615-1.8a11.46,11.46,0,0,0,2.8-1.828q1.474,1.944,2.968,3.863a2.193,2.193,0,1,0,1.179-1.207q-1.42-2-2.86-4a11.447,11.447,0,0,0,1.3-1.988C463.156,62.852,463.4,62.957,463.634,63.064Z" transform="translate(0 0)"/><path class="c" d="M458.45,52.793a1.459,1.459,0,1,1-.731-1.929A1.458,1.458,0,0,1,458.45,52.793Z" transform="translate(-3.476 -2.046)"/><path class="c" d="M458.385,57.655A.772.772,0,1,1,458,56.634.772.772,0,0,1,458.385,57.655Z" transform="translate(-3.676 -2.98)"/><path class="c" d="M465.51,58.716a1.5,1.5,0,1,1-.752-1.986A1.5,1.5,0,0,1,465.51,58.716Z" transform="translate(-4.594 -2.985)"/><path class="c" d="M458.645,67.84a.944.944,0,1,1-.473-1.249A.944.944,0,0,1,458.645,67.84Z" transform="translate(-3.665 -4.574)"/><path class="c" d="M463.966,66.155A1.93,1.93,0,1,1,463,63.6,1.931,1.931,0,0,1,463.966,66.155Z" transform="translate(-4.215 -4.081)"/><path class="c" d="M451.228,67.837a1.737,1.737,0,1,1-.871-2.3A1.737,1.737,0,0,1,451.228,67.837Z" transform="translate(-2.233 -4.394)"/><path class="c" d="M455.615,61.7a.643.643,0,1,1-.322-.851A.643.643,0,0,1,455.615,61.7Z" transform="translate(-3.271 -3.658)"/><path class="c" d="M449.878,57.606a1.03,1.03,0,1,1-.516-1.362A1.029,1.029,0,0,1,449.878,57.606Z" transform="translate(-2.233 -2.914)"/></g></g></svg>