<svg xmlns="http://www.w3.org/2000/svg" xmlns:xlink="http://www.w3.org/1999/xlink" width="32" height="32" viewBox="0 0 32 32"><defs><style>.a{fill:#feedee;}.b{fill:url(#a);}.c{fill:url(#d);}.d{filter:url(#z);}.e{filter:url(#w);}.f{filter:url(#t);}.g{filter:url(#q);}.h{filter:url(#n);}.i{filter:url(#k);}.j{filter:url(#h);}.k{filter:url(#e);}.l{filter:url(#b);}</style><linearGradient id="a" x1="0.084" y1="0.183" x2="0.881" y2="0.864" gradientUnits="objectBoundingBox"><stop offset="0" stop-color="#fd7424"/><stop offset="1" stop-color="#ff3f61"/></linearGradient><filter id="b" x="3.5" y="7.5" width="25.09" height="19.263" filterUnits="userSpaceOnUse"><feOffset dy="1" input="SourceAlpha"/><feGaussianBlur stdDeviation="0.5" result="c"/><feFlood flood-color="#ff885b"/><feComposite operator="in" in2="c"/><feComposite in="SourceGraphic"/></filter><linearGradient id="d" x1="0.5" x2="0.5" y2="1" gradientUnits="objectBoundingBox"><stop offset="0" stop-color="#fff"/><stop offset="1" stop-color="#ffc4b1"/></linearGradient><filter id="e" x="18.372" y="9.502" width="4.134" height="15.146" filterUnits="userSpaceOnUse"><feOffset dy="1" input="SourceAlpha"/><feGaussianBlur stdDeviation="0.5" result="f"/><feFlood flood-opacity="0.102"/><feComposite operator="in" in2="f"/><feComposite in="SourceGraphic"/></filter><filter id="h" x="13.203" y="14.146" width="4.17" height="4.787" filterUnits="userSpaceOnUse"><feOffset dy="1" input="SourceAlpha"/><feGaussianBlur stdDeviation="0.5" result="i"/><feFlood flood-opacity="0.102"/><feComposite operator="in" in2="i"/><feComposite in="SourceGraphic"/></filter><filter id="k" x="13.203" y="11.644" width="4.17" height="4.787" filterUnits="userSpaceOnUse"><feOffset dy="1" input="SourceAlpha"/><feGaussianBlur stdDeviation="0.5" result="l"/><feFlood flood-opacity="0.102"/><feComposite operator="in" in2="l"/><feComposite in="SourceGraphic"/></filter><filter id="n" x="14.798" y="11.897" width="4.105" height="4.534" filterUnits="userSpaceOnUse"><feOffset dy="1" input="SourceAlpha"/><feGaussianBlur stdDeviation="0.5" result="o"/><feFlood flood-opacity="0.102"/><feComposite operator="in" in2="o"/><feComposite in="SourceGraphic"/></filter><filter id="q" x="11.674" y="11.897" width="4.105" height="4.534" filterUnits="userSpaceOnUse"><feOffset dy="1" input="SourceAlpha"/><feGaussianBlur stdDeviation="0.5" result="r"/><feFlood flood-opacity="0.102"/><feComposite operator="in" in2="r"/><feComposite in="SourceGraphic"/></filter><filter id="t" x="9.5" y="9.5" width="11.577" height="15.15" filterUnits="userSpaceOnUse"><feOffset dy="1" input="SourceAlpha"/><feGaussianBlur stdDeviation="0.5" result="u"/><feFlood flood-opacity="0.102"/><feComposite operator="in" in2="u"/><feComposite in="SourceGraphic"/></filter><filter id="w" x="14.798" y="14.146" width="4.105" height="4.534" filterUnits="userSpaceOnUse"><feOffset dy="1" input="SourceAlpha"/><feGaussianBlur stdDeviation="0.5" result="x"/><feFlood flood-opacity="0.102"/><feComposite operator="in" in2="x"/><feComposite in="SourceGraphic"/></filter><filter id="z" x="11.674" y="14.146" width="4.105" height="4.534" filterUnits="userSpaceOnUse"><feOffset dy="1" input="SourceAlpha"/><feGaussianBlur stdDeviation="0.5" result="aa"/><feFlood flood-opacity="0.102"/><feComposite operator="in" in2="aa"/><feComposite in="SourceGraphic"/></filter></defs><rect class="a" width="32" height="32" rx="6"/><g transform="translate(5 8)"><g class="l" transform="matrix(1, 0, 0, 1, -5, -8)"><path class="b" d="M8.127,0h5.835a8.132,8.132,0,0,1,0,16.263H8.127A8.132,8.132,0,0,1,8.127,0Z" transform="translate(5 8)"/></g><g class="k" transform="matrix(1, 0, 0, 1, -5, -8)"><path class="c" d="M417.4.094a1.9,1.9,0,0,1,.419,1.192v9.763a1.9,1.9,0,0,1-.419,1.192,1.205,1.205,0,0,0,1.134-1.2V1.294A1.205,1.205,0,0,0,417.4.094Z" transform="translate(-397.53 9.91)"/></g><g class="j" transform="matrix(1, 0, 0, 1, -5, -8)"><path class="c" d="M200.443,195a4.482,4.482,0,0,0,.245,1.284c.146.383.3.5.34.5s.194-.119.34-.5a4.482,4.482,0,0,0,.245-1.284Z" transform="translate(-185.74 -180.35)"/></g><g class="i" transform="matrix(1, 0, 0, 1, -5, -8)"><path class="c" d="M201.028,90c-.04,0-.194.119-.34.5a4.481,4.481,0,0,0-.245,1.284h1.17a4.482,4.482,0,0,0-.245-1.284C201.222,90.119,201.068,90,201.028,90Z" transform="translate(-185.74 -77.86)"/></g><g class="h" transform="matrix(1, 0, 0, 1, -5, -8)"><path class="c" d="M267.668,102.155h.813a2.15,2.15,0,0,0-1.1-1.534A5.187,5.187,0,0,1,267.668,102.155Z" transform="translate(-251.08 -88.22)"/></g><g class="g" transform="matrix(1, 0, 0, 1, -5, -8)"><path class="c" d="M137.07,102.155a5.187,5.187,0,0,1,.291-1.534,2.15,2.15,0,0,0-1.1,1.534Z" transform="translate(-123.08 -88.22)"/></g><g class="f" transform="matrix(1, 0, 0, 1, -5, -8)"><path class="c" d="M52.358,0H45V12.15h7.358a1.212,1.212,0,0,0,1.219-1.2V1.2A1.212,1.212,0,0,0,52.358,0Zm-2,10.363H48.216V9.649H50.36Zm.715-1.429H47.5V8.219h3.574ZM49.288,7.147a2.859,2.859,0,1,1,2.859-2.859A2.862,2.862,0,0,1,49.288,7.147Z" transform="translate(-34 10)"/></g><g class="e" transform="matrix(1, 0, 0, 1, -5, -8)"><path class="c" d="M267.668,195a5.187,5.187,0,0,1-.291,1.534,2.15,2.15,0,0,0,1.1-1.534Z" transform="translate(-251.08 -180.35)"/></g><g class="d" transform="matrix(1, 0, 0, 1, -5, -8)"><path class="c" d="M137.07,195h-.813a2.15,2.15,0,0,0,1.1,1.534A5.187,5.187,0,0,1,137.07,195Z" transform="translate(-123.08 -180.35)"/></g></g></svg>