<svg xmlns="http://www.w3.org/2000/svg" width="148.438" height="57.69" viewBox="0 0 148.438 57.69">
  <g id="Good_Afternoon" data-name="Good Afternoon" transform="translate(-41.066 -151.965)">
    <g id="Group_8825" data-name="Group 8825" transform="translate(124.8 159.185)">
      <path id="Path_36733" data-name="Path 36733" d="M45.247,74.041c.243.165.529.289.762.441a16.427,16.427,0,0,1,1.4,1.2,14.87,14.87,0,0,0,2.931,1.988c1.056.494,2.157.948,3.171,1.359a12.633,12.633,0,0,1,4.442,2.354,7.633,7.633,0,0,1,1.014,1.2,1.363,1.363,0,0,1-.984,2.265,19.677,19.677,0,0,0-1.511,2.154c-.478.743-1.037,1.415-1.547,2.17-.371.548-.661,1.19-1.016,1.8-.709,1.219-1.5,2.409-2.264,3.577-.394.6-.83,1.194-1.158,1.778-.242.431-.3,1.087-.8,1.315-.608.277-1.364-.364-1.889-.63-.675-.343-1.181-.729-1.73-1.05-1.237-.721-2.332-1.262-3.555-1.925-1.624-.881-3.727-1.584-5.245-3.079-.421-.415-1.315-1.523-1.137-2.053.073-.216.431-.393.574-.561a9.058,9.058,0,0,0,.941-1.681c.739-1.455,1.466-2.884,2.258-4.269a7.652,7.652,0,0,0,.533-.847c.128-.338.112-.722.223-1.055a9.651,9.651,0,0,1,1.441-2.6c.11-.507.436-.843.575-1.431.195-.821-.117-2,.588-2.566C44.022,73.281,44.691,73.664,45.247,74.041Z" transform="translate(-36.111 -73.57)" fill="#1d262d" fill-rule="evenodd"/>
      <path id="Path_36734" data-name="Path 36734" d="M54.386,105.041c-.1.05-.1.144-.116.226a.285.285,0,0,0,.5.039A.334.334,0,0,0,54.386,105.041Z" transform="translate(-36.489 -96.551)" fill="#fff" fill-rule="evenodd"/>
      <path id="Path_36735" data-name="Path 36735" d="M52.208,95.127a9.293,9.293,0,0,1,.267-3.768,3.97,3.97,0,0,1,3.871-2.993,4.554,4.554,0,0,1,1.793.8,13,13,0,0,1,1.847,2.474c-.845-.506-1.219-1.6-1.946-2.212a4.653,4.653,0,0,0-1.633-.832,3.791,3.791,0,0,0-2.007.465,4.479,4.479,0,0,0-1.624,2.291,8.524,8.524,0,0,0-.042,4.753,14.853,14.853,0,0,0,.616,1.375,7.05,7.05,0,0,1,.415,1.508,8.428,8.428,0,0,0,.32,2.072,4.962,4.962,0,0,0,3.87.786c.874-.2,1.831-.653,2.843-.926a9.444,9.444,0,0,0,3.083-1.164,4.6,4.6,0,0,0,1.282-3.441,5.132,5.132,0,0,0-.248-.845,2.783,2.783,0,0,1,.116,2.684,3.347,3.347,0,0,1-2.037,2.433c-1.1.464-2.5.727-3.884,1.219-2.109.748-3.613.889-4.775-.38.3,1.112,1.43,1.132,2.346,1.164.743.027,1.484-.04,2.1-.07a9.528,9.528,0,0,0,2.177-.28,10.432,10.432,0,0,0,2.327-.912,5.451,5.451,0,0,0,2.375-5.364,4.472,4.472,0,0,0-3.479-3.306c-.2-.046-.395.03-.62-.027a2.34,2.34,0,0,1-1-.592,7.509,7.509,0,0,1-.425-.852c-.879-1.593-1.49-2.754-2.862-3.191a5.1,5.1,0,0,0-3.987.7,5.3,5.3,0,0,0-.857,1.383A5.686,5.686,0,0,0,52.208,95.127Zm10.977-.7c-.769-.555-1.825-.772-2.379-1.627.81.629,1.737.953,2.54,1.6C63.305,94.5,63.268,94.41,63.185,94.423Zm-6.2-4.043a4.371,4.371,0,0,0-2.2.509c1.214-1.419,3.424-.555,4.167.479A6.792,6.792,0,0,0,56.987,90.38Zm1.764,5.681a3.837,3.837,0,0,1-1.435.774,3.48,3.48,0,0,1-2.372-.545,2.782,2.782,0,0,1-1.2-2.677,5.484,5.484,0,0,1,.6-1.269,2.55,2.55,0,0,1,.866-1.17,2.964,2.964,0,0,1,2.221-.083,3.168,3.168,0,0,1,1.97,2.071A3.017,3.017,0,0,1,58.751,96.062ZM55.7,97.777a4.933,4.933,0,0,1-2.1-1.58c-1.18-1.754-.4-3.3.346-4.367-.46,1.094-1.288,2.341-.363,3.941a4.539,4.539,0,0,0,2.2,1.708,3.553,3.553,0,0,0,3.471-1.946c.032,0,.072-.031.089,0A3.483,3.483,0,0,1,55.7,97.777Z" transform="translate(-46.772 -84.008)" fill="#fff" fill-rule="evenodd"/>
      <path id="Path_36736" data-name="Path 36736" d="M77.147,104.364c-.28-1.124.752-3.038,2.186-2.587a1.959,1.959,0,0,0-1.987,1.672,2.643,2.643,0,0,0,.144,1.2,2.335,2.335,0,0,0,1.206.85,2.419,2.419,0,0,0,1.817-.6c.7-.737.511-2.034-.367-3.05a2.17,2.17,0,0,1-.013,3.655,2.094,2.094,0,0,1-2.524-.3c.121.411.879.789,1.33.837a2.93,2.93,0,0,0,1.524-.379,2.4,2.4,0,0,0-.793-4.292,2.244,2.244,0,0,0-1.509.025,4.246,4.246,0,0,0-1.309,2.02A.923.923,0,0,0,77.147,104.364Z" transform="translate(-69.258 -93.779)" fill="#f93" fill-rule="evenodd"/>
      <path id="Path_36737" data-name="Path 36737" d="M38.373,75.783c-.018.189.236.192.326.245,1.568.911,3.135,2.078,4.695,3.109.558.37,1.075.827,1.69,1.154a32.79,32.79,0,0,0,3.679,1.523,17.95,17.95,0,0,1,2.713,1.3c.643.387,1.763,1.007,1.648,2.128.3-.395-.4-1.464-.895-1.9a12.042,12.042,0,0,0-3.379-1.918c-1.131-.466-2.3-.779-3.562-1.358A15.28,15.28,0,0,1,42,77.978a25.851,25.851,0,0,0-2.372-1.8C39.056,75.8,38.992,75.556,38.373,75.783Z" transform="translate(-30.629 -75.123)" fill="#844947" fill-rule="evenodd"/>
      <path id="Path_36738" data-name="Path 36738" d="M39.865,79.785c-.075.041-.073-.121-.117-.164-.069.123-.019.292-.071.422,2.341-.8,4.776-.418,5.941,1.726.632,1.161,1.053,2.575,2.1,2.839.371.094.715.069,1.075.17a4.648,4.648,0,0,1,3.294,3.476c.075.356-.006.7.1,1.086a6.563,6.563,0,0,1,1.994-2.24,11.991,11.991,0,0,0-1.9,2.634c-.032.07-.161.267-.064.246a10.745,10.745,0,0,1,2.414-2.949c.479-.425.178-1.324-.436-1.846a7.9,7.9,0,0,0-.883-.517c-2.012-1.185-4.27-1.659-6.375-2.791-1.687-.907-3.357-2.276-5.089-3.41-.265-.174-.475-.333-.864-.569-.165-.1-.7-.484-.886-.428C39.329,77.7,40.108,79.353,39.865,79.785Zm12.512,6.6c-.021-.024-.033-.071-.068-.056a.311.311,0,0,1,.356-.464C52.855,86.143,52.663,86.381,52.378,86.385Zm-.514-.856a.3.3,0,0,1-.186-.221C51.829,84.864,52.4,85.39,51.864,85.529Zm-.263.77a.232.232,0,0,1,.054-.459A.251.251,0,0,1,51.6,86.3ZM50.189,85.28c-.253-.564.846-.991.969-.261C51.259,85.614,50.389,85.726,50.189,85.28Zm-1.266-1.952a.326.326,0,0,1,.253-.114C49.54,83.494,49.025,83.785,48.923,83.328Z" transform="translate(-32.645 -76.414)" fill="#ffc878" fill-rule="evenodd"/>
      <path id="Path_36739" data-name="Path 36739" d="M62.557,106.923c-.16.013-.154.208-.208.311-1.074,2.037-2.231,4.24-3.355,6.281a6.823,6.823,0,0,0,3.434,3.109c2.062,1.1,3.933,1.977,6.039,3.2.427.249.86.609,1.468.949.4.227,1.241.752,1.551.652.431-.141.767-1.129.969-1.52.8-1.553,1.831-3.06,2.748-4.532a4.387,4.387,0,0,0-.958,1.255c-.614.919-.991,1.709-1.605,2.717-.3.5-.565,1.328-1.324,1.5a2.3,2.3,0,0,1-1.228-.318c-.44-.247-.862-.591-1.259-.87-2.051-1.442-4.129-2.546-6.366-3.837-.355-.2-.762-.505-1.261-.781-.725-.4-1.34-.552-1.393-1.461a2,2,0,0,1,.1-.653,16.158,16.158,0,0,1,1.323-2.765c.483-.932.9-1.887,1.34-2.729-.47,1.949-1.517,3.272-2.223,5.122a1.58,1.58,0,0,0-.1,1.433c.217.37.844.613,1.363.909,1.473.841,2.754,1.583,4.173,2.431,1.352.809,2.724,1.64,4.129,2.624.422.3,1.081.715,1.447.612.423-.119.717-.817.918-1.15.751-1.241,1.512-2.419,2.175-3.58a11.43,11.43,0,0,1-5.325,1.3,7.243,7.243,0,0,1-2.742-.206,5.005,5.005,0,0,1-1.9-2.8c-.25-.86-.265-1.865-.592-2.775A16,16,0,0,1,62.557,106.923Zm10.1,10.721c-.128.075-.225.066-.282-.047,0-.092.032-.168.169-.206A.249.249,0,0,1,72.658,117.644Zm-.364.641c.121.166.033.253-.015.354.059-.022.124-.061.141.023C72.033,119.718,71.407,117.866,72.294,118.285Zm-1.228-.318a.442.442,0,0,1,.256-.2C71.7,117.872,71.208,118.472,71.066,117.967Zm-.124,1.662c-.279.013-.367-.513-.009-.6A.34.34,0,0,1,70.942,119.629Zm-.924-2.062c.1-.076.149-.022.234-.061C70.656,117.871,69.865,118.048,70.018,117.567Zm-1.394,1.058c-.076-.159-.078-.29.052-.37C68.968,118.235,68.859,118.67,68.624,118.625Zm-6.107-6.168.181-.081C63.226,112.657,62.387,113.017,62.517,112.457Zm.558,2.313c-.11-.245.387-.4.414-.142S63.164,114.968,63.076,114.77Zm-.232-.808a.115.115,0,0,0-.1-.04c-.149-.229-.037-.442.2-.435A.255.255,0,0,1,62.843,113.962Zm-.449.549c.834-.191-.043.808,0,0Zm-1.451-2.173c.167-.062.247.04.258.188C61.24,113.041,60.439,112.523,60.943,112.337Z" transform="translate(-58.202 -97.926)" fill="#ffc878" fill-rule="evenodd"/>
    </g>
    <g id="Group_8862" data-name="Group 8862" transform="translate(-97.573 -5.833)">
      <ellipse id="Ellipse_1" data-name="Ellipse 1" cx="5.87" cy="6.478" rx="5.87" ry="6.478" transform="translate(143.32 165.958)" fill="#fff7d6"/>
      <g id="Group_5" data-name="Group 5" transform="translate(138.565 157.798)">
        <path id="Path_11" data-name="Path 11" d="M6.125.008C6.681.072,7.606.115,8.5.3a3.709,3.709,0,0,1,2.966,3.987A7.621,7.621,0,0,1,9.061,9.6a4.879,4.879,0,0,1-3.027,1.357A7.1,7.1,0,0,1,3.3,10.7,4.253,4.253,0,0,1,0,6.5,6.21,6.21,0,0,1,3.392.566,4.872,4.872,0,0,1,6.125.008ZM4.487,4.338A2.806,2.806,0,0,1,5.671,2.972a2.437,2.437,0,0,1,3.7,1.34A3.407,3.407,0,0,1,9.4,5.731,3.239,3.239,0,0,1,6.856,8.636a4.086,4.086,0,0,1-1.26.086A2.928,2.928,0,0,1,2.835,6.459,6.63,6.63,0,0,1,2.679,5.5,4.7,4.7,0,0,1,5.821.414c.051-.019.1-.032.154-.053s.072-.039.159-.088A3.473,3.473,0,0,0,3.315,1.831a6.8,6.8,0,0,0-.978,6.125A3.12,3.12,0,0,0,4.99,10.328a3.767,3.767,0,0,0,3.586-1.47,6.869,6.869,0,0,0,1.55-4.8A3.607,3.607,0,0,0,8.908,1.38,2.044,2.044,0,0,0,6.8.879,3.775,3.775,0,0,0,4.487,4.338ZM5.424,7.97a1.149,1.149,0,0,0,.976.254A2.745,2.745,0,0,0,8.632,5.854a2.671,2.671,0,0,0-.513-2.3,1.114,1.114,0,0,0-1.732-.228A3.222,3.222,0,0,0,5.31,5.9c.4-.573.5-.666.9-.788a1.3,1.3,0,0,1,1.67.721A1.873,1.873,0,0,1,6.821,7.891,1.972,1.972,0,0,1,5.424,7.97ZM6.718,5.587a2.533,2.533,0,0,0-.325,1.889C7.014,7.111,7.221,5.98,6.718,5.587Z" transform="matrix(0.695, -0.719, 0.719, 0.695, 3, 14.22)" fill="#ffa53f"/>
        <path id="Path_12" data-name="Path 12" d="M0,3.523A13.6,13.6,0,0,1,.511.214C.532.142.524.058.7.019c.257-.056.519.017.507.155C1.185.45,1.136.726,1.089,1A11.828,11.828,0,0,0,1.028,3.22,8.951,8.951,0,0,1,.81,5.1c-.015.076.007.166-.259.17-.246,0-.314-.066-.358-.156a2.024,2.024,0,0,1-.186-.779C-.007,4.067,0,3.795,0,3.523Z" transform="matrix(0.695, -0.719, 0.719, 0.695, 1.364, 6.661)" fill="#ffa53f"/>
        <path id="Path_14" data-name="Path 14" d="M.865,0c1.8.124,3.606.259,5.41.371,1.264.079,2.524.2,3.782.347a1.169,1.169,0,0,1,.223.039c.2.066.432.415.377.591-.079.251-.308.172-.471.157-1.314-.125-2.628-.254-3.94-.4C4.761.933,3.268.867,1.781.727,1.307.682.833.637.358.6A.359.359,0,0,1,0,.214C0-.007.2.031.344.02c.172-.013.346,0,.519,0Z" transform="matrix(0.695, -0.719, 0.719, 0.695, 13.004, 10.446)" fill="#ffa53f"/>
        <path id="Path_16" data-name="Path 16" d="M.327,5.665a.335.335,0,0,1-.3-.44,1.826,1.826,0,0,1,.265-.368A55.853,55.853,0,0,1,4.934.366a4.031,4.031,0,0,1,.4-.281c.24-.163.423-.074.589.127.181.219,0,.329-.126.456C4.257,2.225,2.6,3.653,1.025,5.175A2.014,2.014,0,0,1,.327,5.665Z" transform="matrix(0.695, -0.719, 0.719, 0.695, 5.635, 4.314)" fill="#ffa53f"/>
        <path id="Path_19" data-name="Path 19" d="M.643,2.192A.8.8,0,0,1,.04,1.7c-.127-.249.078-.353.22-.474A6.813,6.813,0,0,1,2.513.035a.528.528,0,0,1,.629.209.3.3,0,0,1-.029.481A9.681,9.681,0,0,1,.834,2.147,1.093,1.093,0,0,1,.643,2.192Z" transform="translate(15.112 23.343) rotate(-99)" fill="#ffa53f"/>
        <path id="Path_20" data-name="Path 20" d="M0,2.851a.562.562,0,0,1,.363-.345C1.965,1.714,3.522.828,5.185.16A.956.956,0,0,1,6.1.1a.114.114,0,0,1-.082.138C4.411.994,2.888,1.919,1.262,2.642a3.169,3.169,0,0,1-.851.312A.5.5,0,0,1,0,2.851Z" transform="matrix(0.695, -0.719, 0.719, 0.695, 3.285, 23.808)" fill="#ffa53f"/>
        <path id="Path_22" data-name="Path 22" d="M3.8,3.6C3.131,3.5,0,.521,0,0,.115.029,3.367,2.886,3.65,3.211,3.74,3.314,3.852,3.413,3.8,3.6Z" transform="matrix(0.695, -0.719, 0.719, 0.695, 14.632, 12.169)" fill="#ffa53f"/>
        <path id="Path_23" data-name="Path 23" d="M0,.026a.335.335,0,0,1,.374.09A22.219,22.219,0,0,1,2.793,2.728a.164.164,0,0,1,.048.177A7.669,7.669,0,0,1,0,.026Z" transform="translate(0.074 15.729) rotate(-61)" fill="#ffa53f"/>
      </g>
    </g>
    <g id="objects" transform="translate(-173.06 -129.904)">
      <g id="Group_4" data-name="Group 4">
        <g id="Afternoon" style="isolation: isolate">
          <g id="Group_8911" data-name="Group 8911" style="isolation: isolate">
            <path id="Path_37099" data-name="Path 37099" d="M233.094,310.7l-.983-1.771a2.481,2.481,0,0,1,.692-.4,9.425,9.425,0,0,1,3-.419,3.6,3.6,0,0,1,2.738,1.016,6.624,6.624,0,0,1,1.369,2.482,29.209,29.209,0,0,1,.983,4.543q.241,1.5.42,2.256.565,2.112.751,2.7t.669,1.877c.108.248.25.593.428,1.04s.346.861.507,1.248q.532,1.255,1.611,3.32a14.464,14.464,0,0,1-2.287,1.369,4.224,4.224,0,0,1-1.707.419,3.111,3.111,0,0,1-1.587-.37,3.51,3.51,0,0,1-1.152-1.177,17.141,17.141,0,0,1-1.224-2.981c-.044-.119-.094-.269-.153-.452s-.127-.38-.2-.6a8.364,8.364,0,0,1-2.943.789q-.6,0-1.035-.031-.373-.033-3.445-.1l-.149.316a15.419,15.419,0,0,1-1.662,2.875,4.288,4.288,0,0,1-1.781,1.385,6.8,6.8,0,0,1-2.521.4,2.878,2.878,0,0,1-1.241-.193.658.658,0,0,1-.371-.628,9.322,9.322,0,0,1,1.773-2.933q.628-.837.934-1.321-1.69-.322-1.691-1.193,0-.708,1.353-2.11a3.147,3.147,0,0,1,1.2-.863,7.259,7.259,0,0,1,1.942-.2q1.29-2.368,1.644-3.021t.918-1.644q.564-.99,1.281-2.256T233.094,310.7Zm1.388,4.248-2.943,6.258h4.355l-1.348-6.258Z" fill="#1d262d"/>
            <path id="Path_37100" data-name="Path 37100" d="M252.07,326.88l-.032.886a52.428,52.428,0,0,1-.58,5.221,5.444,5.444,0,0,1-.8,2.465,2.5,2.5,0,0,1-1.916.661,2.983,2.983,0,0,1-2.012-.548,1.607,1.607,0,0,1-.322-.5,2.827,2.827,0,0,1-.08-.821v-.5a54.685,54.685,0,0,1,.87-9.1,51.665,51.665,0,0,1,2.175-8.339,23.862,23.862,0,0,1,2.965-5.962q1.611-2.2,3.207-2.2a1.264,1.264,0,0,1,1.087.491,2.346,2.346,0,0,1,.363,1.41,15.752,15.752,0,0,1-.29,2.908,12.5,12.5,0,0,1-.7,2.506q-.411.968-.83.967-.387,0-.387-1.354v-.5a17.307,17.307,0,0,0-.055-1.771.83.83,0,0,0-.248-.565,2.945,2.945,0,0,0-.256.823q-.392,1.934-.635,3.5t-.733,5.075c-.011.129-.027.273-.048.435s-.038.305-.049.434h.226c.129-.01.247-.018.355-.023s.275-.008.5-.008a8.476,8.476,0,0,1,1.1-.081q1.923,0,1.923,1a2.926,2.926,0,0,1-.363,1.248,4.382,4.382,0,0,1-.863,1.217,3.032,3.032,0,0,1-1.137.7,7.544,7.544,0,0,1-1.831.3c-.172,0-.293,0-.363.007S252.157,326.869,252.07,326.88Z" fill="#1d262d"/>
            <path id="Path_37101" data-name="Path 37101" d="M261.324,314.763l.065-.194a23.126,23.126,0,0,1,1.839-4.22,3.618,3.618,0,0,1,1.032-1.032,4.409,4.409,0,0,1,2.34-.79,1.468,1.468,0,0,1,.983.291,1.044,1.044,0,0,1,.339.839,5.177,5.177,0,0,1-.486,1.513,22.239,22.239,0,0,0-1.232,3.56,4.312,4.312,0,0,1,.532.1,4.054,4.054,0,0,1,1.275.33.718.718,0,0,1,.306.669,3.016,3.016,0,0,1-.434,1.579,2.655,2.655,0,0,1-1.144,1.065,5.363,5.363,0,0,1-1.722.322q-.209.629-.463,1.726-.142.966-.318,2.675a7.692,7.692,0,0,0-.1,1.176,2.214,2.214,0,0,0,2.465,2.544h.146c.193,0,.29.031.29.1,0,.173-.184.463-.548.871a7.224,7.224,0,0,1-1.209,1.079,6.515,6.515,0,0,1-1.548.773,4.68,4.68,0,0,1-1.517.29,3.57,3.57,0,0,1-2.753-1.144,4.284,4.284,0,0,1-1.057-3.029,10.486,10.486,0,0,1,.281-2.111q.282-1.3.879-3.5c.064-.258.134-.528.209-.813s.119-.453.129-.507a1.374,1.374,0,0,1-.918-.275,1.1,1.1,0,0,1-.274-.837,2.885,2.885,0,0,1,.781-1.917A3.317,3.317,0,0,1,261.324,314.763Z" fill="#1d262d"/>
            <path id="Path_37102" data-name="Path 37102" d="M275.214,325.849a1.118,1.118,0,0,0,1.257.966,5.9,5.9,0,0,0,3.142-1.418,3.735,3.735,0,0,1,1.514-.821,1.692,1.692,0,0,1,.9.258c.279.172.419.35.419.532a1.273,1.273,0,0,1-.468.757,16.894,16.894,0,0,1-1.965,1.668,17.312,17.312,0,0,1-2.143,1.354,12,12,0,0,1-2.063.853,6.374,6.374,0,0,1-1.837.315,4.474,4.474,0,0,1-3.223-1.153,4.043,4.043,0,0,1-1.208-3.069,10.3,10.3,0,0,1,.636-3.312,14.962,14.962,0,0,1,1.717-3.456,11.584,11.584,0,0,1,3.126-3.142,7.991,7.991,0,0,1,4.382-1.514,3.034,3.034,0,0,1,2.377.958,3.8,3.8,0,0,1,.862,2.635,6.262,6.262,0,0,1-.684,2.723,9.8,9.8,0,0,1-2.023,2.723,10.653,10.653,0,0,1-2.151,1.708,3.817,3.817,0,0,1-1.845.612A1.662,1.662,0,0,1,275.214,325.849Zm-.032-.516a4.805,4.805,0,0,0,1.128-1,7.8,7.8,0,0,0,1.321-2.4,10.023,10.023,0,0,0,.58-1.982,10.9,10.9,0,0,0,.209-2.047q0-.887-.37-.886-.516,0-1.579,2.272a19.538,19.538,0,0,0-1.023,2.731,8.6,8.6,0,0,0-.395,2.344A5.175,5.175,0,0,0,275.182,325.333Z" fill="#1d262d"/>
            <path id="Path_37103" data-name="Path 37103" d="M289.168,325.431l-.064.322a6.885,6.885,0,0,1-.065.789,9.632,9.632,0,0,1-.177,1.289,2.39,2.39,0,0,1-.339.83,4.528,4.528,0,0,1-.612.7,3.525,3.525,0,0,1-2.369,1.079,1.575,1.575,0,0,1-1.425-.709,4.335,4.335,0,0,1-.46-2.288,21.115,21.115,0,0,1,.282-3.1,29.159,29.159,0,0,1,.685-3.312l.129-.419a1.744,1.744,0,0,1,.1-.4,21.026,21.026,0,0,1,1.1-3.247,5.342,5.342,0,0,1,1.209-1.7,2.219,2.219,0,0,1,1.418-.5q1.143,0,1.386,1.386a3.472,3.472,0,0,0,.435-.451,4.645,4.645,0,0,1,.725-.75,1,1,0,0,1,.6-.185q1.386,0,1.386,2.74a12.9,12.9,0,0,1-.323,2.9,8.816,8.816,0,0,1-.814,2.287q-.491.888-.974.887-.533,0-.532-2.014a8.9,8.9,0,0,0-.121-1.667,2.315,2.315,0,0,0-.378-.944,11.906,11.906,0,0,0-.629,4.125Q289.216,324.948,289.168,325.431Z" fill="#1d262d"/>
            <path id="Path_37104" data-name="Path 37104" d="M301.312,321.849l.971-1.131q1.473-1.632,2.334-2.431a7.334,7.334,0,0,1,1.546-1.154,2.989,2.989,0,0,1,1.393-.356,1.9,1.9,0,0,1,1.609.613,3.613,3.613,0,0,1,.467,2.127q0,.629-.129,1.853a26,26,0,0,0-.193,3.061,16.953,16.953,0,0,0,.161,2.611,7.389,7.389,0,0,0,.339,1.225,3.664,3.664,0,0,1,.161.789.473.473,0,0,1-.194.4,4.481,4.481,0,0,1-1.321.758,3.94,3.94,0,0,1-1.386.322,2.529,2.529,0,0,1-1.668-.629,4.04,4.04,0,0,1-1.16-1.74,7.228,7.228,0,0,1-.411-2.514,15.109,15.109,0,0,1,.193-2.207l-.064-.064q-.693.772-1.119,1.224t-.8.854q-1.8,2.064-3.062,3.723-.483.644-.886,1.128a1.869,1.869,0,0,1-1.354.6,2.081,2.081,0,0,1-1.676-.773,3.021,3.021,0,0,1-.644-2,11.957,11.957,0,0,1,.177-1.854q.177-1.1.476-2.345t.709-2.569q.41-1.321.894-2.514a8.938,8.938,0,0,1,1.8-3.093,2.386,2.386,0,0,1,1.756-.726q1.676,0,1.676,2.175a22.623,22.623,0,0,1-.667,4.572Z" fill="#1d262d"/>
            <path id="Path_37105" data-name="Path 37105" d="M321.975,314.135q2.4,0,2.4.563c0,.431-.36.661-1.08.694a5.393,5.393,0,0,0-2.433.741,6.961,6.961,0,0,0-2.006,1.8,8.944,8.944,0,0,0-1.37,2.578,9.265,9.265,0,0,0-.491,3.029,4.53,4.53,0,0,0,.821,2.828,2.579,2.579,0,0,0,2.144,1.071,2.636,2.636,0,0,0,2.143-1.256,4.841,4.841,0,0,0,.918-2.933,5.9,5.9,0,0,0-.572-2.57,5.4,5.4,0,0,0-1.668-2.022c-.311-.247-.467-.425-.467-.532,0-.151.22-.381.661-.693a7.66,7.66,0,0,1,1.66-.837,4.61,4.61,0,0,1,1.547-.339,2.7,2.7,0,0,1,1.378.379,3.711,3.711,0,0,1,1.151,1.079,5.334,5.334,0,0,1,.766,1.611,6.907,6.907,0,0,1,.265,1.941,9.3,9.3,0,0,1-.644,3.376,7.54,7.54,0,0,1-1.692,2.7,10.888,10.888,0,0,1-3.262,2.134,9.118,9.118,0,0,1-3.634.831,9.969,9.969,0,0,1-3.327-.581,6.955,6.955,0,0,1-2.62-1.53,4.949,4.949,0,0,1-1.289-3.658,8.416,8.416,0,0,1,.919-3.738,12.219,12.219,0,0,1,2.49-3.392,12.53,12.53,0,0,1,3.464-2.4A9.023,9.023,0,0,1,321.975,314.135Z" fill="#1d262d"/>
            <path id="Path_37106" data-name="Path 37106" d="M339.86,314.135q2.4,0,2.4.563c0,.431-.361.661-1.08.694a5.393,5.393,0,0,0-2.433.741,6.961,6.961,0,0,0-2.006,1.8,8.945,8.945,0,0,0-1.37,2.578,9.266,9.266,0,0,0-.491,3.029,4.524,4.524,0,0,0,.821,2.828,2.579,2.579,0,0,0,2.144,1.071,2.633,2.633,0,0,0,2.142-1.256,4.835,4.835,0,0,0,.919-2.933,5.9,5.9,0,0,0-.572-2.57,5.413,5.413,0,0,0-1.668-2.022c-.312-.247-.467-.425-.467-.532,0-.151.22-.381.66-.693a7.683,7.683,0,0,1,1.66-.837,4.614,4.614,0,0,1,1.547-.339,2.7,2.7,0,0,1,1.378.379,3.7,3.7,0,0,1,1.152,1.079,5.308,5.308,0,0,1,.765,1.611,6.872,6.872,0,0,1,.266,1.941,9.284,9.284,0,0,1-.645,3.376,7.525,7.525,0,0,1-1.691,2.7,10.88,10.88,0,0,1-3.263,2.134,9.111,9.111,0,0,1-3.634.831,9.973,9.973,0,0,1-3.327-.581,6.958,6.958,0,0,1-2.619-1.53,4.949,4.949,0,0,1-1.289-3.658,8.416,8.416,0,0,1,.919-3.738,12.2,12.2,0,0,1,2.489-3.392,12.535,12.535,0,0,1,3.465-2.4A9.019,9.019,0,0,1,339.86,314.135Z" fill="#1d262d"/>
            <path id="Path_37107" data-name="Path 37107" d="M353.9,321.849l.972-1.131q1.471-1.632,2.334-2.431a7.334,7.334,0,0,1,1.546-1.154,2.989,2.989,0,0,1,1.392-.356,1.9,1.9,0,0,1,1.61.613,3.62,3.62,0,0,1,.467,2.127q0,.629-.129,1.853a26.012,26.012,0,0,0-.194,3.061,17.082,17.082,0,0,0,.161,2.611,7.59,7.59,0,0,0,.339,1.225,3.6,3.6,0,0,1,.161.789.472.472,0,0,1-.193.4,4.481,4.481,0,0,1-1.321.758,3.94,3.94,0,0,1-1.386.322,2.529,2.529,0,0,1-1.668-.629,4.031,4.031,0,0,1-1.16-1.74,7.205,7.205,0,0,1-.411-2.514,14.97,14.97,0,0,1,.193-2.207l-.064-.064q-.693.772-1.119,1.224c-.286.3-.551.586-.8.854q-1.8,2.064-3.062,3.723-.483.644-.887,1.128a1.866,1.866,0,0,1-1.353.6,2.08,2.08,0,0,1-1.676-.773,3.016,3.016,0,0,1-.644-2,11.957,11.957,0,0,1,.177-1.854q.179-1.1.476-2.345t.709-2.569q.409-1.321.894-2.514a8.939,8.939,0,0,1,1.8-3.093,2.388,2.388,0,0,1,1.756-.726q1.676,0,1.676,2.175a22.62,22.62,0,0,1-.667,4.572Z" fill="#1d262d"/>
          </g>
        </g>
        <g id="Group_3" data-name="Group 3">
          <g id="Group_2" data-name="Group 2">
            <g id="Path_7" data-name="Path 7">
              <path id="Path_37108" data-name="Path 37108" d="M276.938,336.607c.188-.088.3.022.4.1a5.371,5.371,0,0,0,3.29.942,25.47,25.47,0,0,0,6.131-.878c4.452-1.059,8.854-2.311,13.324-3.3a57.718,57.718,0,0,1,14.927-1.538,38.77,38.77,0,0,1,10.919,1.782,5.175,5.175,0,0,1,1.762.865,1.821,1.821,0,0,1,.329.333c.118.174.309.379.1.585-.183.176-.39.025-.556-.082a4.835,4.835,0,0,0-1.882-.538,55.243,55.243,0,0,0-13.036-.554,85,85,0,0,0-14.733,2.713c-3.3.81-6.6,1.672-9.964,2.189a18.168,18.168,0,0,1-6.689.045,7.186,7.186,0,0,1-4.117-2.29C277.055,336.876,276.919,336.8,276.938,336.607Z" fill="#1d262d"/>
            </g>
          </g>
        </g>
      </g>
      <g id="Good" style="isolation: isolate">
        <g id="Group_8912" data-name="Group 8912" style="isolation: isolate">
          <path id="Path_37109" data-name="Path 37109" d="M244.034,300.242a10.651,10.651,0,0,1-2.459,1.826,5.078,5.078,0,0,1-2.3.574,4.174,4.174,0,0,1-2.373-.66,4.121,4.121,0,0,1-1.509-1.9,7.507,7.507,0,0,1-.521-2.927,9.765,9.765,0,0,1,1.1-4.331,16.608,16.608,0,0,1,7.006-7.165,9.231,9.231,0,0,1,4.259-1.134q3.322,0,3.322,2.914a4.376,4.376,0,0,1-.613,2.2,4.872,4.872,0,0,1-1.628,1.713,3.935,3.935,0,0,1-2.149.646c-.308,0-.462-.109-.462-.329a1.649,1.649,0,0,1,.159-.448,6.471,6.471,0,0,0,.54-1.516,10.718,10.718,0,0,0,.211-1.78q0-1.108-.264-1.108a3.282,3.282,0,0,0-1.733.884,8.86,8.86,0,0,0-1.826,1.924,12.075,12.075,0,0,0-1.193,2.162,15.344,15.344,0,0,0-.857,2.531,10.019,10.019,0,0,0-.31,2.348,2.946,2.946,0,0,0,.435,1.667,1.314,1.314,0,0,0,1.134.653q1.2,0,2.7-3.046c.316-.562.529-.921.639-1.074a1.555,1.555,0,0,1,.467-.415,9.191,9.191,0,0,1,2.062-.917,6.846,6.846,0,0,1,1.93-.4.71.71,0,0,1,.8.8q0,.066-.079.58a47.382,47.382,0,0,1-2.263,7.067,16.045,16.045,0,0,1-2.584,4.561,4.307,4.307,0,0,1-1.715,1.029,6.8,6.8,0,0,1-2.32.409,6.355,6.355,0,0,1-1.984-.33,5.26,5.26,0,0,1-1.655-.844,1.39,1.39,0,0,1-.646-1.016,1.216,1.216,0,0,1,.369-.75,5.034,5.034,0,0,1,1-.844,3.454,3.454,0,0,1,1.332-.673q.342,0,.962.752a8.084,8.084,0,0,0,1.6,1.437,21,21,0,0,0,.89-2.65A16.788,16.788,0,0,0,244.034,300.242Z" fill="#1d262d"/>
          <path id="Path_37110" data-name="Path 37110" d="M260.421,289.4q1.965,0,1.965.462c0,.352-.295.54-.884.567a4.429,4.429,0,0,0-1.99.606,5.7,5.7,0,0,0-1.642,1.477,7.345,7.345,0,0,0-1.12,2.109,7.563,7.563,0,0,0-.4,2.478,3.7,3.7,0,0,0,.672,2.314,2.107,2.107,0,0,0,1.753.877,2.157,2.157,0,0,0,1.754-1.028,3.96,3.96,0,0,0,.751-2.4,4.834,4.834,0,0,0-.467-2.1,4.45,4.45,0,0,0-1.365-1.656q-.383-.3-.383-.434c0-.123.181-.312.541-.568a6.42,6.42,0,0,1,1.358-.685,3.81,3.81,0,0,1,1.266-.276,2.211,2.211,0,0,1,1.126.309,3.017,3.017,0,0,1,.943.884,4.355,4.355,0,0,1,.627,1.318,5.681,5.681,0,0,1,.217,1.589,7.618,7.618,0,0,1-.527,2.762,6.171,6.171,0,0,1-1.385,2.208,8.917,8.917,0,0,1-2.669,1.747,7.474,7.474,0,0,1-2.973.679,8.18,8.18,0,0,1-2.723-.475,5.677,5.677,0,0,1-2.142-1.253,4.045,4.045,0,0,1-1.055-2.992,6.884,6.884,0,0,1,.752-3.059,9.992,9.992,0,0,1,2.037-2.775,10.251,10.251,0,0,1,2.834-1.964A7.381,7.381,0,0,1,260.421,289.4Z" fill="#1d262d"/>
          <path id="Path_37111" data-name="Path 37111" d="M275.055,289.4q1.965,0,1.965.462c0,.352-.295.54-.884.567a4.426,4.426,0,0,0-1.99.606,5.7,5.7,0,0,0-1.642,1.477,7.321,7.321,0,0,0-1.12,2.109,7.564,7.564,0,0,0-.4,2.478,3.7,3.7,0,0,0,.673,2.314,2.107,2.107,0,0,0,1.753.877,2.157,2.157,0,0,0,1.754-1.028,3.96,3.96,0,0,0,.751-2.4,4.82,4.82,0,0,0-.468-2.1,4.437,4.437,0,0,0-1.364-1.656q-.382-.3-.383-.434,0-.184.541-.568a6.42,6.42,0,0,1,1.358-.685,3.81,3.81,0,0,1,1.265-.276,2.212,2.212,0,0,1,1.127.309,3.017,3.017,0,0,1,.943.884,4.356,4.356,0,0,1,.627,1.318,5.681,5.681,0,0,1,.217,1.589,7.618,7.618,0,0,1-.527,2.762,6.17,6.17,0,0,1-1.385,2.208,8.923,8.923,0,0,1-2.67,1.747,7.47,7.47,0,0,1-2.972.679,8.181,8.181,0,0,1-2.723-.475,5.669,5.669,0,0,1-2.142-1.253,4.045,4.045,0,0,1-1.055-2.992,6.884,6.884,0,0,1,.752-3.059,9.971,9.971,0,0,1,2.037-2.775,10.251,10.251,0,0,1,2.834-1.964A7.377,7.377,0,0,1,275.055,289.4Z" fill="#1d262d"/>
          <path id="Path_37112" data-name="Path 37112" d="M289.689,290.605l.132-.541q.408-1.806.738-2.919a14.783,14.783,0,0,1,.679-1.886,3.875,3.875,0,0,1,.692-1.114,2.669,2.669,0,0,1,1.991-.593,5.01,5.01,0,0,1,.942.065,1.034,1.034,0,0,1,.495.238q-.633,1.965-.877,2.947t-.534,2.7a32.144,32.144,0,0,0-.448,5.049,20.5,20.5,0,0,0,.244,3.092,29.575,29.575,0,0,0,.8,3.566,13.464,13.464,0,0,1-1.339.83,8.377,8.377,0,0,1-1.213.541,3.169,3.169,0,0,1-1.008.2,1.1,1.1,0,0,1-1.081-.752,5.688,5.688,0,0,1-.343-.995q-.08-.375-.277-2.088a19.957,19.957,0,0,1-3.382,2.906,5.215,5.215,0,0,1-2.577,1.061,2.2,2.2,0,0,1-1.812-.9,3.663,3.663,0,0,1-.706-2.326,8.652,8.652,0,0,1,.548-2.842,13.74,13.74,0,0,1,1.509-3.025,10.231,10.231,0,0,1,1.3-1.628,10.048,10.048,0,0,1,1.51-1.234,5.019,5.019,0,0,1,2.558-1A3.05,3.05,0,0,1,289.689,290.605Zm-.409,6.262V296.1a1.931,1.931,0,0,1-1,.592.162.162,0,0,1-.184-.183,1.426,1.426,0,0,1,.079-.33,4.638,4.638,0,0,0,.277-1.53,5.909,5.909,0,0,0-.462-2.214c-.132-.4-.294-.594-.488-.594a.281.281,0,0,0-.237.133,5.461,5.461,0,0,0-.83,1.417,12.055,12.055,0,0,0-.653,1.99,8.27,8.27,0,0,0-.257,1.9q0,1.569.949,1.568a2.486,2.486,0,0,0,1.272-.559A8.274,8.274,0,0,0,289.28,296.867Z" fill="#1d262d"/>
        </g>
      </g>
    </g>
  </g>
</svg>
