<svg xmlns="http://www.w3.org/2000/svg" width="42.343" height="42.343" viewBox="0 0 42.343 42.343"><defs><style>.a{fill:#0ea2c8;}.b{fill:#ff7d41;}.c{fill:#00d4ff;}.d{fill:#fff;}.e{fill:#000388;}</style></defs><g transform="translate(-10 -206)"><g transform="translate(10 206)"><path class="a" d="M21.172,0A21.172,21.172,0,1,1,0,21.172,21.172,21.172,0,0,1,21.172,0Z" transform="translate(0)"/></g><g transform="translate(16 216)"><path class="b" d="M356.932,70.432a3.948,3.948,0,0,1-2.252.722V63.219a3.969,3.969,0,0,1,2.252,7.214Zm0,0" transform="translate(-327.48 -58.371)"/><path class="c" d="M32.74,10.388v9.943a2.381,2.381,0,0,1-2.382,2.381h-14.2l-6.35,5.653V22.712H8.382A2.381,2.381,0,0,1,6,20.331V8.381A2.381,2.381,0,0,1,8.382,6H30.358A2.381,2.381,0,0,1,32.74,8.381ZM28.156,12.5V11.181a1.588,1.588,0,0,0-3.176,0V12.5Zm-5.611,2.535h-6.35a3.175,3.175,0,1,0,6.35,0ZM13.761,12.5V11.181a1.588,1.588,0,0,0-3.176,0V12.5Zm0,0" transform="translate(-5.54 -5.54)"/><path class="d" d="M256.663,54.443v1.323h-3.176V54.443a1.588,1.588,0,0,1,3.176,0Zm0,0" transform="translate(-234.048 -48.802)"/><path class="b" d="M201.1,255.038a2.507,2.507,0,1,1-2.507-2.507A2.506,2.506,0,0,1,201.1,255.038Zm0,0" transform="translate(-181.052 -233.165)"/><path class="a" d="M138.93,123.859h6.35a3.175,3.175,0,1,1-6.35,0Zm0,0" transform="translate(-128.276 -114.36)"/><path class="d" d="M68.956,54.443v1.323H65.781V54.443a1.588,1.588,0,0,1,3.176,0Zm0,0" transform="translate(-60.736 -48.802)"/><g transform="translate(0 0)"><path class="e" d="M61.829,46.859a2.05,2.05,0,0,0-2.048,2.048V50.23a.46.46,0,0,0,.46.46h3.176a.46.46,0,0,0,.46-.46V48.907a2.048,2.048,0,0,0-2.048-2.048Zm1.128,2.91H60.7v-.863a1.127,1.127,0,0,1,1.925-.8h0a1.118,1.118,0,0,1,.33.8Zm0,0" transform="translate(-55.197 -43.266)"/><path class="e" d="M249.537,46.859a2.051,2.051,0,0,0-2.048,2.048V50.23a.46.46,0,0,0,.46.46h3.176a.46.46,0,0,0,.46-.46V48.907A2.048,2.048,0,0,0,249.537,46.859Zm1.127,2.91h-2.255v-.863a1.128,1.128,0,0,1,2.255,0Zm0,0" transform="translate(-228.509 -43.266)"/><path class="e" d="M139.74,117.859h-6.35a.46.46,0,0,0-.46.46,3.635,3.635,0,1,0,7.271,0A.46.46,0,0,0,139.74,117.859Zm-1.256,2.38a2.715,2.715,0,0,1-4.6-1.459h5.353A2.693,2.693,0,0,1,138.484,120.239Zm0,0" transform="translate(-122.735 -108.821)"/><path class="e" d="M24.326,21.413h-3.85a2.966,2.966,0,1,0,0,.92h3.85a5.593,5.593,0,0,0,5.587-5.587V12.291A4.428,4.428,0,0,0,27.66,4.415V2.842A2.845,2.845,0,0,0,24.818,0H2.841A2.845,2.845,0,0,0,0,2.842v11.95a2.845,2.845,0,0,0,2.841,2.841h.969v5.193a.46.46,0,0,0,.766.344l6.22-5.537H24.818a2.845,2.845,0,0,0,2.842-2.841V13.217a4.392,4.392,0,0,0,1.332-.364v3.894a4.672,4.672,0,0,1-4.667,4.666Zm-6.782,2.506a2.046,2.046,0,1,1,2.047-2.046A2.046,2.046,0,0,1,17.544,23.919Zm9.2-9.128a1.924,1.924,0,0,1-1.922,1.921h-14.2a.46.46,0,0,0-.306.116L4.731,21.8V17.172a.46.46,0,0,0-.46-.46H2.841A1.923,1.923,0,0,1,.92,14.791V2.842A1.923,1.923,0,0,1,2.841.92H24.818A1.924,1.924,0,0,1,26.74,2.842Zm.92-9.447a3.507,3.507,0,0,1,0,6.945Zm0,0" transform="translate(0 0)"/></g></g></g></svg>