<svg xmlns="http://www.w3.org/2000/svg" xmlns:xlink="http://www.w3.org/1999/xlink" width="25.996" height="26" viewBox="0 0 25.996 26"><defs><style>.a{fill:#1586c7;}.b{clip-path:url(#a);}.c{fill:#fff;}.d{fill:#dcf0eb;}.e{fill:#fb8d11;}.f{fill:#0112ff;}.g{fill:#468b02;}.h{fill:#280f50;}.i{fill:#cff5fd;}</style><clipPath id="a"><path class="a" d="M13,0a13,13,0,0,0,0,26q.587,0,1.17-.052c.361-.032.719-.082,1.074-.144l.136-.024A13,13,0,0,0,13,0Z" transform="translate(0 0)"/></clipPath></defs><g class="b"><g transform="translate(1.487 1.735)"><path class="c" d="M685.039,413.612v.33a6.351,6.351,0,0,0,1.981-1.566,1.359,1.359,0,0,0-.6-.144A1.381,1.381,0,0,0,685.039,413.612Z" transform="translate(-670.723 -383.781)"/><path class="c" d="M674.936,412.232a1.359,1.359,0,0,0-.6.144,6.341,6.341,0,0,0,1.981,1.566v-.33A1.381,1.381,0,0,0,674.936,412.232Z" transform="translate(-667.398 -383.781)"/><path class="d" d="M683.144,399.913a8.144,8.144,0,0,1-3.068.6H676.5a8.143,8.143,0,0,1-3.068-.6,6.893,6.893,0,0,0-.248,8.086,2.047,2.047,0,0,1,1.024-.282,2.072,2.072,0,0,1,2.069,2.069v.628a5.894,5.894,0,0,0,4.02,0v-.627a2.072,2.072,0,0,1,2.069-2.069,2.047,2.047,0,0,1,1.024.282,6.893,6.893,0,0,0-.248-8.086Zm-5.493,5.022a.26.26,0,0,1-.521,0v-2.023a.26.26,0,0,1,.521,0Zm.9.276a.26.26,0,1,1-.521,0v-2.576a.26.26,0,0,1,.521,0Zm.9-.276a.26.26,0,1,1-.52,0v-2.023a.26.26,0,1,1,.52,0Z" transform="translate(-666.672 -379.955)"/><path class="e" d="M679.7,403.887a.26.26,0,0,0-.26.26v2.023a.26.26,0,0,0,.521,0v-2.023A.26.26,0,0,0,679.7,403.887Z" transform="translate(-668.985 -381.189)"/><path class="f" d="M681.006,403.485a.26.26,0,0,0-.26.26v2.576a.26.26,0,1,0,.521,0v-2.576A.26.26,0,0,0,681.006,403.485Z" transform="translate(-669.39 -381.064)"/><path class="g" d="M682.309,403.887a.26.26,0,0,0-.26.26v2.023a.26.26,0,1,0,.52,0v-2.023A.259.259,0,0,0,682.309,403.887Z" transform="translate(-669.794 -381.189)"/><path class="e" d="M666.368,386.685a1.614,1.614,0,0,0,0,3.056,7.934,7.934,0,0,1,0-3.056Z" transform="translate(-664.584 -375.846)"/><path class="e" d="M695.386,386.685a7.95,7.95,0,0,1,0,3.056,1.614,1.614,0,0,0,0-3.056Z" transform="translate(-673.936 -375.846)"/><path class="h" d="M685.544,381.059a8.2,8.2,0,0,0-7.866-5.921h-1.443v-.712a1.748,1.748,0,1,0-.69,0v.712H674.1a8.2,8.2,0,0,0-7.866,5.921,2.3,2.3,0,0,0,0,4.544,8.22,8.22,0,0,0,4.163,5.027,7.562,7.562,0,0,0-.145,8.818q.2.29.43.557a7.037,7.037,0,0,0,2.432,1.855,6.848,6.848,0,0,0,.64.253,6.667,6.667,0,0,0,4.908-.254A7.027,7.027,0,0,0,681.1,400q.228-.268.43-.557a7.562,7.562,0,0,0-.145-8.818,8.22,8.22,0,0,0,4.163-5.027,2.3,2.3,0,0,0,0-4.544Zm.179,3.8a7.949,7.949,0,0,0,0-3.056,1.614,1.614,0,0,1,0,3.056Zm-5.754,13.867a2.072,2.072,0,0,0-2.069,2.069v.627a5.894,5.894,0,0,1-4.02,0v-.628a2.072,2.072,0,0,0-2.069-2.069,2.047,2.047,0,0,0-1.024.282,6.893,6.893,0,0,1,.248-8.086,8.143,8.143,0,0,0,3.068.6h3.575a8.143,8.143,0,0,0,3.068-.6,6.893,6.893,0,0,1,.248,8.086A2.047,2.047,0,0,0,679.969,398.726Zm.6.834a6.35,6.35,0,0,1-1.981,1.566v-.33a1.381,1.381,0,0,1,1.38-1.38A1.359,1.359,0,0,1,680.571,399.559Zm-9.362,0a1.359,1.359,0,0,1,.6-.144,1.381,1.381,0,0,1,1.38,1.38v.33A6.341,6.341,0,0,1,671.21,399.559Zm9.4-9.324c-.117.05-.238.09-.357.133a7.453,7.453,0,0,1-2.577.466H674.1a7.456,7.456,0,0,1-2.577-.466c-.119-.043-.241-.083-.357-.133s-.212-.1-.318-.153a7.534,7.534,0,0,1-3.886-4.445,7.424,7.424,0,0,1-.314-1.449,6.964,6.964,0,0,1,0-1.717,7.424,7.424,0,0,1,.314-1.448,7.516,7.516,0,0,1,7.138-5.2h3.575a7.5,7.5,0,0,1,3.252,14.256C680.824,390.134,680.721,390.189,680.612,390.236Zm-15.649-6.905a1.618,1.618,0,0,1,1.094-1.528,7.932,7.932,0,0,0,0,3.056A1.619,1.619,0,0,1,664.963,383.33Zm10.927-11.677a1.056,1.056,0,0,1,.345,2.055,1.039,1.039,0,0,1-.345.063h0a1.044,1.044,0,0,1-.345-.063,1.056,1.056,0,0,1,.345-2.055Z" transform="translate(-664.274 -370.964)"/><path class="i" d="M685.863,387.828a7.5,7.5,0,0,0-7.138-9.811H675.15a7.516,7.516,0,0,0-7.138,5.2,7.419,7.419,0,0,0-.314,1.448,6.964,6.964,0,0,0,0,1.717,7.42,7.42,0,0,0,.314,1.448,7.534,7.534,0,0,0,3.886,4.445c.105.051.209.107.318.153s.238.09.357.133a7.456,7.456,0,0,0,2.577.466h3.575a7.453,7.453,0,0,0,2.577-.466c.119-.043.241-.083.357-.133s.212-.1.318-.153A7.532,7.532,0,0,0,685.863,387.828ZM678.626,390h-3.377a4.481,4.481,0,0,1,0-8.961h3.377a4.481,4.481,0,1,1,0,8.961Z" transform="translate(-665.321 -373.154)"/><path class="c" d="M684.135,387.193a3.8,3.8,0,0,0-3.792-3.791h-3.377a3.791,3.791,0,1,0,0,7.582h3.377A3.8,3.8,0,0,0,684.135,387.193Z" transform="translate(-667.038 -374.827)"/><path class="h" d="M680.032,382.4h-3.377a4.481,4.481,0,1,0,0,8.961h3.377a4.481,4.481,0,1,0,0-8.961Zm-7.168,4.481a3.8,3.8,0,0,1,3.791-3.791h3.377a3.791,3.791,0,1,1,0,7.582h-3.377A3.8,3.8,0,0,1,672.864,386.883Z" transform="translate(-666.728 -374.516)"/><path class="e" d="M680.3,374.019a1.042,1.042,0,0,0,.345.063h0a1.039,1.039,0,0,0,.345-.063,1.058,1.058,0,1,0-.689,0Z" transform="translate(-669.03 -371.275)"/><path class="c" d="M668.142,404.472a5.339,5.339,0,0,0,.526-1.256c.245-1.22.138-1.713,0-1.912a.46.46,0,0,0-.342-.186.3.3,0,0,0-.05,0c-.474,0-1.276,1.022-1.571,2.814a5.723,5.723,0,0,0,.039,2.286c.136.521.363.855.607.9-.006-.058.043-.385.075-.6a4.42,4.42,0,0,1,.327-1.264C667.893,404.95,668.023,404.7,668.142,404.472Z" transform="translate(-665.001 -380.327)"/><path class="h" d="M668.141,400.129c-1.037-.167-2.078,1.281-2.421,3.376a6.4,6.4,0,0,0,.052,2.572c.212.816.625,1.313,1.219,1.406.637,0,.735-.657.813-1.185a3.833,3.833,0,0,1,.27-1.075c.13-.283.255-.521.37-.742a5.95,5.95,0,0,0,.585-1.417l0-.014a3.368,3.368,0,0,0-.1-2.44A1.158,1.158,0,0,0,668.141,400.129Zm-1.095,6.67c-.245-.041-.471-.375-.607-.9a5.721,5.721,0,0,1-.039-2.286c.294-1.791,1.1-2.814,1.57-2.814a.3.3,0,0,1,.05,0,.459.459,0,0,1,.342.186c.133.2.241.693,0,1.912a5.342,5.342,0,0,1-.526,1.256c-.119.23-.249.478-.383.771a4.422,4.422,0,0,0-.327,1.264C667.09,406.413,667.041,406.741,667.047,406.8Z" transform="translate(-664.691 -380.018)"/><path class="c" d="M694.546,403.927c-.305-1.857-1.16-2.881-1.63-2.808a.452.452,0,0,0-.333.185c-.133.2-.241.693,0,1.912a5.34,5.34,0,0,0,.526,1.256c.119.23.249.478.385.774a4.392,4.392,0,0,1,.325,1.261,1.964,1.964,0,0,0,.143.607c.177-.046.4-.381.54-.9A5.722,5.722,0,0,0,694.546,403.927Z" transform="translate(-673.022 -380.328)"/><path class="h" d="M692.484,400.131a1.152,1.152,0,0,0-.784.479,3.369,3.369,0,0,0-.1,2.44l0,.014a5.951,5.951,0,0,0,.585,1.417c.114.221.239.458.371.745a3.8,3.8,0,0,1,.268,1.071c.078.526.175,1.181.862,1.181h.008c.538-.088.951-.585,1.162-1.4a6.4,6.4,0,0,0,.052-2.572C694.571,401.41,693.527,399.961,692.484,400.131Zm1.172,6.674a1.968,1.968,0,0,1-.143-.607,4.39,4.39,0,0,0-.325-1.261c-.136-.3-.265-.544-.385-.774a5.336,5.336,0,0,1-.526-1.256c-.245-1.22-.138-1.713,0-1.912a.452.452,0,0,1,.333-.185c.469-.073,1.324.951,1.63,2.808a5.722,5.722,0,0,1-.039,2.286C694.06,406.424,693.833,406.758,693.656,406.8Z" transform="translate(-672.712 -380.018)"/><g transform="translate(8.273 11.203)"><path class="h" d="M600.55,386.978c0-.006,0-.014,0-.02a.268.268,0,0,0-.032-.068c-.006-.009-.009-.019-.016-.028a.3.3,0,0,0-.047-.043.228.228,0,0,0-.029-.027l-.008,0s-.006-.006-.01-.008a.231.231,0,0,0-.054-.016.218.218,0,0,0-.041-.012.254.254,0,0,0-.059,0,.245.245,0,0,0-.049,0,.322.322,0,0,0-.041.018.269.269,0,0,0-.057.028s-.007.008-.011.012a.285.285,0,0,0-.063.068,1.457,1.457,0,0,1-.219.288c-.018.019-.037.036-.056.054a1.465,1.465,0,0,1-.24.182c-.021.013-.04.027-.061.039-.045.024-.092.042-.139.062s-.088.038-.134.052-.079.018-.118.026a1.418,1.418,0,0,1-.162.029c-.045,0-.091,0-.136,0s-.094,0-.141,0-.1-.017-.155-.027-.085-.016-.126-.029-.083-.031-.124-.047a1.44,1.44,0,0,1-.148-.066c-.02-.01-.038-.025-.057-.036a1.451,1.451,0,0,1-.245-.185c-.018-.017-.036-.033-.053-.051a1.442,1.442,0,0,1-.221-.291.244.244,0,0,0-.017-.018.283.283,0,0,0-.371-.088l-.107.06h.032a.282.282,0,0,0-.044.1.176.176,0,0,0-.01.024.252.252,0,0,0-.007.073.288.288,0,0,0,.024.12s0,.007,0,.011a2.012,2.012,0,0,0,.471.544,2.091,2.091,0,0,0,.289.219l.008.006a2,2,0,0,0,.992.26h.008a2.008,2.008,0,0,0,.991-.261l.009-.007a1.917,1.917,0,0,0,.157-.119,2.009,2.009,0,0,0,.6-.643.276.276,0,0,0,.026-.095l0-.008A.287.287,0,0,0,600.55,386.978Z" transform="translate(-595.168 -384.266)"/><path class="h" d="M489.055,464.925h0a.9.9,0,0,0,0-1.8h0a.9.9,0,1,0,0,1.8Z" transform="translate(-488.154 -463.123)"/><path class="h" d="M499.61,464.925a.9.9,0,0,0,0-1.8h0a.9.9,0,1,0,0,1.8Z" transform="translate(-493.384 -463.123)"/></g></g></g></svg>