<svg xmlns="http://www.w3.org/2000/svg" xmlns:xlink="http://www.w3.org/1999/xlink" width="61" height="61" viewBox="0 0 61 61"><defs><style>.a{fill:#fff;}.b{fill:url(#c);}.c{fill:url(#f);}.d{fill:url(#g);}.e{fill:#007a53;}.f{filter:url(#h);}.g{filter:url(#d);}.h{filter:url(#a);}</style><filter id="a" x="0" y="0" width="61" height="61" filterUnits="userSpaceOnUse"><feOffset dy="2" input="SourceAlpha"/><feGaussianBlur stdDeviation="2.5" result="b"/><feFlood flood-opacity="0.051"/><feComposite operator="in" in2="b"/><feComposite in="SourceGraphic"/></filter><linearGradient id="c" x1="0.084" y1="0.183" x2="0.881" y2="0.864" gradientUnits="objectBoundingBox"><stop offset="0" stop-color="#2ae1b2"/><stop offset="1" stop-color="#10dd9a"/></linearGradient><filter id="d" x="6.5" y="11.5" width="49" height="40.811" filterUnits="userSpaceOnUse"><feOffset dy="3" input="SourceAlpha"/><feGaussianBlur stdDeviation="3" result="e"/><feFlood flood-color="#00a470" flood-opacity="0.549"/><feComposite operator="in" in2="e"/><feComposite in="SourceGraphic"/></filter><linearGradient id="f" x1="0.5" x2="0.5" y2="1" gradientUnits="objectBoundingBox"><stop offset="0" stop-color="#ceffee"/><stop offset="1" stop-color="#8bf5ca"/></linearGradient><linearGradient id="g" x1="0.5" x2="0.5" y2="1" gradientUnits="objectBoundingBox"><stop offset="0" stop-color="#c5ffe3"/><stop offset="1" stop-color="#fff"/></linearGradient><filter id="h" x="21.168" y="26.864" width="12.659" height="11.708" filterUnits="userSpaceOnUse"><feOffset input="SourceAlpha"/><feGaussianBlur stdDeviation="1" result="i"/><feFlood flood-color="#008a5d"/><feComposite operator="in" in2="i"/><feComposite in="SourceGraphic"/></filter></defs><g transform="translate(-32.5 -400.5)"><g class="h" transform="matrix(1, 0, 0, 1, 32.5, 400.5)"><rect class="a" width="46" height="46" rx="12" transform="translate(7.5 5.5)"/></g><g transform="translate(48 418)"><g class="g" transform="matrix(1, 0, 0, 1, -15.5, -17.5)"><path class="b" d="M11.406,0h8.189a11.406,11.406,0,1,1,0,22.811H11.406A11.406,11.406,0,0,1,11.406,0Z" transform="translate(15.5 17.5)"/></g><g transform="translate(8.036 2.97)"><g transform="translate(0 0)"><path class="c" d="M1.134,12.746A1.133,1.133,0,0,1,0,11.615V7.4A2.615,2.615,0,0,1,2.619,4.8h.895A2.615,2.615,0,0,1,6.134,7.4c0,1.395-.311,4.177-.311,4.765a.579.579,0,0,1-.579.579ZM.961,2.056A2.056,2.056,0,1,1,3.017,4.113,2.056,2.056,0,0,1,.961,2.056Z" transform="translate(0 0)"/><path class="d" d="M1.351,16.482A1.352,1.352,0,0,1,0,15.131V11.969A4.674,4.674,0,0,1,4.669,7.3H5.747a4.673,4.673,0,0,1,4.668,4.668v3.162a1.352,1.352,0,0,1-1.351,1.351Zm.906-13.14A3.342,3.342,0,1,1,5.6,6.683,3.342,3.342,0,0,1,2.257,3.342Z" transform="translate(4.359 0.585)"/></g><g class="f" transform="matrix(1, 0, 0, 1, -23.54, -20.47)"><path class="e" d="M14.659,49.708h-1.9A3.488,3.488,0,0,1,9.268,46.22H8L10.22,44l2.22,2.22H11.171A3.488,3.488,0,0,0,14.659,49.708Z" transform="translate(16.17 -14.14)"/></g></g></g></g></svg>