<svg xmlns="http://www.w3.org/2000/svg" width="21.424" height="21.424" viewBox="0 0 21.424 21.424"><defs><style>.a{fill:#fff;}</style></defs><g transform="translate(7.142)"><path class="a" d="M177.721,10.313a.894.894,0,0,0-.8-.494h-1.785V.893a.893.893,0,0,0-1.785,0V9.819h-1.785a.892.892,0,0,0-.714,1.428l2.678,3.571c.012.015.029.021.042.035a.872.872,0,0,0,.206.172.92.92,0,0,0,.092.062.838.838,0,0,0,.749,0,.908.908,0,0,0,.091-.062.872.872,0,0,0,.206-.172c.012-.014.03-.02.042-.035l2.678-3.571A.892.892,0,0,0,177.721,10.313Z" transform="translate(-170.674)"/></g><g transform="translate(0 13.39)"><path class="a" d="M20.531,320a.892.892,0,0,0-.893.893v2.678a2.681,2.681,0,0,1-2.678,2.678H4.463a2.681,2.681,0,0,1-2.678-2.678v-2.678a.893.893,0,0,0-1.785,0v2.678a4.468,4.468,0,0,0,4.463,4.463h12.5a4.468,4.468,0,0,0,4.463-4.463v-2.678A.892.892,0,0,0,20.531,320Z" transform="translate(0 -320)"/></g></svg>