<svg xmlns="http://www.w3.org/2000/svg" width="26" height="26" viewBox="0 0 26 26"><defs><style>.a{fill:#1e1e1e;}.b{fill:#fff;}</style></defs><g transform="translate(-262.589 -468.891)"><rect class="a" width="26" height="26" rx="3" transform="translate(262.589 468.891)"/><g transform="translate(267.173 473.475)"><path class="b" d="M5.5.884a.6.6,0,0,0-.6.6V4.05L1.028.176A.6.6,0,0,0,.6,0,.6.6,0,0,0,.177,1.026L4.049,4.9H1.483a.6.6,0,0,0,0,1.205H5.5a.6.6,0,0,0,.6-.6V1.485A.6.6,0,0,0,5.5.884Z" transform="translate(0)"/><path class="b" d="M328.192,332.672a.6.6,0,0,0,.6-.6v-2.565l4,3.993a.6.6,0,0,0,.851-.851l-4-4h2.565a.6.6,0,1,0,0-1.2h-4.02a.6.6,0,0,0-.6.6v4.017A.608.608,0,0,0,328.192,332.672Z" transform="translate(-316.53 -316.397)"/><path class="b" d="M1.031,333.59l3.993-4v2.565a.6.6,0,0,0,1.205,0v-4.02a.6.6,0,0,0-.6-.6H1.608a.6.6,0,0,0,0,1.2H4.174l-4,4a.6.6,0,0,0,0,.851A.606.606,0,0,0,1.031,333.59Z" transform="translate(0 -316.482)"/><path class="b" d="M331.647,6.106h4.02a.6.6,0,0,0,0-1.2H333.1l3.875-3.878a.6.6,0,0,0-.851-.851L332.252,4.05V1.485a.6.6,0,1,0-1.2,0v4.02A.6.6,0,0,0,331.647,6.106Z" transform="translate(-319.876)"/></g></g></svg>