<svg xmlns="http://www.w3.org/2000/svg" width="20.914" height="20.881" viewBox="0 0 20.914 20.881"><defs><style>.a{fill:#22d646;}.b{fill:#fff;}</style></defs><g transform="translate(-149.06 -687.394)"><g transform="translate(149.06 687.394)"><g transform="translate(0 0)"><path class="a" d="M173.58,703.058h0a1.438,1.438,0,0,0-.149-2.374h0a1.438,1.438,0,0,0-.735-2.262h0a1.438,1.438,0,0,0-1.274-2.008h0a1.438,1.438,0,0,0-1.734-1.628h0a1.438,1.438,0,0,0-2.084-1.146h0a1.438,1.438,0,0,0-2.3-.592h0a1.438,1.438,0,0,0-2.378,0h0a1.438,1.438,0,0,0-2.3.592h0a1.438,1.438,0,0,0-2.084,1.146h0a1.438,1.438,0,0,0-1.734,1.628h0a1.438,1.438,0,0,0-1.274,2.008h0a1.438,1.438,0,0,0-.735,2.262h0a1.438,1.438,0,0,0-.149,2.374h0a1.438,1.438,0,0,0,.446,2.336h0a1.438,1.438,0,0,0,1.013,2.152h0a1.438,1.438,0,0,0,1.516,1.833h0a1.438,1.438,0,0,0,1.924,1.4h0a1.438,1.438,0,0,0,2.211.875h0a1.438,1.438,0,0,0,2.36.3h0a1.438,1.438,0,0,0,2.36-.3h0a1.438,1.438,0,0,0,2.211-.875h0a1.438,1.438,0,0,0,1.924-1.4h0a1.438,1.438,0,0,0,1.516-1.833h0a1.438,1.438,0,0,0,1.013-2.152h0a1.438,1.438,0,0,0,.446-2.336Z" transform="translate(-153.653 -691.988)"/><path class="a" d="M169.97,697.211a2.793,2.793,0,0,1-.492-2.579,2.793,2.793,0,0,1-1.118-2.376,2.334,2.334,0,0,1-1.53-1.873,1.864,1.864,0,0,0-1.4-.657,1.848,1.848,0,0,0-.532-.8,1.876,1.876,0,0,0-1.239-.469,1.847,1.847,0,0,0-.439.053,1.832,1.832,0,0,0-.515-.524,1.876,1.876,0,0,0-1.054-.322,1.853,1.853,0,0,0-.875.22,1.87,1.87,0,0,0-2.522,0,1.853,1.853,0,0,0-.875-.22,1.876,1.876,0,0,0-1.054.322,1.832,1.832,0,0,0-.515.524,1.849,1.849,0,0,0-.439-.053,1.876,1.876,0,0,0-1.239.469,1.849,1.849,0,0,0-.532.8,16.271,16.271,0,0,1-2.928,2.53,2.793,2.793,0,0,1-1.118,2.376,2.793,2.793,0,0,1-.492,2.579,2.793,2.793,0,0,1,.165,2.62,2.793,2.793,0,0,1,.811,2.5,1.876,1.876,0,0,0,.979.932,1.873,1.873,0,0,0,1.608,1.945,1.841,1.841,0,0,0,.487.923,1.881,1.881,0,0,0,1.343.572,1.85,1.85,0,0,0,.211-.012,1.851,1.851,0,0,0,.536.659,1.891,1.891,0,0,0,1.149.392,1.833,1.833,0,0,0,.662-.122,1.867,1.867,0,0,0,.572.453,1.887,1.887,0,0,0,.855.2,1.833,1.833,0,0,0,1.076-.341,1.833,1.833,0,0,0,1.076.341,1.864,1.864,0,0,0,1.427-.658,1.833,1.833,0,0,0,.662.122,1.891,1.891,0,0,0,1.149-.392,1.852,1.852,0,0,0,.536-.659,1.849,1.849,0,0,0,.211.012,1.881,1.881,0,0,0,1.343-.572,1.841,1.841,0,0,0,.487-.923,16.294,16.294,0,0,1,2.587-2.877,2.793,2.793,0,0,1,.811-2.5,2.793,2.793,0,0,1,.165-2.62Zm-.339,2.587a2.408,2.408,0,0,0-.8,2.455,2.252,2.252,0,0,0-1.333,2.116A2.013,2.013,0,0,0,165.792,706a1.7,1.7,0,0,1-1.215.518,1.681,1.681,0,0,1-.319-.031,1.659,1.659,0,0,1-.537.714,1.712,1.712,0,0,1-1.04.355,1.669,1.669,0,0,1-.717-.162,1.686,1.686,0,0,1-1.371.7,1.662,1.662,0,0,1-1.076-.387,1.662,1.662,0,0,1-1.076.387,1.686,1.686,0,0,1-1.371-.7,1.668,1.668,0,0,1-.717.162,1.712,1.712,0,0,1-1.04-.355,1.659,1.659,0,0,1-.537-.714,1.679,1.679,0,0,1-.319.031,1.7,1.7,0,0,1-1.215-.518,1.669,1.669,0,0,1-.462-.963,12.145,12.145,0,0,0-2.58-2.79,2.408,2.408,0,0,0-.8-2.455,2.408,2.408,0,0,0-.162-2.576,2.409,2.409,0,0,0,.484-2.535,2.409,2.409,0,0,0,1.1-2.335,2.056,2.056,0,0,0,1.515-1.853,1.687,1.687,0,0,1,1.283-.6q.055,0,.111,0a1.676,1.676,0,0,1,.518-.847,1.7,1.7,0,0,1,1.122-.425,1.663,1.663,0,0,1,.522.083,1.668,1.668,0,0,1,.532-.585,1.7,1.7,0,0,1,.955-.292,1.68,1.68,0,0,1,.9.264,1.692,1.692,0,0,1,2.466,0,1.68,1.68,0,0,1,.9-.264,1.7,1.7,0,0,1,.955.292,1.667,1.667,0,0,1,.532.585,1.662,1.662,0,0,1,.522-.083,1.7,1.7,0,0,1,1.122.425,1.676,1.676,0,0,1,.518.847q.056,0,.111,0a9.828,9.828,0,0,0,2.8,2.448,2.408,2.408,0,0,0,1.1,2.335,2.408,2.408,0,0,0,.484,2.535,2.409,2.409,0,0,0-.162,2.576Z" transform="translate(-149.06 -687.394)"/></g></g><g transform="translate(151.965 695.321)"><path class="b" d="M186.189,784.8a.293.293,0,0,1-.2-.065.5.5,0,0,1-.1-.1l-1.645-2.456V784.6a.2.2,0,0,1-.194.194h-.941a.2.2,0,0,1-.194-.194v-4.639a.2.2,0,0,1,.194-.194h.747a.293.293,0,0,1,.2.065.5.5,0,0,1,.1.1l1.645,2.456v-2.427a.2.2,0,0,1,.194-.194h.941a.2.2,0,0,1,.194.194V784.6a.2.2,0,0,1-.194.194Z" transform="translate(-182.921 -779.768)"/><path class="b" d="M247.279,783.646a.2.2,0,0,1,.194.194v.761a.2.2,0,0,1-.194.194h-3.4a.2.2,0,0,1-.194-.194v-4.639a.2.2,0,0,1,.194-.194h3.347a.2.2,0,0,1,.194.194v.761a.2.2,0,0,1-.194.194H245.01v.776h2.054a.2.2,0,0,1,.194.194v.761a.2.2,0,0,1-.194.194H245.01v.8Z" transform="translate(-238.467 -779.768)"/><path class="b" d="M297.772,782.389l.46-2.427a.224.224,0,0,1,.086-.151.242.242,0,0,1,.136-.043h.941a.159.159,0,0,1,.158.158.314.314,0,0,1-.007.057l-.926,4.539a.306.306,0,0,1-.115.187.363.363,0,0,1-.244.086h-.6a.323.323,0,0,1-.233-.086.486.486,0,0,1-.126-.187l-.539-1.623-.539,1.623a.487.487,0,0,1-.126.187.323.323,0,0,1-.233.086h-.6a.362.362,0,0,1-.244-.086.305.305,0,0,1-.115-.187l-.926-4.539a.3.3,0,0,1-.007-.057.159.159,0,0,1,.158-.158h.941a.242.242,0,0,1,.136.043.224.224,0,0,1,.086.151l.46,2.427.424-1.3a.536.536,0,0,1,.065-.129.2.2,0,0,1,.18-.079h.675a.2.2,0,0,1,.18.079.541.541,0,0,1,.065.129Z" transform="translate(-284.45 -779.768)"/></g></g></svg>