<svg xmlns="http://www.w3.org/2000/svg" xmlns:xlink="http://www.w3.org/1999/xlink" width="61" height="61" viewBox="0 0 61 61"><defs><style>.a{fill:#fff;}.b{fill:url(#c);}.c{fill:url(#h);}.d{fill:#ffb73f;}.e{fill:url(#i);}.f{filter:url(#j);}.g{filter:url(#f);}.h{filter:url(#d);}.i{filter:url(#a);}</style><filter id="a" x="0" y="0" width="61" height="61" filterUnits="userSpaceOnUse"><feOffset dy="2" input="SourceAlpha"/><feGaussianBlur stdDeviation="2.5" result="b"/><feFlood flood-opacity="0.051"/><feComposite operator="in" in2="b"/><feComposite in="SourceGraphic"/></filter><linearGradient id="c" x1="0.084" y1="0.183" x2="0.881" y2="0.864" gradientUnits="objectBoundingBox"><stop offset="0" stop-color="#feda1a"/><stop offset="1" stop-color="#ffaf22"/></linearGradient><filter id="d" x="6.5" y="11.5" width="48.966" height="40.786" filterUnits="userSpaceOnUse"><feOffset dy="3" input="SourceAlpha"/><feGaussianBlur stdDeviation="3" result="e"/><feFlood flood-color="#a45200" flood-opacity="0.549"/><feComposite operator="in" in2="e"/><feComposite in="SourceGraphic"/></filter><filter id="f" x="20.087" y="17.093" width="18.613" height="23.5" filterUnits="userSpaceOnUse"><feOffset input="SourceAlpha"/><feGaussianBlur stdDeviation="1" result="g"/><feFlood flood-color="#ac7800" flood-opacity="0.4"/><feComposite operator="in" in2="g"/><feComposite in="SourceGraphic"/></filter><linearGradient id="h" x1="0.79" y1="0.37" x2="1.485" y2="1" gradientUnits="objectBoundingBox"><stop offset="0" stop-color="#ffe36e"/><stop offset="1" stop-color="#ffb821"/></linearGradient><linearGradient id="i" x1="0.5" x2="0.5" y2="1" gradientUnits="objectBoundingBox"><stop offset="0" stop-color="#fff2c2"/><stop offset="1" stop-color="#ffd86d"/></linearGradient><filter id="j" x="27.983" y="22.909" width="15.434" height="15.599" filterUnits="userSpaceOnUse"><feOffset input="SourceAlpha"/><feGaussianBlur stdDeviation="1" result="k"/><feFlood flood-opacity="0.231"/><feComposite operator="in" in2="k"/><feComposite in="SourceGraphic"/></filter></defs><g transform="translate(-32.5 -400.5)"><g class="i" transform="matrix(1, 0, 0, 1, 32.5, 400.5)"><rect class="a" width="46" height="46" rx="12" transform="translate(7.5 5.5)"/></g><g transform="translate(48 418)"><g class="h" transform="matrix(1, 0, 0, 1, -15.5, -17.5)"><path class="b" d="M11.393,0h8.18a11.393,11.393,0,0,1,0,22.786h-8.18A11.393,11.393,0,0,1,11.393,0Z" transform="translate(15.5 17.5)"/></g><g transform="translate(5.109 2.593)"><g class="g" transform="matrix(1, 0, 0, 1, -20.61, -20.09)"><path class="a" d="M15.093.831V16.669a.831.831,0,0,1-.831.831H3.311a.831.831,0,0,1-.831-.831V4.043L6.523,0h7.739A.831.831,0,0,1,15.093.831Z" transform="translate(20.61 20.09)"/></g><path class="c" d="M6.522,0,2.479,4.043H5.793a.729.729,0,0,0,.729-.729V0Z"/><path class="d" d="M129.831,132.767h-3.663a.256.256,0,0,1,0-.513h3.663a.256.256,0,0,1,0,.513Z" transform="translate(-119.214 -127.734)"/><g transform="translate(4.08 7.313)"><path class="d" d="M58.479,214.48h-8.9a.256.256,0,1,1,0-.513h8.9a.256.256,0,1,1,0,.513Z" transform="translate(-49.324 -213.967)"/><path class="d" d="M58.479,277.727h-8.9a.256.256,0,0,1,0-.513h8.9a.256.256,0,1,1,0,.513Z" transform="translate(-49.324 -275.052)"/><path class="d" d="M58.479,340.974h-8.9a.256.256,0,0,1,0-.513h8.9a.256.256,0,1,1,0,.513Z" transform="translate(-49.324 -336.137)"/><path class="d" d="M58.479,404.222h-8.9a.256.256,0,1,1,0-.513h8.9a.256.256,0,1,1,0,.513Z" transform="translate(-49.324 -397.224)"/></g><g class="f" transform="matrix(1, 0, 0, 1, -20.61, -20.09)"><path class="e" d="M240.528,170.695a.544.544,0,0,0-.429-.372,12.182,12.182,0,0,0-3.775,0,.544.544,0,0,0-.429.372,3.725,3.725,0,0,1-2.071,2.254.54.54,0,0,0-.327.552,7.658,7.658,0,0,0,4.511,6.234.538.538,0,0,0,.406,0,7.658,7.658,0,0,0,4.511-6.234.54.54,0,0,0-.327-.552A3.725,3.725,0,0,1,240.528,170.695Z" transform="translate(-202.51 -144.27)"/></g><path class="a" d="M341.209,217.929v.377a1.036,1.036,0,0,0,1.036,1.036h0a1.036,1.036,0,0,0,1.036-1.036v-.377a1.036,1.036,0,0,0-1.036-1.036h0A1.036,1.036,0,0,0,341.209,217.929Z" transform="translate(-327.152 -209.48)"/><path class="a" d="M320.6,302.31a.414.414,0,0,0-.571-.129,1.851,1.851,0,0,1-2,0,.414.414,0,0,0-.571.129,1.846,1.846,0,0,0-.288.993v.8a.437.437,0,0,0,.437.437h2.841a.437.437,0,0,0,.437-.437v-.8A1.847,1.847,0,0,0,320.6,302.31Z" transform="translate(-303.935 -291.79)"/></g></g></g></svg>