<svg xmlns="http://www.w3.org/2000/svg" xmlns:xlink="http://www.w3.org/1999/xlink" width="334" height="50" viewBox="0 0 334 50"><defs><style>.a{fill:url(#a);}.b{clip-path:url(#c);}.c{opacity:0.39;}.c,.f{fill:url(#d);}.d,.e,.h{fill:none;}.d,.e{stroke:#fff;}.d{stroke-width:50px;opacity:0.04;}.e{stroke-width:20px;opacity:0.08;}.f{opacity:0.41;}.g{stroke:none;}</style><linearGradient id="a" x1="-0.01" y1="0.58" x2="1" y2="0.5" gradientUnits="objectBoundingBox"><stop offset="0" stop-color="#01c2b3"/><stop offset="1" stop-color="#498cfc"/></linearGradient><clipPath id="c"><rect class="a" width="334" height="50" rx="4" transform="translate(21 275)"/></clipPath><linearGradient id="d" x1="0.452" y1="-0.974" x2="0.494" y2="1.012" gradientUnits="objectBoundingBox"><stop offset="0" stop-color="#fff"/><stop offset="1" stop-color="#fff" stop-opacity="0"/></linearGradient></defs><g transform="translate(-21 -284)"><path class="a" d="M4,0H330a4,4,0,0,1,4,4V50a0,0,0,0,1,0,0H0a0,0,0,0,1,0,0V4A4,4,0,0,1,4,0Z" transform="translate(21 284)"/><g class="b" transform="translate(0 9)"><path class="c" d="M135.086,16.381l164.2,232.1-276-37.644Z" transform="matrix(0.559, -0.829, 0.829, 0.559, 77.513, 299.471)"/><g class="d" transform="translate(288 211)"><ellipse class="g" cx="79" cy="61.5" rx="79" ry="61.5"/><ellipse class="h" cx="79" cy="61.5" rx="54" ry="36.5"/></g><g class="e" transform="translate(-32 223)"><ellipse class="g" cx="47" cy="49" rx="47" ry="49"/><ellipse class="h" cx="47" cy="49" rx="37" ry="39"/></g><path class="f" d="M135.693,16.606,300.911,248.041,23.585,209.889Z" transform="matrix(0.574, -0.819, 0.819, 0.574, 21.105, 218.644)"/></g></g></svg>