<svg id="Layer_1" data-name="Layer 1" xmlns="http://www.w3.org/2000/svg" viewBox="0 0 30 30.83"><defs><style>.cls-1{fill:#f06f71;}</style></defs><title>like_fill</title><path class="cls-1" d="M29.1,21a3.86,3.86,0,0,0,.9-2.6,4,4,0,0,0-.84-2.22,3.45,3.45,0,0,0-.82-4c-1-.94-2.77-1.36-5.18-1.24A19.9,19.9,0,0,0,20,11.4h0a5.37,5.37,0,0,0-1,.2,11.5,11.5,0,0,1,.81-3.75c.9-2.75.85-4.85-.17-6.26A4.15,4.15,0,0,0,16.35,0a1.63,1.63,0,0,0-1.24.57,4.31,4.31,0,0,0-.54,3.08c-.85,2.28-3.24,7.88-5.26,9.44l-.11.09a6.91,6.91,0,0,0-1.26,1.9,2.6,2.6,0,0,0-1.28-.33H2.72A2.69,2.69,0,0,0,0,17.4V27.89a2.7,2.7,0,0,0,2.68,2.69H6.62a2.69,2.69,0,0,0,1.55-.49l1.52.18a66.8,66.8,0,0,0,8.6.47q1.16.09,2.16.09a15.08,15.08,0,0,0,3-.27,5.57,5.57,0,0,0,4-2.49,4,4,0,0,0,.45-2.47,4.14,4.14,0,0,0,1.46-3.35A4.42,4.42,0,0,0,29.1,21Z" transform="translate(0 0)"/></svg>