<svg xmlns="http://www.w3.org/2000/svg" width="13.14" height="10" viewBox="0 0 13.14 10"><defs><style>.a{fill:#fff;}</style></defs><path class="a" d="M11.536,57.75H1.607A1.608,1.608,0,0,0,0,59.357v6.786A1.608,1.608,0,0,0,1.607,67.75h9.927a1.608,1.608,0,0,0,1.607-1.607V59.36A1.607,1.607,0,0,0,11.536,57.75Zm.873,8.393a.874.874,0,0,1-.873.873H1.607a.874.874,0,0,1-.873-.873V59.36a.874.874,0,0,1,.873-.873h9.927a.874.874,0,0,1,.873.873v6.784Z" transform="translate(0 -57.75)"/><path class="a" d="M62.078,112.129l3-2.638a.333.333,0,0,0,.025-.475.35.35,0,0,0-.485-.025l-4.14,3.641-.808-.707s-.005,0-.005-.007a.5.5,0,0,0-.056-.047l-3.286-2.882a.347.347,0,0,0-.485.027.331.331,0,0,0,.028.475l3.038,2.661-3.025,2.775a.333.333,0,0,0-.015.475.354.354,0,0,0,.251.107.348.348,0,0,0,.234-.09l3.071-2.815.833.729a.347.347,0,0,0,.457,0l.856-.752,3.053,2.842a.349.349,0,0,0,.485-.012.333.333,0,0,0-.013-.475Z" transform="translate(-53.903 -107.206)"/></svg>