<svg xmlns="http://www.w3.org/2000/svg" width="572.73" height="153.023" viewBox="0 0 572.73 153.023">
  <g id="Group_254" data-name="Group 254" transform="translate(169.005 129.631)">
    <path id="Path_254" data-name="Path 254" d="M-172.005-62.973H-21.966c5.8,0,10.495.7,10.495,6.5v13.009l25.133,1.333C31-39.464,27.408-21.5,27.411-10.889v.317H95.982" transform="translate(3 14)" fill="none" stroke="#96343f" stroke-miterlimit="10" stroke-width="1" stroke-dasharray="2.06 2.06"/>
    <path id="Path_28" data-name="Path 28" d="M-115.421,32.392V-12.8a11.774,11.774,0,0,1,11.45-12.091A11.774,11.774,0,0,1-92.15-15.651q-.237,12.585-.475,25.17a9.565,9.565,0,0,0,4.274,10.449c4.153,2.357,10,.869,12.823-3.8V4.3C-74.327,1.529-78.338-7.127-68-9.8" transform="translate(0 -9)" fill="none" stroke="#96343f" stroke-miterlimit="10" stroke-width="1" stroke-dasharray="2.06 2.06"/>
    <path id="Line_8" data-name="Line 8" d="M-58.993,20.112H398.725" transform="translate(5 -7)" fill="none" stroke="#96343f" stroke-width="1" stroke-dasharray="2"/>
    <circle id="Ellipse_16" data-name="Ellipse 16" cx="8.209" cy="8.209" r="8.209" transform="translate(77.697 -20.392)" opacity="0.68" stroke="#96343f" stroke-miterlimit="10" stroke-width="1" stroke-dasharray="2" fill="none"/>
    <circle id="Ellipse_17" data-name="Ellipse 17" cx="4.367" cy="4.367" r="4.367" transform="translate(-148.589 -129.131)" opacity="0.67" stroke="#96343f" stroke-miterlimit="10" stroke-width="1" stroke-dasharray="2" fill="none"/>
    <circle id="Ellipse_18" data-name="Ellipse 18" cx="5.072" cy="5.072" r="5.072" transform="translate(11.676 -20.463)" opacity="0.48" stroke="#96343f" stroke-miterlimit="10" stroke-width="1" stroke-dasharray="2" fill="none"/>
    <g id="Group_384" data-name="Group 384" transform="translate(-583.06 -251.49)">
      <g id="Group_255" data-name="Group 255">
        <path id="Path_255" data-name="Path 255" d="M518.761,246.492a2.967,2.967,0,0,0,2.686,3.148h39.477a2.987,2.987,0,0,0,2.718-3.176V244.2H518.761Z" fill="#ffe6cf" opacity="0.7"/>
        <path id="Path_256" data-name="Path 256" d="M521.446,211.066a2.975,2.975,0,0,0-2.683,3.171v29.968H563.65V214.218a2.966,2.966,0,0,0-2.687-3.148h-39.5Z" fill="#ffe6cf" opacity="0.7"/>
        <path id="Path_385" data-name="Path 385" d="M534.9,221.338a.269.269,0,0,1-.183-.069l-6.137-5.5-6.134,5.492a.265.265,0,0,1-.176.066.266.266,0,0,1-.177-.465l1.488-1.329v-2.02a.273.273,0,0,1,.069-.2.267.267,0,0,1,.185-.086h0a.268.268,0,0,1,.277.254v1.572l4.048-3.621a.641.641,0,0,1,.836,0l6.073,5.436a.268.268,0,0,1,.029.377h0a.264.264,0,0,1-.118.078l-.074.012Z" fill="#96343f"/>
        <path id="Path_386" data-name="Path 386" d="M524.149,230.012a.571.571,0,0,1-.567-.561v-6.013a.267.267,0,0,1,.248-.284h.006a.267.267,0,0,1,.276.254v6.08h8.936v-6.049a.266.266,0,0,1,.532,0v6.02a.572.572,0,0,1-.57.557h-8.861Z" fill="#96343f"/>
        <path id="Path_387" data-name="Path 387" d="M528.586,246.156a5,5,0,1,1,5-5A5.006,5.006,0,0,1,528.586,246.156Zm-3.709-2.466.426.472a4.423,4.423,0,0,0,5.741.716l.53-.354-3.032-3.034Zm3.975-2.644,3.1,3.1.354-.531a4.461,4.461,0,0,0-2.829-6.839l-.63-.126Zm-1.166-4.268a4.517,4.517,0,0,0-3.573,4.376,4.422,4.422,0,0,0,.266,1.484l.218.594L528.311,241v-4.355Z" fill="#96343f"/>
        <path id="Path_388" data-name="Path 388" d="M541.994,226.856a1.85,1.85,0,0,1-1.844-1.844v-9.467a.267.267,0,0,1,.533.008v9.463a1.316,1.316,0,0,0,1.31,1.312h1.315v-9.2a1.057,1.057,0,0,1,1.053-1.056h1.578a1.057,1.057,0,0,1,1.056,1.055v9.2h2.625v-5.471a.847.847,0,0,1,.843-.841h2a.847.847,0,0,1,.843.843v5.469h2.627V223.1a.723.723,0,0,1,.722-.721H558.9a.723.723,0,0,1,.721.722v3.223h.523a.266.266,0,0,1,.264.268h0a.267.267,0,0,1-.264.264Zm14.469-.532h2.623v-3.412h-2.623Zm-6.312,0h2.621v-5.78h-2.623Zm-6.312,0h2.623V216.6h-2.623Z" fill="#96343f"/>
        <path id="Path_389" data-name="Path 389" d="M541.995,246.158a1.85,1.85,0,0,1-1.845-1.845v-9.47a.266.266,0,0,1,.266-.247.268.268,0,0,1,.267.254v7.24l2.375-2.375a1.895,1.895,0,0,1,2.613.009l.913.915a1.313,1.313,0,0,0,1.855,0l3.3-3.29a1.893,1.893,0,0,1,2.612.007l.914.916a1.314,1.314,0,0,0,1.856,0l2.83-2.829a.251.251,0,0,1,.174-.07.265.265,0,0,1,.193.451L557.5,238.65a1.84,1.84,0,0,1-2.6,0l-.924-.924a1.327,1.327,0,0,0-1.847-.006l-3.3,3.3a1.838,1.838,0,0,1-2.6,0l-.926-.927a1.328,1.328,0,0,0-1.847-.007l-2.774,2.763v1.468a1.316,1.316,0,0,0,1.31,1.312h18.148a.265.265,0,0,1,.264.266.265.265,0,0,1-.264.265H541.995Z" fill="#96343f"/>
        <path id="Path_390" data-name="Path 390" d="M521.482,250.339a3.678,3.678,0,0,1-3.423-3.826v-32.3a3.69,3.69,0,0,1,3.451-3.854h39.419a3.679,3.679,0,0,1,3.423,3.825v32.3a3.687,3.687,0,0,1-3.445,3.855Zm-2.891-3.849a3.12,3.12,0,0,0,2.84,3.318h39.5a3.178,3.178,0,0,0,2.888-3.359v-.879l.009-.17v-3.248h-.008V214.217a3.12,3.12,0,0,0-2.841-3.317H521.462a3.133,3.133,0,0,0-2.871,3.359v27.9l-.007.17v3.25h.007Z" fill="#96343f"/>
      </g>
      <g id="Group_253" data-name="Group 253">
        <path id="Path_395" data-name="Path 395" d="M562.338,261.055l-.06-.078a17.091,17.091,0,0,1-2.1-3.458l-.172-.379,2.021-.82a.184.184,0,0,0,.1-.238.181.181,0,0,0-.17-.114l-2.085.835-.143-.389a16.727,16.727,0,0,1-1.013-5.211l-.014-.414h4.541a.185.185,0,0,0,.118-.062.192.192,0,0,0-.134-.321H558.7l.015-.415a16.749,16.749,0,0,1,1.111-5.447l.15-.388,2.005.865.112.04a.228.228,0,0,0,.129-.118.19.19,0,0,0-.093-.251l-2.015-.871.175-.373a17.088,17.088,0,0,1,2.976-4.4l.283-.3,1.513,1.512a.176.176,0,0,0,.131.06.169.169,0,0,0,.119-.047.184.184,0,0,0,.024-.264l-1.524-1.524.3-.282a17.02,17.02,0,0,1,4.633-3.084l.379-.171.816,2.013c.024.068.066.1.118.1.206-.065.254-.175.213-.271l-.805-1.991.386-.143a16.783,16.783,0,0,1,5.208-1.024l.415-.015v4.541a.192.192,0,1,0,.384,0v-4.541l.414.015a16.743,16.743,0,0,1,5.447,1.11l.388.15-.865,2.006a.189.189,0,0,0,.1.246l.106.038a.31.31,0,0,0,.136-.13l.869-2.013.374.175a17.015,17.015,0,0,1,4.4,2.975l.3.283-1.512,1.513a.176.176,0,0,0-.06.128.206.206,0,0,0,.176.193.237.237,0,0,0,.153-.065l1.507-1.507.282.3a17.051,17.051,0,0,1,3.075,4.645l.169.378-2.012.816a.184.184,0,0,0-.083.239c.026.076.07.112.123.112a.629.629,0,0,1,.278-.061l1.832-.774.143.389a16.754,16.754,0,0,1,1.024,5.209l.015.415H588.1a.2.2,0,0,0-.221.18.192.192,0,0,0,.182.2h4.58l-.014.414a16.935,16.935,0,0,1-1.1,5.453l-.148.391-2.026-.876a.225.225,0,0,0-.108-.032.183.183,0,0,0-.084.346l2.074.9-.172.372a17.272,17.272,0,0,1-1.883,3.142l-.06.079-.16.08Z" fill="#fed6ac"/>
        <path id="Path_396" data-name="Path 396" d="M562.436,260.854l-.06-.077a16.633,16.633,0,0,1-2.014-3.34l-.086-.19,1.828-.741a.383.383,0,0,0-.146-.738.376.376,0,0,0-.144.028l-1.825.744-.071-.2a16.541,16.541,0,0,1-1-5.149l-.007-.207h4.334a.384.384,0,0,0,.264-.126.391.391,0,0,0-.272-.657H558.91l.007-.207a16.574,16.574,0,0,1,1.1-5.383l.074-.194,1.815.783.122.044a.387.387,0,0,0,.186-.739l-1.827-.79.087-.187a16.89,16.89,0,0,1,2.942-4.351l.141-.151,1.367,1.365a.367.367,0,0,0,.272.12.374.374,0,0,0,.257-.1.381.381,0,0,0,.03-.547l-1.38-1.381.15-.141a16.84,16.84,0,0,1,4.579-3.048l.19-.086.738,1.821a.32.32,0,0,0,.3.228.363.363,0,0,0,.182-.034.4.4,0,0,0,.214-.517l-.726-1.795.194-.071a16.548,16.548,0,0,1,5.146-1.012l.207-.008v4.334a.392.392,0,1,0,.784,0v-4.334l.207.008a16.535,16.535,0,0,1,5.382,1.1l.194.074-.783,1.816a.39.39,0,0,0,.2.508l.118.043a.418.418,0,0,0,.387-.236l.789-1.826.187.087a16.848,16.848,0,0,1,4.351,2.94l.152.142-1.366,1.367a.371.371,0,0,0-.015.53.364.364,0,0,0,.272.132.44.44,0,0,0,.291-.12l1.364-1.364.141.152a16.877,16.877,0,0,1,3.039,4.591l.084.189-1.821.738a.387.387,0,0,0-.191.5.324.324,0,0,0,.307.232.85.85,0,0,1,.278-.061l1.716-.71.072.194A16.617,16.617,0,0,1,592.429,250l.007.208H588.1a.4.4,0,0,0-.42.37.392.392,0,0,0,.37.412h4.384l-.007.207a16.743,16.743,0,0,1-1.082,5.389l-.074.2-1.833-.793a.409.409,0,0,0-.188-.049.383.383,0,0,0-.176.724l1.9.823-.086.186a17.077,17.077,0,0,1-1.862,3.1l-.06.079Z" fill="#fed6ac"/>
        <path id="Path_251" data-name="Path 251" d="M588.862,260.654H562.534a16.475,16.475,0,0,1-1.99-3.3l1.635-.663a.583.583,0,1,0-.441-1.08l-.032.015-1.6.65a16.37,16.37,0,0,1-.99-5.087h4.128a.592.592,0,0,0,0-1.183h-4.127a16.416,16.416,0,0,1,1.085-5.317l1.624.7a.357.357,0,0,0,.237.059.567.567,0,0,0,.532-.351.586.586,0,0,0-.3-.769l-1.641-.709a16.707,16.707,0,0,1,2.907-4.3l1.22,1.22a.571.571,0,0,0,.808.02l.02-.02a.572.572,0,0,0,.018-.81l-.018-.018-1.22-1.22a16.662,16.662,0,0,1,4.524-3.012l.66,1.628a.517.517,0,0,0,.532.351.447.447,0,0,0,.237-.059.587.587,0,0,0,.3-.769l-.647-1.6a16.422,16.422,0,0,1,5.084-1v4.127a.592.592,0,0,0,1.184,0V234.03a16.415,16.415,0,0,1,5.317,1.084l-.7,1.625a.587.587,0,0,0,.3.769.353.353,0,0,0,.236.059.6.6,0,0,0,.533-.351l.709-1.641a16.661,16.661,0,0,1,4.3,2.906l-1.22,1.22a.573.573,0,0,0-.018.81l.018.018a.542.542,0,0,0,.414.176.635.635,0,0,0,.414-.176l1.22-1.22a16.7,16.7,0,0,1,3,4.536l-1.629.66a.587.587,0,0,0-.3.769.517.517,0,0,0,.533.351c.059,0,.119-.059.236-.059l1.6-.647a16.406,16.406,0,0,1,1,5.085H588.1a.592.592,0,0,0-.062,1.183h4.187a16.561,16.561,0,0,1-1.069,5.325l-1.641-.71a.583.583,0,0,0-.535,1.036l.029.014.032.015,1.662.719A16.765,16.765,0,0,1,588.862,260.654Z" fill="#fed6ac"/>
        <path id="Path_391" data-name="Path 391" d="M575.554,253.205a2.52,2.52,0,0,1-.519-.054,2.579,2.579,0,0,1-1.92-1.926,2.7,2.7,0,0,1,1.415-2.979c.343-.172.69-.345.977-.461,1.262-.594,2.25-1.108,3.12-1.62l2.844-1.717a.209.209,0,0,1,.106-.032.2.2,0,0,1,.153.073.3.3,0,0,1,.071.342l-1.7,2.8c-.371.628-.7,1.279-1.009,1.91-.213.428-.4.809-.6,1.18-.194.388-.37.744-.489,1.04a2.659,2.659,0,0,1-2.342,1.436Zm3.364-6.637c-.782.46-1.657.893-2.5,1.312l-.666.33c-.14.071-.282.132-.419.191a5.375,5.375,0,0,0-.609.3,2.1,2.1,0,0,0-1.108,2.4,1.975,1.975,0,0,0,1.572,1.555,2.1,2.1,0,0,0,2.393-1.141,7.39,7.39,0,0,0,.485-1.031,27.46,27.46,0,0,1,1.63-3.139l.544-.885-.436-.438Z" fill="#96343f"/>
        <path id="Path_392" data-name="Path 392" d="M562.231,261.481a.2.2,0,0,1-.179-.081,17.039,17.039,0,0,1-3.785-10.8,17.243,17.243,0,0,1,5.025-12.2c.046-.057.061-.077.079-.1a17.884,17.884,0,0,1,5.637-3.77l.122-.065.082-.02a17.318,17.318,0,0,1,18.65,3.781l.106.09.054.07a17.476,17.476,0,0,1,3.7,5.555l.065.121a17.607,17.607,0,0,1,1.275,6.53,17.013,17.013,0,0,1-3.767,10.785.209.209,0,0,1-.172.1H562.231Zm-.272-5.564a.23.23,0,0,1,.088.444l-1.973.8.151.333a16.746,16.746,0,0,0,2.031,3.372l.054.068.139.068h26.58l.113-.132a17.129,17.129,0,0,0,1.886-3.137l.15-.327-1.993-.862a.264.264,0,0,1-.136-.148.22.22,0,0,1,.009-.169.234.234,0,0,1,.209-.132.229.229,0,0,1,.1.023l1.992.862.13-.344a16.9,16.9,0,0,0,1.092-5.438l.012-.363H588.1a.243.243,0,0,1-.2-.076.235.235,0,0,1-.063-.172.239.239,0,0,1,.235-.235h4.515l-.013-.361a16.7,16.7,0,0,0-1.018-5.193l-.126-.341-1.92.778a.507.507,0,0,0-.171.043.18.18,0,0,1-.145-.117.248.248,0,0,1,.1-.335l0,0,1.953-.791-.149-.333a17.052,17.052,0,0,0-3.075-4.618l-.248-.266-1.478,1.476a.285.285,0,0,1-.18.074.189.189,0,0,1-.139-.061.241.241,0,0,1-.086-.184.224.224,0,0,1,.068-.156l1.482-1.481-.266-.248a17.013,17.013,0,0,0-4.387-2.968l-.327-.153-.853,1.973a.25.25,0,0,1-.219.14c-.193-.076-.255-.215-.2-.335l.848-1.963-.342-.131a16.7,16.7,0,0,0-5.431-1.107l-.363-.013v4.49a.239.239,0,0,1-.239.241h0a.24.24,0,0,1-.24-.24h0v-4.49l-.363.013a16.7,16.7,0,0,0-5.193,1.017l-.34.124.782,1.933a.239.239,0,0,1-.116.318.664.664,0,0,1-.118.011c-.092,0-.151-.029-.173-.1l-.8-1.986-.333.15a16.937,16.937,0,0,0-4.619,3.075l-.265.248,1.476,1.477a.231.231,0,0,1,.075.17.222.222,0,0,1-.068.155.233.233,0,0,1-.172.08.213.213,0,0,1-.159-.068l-1.483-1.483-.248.267a17.022,17.022,0,0,0-2.974,4.389l-.154.327,1.973.853a.235.235,0,0,1,.114.306.219.219,0,0,1-.2.14l-2.065-.878-.131.342a16.708,16.708,0,0,0-1.112,5.432l-.013.361h4.488a.24.24,0,0,1-.014.479h-4.48l.012.363a16.734,16.734,0,0,0,1.011,5.2l.126.342,1.945-.784A.284.284,0,0,1,561.959,255.917Z" fill="#96343f"/>
      </g>
    </g>
  </g>
</svg>
