<svg xmlns="http://www.w3.org/2000/svg" width="297" height="297" viewBox="0 0 297 297">
  <g id="Group_152" data-name="Group 152" transform="translate(-99.05 -94.05)">
    <g id="Layer_6" data-name="Layer 6" transform="translate(16 16)">
      <circle id="Ellipse_19" data-name="Ellipse 19" cx="148.5" cy="148.5" r="148.5" transform="translate(83.05 78.05)" fill="#e9e9e9"/>
    </g>
    <g id="Layer_9" data-name="Layer 9" transform="translate(5.757 14.822)">
      <g id="Group_151" data-name="Group 151">
        <path id="Path_1906" data-name="Path 1906" d="M179.367,250.917a2.733,2.733,0,0,1-1.944-.807,2.632,2.632,0,0,1,.042-3.748l4.442-4.386-19.547-19.8a36.371,36.371,0,0,1-3.4-47.136l1.822-2.446-16.96-17.178a16.5,16.5,0,0,1,.147-23.28l10.69-10.555a11.112,11.112,0,0,0-15.615-15.815l-10.69,10.555a16.349,16.349,0,0,1-11.56,4.734h-.116a16.346,16.346,0,0,1-11.6-4.881,2.659,2.659,0,0,1,1.9-4.53,2.734,2.734,0,0,1,1.944.806,10.992,10.992,0,0,0,7.8,3.287,11.1,11.1,0,0,0,7.861-3.206l10.69-10.554A16.462,16.462,0,1,1,158.4,125.4l-10.695,10.56a11.126,11.126,0,0,0-.1,15.714L164.745,169l4.433-3.251a35.9,35.9,0,0,1,19.305-5.588c.793,0,1.6.026,2.4.078a36.134,36.134,0,0,1,24.986,12.284l.032.037-.114.128,2.31,2.386,15.588,15.787,4.441-4.388a2.657,2.657,0,0,1,1.875-.764,2.677,2.677,0,0,1,1.883,4.606l-4.922,4.861-1.236,1.2-54.48,53.782A2.653,2.653,0,0,1,179.367,250.917Zm9.131-85.4a30.984,30.984,0,0,0-20.46,7.737,2.6,2.6,0,0,1-.484.347l-.525.293-.4.454c-.054.061-.088.1-.126.138a31.034,31.034,0,0,0-.319,43.953l19.548,19.8,44.159-43.6-19.549-19.8a30.927,30.927,0,0,0-20.072-9.155,2.81,2.81,0,0,1-.42-.07l-.359-.083S188.7,165.515,188.5,165.515Z" fill="#a8474f"/>
        <path id="Path_1907" data-name="Path 1907" d="M356.058,362.975a2.659,2.659,0,0,1-1.884-.793,16.5,16.5,0,0,1,0-23.281L364.8,328.279a11.112,11.112,0,0,0-15.715-15.715l-10.622,10.623a16.5,16.5,0,0,1-23.281,0l-17.069-17.071-2.46,1.807a36.372,36.372,0,0,1-47.113-3.7L228.865,284.55l-4.415,4.416a2.629,2.629,0,0,1-3.765,0,2.708,2.708,0,0,1,0-3.8l14.728-14.727-23.727-23.687a2.677,2.677,0,0,1,1.916-4.575,2.644,2.644,0,0,1,1.886.776l23.688,23.687L262.4,243.417,238.712,219.73a2.677,2.677,0,0,1,1.913-4.577,2.648,2.648,0,0,1,1.887.776L266.2,239.616l14.725-14.726a2.721,2.721,0,0,1,1.914-.775,2.648,2.648,0,0,1,1.887.775,2.71,2.71,0,0,1,0,3.8l-4.414,4.413L298.4,251.192l.154-.142a36.372,36.372,0,0,1,6.462,46.714l-3.279,4.412,17.209,17.243a11.134,11.134,0,0,0,15.718,0L345.283,308.8a16.462,16.462,0,1,1,23.281,23.281L357.941,342.7a11.069,11.069,0,0,0,0,15.68,2.707,2.707,0,0,1,0,3.8A2.651,2.651,0,0,1,356.058,362.975ZM232.63,280.751,252.3,300.425a31.035,31.035,0,0,0,43.914,0c.072-.072.12-.113.167-.154l.466-.406.3-.527a2.49,2.49,0,0,1,.314-.443,30.987,30.987,0,0,0,7.9-21.074l-.005-.367-.08-.357a3.069,3.069,0,0,1-.069-.446,30.89,30.89,0,0,0-9.026-20.106l-4.036-4.032-.085-.075-.28-.293-15.272-15.274Z" fill="#a8474f"/>
        <path id="Path_1908" data-name="Path 1908" d="M238.712,219.73a2.677,2.677,0,0,1,1.913-4.577,2.648,2.648,0,0,1,1.887.776L266.2,239.616l-3.8,3.8Z" fill="#ef9e3f"/>
        <path id="Path_1909" data-name="Path 1909" d="M211.686,246.752a2.677,2.677,0,0,1,1.916-4.575,2.644,2.644,0,0,1,1.886.776l23.708,23.7-3.783,3.784Z" fill="#ef9e3f"/>
      </g>
    </g>
  </g>
</svg>
