<svg xmlns="http://www.w3.org/2000/svg" width="28.412" height="28.412" viewBox="0 0 28.412 28.412"><defs><style>.a{fill:#f97354;}</style></defs><path class="a" d="M154.618,139a14.206,14.206,0,1,0,14.206,14.206A14.206,14.206,0,0,0,154.618,139Zm12.607,14.206a12.607,12.607,0,1,1-3.692-8.914A12.524,12.524,0,0,1,167.224,153.206Z" transform="translate(-140.412 -139)"/><path class="a" d="M199.206,245.014a1.717,1.717,0,1,0,1.682,1.717A1.7,1.7,0,0,0,199.206,245.014Z" transform="translate(-190.533 -232.339)"/><ellipse class="a" cx="1.682" cy="1.717" rx="1.682" ry="1.717" transform="translate(12.711 12.675)"/><ellipse class="a" cx="1.682" cy="1.717" rx="1.682" ry="1.717" transform="translate(18.431 12.675)"/></svg>