<svg xmlns="http://www.w3.org/2000/svg" width="45" height="20" viewBox="0 0 45 20">
  <g id="Group_2635" data-name="Group 2635" transform="translate(-283.5 -386)">
    <path id="Subtraction_1" data-name="Subtraction 1" d="M328.5,406h-45V386h45l-6.134,10Z" fill="#96333e"/>
    <g id="New" transform="translate(-2.394 -0.234)" style="isolation: isolate">
      <g id="Group_2634" data-name="Group 2634" style="isolation: isolate">
        <path id="Path_9828" data-name="Path 9828" d="M299.636,401.609h-1.507l-5.727-8.765v8.765h-1.508V390.234H292.4l5.742,8.8v-8.8h1.492Z" fill="#fff"/>
        <path id="Path_9829" data-name="Path 9829" d="M305.582,401.766a3.692,3.692,0,0,1-2.8-1.129,4.19,4.19,0,0,1-1.078-3.02v-.265a5.083,5.083,0,0,1,.48-2.247,3.744,3.744,0,0,1,1.344-1.546A3.38,3.38,0,0,1,305.4,393a3.166,3.166,0,0,1,2.563,1.086,4.7,4.7,0,0,1,.914,3.109v.6h-5.727a3,3,0,0,0,.731,2.019,2.294,2.294,0,0,0,1.777.77,2.522,2.522,0,0,0,1.3-.313,3.258,3.258,0,0,0,.93-.828l.883.688A3.551,3.551,0,0,1,305.582,401.766Zm-.18-7.578a1.927,1.927,0,0,0-1.469.636,3.1,3.1,0,0,0-.734,1.785h4.235V396.5a2.755,2.755,0,0,0-.594-1.707A1.818,1.818,0,0,0,305.4,394.188Z" fill="#fff"/>
        <path id="Path_9830" data-name="Path 9830" d="M318.035,399.617l1.625-6.461h1.446l-2.461,8.453h-1.172l-2.055-6.406-2,6.406h-1.172l-2.453-8.453h1.438l1.664,6.328,1.969-6.328h1.164Z" fill="#fff"/>
      </g>
    </g>
  </g>
</svg>
