<svg xmlns="http://www.w3.org/2000/svg" width="14.437" height="15.467" viewBox="0 0 14.437 15.467">
  <g id="Group_115" data-name="Group 115" transform="translate(0.5 0.5)">
    <path id="Path_66" data-name="Path 66" d="M354.923,326.846v-2.536a.326.326,0,0,0-.145-.27.862.862,0,0,1-.385-.717v-2.631a2.044,2.044,0,0,1,2.042-2.042H357a2.044,2.044,0,0,1,2.042,2.042v2.631a.862.862,0,0,1-.385.717.318.318,0,0,0-.145.27v2.536a.442.442,0,0,0,.247.4,20.4,20.4,0,0,1,3.68,2.361.943.943,0,0,1,.345.733v1.8a.326.326,0,1,0,.651,0v-1.8a1.6,1.6,0,0,0-.582-1.237,21.271,21.271,0,0,0-3.69-2.384v-2.246a1.506,1.506,0,0,0,.529-1.148v-2.631A2.7,2.7,0,0,0,357,318h-.566a2.7,2.7,0,0,0-2.693,2.693v2.631a1.506,1.506,0,0,0,.53,1.148v2.246a21.263,21.263,0,0,0-3.69,2.384,1.584,1.584,0,0,0-.582,1.237v1.8a.326.326,0,1,0,.651,0v-1.8a.943.943,0,0,1,.345-.733,20.589,20.589,0,0,1,3.68-2.361.442.442,0,0,0,.247-.4Zm0,0" transform="translate(-350 -318)" fill="#fff" stroke="#506fff" stroke-width="1"/>
  </g>
</svg>
