<svg xmlns="http://www.w3.org/2000/svg" width="13.907" height="18.734" viewBox="0 0 13.907 18.734">
  <path id="Path_414" data-name="Path 414" d="M71.207,23.174A.788.788,0,0,1,70.7,23a.478.478,0,0,1-.18-.41l.264-2.657L67.962,14.7a.439.439,0,0,1,.022-.462l6.267-9.509a.725.725,0,0,1,.609-.292.784.784,0,0,1,.485.159.567.567,0,0,1,.124.133l6.267,9.509a.439.439,0,0,1,.023.462l-2.827,5.251.262,2.637a.479.479,0,0,1-.18.41.784.784,0,0,1-.5.174Zm.742-1.083h5.818l-.17-1.707H72.119Zm-2.6-7.577L71.938,19.3h5.854l2.578-4.787-4.38-6.646-.442.085v7.44a.706.706,0,0,1-1.373,0V7.953l-.442-.085Z" transform="translate(-67.907 -4.44)" fill="#605f5f"/>
</svg>
