<svg xmlns="http://www.w3.org/2000/svg" width="14.059" height="14.059" viewBox="0 0 14.059 14.059"><defs><style>.a{fill:#fff;}.b{fill:#ffc03f;}</style></defs><g transform="translate(-61.051 -206.051)"><g transform="translate(61.051 206.051)"><path class="a" d="M33.341,72A1.385,1.385,0,0,0,32,73.422v9.24a1.385,1.385,0,0,0,1.341,1.422h9.835a1.385,1.385,0,0,0,1.341-1.422v-9.24A1.385,1.385,0,0,0,43.176,72h-.95v.829a.336.336,0,1,1-.671,0V72h-2.99v.829a.336.336,0,1,1-.671,0V72H34.934v.829a.336.336,0,1,1-.671,0V72Z" transform="translate(-31.229 -70.795)"/><path d="M288.028,288.566A1.029,1.029,0,0,1,287,287.538v-1.51A1.029,1.029,0,0,1,288.028,285h1.51a1.029,1.029,0,0,1,1.028,1.028v1.51a1.029,1.029,0,0,1-1.028,1.028Zm-.257-.771h1.783l.242-.03v-1.994h-2.024Z" transform="translate(-279.396 -277.45)"/><path d="M10.041,22.059A2.043,2.043,0,0,1,8,20.019V11.175a2.043,2.043,0,0,1,2.041-2.041h.935V8.34a.34.34,0,0,1,.68,0v.794h3V8.34a.34.34,0,0,1,.68,0v.794h3.033V8.34a.34.34,0,0,1,.68,0v.794h.964a2.043,2.043,0,0,1,2.041,2.041V20.1a.347.347,0,0,1,0,.051v.017a2.048,2.048,0,0,1-2.034,1.888Zm0-12.245A1.362,1.362,0,0,0,8.68,11.175v8.844a1.362,1.362,0,0,0,1.361,1.361h9.978a1.362,1.362,0,0,0,1.361-1.361V11.175a1.362,1.362,0,0,0-1.361-1.361h-.964v.794a.34.34,0,0,1-.68,0V9.814H15.342v.794a.34.34,0,0,1-.68,0V9.814h-3v.794a.34.34,0,0,1-.68,0V9.814Z" transform="translate(-8 -8)"/><circle cx="0.703" cy="0.703" r="0.703" transform="translate(2.449 10.204)"/><circle cx="0.703" cy="0.703" r="0.703" transform="translate(2.449 7.347)"/><circle cx="0.703" cy="0.703" r="0.703" transform="translate(2.449 4.49)"/><circle cx="0.703" cy="0.703" r="0.703" transform="translate(7.755 4.49)"/><circle cx="0.703" cy="0.703" r="0.703" transform="translate(5.306 7.347)"/><circle cx="0.703" cy="0.703" r="0.703" transform="translate(5.306 4.49)"/><circle cx="0.703" cy="0.703" r="0.703" transform="translate(10.472 4.49)"/><circle cx="0.703" cy="0.703" r="0.703" transform="translate(5.306 10.204)"/><path class="b" d="M311,311.024h1.783l.242-.03V309H311Z" transform="translate(-302.578 -300.633)"/></g></g></svg>