<svg xmlns="http://www.w3.org/2000/svg" xmlns:xlink="http://www.w3.org/1999/xlink" width="405" height="98" viewBox="0 0 405 98"><defs><style>.a{fill:#fff;}.b{fill:url(#c);}.c{fill:#ffa53f;}.d{fill:#a1c9f2;}.e{fill:#ffc03f;}.f{fill:#ffbd23;}.g{fill:#929cff;}.h{filter:url(#a);}</style><filter id="a" x="0" y="0" width="405" height="98" filterUnits="userSpaceOnUse"><feOffset dx="1" input="SourceAlpha"/><feGaussianBlur stdDeviation="5" result="b"/><feFlood flood-opacity="0.161"/><feComposite operator="in" in2="b"/><feComposite in="SourceGraphic"/></filter><linearGradient id="c" x1="0.5" x2="0.5" y2="1" gradientUnits="objectBoundingBox"><stop offset="0" stop-color="#488cfc"/><stop offset="1" stop-color="#8264ff"/></linearGradient></defs><g transform="translate(14 -623)"><g transform="translate(0 9.999)"><g class="h" transform="matrix(1, 0, 0, 1, -14, 613)"><path class="a" d="M64.993-2838H-123v-38a10,10,0,0,1,10-10H13.922a43.133,43.133,0,0,0,20.572-7.993c7.337-7.345,18.28-12.006,30.5-12.006,11.9,0,22.588,4.418,29.915,11.43A42.657,42.657,0,0,0,116.219-2886H242a10,10,0,0,1,10,10v38Z" transform="translate(137 2921)"/></g></g><g transform="translate(122.422 595.511)"><path class="b" d="M49.678,59.679a1.1,1.1,0,1,1,0-2.2h3.886a1.1,1.1,0,1,1,0,2.2Z"/><path class="b" d="M53.565,59.479H49.678a.9.9,0,1,1,0-1.8h3.887a.9.9,0,0,1,0,1.8Z"/><path class="c" d="M57.035,62.683a.9.9,0,0,1-.9-.9V55.375a.9.9,0,0,1,1.8,0v6.41a.9.9,0,0,1-.9.9Z"/><path class="d" d="M61.529,67.77a1.1,1.1,0,0,1-1.1-1.1V50.489a1.1,1.1,0,1,1,2.2,0V66.671A1.1,1.1,0,0,1,61.529,67.77Z"/><path class="d" d="M61.53,67.57a.9.9,0,0,1-.9-.9h0V50.489a.9.9,0,0,1,1.8,0V66.671A.9.9,0,0,1,61.53,67.57Z"/><path class="e" d="M66.024,68.469a.9.9,0,0,1-.9-.9h0V49.59a.9.9,0,0,1,1.8,0V67.57A.9.9,0,0,1,66.024,68.469Z"/><path class="b" d="M78.42,59.679a1.1,1.1,0,0,1,0-2.2h3.888a1.1,1.1,0,0,1,0,2.2Z"/><path class="b" d="M82.308,59.479H78.42a.9.9,0,0,1,0-1.8h3.888a.9.9,0,0,1,0,1.8Z"/><path class="f" d="M74.95,65.772a.9.9,0,0,1-.9-.9h0V52.287a.9.9,0,1,1,1.8,0V64.873A.9.9,0,0,1,74.95,65.772Z"/><path class="g" d="M70.456,62.625a.9.9,0,0,1-.9-.9V55.433a.9.9,0,0,1,1.8,0v6.293A.9.9,0,0,1,70.456,62.625Z"/></g></g></svg>