<svg xmlns="http://www.w3.org/2000/svg" width="22" height="22" viewBox="0 0 22 22"><defs><style>.a,.d{fill:none;}.a{stroke:#054a73;}.b{fill:#054a73;}.c{stroke:none;}</style></defs><g transform="translate(-0.128 -0.128)"><g class="a" transform="translate(0.128 0.128)"><rect class="c" width="22" height="22" rx="4"/><rect class="d" x="0.5" y="0.5" width="21" height="21" rx="3.5"/></g><g transform="translate(4.763 3.734)"><path class="b" d="M59.172,1.9H56.557V1.426A1.428,1.428,0,0,0,55.131,0h-1.9A1.428,1.428,0,0,0,51.8,1.426V1.9H49.188A1.19,1.19,0,0,0,48,3.09V4.754a.475.475,0,0,0,.475.475h.26l.411,8.625a1.424,1.424,0,0,0,1.425,1.358H57.79a1.424,1.424,0,0,0,1.425-1.358l.411-8.625h.26a.475.475,0,0,0,.475-.475V3.09A1.19,1.19,0,0,0,59.172,1.9Zm-6.418-.475a.476.476,0,0,1,.475-.475h1.9a.476.476,0,0,1,.475.475V1.9H52.754Zm-3.8,1.664a.238.238,0,0,1,.238-.238h9.983a.238.238,0,0,1,.238.238V4.279H48.951Zm9.314,10.719a.475.475,0,0,1-.475.453H50.57a.475.475,0,0,1-.475-.453l-.409-8.58h8.986Z" transform="translate(-48)"/><path class="b" d="M240.475,215.131a.475.475,0,0,0,.475-.475v-6.18a.475.475,0,1,0-.951,0v6.18A.475.475,0,0,0,240.475,215.131Z" transform="translate(-234.295 -201.82)"/><path class="b" d="M320.475,215.131a.475.475,0,0,0,.475-.475v-6.18a.475.475,0,1,0-.951,0v6.18A.475.475,0,0,0,320.475,215.131Z" transform="translate(-311.918 -201.82)"/><path class="b" d="M160.475,215.131a.475.475,0,0,0,.475-.475v-6.18a.475.475,0,1,0-.951,0v6.18A.475.475,0,0,0,160.475,215.131Z" transform="translate(-156.672 -201.82)"/></g></g></svg>