<svg xmlns="http://www.w3.org/2000/svg" width="17.951" height="18.004" viewBox="0 0 17.951 18.004"><defs><style>.a{fill:#f95454;}.b{fill:#054a73;}</style></defs><g transform="translate(-0.5 -2)"><path class="a" d="M37.865,29h-6.2A1.164,1.164,0,0,0,30.5,30.163v6.2a1.164,1.164,0,0,0,1.163,1.163h6.2a1.164,1.164,0,0,0,1.163-1.163v-6.2A1.164,1.164,0,0,0,37.865,29Zm-1.276,3.5-2.067,2.067a.388.388,0,0,1-.548,0l-1.034-1.034a.388.388,0,0,1,.548-.548l.759.76,1.793-1.793a.388.388,0,1,1,.548.548Z" transform="translate(-20.576 -17.524)"/><path class="b" d="M12.659,47.948H6.974a.474.474,0,0,1,0-.948h5.685a.474.474,0,0,1,0,.948Z" transform="translate(-4.105 -30.786)"/><path class="b" d="M12.659,29H6.974a.474.474,0,1,0,0,.948h5.685a.474.474,0,1,0,0-.948Z" transform="translate(-4.105 -18.472)"/><path class="b" d="M12.659,38H6.974a.474.474,0,0,0,0,.948h5.685a.474.474,0,0,0,0-.948Z" transform="translate(-4.105 -24.629)"/><path class="b" d="M15.5,20H6.974a.474.474,0,0,0,0,.948H15.5a.474.474,0,1,0,0-.948Z" transform="translate(-4.105 -12.314)"/><path class="b" d="M6.974,11.948h5.054a.474.474,0,0,0,0-.948H6.974a.474.474,0,1,0,0,.948Z" transform="translate(-4.105 -6.157)"/><path class="b" d="M13.943,5.929l-3.79-3.79A.479.479,0,0,0,9.818,2h-7.9A1.423,1.423,0,0,0,.5,3.421V18.583A1.423,1.423,0,0,0,1.921,20H9.028v-.948H1.921a.474.474,0,0,1-.474-.474V3.421a.474.474,0,0,1,.474-.474H9.344V6.264a.474.474,0,0,0,.474.474h3.317v3.843h.948V6.264A.48.48,0,0,0,13.943,5.929ZM10.292,5.79V3.618L12.465,5.79Z" transform="translate(0 0)"/></g></svg>