<svg xmlns="http://www.w3.org/2000/svg" width="16.228" height="16.229" viewBox="0 0 16.228 16.229"><defs><style>.a{fill:#054a73;}</style></defs><g transform="translate(0 -23.098)"><path class="a" d="M12.408,30s0-.007,0-.01a.456.456,0,0,0-.009-.05h0a.451.451,0,0,0-.014-.046l0-.013q-.006-.016-.014-.032l-.007-.014,0-.007c-.005-.01-.011-.019-.017-.028l0-.005a.392.392,0,0,0-.029-.038l-.006-.006-.028-.028-.007-.007a.371.371,0,0,0-.041-.03L6.813,26.21,9.928,24l5.221,3.352-2.2,1.564a.447.447,0,0,0-.115.572.343.343,0,0,0,.506.13l2.718-1.933a.431.431,0,0,0,.171-.36.425.425,0,0,0-.186-.351L10.1,23.152a.332.332,0,0,0-.377.01L5.905,25.876l0,0L4,27.234l0,0L.174,29.952a.431.431,0,0,0-.171.36.425.425,0,0,0,.186.351L6.134,34.48a.331.331,0,0,0,.377-.01l2.718-1.933a.447.447,0,0,0,.115-.572.343.343,0,0,0-.506-.13l-2.532,1.8L1.084,30.285,4.2,28.07l5.569,3.575v4.735a.426.426,0,0,0,.19.363.331.331,0,0,0,.373-.012l1.91-1.358a.43.43,0,0,0,.172-.351V30.045s0,0,0-.007S12.41,30.01,12.408,30ZM10.5,35.628V31.4a.427.427,0,0,0-.186-.36L4.9,27.568l1.2-.857,5.221,3.352-.457.325a.447.447,0,0,0-.115.572.359.359,0,0,0,.311.194.335.335,0,0,0,.2-.064l.413-.294v4Z" transform="translate(-0.002)"/><path class="a" d="M350.864,155.2l-2.718,1.8a.4.4,0,0,0-.115.533.363.363,0,0,0,.311.181.352.352,0,0,0,.2-.059l2.718-1.8a.4.4,0,0,0,.115-.533A.356.356,0,0,0,350.864,155.2Z" transform="translate(-335.199 -126.567)"/><path class="a" d="M8.835,228.675,6.3,230.353.549,226.909a.357.357,0,0,0-.5.145.4.4,0,0,0,.138.527l5.945,3.558a.351.351,0,0,0,.377-.009l2.718-1.8a.4.4,0,0,0,.115-.533A.356.356,0,0,0,8.835,228.675Z" transform="translate(0 -195.218)"/><path class="a" d="M350.864,195.2l-2.718,1.8a.4.4,0,0,0-.115.533.363.363,0,0,0,.311.181.352.352,0,0,0,.2-.059l2.718-1.8a.4.4,0,0,0,.115-.533A.356.356,0,0,0,350.864,195.2Z" transform="translate(-335.199 -164.908)"/><path class="a" d="M8.835,268.675,6.3,270.353.549,266.909a.357.357,0,0,0-.5.145.4.4,0,0,0,.138.527l5.945,3.558a.351.351,0,0,0,.377-.009l2.718-1.8a.4.4,0,0,0,.115-.533A.356.356,0,0,0,8.835,268.675Z" transform="translate(0 -233.41)"/><path class="a" d="M350.864,235.2l-2.718,1.8a.4.4,0,0,0-.115.533.363.363,0,0,0,.311.181.352.352,0,0,0,.2-.06l2.718-1.8a.4.4,0,0,0,.115-.533A.356.356,0,0,0,350.864,235.2Z" transform="translate(-335.199 -203.249)"/><path class="a" d="M8.835,308.675,6.3,310.353.549,306.909a.357.357,0,0,0-.5.145.4.4,0,0,0,.138.527l5.945,3.558a.351.351,0,0,0,.377-.009l2.718-1.8a.4.4,0,0,0,.115-.533A.356.356,0,0,0,8.835,308.675Z" transform="translate(0 -271.864)"/></g></svg>