<svg xmlns="http://www.w3.org/2000/svg" xmlns:xlink="http://www.w3.org/1999/xlink" width="171" height="145" viewBox="0 0 171 145"><defs><style>.a{fill:url(#a);}.b{fill:none;}.c{clip-path:url(#c);}.d{opacity:0.15;clip-path:url(#d);}.e,.g{fill:#fff;}.f{opacity:0.1;clip-path:url(#e);}.g{opacity:0.08;}</style><linearGradient id="a" x2="1" y2="1" gradientUnits="objectBoundingBox"><stop offset="0" stop-color="#9ad6ff"/><stop offset="1" stop-color="#1a90ea"/></linearGradient><clipPath id="c"><rect class="a" width="171" height="145" rx="5" transform="translate(15 78)"/></clipPath><clipPath id="d"><rect class="b" width="47" height="46"/></clipPath><clipPath id="e"><rect class="b" width="29" height="31"/></clipPath></defs><g transform="translate(-11 -510)"><rect class="a" width="171" height="145" rx="5" transform="translate(11 510)"/><g class="c" transform="translate(-4 432)"><g class="d" transform="translate(112 89)"><g transform="translate(-20 -522)"><circle class="e" cx="2" cy="2" r="2" transform="translate(20 522)"/></g><g transform="translate(-12 -522)"><circle class="e" cx="2" cy="2" r="2" transform="translate(20 522)"/></g><g transform="translate(-4 -522)"><circle class="e" cx="2" cy="2" r="2" transform="translate(20 522)"/></g><g transform="translate(4 -522)"><circle class="e" cx="2" cy="2" r="2" transform="translate(20 522)"/></g><g transform="translate(12 -522)"><circle class="e" cx="2" cy="2" r="2" transform="translate(20 522)"/></g><g transform="translate(20 -522)"><circle class="e" cx="2" cy="2" r="2" transform="translate(20 522)"/></g><g transform="translate(-20 -514)"><circle class="e" cx="2" cy="2" r="2" transform="translate(20 522)"/></g><g transform="translate(-12 -514)"><circle class="e" cx="2" cy="2" r="2" transform="translate(20 522)"/></g><g transform="translate(-4 -514)"><circle class="e" cx="2" cy="2" r="2" transform="translate(20 522)"/></g><g transform="translate(4 -514)"><circle class="e" cx="2" cy="2" r="2" transform="translate(20 522)"/></g><g transform="translate(12 -514)"><circle class="e" cx="2" cy="2" r="2" transform="translate(20 522)"/></g><g transform="translate(20 -514)"><circle class="e" cx="2" cy="2" r="2" transform="translate(20 522)"/></g><g transform="translate(-20 -506)"><circle class="e" cx="2" cy="2" r="2" transform="translate(20 522)"/></g><g transform="translate(-12 -506)"><circle class="e" cx="2" cy="2" r="2" transform="translate(20 522)"/></g><g transform="translate(-4 -506)"><circle class="e" cx="2" cy="2" r="2" transform="translate(20 522)"/></g><g transform="translate(4 -506)"><circle class="e" cx="2" cy="2" r="2" transform="translate(20 522)"/></g><g transform="translate(12 -506)"><circle class="e" cx="2" cy="2" r="2" transform="translate(20 522)"/></g><g transform="translate(20 -506)"><circle class="e" cx="2" cy="2" r="2" transform="translate(20 522)"/></g><g transform="translate(-20 -498)"><circle class="e" cx="2" cy="2" r="2" transform="translate(20 522)"/></g><g transform="translate(-12 -498)"><circle class="e" cx="2" cy="2" r="2" transform="translate(20 522)"/></g><g transform="translate(-4 -498)"><circle class="e" cx="2" cy="2" r="2" transform="translate(20 522)"/></g><g transform="translate(4 -498)"><circle class="e" cx="2" cy="2" r="2" transform="translate(20 522)"/></g><g transform="translate(12 -498)"><circle class="e" cx="2" cy="2" r="2" transform="translate(20 522)"/></g><g transform="translate(20 -498)"><circle class="e" cx="2" cy="2" r="2" transform="translate(20 522)"/></g><g transform="translate(-20 -490)"><circle class="e" cx="2" cy="2" r="2" transform="translate(20 522)"/></g><g transform="translate(-12 -490)"><circle class="e" cx="2" cy="2" r="2" transform="translate(20 522)"/></g><g transform="translate(-4 -490)"><circle class="e" cx="2" cy="2" r="2" transform="translate(20 522)"/></g><g transform="translate(4 -490)"><circle class="e" cx="2" cy="2" r="2" transform="translate(20 522)"/></g><g transform="translate(12 -490)"><circle class="e" cx="2" cy="2" r="2" transform="translate(20 522)"/></g><g transform="translate(20 -490)"><circle class="e" cx="2" cy="2" r="2" transform="translate(20 522)"/></g><g transform="translate(-20 -482)"><circle class="e" cx="2" cy="2" r="2" transform="translate(20 522)"/></g><g transform="translate(-12 -482)"><circle class="e" cx="2" cy="2" r="2" transform="translate(20 522)"/></g><g transform="translate(-4 -482)"><circle class="e" cx="2" cy="2" r="2" transform="translate(20 522)"/></g><g transform="translate(4 -482)"><circle class="e" cx="2" cy="2" r="2" transform="translate(20 522)"/></g><g transform="translate(12 -482)"><circle class="e" cx="2" cy="2" r="2" transform="translate(20 522)"/></g><g transform="translate(20 -482)"><circle class="e" cx="2" cy="2" r="2" transform="translate(20 522)"/></g></g><g class="f" transform="translate(19 192)"><g transform="translate(-20 -522)"><circle class="e" cx="2" cy="2" r="2" transform="translate(20 522)"/></g><g transform="translate(-12 -522)"><circle class="e" cx="2" cy="2" r="2" transform="translate(20 522)"/></g><g transform="translate(-4 -522)"><circle class="e" cx="2" cy="2" r="2" transform="translate(20 522)"/></g><g transform="translate(4 -522)"><circle class="e" cx="2" cy="2" r="2" transform="translate(20 522)"/></g><g transform="translate(-20 -514)"><circle class="e" cx="2" cy="2" r="2" transform="translate(20 522)"/></g><g transform="translate(-12 -514)"><circle class="e" cx="2" cy="2" r="2" transform="translate(20 522)"/></g><g transform="translate(-4 -514)"><circle class="e" cx="2" cy="2" r="2" transform="translate(20 522)"/></g><g transform="translate(4 -514)"><circle class="e" cx="2" cy="2" r="2" transform="translate(20 522)"/></g><g transform="translate(-20 -506)"><circle class="e" cx="2" cy="2" r="2" transform="translate(20 522)"/></g><g transform="translate(-12 -506)"><circle class="e" cx="2" cy="2" r="2" transform="translate(20 522)"/></g><g transform="translate(-4 -506)"><circle class="e" cx="2" cy="2" r="2" transform="translate(20 522)"/></g><g transform="translate(4 -506)"><circle class="e" cx="2" cy="2" r="2" transform="translate(20 522)"/></g><g transform="translate(-20 -498)"><circle class="e" cx="2" cy="2" r="2" transform="translate(20 522)"/></g><g transform="translate(-12 -498)"><circle class="e" cx="2" cy="2" r="2" transform="translate(20 522)"/></g><g transform="translate(-4 -498)"><circle class="e" cx="2" cy="2" r="2" transform="translate(20 522)"/></g><g transform="translate(4 -498)"><circle class="e" cx="2" cy="2" r="2" transform="translate(20 522)"/></g></g><g transform="translate(4 -432)"><circle class="g" cx="43" cy="43" r="43" transform="translate(0 467)"/><circle class="g" cx="38.5" cy="38.5" r="38.5" transform="translate(-24 525)"/><circle class="g" cx="22.5" cy="22.5" r="22.5" transform="translate(153 574)"/><circle class="g" cx="49" cy="49" r="49" transform="translate(104 596)"/></g></g></g></svg>