<svg xmlns="http://www.w3.org/2000/svg" width="14.343" height="14.343" viewBox="0 0 14.343 14.343"><defs><style>.a{fill:#01b6cb;}</style></defs><g transform="translate(14.343) rotate(90)"><g transform="translate(10.111 8.443)"><path class="a" d="M3.863,2.14,2.08.357A1.292,1.292,0,0,0,.3.357l-.3.3L3.566,4.22l.3-.3A1.26,1.26,0,0,0,3.863,2.14Z"/></g><g transform="translate(0 1.273)"><g transform="translate(0)"><path class="a" d="M9.5,8.4a.945.945,0,0,1-1.253-.065L4.722,4.81a.946.946,0,0,1-.065-1.253L1.1,0a4.537,4.537,0,0,0,.219,6.161L6.9,11.741a4.511,4.511,0,0,0,6.161.218Z"/></g></g><g transform="translate(1.67 0)"><g transform="translate(0 0)"><path class="a" d="M3.863,2.14,2.08.357A1.292,1.292,0,0,0,.3.357l-.3.3L3.566,4.22l.3-.3A1.26,1.26,0,0,0,3.863,2.14Z"/></g></g></g></svg>