<svg xmlns="http://www.w3.org/2000/svg" xmlns:xlink="http://www.w3.org/1999/xlink" width="58" height="58" viewBox="0 0 58 58"><defs><style>.a{fill:url(#a);}.b{fill:#fff;}.c{filter:url(#b);}</style><linearGradient id="a" x2="1" y2="1" gradientUnits="objectBoundingBox"><stop offset="0" stop-color="#8dc1ff"/><stop offset="1" stop-color="#afa1ff"/></linearGradient><filter id="b" x="0" y="0" width="58" height="58" filterUnits="userSpaceOnUse"><feOffset dy="3" input="SourceAlpha"/><feGaussianBlur stdDeviation="3" result="c"/><feFlood flood-color="#96b7ff" flood-opacity="0.471"/><feComposite operator="in" in2="c"/><feComposite in="SourceGraphic"/></filter></defs><g transform="translate(-84 -86)"><g class="c" transform="matrix(1, 0, 0, 1, 84, 86)"><rect class="a" width="40" height="40" rx="12" transform="translate(9 6)"/></g><g transform="translate(102 101)"><path class="b" d="M35.477,17.891H33.99V16.666a.525.525,0,1,0-1.051,0v1.225H28.258V16.666a.525.525,0,1,0-1.051,0v1.225H22.57V16.666a.525.525,0,1,0-1.051,0v1.225H20.074a3.154,3.154,0,0,0-3.15,3.15v13.65a3.155,3.155,0,0,0,3.15,3.15h15.4a3.162,3.162,0,0,0,3.144-2.909v-.026a.421.421,0,0,0,.006-.079V21.042A3.152,3.152,0,0,0,35.477,17.891Zm2.1,16.8a2.1,2.1,0,0,1-2.1,2.1h-15.4a2.1,2.1,0,0,1-2.1-2.1V21.042a2.1,2.1,0,0,1,2.1-2.1h1.442v1.225a.525.525,0,0,0,1.051,0V18.942h4.638v1.225a.525.525,0,0,0,1.051,0V18.942h4.681v1.225a.525.525,0,0,0,1.051,0V18.942h1.487a2.1,2.1,0,0,1,2.1,2.1Z" transform="translate(-16.924 -16.14)"/><path class="b" d="M20.97,28.48a1.085,1.085,0,1,0,1.085,1.085A1.085,1.085,0,0,0,20.97,28.48Z" transform="translate(-16.105 -12.728)"/><path class="b" d="M20.97,25.025a1.085,1.085,0,1,0,1.085,1.085A1.085,1.085,0,0,0,20.97,25.025Z" transform="translate(-16.105 -13.683)"/><path class="b" d="M20.97,21.57a1.085,1.085,0,1,0,1.085,1.085A1.085,1.085,0,0,0,20.97,21.57Z" transform="translate(-16.105 -14.639)"/><path class="b" d="M27.386,23.74A1.085,1.085,0,1,0,26.3,22.655,1.085,1.085,0,0,0,27.386,23.74Z" transform="translate(-14.331 -14.639)"/><path class="b" d="M24.425,25.025A1.085,1.085,0,1,0,25.51,26.11,1.085,1.085,0,0,0,24.425,25.025Z" transform="translate(-15.15 -13.683)"/><path class="b" d="M24.425,21.57a1.085,1.085,0,1,0,1.085,1.085A1.085,1.085,0,0,0,24.425,21.57Z" transform="translate(-15.15 -14.639)"/><path class="b" d="M30.671,21.57a1.085,1.085,0,1,0,1.085,1.085A1.085,1.085,0,0,0,30.671,21.57Z" transform="translate(-13.423 -14.639)"/><path class="b" d="M24.425,28.48a1.085,1.085,0,1,0,1.085,1.085A1.085,1.085,0,0,0,24.425,28.48Z" transform="translate(-15.15 -12.728)"/><path class="b" d="M30.771,25.27H28a1.885,1.885,0,0,0-1.884,1.884v2.768A1.887,1.887,0,0,0,28,31.806h2.768a1.885,1.885,0,0,0,1.884-1.884V27.154A1.883,1.883,0,0,0,30.771,25.27Zm.471,5.069-.443.055H27.532l0-3.709h3.709Z" transform="translate(-14.381 -13.616)"/></g></g></svg>