<svg xmlns="http://www.w3.org/2000/svg" width="35.669" height="35.799" viewBox="0 0 35.669 35.799"><defs><style>.a{fill:#fec9a3;}.b{fill:#f5b789;}.c{fill:#f9b44d;}.d{fill:#e8594a;}.e{fill:#4398d1;}.f{fill:#3685ba;}.g,.h{fill:#f0e4d6;}.i,.j{stroke:none;}</style></defs><g transform="translate(0 4.191)"><path class="a" d="M30.306,263.931l5.311-10.091H31.369l-2.655,4.78v-4.249a3.186,3.186,0,0,0-3.186-3.186H22.34a1.593,1.593,0,0,1-1.593-1.593v-2.124H16.5v2.124a1.593,1.593,0,0,1-1.593,1.593H11.718a3.186,3.186,0,0,0-3.186,3.186v9.559Z" transform="translate(-8.001 -232.323)"/><g transform="translate(2.656 23.592)"><path class="b" d="M44.774,391.214H43.712V389.8a5.293,5.293,0,0,1-.219-5.992l.388-.612.9.569-.388.611a4.231,4.231,0,0,0,.268,4.91.531.531,0,0,1,.116.332v1.593Z" transform="translate(-42.669 -383.198)"/><path class="b" d="M265.838,391.214h-1.062v-1.593a.53.53,0,0,1,.116-.332,4.23,4.23,0,0,0,.268-4.91l-.388-.612.9-.569.388.612a5.294,5.294,0,0,1-.219,5.992Z" transform="translate(-250.949 -383.198)"/></g><path class="c" d="M66.07,21.279V15.968a7.435,7.435,0,0,0-7.435-7.435h0A7.435,7.435,0,0,0,51.2,15.968v5.311a3.186,3.186,0,0,0,3.186,3.186h8.5A3.186,3.186,0,0,0,66.07,21.279Z" transform="translate(-48.014 -8.259)"/><path class="a" d="M380.247,301.853h-4.78a3.186,3.186,0,0,1,3.186-3.186h4.78A3.186,3.186,0,0,1,380.247,301.853Z" transform="translate(-352.099 -280.336)"/><path class="a" d="M93.867,87.259v2.287a4.78,4.78,0,0,0,9.559,0V85.3a4.754,4.754,0,0,0-.572-2.268Z" transform="translate(-88.025 -78.12)"/><rect class="d" width="7.435" height="5.842" transform="translate(6.904 22.048)"/><path class="e" d="M31.37,309.855l-2.655,4.78v-4.249a3.186,3.186,0,0,0-3.186-3.186h-1.7l-5.2,6.9-4.939-6.9H11.719a3.186,3.186,0,0,0-3.186,3.186v9.559H30.307l5.311-10.091Z" transform="translate(-8.002 -288.338)"/><g transform="translate(2.656 23.592)"><path class="f" d="M44.774,391.214H43.712V389.8a5.293,5.293,0,0,1-.219-5.992l.388-.612.9.569-.388.611a4.231,4.231,0,0,0,.268,4.91.531.531,0,0,1,.116.332v1.593Z" transform="translate(-42.669 -383.198)"/><path class="f" d="M265.838,391.214h-1.062v-1.593a.53.53,0,0,1,.116-.332,4.23,4.23,0,0,0,.268-4.91l-.388-.612.9-.569.388.612a5.294,5.294,0,0,1-.219,5.992Z" transform="translate(-250.949 -383.198)"/></g><path d="M54.881,16.464H54.35v1.062h.531A3.722,3.722,0,0,0,58.6,13.808V7.966a7.966,7.966,0,0,0-15.932,0v5.842a3.722,3.722,0,0,0,3.718,3.718h.531V16.464h-.531a2.658,2.658,0,0,1-2.655-2.655V7.966a6.9,6.9,0,0,1,13.808,0v5.842A2.658,2.658,0,0,1,54.881,16.464Z" transform="translate(-40.011 -0.257)"/><path d="M44.777,383.767l-.9-.569-.388.612a5.294,5.294,0,0,0,.219,5.992v1.412h1.062v-1.593a.53.53,0,0,0-.116-.332,4.231,4.231,0,0,1-.268-4.91Z" transform="translate(-40.012 -359.606)"/><path d="M264.776,389.621v1.593h1.062V389.8a5.294,5.294,0,0,0,.219-5.992l-.388-.612-.9.569.388.612a4.23,4.23,0,0,1-.268,4.91A.53.53,0,0,0,264.776,389.621Z" transform="translate(-248.294 -359.606)"/><path d="M1.062,92.173a2.658,2.658,0,0,1,2.655-2.655h1.69L10.19,96.2a.53.53,0,0,0,.425.222h.007a.531.531,0,0,0,.425-.212l5.045-6.692h1.434a2.659,2.659,0,0,1,2.655,2.655v4.249a.531.531,0,0,0,1,.258l2.5-4.506h3.045l-5.178,9.559h1.208l5.18-9.559h.212a3.722,3.722,0,0,0,3.718-3.718.531.531,0,0,0-.531-.531h-4.78a3.717,3.717,0,0,0-3.71,3.566l-1.6,2.882v-2.2a3.722,3.722,0,0,0-3.718-3.718H15.585l-.014-.011-.01.011H14.339a1.062,1.062,0,0,1-1.062-1.062v-1.25a5.311,5.311,0,0,0,2.655-4.592V77.3a5.319,5.319,0,0,0-.637-2.521.531.531,0,0,0-.69-.228l-8.989,4.23a.532.532,0,0,0-.3.481v2.287a5.311,5.311,0,0,0,2.655,4.592v1.25A1.062,1.062,0,0,1,6.9,88.455H3.718A3.722,3.722,0,0,0,0,92.173v9.559H1.062Zm25.492-3.186h4.2a2.66,2.66,0,0,1-2.6,2.124h-4.2A2.66,2.66,0,0,1,26.554,88.986ZM10.633,94.994,8.994,92.7h3.365ZM6.373,81.551V79.6l8.2-3.859a4.251,4.251,0,0,1,.3,1.56v4.249a4.249,4.249,0,1,1-8.5,0ZM6.9,89.517a2.124,2.124,0,0,0,2.124-2.124v-.776a5.3,5.3,0,0,0,3.186,0v.776a2.124,2.124,0,0,0,2.124,2.124h.425l-1.6,2.124H8.232l-1.52-2.124Z" transform="translate(0 -70.124)"/><g transform="translate(18.472 -4.191)"><path class="g" d="M332.262,8.533h-6.114a1.881,1.881,0,0,0-1.881,1.881v4.7A1.881,1.881,0,0,0,326.148,17h1.411V19.35L329.911,17h2.352a1.881,1.881,0,0,0,1.881-1.881v-4.7A1.881,1.881,0,0,0,332.262,8.533Z" transform="translate(-323.797 -8.063)"/><path d="M324.2,0h-6.114a2.354,2.354,0,0,0-2.352,2.352v4.7a2.354,2.354,0,0,0,2.352,2.352h.941v1.881a.47.47,0,0,0,.29.435.471.471,0,0,0,.513-.1l2.214-2.214H324.2a2.354,2.354,0,0,0,2.352-2.352v-4.7A2.354,2.354,0,0,0,324.2,0Zm1.411,7.055A1.411,1.411,0,0,1,324.2,8.466h-2.352a.469.469,0,0,0-.333.138l-1.549,1.549V8.936a.47.47,0,0,0-.47-.47h-1.411a1.411,1.411,0,0,1-1.411-1.411v-4.7A1.411,1.411,0,0,1,318.085.941H324.2a1.411,1.411,0,0,1,1.411,1.411Z" transform="translate(-315.733)"/><rect width="3.292" height="0.941" transform="translate(2.352 2.351)"/><rect width="1.881" height="0.941" transform="translate(6.584 2.351)"/><rect width="6.114" height="0.941" transform="translate(2.352 4.233)"/><rect width="3.292" height="0.941" transform="translate(2.352 6.114)"/></g><g transform="translate(24.405 5.637)"><g class="h" transform="translate(0 0)"><path class="i" d="M 5.631957054138184 10.66391658782959 C 2.857326984405518 10.66391658782959 0.5999970436096191 8.406586647033691 0.5999970436096191 5.631957054138184 C 0.5999970436096191 2.857326984405518 2.857326984405518 0.5999970436096191 5.631957054138184 0.5999970436096191 C 8.406586647033691 0.5999970436096191 10.66391658782959 2.857326984405518 10.66391658782959 5.631957054138184 C 10.66391658782959 8.406586647033691 8.406586647033691 10.66391658782959 5.631957054138184 10.66391658782959 Z"/><path class="j" d="M 5.631957054138184 1.199996948242188 C 3.188166618347168 1.199996948242188 1.199996948242188 3.188166618347168 1.199996948242188 5.631957054138184 C 1.199996948242188 8.075746536254883 3.188166618347168 10.06391716003418 5.631957054138184 10.06391716003418 C 8.075746536254883 10.06391716003418 10.06391716003418 8.075746536254883 10.06391716003418 5.631957054138184 C 10.06391716003418 3.188166618347168 8.075746536254883 1.199996948242188 5.631957054138184 1.199996948242188 M 5.631957054138184 -2.86102294921875e-06 C 8.742397308349609 -2.86102294921875e-06 11.26391696929932 2.521516799926758 11.26391696929932 5.631957054138184 C 11.26391696929932 8.742397308349609 8.742397308349609 11.26391696929932 5.631957054138184 11.26391696929932 C 2.521516799926758 11.26391696929932 -2.86102294921875e-06 8.742397308349609 -2.86102294921875e-06 5.631957054138184 C -2.86102294921875e-06 2.521516799926758 2.521516799926758 -2.86102294921875e-06 5.631957054138184 -2.86102294921875e-06 Z"/></g><g transform="translate(4.84 1.869)"><path d="M145.794,70a.792.792,0,1,0,.792.793A.793.793,0,0,0,145.794,70Z" transform="translate(-145.002 -70)"/><path d="M150.594,140a.594.594,0,0,0-.594.594v3.565a.594.594,0,1,0,1.188,0v-3.565A.594.594,0,0,0,150.594,140Z" transform="translate(-149.802 -137.227)"/></g></g></g></svg>