<svg xmlns="http://www.w3.org/2000/svg" width="9.928" height="13.063" viewBox="0 0 9.928 13.063"><defs><style>.a{fill:none;stroke:#0e7ac7;stroke-width:0.8px;}</style></defs><g transform="translate(0.4 0.4)"><path class="a" d="M11.141.25A4.525,4.525,0,0,0,6.577,4.725a4.394,4.394,0,0,0,.657,2.3.183.183,0,0,0,.023.046l.048.069c.04.061.082.12.122.175l3.561,5.113a.186.186,0,0,0,.3,0l3.558-5.109c.043-.059.085-.119.123-.176l.051-.073a.177.177,0,0,0,.022-.044,4.395,4.395,0,0,0,.658-2.307A4.525,4.525,0,0,0,11.141.25Z" transform="translate(-6.577 -0.25)"/><ellipse class="a" cx="2.315" cy="2.329" rx="2.315" ry="2.329" transform="translate(2.249 2.081)"/></g></svg>