<svg xmlns="http://www.w3.org/2000/svg" width="9.684" height="12.735" viewBox="0 0 9.684 12.735"><defs><style>.a{fill:none;stroke:#fff;stroke-width:0.8px;}</style></defs><g transform="translate(0.4 0.4)"><path class="a" d="M11.019.25A4.4,4.4,0,0,0,6.577,4.6a4.276,4.276,0,0,0,.639,2.243.178.178,0,0,0,.023.045l.047.067c.039.059.08.117.119.171l3.466,4.977a.181.181,0,0,0,.3,0L14.63,7.135c.042-.058.083-.116.12-.172l.049-.071a.173.173,0,0,0,.022-.043A4.277,4.277,0,0,0,15.461,4.6,4.4,4.4,0,0,0,11.019.25Z" transform="translate(-6.577 -0.25)"/><ellipse class="a" cx="2.253" cy="2.266" rx="2.253" ry="2.266" transform="translate(2.189 2.026)"/></g></svg>