<svg xmlns="http://www.w3.org/2000/svg" width="38" height="38" viewBox="0 0 38 38"><defs><style>.a{fill:#fff;}</style></defs><g transform="translate(0 0)"><circle cx="19" cy="19" r="19" transform="translate(0 0)"/><path class="a" d="M347.336,415.917a19,19,0,1,1,19-19h0A19.022,19.022,0,0,1,347.336,415.917Zm0-36.608a17.608,17.608,0,1,0,17.609,17.608A17.607,17.607,0,0,0,347.336,379.309Z" transform="translate(-328.336 -377.917)"/></g><path class="a" d="M341.885,395.813v-5.507a1.347,1.347,0,0,1,2.021-1.166l4.77,2.758,4.77,2.758a1.347,1.347,0,0,1,0,2.333l-4.77,2.758-4.77,2.758a1.347,1.347,0,0,1-2.021-1.167Z" transform="translate(-327.454 -376.814)"/></svg>