<svg xmlns="http://www.w3.org/2000/svg" width="38.609" height="38.078" viewBox="0 0 38.609 38.078"><defs><style>.a{fill:#f5c09a;}.b{fill:#df8621;}.c{fill:#2cbf6d;}.d{fill:#d8e2f1;}.e{fill:#f1d0a5;}.f{fill:#e49824;}.g{fill:#e7a52e;}.h{fill:none;}</style></defs><g transform="translate(9 215.318)"><g transform="translate(18.871 -193.827)"><path class="a" d="M344.2,226.271l2.435-2.8a1.154,1.154,0,0,0-.1-1.629q-.036-.032-.074-.06h0a1.153,1.153,0,0,0-1.568.172l-2.1,2.447h0a5.068,5.068,0,0,0-2.8,4.532v2.937h5.135l4.1-6.561a3.735,3.735,0,0,0,.568-1.979v-6.165A1.167,1.167,0,0,0,348.637,216h0a1.167,1.167,0,0,0-1.167,1.167v5.369Z" transform="translate(-339.533 -215.533)"/><path d="M341.1,208a1.634,1.634,0,0,0-1.634,1.634v4.482a1.619,1.619,0,0,0-2.458,0l-2.038,2.379A5.5,5.5,0,0,0,332,221.4v2.937h.934V221.4a4.575,4.575,0,0,1,2.543-4.112.466.466,0,0,0,.146-.114l2.1-2.447a.687.687,0,0,1,1.071.859c-.012.016-.026.032-.039.048l-2.435,2.8a.467.467,0,1,0,.681.639l.022-.026,3.268-3.735a.467.467,0,0,0,.115-.31v-5.369a.7.7,0,0,1,1.4,0V215.8a3.262,3.262,0,0,1-.5,1.732l-4.1,6.561.794.495,4.1-6.561a4.2,4.2,0,0,0,.637-2.227v-6.165A1.634,1.634,0,0,0,341.1,208Z" transform="translate(-332 -208)"/></g><g transform="translate(-9 -193.827)"><path class="a" d="M9.6,226.271l-2.435-2.8a1.154,1.154,0,0,1,.1-1.629q.036-.032.074-.06h0a1.153,1.153,0,0,1,1.568.172L11,224.4h0a5.068,5.068,0,0,1,2.8,4.532v2.937H8.668l-4.1-6.561A3.735,3.735,0,0,1,4,223.332v-6.165A1.167,1.167,0,0,1,5.167,216h0a1.167,1.167,0,0,1,1.167,1.167v5.369Z" transform="translate(-3.533 -215.533)"/><path d="M.739,224.587l.794-.495-4.1-6.561a3.263,3.263,0,0,1-.5-1.732v-6.165a.7.7,0,0,1,.7-.7.7.7,0,0,1,.7.7V215a.467.467,0,0,0,.116.307l3.268,3.735a.467.467,0,1,0,.726-.588l-.022-.026-2.438-2.8a.687.687,0,0,1,.057-.97l.044-.036a.688.688,0,0,1,.934.1l2.1,2.447a.467.467,0,0,0,.146.114A4.575,4.575,0,0,1,5.8,221.4v2.937h.934V221.4A5.5,5.5,0,0,0,3.764,216.5l-2.038-2.377a1.619,1.619,0,0,0-2.458,0v-4.482A1.634,1.634,0,0,0-2.366,208,1.634,1.634,0,0,0-4,209.634V215.8a4.2,4.2,0,0,0,.639,2.227Z" transform="translate(4 -208)"/></g><g transform="translate(-0.02 -215.318)"><g transform="translate(3.818 12.279)"><path class="b" d="M143.362-5.524V-6.937h13.071v1.413A6.536,6.536,0,0,1,149.9,1.012,6.536,6.536,0,0,1,143.362-5.524Z" transform="translate(-143.362 6.937)"/></g><g transform="translate(0.433 20.345)"><path class="c" d="M96.735,132.688l4.845,1.292a4.085,4.085,0,0,1,3.032,3.947v3.56H84.772v-3.56A4.085,4.085,0,0,1,87.8,133.98l4.845-1.292Z" transform="translate(-84.772 -132.688)"/></g><g transform="translate(4.21 20.345)"><path class="d" d="M152.18,137.377a6.242,6.242,0,0,0,10.253-3.594l-4.1-1.094h-4.085l-4.1,1.094A6.244,6.244,0,0,0,152.18,137.377Z" transform="translate(-150.145 -132.689)"/></g><g transform="translate(6.022 17.835)"><path class="e" d="M187.89,91.76V89.251h-4.085V91.76l-2.289.61a4.376,4.376,0,0,0,8.663,0Z" transform="translate(-181.516 -89.251)"/></g><g transform="translate(7.436 0.433)"><circle class="f" cx="2.918" cy="2.918" r="2.918" transform="translate(0)"/></g><g transform="translate(5.685 8.849)"><path class="e" d="M175.687-66.314v4.849a4.668,4.668,0,0,0,4.668,4.668,4.668,4.668,0,0,0,4.668-4.668v-4.849Z" transform="translate(-175.687 66.314)"/></g><g transform="translate(3.818 2.826)"><path class="g" d="M156.433-164.047v1.413h-1.867l-.35-.7h-1.109l-.642-.642-.7.7H148.03l-.7-.7-.642.642h-1.109l-.35.7h-1.867v-1.413a6.536,6.536,0,0,1,6.536-6.536A6.536,6.536,0,0,1,156.433-164.047Z" transform="translate(-143.362 170.583)"/></g><g transform="translate(15.022 10.775)"><path class="e" d="M338.247-30.178h-.934v-2.8h.934a.934.934,0,0,1,.934.934v.934a.934.934,0,0,1-.934.934Z" transform="translate(-337.313 32.979)"/></g><g transform="translate(3.818 10.775)"><path class="e" d="M144.295-30.178h.934v-2.8h-.934a.934.934,0,0,0-.934.934v.934a.934.934,0,0,0,.934.934Z" transform="translate(-143.361 32.979)"/></g><g transform="translate(0 0)"><path class="h" d="M345.312-25.478h-.5v1.934h.5a.5.5,0,0,0,.5-.5v-.934A.5.5,0,0,0,345.312-25.478Z" transform="translate(-329.357 36.686)"/><path class="h" d="M151.362-23.544h.5v-1.934h-.5a.5.5,0,0,0-.5.5v.934A.5.5,0,0,0,151.362-23.544Z" transform="translate(-146.611 36.686)"/><path class="h" d="M219.309-202.537a2.489,2.489,0,0,0-2.429-1.963,2.489,2.489,0,0,0-2.429,1.963,6.935,6.935,0,0,1,2.429-.437A6.934,6.934,0,0,1,219.309-202.537Z" transform="translate(-206.527 205.367)"/><path class="h" d="M301.971,21.484a5.108,5.108,0,0,1-2.616,4.148v1.114a6.086,6.086,0,0,0,3.622-5.355,1.359,1.359,0,0,1-.5.094Z" transform="translate(-286.526 -7.475)"/><path class="h" d="M191.657-41.954v-2.821l-.185-.369h-.841a.433.433,0,0,1-.306-.127l-.336-.336-.394.394a.433.433,0,0,1-.306.127h-3.735a.433.433,0,0,1-.306-.127l-.394-.394-.336.336a.433.433,0,0,1-.306.127h-.843l-.182.358v2.832a4.24,4.24,0,0,0,4.235,4.235A4.24,4.24,0,0,0,191.657-41.954Z" transform="translate(-177.069 55.651)"/><path class="h" d="M152.026-156l.236-.464a.433.433,0,0,1,.386-.237h.929l.515-.515a.433.433,0,0,1,.613,0l.573.573h3.376l.573-.573a.433.433,0,0,1,.613,0l.515.515h.929a.433.433,0,0,1,.387.24l.23.461h.666a1.359,1.359,0,0,1,.5.1v-1.075a6.109,6.109,0,0,0-6.1-6.1,6.109,6.109,0,0,0-6.1,6.1v1.075a1.358,1.358,0,0,1,.5-.1Z" transform="translate(-146.613 166.342)"/><path class="h" d="M111.246,164.712V164.5a3.656,3.656,0,0,0-2.711-3.528l-.307-.082a6.674,6.674,0,0,1-12.939,0l-.307.082a3.656,3.656,0,0,0-2.711,3.528v3.126h2.751v-1.142a.433.433,0,0,1,.866,0v1.142h11.738v-1.142a.433.433,0,0,1,.866,0v1.142h2.751v-2.912Z" transform="translate(-91.406 -138.915)"/><path class="h" d="M154.559,25.632a5.108,5.108,0,0,1-2.616-4.148h-.51a1.359,1.359,0,0,1-.5-.094,6.056,6.056,0,0,0,1.783,4.092,6.138,6.138,0,0,0,1.839,1.263Z" transform="translate(-146.682 -7.475)"/><path class="h" d="M160.808,155.779a5.807,5.807,0,0,0,9.456-2.956l-.966-.258a4.809,4.809,0,0,1-9.333,0l-.966.258A5.834,5.834,0,0,0,160.808,155.779Z" transform="translate(-154.278 -131.072)"/><path class="h" d="M194.033,107.166a3.963,3.963,0,0,0,3.83-3.005l-1.9-.506a.433.433,0,0,1-.322-.419V101.43a5.105,5.105,0,0,1-3.218,0v1.806a.433.433,0,0,1-.322.419l-1.9.506A3.963,3.963,0,0,0,194.033,107.166Z" transform="translate(-183.679 -82.891)"/><path d="M97.979-193.916h0v-.013s0-.006,0-.009a4.523,4.523,0,0,0-3.353-4.344h0l-4.233-1.129a6.952,6.952,0,0,0,4.2-6.4v-4.331a6.974,6.974,0,0,0-3.62-6.11,3.354,3.354,0,0,0-3.348-3.251,3.354,3.354,0,0,0-3.348,3.251,6.974,6.974,0,0,0-3.62,6.11v4.331A6.921,6.921,0,0,0,82.7-200.88a7.011,7.011,0,0,0,2.162,1.469l-4.233,1.129a4.524,4.524,0,0,0-3.35,4.182.427.427,0,0,0,0,.055v3.688a.433.433,0,0,0,.433.433h19.84a.433.433,0,0,0,.433-.433V-193.7h0ZM90.1-200.229v-1.114a5.108,5.108,0,0,0,2.616-4.148h.51a1.359,1.359,0,0,0,.5-.094A6.086,6.086,0,0,1,90.1-200.229Zm-2.476-1.338A4.24,4.24,0,0,1,83.39-205.8v-2.832l.182-.358h.843a.433.433,0,0,0,.306-.127l.336-.336.394.394a.433.433,0,0,0,.306.127h3.735a.433.433,0,0,0,.306-.127l.394-.394.336.336a.433.433,0,0,0,.306.127h.841l.185.369v2.821A4.24,4.24,0,0,1,87.625-201.567Zm6.1-5.291a.5.5,0,0,1-.5.5h-.5v-1.934h.5a.5.5,0,0,1,.5.5Zm-6.1-11.776a2.489,2.489,0,0,1,2.429,1.963,6.936,6.936,0,0,0-2.429-.437,6.936,6.936,0,0,0-2.429.437A2.489,2.489,0,0,1,87.625-218.633Zm-6.1,8.495a6.109,6.109,0,0,1,6.1-6.1,6.109,6.109,0,0,1,6.1,6.1v1.075a1.36,1.36,0,0,0-.5-.1h-.666l-.23-.461a.433.433,0,0,0-.387-.239h-.929l-.515-.515a.433.433,0,0,0-.613,0l-.573.573H85.938l-.573-.573a.433.433,0,0,0-.613,0l-.515.515h-.929a.433.433,0,0,0-.386.237l-.236.464h-.662a1.359,1.359,0,0,0-.5.1Zm0,2.347a.5.5,0,0,1,.5-.5h.5v1.934h-.5a.5.5,0,0,1-.5-.5Zm1.787,6.3a6.056,6.056,0,0,1-1.783-4.092,1.359,1.359,0,0,0,.5.094h.51a5.108,5.108,0,0,0,2.616,4.148v1.113A6.138,6.138,0,0,1,83.31-201.493Zm2.384,2.756a.433.433,0,0,0,.322-.419v-1.806a5.08,5.08,0,0,0,1.609.26,5.08,5.08,0,0,0,1.609-.26v1.806a.433.433,0,0,0,.322.419l1.9.506a3.963,3.963,0,0,1-3.83,3.005,3.963,3.963,0,0,1-3.83-3.005Zm-2.736.73a4.813,4.813,0,0,0,1.5,2.461,4.8,4.8,0,0,0,3.165,1.188,4.8,4.8,0,0,0,3.165-1.188,4.813,4.813,0,0,0,1.5-2.461l.966.257a5.834,5.834,0,0,1-1.809,2.956,5.8,5.8,0,0,1-3.824,1.436,5.8,5.8,0,0,1-3.824-1.436,5.834,5.834,0,0,1-1.809-2.956Zm11.4,7.217v-1.142a.433.433,0,0,0-.433-.433.433.433,0,0,0-.433.433v1.142H81.756v-1.142a.433.433,0,0,0-.433-.433.433.433,0,0,0-.433.433v1.142H78.138v-3.126a3.656,3.656,0,0,1,2.711-3.528l.307-.082a6.7,6.7,0,0,0,2.075,3.385,6.671,6.671,0,0,0,4.394,1.65,6.671,6.671,0,0,0,4.394-1.65,6.7,6.7,0,0,0,2.076-3.385l.307.082a3.656,3.656,0,0,1,2.711,3.528v.213h0v2.912Z" transform="translate(-77.272 219.5)"/></g></g></g></svg>