<svg xmlns="http://www.w3.org/2000/svg" width="22" height="22" viewBox="0 0 22 22"><defs><style>.a{fill:#1e1e1e;}.b{fill:#fff;}</style></defs><g transform="translate(-262.339 -468.641)"><rect class="a" width="22" height="22" rx="3" transform="translate(262.339 468.641)"/><g transform="translate(266.339 472.641)"><g transform="translate(4.697)"><path class="b" d="M175.308,6.782a.588.588,0,0,0-.525-.325h-1.174V.587a.587.587,0,1,0-1.174,0V6.458h-1.174a.587.587,0,0,0-.47.939l1.761,2.348c.008.01.019.014.028.023a.573.573,0,0,0,.136.113.605.605,0,0,0,.06.041.551.551,0,0,0,.493,0,.6.6,0,0,0,.06-.041.573.573,0,0,0,.136-.113c.008-.009.02-.013.028-.023L175.253,7.4A.586.586,0,0,0,175.308,6.782Z" transform="translate(-170.674)"/></g><g transform="translate(0 8.806)"><path class="b" d="M13.5,320a.587.587,0,0,0-.587.587v1.761a1.763,1.763,0,0,1-1.761,1.761H2.935a1.763,1.763,0,0,1-1.761-1.761v-1.761a.587.587,0,0,0-1.174,0v1.761a2.939,2.939,0,0,0,2.935,2.935h8.219a2.939,2.939,0,0,0,2.935-2.935v-1.761A.587.587,0,0,0,13.5,320Z" transform="translate(0 -320)"/></g></g></g></svg>