<svg xmlns="http://www.w3.org/2000/svg" width="37.612" height="22" viewBox="0 0 37.612 22"><defs><style>.a{fill:#787bc4;}</style></defs><g transform="translate(-11 -106.3)"><path class="a" d="M48.612,126.338V108.262A2.079,2.079,0,0,0,46.44,106.3H13.172A2.079,2.079,0,0,0,11,108.262v18.076a2.079,2.079,0,0,0,2.172,1.962H46.44A2.074,2.074,0,0,0,48.612,126.338Zm-35.731,0V108.262c0-.066.115-.162.292-.162H46.44c.184,0,.292.1.292.162v18.076c0,.066-.115.162-.292.162H13.172C13,126.5,12.881,126.4,12.881,126.338Z" transform="translate(0 0)"/><circle class="a" cx="1.155" cy="1.155" r="1.155" transform="translate(16.512 111.391)"/><circle class="a" cx="1.155" cy="1.155" r="1.155" transform="translate(21.427 111.391)"/><circle class="a" cx="1.155" cy="1.155" r="1.155" transform="translate(26.238 111.391)"/><circle class="a" cx="1.155" cy="1.155" r="1.155" transform="translate(31.056 111.391)"/><circle class="a" cx="1.155" cy="1.155" r="1.155" transform="translate(35.874 111.391)"/><circle class="a" cx="1.155" cy="1.155" r="1.155" transform="translate(40.789 111.391)"/><circle class="a" cx="1.155" cy="1.155" r="1.155" transform="translate(19.022 116.145)"/><circle class="a" cx="1.155" cy="1.155" r="1.155" transform="translate(23.833 116.145)"/><circle class="a" cx="1.155" cy="1.155" r="1.155" transform="translate(28.651 116.145)"/><circle class="a" cx="1.155" cy="1.155" r="1.155" transform="translate(33.461 116.145)"/><path class="a" d="M367.155,240.7h0a1.155,1.155,0,1,0,0,2.311h0a1.155,1.155,0,0,0,0-2.311Z" transform="translate(-327.721 -124.555)"/><path class="a" d="M151.836,308.7H135.329a.929.929,0,0,0,0,1.858h16.507a.929.929,0,0,0,0-1.858Z" transform="translate(-113.776 -187.564)"/></g></svg>