<svg xmlns="http://www.w3.org/2000/svg" width="23.333" height="23.333" viewBox="0 0 23.333 23.333">
  <g id="Group_8873" data-name="Group 8873" transform="translate(0 -0.004)">
    <g id="Capa_1" data-name="Capa 1" transform="translate(0 0.004)">
      <g id="Group_8870" data-name="Group 8870" transform="translate(0 0)">
        <g id="Group_8869" data-name="Group 8869">
          <path id="Path_37088" data-name="Path 37088" d="M13.857.2a2.032,2.032,0,0,0-2.183.282L5.9,5.291H2.051A2.053,2.053,0,0,0,0,7.341V16A2.053,2.053,0,0,0,2.051,18.05H5.9l5.77,4.808a2.051,2.051,0,0,0,3.363-1.575V2.057A2.032,2.032,0,0,0,13.857.2ZM5.468,16.692H2.051A.692.692,0,0,1,1.367,16V7.341a.684.684,0,0,1,.684-.684H5.468Zm8.2,4.591a.684.684,0,0,1-1.121.525L6.835,17.046V6.294L12.55,1.532a.684.684,0,0,1,1.121.525Z" transform="translate(0 -0.004)" fill="#787bc4"/>
        </g>
      </g>
    </g>
    <g id="Layer_3" data-name="Layer 3" transform="translate(16.498 9.206)">
      <g id="Group_8872" data-name="Group 8872">
        <g id="Group_8871" data-name="Group 8871">
          <path id="Path_37089" data-name="Path 37089" d="M366.395,205.344l2.251-2.251a.684.684,0,0,0-.967-.967l-2.251,2.251-2.251-2.251a.684.684,0,1,0-.967.967l2.251,2.251-2.251,2.251a.684.684,0,1,0,.967.967l2.251-2.251,2.251,2.251a.684.684,0,1,0,.967-.967Z" transform="translate(-362.011 -201.927)" fill="#787bc4"/>
        </g>
      </g>
    </g>
  </g>
</svg>
