<svg xmlns="http://www.w3.org/2000/svg" width="21.122" height="16" viewBox="0 0 21.122 16"><defs><style>.a{fill:#0e7ac7;}</style></defs><g transform="translate(-2 -76)"><g transform="translate(0 76)"><path class="a" d="M19.266,76H1.856A1.935,1.935,0,0,0,0,78V90a1.935,1.935,0,0,0,1.856,2H19.266a1.934,1.934,0,0,0,1.856-2V78A1.934,1.934,0,0,0,19.266,76Zm-.26,1.333-7.132,7.643a1.764,1.764,0,0,1-2.627,0L2.116,77.333ZM1.238,89.729V78.272L6.586,84Zm.88.938,5.346-5.723.91.975a2.939,2.939,0,0,0,4.374,0l.911-.976L19,90.667Zm17.767-.938L14.536,84l5.348-5.731Z" transform="translate(2 -76)"/></g></g></svg>