<svg xmlns="http://www.w3.org/2000/svg" width="13.482" height="11.849" viewBox="0 0 13.482 11.849"><defs><style>.a{fill:#a4a9bc;}</style></defs><circle class="a" cx="0.44" cy="0.44" r="0.44" transform="translate(7.036 2.199)"/><circle class="a" cx="0.44" cy="0.44" r="0.44" transform="translate(8.795 2.199)"/><circle class="a" cx="0.44" cy="0.44" r="0.44" transform="translate(10.554 2.199)"/><path class="a" d="M8.879,110.032a1.183,1.183,0,0,0,1.179-1.185v-1.58a.4.4,0,0,0-.27-.375l-2.364-.79a.4.4,0,0,0-.344.046l-1.005.67a6.983,6.983,0,0,1-2.862-2.836l.67-1.005a.4.4,0,0,0,.046-.344l-.79-2.364a.4.4,0,0,0-.375-.27H1.185A1.183,1.183,0,0,0,0,101.179a8.841,8.841,0,0,0,2.722,6.145A8.9,8.9,0,0,0,8.879,110.032ZM1.185,100.79h1.3l.639,1.911-.683,1.024a.4.4,0,0,0-.038.366,6.534,6.534,0,0,0,1.48,2.08,6.7,6.7,0,0,0,2.09,1.464.4.4,0,0,0,.366-.038l1.024-.683,1.911.639v1.3a.388.388,0,0,1-.389.395,8.508,8.508,0,0,1-8.09-8.063A.388.388,0,0,1,1.185,100.79Z" transform="translate(0 -98.183)"/><path class="a" d="M183.614,38.08a.4.4,0,0,0,.43-.086l1.464-1.464h1.416a2.765,2.765,0,1,0,0-5.53h-3.16a2.765,2.765,0,0,0-.395,5.5v1.213A.4.4,0,0,0,183.614,38.08Zm-1.824-4.315a1.977,1.977,0,0,1,1.975-1.975h3.16a1.975,1.975,0,1,1,0,3.95h-1.58a.4.4,0,0,0-.279.116l-.906.906v-.626a.4.4,0,0,0-.395-.395A1.977,1.977,0,0,1,181.79,33.765Z" transform="translate(-176.234 -31)"/></svg>