<svg xmlns="http://www.w3.org/2000/svg" width="26" height="26" viewBox="0 0 26 26"><defs><style>.a{fill:#fff;}.b{fill:#d35230;}.c{fill:#ed6c47;}.d{fill:#ff8f6b;}.e{fill:#cc4f2f;}.f{fill:#e56844;}.g{fill:#f6f6f6;}.h{fill:#c54d2d;}.i{fill:#bf4a2b;}.j{fill:#d66140;}.k{fill:#e6e6e6;}.l{fill:#eee;}.m{fill:#b24529;}.n{fill:#c85b3c;}.o{fill:#eb6b46;}.p{fill:#e36744;}.q{fill:#d5613f;}.r{fill:#c65a3b;}.s{fill:#b7472a;}.t{fill:#ab4327;}.u{fill:#973b22;}.v{fill:#9e3e24;}.w{fill:#8d3720;}.x{fill:#a64126;}.y{fill:#bb5638;}.z{fill:#dedede;}.aa{fill:#b8472a;}.ab{fill:#d7d7d7;}.ac{fill:#d5d5d5;}.ad{fill:#b14529;}.ae{fill:#963a22;}.af{fill:#913821;}.ag{fill:#85341e;}.ah{fill:#82321e;}.ai{fill:#7d301c;}.aj{fill:#762e1b;}.ak{fill:#712c1a;}.al{fill:#c5c5c5;}.am{fill:#b9b9b9;}.an{fill:#9a3c23;}.ao{fill:#afafaf;}.ap{fill:#a6a6a6;}.aq{fill:#a34a31;}.ar{fill:#9b462e;}.as{fill:#8b402a;}.at{fill:#793724;}.au{fill:#ac4327;}.av{fill:#a13e25;}.aw{fill:#8f3720;}.ax{fill:#87341f;}.ay{fill:#8f3821;}.az{fill:#80321d;}.ba{fill:#7f321d;}.bb{fill:#88351f;}.bc{fill:#7a301c;}.bd{fill:#742d1a;}.be{fill:#792f1b;}.bf{fill:#6a2918;}.bg{fill:#6f2b19;}.bh{fill:#672817;}.bi{fill:#a13f25;}.bj{fill:#9c3d24;}.bk{fill:#b05035;}.bl{fill:#943a22;}.bm{fill:#8b3620;}.bn{fill:#81321d;}.bo{fill:#7e311d;}.bp{fill:#782f1c;}.bq{fill:#7f311d;}.br{fill:#6e2b19;}.bs{fill:#6d2a19;}.bt{fill:#682918;}.bu{fill:#632717;}.bv{fill:#622616;}.bw{fill:#612616;}.bx{fill:#84341e;}.by{fill:#662818;}.bz{fill:#662717;}.ca{fill:#5c2415;}.cb{fill:#5a2314;}.cc{fill:#552113;}.cd{fill:#532013;}.ce{fill:#501f12;}.cf{fill:#83331e;}.cg{fill:#93432c;}.ch{fill:#853d28;}.ci{fill:#7f3a26;}.cj{fill:#592214;}.ck{fill:#743523;}.cl{fill:#642717;}.cm{fill:#703322;}.cn{fill:#692f1f;}.co{fill:#632d1e;}.cp{fill:#602c1d;}.cq{fill:#5d2a1c;}.cr{fill:#5b2315;}.cs{fill:#4f1f12;}.ct{fill:#4e1e12;}.cu{fill:#dd6542;}.cv{fill:#db6442;}.cw{fill:#d4613f;}.cx{fill:#c75b3b;}.cy{fill:#ba5538;}.cz{fill:#99462e;}.da{fill:#823b27;}.db{fill:#733523;}.dc{fill:#92432c;}.dd{fill:#7d3925;}.de{fill:#703321;}.df{fill:#843c28;}.dg{fill:#682f1f;}.dh{fill:#652e1e;}.di{fill:#ce5e3e;}.dj{fill:#c1583a;}.dk{fill:#c9c9c9;}.dl{fill:#c3c3c3;}.dm{fill:#a23f25;}.dn{fill:#bdbdbd;}.do{fill:#b8b8b8;}.dp{fill:#c1c1c1;}.dq{fill:#a03e24;}.dr{fill:#b7b7b7;}.ds{fill:#983b22;}.dt{fill:#86341e;}.du{fill:#84331e;}.dv{fill:#732d1a;}.dw{fill:#a2a2a2;}.dx{fill:#939393;}.dy{fill:#7a301d;}.dz{fill:gray;}.ea{fill:#aaa;}.eb{fill:#9f482f;}.ec{fill:#97452d;}.ed{fill:#9e9e9e;}.ee{fill:#9a9a9a;}.ef{fill:#9d9d9d;}.eg{fill:#999;}.eh{fill:#8b8b8b;}.ei{fill:#737373;}.ej{fill:#5f2516;}.ek{fill:#612516;}.el{fill:#602516;}.em{fill:#582214;}.en{fill:#562114;}.eo{fill:#511f12;}.ep{fill:#4d1e12;}.eq{fill:#4b1d11;}.er{fill:#b55336;}.es{fill:#c0583a;}.et{fill:#b45236;}.eu{fill:#aa4e33;}.ev{fill:#8f412b;}.ew{fill:#95442d;}.ex{fill:#8e412b;}.ey{fill:#7b3825;}.ez{fill:#6e3221;}.fa{fill:#6a3020;}.fb{fill:#969696;}.fc{fill:#893e29;}.fd{fill:#929292;}.fe{fill:#883e29;}.ff{fill:#7c3825;}.fg{fill:#763623;}.fh{fill:#6f3221;}.fi{fill:#672f1f;}.fj{fill:#622c1d;}.fk{fill:#888;}.fl{fill:#7e3a26;}.fm{fill:#858585;}.fn{fill:#7e7e7e;}.fo{fill:#753523;}.fp{fill:#7c7c7c;}.fq{fill:#6c3120;}.fr{fill:#717171;}.fs{fill:#69301f;}.ft{fill:#6f6f6f;}.fu{fill:#612c1d;}.fv{fill:#642e1e;}.fw{fill:#5e2b1c;}.fx{fill:#5a291b;}.fy{fill:#58281a;}.fz{fill:#6e6e6e;}.ga{fill:#662f1f;}.gb{fill:#6d6d6d;}.gc{fill:#5a2315;}.gd{fill:#5f2b1c;}.ge{fill:#57281a;}.gf{fill:#56271a;}.gg{fill:#5c2a1c;}.gh{fill:#572114;}.gi{fill:#542013;}.gj{fill:#696969;}.gk{fill:#572214;}.gl{fill:#5b2a1b;}.gm{fill:#57271a;}.gn{fill:#4b1d12;}.go{fill:#552719;}.gp{fill:#c43e1c;}.gq{fill:#f9f7f7;}</style></defs><g transform="translate(-86.667 -346.816)"><rect class="a" width="26" height="26" rx="2" transform="translate(86.667 346.816)"/><g transform="translate(23.167 261.456)"><path class="b" d="M121.465,90.36a8.245,8.245,0,0,1,8.254,8.235V98.6a8.25,8.25,0,0,1-8.245,8.254h0a8.25,8.25,0,0,1-8.25-8.25v0a8.249,8.249,0,0,1,8.245-8.244" transform="translate(-43.358)"/><path class="c" d="M121.38,90.36a8.264,8.264,0,0,0-8.25,8.25h8.25V90.36" transform="translate(-43.272 0)"/><path class="d" d="M272.77,90.36a8.269,8.269,0,0,1,8.254,8.25H272.77Z" transform="translate(-194.663 0)"/><path class="e" d="M260.472,250h-.234v4.486a.61.61,0,0,1-.128.352.607.607,0,0,0,.361-.513c0-.008,0-.017,0-.025V250" transform="translate(-182.657 -151.39)"/><path class="f" d="M246.845,155.23h-.465a.6.6,0,0,1,.087.173h.135a.617.617,0,0,1,.616.6v4.122h.234v-4.309a.608.608,0,0,0-.607-.588" transform="translate(-169.636 -61.518)"/><path class="g" d="M138.282,155.24h-.022q-.162.217-.31.444h0c.057-.088.115-.176.176-.263h.012l.006-.009h.008c.041-.058.082-.116.124-.173" transform="translate(-66.81 -61.527)"/><path class="e" d="M142.1,155.24h0c-.042.057-.083.115-.124.173h0l.011-.015c.038-.054.075-.106.114-.158" transform="translate(-70.622 -61.527)"/><path class="f" d="M142.337,155.24h0c-.039.052-.076.1-.114.157.027-.039.055-.077.084-.115h0l.032-.042" transform="translate(-70.859 -61.527)"/><path class="h" d="M161.053,359.057h0m3.994-.517a.82.82,0,0,1-.575.236H160.75q.147.144.3.282h3.419c.232,0,.43-.229.575-.517" transform="translate(-88.431 -254.322)"/><path class="h" d="M255.843,343.62a.6.6,0,0,1-.208.05.591.591,0,0,1-.024.133.612.612,0,0,0,.233-.183" transform="translate(-178.389 -240.173)"/><path class="i" d="M256.416,250h-.154v4.127a1.777,1.777,0,0,1-.181.672v.06h0a.262.262,0,0,1,0,.028.6.6,0,0,0,.208-.05.61.61,0,0,0,.128-.352V250" transform="translate(-178.835 -151.39)"/><path class="j" d="M248.2,158.57h-.135a.632.632,0,0,1,.028.167v.106a.607.607,0,0,1,.569.588v3.864h.153v-4.123a.616.616,0,0,0-.615-.6" transform="translate(-171.23 -64.685)"/><path class="k" d="M141.7,158.57H141.7l-.006.009h.008l.006-.009" transform="translate(-70.356 -64.685)"/><path class="i" d="M141.858,158.57h0l-.006.009h0l.006-.009" transform="translate(-70.508 -64.685)"/><path class="l" d="M112.231,163.84h-.078a8.188,8.188,0,0,0-1.324,4.265,8.117,8.117,0,0,1,1.157-3.963h.058c.06-.1.122-.2.187-.3" transform="translate(-41.091 -69.683)"/><path class="k" d="M134.531,163.84h0q-.1.149-.187.3h.007q.089-.153.184-.3" transform="translate(-63.386 -69.683)"/><path class="m" d="M256.291,250h-.076v4.146a1.1,1.1,0,0,1-.1.425v.228a1.787,1.787,0,0,0,.181-.672V250" transform="translate(-178.864 -151.39)"/><path class="n" d="M248.61,163.85v.061h0v.238l.025.018a.607.607,0,0,1,.467.573V168.3h.076v-3.864a.607.607,0,0,0-.568-.588" transform="translate(-171.751 -69.692)"/><path class="l" d="M119.25,301.62a8.188,8.188,0,0,0,1.425,2.56h.131c-.049-.06-.1-.12-.145-.182h-.12a8.1,8.1,0,0,1-1.291-2.378" transform="translate(-49.076 -200.343)"/><path class="h" d="M146.557,347.64h-.007c.048.062.1.122.145.182h.01l-.02-.024h0c-.043-.053-.085-.105-.126-.158" transform="translate(-74.965 -243.985)"/><path class="o" d="M150.749,150.32H146.18c-.041.051-.081.1-.12.152h4.688a.607.607,0,0,1,.337.1h.16a.611.611,0,0,0-.5-.254" transform="translate(-74.501 -56.862)"/><path class="p" d="M243.45,155.24h-.16a.611.611,0,0,1,.173.173h.074a.63.63,0,0,0-.087-.173" transform="translate(-166.706 -61.527)"/><path class="q" d="M246.7,158.57h-.074a.607.607,0,0,1,.1.273h0v-.106a.633.633,0,0,0-.028-.167" transform="translate(-169.873 -64.685)"/><path class="r" d="M248.54,163.85c0,.02,0,.041,0,.061v-.061h0" transform="translate(-171.685 -69.692)"/><path class="s" d="M154.556,351.375c-.019,0-.039.006-.058.008-.022.054-.047.107-.072.159a.816.816,0,0,0,.131-.166m-5-.215h0q.261.315.557.607v.01h.023q-.195-.191-.375-.392h-.006q-.1-.112-.194-.225" transform="translate(-77.81 -247.323)"/><path class="t" d="M158.263,355.47l-.049,0h-.153a.815.815,0,0,1-.42.129h-3.988c-.04-.043-.08-.086-.118-.129h-.014q.18.2.375.392h3.722a.822.822,0,0,0,.575-.236c.025-.052.049-.1.071-.159" transform="translate(-81.575 -251.41)"/><path class="u" d="M158.307,355.5H153.78c.039.043.079.086.118.129h3.988a.815.815,0,0,0,.421-.129" transform="translate(-81.822 -251.439)"/><path class="t" d="M149.175,350.69h0l.02.024h0l-.02-.024" transform="translate(-77.45 -246.877)"/><path class="v" d="M146.672,347.64h0c.041.053.083.105.126.158h0l-.126-.158" transform="translate(-75.079 -243.985)"/><path class="w" d="M146.715,347.64h0c.041.053.084.106.127.158h0q-.064-.079-.127-.158" transform="translate(-75.117 -243.985)"/><path class="x" d="M256.215,250h-.1v4.57a1.107,1.107,0,0,0,.1-.425V250" transform="translate(-178.864 -151.39)"/><path class="y" d="M249.09,169.98a.36.36,0,0,1,.181.271v.281a.6.6,0,0,1,.182.412v3.171h.1v-3.563a.608.608,0,0,0-.468-.572" transform="translate(-172.206 -75.506)"/><path class="l" d="M110.775,246.37a8.139,8.139,0,0,0,.435,2.856,8.214,8.214,0,0,1-.435-2.856" transform="translate(-41.036 -147.948)"/><path class="z" d="M112,169.67h-.058a8.112,8.112,0,0,0-1.157,3.963,8.225,8.225,0,0,0,.435,2.856,8.12,8.12,0,0,0,1.29,2.378h.12q-.06-.078-.119-.158h-.01v.023a8.2,8.2,0,0,1-1.463-3.28v-.082a8.141,8.141,0,0,1,0-3.111v-.088a8.173,8.173,0,0,1,.962-2.5" transform="translate(-41.043 -75.212)"/><path class="aa" d="M144.246,344.58h-.006q.059.08.119.158h.007c-.041-.052-.081-.105-.12-.158" transform="translate(-72.775 -241.083)"/><path class="ab" d="M115.72,175.37v.082a8.208,8.208,0,0,0,1.463,3.28v-.023h.01a8.24,8.24,0,0,1-.606-.952h0q-.167-.3-.3-.618a8.105,8.105,0,0,1-.56-1.769m.969-5.7h-.007a8.17,8.17,0,0,0-.962,2.5v.088c.026-.134.056-.268.088-.4a8.186,8.186,0,0,1,.881-2.188" transform="translate(-45.728 -75.212)"/><path class="m" d="M132.532,326.16h0a8.247,8.247,0,0,0,.606.952h.006a8.191,8.191,0,0,1-.566-.874l-.044-.078" transform="translate(-61.67 -223.615)"/><path class="ac" d="M126.57,314.2q.139.313.3.618h0c-.027-.051-.055-.1-.081-.154q-.122-.229-.227-.465" transform="translate(-56.018 -212.273)"/><path class="ad" d="M130.95,323.2c.026.051.054.1.081.154h0c-.028-.051-.056-.1-.083-.154" transform="translate(-60.171 -220.808)"/><path class="ae" d="M144.352,344.58h0c.039.053.08.106.12.158h0l-.12-.158" transform="translate(-72.879 -241.083)"/><path class="af" d="M133.4,327.66a8.186,8.186,0,0,0,.566.874h0a8.093,8.093,0,0,1-.532-.812l-.036-.062" transform="translate(-62.495 -225.037)"/><path class="ag" d="M144.384,344.58h0c.039.053.08.105.12.158h0q-.061-.078-.121-.158" transform="translate(-72.907 -241.083)"/><path class="ah" d="M134.09,328.86a8.175,8.175,0,0,0,.532.812h0c-.028-.038-.056-.076-.084-.115h0c-.048-.066-.094-.132-.139-.2-.063-.094-.125-.188-.183-.284-.012-.02-.024-.039-.036-.058h0q-.047-.077-.093-.157" transform="translate(-63.149 -226.175)"/><path class="ai" d="M135.91,331.88h0l.036.058-.036-.058" transform="translate(-64.875 -229.039)"/><path class="aj" d="M136.6,333.01c.059.1.12.19.183.284q-.061-.091-.12-.184l-.063-.1" transform="translate(-65.529 -230.111)"/><path class="ak" d="M135.92,331.88h0l.036.059c.021.034.041.067.063.1-.034-.053-.067-.105-.1-.159" transform="translate(-64.885 -229.039)"/><path class="al" d="M138.229,158.74h-.012q-.091.13-.176.263h.011c.057-.088.116-.176.177-.263" transform="translate(-66.895 -64.846)"/><path class="am" d="M138.446,158.74h-.008q-.092.13-.177.263h.008l.068-.1c.036-.054.072-.107.109-.161" transform="translate(-67.104 -64.846)"/><path class="an" d="M139.842,158.74h0c-.037.053-.073.107-.11.161l.112-.161" transform="translate(-68.498 -64.846)"/><path class="am" d="M134.666,163.84h-.011c-.064.1-.126.2-.184.3h.01c.059-.1.122-.2.186-.3" transform="translate(-63.509 -69.683)"/><path class="ao" d="M134.854,163.84h-.008c-.064.1-.127.2-.186.3h.006q.091-.153.188-.3" transform="translate(-63.69 -69.683)"/><path class="ao" d="M118.32,169.67h-.01a8.183,8.183,0,0,0-.881,2.188,8.31,8.31,0,0,1,.89-2.188" transform="translate(-47.35 -75.212)"/><path class="ap" d="M123.324,169.67h-.006a8.158,8.158,0,0,0-.618,1.306,8.171,8.171,0,0,1,.624-1.306" transform="translate(-52.348 -75.212)"/><path class="aq" d="M248.61,169.64v.012l.025.005-.025-.018" transform="translate(-171.751 -75.183)"/><path class="ar" d="M248.61,169.88v.171a.609.609,0,0,1,.145.335.646.646,0,0,1,.061.052v-.281a.36.36,0,0,0-.181-.271l-.025-.005" transform="translate(-171.751 -75.411)"/><path class="as" d="M248.61,173.18v.235c0,.007,0,.014,0,.021a.607.607,0,0,1,.143.079.608.608,0,0,0-.145-.334" transform="translate(-171.751 -78.54)"/><path class="at" d="M248.61,177.72v.02h0c0-.007,0-.014,0-.021" transform="translate(-171.751 -82.846)"/><path class="h" d="M246.9,347.16a.617.617,0,0,1-.141.044.417.417,0,0,1-.244.16.82.82,0,0,1-.09.218.609.609,0,0,0,.475-.422" transform="translate(-169.684 -243.53)"/><path class="aa" d="M253.065,344.59h-.045a1.128,1.128,0,0,1-.119.175.594.594,0,0,0,.141-.044.642.642,0,0,0,.024-.132" transform="translate(-175.819 -241.092)"/><path class="m" d="M255.257,342.87q-.022.046-.047.09h.045l0-.028h0v-.06" transform="translate(-178.01 -239.461)"/><path class="aa" d="M248.433,348.01a.6.6,0,0,1-.11.01h-.111v.014a.782.782,0,0,1-.023.136.418.418,0,0,0,.243-.16" transform="translate(-171.353 -244.336)"/><path class="au" d="M248.926,344.58H248.8a.558.558,0,0,1-.18.13v.057h.111a.642.642,0,0,0,.11-.01,1.149,1.149,0,0,0,.119-.175l-.034,0" transform="translate(-171.761 -241.083)"/><path class="x" d="M252.317,338.45a1.127,1.127,0,0,1-.207.317h.126l.035,0c.017-.029.032-.059.046-.09v-.228" transform="translate(-175.07 -235.27)"/><path class="au" d="M149.641,351.113h0c.063.076.128.15.194.225h.006l-.064-.072h-.006c-.044-.051-.087-.1-.13-.153m5.091,0-.035,0h-.034c-.023.074-.05.149-.08.223a.553.553,0,0,0,.058-.008.8.8,0,0,0,.091-.218" transform="translate(-77.896 -247.275)"/><path class="av" d="M152.294,351.312h-.014l.064.072h.014l-.064-.072m4.873-.152h-.05a.822.822,0,0,1-.232.225h.153l.049,0c.031-.073.057-.149.08-.223" transform="translate(-80.399 -247.323)"/><path class="aw" d="M157.382,351.16h-.2a.816.816,0,0,1-.476.152H152.56l.064.072h4.527a.832.832,0,0,0,.232-.224" transform="translate(-80.665 -247.323)"/><path class="av" d="M246.932,348.19h-.05c-.012.05-.026.1-.042.153h.034l.035,0a.837.837,0,0,0,.023-.136v-.014" transform="translate(-170.073 -244.506)"/><path class="u" d="M245.963,348.19h-.009a.8.8,0,0,1-.083.153h.05c.016-.052.03-.1.042-.153" transform="translate(-169.153 -244.506)"/><path class="ax" d="M242.312,348.19h-.119a.811.811,0,0,1-.162.153h.2a.8.8,0,0,0,.083-.153" transform="translate(-165.511 -244.506)"/><path class="u" d="M247.719,347.09a.272.272,0,0,1-.039.014l-.01.043h.05v-.057" transform="translate(-170.86 -243.463)"/><path class="ay" d="M247.5,347.36h0c0,.014-.01.028-.016.042h.009c0-.014.007-.028.01-.043" transform="translate(-170.68 -243.719)"/><path class="az" d="M245.305,347.38a.322.322,0,0,1-.091.013h-.022l-.022.028h.119c.006-.013.011-.027.016-.041" transform="translate(-168.489 -243.738)"/><path class="av" d="M149.26,350.69h0l.02.024h0l-.02-.024" transform="translate(-77.535 -246.877)"/><path class="ag" d="M146.8,347.64h0c.042.053.084.105.127.158h0l-.127-.158" transform="translate(-75.202 -243.985)"/><path class="u" d="M149.666,351.16h-.006c.043.051.086.1.13.152h.006c-.044-.051-.088-.1-.13-.152" transform="translate(-77.915 -247.323)"/><path class="aw" d="M149.783,351.16h-.013c.042.051.086.1.13.152h.014c-.045-.051-.088-.1-.131-.152" transform="translate(-78.019 -247.323)"/><path class="ba" d="M154.775,351.16H150.02c.043.051.086.1.13.152H154.3a.817.817,0,0,0,.476-.152" transform="translate(-78.256 -247.323)"/><path class="aw" d="M149.276,350.69h-.006l.02.024h.006l-.02-.024" transform="translate(-77.545 -246.877)"/><path class="bb" d="M149.393,350.69h-.013l.02.024h.013l-.02-.024" transform="translate(-77.649 -246.877)"/><path class="bc" d="M154.567,348.19h-.2a.819.819,0,0,1-.443.129H149.63l.02.024H154.4a.789.789,0,0,0,.163-.153" transform="translate(-77.886 -244.506)"/><path class="bd" d="M241.531,347.64h-.179c-.013.01-.027.02-.042.028h.2l.022-.028" transform="translate(-164.828 -243.985)"/><path class="be" d="M146.812,347.64h0q.063.08.127.158h.006l-.1-.129h0l-.022-.029" transform="translate(-75.212 -243.985)"/><path class="bd" d="M147.373,348.19h-.013c.035.043.069.086.1.129h.013l-.1-.129" transform="translate(-75.733 -244.506)"/><path class="bf" d="M152.452,348.19H147.61c.035.043.069.086.1.129h4.295a.813.813,0,0,0,.442-.129" transform="translate(-75.97 -244.506)"/><path class="bd" d="M146.845,347.64h0l.023.028h0l-.023-.028" transform="translate(-75.24 -243.985)"/><path class="bg" d="M146.943,347.64h-.013l.023.028h.013l-.023-.028" transform="translate(-75.326 -243.985)"/><path class="bh" d="M152.086,347.64H147.18l.023.028h4.842l.041-.028" transform="translate(-75.563 -243.985)"/><path class="bi" d="M248.8,344.58h-.18v.13a.558.558,0,0,0,.18-.13" transform="translate(-171.761 -241.083)"/><path class="bj" d="M249.007,250h-.182v3.926h0a.6.6,0,0,1-.058.241v.085a.6.6,0,0,1-.143.366v.073c0,.03,0,.063,0,.1v.1h.18a1.122,1.122,0,0,0,.207-.317V250" transform="translate(-171.761 -151.39)"/><path class="bk" d="M252.59,180.66v3.583h.182v-3.171a.6.6,0,0,0-.182-.412" transform="translate(-175.525 -85.634)"/><path class="bl" d="M248.625,339.37l0,.006v.165q0-.052,0-.1v-.073" transform="translate(-171.761 -236.142)"/><path class="ay" d="M247.89,344.58h-.007a.759.759,0,0,1-.026.114c0,.01,0,.02-.007.03l.039-.014v-.13" transform="translate(-171.03 -241.083)"/><path class="bm" d="M248.487,342.67h0v.037c0,.021,0,.041-.007.062h.007v-.1" transform="translate(-171.628 -239.272)"/><path class="bb" d="M247.79,346.78c0,.01-.007.021-.01.031h0c0-.01,0-.02.007-.03" transform="translate(-170.964 -243.169)"/><path class="bn" d="M248.006,344.58H248c-.006.037-.012.074-.021.114a.737.737,0,0,0,.026-.114" transform="translate(-171.154 -241.083)"/><path class="bo" d="M248.4,342.67c0,.032-.007.065-.012.1h.005c0-.02.006-.041.007-.062v-.037" transform="translate(-171.543 -239.272)"/><path class="bc" d="M245.734,344.58h-.053a.8.8,0,0,1-.091.158h.022a.34.34,0,0,0,.091-.013l.01-.031c.008-.039.015-.078.021-.114" transform="translate(-168.887 -241.083)"/><path class="bp" d="M247.416,339.47h0a.808.808,0,0,1-.065.263h.053c.005-.034.009-.068.012-.1v-.165" transform="translate(-170.556 -236.237)"/><path class="bq" d="M144.47,344.58h0c.039.053.08.106.12.158h0q-.061-.078-.121-.158" transform="translate(-72.993 -241.083)"/><path class="ai" d="M140.289,338.7h0l.084.115h0l-.084-.115m-.139-.2c.045.067.091.133.139.2h0c-.048-.066-.094-.132-.139-.2" transform="translate(-68.896 -235.317)"/><path class="bg" d="M242.39,344.58h-.107a.829.829,0,0,1-.163.158h.179a.8.8,0,0,0,.091-.158" transform="translate(-165.596 -241.083)"/><path class="br" d="M245.452,339.49a.564.564,0,0,1-.053.053.808.808,0,0,1-.119.21h.107a.824.824,0,0,0,.065-.263h0" transform="translate(-168.593 -236.256)"/><path class="ak" d="M137.82,334.94c.039.062.08.123.12.184s.091.133.139.2h0c-.09-.126-.178-.254-.26-.383" transform="translate(-66.686 -231.941)"/><path class="bs" d="M135.924,331.85l0,0c.032.053.065.106.1.159.083.13.17.257.26.383h0c-.128-.178-.248-.359-.36-.544" transform="translate(-64.885 -229.011)"/><path class="bd" d="M144.471,344.58h0c.04.053.08.105.121.158h0c-.041-.052-.082-.1-.121-.158" transform="translate(-72.993 -241.083)"/><path class="ak" d="M142.841,342.36h0l.084.115h0l-.084-.115" transform="translate(-71.447 -238.978)"/><path class="bg" d="M144.5,344.58h-.005c.04.053.08.106.121.158h0l-.12-.158" transform="translate(-73.012 -241.083)"/><path class="bs" d="M142.865,342.36h0l.084.115h.005l-.042-.057h0l-.01-.014h0l-.031-.043" transform="translate(-71.466 -238.978)"/><path class="bf" d="M144.612,344.58H144.6c.039.053.08.106.12.158h.013q-.062-.078-.121-.158" transform="translate(-73.116 -241.083)"/><path class="bt" d="M143.782,343.47h-.012l.042.057h.012l-.042-.057" transform="translate(-72.329 -240.03)"/><path class="bu" d="M150.03,344.58h-5.19c.04.053.08.106.121.158h4.906a.828.828,0,0,0,.163-.158" transform="translate(-73.344 -241.083)"/><path class="bv" d="M149.372,340.52a.6.6,0,0,1-.4.153H144.02l.042.057h5.19a.817.817,0,0,0,.119-.21" transform="translate(-72.566 -237.233)"/><path class="bw" d="M143.493,343.19h0" transform="translate(-72.063 -239.765)"/><path class="bm" d="M248.853,330.65a.616.616,0,0,1-.143.192v.259a.6.6,0,0,0,.143-.366v-.085" transform="translate(-171.846 -227.873)"/><path class="bx" d="M248.625,334.35l0,0v.26l0-.006v-.259" transform="translate(-171.761 -231.382)"/><path class="br" d="M248.611,334.44h0v.261h0v-.26" transform="translate(-171.751 -231.467)"/><path class="by" d="M247.643,334.44h0v.08a.819.819,0,0,1-.053.235.629.629,0,0,0,.053-.053v-.261" transform="translate(-170.784 -231.467)"/><path class="bz" d="M135.99,331.84h0q.167.277.36.544h0c-.061-.085-.12-.171-.178-.258h0q-.094-.141-.181-.285" transform="translate(-64.951 -229.001)"/><path class="bv" d="M139.532,337.36h0c.058.087.117.173.178.258h0c-.062-.085-.121-.171-.179-.258" transform="translate(-68.308 -234.236)"/><path class="bz" d="M143.561,343.2h0l.01.014h0l-.01-.014" transform="translate(-72.13 -239.774)"/><path class="bv" d="M143.592,343.19h-.012l.01.014h.012l-.011-.014" transform="translate(-72.149 -239.765)"/><path class="ca" d="M149.216,334.44a.61.61,0,0,1-.14.093.821.821,0,0,1-.678.36h-4.6l.011.014h4.952a.6.6,0,0,0,.4-.153.817.817,0,0,0,.053-.235v-.08" transform="translate(-72.357 -231.467)"/><path class="bz" d="M142.951,342.36h0l.031.043h0l-.031-.043" transform="translate(-71.551 -238.978)"/><path class="bv" d="M142.979,342.36h-.009l.031.043h.009l-.031-.043" transform="translate(-71.57 -238.978)"/><path class="cb" d="M143.153,342.36h0l.031.043h0l-.031-.043" transform="translate(-71.741 -238.978)"/><path class="cc" d="M148.517,336.23l-.045.019a.826.826,0,0,1-.633.3H143.21l.031.043h4.6a.82.82,0,0,0,.677-.36" transform="translate(-71.798 -233.164)"/><path class="ca" d="M143.551,343.19h0" transform="translate(-72.12 -239.765)"/><path class="cb" d="M143.579,343.19h0" transform="translate(-72.139 -239.765)"/><path class="cb" d="M139.567,337.36h-.007q.087.13.178.258h.007c-.061-.085-.121-.171-.179-.258" transform="translate(-68.336 -234.236)"/><path class="cd" d="M139.693,337.36h0q.087.13.179.258h0q-.092-.127-.179-.258" transform="translate(-68.46 -234.236)"/><path class="ce" d="M145.19,336.6a.608.608,0,0,1-.215.039H139.75c.058.087.117.173.179.258h4.629a.822.822,0,0,0,.633-.3" transform="translate(-68.517 -233.515)"/><path class="cf" d="M251.528,250h-.058v4.167a.6.6,0,0,0,.058-.241h0V250" transform="translate(-174.463 -151.39)"/><path class="cg" d="M251.42,179.65c0,.014,0,.029,0,.044v3.592h.058V179.7c-.02-.018-.04-.036-.061-.052" transform="translate(-174.416 -84.676)"/><path class="aj" d="M248.853,250h-.143v4.359a.6.6,0,0,0,.143-.192V250" transform="translate(-171.846 -151.39)"/><path class="ch" d="M248.66,178.13c0,.007,0,.015,0,.022v1.113s0,0,0,.006v2.573h.143v-3.592c0-.015,0-.029,0-.044a.6.6,0,0,0-.142-.079" transform="translate(-171.799 -83.234)"/><path class="ak" d="M248.625,250h0v4.007c0,.014,0,.027,0,.041v.007h0v.308l0,0V250" transform="translate(-171.761 -151.39)"/><path class="ci" d="M248.7,200.09v2.579h0V200.1s0,0,0-.006" transform="translate(-171.836 -104.06)"/><path class="bv" d="M248.611,328.48s0,0,0,.006v.3h0v-.307" transform="translate(-171.751 -225.815)"/><path class="cj" d="M248.611,328.35s0,0,0,0v.009s0,0,0-.006v-.007" transform="translate(-171.751 -225.692)"/><path class="ck" d="M248.61,178.11v.017s0,0,0,.006v1.074c0,.013,0,.026,0,.039v-1.113c0-.007,0-.015,0-.022h0" transform="translate(-171.751 -83.215)"/><path class="cl" d="M248.624,250h0v4.049c0-.013,0-.027,0-.041V250" transform="translate(-171.761 -151.39)"/><path class="cm" d="M248.62,199.34v2.618h0v-2.579c0-.013,0-.026,0-.039" transform="translate(-171.761 -103.348)"/><path class="cn" d="M248.61,178.44v.144h0v.429s0,0,0,.006v.249h0v.252h0v-1.074s0,0,0-.006" transform="translate(-171.751 -83.528)"/><path class="co" d="M248.61,189.54v.249s0,0,0,.006v-.249s0,0,0-.006" transform="translate(-171.751 -94.055)"/><path class="cp" d="M248.61,194.35v.254s0,0,0,0v-.252s0,0,0-.006" transform="translate(-171.751 -98.616)"/><path class="cd" d="M248.611,250h0v3.141h0v.911s0,0,0,0V250" transform="translate(-171.751 -151.39)"/><path class="cq" d="M248.61,199.27v2.622h0v-2.618s0,0,0,0" transform="translate(-171.751 -103.282)"/><path class="cr" d="M135.992,331.83h0q.088.144.181.285h0c-.062-.095-.122-.19-.18-.286" transform="translate(-64.951 -228.992)"/><path class="cj" d="M136.031,331.82h0q.087.144.181.286h0c-.063-.1-.124-.19-.181-.287" transform="translate(-64.989 -228.982)"/><path class="cc" d="M246.04,328.6a.817.817,0,0,1-.14.394.613.613,0,0,0,.14-.092v-.3" transform="translate(-169.181 -225.929)"/><path class="ce" d="M245.215,328.43a.829.829,0,0,1-.185.423l.045-.019a.823.823,0,0,0,.14-.394v-.009" transform="translate(-168.356 -225.767)"/><path class="cd" d="M136.056,331.8h-.006c.058.1.119.192.181.286h.007c-.063-.095-.124-.191-.182-.287" transform="translate(-65.008 -228.963)"/><path class="cs" d="M136.153,331.79h0q.088.145.182.288h0q-.094-.143-.182-.288" transform="translate(-65.103 -228.954)"/><path class="ct" d="M142.028,310.79c0,.325-.928.608-1.272.608l-4.536.478c.059.1.119.193.182.288h5.225a.611.611,0,0,0,.215-.039.829.829,0,0,0,.185-.423v-.912" transform="translate(-65.169 -209.039)"/><path class="cu" d="M144.552,153.28h0l-.077.1h0l.077-.1" transform="translate(-72.993 -59.669)"/><path class="j" d="M143.906,155.24h0l-.032.042h0l.032-.042" transform="translate(-72.424 -61.527)"/><path class="cv" d="M149.334,153.28h-4.688l-.077.1h5.1a.61.61,0,0,0-.337-.1" transform="translate(-73.088 -59.669)"/><path class="cw" d="M149.093,155.24h-5.1l-.032.042h4.174a.825.825,0,0,1,.423.13h.709a.61.61,0,0,0-.173-.173" transform="translate(-72.509 -61.527)"/><path class="cx" d="M233.619,158.57h-.709a1.575,1.575,0,0,1,.328.272h.479a.6.6,0,0,0-.1-.272" transform="translate(-156.862 -64.685)"/><path class="cy" d="M239.715,163.83h-.445c.031.033.061.067.089.1a2.208,2.208,0,0,1,.393.2v-.238a.611.611,0,0,0,0-.062l-.034,0" transform="translate(-162.894 -69.673)"/><path class="cz" d="M241,165.81l.032.04a.833.833,0,0,1,.178.16h.069a.6.6,0,0,1,.114.011v-.012a2.2,2.2,0,0,0-.393-.2" transform="translate(-164.534 -71.551)"/><path class="da" d="M241.62,166.58l0,.006a.828.828,0,0,1,.17.154h0a.833.833,0,0,0-.178-.16" transform="translate(-165.122 -72.281)"/><path class="db" d="M241.71,166.7c.039.051.076.1.11.154h.059a.813.813,0,0,0-.169-.154" transform="translate(-165.208 -72.395)"/><path class="dc" d="M245.139,169.67h-.069c.018.021.034.043.05.066a.617.617,0,0,1,.133.115v-.171a.6.6,0,0,0-.114-.011" transform="translate(-168.394 -75.212)"/><path class="dd" d="M244.994,169.67h0a.768.768,0,0,1,.046.061l.007,0c-.015-.023-.032-.045-.05-.066" transform="translate(-168.318 -75.212)"/><path class="de" d="M243.9,169.67h-.059l.008.012a.59.59,0,0,1,.1.049c-.014-.021-.029-.041-.046-.061" transform="translate(-167.228 -75.212)"/><path class="df" d="M246.03,170.95a.821.821,0,0,1,.133.35v-.235a.6.6,0,0,0-.133-.115" transform="translate(-169.304 -76.425)"/><path class="ck" d="M245.89,170.86a.821.821,0,0,1,.139.374h0v-.02a.821.821,0,0,0-.133-.35l-.007,0" transform="translate(-169.172 -76.34)"/><path class="dg" d="M244,169.92a1.848,1.848,0,0,1,.2.411l.032.011a.821.821,0,0,0-.139-.374.633.633,0,0,0-.1-.048" transform="translate(-167.379 -75.449)"/><path class="cm" d="M248.57,178.1l0,.018V178.1s0,0,0,0" transform="translate(-171.713 -83.206)"/><path class="dh" d="M247.96,177.88a.6.6,0,0,1,.034.173v-.144l0-.018-.032-.011" transform="translate(-171.135 -82.997)"/><path class="aa" d="M142.021,158.28l-.011.015h0a.1.1,0,0,0,.011-.015" transform="translate(-70.66 -64.41)"/><path class="di" d="M142.106,156.05h0c-.028.038-.056.076-.084.115l-.011.015h0l.094-.13" transform="translate(-70.66 -62.295)"/><path class="au" d="M141.9,158.57h0l-.007.009h0l.006-.009" transform="translate(-70.546 -64.685)"/><path class="dj" d="M141.9,158.57h0l-.006.009h0l.006-.009" transform="translate(-70.546 -64.685)"/><path class="dk" d="M112.967,219.77a8.14,8.14,0,0,0,0,3.111v-.036a8.285,8.285,0,0,1,0-3.065v-.01" transform="translate(-42.976 -122.723)"/><path class="dl" d="M115.72,215.5v.036a8.108,8.108,0,0,0,.561,1.769,8.183,8.183,0,0,1-.43-1.229q-.076-.285-.131-.576m.088-3.475c-.033.133-.063.267-.088.4v.01q.039-.206.088-.41" transform="translate(-45.728 -115.373)"/><path class="dm" d="M132.561,326.16h0l.044.078-.043-.078" transform="translate(-61.698 -223.615)"/><path class="dn" d="M112.946,241.89a8.21,8.21,0,0,0,.133,1.932v-.009c-.014-.077-.027-.154-.039-.231a8.241,8.241,0,0,1-.094-1.691" transform="translate(-43.089 -143.7)"/><path class="do" d="M115.72,279.1v.009q.055.29.131.576-.077-.291-.131-.584" transform="translate(-45.728 -178.987)"/><path class="dp" d="M118.25,290.41a8.182,8.182,0,0,0,.43,1.229q.105.235.226.465-.1-.2-.195-.4a8.147,8.147,0,0,1-.461-1.291" transform="translate(-48.128 -189.712)"/><path class="dq" d="M127.18,315.39c.061.136.126.271.195.4.027.051.055.1.083.153h0c-.056-.1-.11-.206-.161-.311-.04-.082-.079-.164-.117-.247" transform="translate(-56.596 -213.401)"/><path class="dn" d="M114.95,274.63c.012.078.025.155.039.232v-.005c-.014-.076-.027-.151-.039-.226" transform="translate(-44.998 -174.748)"/><path class="dr" d="M115.72,279.01v.005q.054.294.131.585a8.2,8.2,0,0,0,.461,1.291c-.082-.181-.157-.367-.225-.555q-.062-.168-.116-.339a8.135,8.135,0,0,1-.251-.986" transform="translate(-45.728 -178.901)"/><path class="ds" d="M122.82,304.65q.1.282.225.555.057.124.117.246-.1-.2-.186-.405c-.056-.13-.107-.262-.157-.395h0" transform="translate(-52.461 -203.216)"/><path class="ax" d="M122.83,304.67c.049.133.1.264.157.395q-.057-.134-.109-.27c-.017-.042-.033-.083-.048-.125" transform="translate(-52.471 -203.235)"/><path class="dt" d="M132.58,326.16h0l.042.078.036.062c-.026-.047-.053-.093-.078-.14" transform="translate(-61.717 -223.615)"/><path class="du" d="M129.45,320.15q.077.157.161.311h0c-.045-.084-.09-.168-.133-.253l-.029-.057" transform="translate(-58.749 -217.915)"/><path class="bq" d="M125.85,312.31c.058.136.12.272.186.405l.028.057q-.115-.229-.214-.462" transform="translate(-55.335 -210.48)"/><path class="be" d="M132.581,326.16h0l.078.14c.03.052.061.1.093.156h0c-.059-.1-.116-.2-.171-.3" transform="translate(-61.717 -223.615)"/><path class="bd" d="M132.6,326.16h0c.055.1.112.2.171.3h0q-.088-.147-.171-.3" transform="translate(-61.736 -223.615)"/><path class="bp" d="M130,321.26c.043.085.087.17.133.253h0c-.046-.084-.09-.168-.134-.253" transform="translate(-59.27 -218.968)"/><path class="dv" d="M123.74,307.09c.035.09.071.18.109.27q.1.234.214.463c.043.085.088.169.134.253h0a8.171,8.171,0,0,1-.458-.985" transform="translate(-53.334 -205.53)"/><path class="dw" d="M120.57,298.09q.054.171.116.339h0q-.046-.126-.088-.254c-.01-.028-.019-.056-.028-.084" transform="translate(-50.328 -196.995)"/><path class="ax" d="M122.82,304.64h0v0a0,0,0,0,1,0,0" transform="translate(-52.461 -203.207)"/><path class="dx" d="M121.1,299.72q.042.128.088.254c-.019-.051-.037-.1-.054-.153l-.008-.024-.026-.077" transform="translate(-50.83 -198.541)"/><path class="dy" d="M121.77,301.67c.018.051.036.1.054.154v0l.047.125c-.036-.093-.07-.187-.1-.28" transform="translate(-51.466 -200.39)"/><path class="bf" d="M132.611,326.16h0c.055.1.112.2.171.3h0q-.088-.147-.171-.3" transform="translate(-61.746 -223.615)"/><path class="dz" d="M121.61,301.21l.008.024-.006-.018,0-.006" transform="translate(-51.314 -199.954)"/><path class="bf" d="M121.65,301.32l.006.018c.032.094.066.188.1.28a8.257,8.257,0,0,0,.458.985h0a8.165,8.165,0,0,1-.448-.96c-.042-.107-.082-.215-.119-.323" transform="translate(-51.352 -200.058)"/><path class="ea" d="M138.488,161.86l-.068.1h0c.022-.034.044-.069.067-.1" transform="translate(-67.255 -67.805)"/><path class="w" d="M138.628,158.74h0c-.038.053-.075.107-.112.161l-.067.1h0q.085-.133.176-.263" transform="translate(-67.284 -64.846)"/><path class="eb" d="M138.649,158.74h0q-.091.129-.177.263h0q.087-.133.178-.263" transform="translate(-67.303 -64.846)"/><path class="dw" d="M134.969,163.84h0q-.1.149-.188.3h0c.06-.1.121-.2.185-.3" transform="translate(-63.803 -69.683)"/><path class="dt" d="M135.047,163.84h0c-.064.1-.125.2-.185.3h0c.044-.075.09-.15.137-.224l.05-.078" transform="translate(-63.879 -69.683)"/><path class="ec" d="M137.58,163.84h0l-.05.078.05-.078" transform="translate(-66.411 -69.683)"/><path class="ap" d="M113.273,219.96a8.208,8.208,0,0,0-.133,1.133,8.228,8.228,0,0,1,.133-1.123v-.01" transform="translate(-43.282 -122.903)"/><path class="dw" d="M116.081,194.95a8.085,8.085,0,0,0-.272.882q-.05.2-.088.41v.01a8.166,8.166,0,0,1,.361-1.3" transform="translate(-45.728 -99.185)"/><path class="ed" d="M113.1,220.16a8.144,8.144,0,0,0-.039,2.815,8.3,8.3,0,0,1,.04-2.775v-.04" transform="translate(-43.11 -123.092)"/><path class="ee" d="M116.719,169.67h0a7.982,7.982,0,0,0-.985,2.609v.04a8.166,8.166,0,0,1,.929-2.544c.019-.035.039-.07.06-.105" transform="translate(-45.738 -75.212)"/><path class="ba" d="M133.761,169.67h0l-.06.105c.02-.035.04-.07.061-.105" transform="translate(-62.779 -75.212)"/><path class="ef" d="M113.057,247.32a8.238,8.238,0,0,0,.1,1.411c.012.075.025.151.039.226v-.016a8.185,8.185,0,0,1-.136-1.622" transform="translate(-43.202 -148.849)"/><path class="eg" d="M115.72,278.7v.016a8.2,8.2,0,0,0,.251.986,8.089,8.089,0,0,1-.229-.891c-.007-.037-.014-.073-.021-.111" transform="translate(-45.728 -178.607)"/><path class="eh" d="M116.13,280.85a8.112,8.112,0,0,0,.229.891l.027.084c-.068-.207-.128-.418-.18-.629q-.042-.173-.077-.347" transform="translate(-46.117 -180.646)"/><path class="dz" d="M117.63,287.55c.052.211.112.422.18.629.009.026.017.051.026.077q-.084-.246-.151-.5c-.02-.07-.038-.14-.055-.211" transform="translate(-47.54 -187)"/><path class="ei" d="M118.69,291.63q.067.25.151.5a.021.021,0,0,0,0,.005c-.04-.118-.078-.237-.112-.358-.014-.048-.028-.1-.041-.143" transform="translate(-48.545 -190.869)"/><path class="ej" d="M119.47,294.39c.035.12.072.24.112.358s.078.216.119.324q-.1-.257-.182-.52c-.017-.053-.033-.108-.049-.161" transform="translate(-49.285 -193.487)"/><path class="bh" d="M132.624,326.15h0c.055.1.111.2.17.3l0,0c-.059-.1-.115-.2-.17-.295" transform="translate(-61.755 -223.605)"/><path class="bh" d="M123.96,307.58a8.121,8.121,0,0,0,.448.96h0l-.015-.028a8.187,8.187,0,0,1-.436-.932" transform="translate(-53.543 -205.995)"/><path class="ek" d="M132.69,326.15h0q.081.149.17.295h0q-.088-.147-.171-.295" transform="translate(-61.821 -223.605)"/><path class="el" d="M132.4,325.61l.016.028h0l-.016-.028" transform="translate(-61.546 -223.093)"/><path class="ca" d="M120.42,297.51q.082.263.182.52a8.147,8.147,0,0,0,.436.932,8.062,8.062,0,0,1-.368-.769c-.094-.224-.177-.452-.25-.682" transform="translate(-50.186 -196.445)"/><path class="em" d="M132.692,326.14h0c.055.1.112.2.171.295h0l-.082-.14h0c-.03-.051-.059-.1-.088-.154" transform="translate(-61.821 -223.596)"/><path class="en" d="M134.431,329.12h0q.04.071.082.14h0c-.028-.046-.055-.093-.082-.139" transform="translate(-63.472 -226.422)"/><path class="em" d="M125.27,310.72a8.064,8.064,0,0,0,.368.769l.016.028h0a8.071,8.071,0,0,1-.386-.8" transform="translate(-54.785 -208.973)"/><path class="eo" d="M134.456,329.11h-.006c.027.046.054.093.083.139h.006l-.083-.139" transform="translate(-63.491 -226.412)"/><path class="ep" d="M134.563,329.1h0c.027.047.054.093.082.139h0c-.028-.046-.055-.092-.082-.139" transform="translate(-63.595 -226.403)"/><path class="eq" d="M140.52,308.11c0,.325-.928.608-1.272.608l-4.618.477q.04.07.082.139l4.536-.477c.345,0,1.272-.282,1.272-.608v-.138" transform="translate(-63.661 -206.498)"/><path class="dj" d="M142.149,156.05h0l-.094.13h0l.094-.13" transform="translate(-70.698 -62.295)"/><path class="er" d="M141.941,158.57h0l-.006.009h0l.006-.009" transform="translate(-70.584 -64.685)"/><path class="es" d="M146.408,156.05h-4.174l-.094.13h4.691a.826.826,0,0,0-.423-.13" transform="translate(-70.783 -62.295)"/><path class="et" d="M146.717,158.57h-4.691l-.006.009h3.887a1.957,1.957,0,0,1,.87.206.433.433,0,0,0,.106.057h.162a1.592,1.592,0,0,0-.328-.272" transform="translate(-70.669 -64.685)"/><path class="eu" d="M236.3,163.84h-.162c.067.029.156.063.251.1-.029-.035-.059-.069-.089-.1" transform="translate(-159.926 -69.683)"/><path class="ec" d="M138.663,158.74h0q-.091.13-.178.263h0c.058-.088.117-.176.178-.263" transform="translate(-67.312 -64.846)"/><path class="ba" d="M135.007,165.34q-.071.111-.137.224h0q.067-.113.136-.224" transform="translate(-63.889 -71.105)"/><path class="ev" d="M135.08,163.84h0l-.05.078q-.07.111-.136.224h0q.09-.153.187-.3" transform="translate(-63.908 -69.683)"/><path class="ew" d="M142.635,158.74h-3.887q-.091.13-.178.263h5.042a.433.433,0,0,1-.106-.057,1.967,1.967,0,0,0-.87-.206" transform="translate(-67.398 -64.846)"/><path class="ex" d="M140.2,163.84h-5.042c-.065.1-.127.2-.187.3h.005l.066-.111h.016q.057-.094.118-.186h4.852a.82.82,0,0,1,.454.136l-.032-.04c-.1-.039-.184-.073-.251-.1" transform="translate(-63.984 -69.683)"/><path class="ey" d="M232.7,163.94h0" transform="translate(-156.663 -69.778)"/><path class="ey" d="M141.623,163.94h-4.845q-.06.092-.118.186h0q.057-.094.118-.186h4.845m.007,0h0a.818.818,0,0,1,.46.143l0-.006a.816.816,0,0,0-.454-.137" transform="translate(-65.586 -69.778)"/><path class="ez" d="M141.638,163.94h-4.85q-.06.092-.118.186h4.962a.824.824,0,0,1,.356.082H142a.608.608,0,0,1,.185.029h.027c-.034-.052-.071-.1-.11-.154a.822.822,0,0,0-.461-.143" transform="translate(-65.596 -69.778)"/><path class="ey" d="M135.152,167.54h-.016l-.066.111h.015c.022-.037.044-.074.067-.111" transform="translate(-64.079 -73.192)"/><path class="ez" d="M135.437,167.54h0c-.023.037-.045.073-.067.111h0c.022-.037.044-.074.067-.111" transform="translate(-64.363 -73.192)"/><path class="co" d="M140.409,167.54h-4.962c-.023.037-.045.073-.067.111h0l.017-.028h5.362a.814.814,0,0,0-.356-.082" transform="translate(-64.372 -73.192)"/><path class="fa" d="M243.337,169.67h-.027l.035.012-.008-.012" transform="translate(-166.725 -75.212)"/><path class="fb" d="M113.216,220.93a8.166,8.166,0,0,0-.136,1.364,8.24,8.24,0,0,1,.136-1.351v-.012" transform="translate(-43.225 -123.823)"/><path class="dx" d="M116.649,171.71a8.153,8.153,0,0,0-.929,2.544v.012a8.237,8.237,0,0,1,.415-1.464l.032-.081a8.245,8.245,0,0,1,.483-1.011" transform="translate(-45.728 -77.146)"/><path class="bc" d="M124.914,169.67h0l-.061.105a8.13,8.13,0,0,0-.482,1.011,8.193,8.193,0,0,1,.544-1.116" transform="translate(-53.931 -75.212)"/><path class="fc" d="M124.329,169.67h0a8.191,8.191,0,0,0-.544,1.116c-.011.027-.021.054-.032.081a8.233,8.233,0,0,1,.579-1.2" transform="translate(-53.343 -75.212)"/><path class="fb" d="M113.2,221.18a8.236,8.236,0,0,0-.136,1.351,8.153,8.153,0,0,0,.136,1.622h0a8.173,8.173,0,0,1-.026-2.806c.008-.051.017-.1.026-.151v-.014" transform="translate(-43.205 -124.06)"/><path class="as" d="M115.246,221.45c-.009.05-.018.1-.026.151.008-.05.017-.1.026-.149v0" transform="translate(-45.254 -124.316)"/><path class="fd" d="M116.135,192.85a8.193,8.193,0,0,0-.415,1.464v.014a8.183,8.183,0,0,1,.415-1.478" transform="translate(-45.728 -97.194)"/><path class="fe" d="M116.729,169.67h-.005a8.107,8.107,0,0,0-.994,2.676v0a8.151,8.151,0,0,1,.192-.808q.09-.308.2-.611a8.276,8.276,0,0,1,.446-.986h0q.073-.136.153-.272" transform="translate(-45.738 -75.212)"/><path class="fd" d="M115.72,278.68h0c.007.037.014.074.021.111-.007-.037-.014-.074-.021-.112" transform="translate(-45.728 -178.588)"/><path class="ff" d="M123.831,174.95h0a8.236,8.236,0,0,0-.446.986q.141-.374.321-.737h0q.062-.126.129-.249" transform="translate(-52.993 -80.219)"/><path class="ff" d="M119.634,194.03q-.115.3-.2.611c.047-.162.1-.322.157-.482.015-.043.031-.086.047-.129" transform="translate(-49.247 -98.313)"/><path class="db" d="M122.839,179.76h0q-.18.364-.321.737c-.016.043-.032.086-.047.129.031-.086.064-.172.1-.257q.122-.309.271-.61" transform="translate(-52.13 -84.78)"/><path class="fg" d="M132.269,169.67h-.015q-.08.135-.153.272h0c.036-.067.074-.134.112-.2h.012l.042-.072" transform="translate(-61.262 -75.212)"/><path class="fh" d="M129.75,174.95h0q-.067.123-.128.249h0c.041-.084.084-.166.129-.249" transform="translate(-58.91 -80.219)"/><path class="fi" d="M124.623,179.76h0q-.149.3-.272.61.057-.143.12-.285l.012-.027h0c.045-.1.092-.2.141-.3" transform="translate(-53.912 -84.78)"/><path class="dh" d="M126.7,185.5h0l-.012.027.012-.027" transform="translate(-56.132 -90.224)"/><path class="fa" d="M134.593,169.67h0l-.042.072h0l.042-.072" transform="translate(-63.585 -75.212)"/><path class="fj" d="M134.607,169.67h0l-.042.072h0l.043-.072" transform="translate(-63.595 -75.212)"/><path class="fk" d="M113.218,224.38a8.186,8.186,0,0,0,.026,2.806v-.005a8.216,8.216,0,0,1-.134-1.477h0c0-.073,0-.145,0-.218q.008-.287.036-.573.026-.27.069-.534" transform="translate(-43.252 -127.094)"/><path class="fl" d="M113.133,222.746c0,.072,0,.145,0,.218h0c0-.073,0-.145,0-.218m.131-1.256c-.009.05-.018.1-.026.149-.029.176-.052.354-.069.534.022-.227.054-.455.1-.681v0" transform="translate(-43.272 -124.354)"/><path class="ff" d="M115.912,205.84a8.043,8.043,0,0,0-.192.808v0a8.159,8.159,0,0,1,.192-.811" transform="translate(-45.728 -109.513)"/><path class="fm" d="M115.72,278.58v.005c.007.037.014.075.021.112q.035.174.078.347c-.038-.154-.07-.309-.1-.464" transform="translate(-45.728 -178.494)"/><path class="fn" d="M113.122,235.5h0a8.222,8.222,0,0,0,.134,1.477v-.006a8.26,8.26,0,0,1-.132-1.471m.037-.79q-.028.286-.036.573c.006-.192.018-.383.036-.573" transform="translate(-43.263 -136.891)"/><path class="fo" d="M113.264,221.54q-.062.34-.1.681-.027.284-.036.573c0,.072,0,.145,0,.218h0a8.181,8.181,0,0,1,.132-1.462v-.009" transform="translate(-43.272 -124.401)"/><path class="db" d="M116.069,196.53q-.086.239-.157.482a8.1,8.1,0,0,0-.192.811v.009a8.22,8.22,0,0,1,.292-1.137c.018-.055.037-.11.057-.165" transform="translate(-45.728 -100.684)"/><path class="fp" d="M115.72,278.47v.006q.043.233.1.464c.018.07.036.141.055.211q-.091-.337-.153-.68" transform="translate(-45.728 -178.389)"/><path class="fq" d="M121.525,191.56c-.034.085-.067.171-.1.257-.02.055-.038.11-.057.164.048-.141.1-.282.155-.421" transform="translate(-51.086 -95.97)"/><path class="fh" d="M132.265,171.07h-.012c-.038.067-.076.133-.112.2h.012c.036-.067.074-.134.112-.2" transform="translate(-61.3 -76.539)"/><path class="fi" d="M129.782,174.95h-.012c-.044.082-.088.165-.129.249h.006c.021-.041.042-.083.064-.125h.006c.021-.042.043-.083.066-.124" transform="translate(-58.929 -80.219)"/><path class="fr" d="M113.161,250h0a8.268,8.268,0,0,0,.132,1.471v0a8.214,8.214,0,0,1-.131-1.468" transform="translate(-43.301 -151.39)"/><path class="fs" d="M113.3,221.72a8.181,8.181,0,0,0-.132,1.462h0a8.193,8.193,0,0,1,.121-1.392c0-.019.007-.038.01-.057v-.013" transform="translate(-43.31 -124.572)"/><path class="fi" d="M116.012,199.71a8.127,8.127,0,0,0-.292,1.137v.012c.03-.167.065-.334.106-.5q.079-.327.186-.65" transform="translate(-45.728 -103.699)"/><path class="ft" d="M115.72,278.4v0q.062.343.153.68c.013.048.027.1.041.143-.025-.086-.049-.173-.071-.26q-.072-.281-.124-.566" transform="translate(-45.728 -178.323)"/><path class="ca" d="M118.11,289.36c.022.087.045.174.071.26.016.054.032.107.049.161-.044-.14-.084-.28-.12-.422" transform="translate(-47.995 -188.716)"/><path class="fi" d="M115.54,221.95c0,.019-.007.038-.01.057l.01-.056h0" transform="translate(-45.548 -124.79)"/><path class="dh" d="M115.826,212.28q-.061.249-.106.5h0c.012-.069.026-.139.04-.207.02-.1.042-.2.066-.294" transform="translate(-45.728 -115.62)"/><path class="co" d="M118.23,180.085q-.063.142-.12.285c-.055.14-.107.28-.154.421q-.107.322-.186.65a8.223,8.223,0,0,1,.46-1.356m.159-.325h-.006c-.049.1-.1.2-.141.3h.006q.067-.15.141-.3" transform="translate(-47.672 -84.78)"/><path class="fu" d="M117.035,185.5h-.006l-.012.027a8.226,8.226,0,0,0-.461,1.356c-.024.1-.045.2-.066.294a8.2,8.2,0,0,1,.545-1.677" transform="translate(-46.459 -90.224)"/><path class="fv" d="M132.493,171.07h0c-.039.067-.076.133-.113.2h0c.036-.067.073-.134.112-.2" transform="translate(-61.528 -76.539)"/><path class="cp" d="M131.157,174.95h0l-.066.124h0l.066-.124" transform="translate(-60.304 -80.219)"/><path class="fw" d="M132.516,171.07h0c-.038.066-.076.133-.112.2h0c.037-.067.074-.134.113-.2" transform="translate(-61.546 -76.539)"/><path class="fx" d="M131.2,174.95h0c-.022.041-.044.083-.066.124h0c.021-.041.043-.083.066-.124" transform="translate(-60.342 -80.219)"/><path class="fi" d="M239.578,169.11h-.008c.019.009.037.019.055.029h.139a.611.611,0,0,0-.186-.029" transform="translate(-163.178 -74.681)"/><path class="cp" d="M140.85,169.12h-5.362l-.017.028H140.9c-.018-.01-.036-.02-.055-.028" transform="translate(-64.458 -74.69)"/><path class="fv" d="M240.769,169.67h-.139a.827.827,0,0,1,.359.418l.02.006a1.815,1.815,0,0,0-.2-.411l-.035-.012" transform="translate(-164.183 -75.212)"/><path class="fw" d="M140.127,169.67h-5.434l-.042.072h5.069a.821.821,0,0,1,.656.327.6.6,0,0,1,.111.02.832.832,0,0,0-.359-.418" transform="translate(-63.68 -75.212)"/><path class="fx" d="M137.643,171.07h-5.069q-.058.1-.113.2h5.183a.818.818,0,0,1,.434.124h.17l.051,0a.819.819,0,0,0-.656-.327" transform="translate(-61.603 -76.539)"/><path class="fy" d="M136.429,174.95h-5.183c-.023.041-.044.083-.066.124h5.684a.818.818,0,0,0-.435-.124" transform="translate(-60.39 -80.219)"/><path class="dh" d="M129.82,177.35h-.006c-.022.041-.043.083-.064.125h.006c.021-.042.042-.083.064-.125" transform="translate(-59.033 -82.495)"/><path class="fz" d="M113.182,250h0a8.171,8.171,0,0,0,.131,1.468v-.006c-.016-.089-.03-.179-.043-.27a8.163,8.163,0,0,1-.085-1.083c0-.036,0-.073,0-.11" transform="translate(-43.32 -151.39)"/><path class="cr" d="M113.305,251.192c.013.09.027.18.043.27v0c-.016-.089-.03-.178-.043-.268M113.22,250h0c0,.036,0,.073,0,.11,0-.036,0-.073,0-.11" transform="translate(-43.358 -151.39)"/><path class="ga" d="M113.3,223.06a8.147,8.147,0,0,0-.121,1.392h0c0-.09,0-.181.005-.271a8.136,8.136,0,0,1,.114-1.121" transform="translate(-43.32 -125.843)"/><path class="gb" d="M115.72,278.29v.006q.052.285.124.566c-.048-.188-.089-.379-.124-.572" transform="translate(-45.728 -178.219)"/><path class="gc" d="M115.72,278.25v0c.035.193.076.384.124.572.036.142.076.282.12.421q.109.345.25.682a8.091,8.091,0,0,1-.494-1.677" transform="translate(-45.728 -178.181)"/><path class="fv" d="M113.454,221.97c0,.019-.007.038-.01.056a8.133,8.133,0,0,0-.114,1.121q.012-.324.049-.647.029-.264.075-.526v0" transform="translate(-43.462 -124.809)"/><path class="co" d="M115.76,217.96c-.014.069-.028.138-.04.207v.005q.019-.106.04-.212" transform="translate(-45.728 -121.006)"/><path class="fu" d="M127.177,179.76h-.006q-.074.147-.141.3h.006c.045-.1.092-.2.141-.3" transform="translate(-56.454 -84.78)"/><path class="gd" d="M114.335,222.07c-.031.175-.056.35-.075.526.02-.171.045-.34.075-.51v-.016" transform="translate(-44.344 -124.904)"/><path class="fw" d="M116.311,185.5H116.3a8.161,8.161,0,0,0-.545,1.677q-.022.106-.04.212v.016a8.325,8.325,0,0,1,.591-1.906" transform="translate(-45.728 -90.224)"/><path class="fw" d="M129.935,177.35h0c-.022.041-.043.083-.064.125h0c.021-.042.042-.083.064-.125" transform="translate(-59.147 -82.495)"/><path class="fx" d="M127.292,179.76h0q-.074.147-.141.3h0c.045-.1.091-.2.141-.3" transform="translate(-56.568 -84.78)"/><path class="fx" d="M121.679,185.5h0c-.113.251-.212.506-.3.764q.078-.232.17-.46c.041-.1.084-.2.129-.3" transform="translate(-51.096 -90.224)"/><path class="fx" d="M129.956,177.35h0l-.064.125h0l.064-.125" transform="translate(-59.166 -82.495)"/><path class="ge" d="M127.313,179.76h0c-.049.1-.1.2-.141.3h0c.045-.1.092-.2.142-.3" transform="translate(-56.587 -84.78)"/><path class="gf" d="M124.8,185.5h0c-.045.1-.088.2-.129.3q.062-.153.13-.3" transform="translate(-54.216 -90.224)"/><path class="fj" d="M247.58,177.77a.832.832,0,0,1,.053.237v-.058a.6.6,0,0,0-.034-.173l-.02-.006" transform="translate(-170.774 -82.893)"/><path class="gg" d="M245.44,177.39a.822.822,0,0,1,.164.434v-.177a.831.831,0,0,0-.053-.237.6.6,0,0,0-.111-.02" transform="translate(-168.745 -82.533)"/><path class="gh" d="M132.732,326.14h0c.028.052.057.1.087.154h0c-.03-.051-.059-.1-.087-.154" transform="translate(-61.859 -223.596)"/><path class="gi" d="M132.761,326.14h0c.028.052.057.1.087.154h0c-.03-.051-.059-.1-.087-.154" transform="translate(-61.888 -223.596)"/><path class="gj" d="M113.23,252.13a8.163,8.163,0,0,0,.085,1.083,8.311,8.311,0,0,1-.085-1.083" transform="translate(-43.367 -153.41)"/><path class="gk" d="M113.221,250h0c0,.037,0,.073,0,.11a8.3,8.3,0,0,0,.085,1.083c.013.089.027.178.043.268v-.022a8.207,8.207,0,0,1-.128-1.438" transform="translate(-43.358 -151.39)"/><path class="fj" d="M113.225,244.75c0,.09,0,.181-.005.271h0c0-.09,0-.18,0-.271" transform="translate(-43.358 -146.412)"/><path class="en" d="M115.72,277.82v.022a8.032,8.032,0,0,0,.879,2.475h0a8.19,8.19,0,0,1-.881-2.5" transform="translate(-45.728 -177.773)"/><path class="cc" d="M113.234,250h0a8.208,8.208,0,0,0,.128,1.438v-.006a8.221,8.221,0,0,1-.125-1.432" transform="translate(-43.367 -151.39)"/><path class="cp" d="M113.293,232.23q-.037.322-.049.647c0,.09,0,.181,0,.271h0c0-.019,0-.039,0-.058a8,8,0,0,1,.049-.86" transform="translate(-43.377 -134.539)"/><path class="gi" d="M115.72,277.71v.006a8.19,8.19,0,0,0,.881,2.5h0a8.135,8.135,0,0,1-.881-2.5" transform="translate(-45.728 -177.669)"/><path class="gg" d="M113.435,222.38q-.046.253-.075.51a8.132,8.132,0,0,0-.049.86,8.132,8.132,0,0,1,.125-1.356v-.014" transform="translate(-43.443 -125.198)"/><path class="gl" d="M116,200.29a8.134,8.134,0,0,0-.293,1.142v.013A8.2,8.2,0,0,1,116,200.29" transform="translate(-45.719 -104.249)"/><path class="ce" d="M132.776,326.13h-.006c.028.052.057.1.087.154h.006c-.029-.051-.058-.1-.087-.154" transform="translate(-61.897 -223.586)"/><path class="ce" d="M113.31,250h0a8.172,8.172,0,0,0,.125,1.432v-.022q-.033-.188-.057-.377A8.118,8.118,0,0,1,113.31,250" transform="translate(-43.443 -151.39)"/><path class="fx" d="M113.3,248.88c0,.019,0,.039,0,.058h0c0-.019,0-.038,0-.058" transform="translate(-43.433 -150.328)"/><path class="ce" d="M115.72,277.29v.022a8.135,8.135,0,0,0,.881,2.5h.006a8.133,8.133,0,0,1-.887-2.524" transform="translate(-45.728 -177.27)"/><path class="cs" d="M113.313,250h0a8.316,8.316,0,0,0,.068,1.034,8.034,8.034,0,0,1-.065-1.034" transform="translate(-43.443 -151.39)"/><path class="fy" d="M113.435,222.64A8.138,8.138,0,0,0,113.31,224v.058h0a8.133,8.133,0,0,1,.122-1.4v-.012" transform="translate(-43.443 -125.444)"/><path class="ge" d="M116.173,191.39q-.092.228-.17.46A8.219,8.219,0,0,0,115.71,193v.012a8.174,8.174,0,0,1,.463-1.627" transform="translate(-45.719 -95.809)"/><path class="fx" d="M241.33,177.34h-.17a.824.824,0,0,1,.385.63v-.194a.822.822,0,0,0-.164-.434l-.051,0" transform="translate(-164.686 -82.485)"/><path class="gm" d="M135.678,177.35h-5.684l-.064.125h5.314a.822.822,0,0,1,.819.754v-.249a.824.824,0,0,0-.385-.63" transform="translate(-59.204 -82.495)"/><path class="ep" d="M132.883,326.12h0q.043.078.087.154h0c-.029-.051-.058-.1-.087-.154" transform="translate(-62.002 -223.577)"/><path class="gn" d="M138.917,250h0v2.849c0,.325-.928.608-1.272.608l-4.706.476c.028.052.057.1.087.154l4.618-.477c.345,0,1.272-.282,1.272-.608v-3" transform="translate(-62.059 -151.39)"/><path class="ep" d="M114.62,270.01c.016.126.035.251.057.377v0c-.022-.124-.041-.247-.057-.372" transform="translate(-44.685 -170.366)"/><path class="ep" d="M115.72,277.2v0a8.142,8.142,0,0,0,.887,2.523h0a8.178,8.178,0,0,1-.89-2.527" transform="translate(-45.728 -177.185)"/><path class="go" d="M132.645,179.76h-5.314c-.049.1-.1.2-.142.3h5.46a.822.822,0,0,1,.814.711v-.254a.822.822,0,0,0-.819-.754" transform="translate(-56.606 -84.78)"/><path class="eq" d="M113.482,250h-.122a8.227,8.227,0,0,0,.065,1.034c.016.125.035.248.057.372V250" transform="translate(-43.49 -151.39)"/><path class="go" d="M113.482,222.87a8.142,8.142,0,0,0-.122,1.4h.122v-1.4" transform="translate(-43.49 -125.662)"/><path class="gn" d="M122.587,250H115.72v1.406a8.2,8.2,0,0,0,.89,2.528l4.706-.476c.345,0,1.272-.282,1.272-.608V250" transform="translate(-45.728 -151.39)"/><path class="go" d="M121.763,185.5H116.3q-.068.151-.13.3a8.144,8.144,0,0,0-.463,1.627v1.4h6.867v-2.622a.822.822,0,0,0-.814-.711" transform="translate(-45.719 -90.224)"/><path class="gp" d="M68.284,158.751h7.857a.789.789,0,0,1,.789.789V167.4a.784.784,0,0,1-.784.784H68.284a.78.78,0,0,1-.784-.775v-7.867a.785.785,0,0,1,.779-.789h.005Z" transform="translate(0 -64.856)"/><path class="gq" d="M116.2,192.883a2.452,2.452,0,0,1,1.64.479,1.709,1.709,0,0,1,.564,1.373,1.634,1.634,0,0,1-.282.957,1.906,1.906,0,0,1-.789.7,2.688,2.688,0,0,1-1.191.249h-1.129v2.133H113.86v-5.887Zm-1.2,2.759h.995a1.326,1.326,0,0,0,.88-.263.661.661,0,0,0,.3-.6c0-.655-.378-.957-1.138-.957H115v1.822Z" transform="translate(-43.965 -97.219)"/></g></g></svg>