<svg xmlns="http://www.w3.org/2000/svg" width="27" height="27" viewBox="0 0 27 27"><defs><style>.a{fill:#fff;}.b{fill:#ffc03f;}</style></defs><g transform="translate(-86.78 -346.929)"><rect class="a" width="27" height="27" rx="2" transform="translate(86.78 346.929)"/><g transform="translate(279.368 -33.365)"><path d="M-184.325,394.648a3.048,3.048,0,0,0,3.045-3.045,3.045,3.045,0,0,0-3.045-3.045,3.045,3.045,0,0,0-3.045,3.045A3.045,3.045,0,0,0-184.325,394.648Z"/><path d="M-181.14,396.083a4.261,4.261,0,0,0-6.015-.359,4.262,4.262,0,0,0-1.433,3.188v3.045h8.527v-3.045a4.242,4.242,0,0,0-.394-1.79l2.474-2.474h7.665v-1.217h-8.172Zm-.14,4.656h-6.09v-1.827a3.048,3.048,0,0,1,3.045-3.045h0a3.048,3.048,0,0,1,3.045,3.045Z"/><rect width="4.872" height="1.218" transform="translate(-175.189 398.303)"/><rect width="1.218" height="1.218" transform="translate(-177.625 398.303)"/><rect width="4.872" height="1.218" transform="translate(-175.189 400.739)"/><rect width="1.218" height="1.218" transform="translate(-177.625 400.739)"/><rect width="4.872" height="1.218" transform="translate(-175.189 395.867)"/><rect width="1.218" height="1.218" transform="translate(-177.625 395.867)"/><path d="M-173.97,385.294v2.315h-2.436v1.526h-2.437v3.078h8.527v-6.919Zm-2.437,6.156h-1.218V390.1h1.218Zm2.436,0h-1.218v-2.7h1.218Zm2.436,0h-1.218v-5.12h1.218Z"/><path class="a" d="M-184.325,389.776A1.827,1.827,0,0,1-182.5,391.6a1.828,1.828,0,0,1-1.827,1.827,1.827,1.827,0,0,1-1.827-1.827A1.827,1.827,0,0,1-184.325,389.776Z"/><path class="a" d="M-181.28,400.739h-6.09v-1.827a3.048,3.048,0,0,1,3.045-3.045h0a3.048,3.048,0,0,1,3.045,3.045Z"/><rect class="b" width="1.218" height="1.348" transform="translate(-177.625 390.102)"/><rect class="b" width="1.218" height="2.697" transform="translate(-175.189 388.754)"/><rect class="b" width="1.218" height="5.12" transform="translate(-172.753 386.33)"/></g></g></svg>