<svg xmlns="http://www.w3.org/2000/svg" width="27" height="27" viewBox="0 0 27 27"><defs><style>.a{fill:#fff;}.b{fill:#2c2f33;}.c{fill:#ffc03f;}</style></defs><g transform="translate(-86.78 -346.929)"><rect class="a" width="27" height="27" rx="2" transform="translate(86.78 346.929)"/><g transform="translate(90.78 350.929)"><g transform="translate(0 0)"><path class="b" d="M16.032,0H2.531A2.534,2.534,0,0,0,0,2.531v13.5a2.535,2.535,0,0,0,2.531,2.531h13.5a2.535,2.535,0,0,0,2.531-2.531V2.531A2.535,2.535,0,0,0,16.032,0Zm1.688,16.032a1.693,1.693,0,0,1-1.688,1.688H2.531A1.693,1.693,0,0,1,.844,16.032V2.531A1.693,1.693,0,0,1,2.531.844h13.5a1.693,1.693,0,0,1,1.688,1.688Z"/><circle class="b" cx="0.716" cy="0.716" r="0.716" transform="translate(4.487 1.969)"/><circle class="b" cx="0.716" cy="0.716" r="0.716" transform="translate(8.565 1.969)"/><circle class="b" cx="0.716" cy="0.716" r="0.716" transform="translate(12.644 1.969)"/><rect class="c" width="2.585" height="2.3" transform="translate(6.263 7.258)"/><rect class="b" width="2.585" height="2.3" transform="translate(9.715 7.258)"/><rect class="b" width="2.585" height="2.3" transform="translate(13.165 7.258)"/><rect class="b" width="2.585" height="2.298" transform="translate(2.813 10.327)"/><rect class="b" width="2.585" height="2.298" transform="translate(6.263 10.327)"/><rect class="b" width="2.585" height="2.298" transform="translate(9.715 10.327)"/><rect class="b" width="2.585" height="2.298" transform="translate(13.165 10.327)"/><rect class="b" width="2.585" height="2.298" transform="translate(2.813 13.397)"/><rect class="b" width="2.585" height="2.298" transform="translate(6.263 13.397)"/><rect class="b" width="2.585" height="2.298" transform="translate(9.715 13.397)"/><rect class="b" width="2.585" height="2.298" transform="translate(13.165 13.397)"/></g></g></g></svg>