<svg xmlns="http://www.w3.org/2000/svg" width="18.711" height="18.711" viewBox="0 0 18.711 18.711"><defs><style>.a{fill:#0ea2c8;}</style></defs><g transform="translate(0 0)"><path class="a" d="M9.355,18.711A9.356,9.356,0,0,1,2.74,2.74,9.356,9.356,0,0,1,15.971,15.971a9.294,9.294,0,0,1-6.615,2.74Zm0-17.542a8.186,8.186,0,1,0,8.186,8.186A8.2,8.2,0,0,0,9.355,1.169Z"/><path class="a" d="M178.924,105.94a.585.585,0,0,1-.585-.585,5.489,5.489,0,0,1,1.618-3.907A3.436,3.436,0,0,0,180.97,99a1.836,1.836,0,0,0-1.834-1.834H179A1.836,1.836,0,0,0,177.169,99v.213a.585.585,0,0,1-1.169,0V99a3.007,3.007,0,0,1,3-3h.133a3.007,3.007,0,0,1,3,3,4.6,4.6,0,0,1-1.355,3.272,4.327,4.327,0,0,0-1.276,3.08A.585.585,0,0,1,178.924,105.94Z" transform="translate(-169.568 -92.492)"/><path class="a" d="M240.6,401.169a.585.585,0,0,1,0-1.169h0a.585.585,0,1,1,0,1.169Z" transform="translate(-231.244 -385.382)"/></g></svg>