<svg xmlns="http://www.w3.org/2000/svg" width="25" height="25" viewBox="0 0 25 25"><defs><style>.a{fill:#f6f9fb;}.b{fill:#54f29d;}.c{fill:#2dd57b;}</style></defs><g transform="translate(-289 -368)"><rect class="a" width="25" height="25" rx="7" transform="translate(289 368)"/><g transform="translate(294 373)"><path class="b" d="M9.037,13.33A1.039,1.039,0,0,0,8,14.368v6.815A1.039,1.039,0,0,0,9.037,22.22c.546-.1,2.518.432,2.518-1.037V14.368C11.556,12.884,9.55,13.425,9.037,13.33Z" transform="translate(-8 -9.033)"/><path class="c" d="M20.408,13.24h-2.8a5.723,5.723,0,0,0,.444-2.371A2.176,2.176,0,0,0,16.129,8.5c-.593,0-.889.3-.889,1.778,0,1.408-1.364,2.54-2.241,3.124v7.341a16.133,16.133,0,0,0,6.744,1.09c2.993,0,2.381-3.869,3-5.82A2.367,2.367,0,0,0,20.408,13.24Z" transform="translate(-8.555 -8.499)"/></g></g></svg>