<svg xmlns="http://www.w3.org/2000/svg" width="25" height="25" viewBox="0 0 25 25"><defs><style>.a{fill:#f6f9fb;}.b{fill:#fd907e;}.c{fill:#ff6f57;}</style></defs><g transform="translate(-260 -368)"><rect class="a" width="25" height="25" rx="7" transform="translate(260 368)"/><g transform="translate(265 375)"><path class="b" d="M10.518,22.214a1.039,1.039,0,0,0,1.037-1.037V14.361a1.039,1.039,0,0,0-1.037-1.037C9.972,13.425,8,12.892,8,14.361v6.815C8,22.66,10.005,22.119,10.518,22.214Z" transform="translate(2.666 -13.177)"/><path class="c" d="M15.368,17.091h2.8a5.723,5.723,0,0,0-.444,2.371,2.176,2.176,0,0,0,1.926,2.371c.593,0,.889-.3.889-1.778,0-1.408,1.364-2.54,2.241-3.124V9.589A16.133,16.133,0,0,0,16.033,8.5c-2.993,0-2.381,3.869-3,5.82A2.367,2.367,0,0,0,15.368,17.091Z" transform="translate(-12.999 -8.499)"/></g></g></svg>