<svg xmlns="http://www.w3.org/2000/svg" width="26" height="26" viewBox="0 0 26 26"><defs><style>.a{fill:#fff;}.b{fill:#41a5ee;}.c{fill:#103f91;}.d{fill:#185abd;}.e{fill:#2b7cd3;}.f{fill:#3f9fe6;}.g{fill:#0f3d8c;}.h{fill:#1757b6;}.i{fill:#2a78cc;}.j{fill:#0f3b87;}.k{fill:#3b95d7;}.l{fill:#0e3983;}.m{fill:#1651ab;}.n{fill:#2770bf;}.o{fill:#0e377e;}.p{fill:#378cc9;}.q{fill:#0d357a;}.r{fill:#154ca0;}.s{fill:#2469b2;}.t{fill:#40a4ec;}.u{fill:#3e9ee4;}.v{fill:#3a94d6;}.w{fill:#368ac7;}.x{fill:#0d3476;}.y{fill:#0b2e67;}.z{fill:#0a295c;}.aa{fill:#09234f;}.ab{fill:#081e45;}.ac{fill:#071b3f;}.ad{fill:#3382bc;}.ae{fill:#0d3273;}.af{fill:#134795;}.ag{fill:#2262a6;}.ah{fill:#071c41;}.ai{fill:#071a3c;}.aj{fill:#cbcbcb;}.ak{fill:#3483bd;}.al{fill:#cacaca;}.am{fill:#245c85;}.an{fill:#205175;}.ao{fill:#153d67;}.ap{fill:#143961;}.aq{fill:#12355a;}.ar{fill:#123357;}.as{fill:#1a4360;}.at{fill:#0a244c;}.au{fill:#113255;}.av{fill:#06193b;}.aw{fill:#061838;}.ax{fill:#1c5189;}.ay{fill:#19497c;}.az{fill:#0c306e;}.ba{fill:#0b2b62;}.bb{fill:#0b2d68;}.bc{fill:#0a295d;}.bd{fill:#0a2758;}.be{fill:#0a2658;}.bf{fill:#092454;}.bg{fill:#092350;}.bh{fill:#08224c;}.bi{fill:#082049;}.bj{fill:#081f47;}.bk{fill:#071d43;}.bl{fill:#0c306f;}.bm{fill:#307bb0;}.bn{fill:#0c2f6c;}.bo{fill:#12438c;}.bp{fill:#205c9c;}.bq{fill:#0b295d;}.br{fill:#0a285b;}.bs{fill:#092554;}.bt{fill:#092452;}.bu{fill:#08214c;}.bv{fill:#071c3f;}.bw{fill:#071c3e;}.bx{fill:#071a3d;}.by{fill:#0b2a60;}.bz{fill:#081e46;}.ca{fill:#071b3e;}.cb{fill:#071a3b;}.cc{fill:#061939;}.cd{fill:#061837;}.ce{fill:#286793;}.cf{fill:#0a275a;}.cg{fill:#0f3875;}.ch{fill:#1b4d83;}.ci{fill:#245d85;}.cj{fill:#092351;}.ck{fill:#0e326a;}.cl{fill:#184676;}.cm{fill:#0c2c5d;}.cn{fill:#0b2854;}.co{fill:#092248;}.cp{fill:#061736;}.cq{fill:#061735;}.cr{fill:#092145;}.cs{fill:#3c99dc;}.ct{fill:#3a94d5;}.cu{fill:#368ac8;}.cv{fill:#3382bb;}.cw{fill:#bebebe;}.cx{fill:#0a244b;}.cy{fill:#b9b9b9;}.cz{fill:#09234a;}.da{fill:#0d2f63;}.db{fill:#0a2650;}.dc{fill:#061734;}.dd{fill:#061634;}.de{fill:#092043;}.df{fill:#3586c1;}.dg{fill:#3381bb;}.dh{fill:#317db5;}.di{fill:#2f77ab;}.dj{fill:#22567c;}.dk{fill:#2c70a1;}.dl{fill:#1d548f;}.dm{fill:#2c71a2;}.dn{fill:#2a6b9a;}.do{fill:#296896;}.dp{fill:#286693;}.dq{fill:#27638f;}.dr{fill:#afafaf;}.ds{fill:#aeaeae;}.dt{fill:#215377;}.du{fill:#205074;}.dv{fill:#1f4e70;}.dw{fill:#1e4c6e;}.dx{fill:#1d4a6b;}.dy{fill:#13385f;}.dz{fill:#1c4868;}.ea{fill:#1c4766;}.eb{fill:#1b4564;}.ec{fill:#12365a;}.ed{fill:#113256;}.ee{fill:#0a2349;}.ef{fill:#113153;}.eg{fill:#193f5b;}.eh{fill:#113051;}.ei{fill:#1b4563;}.ej{fill:#255e88;}.ek{fill:#194779;}.el{fill:#1d4a6a;}.em{fill:#13375e;}.en{fill:#1b4462;}.eo{fill:#123458;}.ep{fill:#113053;}.eq{fill:#092246;}.er{fill:#102f50;}.es{fill:#183d59;}.et{fill:#102e4f;}.eu{fill:#16416e;}.ev{fill:#1c4665;}.ew{fill:#123559;}.ex{fill:#1a415e;}.ey{fill:#113154;}.ez{fill:#102f51;}.fa{fill:#092146;}.fb{fill:#183d58;}.fc{fill:#102e4e;}.fd{fill:#0c2e60;}.fe{fill:#215378;}.ff{fill:#0d2d5f;}.fg{fill:#163e6a;}.fh{fill:#0a254e;}.fi{fill:#1b4463;}.fj{fill:#113052;}.fk{fill:#102d4d;}.fl{fill:#092044;}.fm{fill:#183c57;}.fn{fill:#173c56;}.fo{fill:#102d4c;}.fp{fill:#102c4b;}.fq{fill:#173b55;}.fr{fill:#0f2c4b;}</style></defs><g transform="translate(-86.667 -346.816)"><rect class="a" width="26" height="26" rx="2" transform="translate(86.667 346.816)"/><g transform="translate(22.167 257.996)"><path class="b" d="M159.536,93.82h12.848a.8.8,0,0,1,.806.792v14.92a.8.8,0,0,1-.806.787H159.536a.829.829,0,0,1-.572-.23.774.774,0,0,1-.235-.557V94.612a.781.781,0,0,1,.235-.562.877.877,0,0,1,.572-.23" transform="translate(-86.411)"/><path class="c" d="M173.191,328.18H158.73v3.333a.8.8,0,0,0,.806.787h12.848a.8.8,0,0,0,.806-.787V328.18" transform="translate(-86.411 -221.981)"/><path class="d" d="M158.73,250.1h14.461v4.124H158.73V250.1" transform="translate(-86.411 -148.026)"/><path class="e" d="M158.73,172h14.461v4.125H158.73V172" transform="translate(-86.411 -74.051)"/><path class="f" d="M249.263,162.542h0m-.6-4.882h-.4a.582.582,0,0,1,.082.186h.08a.6.6,0,0,1,.6.572h.236v-.146a.587.587,0,0,0-.582-.592h-.015v-.02" transform="translate(-171.222 -60.468)"/><path class="g" d="M262.3,328.18h-.236v.357a.613.613,0,0,1-.009.094v.068a.564.564,0,0,1-.022.144.6.6,0,0,0,.266-.492v-.171" transform="translate(-184.255 -221.981)"/><path class="h" d="M262.846,250.1h-.236v4.124h.236V250.1" transform="translate(-184.804 -148.026)"/><path class="i" d="M262.836,172H262.6s0,.009,0,.015v4.11h.236V172" transform="translate(-184.795 -74.051)"/><path class="j" d="M158.73,333.94v1.7h4.023a.787.787,0,0,0,.784-.724.626.626,0,0,1-.093.03.781.781,0,0,1-.686.406H158.73V333.94h0" transform="translate(-86.411 -227.437)"/><path class="k" d="M250.5,165.876h0m-.6-4.7h-.08a.585.585,0,0,1,.017.137v.107h.053a.6.6,0,0,1,.532.327h.072a.594.594,0,0,0-.595-.572" transform="translate(-172.69 -63.802)"/><path class="l" d="M262.449,328.18h-.009v.451a.6.6,0,0,0,.009-.094v-.357" transform="translate(-184.643 -221.981)"/><path class="m" d="M262.449,250.1h-.009v4.124h.009V250.1" transform="translate(-184.643 -148.026)"/><path class="n" d="M261.3,172h-.072a.593.593,0,0,1,.064.259v3.865h.009v-4.11s0-.01,0-.015" transform="translate(-183.497 -74.051)"/><path class="j" d="M255.126,340.72a1,1,0,0,0-.3.219.591.591,0,0,1-.085.184.593.593,0,0,0,.386-.4" transform="translate(-177.35 -233.859)"/><path class="l" d="M260.337,336.72a.59.59,0,0,1-.117.263.572.572,0,0,0,.1-.052.613.613,0,0,0,.022-.144v-.068" transform="translate(-182.541 -230.07)"/><path class="o" d="M256.535,341.7a.6.6,0,0,1-.186.046.577.577,0,0,1-.019.121.586.586,0,0,0,.205-.167" transform="translate(-178.856 -234.787)"/><path class="p" d="M250.79,170.252h0m-.6-4.452h-.053v.049h0v.156h0v.065a.594.594,0,0,1,.209.057h.377a.6.6,0,0,0-.533-.327" transform="translate(-172.993 -68.178)"/><path class="q" d="M256.984,328.18h-.1v.313a.591.591,0,0,1-.2.44.031.031,0,0,1,0,.007.274.274,0,0,0,.3-.309v-.451" transform="translate(-179.188 -221.981)"/><path class="r" d="M260.6,250.1h-.1v4.124h.1V250.1" transform="translate(-182.806 -148.026)"/><path class="s" d="M254.477,172H254.1a.6.6,0,0,1,.339.533v3.592h.1v-3.865a.6.6,0,0,0-.064-.259" transform="translate(-176.744 -74.051)"/><path class="t" d="M163.128,152.67H158.9v.53h0v-.369h4.218a.6.6,0,0,1,.336.1h.166a.588.588,0,0,0-.492-.264" transform="translate(-86.572 -55.742)"/><path class="u" d="M245.3,157.66h-.166a.6.6,0,0,1,.177.186h.07a.606.606,0,0,0-.082-.186" transform="translate(-168.248 -60.468)"/><path class="v" d="M248.56,161.18h-.07a.593.593,0,0,1,.083.244h0v-.107a.615.615,0,0,0-.017-.137" transform="translate(-171.43 -63.802)"/><path class="w" d="M250.074,165.8h0c0,.016,0,.033,0,.049V165.8" transform="translate(-172.927 -68.178)"/><path class="x" d="M163.443,352.97a.593.593,0,0,1-.134.015h-.12a.782.782,0,0,1-.436.132H158.73v.259h4.028a.783.783,0,0,0,.686-.407" transform="translate(-86.411 -245.462)"/><path class="y" d="M158.73,333.94v1.153h4.023a.783.783,0,0,0,.436-.132h-4.072a.3.3,0,0,1-.192-.069h-.194v-.952h0" transform="translate(-86.411 -227.437)"/><path class="z" d="M158.818,348.54h-.088v.181h.194a.3.3,0,0,1-.106-.181" transform="translate(-86.411 -241.266)"/><path class="aa" d="M158.813,341.69h-.083v.361h.088a.3.3,0,0,1,0-.044v-.317" transform="translate(-86.411 -234.778)"/><path class="ab" d="M158.74,340.49h-.01v.064h.083v-.017H158.8a.391.391,0,0,1-.056,0v-.044" transform="translate(-86.411 -233.641)"/><path class="ac" d="M158.73,333.94v.346h.01v-.337l-.01-.009" transform="translate(-86.411 -227.437)"/><path class="ad" d="M250.687,175.111h0m-.547-4.181v.057h.209a.605.605,0,0,0-.209-.057" transform="translate(-172.993 -73.037)"/><path class="ae" d="M256.891,328.18h-.2v.733c0,.006,0,.013,0,.019a.591.591,0,0,0,.2-.439v-.313" transform="translate(-179.197 -221.981)"/><path class="af" d="M256.91,250.1h-.2v4.124h.2V250.1" transform="translate(-179.216 -148.026)"/><path class="ag" d="M250.349,172h-.209v.015a.357.357,0,0,1,.171.269v.256a.592.592,0,0,1,.176.418v3.167h.2v-3.592a.6.6,0,0,0-.338-.532" transform="translate(-172.993 -74.051)"/><path class="ah" d="M158.993,340.49h-.073v.044a.5.5,0,0,0,.056,0h.017v-.047" transform="translate(-86.591 -233.641)"/><path class="ai" d="M158.92,334.11v.337h.073v-.291a.317.317,0,0,1-.073-.046" transform="translate(-86.591 -227.598)"/><path class="aj" d="M157.063,162.87a.3.3,0,0,0-.093.209v8.615a.3.3,0,0,0,.093.211v-.191a.291.291,0,0,1-.049-.163v-.146h0v-.152h0v-1.207h.049V162.87" transform="translate(-84.744 -65.403)"/><path class="ak" d="M158.74,162.71l-.01.008v4.608h0v-4.447h.01v-.168" transform="translate(-86.411 -65.251)"/><path class="al" d="M157.849,298.77H157.8v1.206h0v-1.055h.049v-.151" transform="translate(-85.53 -194.125)"/><path class="am" d="M158.74,165.9h-.01v.176h.01V165.9" transform="translate(-86.411 -68.273)"/><path class="an" d="M158.74,169.23h-.01v.146h.01v-.146" transform="translate(-86.411 -71.427)"/><path class="ao" d="M158.74,172h-.01v.044h.01V172" transform="translate(-86.411 -74.051)"/><path class="ap" d="M158.74,172.83h-.01v.205h.01v-.205" transform="translate(-86.411 -74.837)"/><path class="aq" d="M158.74,176.72h-.01v.259h.01v-.259" transform="translate(-86.411 -78.521)"/><path class="ar" d="M158.74,181.63h-.01v.283h.01v-.283" transform="translate(-86.411 -83.172)"/><path class="as" d="M158.74,250.09h0" transform="translate(-86.411 -148.016)"/><path class="at" d="M158.74,250.1h-.01v2.571h.01V250.1" transform="translate(-86.411 -148.026)"/><path class="au" d="M158.74,186.99h-.01v3.333h.01V186.99" transform="translate(-86.411 -88.249)"/><path class="at" d="M158.74,250.1h0v2.571h-.01v.151h.01V250.1" transform="translate(-86.411 -148.026)"/><path class="av" d="M158.73,330.33v.191l.01.009v-.185l-.01-.014" transform="translate(-86.411 -224.018)"/><path class="aw" d="M158.92,330.59v.185a.286.286,0,0,0,.073.047v-.164a.28.28,0,0,1-.073-.068" transform="translate(-86.591 -224.264)"/><path class="ax" d="M250.14,172.28v.219a.588.588,0,0,1,.079.231.6.6,0,0,1,.092.075v-.256a.36.36,0,0,0-.171-.269" transform="translate(-172.993 -74.316)"/><path class="ay" d="M250.14,176.43v.187a.6.6,0,0,1,.079.044.605.605,0,0,0-.079-.231" transform="translate(-172.993 -78.247)"/><path class="j" d="M249.994,348.36a.584.584,0,0,1-.183.029h-.079v.147c0,.013,0,.025,0,.038a.6.6,0,0,0,.264-.214" transform="translate(-172.605 -241.095)"/><path class="o" d="M248.056,348.91h-.016a.774.774,0,0,1-.079.215.571.571,0,0,0,.094-.03c0-.013,0-.025,0-.038v-.147" transform="translate(-170.928 -241.616)"/><path class="o" d="M250.126,344.87a.592.592,0,0,1-.264.062h-.082v.015h0v.137h.079a.586.586,0,0,0,.183-.029.6.6,0,0,0,.084-.184" transform="translate(-172.652 -237.79)"/><path class="x" d="M249.476,346.31a.768.768,0,0,1-.016.137h.016v-.137" transform="translate(-172.349 -239.154)"/><path class="x" d="M250.136,342.57h-.01a.59.59,0,0,1-.356.138v.044h.082a.593.593,0,0,0,.264-.062.547.547,0,0,0,.02-.121" transform="translate(-172.643 -235.611)"/><path class="ae" d="M256.53,342.42l-.009.008h.009a.041.041,0,0,1,0-.008" transform="translate(-179.036 -235.469)"/><path class="az" d="M243.484,348.91h-.108a.788.788,0,0,1-.226.23h.12a.592.592,0,0,0,.134-.015.8.8,0,0,0,.079-.214" transform="translate(-166.372 -241.616)"/><path class="ba" d="M166.891,348.91h-.184a.784.784,0,0,1-.478.162H162.4a.3.3,0,0,0,.192.069h4.072a.8.8,0,0,0,.226-.23" transform="translate(-89.887 -241.616)"/><path class="bb" d="M247.544,346.04H247.5a.827.827,0,0,1-.076.152h.108a.78.78,0,0,0,.016-.137v-.015" transform="translate(-170.417 -238.898)"/><path class="bc" d="M244.2,346.04h-.109a.8.8,0,0,1-.151.152h.184a.827.827,0,0,0,.076-.152" transform="translate(-167.12 -238.898)"/><path class="ba" d="M248.908,345.2h-.033c0,.015-.01.03-.015.044h.049V345.2" transform="translate(-171.781 -238.102)"/><path class="bd" d="M246.914,345.21h-.093l-.031.044h.109l.015-.044" transform="translate(-169.82 -238.112)"/><path class="be" d="M160.872,348.54h-.482a.3.3,0,0,0,.106.181h3.828a.784.784,0,0,0,.477-.162h-3.826a.293.293,0,0,1-.1-.019" transform="translate(-87.984 -241.266)"/><path class="bf" d="M173.6,346.04h-.188a.776.776,0,0,1-.435.133H169.52a.308.308,0,0,0,.1.02h3.826a.805.805,0,0,0,.151-.152" transform="translate(-96.631 -238.898)"/><path class="bg" d="M243.449,345.21h-.16c-.019.015-.039.03-.059.044h.188l.031-.044" transform="translate(-166.448 -238.112)"/><path class="bh" d="M160.532,341.69h-.222v.317a.3.3,0,0,0,0,.044h.482a.294.294,0,0,1-.188-.253.285.285,0,0,1-.077-.108" transform="translate(-87.908 -234.778)"/><path class="bi" d="M165.96,343.75a.294.294,0,0,0,.188.253h3.458a.777.777,0,0,0,.435-.133h-3.775a.987.987,0,0,1-.306-.12" transform="translate(-93.259 -236.729)"/><path class="bj" d="M168.69,345.11a.291.291,0,0,0,.163.049h3.775c.021-.014.04-.029.059-.044h-3.94a.328.328,0,0,1-.057-.005" transform="translate(-95.845 -238.017)"/><path class="bk" d="M160.525,341.32h-.176l-.039,0v.017h.222c0-.007-.005-.013-.007-.02" transform="translate(-87.908 -234.427)"/><path class="bl" d="M250.136,342.58h-.356v.137a.587.587,0,0,0,.356-.138" transform="translate(-172.652 -235.621)"/><path class="bm" d="M253.546,250.09h0" transform="translate(-176.052 -148.016)"/><path class="bn" d="M250.146,328.18h-.214a.6.6,0,0,1-.05.1h0a.592.592,0,0,1-.1.33v.062h0v.268h.356l.01-.008c0-.006,0-.013,0-.019v-.733" transform="translate(-172.652 -221.981)"/><path class="bo" d="M252.874,250.1H252.7v3.924a.589.589,0,0,1-.038.2h.214V250.1" transform="translate(-175.38 -148.026)"/><path class="bp" d="M253.37,182.22V185.8h.176v-3.167a.592.592,0,0,0-.176-.418" transform="translate(-176.052 -83.731)"/><path class="bq" d="M249.173,342.6h0a.792.792,0,0,1-.029.137h.033V342.6" transform="translate(-172.046 -235.64)"/><path class="br" d="M249.685,341.32q0,.034,0,.068h0v-.068" transform="translate(-172.557 -234.427)"/><path class="bs" d="M247.492,342.6h-.051a.787.787,0,0,1-.071.137h.094a.826.826,0,0,0,.029-.137" transform="translate(-170.369 -235.64)"/><path class="bt" d="M248.775,337.53a.776.776,0,0,1-.055.268h.051c0-.022,0-.045,0-.068v-.2" transform="translate(-171.648 -230.838)"/><path class="bh" d="M244.581,342.6h-.1a.771.771,0,0,1-.132.137h.16a.789.789,0,0,0,.071-.137" transform="translate(-167.509 -235.64)"/><path class="bu" d="M246.985,336.36l-.016.023a.774.774,0,0,1-.139.307h.1a.776.776,0,0,0,.055-.268v-.062" transform="translate(-169.858 -229.729)"/><path class="bi" d="M164.586,341.69h-.076a.3.3,0,0,0,.076.108c0-.007,0-.014,0-.021v-.087" transform="translate(-91.886 -234.778)"/><path class="bj" d="M165.962,341.69h-.022v.087c0,.007,0,.014,0,.021a.3.3,0,0,0,.145.072.29.29,0,0,1-.124-.18" transform="translate(-93.24 -234.778)"/><path class="ab" d="M166.72,341.69h-.37a.292.292,0,0,0,.124.18.321.321,0,0,0,.055.005h3.94a.79.79,0,0,0,.132-.137h-3.72a.3.3,0,0,1-.16-.048" transform="translate(-93.629 -234.778)"/><path class="bk" d="M177.37,336.79a.6.6,0,0,1-.477.239h-.1a.791.791,0,0,1-.178.021H173.35a.305.305,0,0,0,.161.048h3.72a.774.774,0,0,0,.139-.307" transform="translate(-100.259 -230.137)"/><path class="ah" d="M164.462,341.32h-.082c0,.007,0,.013.007.02h.076v-.02" transform="translate(-91.763 -234.427)"/><path class="bv" d="M165.958,341.32h-.018v.02h.022c0-.007,0-.013,0-.02" transform="translate(-93.24 -234.427)"/><path class="bw" d="M166.626,341.32h-.346c0,.007,0,.013,0,.02h.37l-.027-.02" transform="translate(-93.562 -234.427)"/><path class="bx" d="M176.3,341.32h-3.47l.027.02h3.265a.79.79,0,0,0,.178-.021" transform="translate(-99.767 -234.427)"/><path class="ac" d="M160.514,340.49h-.2v.047l.039,0h.176a.251.251,0,0,1-.011-.044" transform="translate(-87.908 -233.641)"/><path class="av" d="M160.3,334.99v.29h.2a.3.3,0,0,1,0-.044v-.22h-.078a.306.306,0,0,1-.123-.026" transform="translate(-87.898 -228.432)"/><path class="by" d="M249.872,330.1a.6.6,0,0,1-.1.125v.206a.593.593,0,0,0,.1-.33h0" transform="translate(-172.643 -223.8)"/><path class="bz" d="M249.476,334.2a.774.774,0,0,1-.016.137l.016-.023V334.2" transform="translate(-172.349 -227.683)"/><path class="ac" d="M239.124,332.47a.6.6,0,0,1-.073.058.783.783,0,0,1-.52.409h.1a.6.6,0,0,0,.478-.239.78.78,0,0,0,.016-.137v-.091" transform="translate(-161.996 -226.045)"/><path class="ca" d="M164.264,340.49h-.094a.406.406,0,0,0,.011.044h.082v-.044" transform="translate(-91.564 -233.641)"/><path class="ai" d="M165.955,340.49h-.015v.044h.018a.3.3,0,0,1,0-.044h0" transform="translate(-93.24 -233.641)"/><path class="cb" d="M166.525,340.49h-.305a.3.3,0,0,0,0,.044h.347a.317.317,0,0,1-.044-.044" transform="translate(-93.506 -233.641)"/><path class="av" d="M176.034,333.57a.541.541,0,0,1-.061.036.786.786,0,0,1-.64.33H172a.315.315,0,0,0,.044.044h3.47a.783.783,0,0,0,.52-.409" transform="translate(-98.98 -227.087)"/><path class="cc" d="M164.2,335.48h-.1v.22a.3.3,0,0,0,0,.044h.093v-.264" transform="translate(-91.498 -228.896)"/><path class="aw" d="M165.955,335.48h-.015v.265h.015v-.265" transform="translate(-93.24 -228.896)"/><path class="aw" d="M166.455,335.48h-.235v.265h.305a.309.309,0,0,1-.07-.181v-.083" transform="translate(-93.506 -228.896)"/><path class="cd" d="M174.713,334.25a.591.591,0,0,1-.271.065H170.67v.083a.3.3,0,0,0,.07.181h3.333a.785.785,0,0,0,.64-.33" transform="translate(-97.721 -227.731)"/><path class="ce" d="M251.8,250.09h0" transform="translate(-174.48 -148.016)"/><path class="cf" d="M251.76,328.18h-.05v.1a.564.564,0,0,0,.05-.1" transform="translate(-174.48 -221.981)"/><path class="cg" d="M251.8,250.1h-.088v4.124h.05a.587.587,0,0,0,.038-.2V250.1" transform="translate(-174.48 -148.026)"/><path class="ch" d="M251.63,180.8a.582.582,0,0,1,0,.069v3.592h.088v-3.585a.545.545,0,0,0-.092-.076" transform="translate(-174.404 -82.386)"/><path class="cd" d="M160.3,331.89v.164a.3.3,0,0,0,.122.026h.078v-.148l-.035.006h0a.29.29,0,0,1-.161-.048" transform="translate(-87.898 -225.495)"/><path class="ci" d="M250.223,250.09h0" transform="translate(-172.993 -148.016)"/><path class="cj" d="M249.872,328.18h-.1c0,.02,0,.039-.007.058v.169a.6.6,0,0,0,.1-.125v-.1" transform="translate(-172.643 -221.981)"/><path class="ck" d="M250.005,250.1h-.083v3.161a.189.189,0,0,1-.01.059v.817h0c0,.017,0,.033,0,.05s0,.025,0,.038h.1V250.1" transform="translate(-172.775 -148.026)"/><path class="cl" d="M250.14,179.97v3.7h.083v-3.592a.588.588,0,0,0,0-.069.709.709,0,0,0-.079-.043" transform="translate(-172.993 -81.6)"/><path class="bj" d="M249.787,328.18h-.007v.058c0-.019,0-.038.007-.058" transform="translate(-172.652 -221.981)"/><path class="cm" d="M249.78,326.52a.755.755,0,0,1-.01.086v0h.007c0-.013,0-.025,0-.038s0-.033,0-.05h0" transform="translate(-172.643 -220.409)"/><path class="cn" d="M249.78,311.06a.168.168,0,0,1-.01.025v.876c0-.028.008-.056.01-.086v-.816" transform="translate(-172.643 -205.766)"/><path class="av" d="M248.453,329.27a.784.784,0,0,1-.073.227.6.6,0,0,0,.073-.058v-.169" transform="translate(-171.326 -223.014)"/><path class="cd" d="M247.355,328.18h0a.793.793,0,0,1-.135.321.544.544,0,0,0,.061-.036.774.774,0,0,0,.073-.227v-.058" transform="translate(-170.227 -221.981)"/><path class="co" d="M249.761,328.14s0,0,0,0h0v0" transform="translate(-172.633 -221.943)"/><path class="cd" d="M164.2,332.36l-.1.017v.148h.1v-.165" transform="translate(-91.498 -225.941)"/><path class="cp" d="M165.955,332.31l-.015,0v.165h.015v-.167" transform="translate(-93.24 -225.893)"/><path class="cq" d="M166.455,331.52l-.235.042v.167h.235v-.209" transform="translate(-93.506 -225.145)"/><path class="cq" d="M174.838,328.18H171.65l-.99.176v.21h3.773a.591.591,0,0,0,.271-.065.781.781,0,0,0,.134-.321" transform="translate(-97.711 -221.981)"/><path class="cr" d="M192.608,311.55c-.132.29-.9.527-1.207.527l-1.98.352h3.188s0,0,0,0v-.876" transform="translate(-115.48 -206.23)"/><path class="cs" d="M163.128,155.72H158.91v.369h0v-.2h.735a.3.3,0,0,1,.184-.064h3.635a.6.6,0,0,0-.336-.1" transform="translate(-86.582 -58.631)"/><path class="ct" d="M173.014,157.66a.3.3,0,0,0-.184.064h3.488a.6.6,0,0,1,.363.123h.146a.609.609,0,0,0-.177-.186h-3.635" transform="translate(-99.767 -60.468)"/><path class="cu" d="M245.876,161.18h-.146a.6.6,0,0,1,.188.244h.042a.6.6,0,0,0-.083-.244" transform="translate(-168.816 -63.802)"/><path class="cv" d="M249.322,165.8h-.042a.589.589,0,0,1,.045.205v-.156a.385.385,0,0,0,0-.049" transform="translate(-172.178 -68.178)"/><path class="cw" d="M157.849,301.63H157.8v1.055h0v-.909h.049v-.146" transform="translate(-85.53 -196.834)"/><path class="cx" d="M158.74,250.1h0v2.722h-.01v.146h.01V250.1" transform="translate(-86.411 -148.026)"/><path class="cy" d="M157.8,324.48v.146a.291.291,0,0,0,.049.163v-.146a.291.291,0,0,1-.049-.163" transform="translate(-85.53 -218.477)"/><path class="cc" d="M158.74,328.18h-.01v.114l.01.014v-.127" transform="translate(-86.411 -221.981)"/><path class="cz" d="M158.73,327.56v.033h.01v-.019l-.01-.014" transform="translate(-86.411 -221.394)"/><path class="cd" d="M158.935,328.18h-.015v.127a.291.291,0,0,0,.073.069v-.146a.285.285,0,0,1-.058-.05" transform="translate(-86.591 -221.981)"/><path class="co" d="M158.92,327.83v.019h.015l-.015-.019" transform="translate(-86.591 -221.65)"/><path class="cp" d="M160.3,329.12v.146a.294.294,0,0,0,.161.048h0l.035-.006v-.146l-.035.006h0a.29.29,0,0,1-.161-.048" transform="translate(-87.898 -222.872)"/><path class="da" d="M249.97,250.1h0v3.015a.19.19,0,0,1-.01.059v.146a.19.19,0,0,0,.01-.059V250.1" transform="translate(-172.822 -148.026)"/><path class="db" d="M249.78,308.29a.167.167,0,0,1-.01.025v.146a.242.242,0,0,0,.01-.025v-.146" transform="translate(-172.643 -203.142)"/><path class="cq" d="M164.2,329.59l-.1.017v.146l.1-.017v-.146" transform="translate(-91.498 -223.317)"/><path class="cq" d="M165.955,329.54l-.015,0v.146l.015,0v-.146" transform="translate(-93.24 -223.27)"/><path class="dc" d="M166.455,328.75l-.235.042v.146l.235-.042v-.146" transform="translate(-93.506 -222.521)"/><path class="dd" d="M171.66,328.18h-.823l-.167.03v.146l.99-.176" transform="translate(-97.721 -221.981)"/><path class="de" d="M177.851,308.78c-.132.29-.9.527-1.207.527l-2.8.5h.823l1.98-.352c.3,0,1.075-.237,1.207-.527v-.146" transform="translate(-100.723 -203.606)"/><path class="w" d="M159.635,158.87H158.9v.2a.3.3,0,0,1,.2-.076h.426l.015,0a.3.3,0,0,1,.093-.125" transform="translate(-86.572 -61.614)"/><path class="df" d="M174.641,158.85h-3.488a.3.3,0,0,0-.093.125l.038,0H175a.6.6,0,0,0-.363-.123" transform="translate(-98.09 -61.595)"/><path class="dg" d="M170.785,161.23l-.015,0h.014v0" transform="translate(-97.815 -63.85)"/><path class="dh" d="M171.079,161.18l-.037,0v0h2.6a1.863,1.863,0,0,1,.841.205.176.176,0,0,0,.046.034h.642a.6.6,0,0,0-.187-.244h-3.907" transform="translate(-98.071 -63.802)"/><path class="di" d="M237.782,165.8h-.642l.032.017a.779.779,0,0,1,.336.146,2.2,2.2,0,0,1,.209.106h.062l.049,0v-.066a.614.614,0,0,0-.045-.206" transform="translate(-160.68 -68.178)"/><path class="dj" d="M237.74,166.12c.08.04.206.088.336.146a.78.78,0,0,0-.336-.146" transform="translate(-161.248 -68.481)"/><path class="dk" d="M248.1,170.9h-.062c.032.018.062.038.091.059h.02V170.9l-.049,0" transform="translate(-171.004 -73.009)"/><path class="dl" d="M249.78,172h-.02l.02.015V172" transform="translate(-172.633 -74.051)"/><path class="dm" d="M159.537,161.27h-.426a.3.3,0,0,0-.2.076v.169h.389a.294.294,0,0,1,.238-.245" transform="translate(-86.582 -63.888)"/><path class="dn" d="M166.522,161.27h-.014a.3.3,0,0,0-.238.245h.224l.007,0v-.141a.327.327,0,0,1,.021-.1" transform="translate(-93.553 -63.888)"/><path class="do" d="M173.294,161.27h-2.6a.312.312,0,0,0-.02.1v.141a.3.3,0,0,1,.049,0h3.462a.175.175,0,0,1-.046-.034,1.857,1.857,0,0,0-.84-.206" transform="translate(-97.721 -63.888)"/><path class="dp" d="M170.537,165.88l-.007,0h.007v0" transform="translate(-97.588 -68.254)"/><path class="dq" d="M174.548,165.954a.81.81,0,0,1,.115.106h.094a2.216,2.216,0,0,0-.209-.106m-3.829-.163a.373.373,0,0,0-.049,0v0h3.407a.817.817,0,0,1,.136.012l-.032-.017h-3.462" transform="translate(-97.721 -68.169)"/><path class="dr" d="M157.8,321.61v.152a.291.291,0,0,0,.049.163v-.152a.291.291,0,0,1-.049-.163" transform="translate(-85.53 -215.758)"/><path class="ds" d="M157.849,304.4H157.8v.909a.291.291,0,0,0,.049.163V304.4" transform="translate(-85.53 -199.457)"/><path class="dt" d="M159.3,165.9h-.389v.176h.386v-.137a.24.24,0,0,1,0-.039" transform="translate(-86.582 -68.273)"/><path class="du" d="M166.457,165.9h-.224a.24.24,0,0,0,0,.039v.137h.009a.3.3,0,0,1,.218-.176" transform="translate(-93.515 -68.273)"/><path class="dv" d="M166.616,165.9h-.007a.3.3,0,0,0-.219.176h.226V165.9" transform="translate(-93.667 -68.273)"/><path class="dw" d="M174.067,165.89H170.66v.176h3.4a.777.777,0,0,1,.361.088h.235a.782.782,0,0,0-.115-.106c-.129-.059-.256-.107-.336-.146a.806.806,0,0,0-.135-.012" transform="translate(-97.711 -68.264)"/><path class="dx" d="M159.3,169.23h-.386v.146h0v-.059a.286.286,0,0,1,.056-.005.283.283,0,0,1,.056.005h.26a.321.321,0,0,1,.013-.064v-.024" transform="translate(-86.582 -71.427)"/><path class="dy" d="M158.911,172h0v.044h0V172" transform="translate(-86.582 -74.051)"/><path class="dz" d="M166.229,169.23h-.009v.024l.009-.024" transform="translate(-93.506 -71.427)"/><path class="dz" d="M165.983,169.69a.288.288,0,0,0-.013.064h.013v-.064" transform="translate(-93.269 -71.863)"/><path class="ea" d="M166.455,169.23h-.226c0,.008-.006.016-.009.024v.064h.235v-.088" transform="translate(-93.506 -71.427)"/><path class="eb" d="M174.066,169.22h-3.4v.088h3.758a.784.784,0,0,0-.361-.088" transform="translate(-97.721 -71.418)"/><path class="ec" d="M158.911,172.83h0v.205h0v-.205" transform="translate(-86.582 -74.837)"/><path class="ed" d="M158.911,176.72h0v.259h0v-.259" transform="translate(-86.582 -78.521)"/><path class="ee" d="M158.73,324.69v.152l.01.014V324.7l-.01-.014" transform="translate(-86.411 -218.676)"/><path class="ef" d="M158.911,181.63h0v.283h0v-.283" transform="translate(-86.582 -83.172)"/><path class="eg" d="M158.911,250.09h0" transform="translate(-86.582 -148.016)"/><path class="ee" d="M158.74,250.1h0v2.868h-.01v1.072l.01.014V250.1" transform="translate(-86.411 -148.026)"/><path class="eh" d="M158.911,186.99h0v3.333h0V186.99" transform="translate(-86.582 -88.249)"/><path class="ei" d="M169.665,170.9h0" transform="translate(-96.764 -73.009)"/><path class="ej" d="M246.354,170.9h-.094a.747.747,0,0,1,.047.059h.138c-.029-.021-.059-.04-.091-.059" transform="translate(-169.318 -73.009)"/><path class="ek" d="M247.288,172h-.138a.774.774,0,0,1,.073.123.623.623,0,0,1,.085.111v-.219l-.02-.015" transform="translate(-170.161 -74.051)"/><path class="el" d="M242.045,170.9h-.235l.011.006a.588.588,0,0,1,.174.053h.1a.74.74,0,0,0-.047-.059" transform="translate(-165.103 -73.009)"/><path class="em" d="M245.407,172h-.1a.6.6,0,0,1,.17.123.8.8,0,0,0-.073-.123" transform="translate(-168.418 -74.051)"/><path class="en" d="M240.588,170.9h-.068a.56.56,0,0,1,.079.006l-.011-.006" transform="translate(-163.881 -73.009)"/><path class="ea" d="M158.976,170.79a.282.282,0,0,0-.056.005v.059h.371v-.034a.183.183,0,0,1,0-.024h-.26a.294.294,0,0,0-.057-.006" transform="translate(-86.591 -72.905)"/><path class="ec" d="M159.291,172h-.371v.044h.347a.252.252,0,0,1,.024-.024V172" transform="translate(-86.591 -74.051)"/><path class="ei" d="M165.955,170.9h-.013l0,.024v.034h.015V170.9" transform="translate(-93.24 -73.009)"/><path class="eo" d="M165.955,172h-.015v.02l.015-.013V172" transform="translate(-93.24 -74.051)"/><path class="as" d="M166.4,170.9h-.182v.058h.009a.3.3,0,0,1,.173-.058" transform="translate(-93.506 -73.009)"/><path class="ed" d="M166.229,172h-.009v.007l.009-.007" transform="translate(-93.506 -74.051)"/><path class="ed" d="M159.267,172.83h-.347v.205h.274v-.015a.3.3,0,0,1,.073-.191" transform="translate(-86.591 -74.837)"/><path class="ep" d="M159.194,176.72h-.274v.259h.119a.306.306,0,0,1,.154-.124v-.135" transform="translate(-86.591 -78.521)"/><path class="cp" d="M159.268,328.18h-.058a.285.285,0,0,0,.058.05v-.05" transform="translate(-86.866 -221.981)"/><path class="eq" d="M158.92,324.96v.152l.015.019h.058v-.1a.311.311,0,0,1-.073-.069" transform="translate(-86.591 -218.931)"/><path class="er" d="M159.039,181.63h-.119v.283h.073v-.132a.3.3,0,0,1,.046-.152" transform="translate(-86.591 -83.172)"/><path class="es" d="M158.993,250.09h0" transform="translate(-86.591 -148.016)"/><path class="eq" d="M158.993,250.1h-.073v3.954a.292.292,0,0,0,.073.069V250.1" transform="translate(-86.591 -148.026)"/><path class="et" d="M158.993,186.99h-.073v3.333h.073V186.99" transform="translate(-86.591 -88.249)"/><path class="as" d="M174.355,170.9h0" transform="translate(-97.721 -73.009)"/><path class="eu" d="M248.53,174.33a.777.777,0,0,1,.074.293l.01,0v-.187a.554.554,0,0,0-.085-.111" transform="translate(-171.468 -76.258)"/><path class="ev" d="M242.02,171.01a.773.773,0,0,1,.084.053h.09a.573.573,0,0,0-.174-.053" transform="translate(-165.302 -73.113)"/><path class="ew" d="M243.7,172h-.09a.787.787,0,0,1,.289.4.482.482,0,0,1,.045.018.778.778,0,0,0-.074-.293A.617.617,0,0,0,243.7,172" transform="translate(-166.808 -74.051)"/><path class="eo" d="M165.514,172.37l-.024.024h.024v-.024" transform="translate(-92.814 -74.401)"/><path class="ed" d="M165.955,172.13l-.015.013v.024h.015v-.037" transform="translate(-93.24 -74.174)"/><path class="ex" d="M166.616,170.9h-.053a.3.3,0,0,0-.173.059h.226V170.9" transform="translate(-93.667 -73.009)"/><path class="ey" d="M166.455,172h-.226l-.009.007v.037h.235V172" transform="translate(-93.506 -74.051)"/><path class="ex" d="M174.359,170.9H170.67v.058h3.853a.862.862,0,0,0-.084-.053.653.653,0,0,0-.079-.005" transform="translate(-97.721 -73.009)"/><path class="ey" d="M174.523,172H170.67v.044h3.4a.78.78,0,0,1,.632.329.611.611,0,0,1,.108.026.786.786,0,0,0-.289-.4" transform="translate(-97.721 -74.051)"/><path class="ey" d="M164.2,172.83h-.024a.3.3,0,0,0-.073.191v.015h.1v-.205" transform="translate(-91.498 -74.837)"/><path class="ez" d="M164.2,176.72h-.1v.135a.3.3,0,0,1,.1-.017v-.118" transform="translate(-91.498 -78.521)"/><path class="ef" d="M165.955,172.83h-.015v.205h.015v-.205" transform="translate(-93.24 -74.837)"/><path class="er" d="M165.955,176.72h-.015v.118h.015v-.118" transform="translate(-93.24 -78.521)"/><path class="ez" d="M166.455,172.83h-.235v.205h.235v-.205" transform="translate(-93.506 -74.837)"/><path class="er" d="M174.071,172.83h-3.4v.205h3.4a.78.78,0,0,1,.413.118h.139a.636.636,0,0,1,.085.006.78.78,0,0,0-.632-.329" transform="translate(-97.721 -74.837)"/><path class="et" d="M166.455,176.72h-.235v.118h.235v-.118" transform="translate(-93.506 -78.521)"/><path class="et" d="M174.067,176.72h-3.4v.118h3.809a.775.775,0,0,0-.413-.118" transform="translate(-97.721 -78.521)"/><path class="ez" d="M161.334,179.28a.306.306,0,0,0-.154.124h.154v-.124" transform="translate(-88.732 -80.946)"/><path class="cq" d="M160.5,328.18h-.2v.05a.294.294,0,0,0,.161.048h0l.035-.006v-.091" transform="translate(-87.898 -221.981)"/><path class="fa" d="M160.3,326.25v.1h.2v-.06l-.035.006h0a.29.29,0,0,1-.161-.048" transform="translate(-87.898 -220.153)"/><path class="et" d="M160.5,181.63h-.154a.3.3,0,0,0-.046.152v.132h.2v-.283" transform="translate(-87.898 -83.172)"/><path class="fb" d="M160.5,250.09h0" transform="translate(-87.898 -148.016)"/><path class="fa" d="M160.5,250.1h-.2v4.023a.289.289,0,0,0,.161.048h0l.035-.006V250.1" transform="translate(-87.898 -148.026)"/><path class="fc" d="M160.5,186.99h-.2v3.333h.2V186.99" transform="translate(-87.898 -88.249)"/><path class="fd" d="M249.97,250.1h0v2.864a.19.19,0,0,1-.01.059v.152a.19.19,0,0,0,.01-.059V250.1" transform="translate(-172.822 -148.026)"/><path class="fe" d="M249.97,250.09h0" transform="translate(-172.822 -148.016)"/><path class="ff" d="M249.97,250.1h-.01v2.923a.19.19,0,0,0,.01-.059V250.1" transform="translate(-172.822 -148.026)"/><path class="fg" d="M249.94,179.88c0,.006,0,.013,0,.019v3.689h.009v-3.7l-.011,0" transform="translate(-172.804 -81.515)"/><path class="fh" d="M249.78,305.43a.167.167,0,0,1-.01.025v.152a.248.248,0,0,0,.01-.025v-.152" transform="translate(-172.643 -200.433)"/><path class="fi" d="M249.78,250.09h0" transform="translate(-172.643 -148.016)"/><path class="fh" d="M249.78,250.1h-.01v2.948a.243.243,0,0,0,.01-.025V250.1" transform="translate(-172.643 -148.026)"/><path class="ar" d="M249.08,179.55a.788.788,0,0,1,.036.227v3.5h.01v-3.689c0-.006,0-.013,0-.019a.341.341,0,0,0-.045-.019" transform="translate(-171.989 -81.202)"/><path class="fj" d="M247.03,179.05a.779.779,0,0,1,.145.449v-.2a.785.785,0,0,0-.036-.227.6.6,0,0,0-.108-.026" transform="translate(-170.047 -80.728)"/><path class="ey" d="M249.77,187.55v0" transform="translate(-172.643 -88.779)"/><path class="er" d="M164.2,178.95a.313.313,0,0,0-.1.017v.124h.1v-.142" transform="translate(-91.498 -80.634)"/><path class="et" d="M165.955,178.95h-.015v.142h.015v-.142" transform="translate(-93.24 -80.634)"/><path class="er" d="M242.929,178.94h-.139a.782.782,0,0,1,.369.64v.259h0V179.4a.779.779,0,0,0-.145-.449.563.563,0,0,0-.085-.006" transform="translate(-166.031 -80.624)"/><path class="fc" d="M166.455,178.95h-.235v.142h.235v-.142" transform="translate(-93.506 -80.634)"/><path class="fk" d="M174.479,178.95H170.67v.142h3.4a.782.782,0,0,1,.781.757v-.259a.782.782,0,0,0-.369-.64" transform="translate(-97.721 -80.634)"/><path class="cq" d="M164.2,328.18h-.1v.091l.1-.017v-.074" transform="translate(-91.498 -221.981)"/><path class="cr" d="M164.2,326.72l-.1.017v.06h.1v-.077" transform="translate(-91.498 -220.598)"/><path class="dc" d="M165.955,328.18h-.015v.074l.015,0v-.072" transform="translate(-93.24 -221.981)"/><path class="fl" d="M165.955,326.67l-.015,0v.077h.015v-.08" transform="translate(-93.24 -220.551)"/><path class="dd" d="M166.455,328.18h-.235v.072l.235-.042v-.03" transform="translate(-93.506 -221.981)"/><path class="de" d="M166.455,325.87l-.235.042v.08h.235v-.122" transform="translate(-93.506 -219.793)"/><path class="dd" d="M170.837,328.18h-.167v.03l.167-.03" transform="translate(-97.721 -221.981)"/><path class="de" d="M174.848,305.91c-.132.29-.9.522-1.207.522l-2.971.532v.122h.167l2.8-.5c.3,0,1.075-.237,1.207-.527v-.151" transform="translate(-97.721 -200.888)"/><path class="fc" d="M164.2,181.63h-.1v.283h.1v-.283" transform="translate(-91.498 -83.172)"/><path class="fm" d="M164.2,250.09h0" transform="translate(-91.498 -148.016)"/><path class="cr" d="M164.2,250.1h-.1v4.064l.1-.017V250.1" transform="translate(-91.498 -148.026)"/><path class="fk" d="M164.2,186.99h-.1v3.333h.1V186.99" transform="translate(-91.498 -88.249)"/><path class="fk" d="M165.955,181.63h-.015v.283h.015v-.283" transform="translate(-93.24 -83.172)"/><path class="fn" d="M165.955,250.09h0" transform="translate(-93.24 -148.016)"/><path class="fl" d="M165.955,250.1h-.015v4.047l.015,0V250.1" transform="translate(-93.24 -148.026)"/><path class="fo" d="M165.955,186.99h-.015v3.333h.015V186.99" transform="translate(-93.24 -88.249)"/><path class="fo" d="M166.455,181.63h-.235v.283h.235v-.283" transform="translate(-93.506 -83.172)"/><path class="fp" d="M174.067,181.62h-3.4v.283h3.4a.782.782,0,0,1,.781.738v-.265a.782.782,0,0,0-.781-.756" transform="translate(-97.721 -83.163)"/><path class="fq" d="M166.455,250.09h0" transform="translate(-93.506 -148.016)"/><path class="de" d="M166.455,250.1h-.235v4.044l.235-.042v-4" transform="translate(-93.506 -148.026)"/><path class="fp" d="M166.455,186.99h-.235v3.333h.235V186.99" transform="translate(-93.506 -88.249)"/><path class="fq" d="M174.848,250.09h0" transform="translate(-97.721 -148.016)"/><path class="de" d="M174.848,250.1H170.67v4l2.971-.532c.3,0,1.075-.232,1.207-.522V250.1" transform="translate(-97.721 -148.026)"/><path class="fr" d="M174.067,186.98h-3.4v3.333h4.178v-2.595a.783.783,0,0,0-.781-.739" transform="translate(-97.721 -88.24)"/><path class="d" d="M68.3,160.81h8.025a.8.8,0,0,1,.8.787v7.853a.8.8,0,0,1-.8.792H68.3a.847.847,0,0,1-.567-.235.774.774,0,0,1-.235-.557v-7.859A.8.8,0,0,1,68.3,160.81Z" transform="translate(0 -63.452)"/><path class="a" d="M98.532,200.2h-1.08l-1.266-4.066L94.862,200.2H93.776L92.57,194.31h1.085l.841,4.124,1.266-4.007h.9l1.206,4.007.841-4.124h1.026Z" transform="translate(-23.746 -95.182)"/></g></g></svg>