<svg xmlns="http://www.w3.org/2000/svg" width="15.958" height="15.958" viewBox="0 0 15.958 15.958"><defs><style>.a{fill:#464646;}</style></defs><g transform="translate(0 0)"><path class="a" d="M10.316,23.958A2.319,2.319,0,0,1,8,21.641V11.6a2.319,2.319,0,0,1,2.316-2.316h1.062v-.9a.386.386,0,0,1,.772,0v.9h3.41v-.9a.386.386,0,0,1,.772,0v.9h3.442v-.9a.386.386,0,0,1,.772,0v.9h1.094A2.319,2.319,0,0,1,23.958,11.6V21.738a.394.394,0,0,1-.005.058v.019a2.325,2.325,0,0,1-2.309,2.143Zm0-13.9A1.546,1.546,0,0,0,8.772,11.6V21.641a1.546,1.546,0,0,0,1.544,1.544H21.641a1.546,1.546,0,0,0,1.544-1.544V11.6a1.546,1.546,0,0,0-1.544-1.544H20.547v.9a.386.386,0,0,1-.772,0v-.9H16.333v.9a.386.386,0,0,1-.772,0v-.9H12.15v.9a.386.386,0,0,1-.772,0v-.9Z" transform="translate(-8 -8)"/><g transform="translate(2.845 5.096)"><circle class="a" cx="0.798" cy="0.798" r="0.798" transform="translate(0 6.486)"/><circle class="a" cx="0.798" cy="0.798" r="0.798" transform="translate(0 3.243)"/><circle class="a" cx="0.798" cy="0.798" r="0.798"/></g><g transform="translate(5.904 5.096)"><circle class="a" cx="0.798" cy="0.798" r="0.798" transform="translate(0 6.486)"/><circle class="a" cx="0.798" cy="0.798" r="0.798" transform="translate(0 3.243)"/><circle class="a" cx="0.798" cy="0.798" r="0.798" transform="translate(0)"/></g><g transform="translate(8.963 5.096)"><circle class="a" cx="0.798" cy="0.798" r="0.798" transform="translate(0 6.486)"/><circle class="a" cx="0.798" cy="0.798" r="0.798" transform="translate(0 3.243)"/><circle class="a" cx="0.798" cy="0.798" r="0.798" transform="translate(0)"/></g><g transform="translate(12.022 5.096)"><circle class="a" cx="0.798" cy="0.798" r="0.798" transform="translate(0 6.486)"/><circle class="a" cx="0.798" cy="0.798" r="0.798" transform="translate(0 3.243)"/><circle class="a" cx="0.798" cy="0.798" r="0.798" transform="translate(0)"/></g></g></svg>