<svg xmlns="http://www.w3.org/2000/svg" width="31.3" height="30.291" viewBox="0 0 31.3 30.291"><defs><style>.a{fill:#fff;}.b{fill:#2c2f33;}.c{fill:#f95454;}</style></defs><g transform="translate(0 -15.386)"><path class="a" d="M250.781,49.559l3.753,3.766h-2.117a1.626,1.626,0,0,1-1.636-1.636Z" transform="translate(-233.529 -31.823)"/><path class="a" d="M38.513,62.036H22.072a2.081,2.081,0,0,1-2.089-2.055V37.423a2.082,2.082,0,0,1,2.089-2.055H34.485v3.107a3,3,0,0,0,3.011,3.01H40.6v18.5A2.081,2.081,0,0,1,38.513,62.036Z" transform="translate(-18.608 -18.608)"/><path class="b" d="M17.032,15.585a.681.681,0,0,0-.488-.2H3.464A3.46,3.46,0,0,0,0,18.816V41.373A3.455,3.455,0,0,0,3.464,44.8H19.912a3.46,3.46,0,0,0,3.464-3.43V22.2a.678.678,0,0,0-.213-.481Zm.22,2.151L21,21.5H18.888a1.626,1.626,0,0,1-1.636-1.636ZM19.9,43.428H3.464a2.081,2.081,0,0,1-2.089-2.055V18.816A2.082,2.082,0,0,1,3.464,16.76H15.877v3.107a3,3,0,0,0,3.011,3.01h3.107v18.5A2.081,2.081,0,0,1,19.9,43.428Z" transform="translate(0)"/><path class="b" d="M126.756,346.1h-10.97a.687.687,0,1,0,0,1.375h10.963a.687.687,0,1,0,.007-1.375Z" transform="translate(-107.181 -307.962)"/><path class="b" d="M47.882,346.1H45.847a.687.687,0,1,0,0,1.375h2.028a.687.687,0,1,0,.007-1.375Z" transform="translate(-42.053 -307.962)"/><path class="b" d="M126.756,296.141h-10.97a.687.687,0,0,0,0,1.375h10.963a.687.687,0,0,0,.007-1.375Z" transform="translate(-107.181 -261.442)"/><path class="b" d="M47.882,296.141H45.847a.687.687,0,0,0,0,1.375h2.028a.687.687,0,1,0,.007-1.375Z" transform="translate(-42.053 -261.442)"/><path class="b" d="M126.756,246.185h-10.97a.687.687,0,1,0,0,1.375h10.963a.687.687,0,1,0,.007-1.375Z" transform="translate(-107.181 -214.922)"/><path class="b" d="M47.882,246.185H45.847a.687.687,0,1,0,0,1.375h2.028a.687.687,0,1,0,.007-1.375Z" transform="translate(-42.053 -214.922)"/><path class="b" d="M126.756,196.228h-10.97a.687.687,0,0,0,0,1.375h10.963a.687.687,0,0,0,.007-1.375Z" transform="translate(-107.181 -168.402)"/><path class="b" d="M47.882,196.228H45.847a.687.687,0,0,0,0,1.375h2.028a.687.687,0,1,0,.007-1.375Z" transform="translate(-42.053 -168.402)"/><path class="b" d="M126.756,146.272h-10.97a.687.687,0,1,0,0,1.375h10.963a.687.687,0,1,0,.007-1.375Z" transform="translate(-107.181 -121.882)"/><path class="b" d="M47.882,146.272H45.847a.687.687,0,1,0,0,1.375h2.028a.687.687,0,1,0,.007-1.375Z" transform="translate(-42.053 -121.882)"/><path class="c" d="M210.333,216.853q-.113.015-.227.026a8.454,8.454,0,1,1,.227-.026Z" transform="translate(-186.981 -171.93)"/><path class="b" d="M199.81,208.25a9.157,9.157,0,1,1,6.825-3.049,9.142,9.142,0,0,1-6.825,3.049Zm.006-16.958a7.8,7.8,0,1,0,.012,0Z" transform="translate(-177.67 -162.573)"/><path class="a" d="M920.872,220.22l-1.927,1.927L917.6,220.8l1.927-1.927-1.927-1.927,1.349-1.349,1.927,1.927L922.8,215.6l1.349,1.349-1.927,1.927,1.927,1.927-1.349,1.349Z" transform="translate(-898.468 -182.082)"/></g></svg>