<svg xmlns="http://www.w3.org/2000/svg" xmlns:xlink="http://www.w3.org/1999/xlink" width="45.86" height="44" viewBox="0 0 45.86 44"><defs><style>.a{fill:#ebedff;}.b{fill:url(#a);}.c{fill:#4250db;}.d{fill:#9aa3fe;}.e{fill:#97a1ff;}.f{fill:#c9e0fb;}.g{fill:#fff;}.h{fill:#606efd;}.i{fill:#8c818f;}.j{filter:url(#d);}.k{filter:url(#b);}</style><linearGradient id="a" x1="0.084" y1="0.183" x2="0.881" y2="0.864" gradientUnits="objectBoundingBox"><stop offset="0" stop-color="#a5aeff"/><stop offset="1" stop-color="#5564fc"/></linearGradient><filter id="b" x="0" y="5.704" width="45.86" height="36.916" filterUnits="userSpaceOnUse"><feOffset dy="2" input="SourceAlpha"/><feGaussianBlur stdDeviation="2" result="c"/><feFlood flood-color="#9ba5fe"/><feComposite operator="in" in2="c"/><feComposite in="SourceGraphic"/></filter><filter id="d" x="13.231" y="16.607" width="19.463" height="17.877" filterUnits="userSpaceOnUse"><feOffset dy="1" input="SourceAlpha"/><feGaussianBlur stdDeviation="0.5" result="e"/><feFlood flood-opacity="0.161"/><feComposite operator="in" in2="e"/><feComposite in="SourceGraphic"/></filter></defs><g transform="translate(1.148)"><rect class="a" width="44" height="44" rx="6"/><g transform="translate(4.852 9.704)"><g transform="translate(0 0)"><g class="k" transform="matrix(1, 0, 0, 1, -6, -9.7)"><path class="b" d="M12.458,0H21.4a12.458,12.458,0,0,1,0,24.916H12.458A12.458,12.458,0,1,1,12.458,0Z" transform="translate(6 9.7)"/></g></g><g transform="translate(8.731 1.18)"><g transform="translate(0 6.222)"><g transform="translate(0)"><g class="j" transform="matrix(1, 0, 0, 1, -14.73, -17.11)"><path class="c" d="M63.929,149.164H62.49l-6.08-.827-6.271.827H48.456a.5.5,0,0,1-.5-.5v-8.9a5.479,5.479,0,0,1,5.479-5.479h5.506a5.479,5.479,0,0,1,5.479,5.479v8.9A.5.5,0,0,1,63.929,149.164Z" transform="translate(-33.23 -117.18)"/></g></g></g><g transform="translate(2.938 13.698)"><g transform="translate(0)"><path class="d" d="M129.328,322.447h-3.684l-.682-.827-1.7.827h-3.906a.348.348,0,0,1-.348-.348v-3.3a3.754,3.754,0,0,1,3.754-3.754h3.157a3.756,3.756,0,0,1,1.051.149c.4.116.355.709.686.941.256.179.9-.024,1.106.212a3.74,3.74,0,0,1,.912,2.452v3.3A.348.348,0,0,1,129.328,322.447Z" transform="translate(-119.011 -315.046)"/></g></g><g transform="translate(7.192 13.847)"><path class="e" d="M221.87,325.9h2.38l3.121-6.1a3.728,3.728,0,0,0-1.792-1.153Z" transform="translate(-221.87 -318.649)"/></g><g transform="translate(6.951 10.31)"><path class="f" d="M217.459,238.125H217.4a1.356,1.356,0,0,1-1.356-1.356v-3.636h2.776v3.636A1.356,1.356,0,0,1,217.459,238.125Z" transform="translate(-216.039 -233.132)"/></g><g transform="translate(2.163 6.062)"><g transform="translate(0)"><ellipse class="g" cx="1.472" cy="1.493" rx="1.472" ry="1.493"/></g></g><g transform="translate(11.571 6.062)"><g transform="translate(0)"><ellipse class="g" cx="1.472" cy="1.493" rx="1.472" ry="1.493"/></g></g><g transform="translate(3.635 0.668)"><path class="g" d="M140.563,12.014a4.7,4.7,0,0,1-4.7-4.7V4.649A4.649,4.649,0,0,1,140.508,0h.11a4.649,4.649,0,0,1,4.649,4.649V7.311A4.7,4.7,0,0,1,140.563,12.014Z" transform="translate(-135.859)"/></g><g transform="translate(3.635 0)"><g transform="translate(0 0)"><path class="h" d="M144.066,136.187v-.16a1.038,1.038,0,0,0-1.038-1.038H138.1a1.038,1.038,0,0,0-1.038,1.038v.16a.923.923,0,0,1-.923.923h-.278v-2.643a3.975,3.975,0,0,1,3.975-3.975h1.459a3.975,3.975,0,0,1,3.975,3.975v2.643h-.278A.923.923,0,0,1,144.066,136.187Z" transform="translate(-135.859 -130.492)"/></g></g><g transform="translate(2.177 15.362)"><path class="h" d="M100.969,359.311a6.162,6.162,0,0,0-.375,1.717h1.727a4.472,4.472,0,0,1,8.9,0h1.727a6.194,6.194,0,0,0-9.594-4.709" transform="translate(-100.594 -355.291)"/></g><g transform="translate(2.552 16.39)"><g transform="translate(0)"><path class="i" d="M112.056,380.153a6.212,6.212,0,0,0-2.382,2.991" transform="translate(-109.674 -380.153)"/></g></g><g transform="translate(2.259 16.254)"><g transform="translate(0)"><path class="g" d="M105.858,379.4l-.638.7a1.379,1.379,0,0,1-1.948.089l-.495-.451a.567.567,0,0,1-.037-.8l1.732-1.9a.567.567,0,0,1,.8-.037l.495.451A1.379,1.379,0,0,1,105.858,379.4Z" transform="translate(-102.593 -376.856)"/></g></g><g transform="translate(10.821 16.254)"><g transform="translate(0)"><path class="g" d="M309.967,379.4l.638.7a1.379,1.379,0,0,0,1.948.089l.495-.452a.567.567,0,0,0,.037-.8l-1.732-1.9a.567.567,0,0,0-.8-.037l-.495.452A1.379,1.379,0,0,0,309.967,379.4Z" transform="translate(-309.606 -376.857)"/></g></g></g></g></g></svg>