<svg xmlns="http://www.w3.org/2000/svg" width="32.493" height="19.315" viewBox="0 0 32.493 19.315"><defs><style>.a{fill:#fff;}.b{fill:#ffc03f;}</style></defs><g transform="translate(-3 -10)"><g transform="translate(2 -17)"><g transform="translate(1.537 27.537)"><path class="a" d="M4.146,46.242H2V31.219A3.219,3.219,0,0,1,5.219,28h7.511a3.219,3.219,0,0,1,3.219,3.219V46.242H13.8" transform="translate(-2 -28)"/></g><g transform="translate(5.292 29.788)"><ellipse class="a" cx="3.056" cy="3.114" rx="3.056" ry="3.114"/></g><g transform="translate(19.007 27.537)"><path class="a" d="M38.146,46.242H36V31.219A3.219,3.219,0,0,1,39.219,28h7.511a3.219,3.219,0,0,1,3.219,3.219V46.242H47.8" transform="translate(-36 -28)"/></g><g transform="translate(23.091 29.286)"><ellipse class="a" cx="3" cy="3.5" rx="3" ry="3.5" transform="translate(0.402 0)"/></g><g transform="translate(8.318 29.683)"><path class="a" d="M18.219,35.219H17.146A2.146,2.146,0,0,1,15,33.073V32A3.219,3.219,0,0,1,18.219,35.219Z" transform="translate(-15 -32)"/></g><g transform="translate(25.982 29.683)"><path class="a" d="M52.219,35.219H51.146A2.146,2.146,0,0,1,49,33.073V32A3.219,3.219,0,0,1,52.219,35.219Z" transform="translate(-49 -32)"/></g><g transform="translate(22.955 29.683)"><path class="a" d="M43,35.219h1.073a2.146,2.146,0,0,0,2.146-2.146V32A3.219,3.219,0,0,0,43,35.219Z" transform="translate(-43 -32)"/></g><g transform="translate(5.292 29.683)"><path class="a" d="M9,35.219h1.073a2.146,2.146,0,0,0,2.146-2.146V32A3.219,3.219,0,0,0,9,35.219Z" transform="translate(-9 -32)"/></g><g transform="translate(21.153 36.121)"><path class="b" d="M49.658,53.658H40V48.829A4.829,4.829,0,0,1,44.829,44h0a4.829,4.829,0,0,1,4.829,4.829Z" transform="translate(-40 -44)"/></g><g transform="translate(3.683 36.121)"><path class="b" d="M15.658,53.658H6V48.829A4.829,4.829,0,0,1,10.829,44h0a4.829,4.829,0,0,1,4.829,4.829Z" transform="translate(-6 -44)"/></g><g transform="translate(3.683 36.826)"><path class="a" d="M15.121,47.292,8.146,54.267H6v-1.61l7.342-7.342h0a4.85,4.85,0,0,1,1.806,1.964Z" transform="translate(-6 -45.314)"/></g><g transform="translate(21.153 36.826)"><path class="a" d="M49.121,47.292l-6.975,6.975H40v-1.61l7.342-7.342h0a4.85,4.85,0,0,1,1.806,1.964Z" transform="translate(-40 -45.314)"/></g><g transform="translate(4.756 29.146)"><path d="M11.756,38.511a3.756,3.756,0,1,1,3.756-3.756A3.76,3.76,0,0,1,11.756,38.511Zm0-6.438a2.683,2.683,0,1,0,2.683,2.683A2.686,2.686,0,0,0,11.756,32.073Z" transform="translate(-8 -31)"/></g><g transform="translate(3.146 35.585)"><path d="M15.194,53.731H5.537A.536.536,0,0,1,5,53.194V48.365a5.365,5.365,0,1,1,10.731,0v4.829A.536.536,0,0,1,15.194,53.731ZM6.073,52.658h8.585V48.365a4.292,4.292,0,0,0-8.585,0Z" transform="translate(-5 -43)"/></g><g transform="translate(5.449 38.424)"><rect width="9.864" height="1.073" transform="translate(0 6.975) rotate(-45)"/></g><g transform="translate(3.303 36.447)"><rect width="10.384" height="1.073" transform="translate(0 7.342) rotate(-45)"/></g><g transform="translate(5.292 29.683)"><path d="M10.073,35.756H9V34.683h1.073a1.612,1.612,0,0,0,1.61-1.61V32h1.073v1.073A2.686,2.686,0,0,1,10.073,35.756Z" transform="translate(-9 -32)"/></g><g transform="translate(7.792 29.683)"><path d="M17.756,35.756H16.683A2.686,2.686,0,0,1,14,33.073V32h1.073v1.073a1.612,1.612,0,0,0,1.61,1.61h1.073Z" transform="translate(-14 -32)"/></g><g transform="translate(1 27)"><path d="M15.486,46.315H13.34V45.242h1.61V30.756a2.686,2.686,0,0,0-2.683-2.683H4.756a2.686,2.686,0,0,0-2.683,2.683V45.242h1.61v1.073H1.537A.536.536,0,0,1,1,45.779V30.756A3.76,3.76,0,0,1,4.756,27h7.511a3.76,3.76,0,0,1,3.756,3.756V45.779A.536.536,0,0,1,15.486,46.315Z" transform="translate(-1 -27)"/></g><g transform="translate(22.226 29.146)"><path d="M45.756,38.511a3.756,3.756,0,1,1,3.756-3.756A3.76,3.76,0,0,1,45.756,38.511Zm0-6.438a2.683,2.683,0,1,0,2.683,2.683A2.686,2.686,0,0,0,45.756,32.073Z" transform="translate(-42 -31)"/></g><g transform="translate(20.616 35.585)"><path d="M49.194,53.731H39.537A.536.536,0,0,1,39,53.194V48.365a5.365,5.365,0,1,1,10.731,0v4.829A.536.536,0,0,1,49.194,53.731Zm-9.121-1.073h8.585V48.365a4.292,4.292,0,0,0-8.585,0Z" transform="translate(-39 -43)"/></g><g transform="translate(22.919 38.424)"><rect width="9.864" height="1.073" transform="translate(0 6.975) rotate(-45)"/></g><g transform="translate(20.773 36.447)"><rect width="10.384" height="1.073" transform="translate(0 7.342) rotate(-45)"/></g><g transform="translate(22.945 29.683)"><path d="M44.073,35.756H43V34.683h1.073a1.612,1.612,0,0,0,1.61-1.61V32h1.073v1.073A2.686,2.686,0,0,1,44.073,35.756Z" transform="translate(-43 -32)"/></g><g transform="translate(25.445 29.683)"><path d="M51.756,35.756H50.683A2.686,2.686,0,0,1,48,33.073V32h1.073v1.073a1.612,1.612,0,0,0,1.61,1.61h1.073Z" transform="translate(-48 -32)"/></g><g transform="translate(18.47 27)"><path d="M49.486,46.315H47.34V45.242h1.61V30.756a2.686,2.686,0,0,0-2.683-2.683H38.756a2.686,2.686,0,0,0-2.683,2.683V45.242h1.61v1.073H35.537A.536.536,0,0,1,35,45.779V30.756A3.76,3.76,0,0,1,38.756,27h7.511a3.76,3.76,0,0,1,3.756,3.756V45.779A.536.536,0,0,1,49.486,46.315Z" transform="translate(-35 -27)"/></g></g></g></svg>