<svg xmlns="http://www.w3.org/2000/svg" width="23.787" height="19.905" viewBox="0 0 23.787 19.905">
  <g id="Group_9383" data-name="Group 9383" transform="translate(-56.56 -267.75)">
    <g id="Group_9380" data-name="Group 9380" transform="translate(1 2.334)">
      <g id="name_2_" data-name="name (2)" transform="translate(55.81 265.666)">
        <path id="Path_39290" data-name="Path 39290" d="M20.618,53.332H2.668A2.671,2.671,0,0,0,0,56V67.158a2.671,2.671,0,0,0,2.668,2.668h17.95a2.671,2.671,0,0,0,2.668-2.668V56A2.671,2.671,0,0,0,20.618,53.332Zm0,0" transform="translate(0 -50.906)" fill="#fff"/>
        <g id="Group_8968" data-name="Group 8968" transform="translate(2.911)">
          <path id="Path_39291" data-name="Path 39291" d="M176.732,0h-4.366a1.7,1.7,0,0,0-1.7,1.7V3.639a1.7,1.7,0,0,0,1.7,1.7h4.366a1.7,1.7,0,0,0,1.7-1.7V1.7A1.7,1.7,0,0,0,176.732,0Zm0,0" transform="translate(-165.816)" fill="#213643"/>
          <path id="Path_39292" data-name="Path 39292" d="M111.519,151.758a2.426,2.426,0,1,1-2.426-2.426A2.426,2.426,0,0,1,111.519,151.758Zm0,0" transform="translate(-104.727 -142.54)" fill="#ffc03f"/>
          <path id="Path_39293" data-name="Path 39293" d="M70.064,277.332h-3.4A2.671,2.671,0,0,0,64,280v.485a.728.728,0,0,0,.728.728H72a.728.728,0,0,0,.728-.728V280A2.671,2.671,0,0,0,70.064,277.332Zm0,0" transform="translate(-64 -264.719)" fill="#ffc03f"/>
          <path id="Path_41248" data-name="Path 41248" d="M70.064,277.332h-3.4A2.671,2.671,0,0,0,64,280v.485a.728.728,0,0,0,.728.728H72a.728.728,0,0,0,.728-.728V280A2.671,2.671,0,0,0,70.064,277.332Zm0,0" transform="translate(-64 -264.719)" fill="#ffc03f"/>
        </g>
        <path id="Path_39294" data-name="Path 39294" d="M20.618,60.133H2.668A2.671,2.671,0,0,1,0,57.464V45.336a2.67,2.67,0,0,1,2.668-2.668H8.49a.728.728,0,1,1,0,1.455H2.668a1.214,1.214,0,0,0-1.213,1.213V57.464a1.215,1.215,0,0,0,1.213,1.213h17.95a1.215,1.215,0,0,0,1.213-1.213V45.336a1.214,1.214,0,0,0-1.213-1.213H14.8a.728.728,0,1,1,0-1.455h5.822a2.67,2.67,0,0,1,2.668,2.668V57.464A2.671,2.671,0,0,1,20.618,60.133Zm0,0" transform="translate(0 -40.727)" stroke="#fff" stroke-width="0.5"/>
        <path id="Path_39295" data-name="Path 39295" d="M192,19.881h-4.366a.97.97,0,0,1-.97-.97V16.97a.971.971,0,0,1,.97-.97H192a.971.971,0,0,1,.97.97v1.941A.97.97,0,0,1,192,19.881Zm0,0" transform="translate(-178.178 -15.272)" fill="#ffc03f"/>
        <path id="Path_39296" data-name="Path 39296" d="M176.732,5.336h-4.366a1.7,1.7,0,0,1-1.7-1.7V1.7a1.7,1.7,0,0,1,1.7-1.7h4.366a1.7,1.7,0,0,1,1.7,1.7V3.639A1.7,1.7,0,0,1,176.732,5.336Zm-4.366-3.881a.243.243,0,0,0-.242.243V3.639a.242.242,0,0,0,.242.243h4.366a.242.242,0,0,0,.242-.243V1.7a.243.243,0,0,0-.242-.243Zm0,0" transform="translate(-162.906)" stroke="#fff" stroke-width="0.5"/>
        <path id="Path_39297" data-name="Path 39297" d="M109.094,154.183a2.426,2.426,0,1,1,2.426-2.426A2.429,2.429,0,0,1,109.094,154.183Zm0-3.4a.97.97,0,1,0,.97.97A.972.972,0,0,0,109.094,150.787Zm0,0" transform="translate(-101.817 -142.54)" stroke="#fff" stroke-width="0.4"/>
        <path id="Path_39298" data-name="Path 39298" d="M72,281.213a.728.728,0,0,1-.728-.728V280a1.215,1.215,0,0,0-1.213-1.213h-3.4A1.215,1.215,0,0,0,65.455,280v.485a.728.728,0,0,1-1.455,0V280a2.671,2.671,0,0,1,2.668-2.668h3.4A2.671,2.671,0,0,1,72.732,280v.485A.728.728,0,0,1,72,281.213Zm0,0" transform="translate(-61.089 -264.719)" stroke="#fff" stroke-width="0.4"/>
        <path id="Path_39299" data-name="Path 39299" d="M304.732,161.455H299.4a.728.728,0,1,1,0-1.455h5.336a.728.728,0,0,1,0,1.455Zm0,0" transform="translate(-285.084 -152.723)" stroke="#fff" stroke-width="0.4"/>
        <path id="Path_39300" data-name="Path 39300" d="M304.732,246.787H299.4a.728.728,0,1,1,0-1.455h5.336a.728.728,0,0,1,0,1.455Zm0,0" transform="translate(-285.084 -234.174)" stroke="#fff" stroke-width="0.4"/>
        <path id="Path_39301" data-name="Path 39301" d="M304.732,332.123H299.4a.728.728,0,1,1,0-1.455h5.336a.728.728,0,0,1,0,1.455Zm0,0" transform="translate(-285.084 -315.629)" stroke="#fff" stroke-width="0.4"/>
        <path id="Path_41249" data-name="Path 41249" d="M68.649,277.332h-2.6A1.988,1.988,0,0,0,64,279.253v.349a.542.542,0,0,0,.558.524h5.579a.542.542,0,0,0,.558-.524v-.349A1.988,1.988,0,0,0,68.649,277.332Zm0,0" transform="translate(-60.099 -263.632)" fill="#ffc03f"/>
        <path id="Path_41250" data-name="Path 41250" d="M109.579,150.788a1.455,1.455,0,1,1-1.455-1.456A1.455,1.455,0,0,1,109.579,150.788Zm0,0" transform="translate(-100.846 -141.57)" fill="#ffc03f"/>
      </g>
      <path id="Path_41251" data-name="Path 41251" d="M191.23,19.318H187.5a.83.83,0,0,1-.829-.829V16.829A.83.83,0,0,1,187.5,16h3.732a.83.83,0,0,1,.829.829v1.659A.83.83,0,0,1,191.23,19.318Zm0,0" transform="translate(-121.91 250.676)" fill="#ffc03f"/>
    </g>
  </g>
</svg>
