<svg xmlns="http://www.w3.org/2000/svg" width="16.623" height="16.623" viewBox="0 0 16.623 16.623"><defs><style>.a{fill:#ffc03f;}</style></defs><g transform="translate(-6 -6)"><g transform="translate(6 6)"><path class="a" d="M31.6,27.415a4.159,4.159,0,0,1-5.568,3.917,16.355,16.355,0,0,1-9.763-9.763A4.153,4.153,0,0,1,20.185,16v0L21,19.8l-.245.245-1.41,1.41a14.186,14.186,0,0,0,6.794,6.794L27.8,26.6Z" transform="translate(-15.496 -15.481)"/><g transform="translate(0 0)"><path d="M11.947,16.623a4.631,4.631,0,0,1-1.589-.284,16.943,16.943,0,0,1-6.152-3.922A16.942,16.942,0,0,1,.284,6.265,4.6,4.6,0,0,1,.05,4.005,4.715,4.715,0,0,1,2.473.554,4.629,4.629,0,0,1,4.689,0,.519.519,0,0,1,5.2.411l.815,3.8a.52.52,0,0,1-.141.476L4.479,6.085a13.673,13.673,0,0,0,6.06,6.06l1.393-1.393a.52.52,0,0,1,.476-.141l3.8.815a.519.519,0,0,1,.411.508,4.629,4.629,0,0,1-.554,2.216,4.715,4.715,0,0,1-3.451,2.423,4.621,4.621,0,0,1-.671.049ZM4.274,1.062A3.64,3.64,0,0,0,1.261,5.91a15.756,15.756,0,0,0,9.452,9.452,3.64,3.64,0,0,0,4.849-3.013l-3.1-.663-1.455,1.455a.519.519,0,0,1-.588.1A14.709,14.709,0,0,1,3.38,6.2a.519.519,0,0,1,.1-.588L4.937,4.157Z" transform="translate(0 0)"/></g><g transform="translate(7.793)"><path d="M248.331,8.831a.519.519,0,0,1-.519-.519,7.281,7.281,0,0,0-7.272-7.272.519.519,0,0,1,0-1.039,8.311,8.311,0,0,1,8.311,8.311A.519.519,0,0,1,248.331,8.831Z" transform="translate(-240.02)"/></g><g transform="translate(7.793 2.078)"><path d="M246.253,70.753a.519.519,0,0,1-.519-.519,5.2,5.2,0,0,0-5.194-5.194.519.519,0,0,1,0-1.039,6.24,6.24,0,0,1,6.233,6.233A.519.519,0,0,1,246.253,70.753Z" transform="translate(-240.02 -64)"/></g><g transform="translate(7.793 4.156)"><path d="M244.176,132.675a.519.519,0,0,1-.519-.519,3.12,3.12,0,0,0-3.117-3.117.519.519,0,0,1,0-1.039,4.16,4.16,0,0,1,4.156,4.156A.519.519,0,0,1,244.176,132.675Z" transform="translate(-240.02 -128)"/></g></g></g></svg>