<svg xmlns="http://www.w3.org/2000/svg" width="22" height="22" viewBox="0 0 22 22"><defs><style>.a{fill:#ffc03f;}.b{fill:#fff;}</style></defs><path class="a" d="M39.711,49.422a9.711,9.711,0,1,1,9.711-9.711,9.722,9.722,0,0,1-9.711,9.711Z" transform="translate(-28.711 -28.711)"/><path class="b" d="M38.25,46.5a8.25,8.25,0,1,1,8.25-8.25,8.259,8.259,0,0,1-8.25,8.25Z" transform="translate(-27.25 -27.25)"/><circle cx="0.645" cy="0.645" r="0.645" transform="translate(10.355 17.102)"/><circle cx="0.645" cy="0.645" r="0.645" transform="translate(10.355 3.608)"/><circle cx="0.645" cy="0.645" r="0.645" transform="translate(17.101 10.348)"/><circle cx="0.645" cy="0.645" r="0.645" transform="translate(3.611 10.358)"/><circle cx="0.645" cy="0.645" r="0.645" transform="translate(15.124 15.135)"/><circle cx="0.645" cy="0.645" r="0.645" transform="translate(5.585 5.585)"/><path d="M352.219,130.158a.645.645,0,1,0,.911,0A.645.645,0,0,0,352.219,130.158Z" transform="translate(-336.904 -124.385)"/><circle cx="0.644" cy="0.644" r="0.644" transform="translate(5.579 15.121)"/><path d="M18.778,3.222A11,11,0,0,0,3.222,18.778,11,11,0,0,0,18.778,3.222ZM11,20.711A9.711,9.711,0,1,1,20.711,11,9.722,9.722,0,0,1,11,20.711Z"/><path d="M203.578,172.689l-2.488,2.488-1.365-1.365a.645.645,0,0,0-.911.911l1.821,1.821a.644.644,0,0,0,.911,0l2.943-2.943a.645.645,0,0,0-.911-.911Z" transform="translate(-190.09 -165.088)"/></svg>