<svg xmlns="http://www.w3.org/2000/svg" width="24" height="18" viewBox="0 0 24 18"><defs><style>.a{fill:#1daeee;}</style></defs><path class="a" d="M21.25,3H2.75A2.752,2.752,0,0,0,0,5.75v12.5A2.752,2.752,0,0,0,2.75,21h18.5A2.752,2.752,0,0,0,24,18.25V5.75A2.752,2.752,0,0,0,21.25,3ZM7.5,7A2.5,2.5,0,1,1,5,9.5,2.5,2.5,0,0,1,7.5,7ZM12,16.25a.75.75,0,0,1-.75.75H3.75A.75.75,0,0,1,3,16.25v-.5A2.752,2.752,0,0,1,5.75,13h3.5A2.752,2.752,0,0,1,12,15.75Zm8.25.75h-5.5a.75.75,0,0,1,0-1.5h5.5a.75.75,0,0,1,0,1.5Zm0-4h-5.5a.75.75,0,0,1,0-1.5h5.5a.75.75,0,0,1,0,1.5Zm0-4h-5.5a.75.75,0,0,1,0-1.5h5.5a.75.75,0,0,1,0,1.5Z" transform="translate(0 -3)"/></svg>