<svg xmlns="http://www.w3.org/2000/svg" xmlns:xlink="http://www.w3.org/1999/xlink" width="38.363" height="34.79" viewBox="0 0 38.363 34.79"><defs><style>.a{fill:#fff;}.b{fill:url(#a);}.c{fill:url(#d);}.d{fill:#029d8f;}.e{filter:url(#b);}</style><linearGradient id="a" x1="0.084" y1="0.183" x2="0.881" y2="0.864" gradientUnits="objectBoundingBox"><stop offset="0" stop-color="#05b2a5"/><stop offset="1" stop-color="#01e4d3"/></linearGradient><filter id="b" x="0" y="3.391" width="38.363" height="31.399" filterUnits="userSpaceOnUse"><feOffset dy="2" input="SourceAlpha"/><feGaussianBlur stdDeviation="2" result="c"/><feFlood flood-color="#009a8e" flood-opacity="0.502"/><feComposite operator="in" in2="c"/><feComposite in="SourceGraphic"/></filter><linearGradient id="d" x1="0.5" x2="0.5" y2="1" gradientUnits="objectBoundingBox"><stop offset="0" stop-color="#feffff"/><stop offset="1" stop-color="#e9fbff"/></linearGradient></defs><g transform="translate(-162.696 -266)"><g transform="translate(-1 -14)"><g transform="translate(121 133)"><rect class="a" width="34" height="34" rx="6" transform="translate(45 147)"/><g transform="translate(48.696 154.391)"><g transform="translate(0 0)"><g class="e" transform="matrix(1, 0, 0, 1, -6, -7.39)"><path class="b" d="M9.7,0h6.964a9.7,9.7,0,1,1,0,19.4H9.7A9.7,9.7,0,1,1,9.7,0Z" transform="translate(6 7.39)"/></g></g><g transform="translate(-55.582 1.839)"><path class="c" d="M5.856,14.138H1.062A1.063,1.063,0,0,1,0,13.076V1.061A1.063,1.063,0,0,1,1.062,0h9.589a1.064,1.064,0,0,1,1.063,1.061V13.076a1.064,1.064,0,0,1-1.062,1.063Z" transform="translate(63.029 1.401)"/><path class="d" d="M2.5,3.713H.759A.76.76,0,0,1,0,2.954V.759A.76.76,0,0,1,.759,0H4.237A.76.76,0,0,1,5,.759v2.2a.76.76,0,0,1-.759.759Z" transform="translate(66.388 0)"/><g transform="translate(62.632 1)"><path class="d" d="M113.626,195.116v-.4h.323a.946.946,0,0,0,0-1.893h-.685a.362.362,0,0,0-.362.362v1.931A.362.362,0,0,0,113.626,195.116Zm.323-1.124h-.323v-.445h.323A.222.222,0,0,1,113.949,193.992Z" transform="translate(-111.162 -186.797)"/><path class="d" d="M186.323,195.395v-1.27a1.023,1.023,0,0,0-2.046,0v1.27a.362.362,0,0,0,.724,0v-.323h.6v.323A.362.362,0,0,0,186.323,195.395ZM185,194.348v-.222a.3.3,0,0,1,.6,0v.222Z" transform="translate(-180.307 -187.076)"/><path class="d" d="M264.306,194.755h-.787a.362.362,0,0,0,0,.724h.787a.845.845,0,0,0,0-1.689H264a.121.121,0,0,1,0-.241h.787a.362.362,0,0,0,0-.724H264a.845.845,0,1,0,0,1.69h.3A.121.121,0,0,1,264.306,194.755Z" transform="translate(-256.722 -186.798)"/><path class="d" d="M339.241,194.755h-.787a.362.362,0,0,0,0,.724h.787a.845.845,0,0,0,0-1.689h-.3a.121.121,0,0,1,0-.241h.787a.362.362,0,0,0,0-.724h-.787a.845.845,0,0,0,0,1.69h.3A.121.121,0,0,1,339.241,194.755Z" transform="translate(-329.318 -186.798)"/><path class="d" d="M109.966,144.948a.472.472,0,0,0,0,.944h8.3a.472.472,0,0,0,0-.944Z" transform="translate(-107.864 -140.418)"/><path class="d" d="M118.27,299.987h-8.3a.472.472,0,0,0,0,.944h8.3A.472.472,0,0,0,118.27,299.987Z" transform="translate(-107.864 -290.612)"/><path class="d" d="M196.839,348.818l-1.681,1.681-.674-.674a.472.472,0,0,0-.668.668l1.007,1.007a.472.472,0,0,0,.668,0l2.015-2.015A.472.472,0,0,0,196.839,348.818Z" transform="translate(-189.408 -337.777)"/></g></g></g></g></g></g></svg>