<svg xmlns="http://www.w3.org/2000/svg" xmlns:xlink="http://www.w3.org/1999/xlink" width="66" height="66" viewBox="0 0 66 66"><defs><style>.a{fill:#deffea;}.b{fill:url(#a);}.c{fill:#fff;}.d{fill:#1a9d78;}.e{fill:#4bd4ab;}.f{filter:url(#f);}.g{filter:url(#d);}.h{filter:url(#b);}</style><linearGradient id="a" x1="0.084" y1="0.183" x2="0.881" y2="0.864" gradientUnits="objectBoundingBox"><stop offset="0" stop-color="#acf6cc"/><stop offset="1" stop-color="#1cc59d"/></linearGradient><filter id="b" x="2" y="10" width="62.737" height="49.335" filterUnits="userSpaceOnUse"><feOffset dy="2" input="SourceAlpha"/><feGaussianBlur stdDeviation="2" result="c"/><feFlood flood-color="#46d4ab" flood-opacity="0.659"/><feComposite operator="in" in2="c"/><feComposite in="SourceGraphic"/></filter><filter id="d" x="21" y="36.427" width="26.409" height="15.322" filterUnits="userSpaceOnUse"><feOffset dy="1" input="SourceAlpha"/><feGaussianBlur stdDeviation="1" result="e"/><feFlood flood-opacity="0.161"/><feComposite operator="in" in2="e"/><feComposite in="SourceGraphic"/></filter><filter id="f" x="24.644" y="20.916" width="19.12" height="20.041" filterUnits="userSpaceOnUse"><feOffset dy="1" input="SourceAlpha"/><feGaussianBlur stdDeviation="1" result="g"/><feFlood flood-opacity="0.239"/><feComposite operator="in" in2="g"/><feComposite in="SourceGraphic"/></filter></defs><g transform="translate(-44.667 -146.667)"><rect class="a" width="66" height="66" rx="12" transform="translate(44.667 146.667)"/><g transform="translate(53.061 160.174)"><g transform="translate(0 0)"><g class="h" transform="matrix(1, 0, 0, 1, -8.39, -13.51)"><path class="b" d="M18.667,0h13.4a18.667,18.667,0,1,1,0,37.335h-13.4A18.667,18.667,0,0,1,18.667,0Z" transform="translate(8 14)"/></g></g><g transform="translate(-62.423 3.493)"><path class="c" d="M98.437,27.618v2.6a.53.53,0,0,1-.53.53H78.558a.53.53,0,0,1-.53-.53v-2.6a4.942,4.942,0,0,1,4.942-4.941,2.744,2.744,0,0,0,2.3-1.25,3.115,3.115,0,0,0,.441-1.942l.01-.025A6.561,6.561,0,0,1,81.672,13.4V13.19a1.634,1.634,0,0,1-1.657-1.626V8.81a9.172,9.172,0,0,1,2.465-6.694c2.84-2.737,7.34-2.513,10.6-1.049a.133.133,0,0,1,0,.244l-.85.35a.133.133,0,0,0,.036.254l.413.044A6.688,6.688,0,0,1,97.627,5.03a.142.142,0,0,1-.017.164,4.009,4.009,0,0,0-1.095,2.754v3.616a1.626,1.626,0,0,1-1.626,1.626h-.1V13.4A6.561,6.561,0,0,1,90.74,19.46l.01.025a3.113,3.113,0,0,0,.441,1.942,2.744,2.744,0,0,0,2.3,1.25,4.942,4.942,0,0,1,4.942,4.941Z" transform="translate(0 0)"/><g class="g" transform="matrix(1, 0, 0, 1, 54.03, -17)"><path class="d" d="M98.437,329.557v2.6a.53.53,0,0,1-.53.53H78.558a.53.53,0,0,1-.53-.53v-2.6a4.942,4.942,0,0,1,4.942-4.941,2.744,2.744,0,0,0,2.3-1.25,4.548,4.548,0,0,0,5.917,0,2.743,2.743,0,0,0,2.3,1.25A4.942,4.942,0,0,1,98.437,329.557Z" transform="translate(-54.03 -284.94)"/></g><path class="d" d="M125.6,5.031a.141.141,0,0,1-.017.163,4.011,4.011,0,0,0-1.094,2.754v3.616a1.629,1.629,0,0,1-1.723,1.626V9.1a3.181,3.181,0,0,0-3.181-3.181h-6.759A3.181,3.181,0,0,0,109.646,9.1V13.19a1.634,1.634,0,0,1-1.657-1.626V8.81a9.172,9.172,0,0,1,2.465-6.694c2.84-2.737,7.341-2.513,10.6-1.049a.133.133,0,0,1,0,.244l-.85.35a.133.133,0,0,0,.036.254l.413.044A6.685,6.685,0,0,1,125.6,5.031Z" transform="translate(-27.974 -0.001)"/><g class="f" transform="matrix(1, 0, 0, 1, 54.03, -17)"><path class="c" d="M146.148,96.767a6.562,6.562,0,1,1-13.12-.207V92.467a3.181,3.181,0,0,1,3.181-3.181h6.759a3.181,3.181,0,0,1,3.181,3.181Z" transform="translate(-105.38 -66.37)"/></g><path class="e" d="M283.148,432.116h-1.59a.53.53,0,1,1,0-1.06h1.59a.53.53,0,0,1,0,1.06Z" transform="translate(-189.549 -404.968)"/></g></g></g></svg>