<svg xmlns="http://www.w3.org/2000/svg" width="32" height="32" viewBox="0 0 32 32"><defs><style>.a{fill:#fff;}.b{fill:#ffbe39;}.c{fill:#101a20;}</style></defs><path class="a" d="M26,32H6a6,6,0,0,1-6-6V6A6,6,0,0,1,6,0H26a6,6,0,0,1,6,6V26A6,6,0,0,1,26,32Z"/><g transform="translate(-96 -12)"><path class="a" d="M126.86,51.9c-.6-.828-1.951-2.729-3.289-4.886C121.235,43.244,120,40.425,120,38.86a6.86,6.86,0,1,1,13.72,0c0,1.564-1.234,4.381-3.568,8.147C128.813,49.165,127.461,51.068,126.86,51.9Z" transform="translate(-15.193 -15.193)"/><path class="b" d="M147.031,395.773c.693.376,1.074.807,1.074,1.216,0,1.05-2.486,2.219-6.053,2.219S136,398.039,136,396.989c0-.408.381-.839,1.072-1.215a8.911,8.911,0,0,1,2.873-.857c.532.779.991,1.426,1.312,1.87h-1.222a.4.4,0,1,0,0,.807h4.035a.4.4,0,1,0,0-.807h-1.222c.321-.444.781-1.091,1.312-1.87A8.918,8.918,0,0,1,147.031,395.773Z" transform="translate(-30.386 -359.804)"/><path class="a" d="M203.664,210.421a4.417,4.417,0,0,1-2.78-.981,3.4,3.4,0,0,1,5.56,0A4.417,4.417,0,0,1,203.664,210.421Z" transform="translate(-91.997 -182.316)"/><path class="a" d="M224,129.614a1.614,1.614,0,1,1,1.614,1.614A1.614,1.614,0,0,1,224,129.614Z" transform="translate(-113.947 -106.351)"/><path class="b" d="M175.8,87.271a4.452,4.452,0,0,0-1.864-1.4,2.421,2.421,0,1,0-3,0,4.452,4.452,0,0,0-1.864,1.4,4.439,4.439,0,1,1,6.727,0Z" transform="translate(-60.771 -60.711)"/><path class="c" d="M111.667,16A7.676,7.676,0,0,0,104,23.667c0,2.631,2.9,7.472,5.061,10.708-2.605.449-4.254,1.522-4.254,2.81,0,.876.761,1.667,2.143,2.229a14.344,14.344,0,0,0,9.434,0c1.382-.561,2.143-1.353,2.143-2.229,0-1.288-1.648-2.361-4.254-2.81,2.158-3.236,5.061-8.077,5.061-10.708A7.676,7.676,0,0,0,111.667,16Zm4.979,19.969c.693.376,1.074.807,1.074,1.216,0,1.05-2.486,2.219-6.053,2.219s-6.053-1.17-6.053-2.219c0-.408.381-.839,1.072-1.215a8.91,8.91,0,0,1,2.873-.857c.532.779.991,1.426,1.312,1.87h-1.222a.4.4,0,1,0,0,.807h4.035a.4.4,0,1,0,0-.807h-1.222c.321-.444.781-1.091,1.312-1.87A8.918,8.918,0,0,1,116.646,35.969Zm-4.979.735c-.6-.828-1.951-2.729-3.289-4.886-2.336-3.768-3.571-6.586-3.571-8.151a6.86,6.86,0,1,1,13.72,0c0,1.564-1.234,4.381-3.568,8.147C113.62,33.972,112.268,35.875,111.667,36.7Zm0-18.283a5.246,5.246,0,1,0,5.246,5.246A5.246,5.246,0,0,0,111.667,18.421Zm0,9.684a4.417,4.417,0,0,1-2.78-.981,3.4,3.4,0,0,1,5.56,0A4.417,4.417,0,0,1,111.667,28.106Zm-1.614-4.842a1.614,1.614,0,1,1,1.614,1.614A1.614,1.614,0,0,1,110.053,23.263Zm4.978,3.3a4.451,4.451,0,0,0-1.864-1.4,2.421,2.421,0,1,0-3,0,4.452,4.452,0,0,0-1.864,1.4,4.439,4.439,0,1,1,6.727,0Z"/></g></svg>