<svg xmlns="http://www.w3.org/2000/svg" width="24.801" height="24.801" viewBox="0 0 24.801 24.801"><defs><style>.a{fill:#fff;}.b{fill:#ffbe39;}</style></defs><circle class="a" cx="3.5" cy="3.5" r="3.5" transform="translate(1.4 1.4)"/><circle class="a" cx="3.5" cy="3.5" r="3.5" transform="translate(15.4 10.4)"/><g transform="translate(0.484 0.484)"><path class="b" d="M311.688,180.844a4.821,4.821,0,0,1-.814,2.688l-4.03,6.322-4.03-6.322a4.844,4.844,0,1,1,8.874-2.688Zm-2.906,0a1.938,1.938,0,1,0-1.938,1.938A1.938,1.938,0,0,0,308.781,180.844Z" transform="translate(-287.856 -167.959)"/><ellipse cx="1.5" cy="0.5" rx="1.5" ry="0.5" transform="translate(17.916 22.916)"/><path class="b" d="M19.688,14.844a4.822,4.822,0,0,1-.814,2.688l-4.03,6.612-4.03-6.612a4.844,4.844,0,1,1,8.874-2.688Zm-2.906,0a1.938,1.938,0,1,0-1.938,1.938A1.938,1.938,0,0,0,16.781,14.844Z" transform="translate(-10 -10)"/><ellipse cx="1.5" cy="0.5" rx="1.5" ry="0.5" transform="translate(2.916 13.916)"/></g><g transform="translate(0 0)"><path d="M4.589,14.347A1.453,1.453,0,1,0,6.7,16.082h3.765a1.453,1.453,0,1,1,0,2.906H4.65a2.422,2.422,0,1,0,0,4.844H9.494a.484.484,0,1,0,0-.969H4.65a1.453,1.453,0,0,1,0-2.906h5.813a2.422,2.422,0,0,0,0-4.844H6.7a1.46,1.46,0,0,0-.631-.766l3.7-6.07a5.328,5.328,0,1,0-8.877,0Zm.739,1.735a.484.484,0,1,1,.484-.484A.485.485,0,0,1,5.328,16.082Zm0-15.113A4.36,4.36,0,0,1,8.956,7.747l-.011.017L5.328,13.7,1.7,7.747A4.36,4.36,0,0,1,5.328.969Z" transform="translate(0 0)"/><path d="M62.422,64.844A2.422,2.422,0,1,0,60,62.422,2.425,2.425,0,0,0,62.422,64.844Zm0-3.875a1.453,1.453,0,1,1-1.453,1.453A1.455,1.455,0,0,1,62.422,60.969Z" transform="translate(-57.094 -57.094)"/><path d="M282.1,166a5.329,5.329,0,0,0-4.436,8.281l3.686,5.782a1.461,1.461,0,0,0-.62.76h-4.249a.484.484,0,1,0,0,.969h4.249a1.453,1.453,0,1,0,2.12-1.729l3.686-5.782A5.329,5.329,0,0,0,282.1,166Zm0,15.791a.484.484,0,1,1,.484-.484A.485.485,0,0,1,282.1,181.791Zm3.627-8.044-3.627,5.69-3.627-5.69a4.359,4.359,0,1,1,7.255,0Z" transform="translate(-262.631 -157.959)"/><path d="M354.422,226a2.422,2.422,0,1,0,2.422,2.422A2.425,2.425,0,0,0,354.422,226Zm0,3.875a1.453,1.453,0,1,1,1.453-1.453A1.455,1.455,0,0,1,354.422,229.875Z" transform="translate(-334.95 -215.053)"/><ellipse cx="0.5" rx="0.5" transform="translate(11.4 23.4)"/></g></svg>