<svg xmlns="http://www.w3.org/2000/svg" width="15" height="15" viewBox="0 0 15 15"><defs><style>.a{fill:#1586c7;}</style></defs><g transform="translate(0)"><path class="a" d="M166.073,138.394h2.122a1.286,1.286,0,0,1,1.214.866h-3.335v.837h3.335a1.286,1.286,0,0,1-1.214.866h-2.122v.917l3.293,3.293.592-.592-2.781-2.781h1.018a2.125,2.125,0,0,0,2.08-1.7h.818v-.837h-.818a2.113,2.113,0,0,0-.392-.866h1.21v-.837h-5.019v.837Z" transform="translate(-161.083 -133.309)"/><path class="a" d="M12.8,2.2A7.5,7.5,0,0,0,2.2,12.8,7.5,7.5,0,0,0,12.8,2.2Zm-.622,9.985A6.621,6.621,0,1,1,2.818,2.818a6.621,6.621,0,1,1,9.364,9.364Z" transform="translate(0 0)"/></g></svg>