<svg xmlns="http://www.w3.org/2000/svg" width="16" height="16" viewBox="0 0 16 16"><defs><style>.a{fill:#fff;}.b{stroke:#000;stroke-width:0.1px;}.c{fill:#ffbe39;}</style></defs><g transform="translate(-52.811 -262)"><g transform="translate(52.811 262)"><path class="a" d="M13,16H3a3,3,0,0,1-3-3V3A3,3,0,0,1,3,0H13a3,3,0,0,1,3,3V13A3,3,0,0,1,13,16Z"/><g transform="translate(1.481 3.055)"><path class="b" d="M19.859,271.343H14.591a.753.753,0,1,1,0-1.505h5.269a.753.753,0,1,1,0,1.505Zm-5.269-1.129a.376.376,0,1,0,0,.753h5.269a.376.376,0,1,0,0-.753Z" transform="translate(-13.838 -264.757)"/><path class="b" d="M40.052,88.484H34.783A.188.188,0,0,1,34.6,88.3V83.968a.942.942,0,0,1,.941-.941H39.3a.942.942,0,0,1,.941.941V88.3A.188.188,0,0,1,40.052,88.484Zm-5.081-.376h4.892v-4.14A.565.565,0,0,0,39.3,83.4H35.536a.565.565,0,0,0-.565.565Z" transform="translate(-34.03 -83.027)"/><path class="b" d="M131.459,318.27h.376v2.823h-.376Z" transform="translate(-128.21 -311.872)"/><path class="b" d="M96.865,415.135h2.258v.376H96.865Z" transform="translate(-94.566 -406.103)"/><path class="b" d="M255.1,271.343h-5.269a.753.753,0,1,1,0-1.505H255.1a.753.753,0,0,1,0,1.505Zm-5.269-1.129a.376.376,0,0,0,0,.753H255.1a.376.376,0,0,0,0-.753Z" transform="translate(-242.485 -264.757)"/><path class="b" d="M275.295,88.484h-5.269a.188.188,0,0,1-.188-.188V83.968a.942.942,0,0,1,.941-.941h3.763a.942.942,0,0,1,.941.941V88.3A.188.188,0,0,1,275.295,88.484Zm-5.081-.376h4.892v-4.14a.565.565,0,0,0-.565-.565h-3.763a.565.565,0,0,0-.565.565Z" transform="translate(-262.677 -83.027)"/><path class="b" d="M366.7,318.27h.376v2.823H366.7Z" transform="translate(-356.957 -311.872)"/><path class="b" d="M332.108,415.135h2.258v.376h-2.258Z" transform="translate(-323.295 -406.103)"/><path class="c" d="M48.432,101.569h4.892V97.43a.565.565,0,0,0-.564-.565H49a.565.565,0,0,0-.565.565Z" transform="translate(-47.491 -96.489)"/><path class="a" d="M28.052,283.676a.376.376,0,1,0,0,.753h5.269a.376.376,0,1,0,0-.753Z" transform="translate(-27.3 -278.219)"/><path class="c" d="M283.676,101.569h4.892V97.43a.565.565,0,0,0-.565-.565H284.24a.565.565,0,0,0-.565.565Z" transform="translate(-276.139 -96.489)"/><path class="a" d="M263.3,283.676a.376.376,0,0,0,0,.753h5.269a.376.376,0,0,0,0-.753Z" transform="translate(-255.946 -278.219)"/></g></g></g></svg>