<svg xmlns="http://www.w3.org/2000/svg" width="84" height="83" viewBox="0 0 84 83"><defs><style>.a,.b{fill:#138440;}.a{opacity:0.07;}.b{opacity:0.14;}.c{fill:#fff;}.d{fill:#ffc03f;}.e{fill:#f1f4f6;}.f{fill:#dfeaef;}</style></defs><g transform="translate(0 0)"><ellipse class="a" cx="42" cy="41.5" rx="42" ry="41.5" transform="translate(0 0)"/><ellipse class="b" cx="34" cy="34.5" rx="34" ry="34.5" transform="translate(8 7)"/><ellipse class="c" cx="28" cy="27.5" rx="28" ry="27.5" transform="translate(14 14)"/><g transform="translate(25 26)"><g transform="translate(8.185 27.654)"><path class="d" d="M125.238,433.834h-2.989a.741.741,0,0,1-.741-.741v-2.945h4.471v2.945A.741.741,0,0,1,125.238,433.834Z" transform="translate(-121.508 -430.148)"/><g transform="translate(13.649)"><path class="d" d="M327.848,433.834h-2.989a.741.741,0,0,1-.741-.741v-2.945h4.471v2.945A.741.741,0,0,1,327.848,433.834Z" transform="translate(-324.118 -430.148)"/></g></g><g transform="translate(5.913 0.505)"><path class="c" d="M109.126,55.231H89.085a1.312,1.312,0,0,1-1.312-1.312v-10.6l.4-5.852-.4-5.852V28.45a1.312,1.312,0,0,1,1.312-1.312h20.041a1.312,1.312,0,0,1,1.312,1.312v3.168L110.1,37.47l.337,5.852v10.6a1.312,1.312,0,0,1-1.312,1.312Z" transform="translate(-87.773 -27.138)"/></g><g transform="translate(5.913 4.985)"><path class="d" d="M87.773,93.651h22.665v11.7H87.773Z" transform="translate(-87.773 -93.651)"/></g><g transform="translate(0.505 6.981)"><path class="c" d="M8.912,129.009a1.418,1.418,0,0,1-1.418-1.418v-2.9a1.418,1.418,0,1,1,2.836,0v2.9A1.418,1.418,0,0,1,8.912,129.009Z" transform="translate(-7.494 -123.27)"/></g><g transform="translate(31.15 6.981)"><path class="c" d="M463.824,129.009a1.418,1.418,0,0,1-1.418-1.418v-2.9a1.418,1.418,0,1,1,2.836,0v2.9A1.418,1.418,0,0,1,463.824,129.009Z" transform="translate(-462.406 -123.27)"/></g><g transform="translate(31.237 6.988)"><path class="c" d="M465.168,123.373a1.411,1.411,0,0,1,.087.486v2.9a1.418,1.418,0,0,1-1.418,1.418c-.046,0-.091,0-.136-.007a1.417,1.417,0,0,0,2.749-.486v-2.9A1.418,1.418,0,0,0,465.168,123.373Z" transform="translate(-463.701 -123.373)"/></g><g transform="translate(8.513 19.776)"><g transform="translate(13.9)"><circle class="e" cx="1.782" cy="1.782" r="1.782"/></g><g transform="translate(14.001 0.127)"><path class="f" d="M336.551,315.084a1.782,1.782,0,0,1-2.341,2.246,1.782,1.782,0,1,0,2.341-2.246Z" transform="translate(-334.21 -315.084)"/></g><circle class="e" cx="1.782" cy="1.782" r="1.782"/><g transform="translate(0.101 0.127)"><path class="f" d="M130.207,315.084a1.782,1.782,0,0,1-2.341,2.246,1.782,1.782,0,1,0,2.341-2.246Z" transform="translate(-127.866 -315.084)"/></g></g><g transform="translate(0 0)"><path d="M32.568,26.12a1.925,1.925,0,0,0-1.923,1.923v.1H29.083V21.461a1.819,1.819,0,0,0-1.817-1.817H7.225a1.819,1.819,0,0,0-1.817,1.817V28.14H3.846v-.1a1.923,1.923,0,1,0-3.846,0v2.9a1.923,1.923,0,1,0,3.846,0v-1.8H5.408V42.715a.5.5,0,1,0,1.01,0V36.838H28.073V46.929a.808.808,0,0,1-.807.807H7.225a.808.808,0,0,1-.807-.807V45.118a.5.5,0,1,0-1.01,0v1.811a1.819,1.819,0,0,0,1.817,1.817h.456v1.5a1.247,1.247,0,0,0,1.245,1.245h2.99a1.247,1.247,0,0,0,1.245-1.245v-1.5h8.168v1.5a1.247,1.247,0,0,0,1.245,1.245h2.99a1.247,1.247,0,0,0,1.245-1.245v-1.5h.456a1.819,1.819,0,0,0,1.817-1.817V29.149h1.562v1.8a1.923,1.923,0,0,0,3.846,0v-2.9a1.925,1.925,0,0,0-1.923-1.923ZM2.836,30.945a.913.913,0,0,1-1.826,0v-2.9a.913.913,0,1,1,1.826,0Zm9.316,19.3a.236.236,0,0,1-.236.236H8.926a.236.236,0,0,1-.236-.236v-1.5h3.462Zm13.649,0a.236.236,0,0,1-.236.236h-2.99a.236.236,0,0,1-.236-.236v-1.5H25.8v1.5ZM6.418,25.134H16.741V35.828H11.974l3.5-3.5a.5.5,0,0,0-.714-.714l-4.211,4.211H6.418ZM21.152,35.828l3.5-3.5a.5.5,0,0,0-.714-.714l-4.211,4.211H17.75V25.134h2.24a.5.5,0,1,0,0-1.01H6.418V21.461a.808.808,0,0,1,.807-.807H27.266a.808.808,0,0,1,.807.807v2.664h-5.6a.5.5,0,1,0,0,1.01h5.6V35.828Zm12.33-4.883a.913.913,0,1,1-1.826,0v-2.9a.913.913,0,1,1,1.826,0Z" transform="translate(0 -19.644)"/><path d="M214.228,342.349h4.735a.5.5,0,1,0,0-1.01h-4.735a.5.5,0,1,0,0,1.01Z" transform="translate(-199.326 -319.668)"/><path d="M214.228,376.916h4.735a.5.5,0,0,0,0-1.01h-4.735a.5.5,0,0,0,0,1.01Z" transform="translate(-199.326 -351.907)"/><path d="M327.51,306.723a.5.5,0,0,0,0-1.01A2.287,2.287,0,1,0,329.8,308a.5.5,0,1,0-1.01,0,1.277,1.277,0,1,1-1.277-1.277Z" transform="translate(-303.314 -286.442)"/><path d="M123.453,308a2.287,2.287,0,1,0-2.287,2.287A2.29,2.29,0,0,0,123.453,308Zm-3.564,0a1.277,1.277,0,1,1,1.277,1.277A1.279,1.279,0,0,1,119.889,308Z" transform="translate(-110.871 -286.441)"/></g></g></g></svg>