<svg xmlns="http://www.w3.org/2000/svg" width="14.334" height="14.334" viewBox="0 0 14.334 14.334">
  <g id="Layer_3" data-name="Layer 3" transform="translate(-560.835 -1220.119)">
    <g id="Group_4482" data-name="Group 4482">
      <circle id="Ellipse_58" data-name="Ellipse 58" cx="6.54" cy="6.54" r="6.54" transform="translate(561.462 1220.746)" fill="#ffb829"/>
      <path id="Path_9833" data-name="Path 9833" d="M568,1234.453a7.167,7.167,0,1,1,7.168-7.167,7.167,7.167,0,0,1-7.168,7.167Zm0-13.035a5.868,5.868,0,1,0,5.868,5.868h0a5.876,5.876,0,0,0-5.868-5.868Z" fill="#2c2f33"/>
      <path id="Path_9836" data-name="Path 9836" d="M567.158,1228.744a.65.65,0,0,1-.65-.65v-3.117a.65.65,0,1,1,1.3,0v2.467h2.467a.65.65,0,0,1,0,1.3Z" fill="#2c2f33"/>
    </g>
  </g>
</svg>
