<svg xmlns="http://www.w3.org/2000/svg" width="31.702" height="29.702" viewBox="0 0 31.702 29.702"><defs><style>.a{fill:#fff;}.b{fill:#2c2f33;}.c{fill:#488cfc;}</style></defs><g transform="translate(485.873 -15.386)"><path class="a" d="M-235.091,49.559l3.742,3.756h-2.111a1.621,1.621,0,0,1-1.156-.475,1.623,1.623,0,0,1-.475-1.156Z" transform="translate(-233.579 -31.829)"/><path class="a" d="M-447.412,61.961h-16.395a2.076,2.076,0,0,1-2.083-2.049V37.417a2.076,2.076,0,0,1,2.083-2.049h12.378v3.1a2.992,2.992,0,0,0,.877,2.125,2.991,2.991,0,0,0,2.125.876h3.1V59.912A2.076,2.076,0,0,1-447.412,61.961Z" transform="translate(-18.612 -18.612)"/><path class="b" d="M-468.889,15.585a.679.679,0,0,0-.487-.2h-13.043a3.45,3.45,0,0,0-3.454,3.42V41.3a3.446,3.446,0,0,0,3.454,3.42h16.4a3.45,3.45,0,0,0,3.454-3.42V22.185a.676.676,0,0,0-.213-.48Zm.219,2.145,3.742,3.756h-2.111a1.621,1.621,0,0,1-1.156-.475,1.623,1.623,0,0,1-.475-1.156Zm2.646,25.619h-16.395A2.076,2.076,0,0,1-484.5,41.3V18.806a2.076,2.076,0,0,1,2.083-2.049h12.378v3.1a2.992,2.992,0,0,0,.877,2.125,2.991,2.991,0,0,0,2.126.876h3.1V41.3A2.076,2.076,0,0,1-466.024,43.349Z" transform="translate(0 0)"/><path class="b" d="M-359.15,346.1h-10.939a.685.685,0,0,0-.685.685.685.685,0,0,0,.685.685h10.932a.685.685,0,0,0,.689-.682A.685.685,0,0,0-359.15,346.1Z" transform="translate(-107.203 -308.026)"/><path class="b" d="M-438,346.1h-2.029a.685.685,0,0,0-.685.685.685.685,0,0,0,.685.685h2.022a.685.685,0,0,0,.689-.682A.685.685,0,0,0-438,346.1Z" transform="translate(-42.062 -308.026)"/><path class="b" d="M-359.15,296.141h-10.939a.685.685,0,0,0-.685.685.685.685,0,0,0,.685.685h10.932a.685.685,0,0,0,.689-.682A.685.685,0,0,0-359.15,296.141Z" transform="translate(-107.203 -261.496)"/><path class="b" d="M-438,296.141h-2.029a.685.685,0,0,0-.685.685.685.685,0,0,0,.685.685h2.022a.685.685,0,0,0,.689-.682A.685.685,0,0,0-438,296.141Z" transform="translate(-42.062 -261.496)"/><path class="b" d="M-359.15,246.185h-10.939a.685.685,0,0,0-.685.685.685.685,0,0,0,.685.685h10.932a.685.685,0,0,0,.689-.682A.685.685,0,0,0-359.15,246.185Z" transform="translate(-107.203 -214.967)"/><path class="b" d="M-438,246.185h-2.029a.685.685,0,0,0-.685.685.685.685,0,0,0,.685.685h2.022a.685.685,0,0,0,.689-.682A.685.685,0,0,0-438,246.185Z" transform="translate(-42.062 -214.967)"/><path class="b" d="M126.756,196.228h-10.97a.687.687,0,0,0,0,1.375h10.963a.687.687,0,0,0,.007-1.375Z" transform="translate(-593.054 -168.402)"/><path class="b" d="M47.882,196.228H45.847a.687.687,0,0,0,0,1.375h2.028a.687.687,0,1,0,.007-1.375Z" transform="translate(-527.926 -168.402)"/><path class="b" d="M126.756,146.272h-10.97a.687.687,0,1,0,0,1.375h10.963a.687.687,0,1,0,.007-1.375Z" transform="translate(-593.054 -121.882)"/><path class="b" d="M47.882,146.272H45.847a.687.687,0,1,0,0,1.375h2.028a.687.687,0,1,0,.007-1.375Z" transform="translate(-527.926 -121.882)"/><g transform="translate(-407.449 -204.191)"><path class="a" d="M-1,0H7.565V9.69H-1Z" transform="translate(-59.332 232.886)"/><path class="c" d="M-47.976,248.024H-63.107V232.893h2.518v8.935a.631.631,0,0,0,.631.631h8.827a.631.631,0,0,0,.631-.631v-8.044l2.525,2.522Z" transform="translate(-0.007 -0.007)"/><path class="b" d="M-54.232,234.161h1.261v3.779h-1.261Z" transform="translate(-0.055 -0.014)"/><path class="b" d="M-46.907,235.592l-3.779-3.779a.631.631,0,0,0-.45-.188H-63.744a.631.631,0,0,0-.631.631h0v16.392a.631.631,0,0,0,.631.631h16.392a.631.631,0,0,0,.631-.631h0v-12.61A.63.63,0,0,0-46.907,235.592Zm-13.425-2.706h8.565v9.3h-8.565Zm12.349,15.131H-63.114V232.886H-61.6v9.935a.631.631,0,0,0,.631.631h9.827a.631.631,0,0,0,.631-.631v-9.044l2.525,2.522Z" transform="translate(0)"/></g></g></svg>