<svg xmlns="http://www.w3.org/2000/svg" width="31.328" height="31.669" viewBox="0 0 31.328 31.669"><defs><style>.a{fill:#fff;}.b{fill:#2c2f33;}.c{fill:#7090c6;}</style></defs><g transform="translate(485.873 -15.386)"><path class="a" d="M-235.091,49.559l3.742,3.756h-2.111a1.621,1.621,0,0,1-1.156-.475,1.623,1.623,0,0,1-.475-1.156Z" transform="translate(-233.579 -31.829)"/><path class="a" d="M-447.412,61.961h-16.395a2.076,2.076,0,0,1-2.083-2.049V37.417a2.076,2.076,0,0,1,2.083-2.049h12.378v3.1a2.992,2.992,0,0,0,.877,2.125,2.991,2.991,0,0,0,2.125.876h3.1V59.912A2.076,2.076,0,0,1-447.412,61.961Z" transform="translate(-18.612 -18.612)"/><path class="b" d="M-468.889,15.585a.679.679,0,0,0-.487-.2h-13.043a3.45,3.45,0,0,0-3.454,3.42V41.3a3.446,3.446,0,0,0,3.454,3.42h16.4a3.45,3.45,0,0,0,3.454-3.42V22.185a.676.676,0,0,0-.213-.48Zm.219,2.145,3.742,3.756h-2.111a1.621,1.621,0,0,1-1.156-.475,1.623,1.623,0,0,1-.475-1.156Zm2.646,25.619h-16.395A2.076,2.076,0,0,1-484.5,41.3V18.806a2.076,2.076,0,0,1,2.083-2.049h12.378v3.1a2.992,2.992,0,0,0,.877,2.125,2.991,2.991,0,0,0,2.126.876h3.1V41.3A2.076,2.076,0,0,1-466.024,43.349Z" transform="translate(0 0)"/><path class="b" d="M-359.15,346.1h-10.939a.685.685,0,0,0-.685.685.685.685,0,0,0,.685.685h10.932a.685.685,0,0,0,.689-.682A.685.685,0,0,0-359.15,346.1Z" transform="translate(-107.203 -308.026)"/><path class="b" d="M-438,346.1h-2.029a.685.685,0,0,0-.685.685.685.685,0,0,0,.685.685h2.022a.685.685,0,0,0,.689-.682A.685.685,0,0,0-438,346.1Z" transform="translate(-42.062 -308.026)"/><path class="b" d="M-359.15,296.141h-10.939a.685.685,0,0,0-.685.685.685.685,0,0,0,.685.685h10.932a.685.685,0,0,0,.689-.682A.685.685,0,0,0-359.15,296.141Z" transform="translate(-107.203 -261.496)"/><path class="b" d="M-438,296.141h-2.029a.685.685,0,0,0-.685.685.685.685,0,0,0,.685.685h2.022a.685.685,0,0,0,.689-.682A.685.685,0,0,0-438,296.141Z" transform="translate(-42.062 -261.496)"/><path class="b" d="M-359.15,246.185h-10.939a.685.685,0,0,0-.685.685.685.685,0,0,0,.685.685h10.932a.685.685,0,0,0,.689-.682A.685.685,0,0,0-359.15,246.185Z" transform="translate(-107.203 -214.967)"/><path class="b" d="M-438,246.185h-2.029a.685.685,0,0,0-.685.685.685.685,0,0,0,.685.685h2.022a.685.685,0,0,0,.689-.682A.685.685,0,0,0-438,246.185Z" transform="translate(-42.062 -214.967)"/><path class="b" d="M126.756,196.228h-10.97a.687.687,0,0,0,0,1.375h10.963a.687.687,0,0,0,.007-1.375Z" transform="translate(-593.054 -168.402)"/><path class="b" d="M47.882,196.228H45.847a.687.687,0,0,0,0,1.375h2.028a.687.687,0,1,0,.007-1.375Z" transform="translate(-527.926 -168.402)"/><path class="b" d="M126.756,146.272h-10.97a.687.687,0,1,0,0,1.375h10.963a.687.687,0,1,0,.007-1.375Z" transform="translate(-593.054 -121.882)"/><path class="b" d="M47.882,146.272H45.847a.687.687,0,1,0,0,1.375h2.028a.687.687,0,1,0,.007-1.375Z" transform="translate(-527.926 -121.882)"/><path class="c" d="M-275.567,216.806q-.112.015-.227.026a8.429,8.429,0,0,1-9.241-7.53,8.429,8.429,0,0,1,7.53-9.241,8.429,8.429,0,0,1,9.241,7.53A8.429,8.429,0,0,1-275.567,216.806Z" transform="translate(-187.02 -171.966)"/><path class="b" d="M-286.089,208.2a9.116,9.116,0,0,1-6.088-2.329,9.137,9.137,0,0,1-3.026-6.79,9.135,9.135,0,0,1,9.124-9.121,9.135,9.135,0,0,1,9.124,9.127,9.122,9.122,0,0,1-2.328,6.072,9.146,9.146,0,0,1-6.806,3.04Zm.006-16.91a7.8,7.8,0,0,0-7.792,7.781,7.8,7.8,0,0,0,7.781,7.8,7.809,7.809,0,0,0,5.8-2.582,7.8,7.8,0,0,0-.582-11.009,7.782,7.782,0,0,0-5.194-1.994Z" transform="translate(-177.59 -162.598)"/><g transform="translate(-469.595 43.687)"><path class="b" d="M-247.893,431.323a.684.684,0,0,1-.485-.2.686.686,0,0,1,0-.97l2-2a.686.686,0,0,1,.97,0,.686.686,0,0,1,0,.97l-2,2A.684.684,0,0,1-247.893,431.323Z" transform="translate(248.579 -427.955)"/></g><g transform="translate(-461.236 43.687)"><path class="b" d="M-123.921,431.322a.684.684,0,0,1-.47-.186l-2.121-2a.686.686,0,0,1-.029-.97.686.686,0,0,1,.97-.029l2.121,2a.686.686,0,0,1,.029.97A.684.684,0,0,1-123.921,431.322Z" transform="translate(126.727 -427.954)"/></g><path class="a" d="M-175.965,254.5h-3.868a.788.788,0,0,1-.788-.788v-5.727a.788.788,0,0,1,.788-.788.788.788,0,0,1,.788.788v4.939h3.08a.788.788,0,0,1,.788.788A.788.788,0,0,1-175.965,254.5Z" transform="translate(-284.312 -215.995)"/></g></svg>