<svg xmlns="http://www.w3.org/2000/svg" width="14.353" height="23.049" viewBox="0 0 14.353 23.049">
  <g id="Group_1307" data-name="Group 1307" transform="translate(-333.241 -344.934)">
    <path id="Path_10773" data-name="Path 10773" d="M346.534,346.483l-6.2,5.8v9.4l6.2,5.2Z" fill="#fff"/>
    <g id="Group_1297" data-name="Group 1297" transform="translate(333.241 344.934)">
      <g id="Group_1296" data-name="Group 1296">
        <path id="Path_10761" data-name="Path 10761" d="M334.909,362.153a.457.457,0,0,1-.458-.458v-7.323a.457.457,0,0,1,.458-.458h5.034v8.238Z" transform="translate(-333.453 -346.509)" fill="#ffc03f"/>
        <path id="Path_10758" data-name="Path 10758" d="M347.055,367.983a.535.535,0,0,1-.369-.145l-6.734-6.285-5.255.022a1.457,1.457,0,0,1-1.455-1.455V352.8a1.457,1.457,0,0,1,1.455-1.456h5.312l6.678-6.263a.54.54,0,0,1,.908.4v21.969a.538.538,0,0,1-.539.54ZM340.7,352.141l.026,8.7,5.786,5.365V346.717Zm-6.006.281a.376.376,0,0,0-.376.375v7.323a.376.376,0,0,0,.376.375h4.953v-8.073Z" transform="translate(-333.241 -344.934)" fill="gray"/>
        <path id="Path_10760" data-name="Path 10760" d="M334.891,362.218a.541.541,0,0,1-.54-.54v-7.323a.541.541,0,0,1,.54-.541h5.117v8.4Z" transform="translate(-333.436 -346.491)" fill="#fff"/>
      </g>
    </g>
  </g>
</svg>
