<svg xmlns="http://www.w3.org/2000/svg" width="18.994" height="18.995" viewBox="0 0 18.994 18.995"><defs><style>.a{fill:#00b561;}.b,.d{fill:#fff;}.b{stroke:#fff;}.c,.d{stroke:none;}</style></defs><g transform="translate(-111 -307)"><g class="a" transform="translate(112 308)"><path class="c" d="M 8.49725341796875 17.49450302124023 C 3.536153316497803 17.49450302124023 -0.4999965727329254 13.45835304260254 -0.4999965727329254 8.49725341796875 C -0.4999965727329254 3.536153316497803 3.536153316497803 -0.4999965727329254 8.49725341796875 -0.4999965727329254 C 13.45835304260254 -0.4999965727329254 17.49450302124023 3.536153316497803 17.49450302124023 8.49725341796875 C 17.49450302124023 13.45835304260254 13.45835304260254 17.49450302124023 8.49725341796875 17.49450302124023 Z"/><path class="d" d="M 8.49725341796875 3.814697265625e-06 C 3.804353713989258 3.814697265625e-06 3.814697265625e-06 3.804353713989258 3.814697265625e-06 8.49725341796875 C 3.814697265625e-06 13.19015312194824 3.804353713989258 16.99450302124023 8.49725341796875 16.99450302124023 C 13.19015312194824 16.99450302124023 16.99450302124023 13.19015312194824 16.99450302124023 8.49725341796875 C 16.99450302124023 3.804353713989258 13.19015312194824 3.814697265625e-06 8.49725341796875 3.814697265625e-06 M 8.49725341796875 -0.9999961853027344 C 13.73405361175537 -0.9999961853027344 17.99450302124023 3.260453224182129 17.99450302124023 8.49725341796875 C 17.99450302124023 13.73405361175537 13.73405361175537 17.99450302124023 8.49725341796875 17.99450302124023 C 3.260453224182129 17.99450302124023 -0.9999961853027344 13.73405361175537 -0.9999961853027344 8.49725341796875 C -0.9999961853027344 3.260453224182129 3.260453224182129 -0.9999961853027344 8.49725341796875 -0.9999961853027344 Z"/></g><g transform="translate(116.499 313.498)"><g transform="translate(0 0)"><path class="b" d="M7.709,68.112a.391.391,0,0,0-.553,0L2.469,72.8.667,71a.391.391,0,0,0-.553.553l2.078,2.078a.391.391,0,0,0,.553,0l4.963-4.963A.391.391,0,0,0,7.709,68.112Z" transform="translate(0 -67.998)"/></g></g></g></svg>