<svg xmlns="http://www.w3.org/2000/svg" width="25.479" height="31.348" viewBox="0 0 25.479 31.348"><defs><style>.a{fill:#fff;}.b{fill:#f95454;}.c{fill:#2c2f33;}</style></defs><g transform="translate(-138.166 -107.395)"><rect class="a" width="21.804" height="28.657" rx="5" transform="translate(139.193 108.119)"/><path class="b" d="M6.54,0A6.54,6.54,0,1,1,0,6.54,6.54,6.54,0,0,1,6.54,0Z" transform="translate(150.035 125.058)"/><path class="c" d="M142.482,136.776a4.328,4.328,0,0,1-4.316-4.318V111.711a4.328,4.328,0,0,1,4.316-4.316h14.494a4.328,4.328,0,0,1,4.315,4.317v12.5a.779.779,0,0,1-.213.567.769.769,0,0,1-.545.243h0a.779.779,0,0,1-.8-.757v-12.55a2.766,2.766,0,0,0-2.757-2.757h-14.5a2.764,2.764,0,0,0-2.758,2.757v20.748a2.764,2.764,0,0,0,2.757,2.757h6.779a.78.78,0,0,1,0,1.56Zm1.172-11.318a.779.779,0,0,1,.011-1.558h7.364a.78.78,0,0,1-.006,1.558Zm-.045-4.713a.78.78,0,0,1,.013-1.559H155.8a.78.78,0,0,1,.779.778v.048a.779.779,0,0,1-.777.731H143.609Zm.045-4.719a.779.779,0,0,1-.534-1.314.769.769,0,0,1,.545-.243H155.8a.8.8,0,0,1,.6.243.779.779,0,0,1-.565,1.315Zm12.823,22.717a7.167,7.167,0,1,1,7.168-7.167A7.175,7.175,0,0,1,156.477,138.743Zm0-13.035a5.868,5.868,0,1,0,5.868,5.868A5.875,5.875,0,0,0,156.477,125.708Z"/><path class="c" d="M920.362,219.5l-1.627,1.627-1.139-1.139,1.627-1.627-1.627-1.627,1.139-1.139,1.627,1.627,1.627-1.627,1.139,1.139-1.627,1.627,1.627,1.627-1.139,1.139Z" transform="translate(-763.791 -86.563)"/></g></svg>