<svg xmlns="http://www.w3.org/2000/svg" xmlns:xlink="http://www.w3.org/1999/xlink" width="80" height="80" viewBox="0 0 80 80"><defs><style>.a,.g{fill:#fff;}.b{fill:#821eb4;}.c{fill:#b450c8;}.d{fill:url(#c);}.e{fill:#ffc03f;}.f{fill:url(#d);}.g{font-size:6px;font-family:Roboto-Bold, Roboto;font-weight:700;}.h{filter:url(#a);}</style><filter id="a" x="0" y="0" width="80" height="80" filterUnits="userSpaceOnUse"><feOffset dy="8" input="SourceAlpha"/><feGaussianBlur stdDeviation="5" result="b"/><feFlood flood-opacity="0.188"/><feComposite operator="in" in2="b"/><feComposite in="SourceGraphic"/></filter><linearGradient id="c" x1="0.14" y1="0.049" x2="0.778" y2="0.904" gradientUnits="objectBoundingBox"><stop offset="0" stop-color="#ffc03f"/><stop offset="1" stop-color="red"/></linearGradient><linearGradient id="d" x1="0.146" y1="0.146" x2="0.852" y2="0.852" gradientUnits="objectBoundingBox"><stop offset="0" stop-color="#ff923f"/><stop offset="1" stop-color="red"/></linearGradient></defs><g transform="translate(-245 -501)"><g class="h" transform="matrix(1, 0, 0, 1, 245, 501)"><rect class="a" width="50" height="50" rx="16" transform="translate(15 7)"/></g><g transform="translate(218.619 210.948)"><g transform="translate(49.404 305.851)"><path class="b" d="M417.8,162.84l-2.582.692a.8.8,0,1,0,.412,1.538l2.582-.692.018.069a.8.8,0,1,0,1.538-.412l-.449-1.676a.8.8,0,0,0-1.538.412Z" transform="translate(-392.617 -153.182)"/><path class="b" d="M419.2,287.61a.8.8,0,0,0-.975.563l-.018.069-2.582-.692a.8.8,0,0,0-.412,1.538l2.582.692-.018.069a.8.8,0,0,0,1.538.412l.449-1.676A.8.8,0,0,0,419.2,287.61Z" transform="translate(-392.617 -272.262)"/><path class="c" d="M.59,165.011a.8.8,0,0,0,.975-.563l.018-.069,2.582.692a.8.8,0,0,0,.412-1.538L2,162.841l.018-.069a.8.8,0,0,0-1.538-.412l-.449,1.676a.8.8,0,0,0,.563.975Z" transform="translate(0 -153.183)"/><g transform="translate(2.979 0)"><path class="b" d="M290.255.476,288.58.027a.8.8,0,1,0-.412,1.538l.069.018-.692,2.582a.8.8,0,1,0,1.538.412L289.774,2l.069.018a.8.8,0,1,0,.412-1.538Z" transform="translate(-275.235 0)"/><path class="b" d="M369.465,60.546l1.89-1.89.05.05a.8.8,0,0,0,1.126-1.126L371.3,56.354a.8.8,0,0,0-1.126,1.126l.05.05-1.89,1.89a.8.8,0,1,0,1.126,1.126Z" transform="translate(-351.546 -53.142)"/><g transform="translate(0 0)"><path class="c" d="M164.383,1.584l.069-.018A.8.8,0,0,0,164.04.027l-1.676.449a.8.8,0,0,0,.412,1.538L162.845,2l.692,2.582a.8.8,0,0,0,1.538-.412Z" transform="translate(-156.166 0)"/><path class="c" d="M58.656,57.53l.05-.05a.8.8,0,0,0-1.126-1.126L56.354,57.58a.8.8,0,0,0,1.126,1.126l.05-.05,1.89,1.89a.8.8,0,1,0,1.126-1.126Z" transform="translate(-56.12 -53.142)"/></g></g><path class="c" d="M2,289.781l2.582-.692a.8.8,0,0,0-.412-1.538l-2.582.692-.018-.069a.8.8,0,0,0-1.538.412l.449,1.676a.8.8,0,1,0,1.538-.412Z" transform="translate(0 -272.263)"/><g transform="translate(2.979 19.538)"><path class="b" d="M289.843,417.771l-.069.018-.692-2.582a.8.8,0,1,0-1.538.412l.692,2.582-.069.018a.8.8,0,0,0,.412,1.538l1.676-.449a.8.8,0,1,0-.412-1.538Z" transform="translate(-275.235 -412.148)"/><path class="b" d="M371.4,370.178l-.05.05-1.89-1.89a.8.8,0,1,0-1.126,1.126l1.89,1.89-.05.05a.8.8,0,0,0,1.126,1.126l1.227-1.227a.8.8,0,0,0-1.126-1.126Z" transform="translate(-351.544 -368.104)"/><path class="c" d="M164.51,414.644a.8.8,0,0,0-.975.563l-.692,2.582-.069-.018a.8.8,0,1,0-.412,1.538l1.676.449a.8.8,0,0,0,.412-1.538l-.069-.018.692-2.582A.8.8,0,0,0,164.51,414.644Z" transform="translate(-156.164 -412.148)"/><path class="c" d="M59.419,368.337l-1.89,1.89-.05-.05a.8.8,0,1,0-1.126,1.126l1.227,1.227a.8.8,0,0,0,1.126-1.126l-.05-.05,1.89-1.89a.8.8,0,1,0-1.126-1.126Z" transform="translate(-56.12 -368.104)"/></g><circle class="d" cx="10.337" cy="10.337" r="10.337" transform="translate(3.251 3.251)"/><g transform="translate(6.823 6.822)"><circle class="e" cx="0.796" cy="0.796" r="0.796" transform="translate(5.97)"/><circle class="e" cx="0.796" cy="0.796" r="0.796" transform="translate(5.97 11.939)"/><circle class="e" cx="0.796" cy="0.796" r="0.796" transform="translate(4.264 7.675)"/><circle class="e" cx="0.796" cy="0.796" r="0.796" transform="translate(7.675 7.675)"/><circle class="e" cx="0.796" cy="0.796" r="0.796" transform="translate(7.675 4.264)"/><circle class="e" cx="0.796" cy="0.796" r="0.796" transform="translate(4.264 4.264)"/><circle class="e" cx="0.796" cy="0.796" r="0.796" transform="translate(11.939 5.97)"/><circle class="e" cx="0.796" cy="0.796" r="0.796" transform="translate(0 5.97)"/><circle class="e" cx="0.796" cy="0.796" r="0.796" transform="translate(10.191 1.749)"/><circle class="e" cx="0.796" cy="0.796" r="0.796" transform="translate(1.748 10.191)"/><circle class="e" cx="0.796" cy="0.796" r="0.796" transform="translate(10.191 10.191)"/><circle class="e" cx="0.796" cy="0.796" r="0.796" transform="translate(1.748 1.749)"/></g></g><g transform="translate(65.294 322.002)"><g transform="translate(0.087 0.05)"><circle class="f" cx="8" cy="8" r="8"/></g><text class="g" transform="translate(2.087 10.05)"><tspan x="0" y="0">SOS</tspan></text></g></g></g></svg>