<svg xmlns="http://www.w3.org/2000/svg" xmlns:xlink="http://www.w3.org/1999/xlink" width="65" height="65" viewBox="0 0 65 65"><defs><style>.a{stroke:#90bfff;fill:url(#a);}.b{fill:url(#b);}.c{clip-path:url(#c);}.d{fill:#e2cc76;}.e{fill:#e4d88f;}.f{fill:#fff;}.g{fill:#e9d050;}.h{fill:#f2b85e;}.i{fill:none;stroke:#fff;stroke-width:2px;opacity:0.77;}.j{fill:url(#d);}.k{fill:#5b3401;}</style><linearGradient id="a" x1="0.187" y1="0.802" x2="0.879" y2="0.253" gradientUnits="objectBoundingBox"><stop offset="0" stop-color="#81b6ff"/><stop offset="1" stop-color="#a997ff"/></linearGradient><linearGradient id="b" x1="0.187" y1="0.802" x2="0.879" y2="0.253" gradientUnits="objectBoundingBox"><stop offset="0" stop-color="#f2d981"/><stop offset="1" stop-color="#eef2a9"/></linearGradient><clipPath id="c"><circle class="a" cx="32.5" cy="32.5" r="32.5"/></clipPath><linearGradient id="d" x1="0.927" y1="0.959" x2="0.14" y2="0.126" gradientUnits="objectBoundingBox"><stop offset="0" stop-color="#8f4600"/><stop offset="1" stop-color="#c57a0c"/></linearGradient></defs><g transform="translate(-157 -531)"><g transform="translate(-1495 -1384)"><circle class="b" cx="32.5" cy="32.5" r="32.5" transform="translate(1652 1915)"/><g class="c" transform="translate(1652 1915)"><path class="d" d="M20,40A20.005,20.005,0,0,1,12.215,1.572a20.005,20.005,0,0,1,15.57,36.857A19.875,19.875,0,0,1,20,40ZM20,8.571A11.429,11.429,0,1,0,31.429,20,11.442,11.442,0,0,0,20,8.571Z" transform="translate(-11 -7)"/><path class="e" d="M38,42H6a6.007,6.007,0,0,1-6-6V6A6.007,6.007,0,0,1,6,0H38a6.007,6.007,0,0,1,6,6V36A6.007,6.007,0,0,1,38,42ZM11.656,8.542a3,3,0,0,0-3,3V30.458a3,3,0,0,0,3,3H32.344a3,3,0,0,0,3-3V11.543a3,3,0,0,0-3-3Z" transform="translate(27 36)"/></g></g><g transform="translate(-1842 -1313)"><path class="f" d="M6,0H28a6,6,0,0,1,6,6V35a6,6,0,0,1-6,6H6a6,6,0,0,1-6-6V6A6,6,0,0,1,6,0Z" transform="translate(2012 1854)"/><g transform="translate(1611.503 1916.523)"><path class="g" d="M70.74,98.637H63.047a1.289,1.289,0,1,0,0,2.578H70.74a1.289,1.289,0,1,0,0-2.578Zm0,0" transform="translate(344.739 -152.16)"/><path class="g" d="M70.74,158.641H63.047a1.289,1.289,0,1,0,0,2.578H70.74a1.289,1.289,0,1,0,0-2.578Zm0,0" transform="translate(344.739 -207.008)"/><path class="g" d="M70.74,218.645H63.047a1.289,1.289,0,1,0,0,2.578H70.74a1.289,1.289,0,1,0,0-2.578Zm0,0" transform="translate(344.739 -261.855)"/><path class="g" d="M70.74,278.648H63.047a1.289,1.289,0,1,0,0,2.578H70.74a1.289,1.289,0,1,0,0-2.578Zm0,0" transform="translate(344.739 -316.701)"/><path class="g" d="M70.74,339.656H63.047a1.289,1.289,0,1,0,0,2.578H70.74a1.289,1.289,0,1,0,0-2.578Zm0,0" transform="translate(344.739 -372.466)"/><path class="g" d="M70.74,98.637H63.047a1.289,1.289,0,1,0,0,2.578H70.74a1.289,1.289,0,1,0,0-2.578Zm0,0" transform="translate(351.739 -152.16)"/><path class="g" d="M70.74,158.641H63.047a1.289,1.289,0,1,0,0,2.578H70.74a1.289,1.289,0,1,0,0-2.578Zm0,0" transform="translate(351.739 -207.008)"/><path class="g" d="M70.74,98.637H63.047a1.289,1.289,0,1,0,0,2.578H70.74a1.289,1.289,0,1,0,0-2.578Zm0,0" transform="translate(355.739 -152.16)"/><path class="g" d="M70.74,158.641H63.047a1.289,1.289,0,1,0,0,2.578H70.74a1.289,1.289,0,1,0,0-2.578Zm0,0" transform="translate(355.739 -207.008)"/></g><g transform="translate(2029 1872.004)"><ellipse class="h" cx="7.229" cy="7.229" rx="7.229" ry="7.229" transform="translate(0.833 1.134)"/><path class="i" d="M3.375,2.746,6.443,15.155" transform="translate(0.307 0.222)"/><path class="i" d="M3.375,2.746,6.443,15.155" transform="translate(3.579 -0.869)"/><path class="j" d="M14.534,16.806l2.273-2.272,6.572,6.572L21.107,23.38ZM2.362,13.763a8.062,8.062,0,1,1,11.4-11.4,8.062,8.062,0,0,1,.563,10.777l1.318,1.317-1.189,1.189-1.318-1.317a8.062,8.062,0,0,1-10.776-.564ZM3.539,3.539a6.4,6.4,0,1,0,9.046,9.046A6.4,6.4,0,1,0,3.539,3.539Z" transform="translate(0 0.301)"/><rect class="k" width="3.213" height="0.877" transform="translate(13.914 16.488) rotate(-45)"/><rect class="k" width="3.213" height="0.877" transform="translate(21.107 23.681) rotate(-45)"/></g></g></g></svg>