<svg xmlns="http://www.w3.org/2000/svg" xmlns:xlink="http://www.w3.org/1999/xlink" width="65" height="65" viewBox="0 0 65 65"><defs><style>.a{stroke:#90bfff;fill:url(#a);}.b{fill:url(#b);}.c{clip-path:url(#c);}.d{fill:#a9abeb;}.e{fill:url(#d);}.f{fill:url(#e);}.g{fill:#4087cf;}.h,.i{fill:#fff;}.i{stroke:#fff;}.j{fill:#b1d2f6;}</style><linearGradient id="a" x1="0.187" y1="0.802" x2="0.879" y2="0.253" gradientUnits="objectBoundingBox"><stop offset="0" stop-color="#81b6ff"/><stop offset="1" stop-color="#a997ff"/></linearGradient><linearGradient id="b" x1="0.187" y1="0.802" x2="0.879" y2="0.253" gradientUnits="objectBoundingBox"><stop offset="0" stop-color="#b5b4f0"/><stop offset="1" stop-color="#b1d4f7"/></linearGradient><clipPath id="c"><circle class="a" cx="32.5" cy="32.5" r="32.5"/></clipPath><linearGradient id="d" x1="0.376" x2="0.5" y2="0.651" gradientUnits="objectBoundingBox"><stop offset="0" stop-color="#5653b6"/><stop offset="1" stop-color="#7bb1e8"/></linearGradient><linearGradient id="e" x1="0.5" y1="0.215" x2="0.5" y2="1.195" gradientUnits="objectBoundingBox"><stop offset="0" stop-color="#3633ab"/><stop offset="1" stop-color="#3787d8"/></linearGradient></defs><g transform="translate(-270 -531)"><g transform="translate(-1728 -1312)"><g transform="translate(346 -72)"><circle class="b" cx="32.5" cy="32.5" r="32.5" transform="translate(1652 1915)"/><g class="c" transform="translate(1652 1915)"><path class="d" d="M20,40A20.005,20.005,0,0,1,12.215,1.572a20.005,20.005,0,0,1,15.57,36.857A19.875,19.875,0,0,1,20,40ZM20,8.571A11.429,11.429,0,1,0,31.429,20,11.442,11.442,0,0,0,20,8.571Z" transform="translate(-11 -7)"/><path class="d" d="M38,42H6a6.007,6.007,0,0,1-6-6V6A6.007,6.007,0,0,1,6,0H38a6.007,6.007,0,0,1,6,6V36A6.007,6.007,0,0,1,38,42ZM11.656,8.542a3,3,0,0,0-3,3V30.458a3,3,0,0,0,3,3H32.344a3,3,0,0,0,3-3V11.543a3,3,0,0,0-3-3Z" transform="translate(27 36)"/></g></g></g><g transform="translate(-1691.558 299.143)"><g transform="translate(1974.558 179.308)"><path class="e" d="M160.485,164.554a1.048,1.048,0,0,1-1.048,1.049h-3.474a1.048,1.048,0,0,1-1.049-1.049l-4.339-17.9a1.05,1.05,0,0,1,1.05-1.049H155.1a1.049,1.049,0,0,1,1.049,1.049Z" transform="translate(-137.729 -70.486)"/><path class="f" d="M0,13.779V1.966H9.871v.97h1.235v.182c.469-.6.992-1.272,1.394-1.768C12.979.423,12.922,0,13.158,0l2.656,1.472c.131.2-.117.46.031.715a.881.881,0,0,1,.133.547h4.2a3.466,3.466,0,0,1,.388.021H24.8a1.448,1.448,0,0,1,.615,2.759H25.6a1.449,1.449,0,0,1,.3,2.866,1.448,1.448,0,0,1-.574,2.778H25.16a1.448,1.448,0,0,1-.942,2.548h-10.2a1.431,1.431,0,0,1-.312-.034,3.71,3.71,0,0,1-2.6-1.174v.665l-.142-.822a4.208,4.208,0,0,1-1-2.743V6.812q0-.118.006-.234l-.1-.585v7.786Z" transform="translate(0 86.082)"/><g transform="translate(1.361 92.985)"><circle class="g" cx="0.97" cy="0.97" r="0.97" transform="translate(4.236)"/><circle class="g" cx="0.97" cy="0.97" r="0.97"/></g><path class="h" d="M.935,17.783V6.4l24.5-5h0l.843-.172V22.956Z" transform="translate(7.598 68.549)"/><g transform="translate(37.557 74.569)"><path class="i" d="M446.987,206.709a.367.367,0,0,1-.366-.368h0a.366.366,0,0,1,.366-.365h4.173a.365.365,0,0,1,.366.365h0a.367.367,0,0,1-.366.368Z" transform="translate(-446.076 -200.273)"/><path class="i" d="M440.344,238.888a.366.366,0,0,1,0-.518h0a.369.369,0,0,1,.518,0l2.951,2.951a.369.369,0,0,1,0,.519h0a.369.369,0,0,1-.518,0Z" transform="translate(-440.236 -229.805)"/><path class="i" d="M440.345,142.17a.364.364,0,0,0,0,.517h0a.366.366,0,0,0,.518,0l2.951-2.951a.369.369,0,0,0,0-.518h0a.368.368,0,0,0-.519,0Z" transform="translate(-440.237 -139.112)"/></g></g><rect class="j" width="1.761" height="10.226" transform="translate(1983.903 268.327)"/></g><path class="g" d="M91.186,141.8a1.156,1.156,0,0,1-1.064,1.228h0a1.155,1.155,0,0,1-1.064-1.228V130.421a1.156,1.156,0,0,1,1.065-1.228h0a1.155,1.155,0,0,1,1.064,1.228Z" transform="translate(201.54 422.981)"/><path class="g" d="M391.9,91.505a1.157,1.157,0,0,1-1.064,1.228h0a1.158,1.158,0,0,1-1.065-1.23V69.779a1.156,1.156,0,0,1,1.064-1.23h0a1.156,1.156,0,0,1,1.066,1.23Z" transform="translate(-73.522 478.451)"/></g></svg>