<svg xmlns="http://www.w3.org/2000/svg" xmlns:xlink="http://www.w3.org/1999/xlink" width="65" height="65" viewBox="0 0 65 65"><defs><style>.a{stroke:#90bfff;fill:url(#a);}.b{fill:url(#b);}.c{clip-path:url(#c);}.d{fill:#8fa1f4;}.e{fill:#83acf4;}.f{fill:#fff;}.g{fill:url(#d);}</style><linearGradient id="a" x1="0.187" y1="0.802" x2="0.879" y2="0.253" gradientUnits="objectBoundingBox"><stop offset="0" stop-color="#81b6ff"/><stop offset="1" stop-color="#a997ff"/></linearGradient><linearGradient id="b" x1="0.187" y1="0.802" x2="0.879" y2="0.253" gradientUnits="objectBoundingBox"><stop offset="0" stop-color="#8dc1ff"/><stop offset="1" stop-color="#afa1ff"/></linearGradient><clipPath id="c"><circle class="a" cx="32.5" cy="32.5" r="32.5"/></clipPath><linearGradient id="d" x1="0.167" y1="0.854" x2="0.869" y2="0.121" gradientUnits="objectBoundingBox"><stop offset="0" stop-color="#aca3ff"/><stop offset="1" stop-color="#1f458a"/></linearGradient></defs><g transform="translate(-1644 -3422)"><g transform="translate(-354 1579)"><g transform="translate(346 -72)"><circle class="b" cx="32.5" cy="32.5" r="32.5" transform="translate(1652 1915)"/><g class="c" transform="translate(1652 1915)"><path class="d" d="M20,40A20.005,20.005,0,0,1,12.215,1.572a20.005,20.005,0,0,1,15.57,36.857A19.875,19.875,0,0,1,20,40ZM20,8.571A11.429,11.429,0,1,0,31.429,20,11.442,11.442,0,0,0,20,8.571Z" transform="translate(-11 -7)"/><path class="e" d="M38,42H6a6.007,6.007,0,0,1-6-6V6A6.007,6.007,0,0,1,6,0H38a6.007,6.007,0,0,1,6,6V36A6.007,6.007,0,0,1,38,42ZM11.656,8.542a3,3,0,0,0-3,3V30.458a3,3,0,0,0,3,3H32.344a3,3,0,0,0,3-3V11.543a3,3,0,0,0-3-3Z" transform="translate(27 36)"/></g></g></g><g transform="translate(1654.987 3408.12)"><g transform="translate(2.79 28.88)"><path class="f" d="M24.579,36V30.217c0-.014.007-.025.008-.039a.626.626,0,0,1,.039-.288l5.061-12.506A11.177,11.177,0,0,0,29.449,9.1,15.787,15.787,0,0,0,15.594,0h-.509a12.013,12.013,0,0,0-5,1.294,12.161,12.161,0,0,0-6.719,10.92v2.571c0,.015-.008.028-.008.043a.693.693,0,0,1-.026.129.592.592,0,0,1-.043.12.287.287,0,0,1-.015.042L0,20.571H3.62a.643.643,0,0,1,.6.685L3.775,27.8a1.949,1.949,0,0,0,1.039,2.11,1.245,1.245,0,0,0,.68.108l4.231-.458a.629.629,0,0,1,.514.186l.012.01c.005.006.008.014.013.02a.62.62,0,0,1,.111.169.734.734,0,0,1,.023.072.624.624,0,0,1,.035.113c0,.015,0,.029,0,.044s.008.026.008.04V36Z"/></g><path class="g" d="M232.316,68.578a9.5,9.5,0,1,1-9.5-9.511A9.516,9.516,0,0,1,232.316,68.578Z" transform="translate(-194.303 -8.187)"/><g transform="translate(0.094 0.25)"><path class="f" d="M323.566,121.85a.529.529,0,0,0-.322.5,1.015,1.015,0,1,1-2.03,0,2.59,2.59,0,0,1,1.015-2.055,2.439,2.439,0,0,1,.609-.34,1.7,1.7,0,0,0,1.086-1.712,1.717,1.717,0,0,0-1.605-1.573l-.09,0a1.679,1.679,0,0,0-1.2.5,1.015,1.015,0,0,1-1.436-1.435,3.743,3.743,0,0,1,2.638-1.092c.064,0,.128,0,.192,0a3.73,3.73,0,0,1,1.145,7.207Z" transform="translate(-293.375 -61.008)"/><path class="f" d="M349.692,257.953v1.056a1.015,1.015,0,0,1-2.03,0v-1.056a1.015,1.015,0,1,1,2.03,0Z" transform="translate(-319.823 -193.678)"/></g></g></g></svg>