<svg xmlns="http://www.w3.org/2000/svg" xmlns:xlink="http://www.w3.org/1999/xlink" width="80" height="80" viewBox="0 0 80 80"><defs><style>.a{fill:#fff;}.b{fill:url(#c);}.c{fill:url(#d);}.d{filter:url(#a);}</style><filter id="a" x="0" y="0" width="80" height="80" filterUnits="userSpaceOnUse"><feOffset dy="8" input="SourceAlpha"/><feGaussianBlur stdDeviation="5" result="b"/><feFlood flood-opacity="0.188"/><feComposite operator="in" in2="b"/><feComposite in="SourceGraphic"/></filter><linearGradient id="c" x1="0.077" y1="0.063" x2="1" y2="1" gradientUnits="objectBoundingBox"><stop offset="0" stop-color="#fee133"/><stop offset="1" stop-color="#fea71a"/></linearGradient><linearGradient id="d" x1="0.146" y1="0.146" x2="0.852" y2="0.852" gradientUnits="objectBoundingBox"><stop offset="0" stop-color="#66c1fe"/><stop offset="1" stop-color="#1a90ea"/></linearGradient></defs><g transform="translate(-245 -501)"><g class="d" transform="matrix(1, 0, 0, 1, 245, 501)"><rect class="a" width="50" height="50" rx="16" transform="translate(15 7)"/></g><g transform="translate(218.619 210.948)"><g transform="translate(52.381 306.052)"><path class="b" d="M85.013,29.5H65.044a.824.824,0,0,1-.777-.864V.864A.824.824,0,0,1,65.044,0H85.013a.824.824,0,0,1,.777.864V28.638A.824.824,0,0,1,85.013,29.5Z" transform="translate(-64.267)"/><rect class="a" width="10.739" height="1.215" rx="0.607" transform="translate(3.269 19.621)"/><rect class="a" width="14.568" height="1.215" rx="0.607" transform="translate(3.334 4.82)"/><rect class="a" width="14.568" height="1.215" rx="0.607" transform="translate(3.334 8.326)"/><rect class="a" width="14.568" height="1.215" rx="0.607" transform="translate(3.334 12.076)"/><rect class="a" width="14.568" height="1.215" rx="0.607" transform="translate(3.334 15.826)"/></g><g transform="translate(65.294 322.002)"><g transform="translate(0.087 0.049)"><circle class="c" cx="8" cy="8" r="8"/></g><g transform="translate(3.844 6.03)"><path class="a" d="M95.351,115.848h1.343a.416.416,0,1,0,0-.832H95.351a1.059,1.059,0,0,0-1.058,1.058v3.373a.416.416,0,0,0,.832,0v-1.015h1.569a.416.416,0,1,0,0-.831H95.125v-1.527a.227.227,0,0,1,.226-.226Zm0,0" transform="translate(-94.293 -115.016)"/><path class="a" d="M212.307,115.012a1.41,1.41,0,0,0-1.408,1.408v3.023a.416.416,0,1,0,.832,0v-1.037h1.154v1.037a.416.416,0,1,0,.831,0V116.42A1.41,1.41,0,0,0,212.307,115.012Zm.577,2.562H211.73V116.42a.577.577,0,0,1,1.154,0Zm0,0" transform="translate(-207.528 -115.012)"/><g transform="translate(6.741 0)"><path class="a" d="M335.661,119.031h-.329v-2.607a1.408,1.408,0,0,0-2.816,0v2.03a1.41,1.41,0,0,0,1.408,1.408h1.737a.416.416,0,1,0,0-.832Zm-2.314-.577v-2.03a.577.577,0,0,1,1.153,0v2.607h-.577A.577.577,0,0,1,333.347,118.454Zm0,0" transform="translate(-332.516 -115.016)"/></g></g></g></g></g></svg>