<svg xmlns="http://www.w3.org/2000/svg" xmlns:xlink="http://www.w3.org/1999/xlink" width="86" height="86" viewBox="0 0 86 86"><defs><style>.a,.h{fill:#fff;}.b{fill:url(#c);}.c{fill:url(#d);}.d{fill:url(#e);}.e{fill:url(#f);}.f{fill:url(#g);}.g{fill:url(#h);}.h{stroke:#fff;stroke-width:0.2px;}.i{filter:url(#a);}</style><filter id="a" x="0" y="0" width="86" height="86" filterUnits="userSpaceOnUse"><feOffset dy="8" input="SourceAlpha"/><feGaussianBlur stdDeviation="5" result="b"/><feFlood flood-opacity="0.188"/><feComposite operator="in" in2="b"/><feComposite in="SourceGraphic"/></filter><linearGradient id="c" x1="0.302" y1="0.283" x2="0.431" y2="0.648" gradientUnits="objectBoundingBox"><stop offset="0" stop-color="#fc7c7a"/><stop offset="1" stop-color="#d5363f"/></linearGradient><linearGradient id="d" x1="0.154" y1="0.168" x2="0.782" y2="1" gradientUnits="objectBoundingBox"><stop offset="0" stop-color="#ef6560"/><stop offset="1" stop-color="#a14997"/></linearGradient><linearGradient id="e" x1="0.684" y1="0.884" x2="0.819" y2="0.395" gradientUnits="objectBoundingBox"><stop offset="0" stop-color="#fffdfb"/><stop offset="1" stop-color="#fbd5b5"/></linearGradient><linearGradient id="f" x1="0.212" y1="0.5" x2="0.766" y2="0.722" gradientUnits="objectBoundingBox"><stop offset="0" stop-color="#fff"/><stop offset="1" stop-color="#ffe1c8"/></linearGradient><linearGradient id="g" x1="0.637" x2="0.635" y2="1" gradientUnits="objectBoundingBox"><stop offset="0" stop-color="#cd6eab"/><stop offset="1" stop-color="#ffc1dc"/></linearGradient><linearGradient id="h" x1="0.146" y1="0.146" x2="0.852" y2="0.852" gradientUnits="objectBoundingBox"><stop offset="0" stop-color="#b793f9"/><stop offset="1" stop-color="#6f41ef"/></linearGradient></defs><g transform="translate(-125 -501)"><g class="i" transform="matrix(1, 0, 0, 1, 125, 501)"><rect class="a" width="56" height="56" rx="14" transform="translate(15 7)"/></g><g transform="translate(0.188 1.851)"><g transform="translate(154.094 514.748)"><path class="b" d="M164.349,80.7c-2.2-8.043-2.155-8.6-.607-16.1a8.765,8.765,0,1,0-17.106,0c1.548,7.507,1.6,8.06-.607,16.1a9.551,9.551,0,0,0-.388,2.7c0,5.274,4.275,4,9.549,4s9.549,1.273,9.549-4A9.551,9.551,0,0,0,164.349,80.7Z" transform="translate(-145.639 -53.913)"/><path class="c" d="M159.929,301.861H153.56a8.937,8.937,0,0,0-3.4.482,6.821,6.821,0,0,0-4.52,6.153v6.2a1,1,0,0,0,1.062.914h20.086a1,1,0,0,0,1.062-.914v-6.2a6.832,6.832,0,0,0-4.575-6.175A8.949,8.949,0,0,0,159.929,301.861Z" transform="translate(-147.196 -280.035)"/><rect class="d" width="6" height="8" transform="translate(6.717 16.401)"/><path class="e" d="M194,112.464a6.418,6.418,0,0,1-12.8-.719v-4.177a5.926,5.926,0,0,1,1.569-4.025A16.77,16.77,0,0,0,194,112.464Z" transform="translate(-178.077 -99.174)"/><path class="a" d="M196.129,310.707l4.762-10.626a16.76,16.76,0,0,0-2.024-.22l-5.476.064a8.011,8.011,0,0,0-1.687.156Z" transform="translate(-186.58 -278.211)"/><path class="f" d="M226.864,302.332a2.664,2.664,0,0,0,1.563-2.472h-4.951a2.664,2.664,0,0,0,1.563,2.472l-.813,4.857,1.531,3.625,1.672-3.781Z" transform="translate(-216.18 -278.21)"/></g><g transform="translate(154.23 518.831)"><g transform="translate(13.581 17.318)"><circle class="g" cx="9" cy="9" r="9"/></g></g><g transform="translate(-360.602 152.967)"><g transform="translate(532.414 387.497)"><line class="h" y1="0.109" transform="translate(6.099 2.825)"/><path class="h" d="M537.277,393.558l-.5-.453a2.4,2.4,0,0,0,.988-1.935v-1.217a2.032,2.032,0,0,0-2.034-2.027h-.737a2.02,2.02,0,0,0-2.02,2.02v1.224a2.41,2.41,0,0,0,.975,1.931l-.508.457a2.182,2.182,0,0,0-2.143,1.844v1.773a.184.184,0,0,0,.184.184h7.759a.184.184,0,0,0,.184-.184V395.4A2.181,2.181,0,0,0,537.277,393.558Zm-.295.229-.6,1.364-.76-.375.886-1.418Zm-1.625,1.269.573.287-.153.435h-.841l-.141-.441Zm0-.554-.638-1.025a2.388,2.388,0,0,0,1.282,0Zm-2.013-3.253c0-.026,0-.052,0-.078h0v-1.217a1.66,1.66,0,0,1,1.651-1.658h.737a1.66,1.66,0,0,1,1.665,1.654v.8h0v.419a2.027,2.027,0,0,1-4.053.078Zm.866,2.109.885,1.417-.754.377-.6-1.364Zm.163,3.635h-2.71V395.4c0-.759.923-1.414,1.729-1.474l.69,1.549a.184.184,0,0,0,.243.094l.007,0,.131-.066.151.465Zm.379,0,.2-.848h.815l.193.848Zm4.3,0h-2.716l-.233-1.021.16-.462.12.06a.184.184,0,0,0,.247-.082l0-.008.689-1.549c.806.06,1.729.715,1.729,1.474Z" transform="translate(-531.293 -387.926)"/></g><g transform="translate(538.395 386.181)"><path class="a" d="M543.349,388.671a.2.2,0,0,0-.2-.15h-.7c-.026-.059-.054-.116-.083-.172l.465-.465a.2.2,0,0,0,.023-.261,3.376,3.376,0,0,0-1.041-.968.2.2,0,0,0-.248.031l-.49.49c-.038-.016-.075-.03-.114-.044v-.675a.2.2,0,0,0-.161-.2,3.382,3.382,0,0,0-1.419,0,.2.2,0,0,0-.161.2v.582a4.786,4.786,0,0,1,.33.39.2.2,0,0,0,.078-.149v-.655a3.011,3.011,0,0,1,.924,0v.655a.2.2,0,0,0,.148.2,2.056,2.056,0,0,1,.33.126.2.2,0,0,0,.233-.039l.474-.474a2.98,2.98,0,0,1,.68.629l-.451.451a.2.2,0,0,0-.029.25,2.319,2.319,0,0,1,.184.377.2.2,0,0,0,.19.131h.678a2.965,2.965,0,0,1,.066.627,2.86,2.86,0,0,1-.015.3h-.634a.2.2,0,0,0-.2.161,2.2,2.2,0,0,1-.165.481.2.2,0,0,0,.039.232l.27.27.012.014.192.192a3,3,0,0,1-.629.678l-.45-.45a.2.2,0,0,0-.251-.03,2.1,2.1,0,0,1-.525.232.2.2,0,0,0-.148.2v.655a2.946,2.946,0,0,1-.5.033q-.1.2-.211.384a3.339,3.339,0,0,0,.961-.048.2.2,0,0,0,.161-.2v-.675a2.394,2.394,0,0,0,.337-.149l.465.466a.2.2,0,0,0,.262.023,3.412,3.412,0,0,0,.967-1.04.2.2,0,0,0-.031-.249l-.295-.3-.011-.013-.183-.183a2.559,2.559,0,0,0,.1-.277h.653a.2.2,0,0,0,.2-.173,3.425,3.425,0,0,0,.042-.534A3.339,3.339,0,0,0,543.349,388.671Z" transform="translate(-539.222 -386.181)"/><path class="a" d="M541.832,390.167h0a1.5,1.5,0,0,0-1.5-1.5c-.042,0-.08.009-.121.012q.106.2.195.4a1.084,1.084,0,0,1,1.013,1.08h0a1.086,1.086,0,0,1-.636.986c0,.149-.015.3-.033.443A1.491,1.491,0,0,0,541.832,390.167Z" transform="translate(-539.466 -386.793)"/></g></g></g></g></svg>