<svg xmlns="http://www.w3.org/2000/svg" xmlns:xlink="http://www.w3.org/1999/xlink" width="80" height="80" viewBox="0 0 80 80"><defs><style>.a,.e{fill:#fff;}.b,.f,.j{fill:none;}.c{fill:#f25011;}.d{fill:url(#c);}.e,.f{stroke:#fff;}.e{stroke-width:0.1px;}.f{stroke-width:0.5px;}.g{opacity:0.36;}.h{fill:#ffc398;}.i{opacity:0.5;}.j{stroke:#ff974c;stroke-linecap:round;stroke-miterlimit:10;}.k{fill:url(#d);}.l{stroke:none;}.m{filter:url(#a);}</style><filter id="a" x="0" y="0" width="80" height="80" filterUnits="userSpaceOnUse"><feOffset dy="8" input="SourceAlpha"/><feGaussianBlur stdDeviation="5" result="b"/><feFlood flood-opacity="0.188"/><feComposite operator="in" in2="b"/><feComposite in="SourceGraphic"/></filter><linearGradient id="c" x1="0.5" x2="0.5" y2="1" gradientUnits="objectBoundingBox"><stop offset="0" stop-color="#ffa15d"/><stop offset="1" stop-color="#ff7816"/></linearGradient><linearGradient id="d" x1="0.146" y1="0.146" x2="0.852" y2="0.852" gradientUnits="objectBoundingBox"><stop offset="0" stop-color="#8296ff"/><stop offset="0.338" stop-color="#6c87ff"/><stop offset="1" stop-color="#3964ff"/></linearGradient></defs><g transform="translate(-246 -381)"><g class="m" transform="matrix(1, 0, 0, 1, 246, 381)"><rect class="a" width="50" height="50" rx="16" transform="translate(15 7)"/></g><g transform="translate(-7.934 -16.782)"><g transform="translate(280.081 413.782)"><g transform="translate(0 0)"><path class="b" d="M152.361,129.243l.119.407v-.543Z" transform="translate(-152.361 -125.096)"/><g transform="translate(0.012)"><path class="b" d="M152.581,355.447V354.9l-.119.408Z" transform="translate(-152.462 -327.971)"/><path class="c" d="M153.378,96.1v2.6l0,5.861.007,11.469,0,5.861v1.916a1.608,1.608,0,0,0,1.336,1.405,2.73,2.73,0,0,0,.721.1h1.466l16.14-.005a2.6,2.6,0,0,0,1.162-.264,1.446,1.446,0,0,0,.894-1.24L175.1,96.092a1.385,1.385,0,0,0-.735-1.15,2.54,2.54,0,0,0-1.322-.352l-17.606.006C154.3,94.6,153.377,95.269,153.378,96.1Z" transform="translate(-153.272 -94.59)"/><path class="d" d="M154.427,101.517v2.508l0,5.65.007,11.056,0,5.65v1.847a1.566,1.566,0,0,0,1.321,1.355,2.765,2.765,0,0,0,.713.093h1.449l15.959-.005a2.627,2.627,0,0,0,1.149-.254,1.4,1.4,0,0,0,.884-1.195L175.9,101.51a1.333,1.333,0,0,0-.727-1.108,2.562,2.562,0,0,0-1.308-.339l-17.408.006C155.337,100.068,154.427,100.717,154.427,101.517Z" transform="translate(-154.199 -99.426)"/></g><g transform="translate(1.038 4.279)"><path class="a" d="M181.179,131.762l.014,21.462c0,.192-.225.347-.5.347l-18.874.006c-.278,0-.5-.155-.5-.347l-.014-21.462c0-.192.225-.347.5-.347l18.874-.006C180.953,131.415,181.178,131.57,181.179,131.762Z" transform="translate(-161.297 -131.415)"/></g><path class="e" d="M223.741,367.506a.433.433,0,0,1-.433-.432V365.8a.433.433,0,0,1,.432-.433h1.278a.433.433,0,0,1,.433.433v1.278a.433.433,0,0,1-.432.433Zm1.277-1.96H223.74a.249.249,0,0,0-.249.249v1.278a.249.249,0,0,0,.249.249h1.278a.249.249,0,0,0,.249-.249v-1.278A.249.249,0,0,0,225.019,365.546Z" transform="translate(-213.251 -338.233)"/><g transform="translate(4.217 27.337)"><path class="e" d="M183.387,366.678a.092.092,0,1,1,0-.184h1.23a.092.092,0,0,1,0,.184Z" transform="translate(-183.295 -366.494)"/><path class="e" d="M183.388,370.293a.092.092,0,0,1,0-.184h1.231a.092.092,0,0,1,0,.184Z" transform="translate(-183.296 -369.444)"/><path class="e" d="M183.39,373.952a.092.092,0,0,1,0-.184h1.23a.092.092,0,0,1,0,.184Z" transform="translate(-183.297 -372.431)"/></g><path class="a" d="M271.216,367.563a.058.058,0,0,1-.041-.017l-.611-.611.6-.6a.058.058,0,0,1,.082.082l-.513.514.529.529a.058.058,0,0,1-.041.1Z" transform="translate(-253.482 -338.062)"/><g class="f" transform="translate(9.756 1.249)"><circle class="l" cx="0.937" cy="0.937" r="0.937"/><circle class="b" cx="0.937" cy="0.937" r="0.687"/></g></g><g transform="translate(2.391 6.079)"><g transform="translate(0 0)"><rect class="c" width="4.407" height="4.407" rx="1"/><g class="g" transform="translate(1.252 1.274)"><path class="h" d="M184.345,219.2a.951.951,0,1,1-.951-.951A.951.951,0,0,1,184.345,219.2Z" transform="translate(-182.443 -218.249)"/></g><g transform="translate(5.612 0.357)"><g class="i"><line class="j" x2="6.611"/></g><g class="i" transform="translate(0 1.074)"><line class="j" x2="10.331"/></g><g class="i" transform="translate(0 2.147)"><line class="j" x2="10.331"/></g><g class="i" transform="translate(0 3.221)"><line class="j" x2="10.331"/></g></g><g transform="translate(0 6.868)"><rect class="c" width="4.407" height="4.407" rx="1"/><g class="g" transform="translate(1.252 1.274)"><path class="h" d="M184.345,219.2a.951.951,0,1,1-.951-.951A.951.951,0,0,1,184.345,219.2Z" transform="translate(-182.443 -218.249)"/></g><g transform="translate(5.612 0.357)"><g class="i"><line class="j" x2="6.611"/></g><g class="i" transform="translate(0 1.074)"><line class="j" x2="10.331"/></g><g class="i" transform="translate(0 2.147)"><line class="j" x2="10.331"/></g><g class="i" transform="translate(0 3.221)"><line class="j" x2="10.331"/></g></g></g><g transform="translate(0 13.737)"><rect class="c" width="4.407" height="4.407" rx="1"/><g class="g" transform="translate(1.252 1.274)"><path class="h" d="M184.345,219.2a.951.951,0,1,1-.951-.951A.951.951,0,0,1,184.345,219.2Z" transform="translate(-182.443 -218.249)"/></g><g transform="translate(5.612 0.357)"><g class="i"><line class="j" x2="6.611"/></g><g class="i" transform="translate(0 1.074)"><line class="j" x2="10.331"/></g><g class="i" transform="translate(0 2.147)"><line class="j" x2="10.331"/></g><g class="i" transform="translate(0 3.221)"><line class="j" x2="10.331"/></g></g></g></g></g></g><g transform="translate(293.934 429.78)"><path class="k" d="M8,0A8,8,0,1,1,0,8,8,8,0,0,1,8,0Z" transform="translate(0 0)"/><g transform="translate(3.19 3.195)"><g transform="translate(7.626 2.8)"><path class="a" d="M423.353,150.543h-1.086a.272.272,0,1,1,0-.543h1.086a.272.272,0,0,1,0,.543Z" transform="translate(-421.98 -149.999)"/><path class="a" d="M423.353,332.543h-1.086a.272.272,0,1,1,0-.543h1.086a.272.272,0,0,1,0,.543Z" transform="translate(-421.98 -328.705)"/><path class="a" d="M423.353,242.543h-1.086a.272.272,0,1,1,0-.543h1.086a.272.272,0,0,1,0,.543Z" transform="translate(-421.98 -240.334)"/></g><path class="a" d="M422.814,67.266h-.543a.278.278,0,0,1,0-.556h.543a.275.275,0,0,0,.272-.278v-5.6a.275.275,0,0,0-.272-.278h-.543a.278.278,0,0,1,0-.556h.543a.826.826,0,0,1,.814.835v5.6A.826.826,0,0,1,422.814,67.266Z" transform="translate(-414.359 -58.913)"/><g transform="translate(0.815)"><path class="a" d="M51.554,9.439h-5.74A.823.823,0,0,1,45,8.61V8.057a.272.272,0,1,1,.543,0V8.61a.274.274,0,0,0,.272.276h5.74a.274.274,0,0,0,.271-.276V.829a.274.274,0,0,0-.271-.276h-5.74a.274.274,0,0,0-.272.276v.553a.272.272,0,1,1-.543,0V.829A.823.823,0,0,1,45.815,0h5.74a.823.823,0,0,1,.814.829V8.61a.823.823,0,0,1-.815.829Z" transform="translate(-45)"/><path class="a" d="M45.272,274.173A.272.272,0,0,1,45,273.9v-1.629a.272.272,0,0,1,.543,0V273.9A.272.272,0,0,1,45.272,274.173Z" transform="translate(-45 -266.958)"/><path class="a" d="M45.272,122.209a.272.272,0,0,1-.272-.271v-1.665a.272.272,0,1,1,.543,0v1.665A.272.272,0,0,1,45.272,122.209Z" transform="translate(-45 -117.775)"/></g><g transform="translate(0 1.086)"><path class="a" d="M1.9,61.629H.814A.815.815,0,0,1,.814,60H1.9a.815.815,0,0,1,0,1.629ZM.814,60.543a.272.272,0,0,0,0,.543H1.9a.272.272,0,0,0,0-.543Z" transform="translate(0 -60)"/><path class="a" d="M1.91,213.629H.824a.815.815,0,0,1,0-1.629H1.91a.815.815,0,0,1,0,1.629ZM.824,212.543a.272.272,0,0,0,0,.543H1.91a.272.272,0,0,0,0-.543Z" transform="translate(-0.009 -209.163)"/><path class="a" d="M1.9,363.629H.814a.815.815,0,1,1,0-1.629H1.9a.815.815,0,0,1,0,1.629ZM.814,362.543a.272.272,0,1,0,0,.543H1.9a.272.272,0,0,0,0-.543Z" transform="translate(0 -356.363)"/><path class="a" d="M213.9,96.18a1.931,1.931,0,0,1-1.9-1.954V91.955A1.931,1.931,0,0,1,213.9,90a.828.828,0,0,1,.814.837V91.4a.828.828,0,0,1-.814.837.276.276,0,0,0-.271.28v1.154a.276.276,0,0,0,.271.28.828.828,0,0,1,.814.837v.558a.828.828,0,0,1-.814.838Zm0-5.621a1.383,1.383,0,0,0-1.358,1.4v2.271a1.383,1.383,0,0,0,1.358,1.4.276.276,0,0,0,.272-.28v-.558a.276.276,0,0,0-.272-.28.828.828,0,0,1-.814-.837V92.513a.828.828,0,0,1,.814-.838.276.276,0,0,0,.272-.28v-.558A.276.276,0,0,0,213.9,90.558Z" transform="translate(-208.162 -89.457)"/></g></g></g></g></g></svg>