<svg xmlns="http://www.w3.org/2000/svg" width="15.657" height="20.789" viewBox="0 0 15.657 20.789"><defs><style>.a{fill:#ffb301;}</style></defs><g transform="translate(4.75)"><path class="a" d="M157.873,151.993a2.246,2.246,0,1,0-2.249-2.244A2.246,2.246,0,0,0,157.873,151.993Zm0-3.623a1.379,1.379,0,1,1-1.379,1.379A1.379,1.379,0,0,1,157.873,148.37Zm0,0" transform="translate(-154.795 -142.368)"/><path class="a" d="M121.435,304.51h6.036a.436.436,0,0,0,.435-.435,3.607,3.607,0,0,0-1.009-2.553,3.434,3.434,0,0,0-4.888,0A3.607,3.607,0,0,0,121,304.075.436.436,0,0,0,121.435,304.51Zm1.2-2.379a2.562,2.562,0,0,1,3.644,0,2.674,2.674,0,0,1,.731,1.509H121.9A2.66,2.66,0,0,1,122.631,302.131Zm0,0" transform="translate(-121.375 -290.045)"/><path class="a" d="M8.732,1.479H4.818V.435A.436.436,0,0,0,4.383,0H1.774a.436.436,0,0,0-.435.435V1.479H-2.575A2.176,2.176,0,0,0-4.75,3.653V18.614a2.176,2.176,0,0,0,2.175,2.175H8.732a2.176,2.176,0,0,0,2.175-2.175V3.653A2.176,2.176,0,0,0,8.732,1.479ZM2.209.87h1.74v1.74H2.209Zm7.828,17.744a1.309,1.309,0,0,1-1.3,1.3H-2.575a1.309,1.309,0,0,1-1.3-1.3V3.653a1.309,1.309,0,0,1,1.3-1.3H1.339v.7a.436.436,0,0,0,.435.435H4.383a.436.436,0,0,0,.435-.435v-.7H8.732a1.309,1.309,0,0,1,1.3,1.3Zm0,0" transform="translate(0)"/><path class="a" d="M82.346,505H72.935a.435.435,0,0,0,0,.87h9.416a.435.435,0,0,0,0-.87Zm0,0" transform="translate(-74.562 -487.43)"/><path class="a" d="M135.435,450a.435.435,0,1,0,0,.87H140.5a.435.435,0,1,0,0-.87Zm0,0" transform="translate(-134.888 -434.343)"/></g></svg>