<svg xmlns="http://www.w3.org/2000/svg" width="10.98" height="14.415" viewBox="0 0 10.98 14.415"><defs><style>.a{fill:#1586c7;}</style></defs><g transform="translate(-20.322 -222.751)"><g transform="translate(-40.678 222.751)"><path class="a" d="M71.857,3.5,68.478.124A.423.423,0,0,0,68.18,0H62.267A1.268,1.268,0,0,0,61,1.267V13.148a1.268,1.268,0,0,0,1.267,1.267h8.446a1.268,1.268,0,0,0,1.267-1.267V3.8A.426.426,0,0,0,71.857,3.5ZM68.6,1.442l1.937,1.937H69.024a.423.423,0,0,1-.422-.422Zm2.112,12.129H62.267a.423.423,0,0,1-.422-.422V1.267a.423.423,0,0,1,.422-.422h5.49V2.956a1.268,1.268,0,0,0,1.267,1.267h2.112v8.925A.423.423,0,0,1,70.713,13.571Z" transform="translate(0 0)"/><path class="a" d="M156.49,212h-5.068a.422.422,0,0,0,0,.845h5.068a.422.422,0,0,0,0-.845Z" transform="translate(-87.466 -206.031)"/><path class="a" d="M156.49,272h-5.068a.422.422,0,1,0,0,.845h5.068a.422.422,0,1,0,0-.845Z" transform="translate(-87.466 -264.342)"/><path class="a" d="M156.49,332h-5.068a.422.422,0,1,0,0,.845h5.068a.422.422,0,1,0,0-.845Z" transform="translate(-87.466 -322.653)"/><path class="a" d="M154.8,392h-3.379a.422.422,0,1,0,0,.845H154.8a.422.422,0,1,0,0-.845Z" transform="translate(-87.466 -380.963)"/></g></g></svg>