<svg xmlns="http://www.w3.org/2000/svg" width="14.24" height="14.24" viewBox="0 0 14.24 14.24"><defs><style>.a{fill:#1586c7;}</style></defs><path class="a" d="M12.571,1.112H11.9V0H10.791V1.112H3.449V0H2.336V1.112H1.669A1.671,1.671,0,0,0,0,2.781v9.79A1.671,1.671,0,0,0,1.669,14.24h10.9a1.671,1.671,0,0,0,1.669-1.669V2.781A1.671,1.671,0,0,0,12.571,1.112Zm.556,11.459a.557.557,0,0,1-.556.556H1.669a.557.557,0,0,1-.556-.556V5.229H13.127Zm0-8.455H1.112V2.781a.557.557,0,0,1,.556-.556h.667V3.337H3.449V2.225h7.342V3.337H11.9V2.225h.667a.557.557,0,0,1,.556.556Z"/><g transform="translate(2.4 6.4)"><g transform="translate(0 0)"><rect class="a" width="1" height="1"/></g></g><g transform="translate(4.4 6.4)"><g transform="translate(0 0)"><rect class="a" width="1" height="1"/></g></g><g transform="translate(6.4 6.4)"><g transform="translate(0 0)"><rect class="a" width="1" height="1"/></g></g><g transform="translate(8.4 6.4)"><g transform="translate(0 0)"><rect class="a" width="1" height="1"/></g></g><g transform="translate(10.4 6.4)"><g transform="translate(0 0)"><rect class="a" width="1" height="1"/></g></g><g transform="translate(2.4 8.4)"><g transform="translate(0)"><rect class="a" width="1" height="1"/></g></g><g transform="translate(4.4 8.4)"><g transform="translate(0)"><rect class="a" width="1" height="1"/></g></g><g transform="translate(6.4 8.4)"><g transform="translate(0)"><rect class="a" width="1" height="1"/></g></g><g transform="translate(8.4 8.4)"><g transform="translate(0)"><rect class="a" width="1" height="1"/></g></g><g transform="translate(2.4 10.4)"><g transform="translate(0 0)"><rect class="a" width="1" height="1"/></g></g><g transform="translate(4.4 10.4)"><g transform="translate(0 0)"><rect class="a" width="1" height="1"/></g></g><g transform="translate(6.4 10.4)"><g transform="translate(0 0)"><rect class="a" width="1" height="1"/></g></g><g transform="translate(8.4 10.4)"><g transform="translate(0 0)"><rect class="a" width="1" height="1"/></g></g><g transform="translate(10.4 8.4)"><g transform="translate(0)"><rect class="a" width="1" height="1"/></g></g></svg>