<svg xmlns="http://www.w3.org/2000/svg" width="24.355" height="19.089" viewBox="0 0 24.355 19.089"><defs><style>.a{fill:#ffc03f;}.b{fill:#2c2f33;}</style></defs><g transform="translate(-379.071 -387.242)"><rect class="a" width="4.227" height="5.61" transform="translate(380.027 393.976)"/><g transform="translate(379.071 387.242)"><path class="b" d="M396.139,387.289l-12.333,6.6H379.57a.5.5,0,0,0-.5.494v4.807a.5.5,0,0,0,.5.493h2.153l-.016.21a4.422,4.422,0,0,0,2.76,4.417,4.9,4.9,0,0,0,5.23-1.325l.1-.109,6.358,3.411a.5.5,0,0,0,.738-.431V387.711a.544.544,0,0,0-.212-.392A.613.613,0,0,0,396.139,387.289ZM380.068,398.7v-3.83h3.421v3.83Zm8.667,3.884a3.559,3.559,0,0,1-2.558,1.078,3.509,3.509,0,0,1-1.325-.259,3.459,3.459,0,0,1-2.137-3.54l.018-.176,1.177.023,5,2.689Zm7.164,2.442L384.483,398.9v-4.226l11.417-6.137Z" transform="translate(-379.071 -387.241)"/><path class="b" d="M399.536,393.886l2-1.9a.474.474,0,0,0,.018-.675.489.489,0,0,0-.35-.15.47.47,0,0,0-.326.132l-2,1.908a.511.511,0,0,0-.154.368.415.415,0,0,0,.127.3A.609.609,0,0,0,399.536,393.886Z" transform="translate(-379.352 -387.307)"/><path class="b" d="M403.3,396.494h-2.754a.478.478,0,1,0,0,.956H403.3a.478.478,0,0,0,0-.956Z" transform="translate(-379.421 -387.432)"/><path class="b" d="M401.538,401.861l-2-1.9a.472.472,0,0,0-.329-.134h-.01a.479.479,0,0,0-.337.149.475.475,0,0,0,.016.677l2,1.9a.615.615,0,0,0,.68-.021.457.457,0,0,0,.132-.33.484.484,0,0,0-.152-.342Z" transform="translate(-379.352 -387.454)"/></g></g></svg>