<svg xmlns="http://www.w3.org/2000/svg" xmlns:xlink="http://www.w3.org/1999/xlink" width="65" height="65" viewBox="0 0 65 65"><defs><style>.a{stroke:#90bfff;fill:url(#a);}.b{fill:url(#b);}.c{clip-path:url(#c);}.d{fill:#70b9b8;}.e{fill:#5eb89e;}.f{fill:#fff;}.g{fill:#53a58a;}.h{fill:#91dfc4;}.i{fill:url(#d);}</style><linearGradient id="a" x1="0.187" y1="0.802" x2="0.879" y2="0.253" gradientUnits="objectBoundingBox"><stop offset="0" stop-color="#81b6ff"/><stop offset="1" stop-color="#a997ff"/></linearGradient><linearGradient id="b" x1="0.187" y1="0.802" x2="0.879" y2="0.253" gradientUnits="objectBoundingBox"><stop offset="0" stop-color="#7ac1c7"/><stop offset="1" stop-color="#89ceb5"/></linearGradient><clipPath id="c"><circle class="a" cx="32.5" cy="32.5" r="32.5"/></clipPath><linearGradient id="d" x1="0.5" y1="-0.05" x2="0.5" y2="0.95" gradientUnits="objectBoundingBox"><stop offset="0" stop-color="#04a766"/><stop offset="1" stop-color="#00483f"/></linearGradient></defs><g transform="translate(-43 -531)"><g transform="translate(-1955 -1312)"><g transform="translate(346 -72)"><circle class="b" cx="32.5" cy="32.5" r="32.5" transform="translate(1652 1915)"/><g class="c" transform="translate(1652 1915)"><path class="d" d="M20,40A20.005,20.005,0,0,1,12.215,1.572a20.005,20.005,0,0,1,15.57,36.857A19.875,19.875,0,0,1,20,40ZM20,8.571A11.429,11.429,0,1,0,31.429,20,11.442,11.442,0,0,0,20,8.571Z" transform="translate(-11 -7)"/><path class="e" d="M38,42H6a6.007,6.007,0,0,1-6-6V6A6.007,6.007,0,0,1,6,0H38a6.007,6.007,0,0,1,6,6V36A6.007,6.007,0,0,1,38,42ZM11.656,8.542a3,3,0,0,0-3,3V30.458a3,3,0,0,0,3,3H32.344a3,3,0,0,0,3-3V11.543a3,3,0,0,0-3-3Z" transform="translate(27 36)"/></g></g></g><g transform="translate(47 529)"><rect class="f" width="33" height="33" rx="4" transform="translate(10 17)"/><rect class="g" width="2" height="6" rx="1" transform="translate(16 15)"/><rect class="g" width="2" height="6" rx="1" transform="translate(21 15)"/><rect class="g" width="2" height="6" rx="1" transform="translate(27 15)"/><rect class="g" width="2" height="6" rx="1" transform="translate(32 15)"/><rect class="g" width="2" height="6" rx="1" transform="translate(37 15)"/><rect class="h" width="5" height="5" rx="1" transform="translate(15 27)"/><rect class="h" width="5" height="5" rx="1" transform="translate(15 34)"/><rect class="h" width="5" height="5" rx="1" transform="translate(15 40)"/><rect class="h" width="5" height="5" rx="1" transform="translate(22 27)"/><rect class="h" width="5" height="5" rx="1" transform="translate(29 27)"/><rect class="h" width="5" height="5" rx="1" transform="translate(22 34)"/><rect class="h" width="5" height="5" rx="1" transform="translate(22 40)"/><circle class="i" cx="9.5" cy="9.5" r="9.5" transform="translate(28 34)"/><g transform="translate(31.665 36.5)"><g transform="translate(0 0)"><ellipse class="f" cx="1.452" cy="1.452" rx="1.452" ry="1.452" transform="translate(5.719 0)"/><path class="f" d="M42.361,115.744c-1.3-.133-2.556-1.538-2.873-1.732a1.523,1.523,0,0,0-.644-.266,1.151,1.151,0,0,0-.318-.015,1.274,1.274,0,0,0-.734.282,2.332,2.332,0,0,0-.256.235,11.067,11.067,0,0,0-2.206,3.241.563.563,0,0,0,.115.595l-.694,1.236-.977-.549a.242.242,0,0,0-.33.092l-1.85,3.268a.243.243,0,0,0,.093.33l.74.416a.555.555,0,1,0,.922-.071l1.01-1.772.708-1.261.877-1.52a.564.564,0,0,0,.436-.348,7.919,7.919,0,0,1,1.011-1.738l.176,2.025a.982.982,0,0,0,.266.595c-.454.824-1.677,3.076-2.118,3.841a.717.717,0,1,0,1.243.717c.411-.713,1.484-2.876,1.954-3.689a32.787,32.787,0,0,1,1.835,3.621.718.718,0,0,0,1.313-.58A32.141,32.141,0,0,0,40,118.682a1,1,0,0,0,.224-.72l-.167-1.918a3.924,3.924,0,0,0,2.19.822.546.546,0,0,0,.059,0,.564.564,0,0,0,.056-1.125ZM32.9,123.37a.2.2,0,1,1,.2-.2A.2.2,0,0,1,32.9,123.37Z" transform="translate(-31.565 -110.749)"/></g></g></g></g></svg>