<svg xmlns="http://www.w3.org/2000/svg" width="30" height="30" viewBox="0 0 30 30"><defs><style>.a{fill:#00b561;}.b{fill:#fff;stroke:#fff;stroke-width:0.5px;}</style></defs><g transform="translate(-115 -493)"><g transform="translate(0 10)"><path class="a" d="M15,0A15,15,0,1,1,0,15,15,15,0,0,1,15,0Z" transform="translate(115 483)"/><g transform="translate(121.483 481.265)"><path class="b" d="M18.661,17.5l-1.029,6.413a2.8,2.8,0,0,1-3.088,2.535H6.563a2.609,2.609,0,0,1-1.9-.83.94.94,0,0,1-.73.342H.949A.951.951,0,0,1,0,25.015V16.244A.951.951,0,0,1,.949,15.3H3.94a.952.952,0,0,1,.818.469l.111-.027c.169-.05,3.1-.96,3.1-3.483V8.993A.457.457,0,0,1,8.3,8.556,3.883,3.883,0,0,1,9.382,8.4a2.72,2.72,0,0,1,1.632.484,3.055,3.055,0,0,1,1.064,2.627v2.911h4.036a2.589,2.589,0,0,1,1.663.622A2.687,2.687,0,0,1,18.661,17.5ZM3.963,16.24a.026.026,0,0,0-.027-.027H.949a.026.026,0,0,0-.027.027v8.771a.026.026,0,0,0,.027.027H3.94a.026.026,0,0,0,.027-.027V16.24Zm13.215-.5a1.64,1.64,0,0,0-1.064-.4h-4.5a.462.462,0,0,1-.461-.461V11.509a2.218,2.218,0,0,0-.684-1.882,2.165,2.165,0,0,0-1.578-.269V12.25A4.164,4.164,0,0,1,6.974,15.7a6.793,6.793,0,0,1-1.866.922c-.008,0-.012,0-.019,0l-.2.046v7.354a.614.614,0,0,1,.019.081,1.689,1.689,0,0,0,1.655,1.417h7.98a1.89,1.89,0,0,0,2.174-1.732c0-.008,0-.012,0-.015l1.033-6.417A1.779,1.779,0,0,0,17.178,15.745Z" transform="translate(-0.483 -0.667)"/></g></g></g></svg>