<svg xmlns="http://www.w3.org/2000/svg" xmlns:xlink="http://www.w3.org/1999/xlink" width="58" height="58" viewBox="0 0 58 58"><defs><style>.a{fill:url(#a);}.b{fill:#fff;}.c{filter:url(#b);}</style><linearGradient id="a" x2="1" y2="1" gradientUnits="objectBoundingBox"><stop offset="0" stop-color="#f6d465"/><stop offset="1" stop-color="#ff7a58"/></linearGradient><filter id="b" x="0" y="0" width="58" height="58" filterUnits="userSpaceOnUse"><feOffset dy="3" input="SourceAlpha"/><feGaussianBlur stdDeviation="3" result="c"/><feFlood flood-color="#fdb487" flood-opacity="0.522"/><feComposite operator="in" in2="c"/><feComposite in="SourceGraphic"/></filter></defs><g transform="translate(-84 -86)"><g class="c" transform="matrix(1, 0, 0, 1, 84, 86)"><rect class="a" width="40" height="40" rx="12" transform="translate(9 6)"/></g><g transform="translate(102 101)"><path class="b" d="M6.691,4.608A.691.691,0,0,1,6,3.916V.691a.691.691,0,0,1,1.382,0V3.916A.691.691,0,0,1,6.691,4.608Z" transform="translate(-0.314)"/><path class="b" d="M11.691,4.608A.691.691,0,0,1,11,3.916V.691a.691.691,0,1,1,1.382,0V3.916A.691.691,0,0,1,11.691,4.608Z" transform="translate(-0.706)"/><path class="b" d="M16.191,4.608a.691.691,0,0,1-.691-.691V.691a.691.691,0,0,1,1.382,0V3.916A.691.691,0,0,1,16.191,4.608Z" transform="translate(-1.06)"/><path class="b" d="M16.367,18.382H6.691a.691.691,0,1,1,0-1.382h9.676a.691.691,0,0,1,0,1.382Z" transform="translate(-0.314 -1.334)"/><path class="b" d="M16.367,14.382H6.691a.691.691,0,0,1,0-1.382h9.676a.691.691,0,1,1,0,1.382Z" transform="translate(-0.314 -1.02)"/><path class="b" d="M11.759,10.382H6.691A.691.691,0,0,1,6.691,9h5.068a.691.691,0,0,1,0,1.382Z" transform="translate(-0.314 -0.706)"/><path class="b" d="M16.975,22.273H4.534A2.536,2.536,0,0,1,2,19.739V4.534A2.536,2.536,0,0,1,4.534,2h12.44a2.536,2.536,0,0,1,2.534,2.534v15.2A2.536,2.536,0,0,1,16.975,22.273ZM4.534,3.382A1.153,1.153,0,0,0,3.382,4.534v15.2a1.153,1.153,0,0,0,1.152,1.152h12.44a1.153,1.153,0,0,0,1.152-1.152V4.534a1.153,1.153,0,0,0-1.152-1.152Z" transform="translate(0 -0.157)"/></g></g></svg>