<svg xmlns="http://www.w3.org/2000/svg" width="31.366" height="25.147" viewBox="0 0 31.366 25.147"><defs><style>.a{fill:#1586c7;}</style></defs><g transform="translate(0)"><path class="a" d="M28.1,4.146H26.183V3.267A3.271,3.271,0,0,0,22.915,0H3.267A3.271,3.271,0,0,0,0,3.267V17.733A3.271,3.271,0,0,0,3.267,21h1.57v.879A3.271,3.271,0,0,0,8.1,25.147H28.1a3.271,3.271,0,0,0,3.267-3.267V7.413A3.271,3.271,0,0,0,28.1,4.146ZM3.267,1.307H22.915a1.962,1.962,0,0,1,1.96,1.96v10.86L21.7,9.634a2.87,2.87,0,0,0-2.345-1.228h-.027a2.87,2.87,0,0,0-2.34,1.187l-3.828,5.227a1.592,1.592,0,0,1-2.174.383L8.127,13.287a2.9,2.9,0,0,0-3.21-.012l-.014.009-3.6,2.5V3.267a1.962,1.962,0,0,1,1.96-1.96ZM1.306,17.733v-.355l4.336-3.017a1.592,1.592,0,0,1,1.758.011l2.862,1.915a2.9,2.9,0,0,0,3.955-.7l3.829-5.227a1.578,1.578,0,0,1,1.286-.653h.015a1.577,1.577,0,0,1,1.289.675l4.24,6.007v.693l.006.626a1.96,1.96,0,0,1-1.96,1.981H3.267a1.963,1.963,0,0,1-1.96-1.96Zm28.752,4.146a1.963,1.963,0,0,1-1.96,1.96H8.1a1.963,1.963,0,0,1-1.96-1.96V21H22.922a3.267,3.267,0,0,0,3.267-3.3l-.007-.622V5.453H28.1a1.962,1.962,0,0,1,1.96,1.96Zm0,0"/><path class="a" d="M109.331,64.35a3.468,3.468,0,1,0-3.468-3.468A3.468,3.468,0,0,0,109.331,64.35Zm0-5.629a2.161,2.161,0,1,1-2.161,2.161A2.161,2.161,0,0,1,109.331,58.721Zm0,0" transform="translate(-98.946 -53.663)"/></g></svg>