<svg xmlns="http://www.w3.org/2000/svg" xmlns:xlink="http://www.w3.org/1999/xlink" width="58" height="58" viewBox="0 0 58 58"><defs><style>.a{fill:url(#a);}.b{fill:#fff;}.c{filter:url(#b);}</style><linearGradient id="a" x2="1" y2="1" gradientUnits="objectBoundingBox"><stop offset="0" stop-color="#8dc1ff"/><stop offset="1" stop-color="#afa1ff"/></linearGradient><filter id="b" x="0" y="0" width="58" height="58" filterUnits="userSpaceOnUse"><feOffset dy="3" input="SourceAlpha"/><feGaussianBlur stdDeviation="3" result="c"/><feFlood flood-color="#96b7ff" flood-opacity="0.471"/><feComposite operator="in" in2="c"/><feComposite in="SourceGraphic"/></filter></defs><g transform="translate(-15 -128)"><g class="c" transform="matrix(1, 0, 0, 1, 15, 128)"><rect class="a" width="40" height="40" rx="12" transform="translate(9 6)"/></g><g transform="translate(-30.04 141)"><g transform="translate(64.04)"><path class="b" d="M83.534,5.262a.608.608,0,0,0-.177-.424L78.7.178h0A.606.606,0,0,0,78.267,0H65.322A1.283,1.283,0,0,0,64.04,1.282V24.718A1.283,1.283,0,0,0,65.322,26H82.254a1.283,1.283,0,0,0,1.282-1.282V5.269A.045.045,0,0,0,83.534,5.262ZM78.876,2.078,81.457,4.66H78.94a.064.064,0,0,1-.064-.064Zm3.442,22.639a.064.064,0,0,1-.064.064H65.322a.064.064,0,0,1-.064-.064V1.282a.064.064,0,0,1,.064-.064H77.658V4.6A1.283,1.283,0,0,0,78.94,5.877h3.378V24.718Z" transform="translate(-64.04 0)"/></g><g transform="translate(67.792 8.329)"><g transform="translate(0)"><path class="b" d="M149.307,164.014H138.533a.609.609,0,1,0,0,1.217h10.774a.609.609,0,0,0,0-1.217Z" transform="translate(-137.924 -164.014)"/></g></g><g transform="translate(67.792 12.002)"><g transform="translate(0)"><path class="b" d="M149.307,236.353H138.533a.609.609,0,1,0,0,1.217h10.774a.609.609,0,0,0,0-1.217Z" transform="translate(-137.924 -236.353)"/></g></g><g transform="translate(67.792 15.675)"><g transform="translate(0)"><path class="b" d="M149.307,308.691H138.533a.609.609,0,1,0,0,1.217h10.774a.609.609,0,0,0,0-1.217Z" transform="translate(-137.924 -308.691)"/></g></g><g transform="translate(67.792 19.349)"><g transform="translate(0)"><path class="b" d="M143.92,381.031h-5.387a.609.609,0,1,0,0,1.217h5.387a.609.609,0,1,0,0-1.217Z" transform="translate(-137.924 -381.031)"/></g></g></g></g></svg>