<svg xmlns="http://www.w3.org/2000/svg" xmlns:xlink="http://www.w3.org/1999/xlink" width="58" height="58" viewBox="0 0 58 58"><defs><style>.a{fill:url(#a);}.b{fill:#fff;}.c{filter:url(#b);}</style><linearGradient id="a" x1="1" y1="1" x2="0" gradientUnits="objectBoundingBox"><stop offset="0" stop-color="#e15b7f"/><stop offset="1" stop-color="#f9b1e2"/></linearGradient><filter id="b" x="0" y="0" width="58" height="58" filterUnits="userSpaceOnUse"><feOffset dy="3" input="SourceAlpha"/><feGaussianBlur stdDeviation="3" result="c"/><feFlood flood-color="#e66f96" flood-opacity="0.471"/><feComposite operator="in" in2="c"/><feComposite in="SourceGraphic"/></filter></defs><g transform="translate(-84 -86)"><g class="c" transform="matrix(1, 0, 0, 1, 84, 86)"><rect class="a" width="40" height="40" rx="12" transform="translate(9 6)"/></g><g transform="translate(67 -79)"><g transform="translate(34 179)"><path class="b" d="M39.123,38.3l-4.59-5.783a.576.576,0,0,0-.458-.22H30.284l3.307-5.185a7.469,7.469,0,1,0-12.434,0l3.31,5.191H20.674a.581.581,0,0,0-.457.221L15.628,38.3a.588.588,0,0,0,.081.823.6.6,0,0,0,.37.131H38.671a.584.584,0,0,0,.452-.952ZM33.8,33.467l1.366,1.724H32.706l-1.368-1.724Zm-2.58,1.724H28.441l1.1-1.724h.31Zm-9.056-8.683V26.46l-.044-.022a6.3,6.3,0,1,1,10.5.028l-5.244,8.222ZM24.9,33.467h.309l1.1,1.724H23.536Zm-3.946,0h2.456l-1.368,1.723H19.589Zm-1.206,4.616H17.294l1.368-1.724h2.455Zm1.491,0,1.366-1.725h9.534l1.368,1.725Zm13.758,0-1.365-1.725h2.457l1.366,1.725Z" transform="translate(-15.497 -15.499)"/><path class="b" d="M30.657,22.417a4.714,4.714,0,1,0-4.714,4.716A4.718,4.718,0,0,0,30.657,22.417Zm-8.26,0a3.547,3.547,0,1,1,3.546,3.547A3.556,3.556,0,0,1,22.4,22.417Z" transform="translate(-14.065 -14.948)"/></g></g></g></svg>