<svg xmlns="http://www.w3.org/2000/svg" xmlns:xlink="http://www.w3.org/1999/xlink" width="70" height="70" viewBox="0 0 70 70"><defs><style>.a{fill:#fff;}.b{fill:#399deb;}.c{filter:url(#a);}</style><filter id="a" x="0" y="0" width="70" height="70" filterUnits="userSpaceOnUse"><feOffset dy="8" input="SourceAlpha"/><feGaussianBlur stdDeviation="5" result="b"/><feFlood flood-opacity="0.188"/><feComposite operator="in" in2="b"/><feComposite in="SourceGraphic"/></filter></defs><g transform="translate(-16 -86)"><g transform="translate(-62 1)"><g class="c" transform="matrix(1, 0, 0, 1, 78, 85)"><rect class="a" width="40" height="40" rx="12" transform="translate(15 7)"/></g></g><g transform="translate(-353.067 -288.641)"><path class="a" d="M393.6,398.321a.748.748,0,0,0-.84-.566.689.689,0,0,0-.544.677.7.7,0,0,0,.022.18l1.83,6.836a1.108,1.108,0,0,0,.354.559l2.021,1.736a2.263,2.263,0,0,1,.738,1.668v.339h3.92V406.7a2.826,2.826,0,0,0-1.385-2.42l-2.887-1.693a.836.836,0,0,0-.35-.09.687.687,0,0,0-.612.377.736.736,0,0,0,.321.946l2.37,1.366a.458.458,0,0,1,.043.026.57.57,0,0,1,.169.791.566.566,0,0,1-.36.25.583.583,0,0,1-.432-.079l-2.358-1.359a1.87,1.87,0,0,1-.87-2.208Z"/><path class="b" d="M402.945,409.9h0Z"/><path class="a" d="M404.483,390.206l-.7-.35-.692.347a5.621,5.621,0,0,1-5.066-.011v4.342a9.523,9.523,0,0,0,5.062,8.436l.7.374.7-.373a9.524,9.524,0,0,0,5.063-8.437v-4.341A5.617,5.617,0,0,1,404.483,390.206Zm2.534,4.255-3.7,3.7a.594.594,0,0,1-.838,0l-1.692-1.692a.6.6,0,0,1,0-.849.588.588,0,0,1,.412-.167h.011a.586.586,0,0,1,.415.181L402.9,396.9l3.273-3.273a.592.592,0,1,1,.844.83Z"/><rect class="a" width="6.455" height="2.231" transform="translate(395.917 410.898)"/><path class="a" d="M413.153,406.008a1.108,1.108,0,0,0,.354-.559l1.832-6.838a.681.681,0,0,0,.021-.178.693.693,0,0,0-.551-.676.746.746,0,0,0-.831.565l-1.152,4.287a1.87,1.87,0,0,1-.872,2.208l-2.363,1.363a.573.573,0,0,1-.578-.989l2.371-1.366a.742.742,0,0,0,.323-.954.675.675,0,0,0-.61-.375h-.007a.7.7,0,0,0-.348.093l-2.883,1.69a2.826,2.826,0,0,0-1.385,2.42v3.05h3.921v-.338a2.259,2.259,0,0,1,.79-1.715Z"/><rect class="a" width="6.455" height="2.231" transform="translate(405.206 410.898)"/><path class="b" d="M415.044,396.629l-.148-.032,0,.014a1.876,1.876,0,0,0-2.026,1.415l-.949,3.527a1.817,1.817,0,0,0-1.755.047l-2.888,1.694a3.985,3.985,0,0,0-1.947,3.4v3.05h-.693a.573.573,0,0,0-.573.572V413.7a.574.574,0,0,0,.573.573h7.6a.574.574,0,0,0,.573-.573v-3.374a.576.576,0,0,0-.574-.576h-.694v-.339a1.112,1.112,0,0,1,.39-.848l1.968-1.689a2.231,2.231,0,0,0,.712-1.131l1.832-6.837a1.785,1.785,0,0,0,.063-.48A1.839,1.839,0,0,0,415.044,396.629Zm-9.838,16.5V410.9h6.455v2.232Zm5.189-3.719v.338h-3.921V406.7a2.826,2.826,0,0,1,1.385-2.42l2.883-1.69a.7.7,0,0,1,.348-.093h.007a.675.675,0,0,1,.61.375.742.742,0,0,1-.323.954l-2.371,1.366a.573.573,0,0,0,.578.989l2.363-1.363a1.87,1.87,0,0,0,.872-2.208l1.152-4.287a.746.746,0,0,1,.831-.565.693.693,0,0,1,.551.676.681.681,0,0,1-.021.178l-1.832,6.838a1.108,1.108,0,0,1-.354.559l-1.968,1.688A2.259,2.259,0,0,0,410.395,409.411Z"/><path class="b" d="M402.948,409.75h-.7V406.7a3.978,3.978,0,0,0-1.951-3.406l-2.892-1.7a1.822,1.822,0,0,0-1.755-.044l-.948-3.524a1.885,1.885,0,0,0-2.177-1.395,1.839,1.839,0,0,0-1.42,2.181.792.792,0,0,0,.023.093l1.831,6.839a2.243,2.243,0,0,0,.712,1.131l1.974,1.69a1.12,1.12,0,0,1,.391.849v.337h-.694a.573.573,0,0,0-.573.572V413.7a.574.574,0,0,0,.573.573h7.6a.574.574,0,0,0,.573-.573v-3.374A.576.576,0,0,0,402.948,409.75Zm-7.324-4.937,2.358,1.359a.583.583,0,0,0,.432.079.577.577,0,0,0,.44-.682.573.573,0,0,0-.249-.359.458.458,0,0,0-.043-.026l-2.37-1.366a.736.736,0,0,1-.321-.946.687.687,0,0,1,.612-.377.836.836,0,0,1,.35.09l2.887,1.693a2.826,2.826,0,0,1,1.385,2.42v3.052h-3.92v-.339a2.263,2.263,0,0,0-.738-1.668l-2.021-1.736a1.108,1.108,0,0,1-.354-.559l-1.83-6.836a.7.7,0,0,1-.022-.18.689.689,0,0,1,.544-.677.748.748,0,0,1,.84.566l1.15,4.284A1.87,1.87,0,0,0,395.624,404.813Zm6.748,6.085v2.232h-6.455V410.9Zm.573-1Z"/><path class="b" d="M410.7,394.534l0-5.32a.572.572,0,0,0-.857-.5l-.6.345a4.475,4.475,0,0,1-4.236.116l-.955-.477a.579.579,0,0,0-.512,0l-.947.476a4.475,4.475,0,0,1-4.246-.114l-.6-.343a.572.572,0,0,0-.858.494v5.32a10.662,10.662,0,0,0,5.668,9.446l.968.515a.566.566,0,0,0,.271.069.577.577,0,0,0,.271-.068l.968-.516A10.662,10.662,0,0,0,410.7,394.534Zm-1.148-4.341v4.341a9.524,9.524,0,0,1-5.063,8.437l-.7.373-.7-.374a9.523,9.523,0,0,1-5.062-8.436v-4.342a5.621,5.621,0,0,0,5.066.011l.692-.347.7.35A5.617,5.617,0,0,0,409.55,390.193Z"/><path class="b" d="M406.173,393.631,402.9,396.9l-1.272-1.271a.586.586,0,0,0-.415-.181H401.2a.588.588,0,0,0-.412.167.6.6,0,0,0,0,.849l1.692,1.692a.594.594,0,0,0,.838,0l3.7-3.7a.592.592,0,1,0-.844-.83Z"/></g></g></svg>