<svg xmlns="http://www.w3.org/2000/svg" xmlns:xlink="http://www.w3.org/1999/xlink" width="58" height="58" viewBox="0 0 58 58"><defs><style>.a{fill:url(#a);}.b{fill:#fff;}.c{filter:url(#b);}</style><linearGradient id="a" x2="1" y2="1" gradientUnits="objectBoundingBox"><stop offset="0" stop-color="#79e893"/><stop offset="1" stop-color="#00c4c1"/></linearGradient><filter id="b" x="0" y="0" width="58" height="58" filterUnits="userSpaceOnUse"><feOffset dy="3" input="SourceAlpha"/><feGaussianBlur stdDeviation="3" result="c"/><feFlood flood-color="#1bcbc5" flood-opacity="0.49"/><feComposite operator="in" in2="c"/><feComposite in="SourceGraphic"/></filter></defs><g transform="translate(-84 -86)"><g class="c" transform="matrix(1, 0, 0, 1, 84, 86)"><rect class="a" width="40" height="40" rx="12" transform="translate(9 6)"/></g><g transform="translate(73.026 100.999)"><path class="b" d="M33.018,18,34.1,19.079,45.618,9.87A4.948,4.948,0,1,0,40.2,4.452L31.012,15.99l1.061,1.061L30.724,18.4a2.56,2.56,0,0,0,1.81,4.37H45.517V21.433H32.534a1.223,1.223,0,0,1-.865-2.087Zm4-2.965-1.969-1.969L38.686,8.5l2.89,2.89Zm5.605-4.482-3.1-3.1,1.383-1.736L44.36,9.164ZM42.57,2.393a3.611,3.611,0,1,1,3.041,6.13L41.546,4.459A3.6,3.6,0,0,1,42.57,2.393ZM34.214,14.115l1.757,1.757L34.2,17.287l-1.4-1.4Z" transform="translate(0 0)"/></g></g></svg>