<svg xmlns="http://www.w3.org/2000/svg" xmlns:xlink="http://www.w3.org/1999/xlink" width="64.913" height="64" viewBox="0 0 64.913 64"><defs><style>.a{fill:#fff;}.b{fill:url(#a);}.c{fill:url(#d);}.d{fill:#ffdc9f;}.e{fill:url(#g);}.f{filter:url(#e);}.g{filter:url(#b);}</style><linearGradient id="a" x1="0.084" y1="0.183" x2="0.881" y2="0.864" gradientUnits="objectBoundingBox"><stop offset="0" stop-color="#fcc440"/><stop offset="1" stop-color="#ff6b53"/></linearGradient><filter id="b" x="0" y="8.782" width="64.913" height="50.962" filterUnits="userSpaceOnUse"><feOffset dy="2" input="SourceAlpha"/><feGaussianBlur stdDeviation="2" result="c"/><feFlood flood-color="#af5405" flood-opacity="0.502"/><feComposite operator="in" in2="c"/><feComposite in="SourceGraphic"/></filter><linearGradient id="d" x1="0.5" x2="0.5" y2="1" gradientUnits="objectBoundingBox"><stop offset="0" stop-color="#fbfbff"/><stop offset="1" stop-color="#dce0ff"/></linearGradient><filter id="e" x="13.328" y="12.163" width="38.08" height="41.673" filterUnits="userSpaceOnUse"><feOffset dy="1" input="SourceAlpha"/><feGaussianBlur stdDeviation="2" result="f"/><feFlood flood-color="#000b1c" flood-opacity="0.2"/><feComposite operator="in" in2="f"/><feComposite in="SourceGraphic"/></filter><linearGradient id="g" x1="0.5" x2="0.5" y2="1" gradientUnits="objectBoundingBox"><stop offset="0" stop-color="#ffdb9a"/><stop offset="1" stop-color="#fff"/></linearGradient></defs><g transform="translate(0.617 0.25)"><rect class="a" width="64" height="64" rx="6" transform="translate(-0.25 -0.25)"/><g transform="translate(5.383 12.532)"><g class="g" transform="matrix(1, 0, 0, 1, -6, -12.78)"><path class="b" d="M19.468,0H33.445a19.481,19.481,0,0,1,0,38.962H19.468A19.481,19.481,0,0,1,19.468,0Z" transform="translate(6 12.78)"/></g><g transform="translate(13.328 4.382)"><g class="f" transform="matrix(1, 0, 0, 1, -19.33, -17.16)"><path class="c" d="M0,24.456c0-2.253,3.131-4.1,8.108-4.851l-2.84-4.479a9.557,9.557,0,1,1,15.578-.035l-2.868,4.515c4.974.756,8.1,2.6,8.1,4.85,0,3.391-6.712,5.217-13.04,5.217S0,27.847,0,24.456ZM8.692,9.563A4.347,4.347,0,1,0,13.04,5.217,4.352,4.352,0,0,0,8.692,9.563Z" transform="translate(19.33 17.16)"/></g><g transform="translate(0 0)"><path class="d" d="M47.621,335.222a.888.888,0,0,0-.817.4l-2.764,4.312-2.764-4.312a.854.854,0,0,0-.817-.4C34.7,335.831,31,337.8,31,340.247c0,3.39,6.711,5.216,13.04,5.216s13.04-1.826,13.04-5.216C57.08,337.8,53.376,335.831,47.621,335.222Z" transform="translate(-31 -315.79)"/><path class="e" d="M100.563,0a9.556,9.556,0,0,0-7.772,15.126l7.041,11.1a.867.867,0,0,0,1.46,0l7.076-11.139A9.567,9.567,0,0,0,100.563,0Zm0,13.909a4.347,4.347,0,1,1,4.347-4.347A4.352,4.352,0,0,1,100.563,13.909Z" transform="translate(-87.523 0)"/></g></g></g></g></svg>