<svg xmlns="http://www.w3.org/2000/svg" width="84" height="83" viewBox="0 0 84 83"><defs><style>.a,.b{fill:#621384;}.a{opacity:0.07;}.b{opacity:0.14;}.c{fill:#fff;}.d{fill:#e7e4dd;}.e{fill:#ffc03f;}.f{fill:#8892a0;}</style></defs><g transform="translate(0 0)"><ellipse class="a" cx="42" cy="41.5" rx="42" ry="41.5" transform="translate(0 0)"/><ellipse class="b" cx="34" cy="34.5" rx="34" ry="34.5" transform="translate(8 7)"/><ellipse class="c" cx="28" cy="27.5" rx="28" ry="27.5" transform="translate(14 14)"/><g transform="translate(20 23)"><path class="c" d="M27.323,36l5.067.724a3.436,3.436,0,0,1,2.949,3.4V50.887H9V40.125a3.436,3.436,0,0,1,2.949-3.4L17.016,36" transform="translate(-0.427 -14.96)"/><path class="d" d="M31.153,48.306l1.718-6.871L29.435,38,26,41.435l1.718,6.871Z" transform="translate(-7.694 -15.815)"/><path class="e" d="M29.573,42,29,50.016l1.718,3.435,1.718-3.435L31.863,42" transform="translate(-8.976 -17.524)"/><path class="c" d="M28.153,36.718l3.435,3.435,1.718-4.581L29.871,35l-1.718,1.718L26.435,35,23,35.573l1.718,4.581Z" transform="translate(-6.411 -14.532)"/><path class="e" d="M32.29,39.145V40.29a1.145,1.145,0,1,1-2.29,0V39.145L31.145,38Z" transform="translate(-9.403 -15.815)"/><path class="c" d="M28.153,36.718,26.435,35,23,35.573l1.718,4.581Z" transform="translate(-6.411 -14.532)"/><path class="e" d="M33.032,8.871l-1.1-2.2.943-.943L30.447,3.3l-.943.943-2.2-1.1V2H23.871V3.145l-2.2,1.1L20.73,3.3,18.3,5.73l.943.943-1.1,2.2H17v3.435h1.145l1.1,2.2-.943.943,2.429,2.429.943-.943,2.2,1.1v1.145h3.435V18.032l2.2-1.1.943.943,2.429-2.429-.943-.943,1.1-2.2h1.145V8.871Zm-7.444,6.871a5.153,5.153,0,1,1,5.153-5.153A5.153,5.153,0,0,1,25.589,15.742Z" transform="translate(-3.847 -0.427)"/><path class="c" d="M29,32v1.718l1.718,1.718,1.718-1.718V32" transform="translate(-8.976 -13.25)"/><g transform="translate(12.581 26.766)"><path class="f" d="M16,46h1.145V55.16H16Z" transform="translate(-16 -45.999)"/></g><g transform="translate(29.185 26.766)"><path class="f" d="M45,46h1.145V55.16H45Z" transform="translate(-44.999 -45.999)"/></g><g transform="translate(8 1)"><path d="M33.451,12.726a5.726,5.726,0,1,0-5.725,5.726A5.732,5.732,0,0,0,33.451,12.726Zm-10.306,0a4.58,4.58,0,1,1,4.581,4.581A4.585,4.585,0,0,1,23.145,12.726Z" transform="translate(-13.984 -3.565)"/><path d="M35.483,25.164A4.027,4.027,0,0,0,32.042,21.2l-5.051-.722h0l-2.957-.493V17.959l1.512-.756.651.651a.573.573,0,0,0,.81,0l2.429-2.429a.572.572,0,0,0,0-.81l-.651-.651.756-1.512h.791a.572.572,0,0,0,.573-.573V8.443a.572.572,0,0,0-.573-.573h-.791l-.756-1.512.651-.651a.572.572,0,0,0,0-.81L27.005,2.468a.591.591,0,0,0-.81,0l-.651.652-1.512-.756V1.573A.572.572,0,0,0,23.459,1H20.024a.572.572,0,0,0-.573.573v.791l-1.513.756-.651-.651a.572.572,0,0,0-.4-.168h0a.571.571,0,0,0-.4.168L14.048,4.9a.572.572,0,0,0,0,.81l.651.651-.755,1.512h-.791a.572.572,0,0,0-.573.573v3.435a.572.572,0,0,0,.573.573h.791l.756,1.512-.652.651a.572.572,0,0,0,0,.81l2.429,2.429a.589.589,0,0,0,.81,0l.651-.651,1.513.755v2.023l-2.958.493h0l-5.052.722A4.027,4.027,0,0,0,8,25.164V35.926a.572.572,0,0,0,.572.573H34.911a.572.572,0,0,0,.573-.573Zm-11.709,3.7-.3-4.136L24.542,25.8Zm-.9,3.507-1.135,2.27-1.135-2.27.452-6.327a1.7,1.7,0,0,0,1.367,0ZM18.94,25.8,20,24.732l-.3,4.136Zm2.229-2.229.573-.573.572.572v.909a.572.572,0,0,1-1.145,0Zm1.718-3.338-1.145,1.145L20.6,20.23v-.908h2.29Zm2.066,4.357-2.4-2.4,1.105-1.105,2.459.41Zm-6.871-8.593a.573.573,0,0,0-.661.108l-.538.538L15.264,15.02l.538-.538a.57.57,0,0,0,.107-.661l-1.1-2.2a.572.572,0,0,0-.512-.317h-.573V9.016H14.3A.572.572,0,0,0,14.81,8.7l1.1-2.2a.572.572,0,0,0-.107-.661L15.264,5.3l1.619-1.619.538.538a.57.57,0,0,0,.661.108l2.2-1.1a.575.575,0,0,0,.317-.512V2.145h2.29v.573a.573.573,0,0,0,.317.512l2.2,1.1a.569.569,0,0,0,.661-.108l.538-.538L28.219,5.3l-.538.538a.572.572,0,0,0-.108.661l1.1,2.2a.573.573,0,0,0,.512.317h.573v2.29h-.573a.572.572,0,0,0-.512.317l-1.1,2.2a.572.572,0,0,0,.108.661l.538.538L26.6,16.639l-.538-.538a.574.574,0,0,0-.661-.108l-2.2,1.1a.573.573,0,0,0-.317.512v.573H20.6V17.6a.573.573,0,0,0-.317-.512Zm1.746,5.086.376.376.728.729-2.4,2.4-1.161-3.1ZM9.145,25.164A2.876,2.876,0,0,1,11.6,22.33l4.611-.659,1.544,4.117,1.711,6.841h0a.57.57,0,0,0,.041.117l1.3,2.608h-7.09V26.766H12.581v8.589H9.145Zm21.184,10.19V26.766H29.185v8.589H22.667l1.3-2.608a.57.57,0,0,0,.041-.117h0l1.71-6.841,1.545-4.117,4.611.659a2.877,2.877,0,0,1,2.458,2.834v10.19Z" transform="translate(-8 -1)"/></g></g></g></svg>