<svg xmlns="http://www.w3.org/2000/svg" width="9.246" height="12.458" viewBox="0 0 9.246 12.458"><defs><style>.a{fill:#ffbe39;}</style></defs><g transform="translate(-3 -2)"><g transform="translate(-63 2)"><path class="a" d="M80.385,10A4.381,4.381,0,0,0,76,14.38c0,2.676,4.381,7.591,4.381,7.591s4.381-4.915,4.381-7.591A4.381,4.381,0,0,0,80.385,10Zm0,7.543A3.163,3.163,0,1,1,83.55,14.38,3.164,3.164,0,0,1,80.385,17.543Z" transform="translate(-9.761 -9.757)"/><g transform="translate(66 0)"><path d="M74.83,2.695a4.628,4.628,0,0,0-8.466.128A4.6,4.6,0,0,0,66,4.623a4.068,4.068,0,0,0,.2,1.166,8.65,8.65,0,0,0,.511,1.256,17.635,17.635,0,0,0,1.113,1.911c.359.544.771,1.119,1.223,1.71.421.55.793,1,1.049,1.3H68.629a.243.243,0,1,0,0,.487h3.992a.243.243,0,1,0,0-.487H71.155c.28-.332.7-.847,1.171-1.466.486-.642.92-1.261,1.291-1.841a15.371,15.371,0,0,0,1.109-2.018.243.243,0,1,0-.445-.2,20.681,20.681,0,0,1-2.342,3.762c-.424.56-.809,1.031-1.056,1.328-.088.106-.175.208-.258.3A34.184,34.184,0,0,1,68.43,8.988a17.38,17.38,0,0,1-1.358-2.311,5.133,5.133,0,0,1-.586-2.055A4.137,4.137,0,0,1,70.625.487h0a4.126,4.126,0,0,1,4.134,3.958A.242.242,0,0,0,75,4.678h.01a.244.244,0,0,0,.233-.253,4.588,4.588,0,0,0-.416-1.73Z" transform="translate(-66 0)"/><path d="M193.113,135.044a.244.244,0,0,0-.339.058l-1.286,1.82-1.013-1.114a.243.243,0,0,0-.36.327l1.217,1.338a.244.244,0,0,0,.379-.023l1.46-2.068A.243.243,0,0,0,193.113,135.044Z" transform="translate(-187.034 -131.714)"/><ellipse cx="0.243" cy="0.243" rx="0.243" ry="0.243" transform="translate(8.632 5.274)"/><path d="M119.43,50a3.406,3.406,0,1,0,3.408,3.406A3.407,3.407,0,0,0,119.43,50Zm0,6.326a2.92,2.92,0,1,1,2.921-2.92A2.92,2.92,0,0,1,119.43,56.326Z" transform="translate(-114.805 -48.783)"/></g></g></g></svg>