<svg xmlns="http://www.w3.org/2000/svg" xmlns:xlink="http://www.w3.org/1999/xlink" width="38.363" height="34.79" viewBox="0 0 38.363 34.79"><defs><style>.a{fill:#fff;}.b{fill:url(#a);}.c{fill:url(#d);}.d{fill:#8936c4;}.e{fill:#b458fb;}.f{filter:url(#b);}</style><linearGradient id="a" x1="0.084" y1="0.183" x2="0.881" y2="0.864" gradientUnits="objectBoundingBox"><stop offset="0" stop-color="#e45efa"/><stop offset="1" stop-color="#9954fd"/></linearGradient><filter id="b" x="0" y="3.391" width="38.363" height="31.399" filterUnits="userSpaceOnUse"><feOffset dy="2" input="SourceAlpha"/><feGaussianBlur stdDeviation="2" result="c"/><feFlood flood-color="#3d00a7" flood-opacity="0.502"/><feComposite operator="in" in2="c"/><feComposite in="SourceGraphic"/></filter><linearGradient id="d" x1="0.5" x2="0.5" y2="1" gradientUnits="objectBoundingBox"><stop offset="0" stop-color="#fff"/><stop offset="1" stop-color="#d0bae5"/></linearGradient></defs><g transform="translate(-26.696 -280)"><g transform="translate(-16 133)"><rect class="a" width="34" height="34" rx="6" transform="translate(45 147)"/><g transform="translate(48.696 154.391)"><g transform="translate(0 0)"><g class="f" transform="matrix(1, 0, 0, 1, -6, -7.39)"><path class="b" d="M9.7,0h6.964a9.7,9.7,0,1,1,0,19.4H9.7A9.7,9.7,0,1,1,9.7,0Z" transform="translate(6 7.39)"/></g></g><g transform="translate(5.679 2.937)"><path class="c" d="M13.5,64H1.747A1.749,1.749,0,0,0,0,65.747V73.69a1.749,1.749,0,0,0,1.747,1.747H13.5a1.749,1.749,0,0,0,1.747-1.747V65.747A1.749,1.749,0,0,0,13.5,64Zm0,0" transform="translate(0 -62.094)"/><path class="d" d="M174.639,0H171.78a1.113,1.113,0,0,0-1.112,1.112V2.383a1.113,1.113,0,0,0,1.112,1.112h2.859a1.113,1.113,0,0,0,1.112-1.112V1.112A1.113,1.113,0,0,0,174.639,0Zm0,0" transform="translate(-165.584)"/><path class="e" d="M109.845,150.921a1.589,1.589,0,1,1-1.589-1.589A1.589,1.589,0,0,1,109.845,150.921Zm0,0" transform="translate(-103.491 -144.884)"/><path class="e" d="M67.971,277.332H65.747A1.749,1.749,0,0,0,64,279.08v.318a.477.477,0,0,0,.477.477h4.766a.477.477,0,0,0,.477-.477v-.318a1.749,1.749,0,0,0-1.747-1.747Zm0,0" transform="translate(-62.094 -269.071)"/><g transform="translate(8.896 4.766)"><path class="e" d="M302.639,160.953h-3.495a.477.477,0,1,1,0-.953h3.495a.477.477,0,1,1,0,.953Zm0,0" transform="translate(-298.668 -160)"/><path class="e" d="M302.639,246.285h-3.495a.477.477,0,1,1,0-.953h3.495a.477.477,0,1,1,0,.953Zm0,0" transform="translate(-298.668 -242.79)"/><path class="e" d="M302.639,331.621h-3.495a.477.477,0,1,1,0-.953h3.495a.477.477,0,1,1,0,.953Zm0,0" transform="translate(-298.668 -325.584)"/></g></g></g></g></g></svg>