<svg xmlns="http://www.w3.org/2000/svg" width="32" height="32" viewBox="0 0 32 32"><defs><style>.a{fill:#fff;}.b{fill:#ffc03f;}.c{fill:#213643;}</style></defs><path class="a" d="M26,32H6a6,6,0,0,1-6-6V6A6,6,0,0,1,6,0H26a6,6,0,0,1,6,6V26A6,6,0,0,1,26,32Z"/><g transform="translate(0.562 6.25)"><g transform="translate(5.923 2.215)"><path class="a" d="M33.907,138.449V150.1a1.742,1.742,0,0,1-1.742,1.742H16.634a1.742,1.742,0,0,1-1.742-1.742V138.449Zm-2.887,4.43a1.492,1.492,0,1,0,0,.025C31.02,142.9,31.02,142.888,31.02,142.879Zm0,4.38a1.444,1.444,0,0,0-1.418-1.468h-.05a1.444,1.444,0,0,0-1.468,1.418c0,.017,0,.033,0,.05a1.493,1.493,0,0,0,1.468,1.468,1.468,1.468,0,0,0,1.468-1.468Zm-5.152-4.38a1.492,1.492,0,1,0,0,.025C25.868,142.9,25.868,142.888,25.868,142.879Zm0,4.38a1.444,1.444,0,0,0-1.418-1.468H24.4a1.444,1.444,0,0,0-1.468,1.418c0,.017,0,.033,0,.05a1.493,1.493,0,0,0,1.468,1.468A1.468,1.468,0,0,0,25.868,147.26Zm-5.152-4.38a1.468,1.468,0,1,0-1.468,1.468,1.468,1.468,0,0,0,1.468-1.468Zm0,4.38a1.468,1.468,0,0,0-2.937,0,1.493,1.493,0,0,0,1.468,1.468,1.468,1.468,0,0,0,1.468-1.468Z" transform="translate(-14.892 -134.069)"/><path class="b" d="M29.028,46.5h3.136a1.742,1.742,0,0,1,1.742,1.742v2.638H14.891V48.24A1.742,1.742,0,0,1,16.633,46.5Z" transform="translate(-14.891 -46.498)"/><g transform="translate(2.887 7.342)"><circle class="a" cx="1.468" cy="1.468" r="1.468" transform="translate(10.304)"/><circle class="a" cx="1.468" cy="1.468" r="1.468" transform="translate(10.304 4.38)"/><circle class="a" cx="1.468" cy="1.468" r="1.468" transform="translate(5.152)"/><circle class="a" cx="1.468" cy="1.468" r="1.468" transform="translate(5.152 4.38)"/><circle class="a" cx="1.468" cy="1.468" r="1.468"/><circle class="a" cx="1.468" cy="1.468" r="1.468" transform="translate(0 4.38)"/></g></g><g transform="translate(5.474)"><path class="c" d="M23.2,1.767H20.657V.5a.5.5,0,0,0-1,0V1.767H11.2V.5a.5.5,0,0,0-1,0V1.767H7.665a2.14,2.14,0,0,0-2.19,2.09q0,.05,0,.1V18.219A2.165,2.165,0,0,0,7.59,20.434H23.2a2.165,2.165,0,0,0,2.191-2.14q0-.038,0-.075V3.957a2.14,2.14,0,0,0-2.09-2.19Zm1.195,16.452a1.17,1.17,0,0,1-1.119,1.219H7.665a1.17,1.17,0,0,1-1.2-1.144q0-.038,0-.076V6.994h17.92ZM24.391,6H6.47V3.957A1.145,1.145,0,0,1,7.563,2.763q.051,0,.1,0H10.2V4.007a.5.5,0,1,0,1,0V2.763h8.462V4.007a.5.5,0,0,0,1,0V2.763H23.2a1.145,1.145,0,0,1,1.195,1.093q0,.051,0,.1V6Z" transform="translate(-5.474)"/><path class="c" d="M67.013,193.582a1.966,1.966,0,1,1,1.966-1.966,1.966,1.966,0,0,1-1.966,1.966Zm0-2.937a.971.971,0,0,0-.971.971h0a.971.971,0,1,0,.971-.971Z" transform="translate(-62.209 -180.615)"/><path class="c" d="M175.16,193.582a1.966,1.966,0,1,1,1.966-1.966,1.966,1.966,0,0,1-1.966,1.966Zm0-2.937a.971.971,0,0,0-.971.971h0a.971.971,0,1,0,.971-.971Z" transform="translate(-165.204 -180.615)"/><path class="c" d="M283.307,193.582a1.966,1.966,0,1,1,1.966-1.966,1.966,1.966,0,0,1-1.966,1.966Zm0-2.937a.971.971,0,0,0-.971.971h0a.971.971,0,1,0,.971-.971Z" transform="translate(-268.199 -180.615)"/><path class="c" d="M67.016,285.532a1.966,1.966,0,1,1,1.966-1.966q0,.012,0,.025a1.941,1.941,0,0,1-1.941,1.941Zm0-2.912a.971.971,0,1,0,.971.971.946.946,0,0,0-.92-.971Z" transform="translate(-62.212 -268.185)"/><path class="c" d="M175.163,285.532a1.966,1.966,0,1,1,1.966-1.966c0,.008,0,.016,0,.025a1.941,1.941,0,0,1-1.941,1.941Zm0-2.912a.971.971,0,1,0,.971.971.946.946,0,0,0-.92-.971Z" transform="translate(-165.207 -268.185)"/><path class="c" d="M283.31,285.532a1.966,1.966,0,1,1,1.966-1.966q0,.012,0,.025a1.941,1.941,0,0,1-1.941,1.941Zm0-2.912a.971.971,0,1,0,.971.971.946.946,0,0,0-.92-.971Z" transform="translate(-268.202 -268.185)"/></g></g></svg>