<svg xmlns="http://www.w3.org/2000/svg" width="23.666" height="20.346" viewBox="0 0 23.666 20.346"><defs><style>.a{fill:#fff;}.b{fill:#ffbe39;}</style></defs><g transform="translate(-56.81 -267)"><g transform="translate(52.811 262)"><g transform="translate(3.999 -23.589)"><rect class="a" width="18.583" height="11.15" transform="translate(0.929 36.855)"/><path class="a" d="M64.689,58.2V53.719a.465.465,0,0,0-.465-.465h-.007l-.984-2.472a.385.385,0,0,0-.038-.059.459.459,0,0,0-.485-.358,2.778,2.778,0,0,1-2.436-1.049.46.46,0,0,0-.6-.1.523.523,0,0,0-.066.012l-9.5,3.782a.459.459,0,0,0-.255.248H46.976l15.745-6.269,4.125,10.358Z" transform="translate(-44.248 -17.328)"/><path class="b" d="M48,204.992a3.686,3.686,0,0,0,2.047-2.047H60.819a3.687,3.687,0,0,0,2.047,2.047v3.339a3.691,3.691,0,0,0-2.047,2.047H50.047A3.691,3.691,0,0,0,48,208.331Z" transform="translate(-45.213 -164.231)"/><ellipse class="a" cx="2" cy="2.5" rx="2" ry="2.5" transform="translate(8.066 39.583)"/><g transform="translate(0 28.588)"><g transform="translate(0 0)"><path d="M23.633,40.1h0l-4.468-11.22a.465.465,0,0,0-.6-.26h0L.433,35.84a.455.455,0,0,0-.186.148.459.459,0,0,0-.248.4V48.47a.465.465,0,0,0,.465.465H19.977a.465.465,0,0,0,.465-.465v-6.6L23.374,40.7A.465.465,0,0,0,23.633,40.1Zm-4.121,7.9H.929V36.855H19.512ZM7.751,35.928l7.779-3.1a3.7,3.7,0,0,0,2.663,1.148l.776,1.951Zm12.69,4.946V36.391a.465.465,0,0,0-.465-.465h-.007l-.984-2.472a.385.385,0,0,0-.038-.059.459.459,0,0,0-.485-.358,2.778,2.778,0,0,1-2.436-1.049.46.46,0,0,0-.6-.1.522.522,0,0,0-.066.012l-9.5,3.782a.459.459,0,0,0-.255.248H2.728l15.745-6.269L22.6,40.014Z" transform="translate(0 -28.588)"/><path d="M32.332,194.029a2.778,2.778,0,0,1,1.876,1.873.465.465,0,0,0,.445.332.426.426,0,0,0,.072-.011.431.431,0,0,0,.064.013h11.15a.4.4,0,0,0,.057-.012.433.433,0,0,0,.523-.318v0a2.778,2.778,0,0,1,1.875-1.876.459.459,0,0,0,.319-.511.469.469,0,0,0,.013-.069v-3.717a.42.42,0,0,0-.014-.069.458.458,0,0,0-.319-.511,2.775,2.775,0,0,1-1.875-1.876.459.459,0,0,0-.515-.319.442.442,0,0,0-.066-.013H34.787a.438.438,0,0,0-.069.014.459.459,0,0,0-.511.319,2.778,2.778,0,0,1-1.876,1.875.459.459,0,0,0-.319.511.469.469,0,0,0-.013.069v3.717a.429.429,0,0,0,.013.065A.46.46,0,0,0,32.332,194.029Zm.6-4.108a3.686,3.686,0,0,0,2.047-2.047H45.748a3.687,3.687,0,0,0,2.047,2.047v3.339a3.691,3.691,0,0,0-2.047,2.047H34.976a3.691,3.691,0,0,0-2.047-2.047Z" transform="translate(-30.142 -177.749)"/><path d="M130.787,224.52A2.787,2.787,0,1,0,128,221.732,2.787,2.787,0,0,0,130.787,224.52Zm0-4.646a1.858,1.858,0,1,1-1.858,1.858A1.858,1.858,0,0,1,130.787,219.874Z" transform="translate(-120.567 -207.891)"/><path d="M76.7,256.339a.7.7,0,1,0-.7-.7A.7.7,0,0,0,76.7,256.339Zm0-.929a.232.232,0,1,1-.232.232A.232.232,0,0,1,76.7,255.41Z" transform="translate(-71.587 -241.8)"/><path d="M252.7,256.339a.7.7,0,1,0-.7-.7A.7.7,0,0,0,252.7,256.339Zm0-.929a.232.232,0,1,1-.232.232A.232.232,0,0,1,252.7,255.41Z" transform="translate(-237.366 -241.8)"/></g></g><path class="b" d="M133.48,104.709l7.779-3.1a3.7,3.7,0,0,0,2.663,1.148l.776,1.951Z" transform="translate(-125.729 -68.78)"/></g></g></g></svg>