<svg xmlns="http://www.w3.org/2000/svg" width="18" height="24" viewBox="0 0 18 24">
  <g id="shopping-list_1_" data-name="shopping-list (1)" transform="translate(-64)">
    <g id="Group_9411" data-name="Group 9411" transform="translate(67.001 9)">
      <g id="Group_9410" data-name="Group 9410">
        <path id="Path_41279" data-name="Path 41279" d="M133.8,192.228a.752.752,0,0,0-1.062,0l-2.469,2.471-.969-.971a.75.75,0,0,0-1.061,1.061l1.5,1.5a.743.743,0,0,0,.529.221.753.753,0,0,0,.531-.219l3-3A.751.751,0,0,0,133.8,192.228Z" transform="translate(-128.024 -192.008)" fill="#fff"/>
      </g>
    </g>
    <g id="Group_9413" data-name="Group 9413" transform="translate(67.001 15)">
      <g id="Group_9412" data-name="Group 9412">
        <path id="Path_41280" data-name="Path 41280" d="M133.8,320.228a.752.752,0,0,0-1.062,0l-2.469,2.471-.969-.969a.75.75,0,1,0-1.061,1.06l1.5,1.5a.751.751,0,0,0,1.061,0l3-3A.75.75,0,0,0,133.8,320.228Z" transform="translate(-128.024 -320.008)" fill="#fff"/>
      </g>
    </g>
    <g id="Group_9415" data-name="Group 9415" transform="translate(74.5 10.5)">
      <g id="Group_9414" data-name="Group 9414" transform="translate(0)">
        <path id="Path_41281" data-name="Path 41281" d="M291.75,224h-3a.75.75,0,1,0,0,1.5h3a.75.75,0,0,0,0-1.5Z" transform="translate(-288 -224)" fill="#fff"/>
      </g>
    </g>
    <g id="Group_9417" data-name="Group 9417" transform="translate(74.5 16.5)">
      <g id="Group_9416" data-name="Group 9416" transform="translate(0)">
        <path id="Path_41282" data-name="Path 41282" d="M291.75,352h-3a.75.75,0,1,0,0,1.5h3a.75.75,0,0,0,0-1.5Z" transform="translate(-288 -352)" fill="#fff"/>
      </g>
    </g>
    <g id="Group_9419" data-name="Group 9419" transform="translate(64)">
      <g id="Group_9418" data-name="Group 9418" transform="translate(0)">
        <path id="Path_41283" data-name="Path 41283" d="M80.5,3h-3V2.25a.75.75,0,0,0-.75-.75H75.122a2.252,2.252,0,0,0-4.245,0H69.25a.75.75,0,0,0-.75.75V3h-3A1.5,1.5,0,0,0,64,4.5v18A1.5,1.5,0,0,0,65.5,24h15A1.5,1.5,0,0,0,82,22.5V4.5A1.5,1.5,0,0,0,80.5,3ZM70,3h1.5a.75.75,0,0,0,.75-.75.75.75,0,1,1,1.5,0A.75.75,0,0,0,74.5,3H76V4.5H70ZM80.5,22.5h-15V4.5h3v.75a.75.75,0,0,0,.75.75h7.5a.75.75,0,0,0,.75-.75V4.5h3Z" transform="translate(-64)" fill="#fff"/>
      </g>
    </g>
  </g>
</svg>
