<svg xmlns="http://www.w3.org/2000/svg" xmlns:xlink="http://www.w3.org/1999/xlink" width="66" height="66" viewBox="0 0 66 66"><defs><style>.a{fill:#fef7cb;}.b{fill:url(#a);}.c{fill:url(#d);}.d{fill:#f5ad13;}.e{fill:#feb724;}.f{fill:#ffd981;}.g{fill:#fed652;}.h{fill:#feba28;}.i{filter:url(#e);}.j{filter:url(#b);}</style><linearGradient id="a" x1="0.084" y1="0.183" x2="0.881" y2="0.864" gradientUnits="objectBoundingBox"><stop offset="0" stop-color="#ffdf60"/><stop offset="1" stop-color="#feb31d"/></linearGradient><filter id="b" x="2" y="10" width="62.737" height="49.335" filterUnits="userSpaceOnUse"><feOffset dy="2" input="SourceAlpha"/><feGaussianBlur stdDeviation="2" result="c"/><feFlood flood-color="#ffba28" flood-opacity="0.612"/><feComposite operator="in" in2="c"/><feComposite in="SourceGraphic"/></filter><linearGradient id="d" x1="0.5" x2="0.5" y2="1" gradientUnits="objectBoundingBox"><stop offset="0" stop-color="#fff"/><stop offset="1" stop-color="#fff1c1"/></linearGradient><filter id="e" x="20.105" y="17.993" width="27" height="31" filterUnits="userSpaceOnUse"><feOffset input="SourceAlpha"/><feGaussianBlur stdDeviation="0.5" result="f"/><feFlood flood-opacity="0.22"/><feComposite operator="in" in2="f"/><feComposite in="SourceGraphic"/></filter></defs><g transform="translate(-44.667 -146.667)"><rect class="a" width="66" height="66" rx="12" transform="translate(44.667 146.667)"/><g transform="translate(52.666 160.666)"><g transform="translate(0 0)"><g class="j" transform="matrix(1, 0, 0, 1, -8, -14)"><path class="b" d="M18.667,0h13.4a18.667,18.667,0,1,1,0,37.335h-13.4A18.667,18.667,0,0,1,18.667,0Z" transform="translate(8 14)"/></g></g><g transform="translate(-10.159 2.807)"><g class="i" transform="matrix(1, 0, 0, 1, 2.16, -16.81)"><rect class="c" width="24" height="28" rx="2" transform="translate(21.61 19.49)"/></g><rect class="d" width="10" height="6" rx="2" transform="translate(30.764 0.686)"/><path class="e" d="M69.166,56a5.178,5.178,0,1,0,4.63,7.493l-4.63-2.315Z" transform="translate(-33.402 -46.787)"/><path class="f" d="M96,56v5.178l4.63,2.315A5.175,5.175,0,0,0,96,56Z" transform="translate(-60.236 -46.787)"/><g transform="translate(30.586 20.864)"><path class="g" d="M64,144h2.589v2.589H64Z" transform="translate(-64 -141.411)"/><path class="g" d="M88,136h2.589v3.884H88Z" transform="translate(-84.116 -134.705)"/><path class="g" d="M112,128h2.589v5.178H112Z" transform="translate(-104.233 -128)"/></g><path class="h" d="M48,160H63.535v1.295H48Z" transform="translate(-20.003 -133.958)"/></g></g></g></svg>