<svg xmlns="http://www.w3.org/2000/svg" xmlns:xlink="http://www.w3.org/1999/xlink" width="38.212" height="34.536" viewBox="0 0 38.212 34.536"><defs><style>.a{fill:#fff;}.b{fill:url(#a);}.c{fill:url(#c);}.d{fill:url(#f);}.e{filter:url(#g);}.f{filter:url(#d);}</style><linearGradient id="a" x1="0.5" x2="0.5" y2="1" gradientUnits="objectBoundingBox"><stop offset="0" stop-color="#dfd5ff"/><stop offset="1" stop-color="#9474fd"/></linearGradient><linearGradient id="c" x1="0.084" y1="0.183" x2="0.881" y2="0.864" gradientUnits="objectBoundingBox"><stop offset="0" stop-color="#7adaff"/><stop offset="1" stop-color="#0aa3de"/></linearGradient><filter id="d" x="0" y="3.238" width="38.212" height="31.298" filterUnits="userSpaceOnUse"><feOffset dy="2" input="SourceAlpha"/><feGaussianBlur stdDeviation="2" result="e"/><feFlood flood-color="#56c8f4"/><feComposite operator="in" in2="e"/><feComposite in="SourceGraphic"/></filter><linearGradient id="f" x1="0.5" x2="0.5" y2="1" gradientUnits="objectBoundingBox"><stop offset="0" stop-color="#fff"/><stop offset="1" stop-color="#acffc8"/></linearGradient><filter id="g" x="5.335" y="5.053" width="27.478" height="27.478" filterUnits="userSpaceOnUse"><feOffset dy="2" input="SourceAlpha"/><feGaussianBlur stdDeviation="2" result="h"/><feFlood flood-opacity="0.161"/><feComposite operator="in" in2="h"/><feComposite in="SourceGraphic"/></filter></defs><g transform="translate(2)"><rect class="a" width="34" height="34" rx="6"/><ellipse class="a" cy="0.5" ry="0.5" transform="translate(13 20)"/><ellipse class="a" cy="0.5" ry="0.5" transform="translate(21 20)"/><rect class="b" height="4" transform="translate(11 14)"/><rect class="b" height="4" transform="translate(23 14)"/><g transform="translate(4 7.238)"><g class="f" transform="matrix(1, 0, 0, 1, -6, -7.24)"><path class="c" d="M9.644,0h6.924a9.649,9.649,0,0,1,0,19.3H9.644a9.649,9.649,0,0,1,0-19.3Z" transform="translate(6 7.24)"/></g><g transform="translate(5.335 1.815)"><g class="e" transform="matrix(1, 0, 0, 1, -11.33, -9.05)"><path class="d" d="M13.211,10.006h-.537a1.352,1.352,0,0,0-2.554,0h-.99a.907.907,0,0,1,0-1.814H12.3a.508.508,0,0,0,.363-.182l2.178-2.933a3.174,3.174,0,1,0-5.081,0L11.4,7.285H9.129a1.814,1.814,0,1,0,0,3.628h.99a1.352,1.352,0,0,0,2.554,0h.537a1.362,1.362,0,0,1,1.36,1.36,1.388,1.388,0,0,1-1.36,1.391H9.953a1.352,1.352,0,0,0-2.554,0H4.081l1.634-2.208A3.174,3.174,0,1,0,0,9.553a3.146,3.146,0,0,0,.634,1.9c.053.07,2.188,2.959,2.255,3.015a.458.458,0,0,0,.285.1H7.4a1.352,1.352,0,0,0,2.554,0h3.258a2.3,2.3,0,0,0,2.267-2.3A2.27,2.27,0,0,0,13.211,10.006ZM10.943,3.174a1.36,1.36,0,1,1,1.36,1.36A1.362,1.362,0,0,1,10.943,3.174ZM3.174,10.913a1.36,1.36,0,1,1,1.36-1.36A1.362,1.362,0,0,1,3.174,10.913Z" transform="translate(11.33 9.05)"/></g><g transform="translate(11.85 2.721)"><path class="d" d="M392.453,90a.453.453,0,1,0,.453.453A.454.454,0,0,0,392.453,90Z" transform="translate(-392 -90)"/></g><g transform="translate(2.721 9.099)"><path class="d" d="M90.453,301a.453.453,0,1,0,.453.453A.454.454,0,0,0,90.453,301Z" transform="translate(-90 -301)"/></g></g></g></g></svg>