<svg xmlns="http://www.w3.org/2000/svg" width="12.47" height="12.47" viewBox="0 0 12.47 12.47"><defs><style>.a{fill:#fff;}.b{fill:#ffbe39;}</style></defs><g transform="translate(-59.773 -270.961)"><g transform="translate(5 7)"><g transform="translate(52.811 262)"><g transform="translate(1.962 1.961)"><circle class="a" cx="1.716" cy="1.716" r="1.716" transform="translate(0.687 0.687)"/><circle class="a" cx="1.716" cy="1.716" r="1.716" transform="translate(7.86 5.28)"/><g transform="translate(0.238 0.238)"><path class="b" d="M306.75,178.375a2.364,2.364,0,0,1-.4,1.318l-1.976,3.1-1.976-3.1a2.375,2.375,0,1,1,4.351-1.318Zm-1.425,0a.95.95,0,1,0-.95.95A.95.95,0,0,0,305.325,178.375Z" transform="translate(-294.756 -171.749)"/><ellipse cx="0.736" cy="0.245" rx="0.736" ry="0.245" transform="translate(9.094 11.546)"/><path class="b" d="M14.75,12.375a2.364,2.364,0,0,1-.4,1.318l-1.976,3.242L10.4,13.693a2.375,2.375,0,1,1,4.351-1.318Zm-1.425,0a.95.95,0,1,0-.95.95A.95.95,0,0,0,13.325,12.375Z" transform="translate(-10 -10)"/><ellipse cx="0.736" cy="0.245" rx="0.736" ry="0.245" transform="translate(1.43 7.011)"/></g><path d="M2.25,7.221a.735.735,0,0,0-.35.629.723.723,0,0,0,.713.731.715.715,0,0,0,.672-.488H5.13a.732.732,0,0,1,0,1.463H2.28a1.219,1.219,0,0,0,0,2.438H4.655a.244.244,0,0,0,0-.488H2.28a.732.732,0,0,1,0-1.463H5.13a1.219,1.219,0,0,0,0-2.438H3.284a.731.731,0,0,0-.309-.386L4.789,4.166a2.721,2.721,0,0,0,.436-1.484A2.651,2.651,0,0,0,2.613,0,2.651,2.651,0,0,0,0,2.682,2.721,2.721,0,0,0,.436,4.166Zm.362.873A.244.244,0,1,1,2.85,7.85.241.241,0,0,1,2.613,8.094Zm0-7.606A2.169,2.169,0,0,1,4.75,2.682,2.225,2.225,0,0,1,4.391,3.9l-.005.009L2.613,6.894.834,3.9A2.225,2.225,0,0,1,.475,2.682,2.169,2.169,0,0,1,2.613.488Z" transform="translate(0 0)"/><path d="M61.188,62.375A1.188,1.188,0,1,0,60,61.188,1.189,1.189,0,0,0,61.188,62.375Zm0-1.9a.713.713,0,1,1-.713.713A.713.713,0,0,1,61.188,60.475Z" transform="translate(-58.575 -58.575)"/><path d="M278.993,166a2.613,2.613,0,0,0-2.175,4.061l1.807,2.835a.716.716,0,0,0-.3.373h-2.084a.238.238,0,1,0,0,.475h2.084a.712.712,0,1,0,1.039-.848l1.807-2.835A2.613,2.613,0,0,0,278.993,166Zm0,7.743a.238.238,0,1,1,.238-.238A.238.238,0,0,1,278.993,173.743Zm1.779-3.944-1.779,2.79-1.779-2.79a2.138,2.138,0,1,1,3.557,0Z" transform="translate(-269.136 -161.749)"/><path d="M353.188,226a1.188,1.188,0,1,0,1.188,1.188A1.189,1.189,0,0,0,353.188,226Zm0,1.9a.713.713,0,1,1,.713-.713A.713.713,0,0,1,353.188,227.9Z" transform="translate(-343.331 -220.463)"/><ellipse cx="0.245" rx="0.245" transform="translate(5.738 11.783)"/></g></g></g></g></svg>