<svg xmlns="http://www.w3.org/2000/svg" width="84" height="83" viewBox="0 0 84 83">
  <g id="Group_764" data-name="Group 764" transform="translate(0 0)">
    <ellipse id="Ellipse_61" data-name="Ellipse 61" cx="42" cy="41.5" rx="42" ry="41.5" transform="translate(0 0)" fill="#621384" opacity="0.07"/>
    <ellipse id="Ellipse_58" data-name="Ellipse 58" cx="34" cy="34.5" rx="34" ry="34.5" transform="translate(8 7)" fill="#621384" opacity="0.14"/>
    <path id="Path_41252" data-name="Path 41252" d="M28,0A27.753,27.753,0,0,1,56,27.5,27.753,27.753,0,0,1,28,55,27.753,27.753,0,0,1,0,27.5,27.753,27.753,0,0,1,28,0Z" transform="translate(14 14)" fill="#fff"/>
    <g id="manager_6_" data-name="manager (6)" transform="translate(27 25)">
      <path id="Path_41252-2" data-name="Path 41252" d="M110.188,10h-2.609a6.58,6.58,0,0,0-6.58,6.58v2.632l15.791.026V16.6a6.6,6.6,0,0,0-6.6-6.6Zm0,0" transform="translate(-94.354 -9.341)" fill="#ffc03f"/>
      <path id="Path_41253" data-name="Path 41253" d="M30.453,281.736l-2.619-2.356-.056.032-7.863-.023-.031-.018-2.629,2.365c-3.278,0-7.251,2.661-7.251,5.944v6.339H37.7V287.68c0-3.283-3.974-5.944-7.252-5.944Zm0,0" transform="translate(-9.346 -260.988)" fill="#fff"/>
      <path id="Path_41254" data-name="Path 41254" d="M114.358,96.93a8.019,8.019,0,0,1-10.984,0L101,100.408v1.724a7.889,7.889,0,0,0,3.9,6.818l.013-.011.019.03,3.94,6.3,3.925-6.28.033-.053.023.021a7.894,7.894,0,0,0,3.945-6.827v-1.7Zm0,0" transform="translate(-94.355 -90.551)" fill="#fff"/>
      <path id="Path_41255" data-name="Path 41255" d="M179.976,379.66l.866-2.5.018-.036L178,375.691l-2.8,1.4h0l.82,2.566L175,383.879V384h5.965Zm0,0" transform="translate(-163.486 -350.971)" fill="#ffc03f"/>
      <path id="Path_41256" data-name="Path 41256" d="M261.459,161.316a.658.658,0,1,0-.658-.658A.658.658,0,0,0,261.459,161.316Zm0,0" transform="translate(-243.641 -149.472)"/>
      <path id="Path_41257" data-name="Path 41257" d="M161.459,161.316a.658.658,0,1,0-.658-.658A.658.658,0,0,0,161.459,161.316Zm0,0" transform="translate(-150.221 -149.472)"/>
      <path id="Path_41258" data-name="Path 41258" d="M188.7,230.94a4.139,4.139,0,0,0,3.484.016.658.658,0,1,0-.55-1.2,2.823,2.823,0,0,1-2.373-.011.658.658,0,1,0-.561,1.19Zm0,0" transform="translate(-175.936 -214.574)"/>
      <path id="Path_41259" data-name="Path 41259" d="M29.017,26.7c0-3.618-4.116-6.456-7.645-6.59l-1.8-1.619a8.586,8.586,0,0,0,3.523-6.909V7.238A7.254,7.254,0,0,0,15.841,0H13.2A7.214,7.214,0,0,0,5.987,7.238v4.343a8.6,8.6,0,0,0,3.481,6.9L7.652,20.109C4.128,20.243,0,23.074,0,26.7v6.332a.658.658,0,0,0,.658.658h27.7a.658.658,0,0,0,.658-.658ZM13.07,29.346h2.912l.69,3.027H12.36Zm2.968-1.316H13.029l-.5-1.572,2-1,2.047,1.024Zm-1.51-4.552-2.287-3.658a8.544,8.544,0,0,0,4.569.005Zm.941.976L18.629,19.4l1.7,1.531L18.164,25.8ZM13.2,1.316h2.632a5.94,5.94,0,0,1,5.945,5.922v.544L20.5,5.935a.183.183,0,0,0-.029-.033.67.67,0,0,0-.935.016A6.489,6.489,0,0,1,14.512,7.9,6.492,6.492,0,0,1,9.438,5.865a.171.171,0,0,0-.032-.026.668.668,0,0,0-.931.168L7.3,7.726V7.238a5.917,5.917,0,0,1,5.9-5.922ZM7.3,11.581V10.06L9.131,7.382a7.882,7.882,0,0,0,5.381,1.83A7.879,7.879,0,0,0,19.9,7.378l1.882,2.711v1.492a7.238,7.238,0,1,1-14.475,0Zm3.123,7.82,3.16,5.055-2.7,1.348L8.723,20.931ZM1.316,26.7c0-2.71,3.3-5.051,6.174-5.264l2.462,5.531a.655.655,0,0,0,.9.317l.461-.231.534,1.662-.858,3.657H1.316ZM27.7,32.373H18l-.831-3.647.572-1.652.429.215a.66.66,0,0,0,.81-.179.647.647,0,0,0,.088-.149l2.459-5.525c2.879.213,6.174,2.554,6.174,5.264Zm0,0"/>
      <path id="Path_41260" data-name="Path 41260" d="M304.091,446h-2.632a.658.658,0,1,0,0,1.316h2.632a.658.658,0,0,0,0-1.316Zm0,0" transform="translate(-281.009 -416.654)"/>
      <path id="Path_41261" data-name="Path 41261" d="M381.658,447.316a.658.658,0,1,0-.658-.658A.658.658,0,0,0,381.658,447.316Zm0,0" transform="translate(-355.931 -416.654)"/>
    </g>
  </g>
</svg>
