<svg xmlns="http://www.w3.org/2000/svg" xmlns:xlink="http://www.w3.org/1999/xlink" width="66" height="66" viewBox="0 0 66 66"><defs><style>.a{fill:#ebf8ff;}.b{fill:url(#a);}.c{fill:#0f3075;}.d{fill:#013bb4;}.e{fill:#428fce;}.f{fill:#3180b5;}.g{fill:url(#d);}.h{fill:#c3f4ee;}.i{fill:url(#g);}.j{fill:#fff;}.k{filter:url(#e);}.l{filter:url(#b);}</style><linearGradient id="a" x1="0.084" y1="0.183" x2="0.881" y2="0.864" gradientUnits="objectBoundingBox"><stop offset="0" stop-color="#b9ecff"/><stop offset="1" stop-color="#3f79ff"/></linearGradient><filter id="b" x="2" y="10" width="62.737" height="49.335" filterUnits="userSpaceOnUse"><feOffset dy="2" input="SourceAlpha"/><feGaussianBlur stdDeviation="2" result="c"/><feFlood flood-color="#4584ff" flood-opacity="0.49"/><feComposite operator="in" in2="c"/><feComposite in="SourceGraphic"/></filter><linearGradient id="d" x1="0.5" x2="0.5" y2="1" gradientUnits="objectBoundingBox"><stop offset="0" stop-color="#488bff"/><stop offset="1" stop-color="#5099ff"/></linearGradient><filter id="e" x="19.563" y="18" width="27.433" height="30.502" filterUnits="userSpaceOnUse"><feOffset dy="2" input="SourceAlpha"/><feGaussianBlur stdDeviation="1" result="f"/><feFlood flood-opacity="0.49"/><feComposite operator="in" in2="f"/><feComposite in="SourceGraphic"/></filter><linearGradient id="g" x1="0.5" x2="0.5" y2="1" gradientUnits="objectBoundingBox"><stop offset="0" stop-color="#f5fffe"/><stop offset="1" stop-color="#d9e5ff"/></linearGradient></defs><g transform="translate(-44.667 -146.667)"><rect class="a" width="66" height="66" rx="12" transform="translate(44.667 146.667)"/><g transform="translate(52.666 160.666)"><g transform="translate(0 0)"><g class="l" transform="matrix(1, 0, 0, 1, -8, -14)"><path class="b" d="M18.667,0h13.4a18.667,18.667,0,1,1,0,37.335h-13.4A18.667,18.667,0,0,1,18.667,0Z" transform="translate(8 14)"/></g></g><g transform="translate(12 5)"><g transform="translate(5.036 23.238)"><path class="c" d="M107.343,428.293v3.813a.729.729,0,0,1-.729.728h-1.82a.728.728,0,0,1-.729-.728v-3.813Z" transform="translate(-104.065 -428.293)"/><path class="c" d="M350.805,428.293v3.813a.729.729,0,0,1-.729.728h-1.82a.728.728,0,0,1-.729-.728v-3.813Z" transform="translate(-334.317 -428.293)"/></g><g transform="translate(5.036 23.239)"><rect class="d" width="3.278" height="2.891"/><rect class="d" width="3.278" height="2.891" transform="translate(13.21)"/></g><path class="e" d="M299.835,135.074H289.681v6.973h10.154a1.3,1.3,0,0,0,1.3-1.3v-4.377A1.3,1.3,0,0,0,299.835,135.074Z" transform="translate(-274.574 -127.745)"/><path class="f" d="M12.547,135.074H22.728v6.973H12.547a1.3,1.3,0,0,1-1.3-1.3v-4.377A1.3,1.3,0,0,1,12.547,135.074Z" transform="translate(-11.249 -127.745)"/><g class="k" transform="matrix(1, 0, 0, 1, -20, -19)"><path class="g" d="M77.238,0H61.184a2.689,2.689,0,0,0-2.689,2.689V21.813A2.689,2.689,0,0,0,61.184,24.5H77.238a2.689,2.689,0,0,0,2.689-2.689V2.689A2.689,2.689,0,0,0,77.238,0Z" transform="translate(-35.93 19)"/></g><g transform="translate(4.024 19.811)"><circle class="h" cx="1.559" cy="1.559" r="1.559" transform="translate(0)"/><circle class="h" cx="1.559" cy="1.559" r="1.559" transform="translate(15.393)"/></g><g transform="translate(3.6 19.386)"><path class="f" d="M79.573,361.251a1.984,1.984,0,1,1,1.984-1.984A1.971,1.971,0,0,1,79.573,361.251Zm0-3.118a1.134,1.134,0,1,0,0,2.268,1.134,1.134,0,0,0,0-2.268Z" transform="translate(-77.589 -357.282)"/><path class="f" d="M363.263,361.251a1.984,1.984,0,1,1,1.984-1.984A1.971,1.971,0,0,1,363.263,361.251Zm0-3.118a1.134,1.134,0,1,0,0,2.268,1.134,1.134,0,1,0,0-2.268Z" transform="translate(-345.886 -357.282)"/></g><path class="i" d="M79.931,42.54v12.7a1.507,1.507,0,0,1-1.507,1.508H60.006A1.507,1.507,0,0,1,58.5,55.238V42.54a1.507,1.507,0,0,1,1.507-1.508H78.424A1.507,1.507,0,0,1,79.931,42.54Z" transform="translate(-55.935 -38.806)"/><path class="j" d="M79.93,42.54V45H58.5V42.54A1.507,1.507,0,0,1,60,41.032H78.423A1.507,1.507,0,0,1,79.93,42.54Z" transform="translate(-55.934 -38.806)"/><path class="f" d="M118.909,368.249h-5.732a1.67,1.67,0,0,0-1.669,1.669v.776a2.077,2.077,0,0,1-2.077,2.077h13.224a2.077,2.077,0,0,1-2.077-2.077v-.776A1.669,1.669,0,0,0,118.909,368.249Z" transform="translate(-102.806 -348.268)"/><path class="c" d="M202.715,396.3h-5.1a.655.655,0,0,1-.655-.655v-.788a.655.655,0,0,1,.655-.655h5.1a.655.655,0,0,1,.655.655v.788A.655.655,0,0,1,202.715,396.3Z" transform="translate(-186.886 -372.818)"/></g></g></g></svg>