<svg xmlns="http://www.w3.org/2000/svg" xmlns:xlink="http://www.w3.org/1999/xlink" width="38.363" height="34.79" viewBox="0 0 38.363 34.79"><defs><style>.a{fill:#fff;}.b{fill:url(#a);}.c{fill:#f1e7d8;}.d{fill:#f9f3f1;}.e{fill:url(#d);}.f{fill:url(#e);}.g{fill:#d6cbb2;}.h{fill:#b78a23;}.i{fill:#e2ad35;}.j{filter:url(#b);}</style><linearGradient id="a" x1="0.084" y1="0.183" x2="0.881" y2="0.864" gradientUnits="objectBoundingBox"><stop offset="0" stop-color="#ffdb1b"/><stop offset="1" stop-color="#ffae24"/></linearGradient><filter id="b" x="0" y="3.391" width="38.363" height="31.399" filterUnits="userSpaceOnUse"><feOffset dy="2" input="SourceAlpha"/><feGaussianBlur stdDeviation="2" result="c"/><feFlood flood-color="#956203" flood-opacity="0.502"/><feComposite operator="in" in2="c"/><feComposite in="SourceGraphic"/></filter><linearGradient id="d" x1="0.5" x2="0.5" y2="1" gradientUnits="objectBoundingBox"><stop offset="0" stop-color="#fff7eb"/><stop offset="1" stop-color="#f8b859"/></linearGradient><linearGradient id="e" x1="0.5" y1="-0.39" x2="0.5" y2="1.862" gradientUnits="objectBoundingBox"><stop offset="0" stop-color="#fff"/><stop offset="1" stop-color="#f8b859"/></linearGradient></defs><g transform="translate(-42.696 -147)"><rect class="a" width="34" height="34" rx="6" transform="translate(45 147)"/><g transform="translate(48.696 154.391)"><g transform="translate(0 0)"><g class="j" transform="matrix(1, 0, 0, 1, -6, -7.39)"><path class="b" d="M9.7,0h6.964a9.7,9.7,0,1,1,0,19.4H9.7A9.7,9.7,0,1,1,9.7,0Z" transform="translate(6 7.39)"/></g></g></g><g transform="translate(55.056 156.232)"><path class="c" d="M42.328,356.525H30.311a.935.935,0,0,1-.935-.935v-1.3l13.887-2.523v3.824A.935.935,0,0,1,42.328,356.525Z" transform="translate(-29.376 -340.808)"/><path class="d" d="M39.786,55.255H30.312a.936.936,0,0,1-.936-.936V42.71a.936.936,0,0,1,.936-.936H42.327a.936.936,0,0,1,.936.936v9.068c0,.248-.566.486-.742.662l-2.074,2.074C40.272,54.689,40.034,55.255,39.786,55.255Z" transform="translate(-29.376 -40.473)"/><path class="e" d="M351.576,354.433a.936.936,0,0,0,.662-.274l2.545-2.545a.936.936,0,0,0,.274-.662v-.379a.767.767,0,0,1-.767.767h-1.56a.767.767,0,0,0-.767.767v1.56a.767.767,0,0,1-.767.767h.379Z" transform="translate(-341.171 -339.65)"/><path class="f" d="M43.267,42.7v2.4H29.38V42.7a.935.935,0,0,1,.935-.935H42.332A.935.935,0,0,1,43.267,42.7Z" transform="translate(-29.38 -40.469)"/><g transform="translate(1.477 1.301)"><g transform="translate(0)"><path class="g" d="M77.939,43.4h-.459a.711.711,0,0,1-.711-.71V41.77h.467v.921a.243.243,0,0,0,.243.243C77.61,42.934,78.068,43.4,77.939,43.4Z" transform="translate(-76.77 -41.77)"/></g><g transform="translate(8.488)"><path class="g" d="M350.4,43.4h-.459a.711.711,0,0,1-.71-.71V41.77h.467v.921a.243.243,0,0,0,.243.243A.817.817,0,0,1,350.4,43.4Z" transform="translate(-349.23 -41.77)"/></g></g><g transform="translate(1.935 0)"><g transform="translate(0 0)"><path class="h" d="M92.554,1.3V.711a.243.243,0,0,0-.243-.243H92.2a.243.243,0,0,0-.243.243V2.222a.243.243,0,0,0,.243.243.234.234,0,1,1,0,.467.711.711,0,0,1-.711-.711V.711A.711.711,0,0,1,92.2,0h.107a.711.711,0,0,1,.711.711V1.3Z" transform="translate(-91.493 0)"/></g><g transform="translate(8.488 0)"><path class="h" d="M365.011,1.3V.711a.243.243,0,0,0-.243-.243h-.107a.244.244,0,0,0-.243.243V2.222a.244.244,0,0,0,.243.243.234.234,0,0,1,0,.467.711.711,0,0,1-.711-.711V.711A.711.711,0,0,1,364.661,0h.107a.711.711,0,0,1,.711.711V1.3Z" transform="translate(-363.95 0)"/></g></g><g transform="translate(1.402 6.042)"><path class="i" d="M75.711,195.5H74.6a.223.223,0,0,1-.223-.223v-1.113a.223.223,0,0,1,.223-.223h1.113a.223.223,0,0,1,.223.223v1.113A.223.223,0,0,1,75.711,195.5Z" transform="translate(-74.376 -193.939)"/><path class="i" d="M177.627,195.5h-1.113a.223.223,0,0,1-.223-.223v-1.113a.223.223,0,0,1,.223-.223h1.113a.223.223,0,0,1,.223.223v1.113A.223.223,0,0,1,177.627,195.5Z" transform="translate(-173.117 -193.939)"/><path class="i" d="M279.543,195.5h-1.113a.223.223,0,0,1-.223-.223v-1.113a.223.223,0,0,1,.223-.223h1.113a.223.223,0,0,1,.223.223v1.113A.223.223,0,0,1,279.543,195.5Z" transform="translate(-271.858 -193.939)"/><path class="i" d="M381.459,195.5h-1.113a.223.223,0,0,1-.223-.223v-1.113a.223.223,0,0,1,.223-.223h1.113a.223.223,0,0,1,.223.223v1.113A.223.223,0,0,1,381.459,195.5Z" transform="translate(-370.599 -193.939)"/><g transform="translate(0 2.89)"><path class="i" d="M75.711,288.27H74.6a.223.223,0,0,1-.223-.223v-1.113a.223.223,0,0,1,.223-.223h1.113a.223.223,0,0,1,.223.223v1.113A.223.223,0,0,1,75.711,288.27Z" transform="translate(-74.376 -286.712)"/><path class="i" d="M177.627,288.27h-1.113a.223.223,0,0,1-.223-.223v-1.113a.223.223,0,0,1,.223-.223h1.113a.223.223,0,0,1,.223.223v1.113A.223.223,0,0,1,177.627,288.27Z" transform="translate(-173.117 -286.712)"/><path class="i" d="M279.543,288.27h-1.113a.223.223,0,0,1-.223-.223v-1.113a.223.223,0,0,1,.223-.223h1.113a.223.223,0,0,1,.223.223v1.113A.223.223,0,0,1,279.543,288.27Z" transform="translate(-271.858 -286.712)"/></g><path class="i" d="M381.459,290.5h-1.113a.223.223,0,0,1-.223-.223v-1.113a.223.223,0,0,1,.223-.223h1.113a.223.223,0,0,1,.223.223v1.113A.223.223,0,0,1,381.459,290.5Z" transform="translate(-370.599 -285.979)"/><g transform="translate(0 5.781)"><path class="i" d="M75.711,381.043H74.6a.223.223,0,0,1-.223-.223v-1.113a.223.223,0,0,1,.223-.223h1.113a.223.223,0,0,1,.223.223v1.113A.223.223,0,0,1,75.711,381.043Z" transform="translate(-74.376 -379.485)"/><path class="i" d="M177.627,381.043h-1.113a.223.223,0,0,1-.223-.223v-1.113a.223.223,0,0,1,.223-.223h1.113a.223.223,0,0,1,.223.223v1.113A.223.223,0,0,1,177.627,381.043Z" transform="translate(-173.117 -379.485)"/><path class="i" d="M279.543,381.043h-1.113a.223.223,0,0,1-.223-.223v-1.113a.223.223,0,0,1,.223-.223h1.113a.223.223,0,0,1,.223.223v1.113A.223.223,0,0,1,279.543,381.043Z" transform="translate(-271.858 -379.485)"/></g></g></g></g></svg>