<svg xmlns="http://www.w3.org/2000/svg" xmlns:xlink="http://www.w3.org/1999/xlink" width="44.577" height="44" viewBox="0 0 44.577 44"><defs><style>.a{fill:#fff;}.b{fill:url(#a);}.c{fill:url(#d);}.d{fill:url(#g);}.e{fill:#8ee0ff;}.f{fill:#1cace3;}.g{filter:url(#e);}.h{filter:url(#b);}</style><linearGradient id="a" x1="0.084" y1="0.183" x2="0.881" y2="0.864" gradientUnits="objectBoundingBox"><stop offset="0" stop-color="#7adaff"/><stop offset="1" stop-color="#0aa3de"/></linearGradient><filter id="b" x="0" y="5.787" width="44.576" height="36.017" filterUnits="userSpaceOnUse"><feOffset dy="2" input="SourceAlpha"/><feGaussianBlur stdDeviation="2" result="c"/><feFlood flood-color="#003c71" flood-opacity="0.302"/><feComposite operator="in" in2="c"/><feComposite in="SourceGraphic"/></filter><linearGradient id="d" x1="0.5" x2="0.5" y2="1" gradientUnits="objectBoundingBox"><stop offset="0" stop-color="#fff"/><stop offset="1" stop-color="#d3b5ff"/></linearGradient><filter id="e" x="9.866" y="9.378" width="24.509" height="29.048" filterUnits="userSpaceOnUse"><feOffset dy="2" input="SourceAlpha"/><feGaussianBlur stdDeviation="2" result="f"/><feFlood flood-color="#42027a" flood-opacity="0.161"/><feComposite operator="in" in2="f"/><feComposite in="SourceGraphic"/></filter><linearGradient id="g" x1="0.5" x2="0.5" y2="1" gradientUnits="objectBoundingBox"><stop offset="0" stop-color="#fff"/><stop offset="1" stop-color="#b5daff"/></linearGradient></defs><g transform="translate(-1.09 -1.666)"><rect class="a" width="44" height="44" rx="4" transform="translate(1.667 1.666)"/><g transform="translate(7.09 11.453)"><g class="h" transform="matrix(1, 0, 0, 1, -6, -9.79)"><path class="b" d="M11.986,0h8.605a12.009,12.009,0,0,1,0,24.017H11.986A12.009,12.009,0,0,1,11.986,0Z" transform="translate(6 9.79)"/></g><g transform="translate(9.866 3.591)"><g class="g" transform="matrix(1, 0, 0, 1, -15.87, -13.38)"><path class="c" d="M.536,17.048A.536.536,0,0,1,0,16.511V1.5A.536.536,0,0,1,.536.965H3.453L3.665.359A.536.536,0,0,1,4.171,0H8.338a.536.536,0,0,1,.506.359l.212.606h2.917a.536.536,0,0,1,.536.536v15.01a.536.536,0,0,1-.536.536Z" transform="translate(15.87 13.38)"/></g></g><g transform="translate(9.979 3.478)"><path class="d" d="M92.973,62H81.536a.536.536,0,0,0-.536.536v15.01a.536.536,0,0,0,.536.536H92.973a.536.536,0,0,0,.536-.536V62.536A.536.536,0,0,0,92.973,62Z" transform="translate(-81 -61.035)"/><path class="e" d="M167.761,2.575,166.985.359A.536.536,0,0,0,166.479,0h-4.167a.536.536,0,0,0-.506.359l-.776,2.216a.536.536,0,0,0,.506.713h5.718a.536.536,0,0,0,.506-.713Z" transform="translate(-158.141)"/><g transform="translate(2.144 5.682)"><path class="f" d="M204.4,313.072h-2.859a.536.536,0,1,1,0-1.072H204.4a.536.536,0,0,1,0,1.072Z" transform="translate(-198.856 -312)"/><path class="f" d="M148.684,363.072h-7.148a.536.536,0,1,1,0-1.072h7.148a.536.536,0,0,1,0,1.072Z" transform="translate(-141 -360.213)"/><path class="f" d="M148.684,413.072h-7.148a.536.536,0,0,1,0-1.072h7.148a.536.536,0,0,1,0,1.072Z" transform="translate(-141 -408.426)"/></g><g transform="translate(2.144 11.293)"><path class="f" d="M148.684,363.072h-7.148a.536.536,0,1,1,0-1.072h7.148a.536.536,0,0,1,0,1.072Z" transform="translate(-141 -362)"/><path class="f" d="M148.684,413.072h-7.148a.536.536,0,0,1,0-1.072h7.148a.536.536,0,0,1,0,1.072Z" transform="translate(-141 -410.213)"/></g></g></g></g></svg>