<svg xmlns="http://www.w3.org/2000/svg" width="16.147" height="16.146" viewBox="0 0 16.147 16.146"><defs><style>.a{fill:#fff;}.b{fill:#1586c7;}</style></defs><circle class="a" cx="7.484" cy="7.484" r="7.484" transform="translate(0.589 0.589)"/><path class="b" d="M8.073,16.147a8.073,8.073,0,1,1,8.073-8.073A8.073,8.073,0,0,1,8.073,16.147Zm0-14.968a6.895,6.895,0,1,0,6.895,6.895A6.891,6.891,0,0,0,8.073,1.179Z"/><path class="b" d="M192.336,110.317h-3.143a.579.579,0,0,1-.589-.589V105.6a.589.589,0,0,1,1.179,0v3.536h2.554a.589.589,0,0,1,0,1.179Z" transform="translate(-181.513 -101.065)"/></svg>