<svg xmlns="http://www.w3.org/2000/svg" width="10.623" height="10.623" viewBox="0 0 10.623 10.623"><defs><style>.a{fill:#ffc03f;}</style></defs><g transform="translate(-3 -3)"><g transform="translate(3 3)"><path class="a" d="M25.976,23.295a2.658,2.658,0,0,1-3.558,2.5,10.451,10.451,0,0,1-6.239-6.239A2.654,2.654,0,0,1,18.681,16v0l.521,2.428-.157.157-.9.9a9.066,9.066,0,0,0,4.342,4.342l1.057-1.057Z" transform="translate(-15.684 -15.668)"/><g transform="translate(0 0)"><path d="M7.635,10.623a2.96,2.96,0,0,1-1.015-.181A10.828,10.828,0,0,1,2.688,7.935,10.827,10.827,0,0,1,.182,4a2.938,2.938,0,0,1-.15-1.444A3.013,3.013,0,0,1,1.581.354,2.958,2.958,0,0,1,3,0a.332.332,0,0,1,.325.262l.521,2.432a.332.332,0,0,1-.09.3l-.89.89A8.738,8.738,0,0,0,6.735,7.761l.89-.89a.332.332,0,0,1,.3-.09l2.432.521a.332.332,0,0,1,.262.325,2.958,2.958,0,0,1-.354,1.416,3.013,3.013,0,0,1-2.206,1.549,2.953,2.953,0,0,1-.429.032ZM2.732.678a2.326,2.326,0,0,0-1.926,3.1A10.069,10.069,0,0,0,6.846,9.818a2.326,2.326,0,0,0,3.1-1.926L7.967,7.468l-.93.93a.332.332,0,0,1-.376.066,9.4,9.4,0,0,1-4.5-4.5.332.332,0,0,1,.066-.376l.93-.93Z" transform="translate(0 0)"/></g><g transform="translate(4.98)"><path d="M245.331,5.643A.332.332,0,0,1,245,5.311,4.653,4.653,0,0,0,240.352.664a.332.332,0,0,1,0-.664,5.311,5.311,0,0,1,5.311,5.311A.332.332,0,0,1,245.331,5.643Z" transform="translate(-240.02)"/></g><g transform="translate(4.98 1.328)"><path d="M244,68.315a.332.332,0,0,1-.332-.332,3.323,3.323,0,0,0-3.32-3.32.332.332,0,0,1,0-.664,3.988,3.988,0,0,1,3.983,3.983A.332.332,0,0,1,244,68.315Z" transform="translate(-240.02 -64)"/></g><g transform="translate(4.98 2.656)"><path d="M242.676,130.988a.332.332,0,0,1-.332-.332,1.994,1.994,0,0,0-1.992-1.992.332.332,0,0,1,0-.664,2.659,2.659,0,0,1,2.656,2.656A.332.332,0,0,1,242.676,130.988Z" transform="translate(-240.02 -128)"/></g></g></g></svg>