<svg xmlns="http://www.w3.org/2000/svg" width="12.066" height="8.266" viewBox="0 0 12.066 8.266"><defs><style>.a{fill:#ffc03f;}</style></defs><g transform="translate(-2.2 -4.413)"><path class="a" d="M24.969,221l5.281,4.344L35.813,221Z" transform="translate(-22 -216)"/><g transform="translate(2.2 -76.196)"><g transform="translate(0 80.609)"><path d="M11.005,80.609H1.06A1.062,1.062,0,0,0,0,81.669v6.146a1.062,1.062,0,0,0,1.06,1.06h9.945a1.062,1.062,0,0,0,1.06-1.06V81.669A1.062,1.062,0,0,0,11.005,80.609Zm-.138.707-.142.118L6.454,84.991a.657.657,0,0,1-.841,0L1.34,81.434,1.2,81.316Zm-10.16.51,3.48,2.9L.707,87.041Zm10.3,6.342H1.06a.354.354,0,0,1-.346-.283L4.754,85.2l.405.338a1.364,1.364,0,0,0,1.746,0l.405-.338,4.04,2.689A.354.354,0,0,1,11.005,88.168Zm.353-1.128-3.48-2.316,3.48-2.9Z" transform="translate(0 -80.609)"/></g></g></g></svg>