<svg xmlns="http://www.w3.org/2000/svg" width="16" height="16" viewBox="0 0 16 16"><defs><style>.a{fill:#2cbf6d;}</style></defs><g transform="translate(0 0)"><path d="M10.323,24A2.325,2.325,0,0,1,8,21.677V11.613A2.325,2.325,0,0,1,10.323,9.29h1.065v-.9a.387.387,0,1,1,.774,0v.9h3.419v-.9a.387.387,0,1,1,.774,0v.9h3.452v-.9a.387.387,0,1,1,.774,0v.9h1.1A2.325,2.325,0,0,1,24,11.613V21.774a.4.4,0,0,1-.005.058v.019A2.331,2.331,0,0,1,21.677,24Zm0-13.935a1.55,1.55,0,0,0-1.548,1.548V21.677a1.55,1.55,0,0,0,1.548,1.548H21.677a1.55,1.55,0,0,0,1.548-1.548V11.613a1.55,1.55,0,0,0-1.548-1.548h-1.1v.9a.387.387,0,0,1-.774,0v-.9H16.355v.9a.387.387,0,0,1-.774,0v-.9H12.161v.9a.387.387,0,0,1-.774,0v-.9Z" transform="translate(-8 -8)"/><g transform="translate(0.365 0.17)"><circle cx="0.756" cy="0.756" r="0.756" transform="translate(2.635 10.978)"/><circle cx="0.756" cy="0.756" r="0.756" transform="translate(2.635 7.904)"/><circle class="a" cx="0.756" cy="0.756" r="0.756" transform="translate(2.635 4.83)"/></g><g transform="translate(3.365 0.17)"><circle cx="0.756" cy="0.756" r="0.756" transform="translate(2.635 10.978)"/><circle cx="0.756" cy="0.756" r="0.756" transform="translate(2.635 7.904)"/><circle cx="0.756" cy="0.756" r="0.756" transform="translate(2.635 4.83)"/></g><g transform="translate(6.365 0.17)"><circle cx="0.756" cy="0.756" r="0.756" transform="translate(2.635 10.978)"/><circle cx="0.756" cy="0.756" r="0.756" transform="translate(2.635 7.904)"/><circle cx="0.756" cy="0.756" r="0.756" transform="translate(2.635 4.83)"/></g><g transform="translate(9.365 0.17)"><circle cx="0.756" cy="0.756" r="0.756" transform="translate(2.635 10.978)"/><circle cx="0.756" cy="0.756" r="0.756" transform="translate(2.635 7.904)"/><circle cx="0.756" cy="0.756" r="0.756" transform="translate(2.635 4.83)"/></g></g></svg>