<svg xmlns="http://www.w3.org/2000/svg" width="17.047" height="12.985" viewBox="0 0 17.047 12.985"><defs><style>.a{fill:#0e7ac7;}</style></defs><g transform="translate(0 0)"><g transform="translate(0.856 0)"><path class="a" d="M40.413,61H26.363a1.481,1.481,0,0,0-.642.15l7.634,7.634,1.711-1.644h0l5.989-5.989A1.481,1.481,0,0,0,40.413,61Z" transform="translate(-25.721 -61)"/></g><g transform="translate(11.261 0.857)"><path class="a" d="M343.849,86.728l-5.636,5.636L343.849,98a1.481,1.481,0,0,0,.15-.642V87.37A1.481,1.481,0,0,0,343.849,86.728Z" transform="translate(-338.213 -86.728)"/></g><g transform="translate(0 0.857)"><g transform="translate(0 0)"><path class="a" d="M.15,86.721a1.481,1.481,0,0,0-.15.642v9.988a1.481,1.481,0,0,0,.15.642l5.636-5.636Z" transform="translate(0 -86.721)"/></g></g><g transform="translate(0.856 7.199)"><path class="a" d="M35.412,277.211,33.7,278.856a.5.5,0,0,1-.706,0l-1.645-1.645-5.636,5.636a1.482,1.482,0,0,0,.642.15h14.05a1.481,1.481,0,0,0,.642-.15Z" transform="translate(-25.714 -277.211)"/></g></g></svg>