<svg xmlns="http://www.w3.org/2000/svg" width="207.929" height="174.794" viewBox="0 0 207.929 174.794"><defs><style>.a{fill:#ebebeb;}.b{fill:#fafafa;}.c{fill:#f5f5f5;}.d{fill:#e0e0e0;}.e{fill:#455a64;}.f{fill:#263238;}.g{fill:#407bff;}.h{fill:#ffbe9d;}.i{fill:#eb996e;}.j{opacity:0.5;}.k,.q{fill:#fff;}.l{opacity:0.4;}.m{opacity:0.3;}.n{fill:#b78876;}.o{fill:#aa6550;}.p{fill:#c7c7c7;}.q,.r{stroke:#407bff;}.r,.t{fill:none;}.s{stroke:none;}</style></defs><g transform="translate(-160.405 -74.266)"><g transform="translate(178.225 74.266)"><g transform="translate(2.161 1.54)"><g transform="translate(0)"><rect class="a" width="119.27" height="78.177"/></g></g><g transform="translate(5.221 3.177)"><rect class="b" width="113.873" height="74.858"/></g><g transform="translate(5.221 3.177)"><path class="c" d="M158.077,38.235,44.2,74.6V37.609H158.077Z" transform="translate(-44.203 -37.609)"/></g><g transform="translate(5.221 25.196)"><rect class="d" width="114.792" height="0.566"/></g><g transform="translate(5.221 42.465)"><rect class="d" width="114.792" height="0.566"/></g><g transform="translate(5.221 59.733)"><rect class="d" width="114.792" height="0.566"/></g><g transform="translate(62.157 25.334)"><g transform="translate(0)"><rect class="d" width="54.208" height="0.778" transform="translate(0 54.208) rotate(-90)"/></g></g><g transform="translate(27.317 3.177)"><g transform="translate(0)"><rect class="d" width="0.968" height="22.156"/></g></g><g transform="translate(51.039 3.177)"><g transform="translate(0)"><rect class="d" width="0.968" height="22.156"/></g></g><g transform="translate(74.762 3.177)"><g transform="translate(0)"><rect class="d" width="0.968" height="22.156"/></g></g><g transform="translate(98.484 3.177)"><g transform="translate(0)"><rect class="d" width="0.968" height="22.156"/></g></g><g transform="translate(1.395 0.583)"><rect class="d" width="1.967" height="79.484"/></g><g transform="translate(121.431 0.583)"><path class="d" d="M160.972,107.38l-1.967-.7V27.737h1.967Z" transform="translate(-159.005 -27.737)"/></g><g transform="translate(1.395)"><rect class="d" width="122.003" height="1.54"/></g><g transform="translate(0 80.416)"><rect class="d" width="124.729" height="1.435"/></g><g transform="translate(0 79.717)"><path class="a" d="M147.77,246.2l7.738.7H30.779l7.888-.7Z" transform="translate(-30.779 -246.198)"/></g></g><g transform="translate(320.016 159.454)"><g transform="translate(0 38.675)"><g transform="translate(21.58 3.316)"><g transform="translate(0 0)"><rect class="e" width="3.282" height="39.321" transform="translate(3.282 39.321) rotate(180)"/></g></g><path class="e" d="M366.515,366.505h46.939a5.1,5.1,0,0,0-5.095-5.095H371.61a5.1,5.1,0,0,0-5.095,5.095Z" transform="translate(-366.515 -361.41)"/><g transform="translate(20.033 5.075)"><path class="f" d="M408.756,372.232a34.373,34.373,0,0,0,5.759,0,34.322,34.322,0,0,0-5.759,0Z" transform="translate(-408.756 -372.111)"/></g><g transform="translate(8.866 31.77)"><path class="e" d="M385.209,442.828h.464a13.964,13.964,0,1,1,27.929,0h.464a14.429,14.429,0,1,0-28.857,0Z" transform="translate(-385.209 -428.399)"/></g><g transform="translate(35.328 44.752)"><path class="f" d="M441.006,457.936a2.163,2.163,0,1,0,2.163-2.164A2.164,2.164,0,0,0,441.006,457.936Z" transform="translate(-441.006 -455.772)"/></g><g transform="translate(6.826 44.454)"><path class="e" d="M380.908,457.307a2.164,2.164,0,1,0,2.164-2.163A2.164,2.164,0,0,0,380.908,457.307Z" transform="translate(-380.908 -455.144)"/></g><g transform="translate(9.005 42.516)"><path class="e" d="M385.5,451.178c0,.066,6.279.121,14.022.121s14.023-.054,14.023-.121-6.277-.121-14.023-.121S385.5,451.111,385.5,451.178Z" transform="translate(-385.503 -451.057)"/></g></g><g transform="translate(19.14)"><path class="e" d="M436.05,282.925V311.87a6.874,6.874,0,0,1-6.874,6.873h-22.3l3.03-35.819a3.064,3.064,0,0,1,3.064-3.064h20.021A3.064,3.064,0,0,1,436.05,282.925Z" transform="translate(-406.872 -279.861)"/></g><g transform="translate(40.433 1.386)"><path class="f" d="M451.772,320.072s.014-.031.051-.084l.164-.238c.148-.2.359-.512.613-.919a15.247,15.247,0,0,0,1.662-3.687,15.014,15.014,0,0,0,.553-2.737,28.054,28.054,0,0,0,.088-3.214c0-2.276-.006-4.775-.009-7.4.013-5.241.026-9.984.034-13.443.016-1.7.028-3.089.037-4.074q.014-.7.022-1.108a2.432,2.432,0,0,1,.023-.386,2.369,2.369,0,0,1,.024.386q.008.411.022,1.108c.009.985.022,2.37.037,4.074.009,3.46.021,8.2.034,13.443,0,2.624-.007,5.122-.009,7.4a27.444,27.444,0,0,1-.111,3.236,14.848,14.848,0,0,1-.587,2.764,14.5,14.5,0,0,1-1.743,3.687c-.267.4-.491.7-.652.9A2.043,2.043,0,0,1,451.772,320.072Z" transform="translate(-451.771 -282.783)"/></g><g transform="translate(28.288 38.622)"><path class="f" d="M426.163,361.367a4.152,4.152,0,0,1,.709-.04l1.933-.023c1.632-.009,3.887-.007,6.378.011,1.245.012,2.434.014,3.51.041a11.36,11.36,0,0,1,2.864.312,4.429,4.429,0,0,1,1.722.9,2.921,2.921,0,0,1,.374.374c.079.092.118.142.111.147s-.182-.179-.543-.451a4.646,4.646,0,0,0-1.708-.813,11.88,11.88,0,0,0-2.825-.257l-3.511-.023c-2.489-.017-4.742-.047-6.373-.08l-1.932-.051A4.175,4.175,0,0,1,426.163,361.367Z" transform="translate(-426.163 -361.298)"/></g></g><g transform="translate(290.204 119.833)"><g transform="translate(33.435 12.043)"><path class="f" d="M378.283,221.711a19.008,19.008,0,0,0-1.278,6.221,5.566,5.566,0,0,1-.3,2.9,8.518,8.518,0,0,1-1.4,1.488,4.394,4.394,0,0,0-.775,4.724,2.98,2.98,0,0,0,1.122,1.337,4.249,4.249,0,0,0,1.965.458,32.978,32.978,0,0,0,6.772-.306,4.309,4.309,0,0,0,2.89-1.286,4.229,4.229,0,0,0,.6-2.779,26.478,26.478,0,0,0-2.661-10.611" transform="translate(-374.156 -221.711)"/></g><g transform="translate(45.559 9.009)"><path class="f" d="M406.9,216.152a1.675,1.675,0,1,1-.222,3.1,2.693,2.693,0,0,1,2.638,1.618,13.919,13.919,0,0,1,.882,3.184,4.258,4.258,0,0,0,1.671,2.76c.9.546,2.169.568,2.752,1.445.606.911.073,2.154.327,3.218a4.9,4.9,0,0,0,2.079,2.427,3.5,3.5,0,0,1,1.7,2.637,2.48,2.48,0,0,1-1.484,2,6.467,6.467,0,0,1-2.55.494,37.491,37.491,0,0,1-12.733-1.64,3.49,3.49,0,0,1-1.76-.977,3.693,3.693,0,0,1-.309-3,68.053,68.053,0,0,1,2.259-9.611,22.739,22.739,0,0,1,4.887-8.5" transform="translate(-399.72 -215.313)"/></g><g transform="translate(12.723 18.519)"><g transform="translate(0.476 5.431)"><path class="g" d="M377.452,263.941h5.068l-1.8-9.03c-1.326-7.391-11.688-7.9-11.688-7.9l-8.132-.132s-6.028-.811-9.749,3.384c-.764.861-1.563,1.753-2.352,2.631l-8.82,9.227-.937-11.577-7.555,1.185,1.056,14.54a5.957,5.957,0,0,0,3.993,5.153,6.552,6.552,0,0,0,4.953-.763c4.4-2.194,12.65-9.172,13.283-9.71a10.567,10.567,0,0,0-1.139,4.227c0,2.407,2.47,4.21,2.47,4.21l.77,7.328-2.553,11.831,26.555-1.065a26.4,26.4,0,0,0-3.915-11.158Zm-22.663-3.027a.642.642,0,0,1-.088-.179l.284-.2S354.907,260.675,354.789,260.915Z" transform="translate(-331.487 -246.816)"/></g><g transform="translate(25.244 36.627)"><path class="h" d="M393.025,319.027a45.988,45.988,0,0,1-4.3,2.608c-1.884.9-1.972.73-2.044.494-.2-.633,3.25-1.7,2.366-1.9s-4.052,1.792-4.229,1.123c-.231-.872,3.4-1.925,3.7-2.036s.138-.545-.128-.43c-.381.165-4.43,1.8-4.666.95-.13-.473.752-.608.752-.608s3.909-1.258,3.785-1.658-2.449.256-3.215.534-1.2.03-1.057-.4c.1-.3,2.425-1.2,3.189-1.459s2.874-.926,1.544-1.434a3.724,3.724,0,0,1-2.228-1.776c-.061-.389.466-.6.777-.293a5.33,5.33,0,0,0,1.223.751,3.461,3.461,0,0,0,1.1.327c.332.039.626.064.891.082l2.823.213,1.425,3.737Z" transform="translate(-383.711 -312.595)"/></g><g transform="translate(32.292 8.947)"><path class="g" d="M413.207,254.273a9.951,9.951,0,0,1,3.342,5c.626,2.051,2.425,8.995,3.748,14.162a6.624,6.624,0,0,1-4.338,7.932l-14.946,8.075-2.441-6.317,13.113-8.618-3.17-11.736a8.334,8.334,0,0,1-.092-5.344C409.094,255.642,410.453,253.94,413.207,254.273Z" transform="translate(-398.573 -254.231)"/></g><path class="h" d="M331.458,246.13l-.906-2.9c-.423-2.078,1.22-2.412,1.5-2.72a4.34,4.34,0,0,1,1.465-1.185l-.132-.837a20.033,20.033,0,0,1-.473-2.725c.021-.5.915-.533,1.045-.051.3,1.1.811,2.958,1.087,3.642.364.9,1.171,3.261,2.02,1.8a7.337,7.337,0,0,0,.905-2.777c.154-.48,1.216-.569,1.009.427-.087.416-.138,1.154-.4,2.154-.116.445-.362.993-.487,1.436-.144.516-.209,2.442-.287,2.821Z" transform="translate(-330.483 -235.365)"/><g transform="translate(0.311 5.699)"><path class="i" d="M332.278,247.382a7.718,7.718,0,0,1,.228.856,6.356,6.356,0,0,0,.33.888,1.709,1.709,0,0,1,.188.578.609.609,0,0,1-.342.628.749.749,0,0,1-.691-.136,1.7,1.7,0,0,1-.415-.446,2.591,2.591,0,0,1-.36-.93,2.368,2.368,0,0,1-.057-.9,5.125,5.125,0,0,1,.227.857,2.725,2.725,0,0,0,.378.842,1.563,1.563,0,0,0,.365.376.529.529,0,0,0,.46.105.376.376,0,0,0,.193-.384,1.605,1.605,0,0,0-.155-.5,5.027,5.027,0,0,1-.29-.937A2.064,2.064,0,0,1,332.278,247.382Z" transform="translate(-331.138 -247.382)"/></g><g transform="translate(1.396 4.737)"><path class="i" d="M334.783,245.354a5.645,5.645,0,0,1,.431,1.1l.4,1.214c.07.233.16.458.221.737a.874.874,0,0,1-.021.458.693.693,0,0,1-.324.367.875.875,0,0,1-.894-.046,1.453,1.453,0,0,1-.524-.619,9.215,9.215,0,0,1-.386-1.237,5.615,5.615,0,0,1-.257-1.154,5.614,5.614,0,0,1,.424,1.1,12.306,12.306,0,0,0,.424,1.187,1.244,1.244,0,0,0,.446.514.636.636,0,0,0,.649.036.481.481,0,0,0,.225-.565c-.047-.234-.137-.484-.2-.713l-.352-1.23A5.575,5.575,0,0,1,334.783,245.354Z" transform="translate(-333.426 -245.354)"/></g><g transform="translate(7.808 20.674)"><path class="f" d="M346.958,281.721a9.145,9.145,0,0,1,1.167-2.763,9.178,9.178,0,0,1-1.167,2.763Z" transform="translate(-346.946 -278.957)"/></g><g transform="translate(13.397 16.216)"><path class="d" d="M365.043,275.029a7.511,7.511,0,0,1-1.333-.309l-1.427-.4a8.156,8.156,0,0,1-1.7-.686,3.776,3.776,0,0,1-1.357-1.263,2.7,2.7,0,0,1-.4-1.461,8.916,8.916,0,0,0-.033-.99,2.255,2.255,0,0,1-.053-.36c.013-.006.086.108.148.342a5.656,5.656,0,0,1,.113,1,2.638,2.638,0,0,0,.419,1.348,3.7,3.7,0,0,0,1.287,1.169,8.729,8.729,0,0,0,1.649.683l1.41.453A7.566,7.566,0,0,1,365.043,275.029Z" transform="translate(-358.731 -269.557)"/></g><g transform="translate(38.174 34.123)"><path class="d" d="M414.715,313.264c-.042,0,.01-.427-.12-1.084a6.653,6.653,0,0,0-1.047-2.379c-.283-.429-.581-.821-.854-1.178a7,7,0,0,0-.75-.9,1.15,1.15,0,0,0-.681-.3c-.181-.011-.281.031-.289.011s.084-.087.287-.107a1.153,1.153,0,0,1,.793.266,5.817,5.817,0,0,1,.819.9c.284.351.591.745.881,1.183a5.965,5.965,0,0,1,1.013,2.487A2.238,2.238,0,0,1,414.715,313.264Z" transform="translate(-410.974 -307.315)"/></g><g transform="translate(17.288 11.266)"><path class="d" d="M399.683,262.161a2.212,2.212,0,0,1-.368-.105l-1.043-.332a12.765,12.765,0,0,0-3.927-.69,6.314,6.314,0,0,0-2.648.623,12.775,12.775,0,0,0-2.61,1.778,30.53,30.53,0,0,1-2.773,2.2,7.332,7.332,0,0,1-3.583,1.293,4.145,4.145,0,0,1-1.924-.384,4.93,4.93,0,0,1-1.522-1.139,34.265,34.265,0,0,1-2.135-2.824,8.16,8.16,0,0,0-4.863-3.114,8.549,8.549,0,0,0-3.959.058c-.914.245-1.38.505-1.393.474a5.9,5.9,0,0,1,1.368-.567,8.4,8.4,0,0,1,4.02-.136,8.548,8.548,0,0,1,2.615,1,8.047,8.047,0,0,1,2.392,2.146c.694.894,1.3,1.917,2.129,2.8a4.162,4.162,0,0,0,3.261,1.442,7.132,7.132,0,0,0,3.461-1.249,31.2,31.2,0,0,0,2.759-2.174,12.858,12.858,0,0,1,2.668-1.788,6.455,6.455,0,0,1,2.733-.612,12.255,12.255,0,0,1,3.96.773c.451.155.8.286,1.03.377A2.22,2.22,0,0,1,399.683,262.161Z" transform="translate(-366.935 -259.12)"/></g><g transform="translate(23.39 24.323)"><path class="d" d="M400.55,289.051a4.985,4.985,0,0,0-.855-.2,4.817,4.817,0,0,0-2.3.531,26.793,26.793,0,0,1-3.3,1.446,13.516,13.516,0,0,1-4.372.635,13.17,13.17,0,0,1-4.342-.821,13.461,13.461,0,0,1-3.184-1.7,12.8,12.8,0,0,1-1.825-1.607c-.2-.209-.34-.38-.433-.5a.808.808,0,0,1-.134-.188c.018-.015.225.224.636.619A14.8,14.8,0,0,0,382.3,288.8a13.885,13.885,0,0,0,3.161,1.629,13.278,13.278,0,0,0,4.268.788,13.657,13.657,0,0,0,4.3-.606,29.342,29.342,0,0,0,3.3-1.39,4.7,4.7,0,0,1,2.383-.466A1.986,1.986,0,0,1,400.55,289.051Z" transform="translate(-379.803 -286.652)"/></g><g transform="translate(44.947 24.722)"><path class="d" d="M433.42,287.493a.949.949,0,0,1-.117.357,4.391,4.391,0,0,1-.526.88,4.844,4.844,0,0,1-2.816,1.809,8.242,8.242,0,0,1-3.363-.083,6.457,6.457,0,0,1-1.342-.36,9.632,9.632,0,0,1,1.373.187,9.117,9.117,0,0,0,3.278.014,4.97,4.97,0,0,0,2.734-1.677C433.182,287.974,433.379,287.473,433.42,287.493Z" transform="translate(-425.256 -287.493)"/></g><g transform="translate(32.141 16.48)"><path class="f" d="M408.113,270.115a1.3,1.3,0,0,1,.067.228l.163.671.624,2.549c.545,2.194,1.347,5.325,2.352,9.073l.019.073-.062.042-11.05,7.625-1.75,1.2.045-.147L401,297.671l-.159-.061c4.585-2.263,8.444-4.33,11.16-5.822l3.168-1.757.845-.468a2.145,2.145,0,0,1,.3-.15,2.132,2.132,0,0,1-.278.184l-.826.5c-.724.431-1.787,1.052-3.136,1.816-2.7,1.529-6.546,3.625-11.127,5.906l-.113.056-.047-.117-2.5-6.234-.036-.091.081-.056,1.75-1.2,11.07-7.6-.042.115c-.985-3.756-1.757-6.895-2.267-9.1-.257-1.1-.443-1.971-.567-2.563-.055-.285-.1-.509-.132-.679A1.275,1.275,0,0,1,408.113,270.115Z" transform="translate(-398.255 -270.115)"/></g><g transform="translate(45.102 28.882)"><path class="f" d="M429.189,297.506a11.672,11.672,0,0,0-1.728-.808,5.483,5.483,0,0,0-1.312-.251c-.342-.021-.558,0-.566-.035s.2-.115.565-.139a3.859,3.859,0,0,1,1.387.19A2.993,2.993,0,0,1,429.189,297.506Z" transform="translate(-425.583 -296.265)"/></g></g><g transform="translate(0 95.699)"><g transform="translate(0.041)"><path class="g" d="M309.759,402.178l1.963-4.073,7.654,3.628-2.808,5.99-.489-.195c-2.168-.884-10.96-4.647-12.168-5.744C302.561,400.56,309.759,402.178,309.759,402.178Z" transform="translate(-303.741 -398.105)"/><g class="j" transform="translate(10.079 7)"><path class="k" d="M324.993,414.108a2.938,2.938,0,0,1,1.751-1.169,2.853,2.853,0,0,1,2.053.292l-1.013,2.14Z" transform="translate(-324.993 -412.865)"/></g></g><g class="l" transform="translate(0 3.232)"><path class="k" d="M306.143,405.084s-2.591-.423-2.485.087,8.848,4.647,12.863,6.135l.069-.177-10.237-4.739S306.58,405.314,306.143,405.084Z" transform="translate(-303.655 -404.919)"/></g><g transform="translate(0.061 3.354)"><path class="f" d="M316.781,411.316a.785.785,0,0,1-.139-.048l-.389-.156-1.42-.6c-1.2-.514-2.837-1.246-4.633-2.094s-3.4-1.652-4.56-2.249l-1.364-.717-.368-.2a.782.782,0,0,1-.125-.076.837.837,0,0,1,.135.058l.376.184,1.379.687c1.164.58,2.777,1.372,4.571,2.22s3.43,1.589,4.618,2.12l1.407.628.381.174A.8.8,0,0,1,316.781,411.316Z" transform="translate(-303.784 -405.177)"/></g><g transform="translate(2.473 3.277)"><path class="f" d="M309.041,406.56a3.451,3.451,0,0,0,.055-.787,3.515,3.515,0,0,0-.222-.757,1.369,1.369,0,0,1,.167,1.544Z" transform="translate(-308.871 -405.015)"/></g><g transform="translate(5.321 3.917)"><path class="f" d="M315,407.193a1.736,1.736,0,0,1-.1-.829c.029,0,.074.179.1.408A.888.888,0,0,1,315,407.193Z" transform="translate(-314.875 -406.364)"/></g><g transform="translate(5.938 4.055)"><path class="f" d="M316.458,407.312c-.027.01-.109-.127-.185-.308s-.116-.337-.09-.348.109.127.185.308S316.484,407.3,316.458,407.312Z" transform="translate(-316.175 -406.656)"/></g><g transform="translate(6.149 3.799)"><path class="f" d="M317.426,406.49a1,1,0,0,1-.424-.138c-.222-.1-.392-.206-.381-.231a.992.992,0,0,1,.424.138C317.267,406.36,317.438,406.464,317.426,406.49Z" transform="translate(-316.621 -406.114)"/></g><g transform="translate(6.39 3.364)"><path class="f" d="M318.069,405.563a1.248,1.248,0,0,1-.938-.361,2.744,2.744,0,0,1,.468.183A2.7,2.7,0,0,1,318.069,405.563Z" transform="translate(-317.13 -405.199)"/></g><g transform="translate(4.247 2.717)"><path class="f" d="M313.864,405.072a1.584,1.584,0,0,1-.49-.236,3.222,3.222,0,0,1-.469-.363,1.606,1.606,0,0,1-.241-.266.293.293,0,0,1-.049-.211.214.214,0,0,1,.167-.161,1,1,0,0,1,.991.792.974.974,0,0,1,.005.4c-.02.093-.044.14-.05.138a1.544,1.544,0,0,0-.025-.526.979.979,0,0,0-.291-.472.844.844,0,0,0-.605-.238c-.106.021-.119.127-.056.22a1.643,1.643,0,0,0,.221.249,3.746,3.746,0,0,0,.444.371C313.684,404.968,313.872,405.057,313.864,405.072Z" transform="translate(-312.61 -403.835)"/></g><g transform="translate(5.357 3.149)"><path class="f" d="M314.956,405.514a.536.536,0,0,1,.1-.368.9.9,0,0,1,.3-.3.547.547,0,0,1,.528-.057.216.216,0,0,1,.044.3.6.6,0,0,1-.187.181,1.666,1.666,0,0,1-.373.187.782.782,0,0,1-.376.066c0-.016.14-.042.349-.133a1.893,1.893,0,0,0,.346-.2c.117-.072.251-.237.139-.318a.486.486,0,0,0-.423.055.9.9,0,0,0-.291.254A1.952,1.952,0,0,0,314.956,405.514Z" transform="translate(-314.95 -404.745)"/></g><g transform="translate(10.151 6.835)"><path class="f" d="M328.8,413.006c-.01.017-.21-.125-.575-.248a2.653,2.653,0,0,0-2.762.649c-.272.273-.388.488-.4.478a.5.5,0,0,1,.073-.155,2.229,2.229,0,0,1,.279-.373,2.573,2.573,0,0,1,2.839-.668,2.255,2.255,0,0,1,.416.21A.5.5,0,0,1,328.8,413.006Z" transform="translate(-325.06 -412.517)"/></g><g transform="translate(13.156 3.763)"><path class="f" d="M332.847,406.039A29.37,29.37,0,0,1,331.4,409.2a29.68,29.68,0,0,1,1.449-3.165Z" transform="translate(-331.396 -406.039)"/></g><g transform="translate(7.262 6.001)"><path class="f" d="M321.215,411.8a6.948,6.948,0,0,1-2.248-1.037c.015-.026.5.241,1.12.526S321.225,411.769,321.215,411.8Z" transform="translate(-318.967 -410.758)"/></g><g transform="translate(10.601 7.738)"><path class="f" d="M326.418,414.431c.009.028-.091.086-.2.177s-.182.179-.207.165.018-.14.141-.243S326.41,414.4,326.418,414.431Z" transform="translate(-326.008 -414.42)"/></g><g transform="translate(11.485 7.298)"><path class="f" d="M328.3,413.507c.01.027-.078.083-.195.126s-.22.056-.23.029.077-.083.194-.126S328.287,413.48,328.3,413.507Z" transform="translate(-327.871 -413.493)"/></g><g transform="translate(12.367 7.229)"><path class="f" d="M330.236,413.492c-.018.023-.119-.026-.25-.039s-.241.008-.252-.019.1-.1.264-.083S330.255,413.472,330.236,413.492Z" transform="translate(-329.733 -413.348)"/></g><g transform="translate(13.246 7.432)"><path class="f" d="M331.859,413.838c0,.028-.065.046-.14.041s-.135-.033-.133-.061.065-.046.14-.041S331.861,413.81,331.859,413.838Z" transform="translate(-331.586 -413.776)"/></g></g><g transform="translate(23.147 119.689)"><g transform="translate(0.024)"><path class="g" d="M358.183,453.438l-.092-4.521,8.467-.228.205,6.612-.524.048c-2.333.193-11.876.815-13.45.384C351.033,455.251,358.183,453.438,358.183,453.438Z" transform="translate(-352.512 -448.689)"/><g class="j" transform="translate(11.18 4.122)"><path class="k" d="M376.086,459.887a2.94,2.94,0,0,1,1.032-1.835,2.855,2.855,0,0,1,1.962-.669l.065,2.366Z" transform="translate(-376.086 -457.38)"/></g></g><g class="l" transform="translate(0 5.76)"><path class="k" d="M354.667,460.835s-2.5.8-2.176,1.2,9.993.14,14.247-.35l-.019-.189-11.273.406S355.16,460.843,354.667,460.835Z" transform="translate(-352.461 -460.835)"/></g><g transform="translate(0.023 6.412)"><path class="f" d="M366.877,462.213a.821.821,0,0,1-.145.02l-.417.037-1.537.109c-1.3.083-3.094.173-5.079.229s-3.783.067-5.084.058l-1.54-.021-.419-.013a.857.857,0,0,1-.146-.011.753.753,0,0,1,.146-.009l.419-.006,1.54-.011c1.3-.009,3.1-.032,5.081-.088s3.778-.135,5.077-.2l1.538-.076.419-.018A.744.744,0,0,1,366.877,462.213Z" transform="translate(-352.509 -462.21)"/></g><g transform="translate(2.141 5.657)"><path class="f" d="M357.824,461.922a2.234,2.234,0,0,0-.848-1.3,1.368,1.368,0,0,1,.848,1.3Z" transform="translate(-356.975 -460.618)"/></g><g transform="translate(4.983 4.932)"><path class="f" d="M363.438,459.782c-.024.016-.147-.127-.276-.318s-.214-.359-.191-.375.147.126.276.317S363.462,459.766,363.438,459.782Z" transform="translate(-362.968 -459.088)"/></g><g transform="translate(5.585 4.781)"><path class="f" d="M364.782,459.233c-.018.021-.155-.064-.3-.191s-.256-.247-.237-.269.154.064.3.191S364.8,459.211,364.782,459.233Z" transform="translate(-364.239 -458.769)"/></g><g transform="translate(5.656 4.396)"><path class="f" d="M365.271,458a1.926,1.926,0,1,1-.444-.034A1,1,0,0,1,365.271,458Z" transform="translate(-364.387 -457.958)"/></g><g transform="translate(5.673 3.858)"><path class="f" d="M365.424,456.832a1.249,1.249,0,0,1-1,.1,41.295,41.295,0,0,0,1-.1Z" transform="translate(-364.424 -456.824)"/></g><g transform="translate(3.537 4.163)"><path class="f" d="M361.528,458.2a1.567,1.567,0,0,1-.544.011,3.177,3.177,0,0,1-.583-.111,1.6,1.6,0,0,1-.335-.128.294.294,0,0,1-.139-.165.215.215,0,0,1,.076-.22,1,1,0,0,1,1.242.258.981.981,0,0,1,.188.358.308.308,0,0,1,.018.147,1.549,1.549,0,0,0-.261-.457.979.979,0,0,0-.473-.289.844.844,0,0,0-.647.062c-.085.067-.048.167.049.222a1.61,1.61,0,0,0,.31.122,3.81,3.81,0,0,0,.564.13C361.32,458.187,361.527,458.182,361.528,458.2Z" transform="translate(-359.919 -457.467)"/></g><g transform="translate(4.929 3.858)"><path class="f" d="M362.932,457.892a.535.535,0,0,1-.074-.376.893.893,0,0,1,.138-.4.546.546,0,0,1,.445-.29.217.217,0,0,1,.175.247.6.6,0,0,1-.086.246,1.647,1.647,0,0,1-.248.336.778.778,0,0,1-.305.229c-.009-.013.106-.1.251-.277a1.89,1.89,0,0,0,.219-.333c.072-.117.117-.325-.02-.346s-.272.13-.352.24a.9.9,0,0,0-.144.358A1.947,1.947,0,0,0,362.932,457.892Z" transform="translate(-362.855 -456.824)"/></g><g transform="translate(11.208 4.058)"><path class="f" d="M379.04,457.291c0,.019-.243-.017-.624.039a2.655,2.655,0,0,0-2.169,1.829c-.119.367-.125.611-.144.609a.488.488,0,0,1,0-.171,2.225,2.225,0,0,1,.08-.459,2.574,2.574,0,0,1,2.229-1.88,2.223,2.223,0,0,1,.466,0A.483.483,0,0,1,379.04,457.291Z" transform="translate(-376.094 -457.245)"/></g><g transform="translate(13.162 0.604)"><path class="f" d="M380.232,449.962a29.453,29.453,0,0,1,.14,3.479,29.729,29.729,0,0,1-.14-3.479Z" transform="translate(-380.215 -449.962)"/></g><g transform="translate(7.642 5.825)"><path class="f" d="M371.05,460.979a6.971,6.971,0,0,1-2.474.092c0-.03.556-.011,1.237-.037S371.045,460.949,371.05,460.979Z" transform="translate(-368.576 -460.971)"/></g><g transform="translate(11.544 5.781)"><path class="f" d="M377.035,460.883c.021.02-.042.119-.1.247s-.081.241-.11.24-.047-.133.016-.28S377.016,460.863,377.035,460.883Z" transform="translate(-376.804 -460.88)"/></g><g transform="translate(12.066 4.985)"><path class="f" d="M378.217,459.2c.021.019-.031.109-.117.2s-.171.149-.192.13.031-.109.117-.2S378.2,459.185,378.217,459.2Z" transform="translate(-377.904 -459.201)"/></g><g transform="translate(12.786 4.564)"><path class="f" d="M379.9,458.357c0,.029-.118.031-.24.078s-.211.116-.234.1.045-.138.2-.193S379.907,458.331,379.9,458.357Z" transform="translate(-379.421 -458.313)"/></g><g transform="translate(13.644 4.405)"><path class="f" d="M381.483,458c.011.026-.036.071-.106.1s-.135.032-.146.006.036-.071.106-.1S381.472,457.97,381.483,458Z" transform="translate(-381.23 -457.978)"/></g></g><g transform="translate(35.496 33.052)"><path class="f" d="M378.506,274.288a6.875,6.875,0,0,1,.319-1.22c.112-.373.248-.816.419-1.3.086-.244.18-.5.288-.76.059-.141.134-.262.171-.379a1.21,1.21,0,0,0,.048-.39,5.775,5.775,0,0,0-.127-.834l-.147-.793-.235-1.346a6.1,6.1,0,0,1-.151-1.253,6.058,6.058,0,0,1,.333,1.217l.29,1.335q.078.383.162.79a5.539,5.539,0,0,1,.137.877,1.426,1.426,0,0,1-.063.478c-.054.158-.133.281-.182.4-.109.255-.206.5-.3.743l-.47,1.28A5.405,5.405,0,0,1,378.506,274.288Z" transform="translate(-378.501 -266.009)"/><g class="m" transform="translate(18.777 0.623)"><path d="M418.093,267.323c.33,5.037.838,10.695.935,15.741a10.654,10.654,0,0,0,2.617-1.869S419.241,272.749,418.093,267.323Z" transform="translate(-418.093 -267.323)"/></g></g><g transform="translate(5.714 57.518)"><path class="f" d="M372.656,323.508s-34.724-7.274-38.086-5.682S315.7,357.74,315.7,357.74l10.457,3.841,14.2-31.8s25.574,9.644,29.821,8.762S372.656,323.508,372.656,323.508Z" transform="translate(-315.704 -317.598)"/><g transform="translate(19.06 7.952)"><path class="f" d="M378.265,334.366c-.531.177-20.617,8.434-22.033,11.088s2.062,46.727,2.062,46.727h11.425l-.708-39.17,22.3-5.649Z" transform="translate(-355.893 -334.366)"/></g><g transform="translate(23.518 11.592)"><path class="e" d="M396.365,351.486a1.562,1.562,0,0,1-.329-.04l-.934-.165c-.81-.149-1.981-.379-3.422-.686-2.883-.609-6.853-1.529-11.178-2.769-2.162-.627-4.2-1.279-6.048-1.913-1.837-.654-3.484-1.265-4.84-1.846-.683-.276-1.292-.551-1.825-.793s-.993-.451-1.36-.638l-.848-.427a1.563,1.563,0,0,1-.287-.165,1.621,1.621,0,0,1,.311.117l.867.383c.374.173.836.373,1.376.6s1.15.491,1.836.755c1.362.557,3.012,1.15,4.849,1.789,1.844.62,3.885,1.264,6.042,1.889,4.317,1.238,8.274,2.185,11.146,2.84l3.4.767.924.214A1.589,1.589,0,0,1,396.365,351.486Z" transform="translate(-365.293 -342.042)"/></g><g transform="translate(18.736 15.492)"><path class="e" d="M355.878,363.937a3.3,3.3,0,0,1-.106-.66c-.05-.478-.114-1.084-.191-1.807-.073-.782-.157-1.687-.25-2.683a12.25,12.25,0,0,1-.005-3.323,5.186,5.186,0,0,1,1.667-2.872,8.771,8.771,0,0,1,2.285-1.469,17.856,17.856,0,0,1,1.7-.668,3.183,3.183,0,0,1,.642-.187c.019.047-.883.361-2.257,1.022a9.046,9.046,0,0,0-2.2,1.479,5.023,5.023,0,0,0-1.574,2.745,12.655,12.655,0,0,0-.012,3.254c.072,1,.137,1.905.193,2.688.043.726.079,1.334.108,1.814A3.263,3.263,0,0,1,355.878,363.937Z" transform="translate(-355.21 -350.264)"/></g><g transform="translate(29.424 25.367)"><path class="f" d="M377.748,371.1a8.415,8.415,0,0,1,2.7,1.19,8.4,8.4,0,0,1-2.7-1.19Z" transform="translate(-377.747 -371.086)"/></g><g transform="translate(30.422 24.173)"><path class="f" d="M379.861,368.569c.071-.03.387.6.91,1.289s1.04,1.168.992,1.227a4.127,4.127,0,0,1-1.9-2.517Z" transform="translate(-379.85 -368.568)"/></g><g transform="translate(32.2 25.98)"><path class="f" d="M386.217,372.38c.008.006-.033.095-.175.18a1.344,1.344,0,0,1-.663.156,7.723,7.723,0,0,0-.949.025.664.664,0,0,0-.568.727,18.507,18.507,0,0,1-.142,3.049,17.425,17.425,0,0,1-.119-3.064,1.067,1.067,0,0,1,.216-.649.886.886,0,0,1,.574-.3,5.508,5.508,0,0,1,.99.028A1.623,1.623,0,0,0,386.217,372.38Z" transform="translate(-383.599 -372.378)"/></g></g><g transform="translate(35.385)"><g transform="translate(0 2.408)"><path class="f" d="M381.284,201.836c-1.735.561-3.752,1.715-2.752,7.147.44,2.389,1,4.827,2.6,6.653a1.144,1.144,0,0,0,.929.513,1.171,1.171,0,0,0,.642-.435,14.558,14.558,0,0,0,3.865-6.978,7.726,7.726,0,0,0-2.331-7.341" transform="translate(-378.266 -201.395)"/></g><g transform="translate(1.896)"><g transform="translate(0.118 0.72)"><path class="h" d="M386.846,223.558c-.057-2.5-.164-5.181-.164-5.181a4.588,4.588,0,0,1-3.967-4.361c-.164-3.881-.2-10.68-.2-10.68l7.425-5.5,5.216,7.175.127,18.419a4.218,4.218,0,0,1-4.217,4.247h0A4.217,4.217,0,0,1,386.846,223.558Z" transform="translate(-382.513 -197.836)"/><g transform="translate(4.17 18.892)"><path class="i" d="M391.3,239.321a9.259,9.259,0,0,0,5.035-1.648,4.87,4.87,0,0,1-4.969,2.6Z" transform="translate(-391.305 -237.672)"/></g><g transform="translate(4.473 14.739)"><path class="i" d="M391.984,230.194a.456.456,0,0,1,.463-.644.718.718,0,0,1,.727-.635.812.812,0,0,1,.735.661.937.937,0,0,1-.415.92,1.11,1.11,0,0,1-1.023.075.809.809,0,0,1-.516-.61" transform="translate(-391.944 -228.914)"/></g><g transform="translate(0.783 7.517)"><g transform="translate(0 1.693)"><g transform="translate(0 0.517)"><path class="f" d="M384.164,218.826a.533.533,0,0,0,.514.537.509.509,0,0,0,.549-.48.533.533,0,0,0-.513-.538A.51.51,0,0,0,384.164,218.826Z" transform="translate(-384.163 -218.344)"/></g><g transform="translate(0.017)"><path class="f" d="M384.207,217.815c.066.069.47-.23,1.043-.228s.994.288,1.056.218c.03-.031-.037-.156-.22-.29a1.462,1.462,0,0,0-.845-.26,1.4,1.4,0,0,0-.83.268C384.234,217.658,384.174,217.784,384.207,217.815Z" transform="translate(-384.198 -217.255)"/></g><g transform="translate(5.651 0.107)"><g transform="translate(0.103 0.464)"><path class="f" d="M396.3,218.939a.533.533,0,0,0,.514.537.509.509,0,0,0,.549-.48.533.533,0,0,0-.513-.538A.51.51,0,0,0,396.3,218.939Z" transform="translate(-396.297 -218.457)"/></g><path class="f" d="M396.088,218.04c.066.069.47-.229,1.043-.228s.994.288,1.056.218c.03-.031-.036-.156-.22-.29a1.458,1.458,0,0,0-.845-.261,1.41,1.41,0,0,0-.83.268C396.116,217.884,396.056,218.009,396.088,218.04Z" transform="translate(-396.079 -217.48)"/></g><g transform="translate(2.119 0.142)"><path class="f" d="M390.092,222.33a3.779,3.779,0,0,0-.931-.168c-.146-.015-.285-.045-.309-.144a.743.743,0,0,1,.1-.434l.433-1.114a19.108,19.108,0,0,0,.972-2.916,19.217,19.217,0,0,0-1.2,2.83l-.415,1.122a.845.845,0,0,0-.076.574.366.366,0,0,0,.241.214.971.971,0,0,0,.249.035A3.753,3.753,0,0,0,390.092,222.33Z" transform="translate(-388.631 -217.553)"/></g><g transform="translate(3.439 5.314)"><path class="f" d="M393.242,228.461c-.093-.006-.094.616-.627,1.059s-1.2.373-1.2.46c-.009.039.147.121.428.128a1.547,1.547,0,0,0,1-.349,1.351,1.351,0,0,0,.486-.887C393.354,228.611,393.285,228.457,393.242,228.461Z" transform="translate(-391.415 -228.461)"/></g></g><g transform="translate(5.399 0.65)"><path class="f" d="M395.55,215.486c.057.156.629.082,1.3.163s1.217.265,1.306.125c.04-.067-.055-.213-.274-.364a2.279,2.279,0,0,0-1.986-.22C395.65,215.289,395.526,215.412,395.55,215.486Z" transform="translate(-395.547 -215.056)"/></g><g transform="translate(0.221)"><path class="f" d="M384.645,214.279c.1.13.5,0,.97-.011.475-.023.877.087.969-.049.041-.066-.023-.2-.2-.32a1.4,1.4,0,0,0-1.563.048C384.655,214.082,384.6,214.216,384.645,214.279Z" transform="translate(-384.63 -213.686)"/></g></g></g><g transform="translate(0.77)"><path class="f" d="M392.428,205.321a2.982,2.982,0,0,0,1.889-.674c.343.916.337,1.931.651,2.857s.625,9.849,1.593,9.7c.888-.134,1.948-9.089,2.175-9.958a7.942,7.942,0,0,0-1.755-6.947c-1.895-2.255-5.053-4.177-7.991-3.97a6.607,6.607,0,0,0-3.641,1.282A3.714,3.714,0,0,0,383.9,200.4c.185,2.173,3.353,3.572,5.533,3.506l.31.3A3.765,3.765,0,0,0,392.428,205.321Z" transform="translate(-383.888 -196.318)"/></g><g transform="translate(0 3.965)"><path class="f" d="M382.361,209a3.223,3.223,0,0,0,1.082-1.739,9.591,9.591,0,0,0,.252-2.066c.01-.2-.02-.46-.214-.513s-.345.142-.436.314a6.693,6.693,0,0,0-.686,4.2c.042-.038-.129.109-.088.071" transform="translate(-382.264 -204.678)"/></g></g></g></g><g transform="translate(234.055 93.517)"><g transform="translate(30.798 146.682)"><g transform="translate(0.12)"><path class="g" d="M259.246,454.872l.027-4.65-8.709-.105-.111,6.8.539.041c2.4.162,12.223.657,13.835.19C266.626,456.628,259.246,454.872,259.246,454.872Z" transform="translate(-250.453 -450.117)"/><g class="l" transform="translate(0.01 4.237)"><path d="M253.623,461.586a3.02,3.02,0,0,0-1.088-1.87,2.933,2.933,0,0,0-2.028-.658l-.031,2.434Z" transform="translate(-250.475 -459.052)"/></g></g><g transform="translate(0.12 5.742)"><g class="l"><path d="M262.85,462.224s2.585.78,2.256,1.2-10.272.3-14.653-.143l.016-.194,11.6.246S262.343,462.239,262.85,462.224Z" transform="translate(-250.453 -462.224)"/></g></g><g transform="translate(0 6.596)"><path class="f" d="M250.2,464.03a.806.806,0,0,0,.149.018l.43.031,1.582.089c1.336.065,3.184.13,5.225.158s3.891.012,5.228-.018l1.584-.046.431-.02a.883.883,0,0,0,.15-.014.787.787,0,0,0-.15-.008H264.4l-1.583.012c-1.337.01-3.185.014-5.226-.013s-3.887-.082-5.224-.128l-1.583-.055-.431-.012A.793.793,0,0,0,250.2,464.03Z" transform="translate(-250.199 -464.026)"/></g><g transform="translate(11.715 5.635)"><path class="f" d="M274.915,463.353a2.3,2.3,0,0,1,.853-1.351,1.409,1.409,0,0,0-.853,1.351Z" transform="translate(-274.902 -461.999)"/></g><g transform="translate(9.172 4.932)"><path class="f" d="M269.544,461.238c.025.016.149-.132.279-.331s.215-.372.191-.388-.149.132-.279.331S269.519,461.222,269.544,461.238Z" transform="translate(-269.539 -460.517)"/></g><g transform="translate(8.474 4.786)"><path class="f" d="M268.069,460.694c.019.022.158-.068.31-.2s.259-.259.24-.28-.158.068-.31.2S268.05,460.671,268.069,460.694Z" transform="translate(-268.066 -460.209)"/></g><g transform="translate(8.041 4.4)"><path class="f" d="M267.153,459.438a1.973,1.973,0,0,0,.91.022,2,2,0,0,0-.91-.022Z" transform="translate(-267.153 -459.395)"/></g><g transform="translate(7.895 3.853)"><path class="f" d="M266.846,458.25a1.279,1.279,0,0,0,1.03.091,2.754,2.754,0,0,0-.515-.042A2.794,2.794,0,0,0,266.846,458.25Z" transform="translate(-266.845 -458.241)"/></g><g transform="translate(9.481 4.128)"><path class="f" d="M270.191,459.589a1.614,1.614,0,0,0,.56,0,3.277,3.277,0,0,0,.6-.124,1.618,1.618,0,0,0,.343-.136.3.3,0,0,0,.141-.172.22.22,0,0,0-.082-.225,1.027,1.027,0,0,0-1.273.284,1.01,1.01,0,0,0-.187.371.31.31,0,0,0-.017.151,1.592,1.592,0,0,1,.261-.474,1.008,1.008,0,0,1,.482-.3.866.866,0,0,1,.666.054c.088.067.052.171-.047.229a1.664,1.664,0,0,1-.316.131,3.912,3.912,0,0,1-.578.143C270.4,459.574,270.191,459.572,270.191,459.589Z" transform="translate(-270.191 -458.82)"/></g><g transform="translate(8.906 3.836)"><path class="f" d="M269.7,459.3a.551.551,0,0,0,.07-.388.917.917,0,0,0-.148-.411.564.564,0,0,0-.462-.291.223.223,0,0,0-.176.257.613.613,0,0,0,.092.251,1.7,1.7,0,0,0,.26.342.812.812,0,0,0,.317.231c.01-.014-.11-.1-.262-.281a1.948,1.948,0,0,1-.23-.339c-.075-.12-.125-.333.016-.356s.282.129.366.242a.921.921,0,0,1,.154.366A2.041,2.041,0,0,1,269.7,459.3Z" transform="translate(-268.979 -458.206)"/></g><g transform="translate(0.208 4.167)"><path class="f" d="M250.638,458.956c0,.02.249-.02.643.031a2.73,2.73,0,0,1,2.258,1.847c.128.375.138.626.157.624a.512.512,0,0,0,0-.176,2.3,2.3,0,0,0-.089-.471,2.648,2.648,0,0,0-2.321-1.9,2.244,2.244,0,0,0-.479.006A.5.5,0,0,0,250.638,458.956Z" transform="translate(-250.638 -458.903)"/></g><g transform="translate(1.042 0.607)"><path class="f" d="M252.51,451.4a30.41,30.41,0,0,0-.091,3.578,15.046,15.046,0,0,0,.1-1.788A15.288,15.288,0,0,0,252.51,451.4Z" transform="translate(-252.395 -451.397)"/></g><g transform="translate(4.385 5.927)"><path class="f" d="M259.446,462.624a7.167,7.167,0,0,0,2.545.057c0-.031-.572,0-1.273-.02S259.45,462.593,259.446,462.624Z" transform="translate(-259.446 -462.615)"/></g><g transform="translate(2.675 5.909)"><path class="f" d="M255.842,462.579c-.021.021.045.121.1.252s.087.248.117.246.046-.137-.02-.288S255.861,462.559,255.842,462.579Z" transform="translate(-255.838 -462.576)"/></g><g transform="translate(2.041 5.099)"><path class="f" d="M254.507,460.873c-.021.02.034.112.123.2s.178.151.2.131-.034-.111-.123-.2S254.528,460.853,254.507,460.873Z" transform="translate(-254.503 -460.869)"/></g><g transform="translate(1.129 4.678)"><path class="f" d="M252.581,460.029c.006.029.121.03.249.077s.219.116.242.1-.048-.14-.207-.2S252.572,460,252.581,460.029Z" transform="translate(-252.58 -459.981)"/></g><g transform="translate(0.475 4.526)"><path class="f" d="M251.2,459.68c-.011.027.039.072.111.1s.139.03.15,0-.038-.072-.11-.1S251.213,459.652,251.2,459.68Z" transform="translate(-251.201 -459.66)"/></g></g><g transform="translate(0 146.682)"><g transform="translate(0.025)"><path class="g" d="M191.176,454.872l-.027-4.65,8.709-.105.111,6.8-.54.041c-2.4.162-12.222.657-13.835.19C183.8,456.628,191.176,454.872,191.176,454.872Z" transform="translate(-185.313 -450.117)"/><g class="l" transform="translate(11.499 4.237)"><path d="M209.558,461.586a3.022,3.022,0,0,1,1.088-1.87,2.933,2.933,0,0,1,2.028-.658l.031,2.434Z" transform="translate(-209.558 -459.052)"/></g></g><g transform="translate(0 5.742)"><g class="l"><path d="M187.544,462.224s-2.585.78-2.256,1.2,10.272.3,14.653-.143l-.017-.194-11.6.246S188.051,462.239,187.544,462.224Z" transform="translate(-185.26 -462.224)"/></g></g><g transform="translate(0.024 6.596)"><path class="f" d="M200.089,464.03a.8.8,0,0,1-.149.018l-.43.031-1.582.089c-1.336.065-3.184.13-5.225.158s-3.89.012-5.228-.018l-1.584-.046-.431-.02a.865.865,0,0,1-.149-.014.778.778,0,0,1,.15-.008h.431l1.584.012c1.337.01,3.185.014,5.226-.013s3.887-.082,5.223-.128l1.583-.055.431-.012A.789.789,0,0,1,200.089,464.03Z" transform="translate(-185.311 -464.026)"/></g><g transform="translate(2.219 5.635)"><path class="f" d="M190.793,463.353A2.3,2.3,0,0,0,189.94,462a1.409,1.409,0,0,1,.853,1.351Z" transform="translate(-189.94 -461.999)"/></g><g transform="translate(5.152 4.932)"><path class="f" d="M196.6,461.238c-.025.016-.149-.132-.279-.331s-.215-.372-.19-.388.149.132.278.331S196.622,461.222,196.6,461.238Z" transform="translate(-196.124 -460.517)"/></g><g transform="translate(5.774 4.786)"><path class="f" d="M197.987,460.694c-.019.022-.158-.068-.31-.2s-.259-.259-.24-.28.158.068.31.2S198.006,460.671,197.987,460.694Z" transform="translate(-197.435 -460.209)"/></g><g transform="translate(5.851 4.4)"><path class="f" d="M198.508,459.438a1.972,1.972,0,0,1-.91.022,2,2,0,0,1,.91-.022Z" transform="translate(-197.598 -459.395)"/></g><g transform="translate(5.877 3.853)"><path class="f" d="M198.683,458.25a.88.88,0,0,1-.505.154.889.889,0,0,1-.525-.063,2.76,2.76,0,0,1,.515-.042A2.8,2.8,0,0,1,198.683,458.25Z" transform="translate(-197.653 -458.241)"/></g><g transform="translate(3.673 4.128)"><path class="f" d="M194.652,459.589a1.611,1.611,0,0,1-.56,0,3.289,3.289,0,0,1-.6-.124,1.629,1.629,0,0,1-.343-.136.3.3,0,0,1-.141-.172.22.22,0,0,1,.082-.225,1.027,1.027,0,0,1,1.273.284,1,1,0,0,1,.187.371.31.31,0,0,1,.017.151,1.593,1.593,0,0,0-.261-.474,1.009,1.009,0,0,0-.482-.3.867.867,0,0,0-.666.054c-.088.067-.052.171.047.229a1.666,1.666,0,0,0,.316.131,3.928,3.928,0,0,0,.578.143C194.439,459.574,194.652,459.572,194.652,459.589Z" transform="translate(-193.005 -458.82)"/></g><g transform="translate(5.102 3.836)"><path class="f" d="M196.092,459.3a.551.551,0,0,1-.07-.388.918.918,0,0,1,.148-.411.563.563,0,0,1,.462-.291.223.223,0,0,1,.176.257.614.614,0,0,1-.092.251,1.7,1.7,0,0,1-.26.342.811.811,0,0,1-.317.231c-.01-.014.11-.1.262-.281a1.977,1.977,0,0,0,.23-.339c.075-.12.125-.333-.016-.356s-.281.129-.366.242a.921.921,0,0,0-.154.366A2.03,2.03,0,0,0,196.092,459.3Z" transform="translate(-196.019 -458.206)"/></g><g transform="translate(11.529 4.167)"><path class="f" d="M212.635,458.956c0,.02-.25-.02-.643.031a2.73,2.73,0,0,0-2.258,1.847c-.128.375-.138.626-.157.624a.51.51,0,0,1,0-.176,2.3,2.3,0,0,1,.089-.471,2.648,2.648,0,0,1,2.321-1.9,2.243,2.243,0,0,1,.479.006A.51.51,0,0,1,212.635,458.956Z" transform="translate(-209.57 -458.903)"/></g><g transform="translate(13.621 0.607)"><path class="f" d="M214.005,451.4a30.445,30.445,0,0,1,.091,3.578,30.425,30.425,0,0,1-.091-3.578Z" transform="translate(-213.981 -451.397)"/></g><g transform="translate(7.872 5.927)"><path class="f" d="M204.4,462.624a7.165,7.165,0,0,1-2.544.057c0-.031.572,0,1.272-.02S204.4,462.593,204.4,462.624Z" transform="translate(-201.859 -462.615)"/></g><g transform="translate(11.88 5.909)"><path class="f" d="M210.553,462.579c.021.021-.045.121-.1.252s-.087.248-.117.246-.046-.137.02-.288S210.534,462.559,210.553,462.579Z" transform="translate(-210.309 -462.576)"/></g><g transform="translate(12.43 5.099)"><path class="f" d="M211.8,460.873c.021.02-.034.112-.123.2s-.178.151-.2.131.034-.111.123-.2S211.775,460.853,211.8,460.873Z" transform="translate(-211.469 -460.869)"/></g><g transform="translate(13.178 4.678)"><path class="f" d="M213.541,460.029c-.006.029-.121.03-.249.077s-.219.116-.241.1.048-.14.206-.2S213.549,460,213.541,460.029Z" transform="translate(-213.046 -459.981)"/></g><g transform="translate(14.064 4.526)"><path class="f" d="M215.176,459.68c.011.027-.038.072-.111.1s-.139.03-.15,0,.038-.072.111-.1S215.165,459.652,215.176,459.68Z" transform="translate(-214.914 -459.66)"/></g></g><g transform="translate(2.788 62.392)"><path class="f" d="M233.938,272.386,230.6,359.669l-13.562.285,2.252-75.628-15.255,76.206H191.139l16.611-87.969Z" transform="translate(-191.139 -272.386)"/><g transform="translate(27.922 3.176)"><path class="f" d="M253.366,279.082a8.642,8.642,0,0,1-.156,1.438c-.127.884-.318,2.1-.543,3.445a14.438,14.438,0,0,1-.388,1.9,2.68,2.68,0,0,1-.886,1.332,2.09,2.09,0,0,1-.985.44.8.8,0,0,1-.394-.006,2.438,2.438,0,0,0,2.054-1.833,16.822,16.822,0,0,0,.361-1.868c.226-1.343.443-2.557.612-3.434A8.627,8.627,0,0,1,253.366,279.082Z" transform="translate(-250.014 -279.082)"/></g><g transform="translate(28.265 3.368)"><path class="f" d="M250.924,279.714c.03.021-.081.162-.018.392a.459.459,0,0,0,.227.291.41.41,0,0,0,.535-.47.459.459,0,0,0-.26-.262c-.22-.093-.373,0-.391-.033-.028-.013.126-.2.442-.128a.6.6,0,0,1,.415.347.614.614,0,0,1-.845.742.6.6,0,0,1-.291-.457C250.71,279.812,250.915,279.684,250.924,279.714Z" transform="translate(-250.737 -279.487)"/></g><g transform="translate(20.971 2.415)"><path class="f" d="M235.555,279.9a2.554,2.554,0,0,1,.259-2.423c.063.029-.132.543-.2,1.2S235.624,279.887,235.555,279.9Z" transform="translate(-235.359 -277.478)"/></g><g transform="translate(22.594 2.209)"><path class="f" d="M238.985,279.57a2.964,2.964,0,0,1,.176-2.525,17.942,17.942,0,0,0-.176,2.525Z" transform="translate(-238.781 -277.043)"/></g><g transform="translate(36.795 2.468)"><path class="f" d="M268.744,280.213a97.644,97.644,0,0,0,.135-2.623,3.6,3.6,0,0,1-.135,2.623Z" transform="translate(-268.723 -277.591)"/></g><g transform="translate(38.574 2.317)"><path class="f" d="M272.488,279.947c-.065-.028.147-.6.193-1.331s-.075-1.326-.007-1.345a2.819,2.819,0,0,1-.187,2.676Z" transform="translate(-272.476 -277.271)"/></g></g><g transform="translate(23.443)"><g transform="translate(0 4.161)"><g transform="translate(1.89)"><path class="h" d="M240.035,171.52l8.373-.669c.052-.977-.018-4.76-.018-4.76a4.181,4.181,0,0,0,3.527-4.025c.043-3.483-.561-11.481-.561-11.481h0a12.1,12.1,0,0,0-12.164,1.529l-.516.4Z" transform="translate(-238.676 -149.602)"/><g transform="translate(5.179 15.149)"><path class="i" d="M254.137,182.835a8.1,8.1,0,0,1-4.541-1.29,4.291,4.291,0,0,0,4.549,2.193Z" transform="translate(-249.596 -181.545)"/></g></g><g transform="translate(0 6.408)"><path class="h" d="M237.01,163.224c-.059-.026-2.394-.708-2.317,1.673a1.791,1.791,0,0,0,2.453,1.746C237.148,166.574,237.01,163.224,237.01,163.224Z" transform="translate(-234.691 -163.115)"/><g transform="translate(0.606 0.78)"><path class="i" d="M237.062,166.628c-.011-.007-.041.03-.11.065a.416.416,0,0,1-.31.016,1.026,1.026,0,0,1-.5-.906,1.364,1.364,0,0,1,.1-.6.478.478,0,0,1,.3-.328.212.212,0,0,1,.249.106c.034.065.02.113.033.117s.05-.041.027-.139a.267.267,0,0,0-.1-.147.313.313,0,0,0-.231-.053.582.582,0,0,0-.421.383,1.4,1.4,0,0,0-.123.668,1.077,1.077,0,0,0,.638,1.009.445.445,0,0,0,.378-.075C237.06,166.686,237.07,166.633,237.062,166.628Z" transform="translate(-235.97 -164.759)"/></g></g><g transform="translate(6.345 3.485)"><g transform="translate(0.338 1.876)"><g transform="translate(5.261)"><g transform="translate(0.865 0.632)"><path class="f" d="M262.693,162.689a.5.5,0,0,1-.48.5.476.476,0,0,1-.513-.449.5.5,0,0,1,.479-.5A.477.477,0,0,1,262.693,162.689Z" transform="translate(-261.7 -162.239)"/></g><path class="f" d="M261.843,161.429c-.062.065-.439-.214-.974-.212s-.928.269-.985.2c-.029-.029.034-.146.205-.27a1.363,1.363,0,0,1,.789-.243,1.314,1.314,0,0,1,.775.25C261.818,161.283,261.874,161.4,261.843,161.429Z" transform="translate(-259.877 -160.906)"/></g><g transform="translate(0 0.1)"><g transform="translate(0.884 0.658)"><path class="f" d="M251.64,162.954a.5.5,0,0,1-.479.5.476.476,0,0,1-.513-.449.5.5,0,0,1,.479-.5A.476.476,0,0,1,251.64,162.954Z" transform="translate(-250.647 -162.504)"/></g><path class="f" d="M250.749,161.64c-.062.065-.439-.214-.974-.212s-.928.269-.986.2c-.028-.029.034-.146.205-.271a1.365,1.365,0,0,1,.789-.243,1.309,1.309,0,0,1,.775.25C250.723,161.493,250.779,161.611,250.749,161.64Z" transform="translate(-248.783 -161.117)"/></g><g transform="translate(3.658 0.132)"><path class="f" d="M256.746,165.645a3.572,3.572,0,0,1,.87-.157c.137-.014.266-.041.289-.134a.7.7,0,0,0-.091-.405l-.4-1.041a17.965,17.965,0,0,1-.908-2.722,17.872,17.872,0,0,1,1.125,2.643l.387,1.047a.793.793,0,0,1,.071.536.344.344,0,0,1-.225.2.947.947,0,0,1-.232.032A3.5,3.5,0,0,1,256.746,165.645Z" transform="translate(-256.496 -161.185)"/></g><g transform="translate(2.246 4.963)"><path class="f" d="M253.606,171.37c.087-.005.088.576.585.988s1.116.349,1.121.43c.008.037-.138.113-.4.12a1.447,1.447,0,0,1-.935-.326,1.261,1.261,0,0,1-.454-.829C253.5,171.51,253.567,171.367,253.606,171.37Z" transform="translate(-253.519 -171.37)"/></g></g><path class="f" d="M250.512,157.351c-.053.146-.587.076-1.215.152s-1.136.247-1.219.116c-.037-.062.051-.2.256-.34a2.13,2.13,0,0,1,1.855-.2C250.419,157.168,250.535,157.282,250.512,157.351Z" transform="translate(-248.069 -156.95)"/><g transform="translate(5.547 0.295)"><path class="f" d="M261.587,158.127c-.094.121-.463,0-.907-.01-.443-.022-.819.082-.9-.046-.038-.062.021-.184.185-.3a1.313,1.313,0,0,1,1.46.045C261.577,157.943,261.629,158.068,261.587,158.127Z" transform="translate(-259.765 -157.573)"/></g></g></g><g transform="translate(0.628)"><path class="f" d="M251.654,143.774a1.285,1.285,0,0,0-.475-1.149.912.912,0,0,0-1.181.088,1.064,1.064,0,0,0-.915-1.29c-.568-.036-1.053.393-1.6.543a2.584,2.584,0,0,1-1.626-.188c-.516-.208-1-.494-1.52-.685a4.454,4.454,0,0,0-5.7,2.615,1.977,1.977,0,0,0-2.1.794,3.243,3.243,0,0,0-.5,2.285,7.256,7.256,0,0,0,.4,1.563c0,.045,0,.089,0,.134.036,1.915.253,4.164,1.07,4.177,1.424.022,1.085-2.662,1.085-2.662,1.748-.675,1.1-3.294,1.534-3.692s1.352-1.32,5.011.55a7.087,7.087,0,0,0,4.341.469c.03-.007.061-.011.091-.018l.021,0c.011,0,.019-.009.03-.012a3.3,3.3,0,0,0,.939-.4,1.855,1.855,0,0,0,.773-.86,1.015,1.015,0,0,0-.2-1.09A2.229,2.229,0,0,0,251.654,143.774Z" transform="translate(-236.016 -140.828)"/></g></g><g transform="translate(10.259 24.059)"><path class="g" d="M219.3,192.268a23.408,23.408,0,0,1,3.7-.709h0a14.814,14.814,0,0,0,8.928.006c.362.045.865.093,1.5.168,3.878.458,5.366,1.277,8.152,4.015l-.3,15.7s.935,17.86.866,20.747h-26.5l-.021-12.112.006-3.3-8.724,3.168.794-4.579s3.906-15.169,4.514-17.216A9.247,9.247,0,0,1,219.3,192.268Z" transform="translate(-206.892 -191.559)"/><g transform="translate(0 22.216)"><path class="g" d="M210.886,240.258l13.062-1.856,2.483,4.447-12.143,5.474a5.246,5.246,0,0,1-2.154.463h0a5.242,5.242,0,0,1-4.849-3.252l-.393-.958Z" transform="translate(-206.892 -238.402)"/></g><g transform="translate(17.159 18.56)"><path class="h" d="M254.736,232.212l-.284-.213a6.523,6.523,0,0,0-5.14-1.188h0a8.949,8.949,0,0,0-4,1.879l-2.238,1.842,2.38,4.264,1.62-2.267s1.511,2.051,1.781,1.835a3.461,3.461,0,0,0,.594-.864l-1.079-1.511,2.591.54,3.778-1.727-1.619-2.051,1.619.54Z" transform="translate(-243.072 -230.695)"/></g><g transform="translate(28.674 1.173)"><path class="g" d="M269.362,194.032a9.636,9.636,0,0,1,5.241,4.807c1.011,2.316,2.5,13.465,2.5,13.465l1.875,3.616a6.094,6.094,0,0,1,.684,2.806v.552a6.1,6.1,0,0,1-1.367,3.847h0a6.1,6.1,0,0,1-4.19,2.225c-1.871.168-4.135.241-4.618-.311a23.42,23.42,0,0,1-2.132-3.595l5.457-2.9-2.35-4.351Z" transform="translate(-267.353 -194.032)"/></g><g transform="translate(3.619 22.089)"><path class="f" d="M219.211,247.773a1.022,1.022,0,0,1,.211-.118l.625-.3,2.344-1.1,8-3.653-.054.164-1.533-2.74-.951-1.706.115.06-9.569.94-2.844.255-.768.057a1.22,1.22,0,0,1-.268.005,1.2,1.2,0,0,1,.264-.049l.764-.1,2.836-.326,9.561-1.017.078-.008.038.068.954,1.705,1.528,2.742.063.112-.117.052-8.038,3.578-2.372,1.031-.642.267A1.033,1.033,0,0,1,219.211,247.773Z" transform="translate(-214.522 -238.136)"/></g><g transform="translate(10.506 12.351)"><path class="f" d="M229.165,228.032c-.066,0-.12-2.335-.12-5.215s.054-5.215.12-5.215.12,2.334.12,5.215S229.23,228.032,229.165,228.032Z" transform="translate(-229.045 -217.601)"/></g><g transform="translate(29.927 26.191)"><path class="f" d="M273.174,246.861a1.183,1.183,0,0,1,.4-.063,3.646,3.646,0,0,1,1.1.066,1.3,1.3,0,0,1,.691.391,1.8,1.8,0,0,1,.361.832,1.937,1.937,0,0,1-.089,1,1.86,1.86,0,0,1-.661.847,4.94,4.94,0,0,1-1.892.675,8.646,8.646,0,0,1-1.619.157,2.931,2.931,0,0,1-1.47-.257,7.691,7.691,0,0,0,1.466.087,9.8,9.8,0,0,0,1.579-.2,4.987,4.987,0,0,0,1.8-.652,1.7,1.7,0,0,0,.376-2.355,1.156,1.156,0,0,0-.583-.354,4.383,4.383,0,0,0-1.055-.137A1.445,1.445,0,0,1,273.174,246.861Z" transform="translate(-269.994 -246.785)"/></g><g transform="translate(29.923 30.049)"><path class="f" d="M275.337,257.452a2.767,2.767,0,0,1-.939.111,5.962,5.962,0,0,1-2.256-.374,4.87,4.87,0,0,1-1.123-.6,2.69,2.69,0,0,1-.694-.784,2.06,2.06,0,0,1-.334-.888c.038-.016.162.327.477.8a2.81,2.81,0,0,0,.682.7,5.31,5.31,0,0,0,1.08.552,7.058,7.058,0,0,0,2.172.428A5.588,5.588,0,0,1,275.337,257.452Z" transform="translate(-269.986 -254.919)"/></g><g transform="translate(33.076 21.265)"><path class="f" d="M281.442,236.4a4.53,4.53,0,0,1-.644.774c-.42.46-1.011,1.085-1.674,1.765s-1.273,1.287-1.723,1.718a4.277,4.277,0,0,1-.764.663,4.251,4.251,0,0,1,.642-.781c.419-.461,1.01-1.087,1.673-1.767A23.138,23.138,0,0,1,281.442,236.4Z" transform="translate(-276.636 -236.398)"/></g><g transform="translate(31.815 12.869)"><path class="f" d="M274.095,224.657a37.264,37.264,0,0,1,0-5.963,37.255,37.255,0,0,1,0,5.963Z" transform="translate(-273.975 -218.694)"/></g><g transform="translate(5.653 5.917)"><path class="d" d="M248.688,204.154c0,.066-6.689.12-14.938.12s-14.939-.054-14.939-.12,6.687-.119,14.939-.119S248.688,204.089,248.688,204.154Z" transform="translate(-218.811 -204.035)"/></g><g transform="translate(4.813 8.296)"><path class="d" d="M248.526,209.171c0,.066-7.049.12-15.742.12s-15.744-.054-15.744-.12,7.047-.119,15.744-.119S248.526,209.1,248.526,209.171Z" transform="translate(-217.04 -209.051)"/></g><g transform="translate(6.912 3.748)"><path class="d" d="M248.894,199.581c0,.066-6.141.12-13.714.12s-13.715-.053-13.715-.12,6.139-.12,13.715-.12S248.894,199.515,248.894,199.581Z" transform="translate(-221.466 -199.461)"/></g><g transform="translate(8.747 39.66)"><path class="d" d="M252.185,275.3c0,.066-6.011.12-13.424.12s-13.425-.054-13.425-.12,6.009-.12,13.425-.12S252.185,275.238,252.185,275.3Z" transform="translate(-225.336 -275.184)"/></g><g transform="translate(8.926 38.133)"><path class="d" d="M252.2,272.085c0,.066-5.931.12-13.244.12s-13.246-.054-13.246-.12,5.929-.12,13.246-.12S252.2,272.019,252.2,272.085Z" transform="translate(-225.714 -271.965)"/></g><g transform="translate(8.747 36.158)"><path class="d" d="M251.736,267.92c0,.066-5.91.12-13.2.12s-13.2-.054-13.2-.12,5.909-.12,13.2-.12S251.736,267.854,251.736,267.92Z" transform="translate(-225.336 -267.8)"/></g><g transform="translate(13.761 22.467)"><path class="d" d="M238.03,244.568a2.383,2.383,0,0,1-.669-.624,6.325,6.325,0,0,1-1.451-4.106,2.382,2.382,0,0,1,.129-.906,8.115,8.115,0,0,0,1.991,5.636Z" transform="translate(-235.909 -238.932)"/></g><g transform="translate(12.368 22.665)"><path class="d" d="M235.258,245.52a2.73,2.73,0,0,1-.724-.689,6.914,6.914,0,0,1-1.562-4.491,2.75,2.75,0,0,1,.139-.989,8.66,8.66,0,0,0,2.146,6.17Z" transform="translate(-232.97 -239.35)"/></g><g transform="translate(11.069 22.92)"><path class="d" d="M232.642,246.4a2.825,2.825,0,0,1-.812-.689,6.27,6.27,0,0,1-1.565-4.788,2.81,2.81,0,0,1,.249-1.035c.04.009-.051.4-.08,1.048a6.985,6.985,0,0,0,1.525,4.666C232.362,246.1,232.669,246.367,232.642,246.4Z" transform="translate(-230.232 -239.887)"/></g><g transform="translate(30.314 25.112)"><path class="d" d="M270.812,249.785c.015-.016.137.107.4.251a2.891,2.891,0,0,0,1.228.308,10.407,10.407,0,0,0,1.908-.124,2.983,2.983,0,0,0,2-.978,2.829,2.829,0,0,0,.594-2.132,3.022,3.022,0,0,0-.828-1.646,4.56,4.56,0,0,0-1.462-.952,1.291,1.291,0,0,1,.469.118,3.342,3.342,0,0,1,1.113.715,3.114,3.114,0,0,1,.925,1.734,3,3,0,0,1-.627,2.315,2.592,2.592,0,0,1-1.021.758,4.409,4.409,0,0,1-1.134.287,9.454,9.454,0,0,1-1.952.074,2.725,2.725,0,0,1-1.262-.4A1.007,1.007,0,0,1,270.812,249.785Z" transform="translate(-270.812 -244.509)"/></g><g transform="translate(30.963 24.35)"><path class="d" d="M276.29,242.916c0-.009.05-.013.146-.013a1.585,1.585,0,0,1,.415.07,2.643,2.643,0,0,1,1.225.924,6.274,6.274,0,0,1,1.021,2.037,3.789,3.789,0,0,1,.15,1.355,2.981,2.981,0,0,1-.489,1.387,4.234,4.234,0,0,1-2.253,1.637,6.7,6.7,0,0,1-2.261.26,12.785,12.785,0,0,1-1.518-.161,2.393,2.393,0,0,1-.546-.119c0-.046.794.084,2.068.112a6.91,6.91,0,0,0,2.189-.3,4.093,4.093,0,0,0,2.121-1.558,2.786,2.786,0,0,0,.456-1.277,3.634,3.634,0,0,0-.13-1.276,6.411,6.411,0,0,0-.942-1.993,2.7,2.7,0,0,0-1.122-.94C276.492,242.937,276.288,242.94,276.29,242.916Z" transform="translate(-272.18 -242.903)"/></g><g transform="translate(16.521 17.762)"><path class="f" d="M250.04,230.936,241.727,241l.637.69,13.491-2.056,6.69-10.067-.621-.559Z" transform="translate(-241.727 -229.011)"/></g><g transform="translate(20.773 22.344)"><path class="h" d="M263.572,238.672h0a1.283,1.283,0,0,0-1.2.819,2.77,2.77,0,0,1-.818,1.307,2.9,2.9,0,0,1-2.18.321c-.545-.267-2.725-2.229-3.106-2.01s-.708.709-.327,1.144,2.4,1.744,2.017,2.18-4.633-1.483-5.287-1.314-1.035.571-.654.834,3.27,1.352,3.434,1.734c0,0-4.36-1.145-4.523-.872s-.436.709,0,.872,4.2,1.144,4.523,1.308a7.94,7.94,0,0,0,1.681.49,17.92,17.92,0,0,1,1.756.557,3.846,3.846,0,0,0,2.712-.073l.441-.18a1.73,1.73,0,0,0,1.075-1.706l-.089-1.487.476-1.227Z" transform="translate(-250.692 -238.672)"/></g><g transform="translate(17.203 18.367)"><path class="e" d="M263.319,230.292a1.029,1.029,0,0,1-.249.061l-.721.128-2.659.427-3.948.6-2.329.352a4.452,4.452,0,0,0-2.258.915,15.13,15.13,0,0,0-1.645,1.889l-1.476,1.84-2.509,3.107-1.708,2.082-.474.558a.129.129,0,1,1-.038-.03l.439-.587,1.649-2.129,2.469-3.139,1.465-1.849A14.9,14.9,0,0,1,251,232.595a4.659,4.659,0,0,1,2.373-.963l2.337-.34,3.955-.552,2.67-.352.728-.083A1.045,1.045,0,0,1,263.319,230.292Z" transform="translate(-243.166 -230.288)"/></g><g transform="translate(30.591 20.577)"><path class="b" d="M271.851,234.948a1.141,1.141,0,0,0-.374.3.39.39,0,0,0-.016.452.418.418,0,0,0,.556.009.543.543,0,0,0,.216-.322.382.382,0,0,0-.115-.361.3.3,0,0,0-.366-.014" transform="translate(-271.395 -234.948)"/></g></g></g><g transform="translate(160.405 113.319)"><g transform="translate(0 36.29)"><g transform="translate(4.12)"><rect class="e" width="21.778" height="43.923"/></g><g transform="translate(1.733 0)"><path class="e" d="M37.017,302.922h0a3.4,3.4,0,0,1-3.4-3.4V262.5a3.4,3.4,0,0,1,3.4-3.4h0a3.4,3.4,0,0,1,3.4,3.4v37.023A3.4,3.4,0,0,1,37.017,302.922Z" transform="translate(-33.619 -259.103)"/></g><g transform="translate(6.901 1.766)"><path class="f" d="M44.522,262.827a.362.362,0,0,1,.019.109l.033.322q.037.456.1,1.238c.079,1.1.19,2.649.327,4.556.253,3.868.6,9.174.986,15.036.364,5.876.709,11.189.9,15.046a11.753,11.753,0,0,1-.565,4.528,5.913,5.913,0,0,1-.552,1.118l-.186.265c-.043.059-.067.088-.07.085a8.426,8.426,0,0,0,.718-1.5,12.059,12.059,0,0,0,.481-4.489c-.249-3.868-.591-9.174-.969-15.037-.356-5.863-.678-11.172-.913-15.041-.1-1.908-.188-3.461-.249-4.56q-.035-.783-.055-1.241c0-.129-.006-.235-.008-.323A.366.366,0,0,1,44.522,262.827Z" transform="translate(-44.516 -262.827)"/></g><g transform="translate(0 43.758)"><g transform="translate(0 0.167)"><g transform="translate(23.945 5.45)"><rect class="e" width="3.51" height="42.06"/></g><path class="e" d="M80.174,357.171H29.965a5.45,5.45,0,0,1,5.45-5.45H74.724a5.45,5.45,0,0,1,5.45,5.45Z" transform="translate(-29.965 -351.721)"/><g transform="translate(22.62 5.428)"><path class="f" d="M83.821,363.3a18.419,18.419,0,0,1-3.08.129,18.417,18.417,0,0,1-3.08-.129,18.466,18.466,0,0,1,3.08-.13A18.467,18.467,0,0,1,83.821,363.3Z" transform="translate(-77.661 -363.167)"/></g><g transform="translate(10.188 35.886)"><path class="e" d="M82.315,442.824h-.5a14.937,14.937,0,1,0-29.875,0h-.5a15.434,15.434,0,1,1,30.868,0Z" transform="translate(-51.447 -427.39)"/></g><g transform="translate(8.122 48.726)"><circle class="f" cx="2.314" cy="2.314" r="2.314"/></g><g transform="translate(38.593 48.832)"><path class="e" d="M115.968,457a2.314,2.314,0,1,1-2.314-2.314A2.314,2.314,0,0,1,115.968,457Z" transform="translate(-111.34 -454.687)"/></g><g transform="translate(10.907 47.381)"><path class="e" d="M82.964,451.756c0,.071-6.716.129-15,.129s-15-.058-15-.129,6.715-.13,15-.13S82.964,451.684,82.964,451.756Z" transform="translate(-52.964 -451.626)"/></g></g><g transform="translate(1.453)"><path class="f" d="M51.855,351.444a4.48,4.48,0,0,1-.758.054l-2.067.055c-1.745.035-4.155.066-6.817.085l-3.755.025a12.669,12.669,0,0,0-3.022.275,4.96,4.96,0,0,0-1.827.87c-.387.291-.559.5-.581.482-.006-.006.035-.06.119-.157a3.088,3.088,0,0,1,.4-.4,4.738,4.738,0,0,1,1.842-.965,12.142,12.142,0,0,1,3.063-.334c1.151-.029,2.422-.031,3.754-.044,2.664-.019,5.076-.022,6.823-.012l2.067.025A4.384,4.384,0,0,1,51.855,351.444Z" transform="translate(-33.028 -351.37)"/></g></g></g><g transform="translate(5.565)"><g transform="translate(7.085)"><g transform="translate(1.407 4.07)"><path class="n" d="M64.349,221.282h0c2.613,0,4.783-1.706,4.819-9.648.007-1.6-.045-2.979-.045-2.979s3.771-.343,4.047-4,.067-12.141.067-12.141h0a13.068,13.068,0,0,0-13.052.862l-.58.384.178,17.972C59.809,214.254,61.775,221.282,64.349,221.282Z" transform="translate(-59.606 -191.165)"/><g transform="translate(4.743 15.787)"><path class="o" d="M74.389,226.1a8.826,8.826,0,0,1-4.783-1.65s.985,2.7,4.732,2.6Z" transform="translate(-69.606 -224.454)"/></g><g transform="translate(4.889 4.196)"><g transform="translate(0.356 1.935)"><g transform="translate(5.537)"><g transform="translate(0.91 0.652)"><path class="f" d="M85.3,205.931a.518.518,0,0,1-.5.517.5.5,0,0,1-.54-.462.518.518,0,0,1,.5-.518A.5.5,0,0,1,85.3,205.931Z" transform="translate(-84.26 -205.467)"/></g><path class="f" d="M84.41,204.632c-.065.067-.461-.22-1.025-.219s-.976.277-1.037.21c-.03-.03.036-.151.216-.279a1.458,1.458,0,0,1,.83-.25,1.394,1.394,0,0,1,.816.258C84.384,204.481,84.442,204.6,84.41,204.632Z" transform="translate(-82.341 -204.093)"/></g><g transform="translate(0 0.103)"><g transform="translate(0.93 0.679)"><path class="f" d="M73.673,206.2a.517.517,0,0,1-.5.517.5.5,0,0,1-.54-.462.517.517,0,0,1,.5-.517A.5.5,0,0,1,73.673,206.2Z" transform="translate(-72.628 -205.741)"/></g><path class="f" d="M72.735,204.849c-.065.067-.462-.221-1.025-.219s-.976.277-1.037.21c-.03-.03.036-.151.216-.279a1.457,1.457,0,0,1,.83-.25,1.4,1.4,0,0,1,.816.258C72.708,204.7,72.767,204.819,72.735,204.849Z" transform="translate(-70.666 -204.31)"/></g><g transform="translate(3.849 0.136)"><path class="f" d="M79.047,208.979a3.763,3.763,0,0,1,.915-.162c.144-.014.28-.042.3-.139a.7.7,0,0,0-.1-.418q-.2-.511-.425-1.073a18.164,18.164,0,0,1-.956-2.807,18.248,18.248,0,0,1,1.184,2.725q.213.565.407,1.079a.8.8,0,0,1,.075.553.361.361,0,0,1-.237.206,1,1,0,0,1-.244.033A3.772,3.772,0,0,1,79.047,208.979Z" transform="translate(-78.783 -204.38)"/></g><g transform="translate(2.364 5.116)"><path class="f" d="M75.743,214.881c.092,0,.093.594.616,1.019s1.174.359,1.179.443c.009.038-.145.117-.42.124a1.544,1.544,0,0,1-.984-.336,1.293,1.293,0,0,1-.478-.855C75.633,215.026,75.7,214.878,75.743,214.881Z" transform="translate(-75.651 -214.881)"/></g></g><path class="f" d="M72.486,200.427c-.056.15-.618.079-1.279.157s-1.2.255-1.283.12c-.039-.065.054-.205.269-.351a2.28,2.28,0,0,1,1.952-.211C72.388,200.238,72.51,200.356,72.486,200.427Z" transform="translate(-69.915 -200.014)"/><g transform="translate(5.837 0.305)"><path class="f" d="M84.141,201.227c-.1.126-.487,0-.954-.011-.466-.022-.862.084-.953-.047-.04-.064.022-.189.2-.308a1.4,1.4,0,0,1,1.536.047C84.13,201.037,84.184,201.166,84.141,201.227Z" transform="translate(-82.223 -200.656)"/></g></g></g><path class="f" d="M71.793,187.293a3.735,3.735,0,0,0-.569-1.6,1.591,1.591,0,0,0-.194-1.64,1.613,1.613,0,0,0-2.21-.119l-.029-.01a.865.865,0,0,0-.265-1.038,2.025,2.025,0,0,0-1.294-.306,19.445,19.445,0,0,0-4.346,1.25c-.1.018-.2.033-.293.052a7.992,7.992,0,0,0-3.474,1.5,7.438,7.438,0,0,0-2.174,3.844,13.928,13.928,0,0,0-.1,5.449c.457-.4,2.06-1.42,2.3-.859a3.363,3.363,0,0,1,.123,1.027.882.882,0,0,0,.524.824.7.7,0,0,0,.721-.316,1.629,1.629,0,0,0,.229-.8c.091-1.139-.193-2.293-.012-3.421a4.2,4.2,0,0,1,4.97-3.452,8.885,8.885,0,0,0,2.041.418c1-.039,2.025-.758,2.928-.325.179.086.358.169.529.269.341.2.509.4.593.219A3.417,3.417,0,0,0,71.793,187.293Z" transform="translate(-56.639 -182.583)"/><g transform="translate(0.21 10.687)"><path class="n" d="M59.242,205.138c-.069-.025-2.363-.318-2.146,2.336s2.881,1.562,2.879,1.485S59.242,205.138,59.242,205.138Z" transform="translate(-57.082 -205.117)"/><g transform="translate(0.692 0.916)"><path class="o" d="M59.837,209.108c-.013-.008-.045.036-.121.078a.481.481,0,0,1-.352.035,1.146,1.146,0,0,1-.624-.984,1.5,1.5,0,0,1,.078-.672.54.54,0,0,1,.326-.383.243.243,0,0,1,.289.1c.042.072.03.126.044.129s.055-.049.024-.157a.3.3,0,0,0-.12-.157.362.362,0,0,0-.267-.047.661.661,0,0,0-.459.45,1.549,1.549,0,0,0-.1.753,1.206,1.206,0,0,0,.782,1.092.512.512,0,0,0,.426-.1C59.837,209.173,59.846,209.112,59.837,209.108Z" transform="translate(-58.541 -207.047)"/></g></g></g><g transform="translate(25.494 114.062)"><path class="g" d="M104.641,431.559l2.068-2.9-7.958-5.572-3.3,4.471.456.392c2.043,1.724,10.508,8.627,12.251,9.279C110.108,437.959,104.641,431.559,104.641,431.559Z" transform="translate(-95.456 -423.09)"/><g class="j" transform="translate(0.09 2.222)"><path class="k" d="M98.4,432.079a3.329,3.329,0,0,0,.319-2.367,2.862,2.862,0,0,0-1.506-1.936l-1.568,2.147Z" transform="translate(-95.645 -427.776)"/></g><g transform="translate(0 4.312)"><g class="j"><path class="k" d="M107.228,439.579s1.809,2.386,1.242,2.54-9.378-6.506-13.014-9.777l.14-.159,10.213,7.855S106.764,439.257,107.228,439.579Z" transform="translate(-95.456 -432.182)"/></g></g><g transform="translate(0.023 4.215)"><path class="f" d="M95.5,431.979a.9.9,0,0,0,.122.114l.364.31,1.358,1.12c1.153.937,2.763,2.211,4.571,3.58s3.472,2.573,4.687,3.428l1.446,1,.4.266a.948.948,0,0,0,.143.086.918.918,0,0,0-.13-.106l-.385-.284-1.424-1.033c-1.2-.872-2.857-2.086-4.665-3.454s-3.424-2.631-4.589-3.552l-1.381-1.091-.377-.294A.883.883,0,0,0,95.5,431.979Z" transform="translate(-95.504 -431.979)"/></g><g transform="translate(10.26 11.605)"><path class="f" d="M117.093,448.238a3.836,3.836,0,0,1,.758-.458,3.934,3.934,0,0,1,.876-.165,1.3,1.3,0,0,0-.92.056A1.252,1.252,0,0,0,117.093,448.238Z" transform="translate(-117.091 -447.561)"/></g><g transform="translate(8.841 9.099)"><path class="f" d="M114.1,442.606a1.009,1.009,0,0,0,.462-.106c.244-.089.433-.184.421-.215a1.008,1.008,0,0,0-.463.106C114.274,442.48,114.086,442.576,114.1,442.606Z" transform="translate(-114.097 -442.276)"/></g><g transform="translate(8.461 8.538)"><path class="f" d="M113.3,441.189c0,.032.185.044.406.028s.4-.056.4-.088-.185-.044-.406-.027S113.293,441.156,113.3,441.189Z" transform="translate(-113.296 -441.093)"/></g><g transform="translate(8.604 7.617)"><path class="f" d="M113.6,439.155c-.019.025.144.184.365.355s.415.289.435.264-.144-.183-.365-.354S113.619,439.13,113.6,439.155Z" transform="translate(-113.598 -439.152)"/></g><g transform="translate(8.847 7.014)"><path class="f" d="M114.113,437.881c-.026.016.1.251.353.468a1,1,0,0,0,.509.29c.016-.029-.2-.169-.433-.376S114.141,437.862,114.113,437.881Z" transform="translate(-114.11 -437.879)"/></g><g transform="translate(9.576 8.794)"><path class="f" d="M115.673,441.807a1.852,1.852,0,0,0,.5.372,3.686,3.686,0,0,0,.614.285,1.812,1.812,0,0,0,.395.106.328.328,0,0,0,.237-.058.238.238,0,0,0,.072-.251,1.155,1.155,0,0,0-1.322-.59,1.081,1.081,0,0,0-.407.2c-.083.068-.117.117-.112.121a1.711,1.711,0,0,1,.539-.244,1.127,1.127,0,0,1,.627.051.983.983,0,0,1,.562.486c.036.117-.064.185-.19.169a1.9,1.9,0,0,1-.367-.094,4.384,4.384,0,0,1-.609-.256C115.873,441.934,115.684,441.792,115.673,441.807Z" transform="translate(-115.647 -441.634)"/></g><g transform="translate(9.519 7.751)"><path class="f" d="M115.721,440.771c0,.011.17-.058.312-.294a.977.977,0,0,0,.133-.457.624.624,0,0,0-.225-.56.242.242,0,0,0-.322.109.658.658,0,0,0-.08.281,1.845,1.845,0,0,0,.012.471.894.894,0,0,0,.135.411c.018-.005-.033-.162-.053-.419a2.122,2.122,0,0,1,.013-.449c.01-.154.1-.374.243-.3a.555.555,0,0,1,.171.453.993.993,0,0,1-.1.422A2.191,2.191,0,0,1,115.721,440.771Z" transform="translate(-115.528 -439.433)"/></g><g transform="translate(1.744 2.265)"><path class="f" d="M99.134,427.867c-.011.018.236.146.555.45a3.162,3.162,0,0,1,.864,1.443,3.062,3.062,0,0,1-.036,1.664c-.128.413-.281.639-.262.65s.05-.048.116-.152a2.461,2.461,0,0,0,.224-.471,2.925,2.925,0,0,0,.07-1.718,3.024,3.024,0,0,0-.921-1.474,2.608,2.608,0,0,0-.433-.311A.568.568,0,0,0,99.134,427.867Z" transform="translate(-99.133 -427.866)"/></g><g transform="translate(4.372 6.521)"><path class="f" d="M104.676,436.842a8.115,8.115,0,0,0,2.239,1.725c.018-.028-.509-.379-1.125-.855S104.7,436.818,104.676,436.842Z" transform="translate(-104.675 -436.841)"/></g><g transform="translate(2.728 5.376)"><path class="f" d="M101.342,434.427c-.033,0-.038.136-.072.288s-.082.274-.054.292.13-.089.168-.266S101.372,434.421,101.342,434.427Z" transform="translate(-101.208 -434.427)"/></g><g transform="translate(2.785 4.251)"><path class="f" d="M101.361,432.053c-.032,0-.042.121-.022.26s.062.25.094.246.041-.12.021-.26S101.393,432.049,101.361,432.053Z" transform="translate(-101.329 -432.053)"/></g><g transform="translate(2.241 3.308)"><path class="f" d="M100.182,430.074c-.014.03.09.106.173.231s.121.246.154.244.047-.155-.058-.308S100.192,430.045,100.182,430.074Z" transform="translate(-100.18 -430.066)"/></g><g transform="translate(1.761 2.725)"><path class="f" d="M99.183,428.838c-.027.017-.012.089.034.162s.1.119.132.1.012-.089-.034-.162S99.21,428.822,99.183,428.838Z" transform="translate(-99.17 -428.835)"/></g><g class="m" transform="translate(1.973 1.15)"><path d="M99.615,426.159l8.043,5.544.233-.31-7.818-5.879Z" transform="translate(-99.615 -425.515)"/></g></g><g transform="translate(63.31 128.313)"><path class="g" d="M185.184,456.534l-.744-3.395-9.246,2.114,1.081,5.314.582-.074c2.586-.351,13.127-1.961,14.742-2.8C193.4,456.765,185.184,456.534,185.184,456.534Z" transform="translate(-175.194 -453.139)"/><g class="j" transform="translate(0.537 4.571)"><path class="k" d="M180.221,464.919a3.253,3.253,0,0,0-1.505-1.781,2.8,2.8,0,0,0-2.388-.177l.528,2.541Z" transform="translate(-176.327 -462.777)"/></g><g transform="translate(1.057 3.642)"><g class="j"><path class="k" d="M190.4,460.819s2.912.252,2.652.764-10.853,2.532-15.6,3.022l-.024-.206,12.376-2.253S189.86,460.944,190.4,460.819Z" transform="translate(-177.423 -460.819)"/></g></g><g transform="translate(0.91 4.253)"><path class="f" d="M177.113,465.1a.884.884,0,0,0,.163-.013l.463-.06,1.7-.25c1.434-.222,3.411-.553,5.586-.966s4.136-.83,5.552-1.15l1.673-.39.453-.114a.875.875,0,0,0,.156-.047.849.849,0,0,0-.161.025l-.458.093-1.681.355c-1.419.3-3.381.7-5.555,1.117s-4.148.757-5.578,1l-1.694.285-.46.081A.956.956,0,0,0,177.113,465.1Z" transform="translate(-177.113 -462.107)"/></g><g transform="translate(13.404 3.519)"><path class="f" d="M203.51,462.151a3.765,3.765,0,0,1,.165-.849,3.811,3.811,0,0,1,.454-.742,1.27,1.27,0,0,0-.561.7A1.224,1.224,0,0,0,203.51,462.151Z" transform="translate(-203.457 -460.558)"/></g><g transform="translate(10.452 3.422)"><path class="f" d="M197.241,461.2c.029.011.13-.17.226-.4s.149-.434.12-.445-.131.17-.226.4S197.212,461.193,197.241,461.2Z" transform="translate(-197.233 -460.354)"/></g><g transform="translate(9.631 3.405)"><path class="f" d="M195.505,460.94c.025.018.153-.105.286-.276s.22-.325.2-.344-.154.1-.286.276S195.48,460.921,195.505,460.94Z" transform="translate(-195.501 -460.318)"/></g><g transform="translate(8.997 3.069)"><path class="f" d="M194.164,459.8a2.2,2.2,0,1,0,.476-.142A1.123,1.123,0,0,0,194.164,459.8Z" transform="translate(-194.164 -459.609)"/></g><g transform="translate(8.718 2.549)"><path class="f" d="M193.577,458.65a1.414,1.414,0,0,0,1.113-.129,3.119,3.119,0,0,0-.556.068A3.084,3.084,0,0,0,193.577,458.65Z" transform="translate(-193.577 -458.513)"/></g><g transform="translate(10.624 2.359)"><path class="f" d="M197.595,459.173a1.793,1.793,0,0,0,.6-.118,3.587,3.587,0,0,0,.608-.258,1.778,1.778,0,0,0,.335-.216.326.326,0,0,0,.113-.21.232.232,0,0,0-.135-.216,1.127,1.127,0,0,0-1.292.571,1.054,1.054,0,0,0-.12.427.324.324,0,0,0,.014.161,1.677,1.677,0,0,1,.177-.55,1.1,1.1,0,0,1,.447-.421.96.96,0,0,1,.72-.088c.108.051.092.167,0,.248a1.842,1.842,0,0,1-.308.2,4.293,4.293,0,0,1-.584.274C197.819,459.111,197.592,459.155,197.595,459.173Z" transform="translate(-197.595 -458.113)"/></g><g transform="translate(9.83 2.388)"><path class="f" d="M196.875,459.205a.575.575,0,0,0-.008-.419.962.962,0,0,0-.244-.4.611.611,0,0,0-.553-.2.237.237,0,0,0-.132.3.64.64,0,0,0,.151.241,1.785,1.785,0,0,0,.349.3.886.886,0,0,0,.386.172c.008-.016-.139-.082-.338-.236a2.085,2.085,0,0,1-.317-.3c-.105-.108-.2-.319-.059-.374a.545.545,0,0,1,.44.173.969.969,0,0,1,.241.348A2.07,2.07,0,0,1,196.875,459.205Z" transform="translate(-195.922 -458.174)"/></g><g transform="translate(0.625 4.515)"><path class="f" d="M176.513,462.865c.006.02.261-.075.69-.107a3.082,3.082,0,0,1,1.611.319,2.991,2.991,0,0,1,1.181,1.116c.216.363.279.622.3.615a.53.53,0,0,0-.035-.183,2.41,2.41,0,0,0-.194-.472,2.859,2.859,0,0,0-1.2-1.176,2.956,2.956,0,0,0-1.671-.3,2.524,2.524,0,0,0-.508.11A.538.538,0,0,0,176.513,462.865Z" transform="translate(-176.513 -462.659)"/></g><g transform="translate(5.429 5.108)"><path class="f" d="M186.642,464.406a7.887,7.887,0,0,0,2.716-.492c-.009-.031-.608.121-1.356.255S186.64,464.374,186.642,464.406Z" transform="translate(-186.642 -463.91)"/></g><g transform="translate(3.608 5.943)"><path class="f" d="M182.8,465.675c-.019.027.074.116.161.241s.145.239.176.231.02-.153-.083-.3S182.82,465.65,182.8,465.675Z" transform="translate(-182.802 -465.67)"/></g><g transform="translate(2.763 5.236)"><path class="f" d="M181.023,464.187c-.018.026.06.109.174.186s.221.119.24.094-.06-.109-.174-.186S181.041,464.162,181.023,464.187Z" transform="translate(-181.021 -464.18)"/></g><g transform="translate(1.711 4.959)"><path class="f" d="M178.8,463.685c.012.029.136,0,.281.026s.257.073.277.048-.081-.136-.261-.159S178.789,463.659,178.8,463.685Z" transform="translate(-178.803 -463.596)"/></g><g transform="translate(0.98 4.967)"><path class="f" d="M177.261,463.647c-.006.031.056.067.139.082s.154,0,.16-.029-.056-.067-.139-.082S177.266,463.616,177.261,463.647Z" transform="translate(-177.26 -463.612)"/></g><g class="m" transform="translate(0.267 1.681)"><path d="M175.924,459.25l9.281-2.194-.072-.372-9.377,1.812Z" transform="translate(-175.756 -456.684)"/></g></g><g transform="translate(49.23 45.777)"><path class="o" d="M145.5,282.692a9.075,9.075,0,0,1,1.849-1.763c.258-.086,4.9-2.02,4.987-1.806s.645,1.273-.3,1.776l-.731.245,2.665.215s2.966,2.193,2.923,2.666-.43.773-.688.559.688,1.5.688,1.5,0,.731-.387.6a3.567,3.567,0,0,1-.989-.817s.559.9.387,1.075-1.032.215-1.118,0-.215-.6-.215-.6l-.516.043v.7l-7.867.241Z" transform="translate(-145.504 -279.107)"/></g><g transform="translate(0 21.817)"><g transform="translate(16.267 5.835)"><path class="k" d="M78.471,240.889l2.4,2.844,9.609,16.816,18.738,1.853.412,5.422-21.584,2.038L76,248.057Z" transform="translate(-75.999 -240.889)"/></g><path class="k" d="M62.336,242.623l-1.859-7.017-.039-2.284-10.429-4.736-2,2.492.242.127c-.821.863-6.893,7.424-6.53,12.261.327,4.361,9.512,31.838,9.512,31.838l20.929-6.118Z" transform="translate(-41.7 -228.586)"/><g transform="translate(17.962 7.115)"><path class="g" d="M80.162,243.589l-.587,2.874,1.53,2.876v2.128l10.964,25.608,3.243,1.092.549-2.2S86.733,260.39,85.155,256s-3.912-10.707-3.912-10.707Z" transform="translate(-79.575 -243.589)"/></g><g transform="translate(1.903 10.832)"><path class="k" d="M45.713,260.616c0,.273,18.9,18.54,18.9,18.54l25.537-5-.818-5.453-17.436.473a5.141,5.141,0,0,1-4.586-2.071c-3.74-4.858-11.848-15.39-12.058-15.669C54.983,251.074,45.713,260.616,45.713,260.616Z" transform="translate(-45.713 -251.427)"/></g><g transform="translate(2.159 9.869)"><path class="e" d="M89.619,267.637s.024.112.062.343l.168,1.035c.146.931.361,2.295.639,4.067l.008.049-.049.009L70.06,277.08l-1.678.322a7.624,7.624,0,0,1-1.761.156,7.1,7.1,0,0,1-4.937-2.231c-.431-.467-.831-.947-1.253-1.427l-2.551-2.932L46.964,258.413l-.014-.017-.007-.017-.077-.2a8.255,8.255,0,0,1-.613-2.941,5.413,5.413,0,0,1,.729-2.874,6.056,6.056,0,0,1,2.1-2.037,6.515,6.515,0,0,1,2.733-.905,5.194,5.194,0,0,1,2.783.5,7.24,7.24,0,0,1,2.171,1.725,22.987,22.987,0,0,1,1.644,2.141l1.527,2.135c2.031,2.8,4.044,5.4,5.988,7.781l1.443,1.748a15.3,15.3,0,0,0,1.451,1.608,3.4,3.4,0,0,0,1.865.762,14.516,14.516,0,0,0,2,.053l12.416-.189,3.361-.042.869-.007c.195,0,.291,0,.291,0s-.107.009-.307.016l-.884.026-3.378.086-12.369.281A14.6,14.6,0,0,1,70.665,268a3.581,3.581,0,0,1-1.964-.8,15.394,15.394,0,0,1-1.48-1.627l-1.45-1.745c-1.953-2.381-3.975-4.977-6.014-7.776l-1.532-2.136a22.727,22.727,0,0,0-1.63-2.117,7,7,0,0,0-2.1-1.668,4.954,4.954,0,0,0-2.656-.469,6.247,6.247,0,0,0-4.643,2.826,5.171,5.171,0,0,0-.694,2.747,8.021,8.021,0,0,0,.6,2.854l.075.194-.021-.034,10.907,12.563,2.547,2.936c.419.477.828.967,1.245,1.422a6.884,6.884,0,0,0,4.778,2.171,7.388,7.388,0,0,0,1.714-.148l1.679-.318,20.406-3.838-.042.059-.578-4.048c-.063-.457-.111-.805-.145-1.05S89.619,267.637,89.619,267.637Z" transform="translate(-46.252 -249.396)"/></g><g transform="translate(6.508 2.695)"><path class="e" d="M67.652,236.309c.025.006-.073.467-.165,1.283-.11.814-.156,1.99-.449,3.381l-.03.144-.129-.075L63.148,238.9c-2.151-1.248-4.09-2.39-5.489-3.227l-1.649-1a3.907,3.907,0,0,1-.588-.4,3.923,3.923,0,0,1,.636.313l1.688.934c1.42.8,3.374,1.916,5.525,3.165l3.715,2.174-.16.069c.308-1.356.387-2.537.534-3.349.066-.407.132-.726.187-.941A1.237,1.237,0,0,1,67.652,236.309Z" transform="translate(-55.422 -234.268)"/></g></g><g transform="translate(45.645 48.689)"><path class="n" d="M148.778,286.495l-4.557-1.247-3.783,1.891h-2.149l-.344.141.612,4.08.542.078a5.3,5.3,0,0,0,1.813.688,6.131,6.131,0,0,0,2.966-.516l2.407-1.333,1.721-.489,1.289.747a4.994,4.994,0,0,1,.129.688c0,.172.473.387.731.387s.344-.6.344-.6l-.3-1.287.6.556h1.5v-.946Z" transform="translate(-137.945 -285.248)"/></g><g transform="translate(9.122 62.418)"><g transform="translate(17.583 17.448)"><path class="f" d="M117.648,350.987,98.009,385.95l10.5,7.119,17.356-30.807-2.923-11.275Z" transform="translate(-98.009 -350.987)"/></g><path class="f" d="M61.339,320.314s-2.254,9.5,3.864,11.431,37.942,2.938,37.942,2.938l11.828,48.853L125.1,382.1l-8.734-52.357a8.861,8.861,0,0,0-7.169-7.191c-9.437-1.686-26.534-4.783-26.767-5.133-.322-.483-1.61-3.22-1.61-3.22Z" transform="translate(-60.933 -314.196)"/><g transform="translate(30.44 19.597)"><path class="e" d="M140.693,371.338a1.116,1.116,0,0,1-.1-.252c-.061-.167-.142-.416-.234-.741-.187-.648-.42-1.6-.669-2.777l-.848-4.145a22.656,22.656,0,0,0-1.473-4.922,3.294,3.294,0,0,0-1.741-1.826,13.417,13.417,0,0,0-2.412-.528c-1.572-.218-3-.32-4.2-.4s-2.174-.111-2.847-.138l-.775-.032a.136.136,0,1,1,0-.05c.177-.008.439-.013.776-.015.674,0,1.65.008,2.855.06s2.64.138,4.225.344a13.312,13.312,0,0,1,2.465.527,3.178,3.178,0,0,1,.611.308,3.04,3.04,0,0,1,.513.468,5.525,5.525,0,0,1,.753,1.168,22.106,22.106,0,0,1,1.474,4.985c.316,1.563.567,2.975.8,4.156s.432,2.133.59,2.787S140.714,371.331,140.693,371.338Z" transform="translate(-125.119 -355.518)"/></g></g></g></g><g transform="translate(210.288 169.76)"><rect class="e" width="110" height="32" transform="translate(7.712 3.24)"/><path class="e" d="M261.552,302.046l-126.391-.454-.013,3.753,7.5.027-.262,73.093,2.649.009.262-73.093,104.436.375-.262,73.093,2.649.01.262-73.093,9.154.033Z" transform="translate(-135.147 -301.592)"/></g><g transform="translate(293.281 149.466)"><path class="p" d="M310.144,258.811l7.011,20.487H348.9l-.234-1.055-12.837-.4L329.916,258.8Z" transform="translate(-310.144 -258.801)"/><g transform="translate(11.643 8.397)"><path class="k" d="M337.118,277.743a1.456,1.456,0,0,1-.8,1.836,1.4,1.4,0,0,1-1.562-1.2,1.456,1.456,0,0,1,.8-1.836A1.4,1.4,0,0,1,337.118,277.743Z" transform="translate(-334.693 -276.507)"/></g></g><g transform="translate(219.682 148.892)"><path class="p" d="M201.312,257.6,194.3,278.662H162.556l.234-1.085,12.837-.408,5.914-19.58Z" transform="translate(-162.556 -257.589)"/><g transform="translate(24.629 8.674)"><path class="k" d="M214.548,276.532a1.456,1.456,0,0,0,.8,1.836,1.4,1.4,0,0,0,1.562-1.2,1.456,1.456,0,0,0-.8-1.836A1.4,1.4,0,0,0,214.548,276.532Z" transform="translate(-214.488 -275.296)"/></g></g><g transform="translate(262.233 157.76)"><g transform="translate(8.231 0)"><circle class="e" cx="3.886" cy="3.886" r="3.886" transform="matrix(0.161, -0.987, 0.987, 0.161, 0, 7.671)"/></g><g transform="translate(0 2.926)"><rect class="d" width="25.383" height="9.278"/></g><g transform="translate(1.477 5.362)"><path class="f" d="M256.073,287.719a69.252,69.252,0,0,1-8.281,0,69.594,69.594,0,0,1,8.281,0Z" transform="translate(-247.792 -287.596)"/></g><g transform="translate(1.477 6.694)"><path class="f" d="M256.073,290.528a69.594,69.594,0,0,1-8.281,0,69.56,69.56,0,0,1,8.281,0Z" transform="translate(-247.792 -290.405)"/></g><g transform="translate(1.477 8.026)"><path class="f" d="M256.073,293.337a69.577,69.577,0,0,1-8.281,0,69.3,69.3,0,0,1,8.281,0Z" transform="translate(-247.792 -293.213)"/></g><g transform="translate(1.477 9.358)"><path class="f" d="M256.073,296.145a69.337,69.337,0,0,1-8.281,0,69.56,69.56,0,0,1,8.281,0Z" transform="translate(-247.792 -296.022)"/></g><g transform="translate(14.266 3.074)"><path class="f" d="M274.882,291.685a80.282,80.282,0,0,1,0-8.913,80.619,80.619,0,0,1,0,8.913Z" transform="translate(-274.758 -282.772)"/></g></g><g transform="translate(5 -4)"><g class="q" transform="translate(328 90)"><circle class="s" cx="8.5" cy="8.5" r="8.5"/><circle class="t" cx="8.5" cy="8.5" r="8"/></g><path class="r" d="M4359.313,7002v5.375l2.422,2.344" transform="translate(-4023 -6908)"/></g></g></svg>