<svg xmlns="http://www.w3.org/2000/svg" width="16.593" height="19.681" viewBox="0 0 16.593 19.681"><defs><style>.a{fill:#054a73;}.a,.b{fill-rule:evenodd;}.b{fill:#f95454;}</style></defs><g transform="translate(-0.001)"><path class="a" d="M0,8.058A7.584,7.584,0,0,1,7.55,0a6.92,6.92,0,0,1,6.881,6.454V7.481l1.788,2.3a1.787,1.787,0,0,1-.753,2.755l-.538.215-.871,2.439a3.053,3.053,0,0,1-2.869,2.022h-.9l-.508,2.034a.577.577,0,0,1-.559.437H1.812a.577.577,0,0,1-.555-.735l1.178-4.122-1.912-4.3A6.029,6.029,0,0,1,0,8.058Zm1.576,1.995,2,4.494a.577.577,0,0,1,.027.392L2.577,18.528h6.2l.508-2.034a.576.576,0,0,1,.559-.437h1.347A1.9,1.9,0,0,0,12.971,14.8l.958-2.684a.576.576,0,0,1,.329-.341l.779-.312a.635.635,0,0,0,.271-.976L13.48,8.136a.964.964,0,0,1-.2-.589V6.454a5.787,5.787,0,0,0-5.729-5.3,6.426,6.426,0,0,0-6.4,6.9,4.881,4.881,0,0,0,.423,1.995Zm0,0" transform="translate(0 0)"/><path class="b" d="M179.637,80.332a2.906,2.906,0,0,0-2.9,2.9h0a.689.689,0,1,0,1.378,0,1.525,1.525,0,0,1,3.051,0,1.209,1.209,0,0,1-1.043,1.328,1.71,1.71,0,0,0-1.172,1.625.689.689,0,1,0,1.378,0,.334.334,0,0,1,.23-.318,2.572,2.572,0,0,0,1.985-2.635A2.907,2.907,0,0,0,179.637,80.332Zm0,0" transform="translate(-172.686 -77.203)"/><path class="b" d="M226.312,241.689a.689.689,0,1,1-.689-.689A.689.689,0,0,1,226.312,241.689Zm0,0" transform="translate(-218.671 -230.489)"/></g></svg>