<svg xmlns="http://www.w3.org/2000/svg" xmlns:xlink="http://www.w3.org/1999/xlink" width="70" height="70" viewBox="0 0 70 70"><defs><style>.a{fill:#fff;}.b{fill:#2c9ff3;}.c{fill:#0183e5;}.d{fill:#80aef8;}.e{fill:#fff5f5;}.f{fill:#e3e7ea;}.g{filter:url(#a);}</style><filter id="a" x="0" y="0" width="70" height="70" filterUnits="userSpaceOnUse"><feOffset input="SourceAlpha"/><feGaussianBlur stdDeviation="2" result="b"/><feFlood flood-opacity="0.161"/><feComposite operator="in" in2="b"/><feComposite in="SourceGraphic"/></filter></defs><g transform="translate(-66 -101)"><g class="g" transform="matrix(1, 0, 0, 1, 66, 101)"><rect class="a" width="58" height="58" rx="16" transform="translate(6 6)"/></g><g transform="translate(25.527 118)"><g transform="translate(61.473)"><g transform="translate(0)"><path class="b" d="M88.847,9.639,81.35,7.5,79.207,0H64.213A3.213,3.213,0,0,0,61,3.213V33.345a3.213,3.213,0,0,0,3.213,3.213H85.634a3.213,3.213,0,0,0,3.213-3.213Z" transform="translate(-61)"/></g><path class="c" d="M269.923,9.639V33.345a3.213,3.213,0,0,1-3.213,3.213H256V0h4.284l2.142,7.5Z" transform="translate(-242.077)"/><path class="d" d="M325.639,9.639h-7.5A2.148,2.148,0,0,1,316,7.5V0a1,1,0,0,1,.75.321l8.568,8.568A1,1,0,0,1,325.639,9.639Z" transform="translate(-297.793)"/><g transform="translate(6.426 15.066)"><path class="e" d="M164.923,213.142H152.071a1.071,1.071,0,0,1,0-2.142h12.852a1.071,1.071,0,0,1,0,2.142Z" transform="translate(-151 -211)"/></g><g transform="translate(6.426 19.35)"><path class="e" d="M164.923,273.142H152.071a1.071,1.071,0,0,1,0-2.142h12.852a1.071,1.071,0,0,1,0,2.142Z" transform="translate(-151 -271)"/></g><g transform="translate(6.426 23.634)"><path class="e" d="M164.923,333.142H152.071a1.071,1.071,0,0,1,0-2.142h12.852a1.071,1.071,0,0,1,0,2.142Z" transform="translate(-151 -331)"/></g><g transform="translate(6.426 27.918)"><path class="e" d="M160.639,393.142h-8.568a1.071,1.071,0,0,1,0-2.142h8.568a1.071,1.071,0,0,1,0,2.142Z" transform="translate(-151 -391)"/></g></g><g transform="translate(74.941 15.066)"><g transform="translate(0 12.852)"><path class="f" d="M256,393.142h2.142a1.071,1.071,0,0,0,0-2.142H256Z" transform="translate(-256 -391)"/></g><g transform="translate(0 8.568)"><path class="f" d="M256,333.142h6.426a1.071,1.071,0,1,0,0-2.142H256Z" transform="translate(-256 -331)"/></g><g transform="translate(0 4.284)"><path class="f" d="M256,273.142h6.426a1.071,1.071,0,1,0,0-2.142H256Z" transform="translate(-256 -271)"/></g><path class="f" d="M256,213.142h6.426a1.071,1.071,0,1,0,0-2.142H256Z" transform="translate(-256 -211)"/></g></g></g></svg>